<?xml version="1.0" encoding="UTF-8"?>
<svg xmlns="http://www.w3.org/2000/svg" id="Layer_1" version="1.1" viewBox="0 0 570.24 570.24" style="background: transparent;">
  <!-- Generator: Adobe Illustrator 29.7.1, SVG Export Plug-In . SVG Version: 2.1.1 Build 8)  -->
  <defs>
    <style>
      .st0 {
        fill: #e44c17;
      }

      .st0, .st1, .st2, .st3, .st4, .st5, .st6, .st7, .st8, .st9 {
        stroke-miterlimit: 10;
      }

      .st0, .st1, .st2, .st5, .st7, .st8, .st9 {
        stroke-width: 2.21px;
      }

      .st0, .st2 {
        stroke: #002e52;
      }

      .st1, .st5, .st6, .st10, .st8, .st9 {
        fill: #002f55;
      }

      .st1, .st7 {
        stroke: #adc716;
      }

      .st11 {
        fill: #33c5b5;
      }

      .st2 {
        fill: #ecaa19;
      }

      .st3 {
        fill: none;
        stroke: #7f8080;
        stroke-width: 1.11px;
      }

      .st4 {
        stroke: #000;
      }

      .st4, .st12 {
        fill: #fff;
      }

      .st5 {
        stroke: #33c5b5;
      }

      .st6 {
        stroke: #e44c17;
        stroke-width: 3.32px;
      }

      .st7 {
        fill: #002e52;
      }

      .st13 {
        fill: #dd2080;
      }

      .st8 {
        stroke: #ecaa19;
      }

      .st9 {
        stroke: #dd2080;
      }

      .st14 {
        fill: #fdf6ef;
      }
    </style>
  </defs>
  
  <g>
    <path class="st3" d="M332.19,528.01l-199.57-32.66c-4.39-.68-6.84-5.43-4.86-9.4l15.39-30.78c1.09-2.19,3.31-3.58,5.76-3.62l287.12-4.33c2.62-.04,5.02,1.49,6.08,3.89l4.61,10.37c1.43,3.21.07,6.97-3.08,8.53l-107.55,57.39c-1.21.6-2.57.81-3.9.6Z"/>
    <g>
      <path class="st7" d="M452.16,220.31l17.93-37.22c2.09-4.33-.4-9.49-5.09-10.54l-91.04-20.54c-3.11-.7-6.32.64-8,3.35l-28.62,46.08c-.7,1.12-1.08,2.4-1.12,3.72l-1.91,62.87c-.17,5.64,5.73,9.43,10.79,6.93l103.65-51.2c1.5-.74,2.7-1.96,3.43-3.46Z"/>
      <path class="st1" d="M137.91,273.44l-42.53,18.37c-6.82,2.94-13.28-4.75-9.22-10.97,6.49-9.93,18.47-25.44,40.19-49.67.14-.16.28-.33.41-.5l14.79-19.72c1.94-2.59,5.32-3.63,8.38-2.6l25.92,8.78c5.11,1.73,6.76,8.13,3.14,12.12l-38.51,42.36c-.72.79-1.59,1.41-2.57,1.84Z"/>
      <g>
        <path class="st13" d="M304,197.26c.16-.26.33-.52.49-.78-.45-2.98-9.34,15.17-.49.78Z"/>
        <path class="st9" d="M493.56,221.1c.07-1.27-.06-2.55-.42-3.76-1.27-4.26-4.85-7.57-8.94-9.32-4.09-1.75-8.65-2.1-13.09-1.93-10.81.42-30.22,5.71-44.37,10.43-4.76,1.59-3.49-2.55-2.49-3.3,4.71-3.56,10.08-6.15,15.32-8.81,5.02-2.55,10.16-5.07,14.21-9.07,3.01-2.98,5.34-6.89,5.9-11.13.27-2.09.09-3.52-.99-5.28s-2.77-3.14-4.72-3.92c-5.19-2.06-10.5-.62-15.45,1.15-16.41,5.86-31.09,16.2-44.78,26.76,4.67-3.61,8.08-9.23,11.83-13.75,4.34-5.23,8.79-10.35,13.37-15.37,9.03-9.9,18.51-19.37,28.42-28.39,4.82-4.39,9.89-8.86,11.92-15.22.77-2.4.95-4.98.42-7.44-1.95-8.99-11.06-10.35-17.72-7.57-4.79,2-8.6,5.73-12.28,9.38-10.35,10.26-20.79,20.49-30.69,31.11-4.26,4.57-8.51,9.17-12.65,13.85-1.31,1.48-6.57,5.9-6.57,8.09,5.56-12.14,12.28-23.8,18.36-35.68,7.35-14.34,14.12-28.46,18.13-44.17.74-2.91,1.41-5.93.38-8.92-.29-.83-.73-1.62-1.33-2.26-3.58-3.86-9.16-1.25-12.25,2.28-14.33,16.36-28.54,32.69-40.46,51.09-.72,1.11-1.66,2.09-2.81,2.74-2.98,1.71-4.44.07-3.77-3.27.28-1.37.87-2.66,1.39-3.96,3.19-8.05,2.81-16.78,2.3-25.27-.72-12.03-3.28-27.22-13.65-35.02-4.05-3.05-10.21-3.94-14.06-.63-2.43,2.09-3.45,5.33-4.36,8.4-3.66,12.29-7.31,24.58-10.97,36.88-3.07,10.31-8.14,21.61-7.1,32.62.66,7,1.51,14.04,2.4,20.99.2,1.52,2.42,8.57,1.09,9.57-12.23,9.52-.39.29-8.59,13.5.11.71-.26,2.62-1.47,6.47-.01.04-.03.09-.04.13l-13.53,49.62,45.11,48.49s53.59-29.03,54.13-29.32c2.26-1.22,4.52-5.23,6.17-7.14,3.55-4.11,7.11-8.23,10.66-12.34,3.22-3.73,7.78-5.63,12.27-7.27,5.04-1.85,9.22-4.84,13.13-8.49,4.36-4.08,8.33-8.62,13.22-12.04,4.89-3.42,11-5.67,16.83-4.39,5.03,1.11,9.12,4.63,13.56,7.24,4.44,2.61,10.2,4.3,14.6,1.63,2.72-1.65,4.26-4.77,4.45-7.97Z"/>
      </g>
      <path class="st1" d="M327.62,223.06c-2.21-2.79-1.19-12.73-1.28-16.01-.35-12.03.59-24,2.87-35.81,2.09-10.79,5.83-21.29,11.28-30.85,4.48-7.87,12.69-21.58,21.43-25.3,10.07-4.28,11.32,9.08,11.13,15.96-.23,8.49-.62,16.98-1.04,25.47-.31,6.16-4.87,21.33,5.67,20.87,2.5-.11,4.85-1.16,7.13-2.19,6.76-3.06,13.52-6.13,20.28-9.19,2.92-1.32,5.91-2.67,9.1-2.98s6.68.58,8.71,3.07c2.25,2.75,2.19,6.84.79,10.11-1.4,3.27-3.92,5.9-6.39,8.45-5.58,5.77-11.15,11.53-16.73,17.3-2.31,2.39-4.81,5.67-3.44,8.7,1.67,3.71,7.02,3.07,10.99,2.19,4.96-1.1,10.48-1.53,14.83,1.08,12.37,7.43-3.62,21.62-9.73,27.31-13.61,12.68-29.11,23.43-44.49,33.81,0,0-41.1-51.99-41.1-51.99Z"/>
      <path class="st6" d="M167.29,222.39c-10.43-6.83-20.14-15.45-28.27-24.87-7.43-8.62-14.33-19.55-16.11-30.98-2.03-13.03,4.62-25.43,19.18-20.57,6.48,2.16,8.66,8.2,13.89,11.24,5.16,3,8.95-3.19,8.38-8.97-.46-4.61-2.97-8.72-4.82-12.97-6.08-13.91,1.36-28.98,15.12-34.35,19.32-7.54,43.42,8.46,56.24,21.89,6.77,7.09,14.91,17.07,24.7,20.02,9.5,2.86,18.82-4.8,24.31-11.96,7.65-9.98,22.47-19.47,33.63-24.66,17.25-8.02,21.84,6.69,21.48,21.25-.21,8.61-1.56,17.17-2.98,25.65-.47,2.83-4.51,25.65,4.91,16.03,5.17-5.28,12.67-11.35,20.1-6.2,4.58,3.17,6.64,9.08,6.55,14.65s-2.02,10.93-4.01,16.14c-11.58,30.41-25.8,59.81-42.44,87.77-1.15,1.94-29.04-2.76-31.99-3.06-12.92-1.29-25.84-2.58-38.76-3.88-16.94-1.69-33.89-3.39-50.83-5.08h-.03s-28.26-47.1-28.26-47.1Z"/>
      <g>
        <g>
          <path class="st10" d="M153.31,278.39c2.77-43.41-.82-87.01-7.99-129.84-3.59-21.45-8.08-42.75-13.15-63.9-.94-3.93-3.62-9.48-2.23-13.55,1.96-5.75,9.57-5.06,14.91-6.07,14.11-2.66,28.23-5.33,42.34-7.99,24.68-4.66,49.37-9.31,74.05-13.97,11.36-2.15,20.01-1.07,26.73,8.96,5.8,8.67,7.72,19.52,9.33,29.63,9.83,61.7,20.01,123.11,26.59,185.22.65,6.09.7,13.48-4.42,16.86-2.27,1.5-5.1,1.81-7.81,2.08-50.22,5.01-100.43,10.01-150.65,15.02-2.51.25-5.47.32-7.04-1.65-1.03-1.29-1.11-3.06-1.14-4.71-.29-13.88-.58-27.76-.87-41.64"/>
          <path class="st11" d="M154.97,278.39c1.77-27.89.94-55.9-1.8-83.7-2.72-27.64-7.28-55.08-13.02-82.25-1.45-6.88-2.98-13.75-4.57-20.6-.72-3.1-1.35-6.26-2.27-9.31-.81-2.69-1.94-5.42-2.09-8.25-.11-2.07.48-4.07,2.3-5.22,1.66-1.05,3.71-1.4,5.63-1.65,2.38-.32,4.76-.53,7.12-.97l10.22-1.93c27.79-5.24,55.58-10.48,83.38-15.73,6.95-1.31,13.89-2.62,20.84-3.93,4.73-.89,9.71-1.62,14.47-.46,10.67,2.59,15.43,14.42,17.87,24,1.56,6.12,2.44,12.38,3.44,18.6,1.09,6.85,2.19,13.7,3.29,20.55,2.23,13.93,4.45,27.87,6.61,41.82,4.32,27.81,8.41,55.65,11.91,83.57.88,7.04,1.73,14.09,2.53,21.14.39,3.45.77,6.89,1.14,10.34.29,2.69.61,5.38.56,8.08-.04,2.39-.32,4.92-1.47,7.06-1.23,2.28-3.28,3.52-5.77,4.08-3.12.71-6.42.8-9.6,1.12-3.56.36-7.13.71-10.69,1.07-28.26,2.82-56.51,5.64-84.77,8.45-14.09,1.4-28.17,2.81-42.26,4.21-3.21.32-6.56.97-9.79.81-.99-.05-2.11-.25-2.82-1.02-.9-.99-.84-2.55-.88-3.79-.18-7.1-.3-14.21-.44-21.32s-.28-13.55-.42-20.32c-.04-2.13-3.36-2.14-3.32,0,.15,7.27.3,14.54.45,21.81.08,3.64.15,7.27.23,10.91s-.06,7.01.26,10.46c.26,2.88,1.58,5.29,4.46,6.2s5.96.21,8.78-.07c7.29-.73,14.58-1.45,21.88-2.18,29-2.89,58.01-5.78,87.01-8.68,7.29-.73,14.58-1.45,21.88-2.18,3.56-.36,7.13-.71,10.69-1.07,3.26-.33,6.61-.47,9.83-1.12,13.41-2.72,9.9-19.17,8.82-28.91-3.19-28.68-7.12-57.27-11.39-85.81-4.27-28.57-8.88-57.08-13.44-85.6-1.96-12.27-3.43-25.62-10.8-36.06-2.88-4.07-6.65-7.37-11.45-8.94s-9.71-1.25-14.5-.52c-6.81,1.05-13.58,2.53-20.36,3.81-7.19,1.36-14.38,2.71-21.58,4.07-14.36,2.71-28.73,5.42-43.09,8.13-7.14,1.35-14.28,2.69-21.42,4.04-5.81,1.1-11.57,2.22-17.43,2.97-4.45.57-9.21,1.83-10.81,6.56-.9,2.67-.32,5.66.4,8.29.78,2.86,1.72,5.64,2.4,8.53,6.61,27.83,12.21,55.93,16.03,84.29,3.83,28.42,5.87,57.13,5.33,85.81-.13,6.94-.41,13.89-.85,20.82-.14,2.13,3.18,2.12,3.32,0h0Z"/>
        </g>
        <path class="st14" d="M153.19,95.86c12.42-3,25.05-5.18,37.63-7.38,14.78-2.58,29.59-5,44.41-7.32,6.35-1,12.71-1.98,19.07-2.94,1.78-.27,1.02-2.97-.75-2.71-12.65,1.91-25.29,3.9-37.91,5.96-14.8,2.42-29.6,4.91-44.33,7.72-6.31,1.21-12.62,2.45-18.87,3.96-1.75.42-1.01,3.13.75,2.71h0Z"/>
        <path class="st14" d="M149.27,88.02c17.54-4.24,35.22-7.88,53-10.92,5.07-.87,10.15-1.68,15.23-2.45,1.78-.27,1.02-2.97-.75-2.71-17.84,2.7-35.59,5.99-53.2,9.89-5.02,1.11-10.03,2.27-15.03,3.48-1.75.42-1.01,3.13.75,2.71h0Z"/>
        <path class="st14" d="M168.87,147.52c25.26-.41,50.47-3.62,75.02-9.57,6.96-1.69,13.86-3.6,20.7-5.72,1.72-.53.99-3.24-.75-2.71-23.97,7.43-48.74,12.22-73.76,14.19-7.06.55-14.13.88-21.21,1-1.8.03-1.81,2.83,0,2.81h0Z"/>
        <path class="st14" d="M168.87,159.14c25.26-.41,50.47-3.62,75.02-9.57,6.96-1.69,13.86-3.6,20.7-5.72,1.72-.53.99-3.24-.75-2.71-23.97,7.43-48.74,12.22-73.76,14.19-7.06.55-14.13.88-21.21,1-1.8.03-1.81,2.83,0,2.81h0Z"/>
        <path class="st14" d="M168.87,170.77c25.26-.41,50.47-3.62,75.02-9.57,6.96-1.69,13.86-3.6,20.7-5.72,1.72-.53.99-3.24-.75-2.71-23.97,7.43-48.74,12.22-73.76,14.19-7.06.55-14.13.88-21.21,1-1.8.03-1.81,2.83,0,2.81h0Z"/>
        <path class="st14" d="M168.87,182.39c25.26-.41,50.47-3.62,75.02-9.57,6.96-1.69,13.86-3.6,20.7-5.72,1.72-.53.99-3.24-.75-2.71-23.97,7.43-48.74,12.22-73.76,14.19-7.06.55-14.13.88-21.21,1-1.8.03-1.81,2.83,0,2.81h0Z"/>
        <path class="st14" d="M168.87,194.01c25.26-.41,50.47-3.62,75.02-9.57,6.96-1.69,13.86-3.6,20.7-5.72,1.72-.53.99-3.24-.75-2.71-23.97,7.43-48.74,12.22-73.76,14.19-7.06.55-14.13.88-21.21,1-1.8.03-1.81,2.83,0,2.81h0Z"/>
        <path class="st14" d="M168.87,205.64c25.26-.41,50.47-3.62,75.02-9.57,6.96-1.69,13.86-3.6,20.7-5.72,1.72-.53.99-3.24-.75-2.71-23.97,7.43-48.74,12.22-73.76,14.19-7.06.55-14.13.88-21.21,1-1.8.03-1.81,2.83,0,2.81h0Z"/>
        <path class="st14" d="M168.87,217.26c25.26-.41,50.47-3.62,75.02-9.57,6.96-1.69,13.86-3.6,20.7-5.72,1.72-.53.99-3.24-.75-2.71-23.97,7.43-48.74,12.22-73.76,14.19-7.06.55-14.13.88-21.21,1-1.8.03-1.81,2.83,0,2.81h0Z"/>
      </g>
      <path class="st5" d="M143.66,267.62c-.28-.05-1.96-5.08-2.17-5.52-2.11-4.24-5.05-8.15-8.79-11.08-5.21-4.08-11.61-5.9-18.18-5.81-9.69.14-19.51,7.69-28.91,5.01-3.7-1.06-7.03-3.75-8.34-7.37-2.01-5.57,1.18-11.95,5.96-15.44,8.93-6.52,21.23-6.29,31.7-4.84,5.87.81,11.63,2.3,17.18,4.35,1.98.73,8.07,2.74,12.74,4.99,2.19,1.05,4.65-.77,4.25-3.17-2.52-15.18-4.31-46,29.42-20.47,1.44,1.09,3.48-.16,3.16-1.95-.26-1.45-.45-2.76-.62-3.47-1.61-6.52-2.98-13.21-3.32-19.93-.81-16.18,7.54-21.11,21.53-12.28,7.89,4.98,15.55,11.13,21.25,18.56,4.05,5.28,9.13,15.88,16.94,14.92,8.88-1.09,11.61-11.49,15.34-18.04,4.77-8.38,13.48-27.13,25.04-27.52,8.27-.28,14.85,11.71,15.73,18.88.83,6.8-2.31,13.37-5.12,19.61-3.14,6.96-8.48,22.26.99,26.99,0,0,44.72-58.08,38.34-.59-1.9,17.08,18.59-4.9,23.21-8.06,5.79-3.97,14.69-5.48,18.72,1.4.79,1.35,1.24,2.89,1.38,4.45.47,5.07-5.61,9.33-3.96,13.92,12.76,35.61-27.43,44.2-45.74,61.49,0,0-177.3-28.97-177.74-29.04Z"/>
      <path class="st8" d="M180.25,268.22c-2.06-.25-7.18-12.42-8.08-14.12-4.32-8.11-9.61-17.32-11.05-26.53-1.17-7.48.54-11.41,8.62-9.9,11.06,2.07,20.03,10.38,26.61,19.07,3.73,4.93,9.06,20.84,14.77,23.26,0,0,.9.38.9-3.3,0,0,3.42-29.21,22.37.26,0,0,5.53,11.32,5.53-2.37,0,0,4.21-62.9,22.9-40.26,0,0,6.84,4.47,2.37,38.16,0,0,.26,13.95,6.84,3.42,0,0,13.42-35,31.58-21.58,0,0,6.84,4.47-5.79,27.11,0,0-11.32,18.42.79,7.89,0,0,31.54-20.88,18.14,15.61,0,0-136.18-16.68-136.48-16.72Z"/>
      <path class="st0" d="M338.06,278.44l102.04-50.41c5.01-2.47,10.86,1.21,10.79,6.8l-2.63,219.31c-.03,2.58-1.39,4.96-3.59,6.3l-107.82,65.74c-1.9,1.16-4.34-.22-4.33-2.45l1.36-238.63c.02-2.83,1.63-5.41,4.17-6.66Z"/>
      <path class="st2" d="M124.92,260.71l-3.97,216.77c-.07,3.6,2.44,6.73,5.97,7.46l203.74,42.11c.96.2,1.86-.53,1.87-1.5l2.72-237.07c.04-3.76-2.71-6.97-6.44-7.49l-195.38-27.54c-4.45-.63-8.44,2.78-8.52,7.27Z"/>
      <path class="st1" d="M335.59,287.69l33.18,44.24c2.17,2.89,6.1,3.82,9.33,2.2l98.52-47.39c3.77-1.88,5.24-6.51,3.25-10.22l-25.41-47.51c-1.9-3.56-6.29-4.97-9.91-3.18l-106.29,50.66c-4.2,2.07-5.48,7.45-2.67,11.2Z"/>
      <g>
        <g>
          <path class="st12" d="M245.86,369.1c0,.34-.13.62-.39.84-.26.23-.58.41-.95.55-.37.14-.75.24-1.14.3-.39.06-.71.09-.97.1-.11,1.01-.19,2.03-.25,3.05-.06,1.02-.09,2.04-.09,3.08,0,.55.01,1.1.04,1.64s.04,1.08.04,1.62c0,.24-.02.5-.07.78-.05.28-.13.54-.24.77s-.27.42-.47.56c-.2.14-.45.18-.75.12-.35-.07-.63-.22-.84-.45-.21-.24-.37-.5-.48-.81-.11-.3-.19-.62-.23-.94-.04-.32-.06-.61-.06-.87-.03-.81-.05-1.63-.06-2.44-.01-.82-.02-1.63-.02-2.46,0-.69,0-1.36,0-2.02,0-.66.01-1.33.01-2.01-.19,0-.38-.03-.58-.05s-.39-.05-.59-.09c-.16-.03-.37-.09-.64-.17-.26-.08-.51-.19-.76-.33-.24-.13-.45-.29-.63-.48-.17-.19-.26-.4-.26-.64,0-.4.16-.73.47-.97.32-.24.72-.43,1.21-.56s1.04-.21,1.63-.26c.6-.04,1.19-.05,1.77-.03.58.02,1.12.06,1.61.11.49.05.87.1,1.14.16.26.05.53.11.82.18.29.08.56.18.82.33.26.14.47.32.64.54.17.22.25.5.25.83Z"/>
          <path class="st12" d="M254.39,379.27c0,.23,0,.57-.01,1.02,0,.45-.03.92-.06,1.4-.03.49-.08.94-.13,1.37s-.12.73-.2.92c-.11.24-.25.43-.42.58-.18.16-.41.21-.71.15-.46-.09-.79-.33-.99-.73s-.34-.88-.4-1.43c-.07-.55-.09-1.14-.08-1.77.01-.63,0-1.22-.02-1.76s-.1-1.01-.22-1.39-.34-.61-.67-.67c-.44-.08-.78-.08-1.02.02-.24.1-.4.25-.5.46-.1.21-.16.46-.18.75-.02.29-.04.6-.07.91-.03.3-.05.72-.06,1.24-.01.52-.07,1.03-.18,1.52-.11.49-.29.9-.53,1.22-.25.32-.62.44-1.1.35-.3-.06-.53-.22-.72-.48-.18-.26-.33-.59-.43-.97-.11-.38-.19-.8-.23-1.25-.05-.45-.07-.89-.08-1.32,0-.42,0-.81,0-1.16,0-.35.01-.61.01-.79,0-.27,0-.71.03-1.33.02-.62.06-1.3.13-2.04.07-.75.15-1.51.26-2.3.11-.79.25-1.5.42-2.13.17-.63.39-1.13.64-1.5.25-.37.54-.52.88-.44.21.05.4.18.55.39s.28.45.38.75c.1.29.19.61.25.95.07.34.12.67.15.99.03.32.05.62.06.89s.01.48.01.63c0,.35,0,.7-.02,1.05-.01.35-.03.69-.06,1.04.31-.36.72-.62,1.24-.79.52-.17,1.04-.21,1.56-.11.67.13,1.18.41,1.52.84.34.43.59.94.74,1.51s.23,1.17.24,1.78c.01.61.02,1.16.02,1.65Z"/>
          <path class="st12" d="M264.68,382.85c0,.46-.15.88-.43,1.26-.29.38-.65.7-1.09.96s-.9.45-1.4.56c-.5.11-.96.13-1.37.05-.71-.14-1.35-.43-1.91-.9-.56-.46-1.03-1-1.4-1.63-.38-.62-.66-1.29-.86-1.99-.19-.7-.29-1.37-.29-2,0-.67.09-1.37.28-2.1.19-.73.47-1.38.86-1.96.38-.57.87-1.02,1.45-1.34.58-.32,1.28-.4,2.09-.25.46.09.89.25,1.31.48s.78.52,1.09.86c.31.34.56.73.75,1.15.19.43.28.88.28,1.37,0,.63-.13,1.2-.4,1.7-.27.5-.62.91-1.07,1.23-.44.32-.96.55-1.53.69-.58.14-1.17.16-1.77.08.05.4.21.71.47.94.26.22.57.37.94.44.27.05.53.03.79-.05.26-.09.5-.19.75-.31.24-.12.48-.23.72-.32.23-.09.47-.11.72-.07.27.05.51.18.73.4.21.22.32.46.32.75ZM261.41,377.29c0-.17-.05-.37-.14-.57-.09-.21-.24-.33-.44-.37-.3-.06-.54-.03-.75.09-.2.12-.37.28-.5.49-.13.21-.24.44-.31.7-.07.25-.12.5-.13.72.19,0,.41-.02.68-.03.26-.02.51-.06.75-.13.23-.07.44-.18.6-.32.17-.14.25-.34.25-.58Z"/>
        </g>
        <g>
          <path class="st12" d="M248.06,388.63c0,.37-.12.68-.35.91-.23.23-.52.41-.84.52-.29.12-.59.26-.9.4-.31.14-.59.32-.85.52-.26.2-.47.44-.63.72s-.24.61-.24,1c0,.34.08.66.24.97s.36.62.6.93c.23.31.49.64.78.98.28.34.54.7.78,1.1.24.39.43.83.6,1.29s.24,1,.24,1.58c0,.41-.09.85-.26,1.33-.17.48-.4.95-.69,1.42-.29.46-.64.9-1.03,1.31-.4.41-.82.77-1.27,1.06-.45.3-.91.52-1.4.66-.49.14-.96.17-1.41.09-.5-.1-.95-.32-1.34-.67-.39-.35-.58-.8-.58-1.35,0-.37.09-.7.27-.98.18-.28.4-.55.66-.79.26-.24.55-.47.87-.69.32-.22.6-.44.86-.66.26-.23.48-.47.66-.74.18-.27.27-.57.27-.91,0-.47-.17-.99-.5-1.54-.33-.56-.7-1.14-1.11-1.74-.41-.61-.78-1.22-1.11-1.83-.33-.61-.5-1.21-.5-1.77,0-.7.19-1.4.56-2.1.37-.7.85-1.32,1.44-1.85.58-.53,1.24-.94,1.97-1.22.73-.28,1.45-.36,2.17-.22.57.11,1.06.37,1.46.79.41.42.61.92.61,1.5Z"/>
          <path class="st12" d="M255.09,407.93c-1.15-.22-2.05-.54-2.69-.96-.64-.42-1.12-.94-1.44-1.55-.32-.61-.51-1.31-.57-2.11s-.1-1.67-.1-2.62c0-.76.02-1.52.07-2.29.05-.76.12-1.57.22-2.43-.23-.04-.41-.07-.54-.09-.13-.02-.24-.03-.32-.05-.52-.1-.97-.3-1.35-.6-.38-.3-.57-.68-.57-1.16,0-.29.11-.53.33-.72.22-.19.5-.33.84-.42.34-.1.71-.16,1.11-.18.4-.02.78-.01,1.13.02,0-.45.03-.95.1-1.49.06-.54.18-1.03.35-1.48s.4-.81.69-1.07c.29-.27.67-.36,1.12-.27.26.05.49.17.69.36s.37.42.5.68.23.54.29.85c.06.3.1.59.1.87,0,.32-.02.65-.07.98-.05.33-.14.74-.27,1.22.27.02.46.04.56.05.1.01.19.02.27.04.28.05.56.13.86.24.3.11.58.24.83.4s.46.35.62.57c.16.22.24.46.24.72,0,.29-.12.53-.35.71-.24.18-.53.32-.89.42-.36.09-.74.15-1.14.16-.41.01-.79,0-1.14-.03-.1.65-.17,1.25-.21,1.8-.04.55-.09,1.11-.13,1.67-.03.27-.06.55-.09.82-.03.28-.04.57-.04.86,0,.21,0,.46.02.75s.07.57.17.85.25.53.46.76c.21.23.5.38.88.45.23.04.46.07.71.07.24,0,.49.03.73.08.42.08.73.28.91.61.19.33.28.72.28,1.17,0,.34-.1.62-.3.83-.2.21-.46.37-.77.46-.31.1-.65.15-1.04.16-.38,0-.74-.02-1.08-.08Z"/>
          <path class="st12" d="M269.62,406.38c0,.29-.01.67-.04,1.14-.03.47-.09.91-.21,1.34-.12.42-.29.78-.54,1.06-.24.28-.58.38-1.02.29-.6-.11-1.06-.4-1.39-.85-.32-.45-.48-.97-.46-1.55-.52.36-1.11.6-1.77.74-.66.13-1.33.14-2.01,0-.47-.09-.92-.29-1.34-.6-.42-.31-.8-.67-1.12-1.09-.32-.42-.58-.87-.78-1.35s-.29-.94-.29-1.38c0-.78.24-1.42.72-1.91.48-.49,1.07-.88,1.77-1.16.7-.28,1.44-.47,2.23-.56.79-.1,1.49-.12,2.11-.09,0-.08,0-.15.01-.22,0-.06.01-.13.01-.22,0-.5-.14-.93-.41-1.3-.28-.36-.67-.59-1.17-.68-.41-.08-.75-.07-1.05,0-.29.08-.57.18-.83.31s-.52.23-.78.32c-.26.09-.55.1-.88.04-.36-.07-.66-.24-.91-.51-.25-.28-.38-.59-.38-.95,0-.54.16-.99.47-1.37.32-.38.71-.67,1.19-.88.48-.21,1-.35,1.56-.41.56-.06,1.08-.05,1.55.04.44.08.88.22,1.32.41.44.19.85.43,1.24.72.39.29.74.63,1.06,1,.32.38.57.79.77,1.25.29.66.53,1.34.71,2.05.18.71.32,1.42.42,2.15.1.73.16,1.44.19,2.16.03.71.05,1.4.05,2.07ZM265.72,404.86l-.07-1.67s-.06-.02-.1-.03-.06-.03-.1-.03c-.21-.04-.48-.04-.79,0-.32.04-.62.13-.91.26s-.54.29-.74.48-.31.4-.31.65c0,.23.08.4.24.51.16.11.35.19.56.23.36.07.74.05,1.14-.06.41-.11.76-.22,1.07-.34Z"/>
          <path class="st12" d="M280.03,402.68c-.23-.03-.42-.08-.58-.17-.16-.09-.33-.18-.49-.27-.15-.09-.29-.18-.44-.27s-.31-.14-.49-.15c-.33-.05-.61-.01-.87.1-.25.11-.48.27-.68.48-.2.2-.38.44-.52.72-.15.27-.26.55-.34.82-.05.19-.08.48-.11.87-.03.39-.04.82-.04,1.27-.02.47-.02.91-.02,1.33s-.02.75-.05.99c-.02.26-.06.55-.12.89-.06.34-.17.65-.3.93-.14.28-.32.51-.55.68-.23.17-.52.22-.88.15-.28-.05-.52-.18-.72-.38-.2-.2-.37-.45-.51-.74s-.25-.63-.34-1c-.09-.37-.16-.75-.21-1.13-.05-.4-.09-.8-.11-1.19-.03-.39-.04-.77-.05-1.12,0-.35,0-.67,0-.96,0-.29.01-.52.01-.7-.02-.57-.04-1.15-.08-1.73-.04-.58-.06-1.16-.06-1.73,0-.36.01-.75.05-1.19.03-.43.12-.82.27-1.18.15-.35.36-.63.64-.84.28-.21.68-.26,1.18-.17.28.05.51.19.71.4.19.22.35.46.47.75.12.28.22.58.28.88.06.31.11.58.12.83.39-.56.83-.99,1.32-1.3.49-.3,1.12-.4,1.9-.28.39.06.77.17,1.16.33.38.16.73.37,1.05.64.32.26.58.58.78.94.2.36.31.77.33,1.21.03.53-.12.9-.46,1.11-.34.21-.75.28-1.24.2Z"/>
          <path class="st12" d="M291.05,404.77c-.23-.03-.42-.08-.58-.17-.16-.09-.33-.18-.49-.27-.15-.09-.29-.18-.44-.27-.15-.08-.31-.13-.49-.15-.32-.05-.61-.01-.87.1-.25.11-.48.27-.68.48-.2.2-.38.44-.52.72-.15.27-.26.55-.34.82-.05.19-.09.48-.11.87-.03.39-.04.82-.04,1.27-.02.47-.02.91-.02,1.34s-.02.75-.05.99c-.02.26-.06.55-.12.89s-.17.65-.3.93c-.14.28-.32.51-.55.68-.23.17-.52.22-.88.15-.28-.05-.52-.18-.72-.38-.2-.2-.37-.45-.51-.74s-.25-.63-.34-1c-.09-.37-.16-.75-.21-1.13-.05-.4-.09-.8-.11-1.19-.03-.39-.04-.77-.05-1.12,0-.35,0-.67,0-.96,0-.29.01-.52.01-.7-.02-.57-.04-1.15-.08-1.73-.04-.58-.06-1.16-.06-1.73,0-.36.02-.75.05-1.19.03-.43.12-.82.27-1.18.15-.35.36-.63.64-.84s.68-.26,1.18-.17c.28.05.51.19.71.4.19.22.35.46.47.75.12.28.22.58.28.88.06.3.11.58.12.83.39-.56.83-.99,1.32-1.3s1.12-.4,1.9-.29c.39.06.77.17,1.16.33.38.16.73.37,1.05.64.32.26.58.58.78.94.2.36.31.77.33,1.21.03.53-.12.89-.46,1.11-.34.21-.75.28-1.24.2Z"/>
          <path class="st12" d="M298.9,422.45c-.39-.07-.83-.22-1.33-.43-.49-.22-.96-.48-1.4-.79-.44-.31-.81-.66-1.11-1.04-.3-.38-.45-.78-.45-1.21,0-.16.04-.32.12-.46.08-.15.19-.27.33-.36.14-.1.29-.16.45-.21.16-.04.33-.05.51-.01.19.04.39.1.57.19.19.09.38.2.57.32.21.12.42.23.62.34.2.1.42.18.64.22.41.08.76,0,1.06-.21.3-.22.56-.53.77-.94.21-.41.38-.87.51-1.39.13-.52.23-1.04.3-1.56.07-.52.13-1.02.16-1.48s.06-.84.07-1.13c-.57.75-1.13,1.31-1.69,1.66-.56.36-1.25.46-2.06.3-.62-.12-1.16-.35-1.62-.7-.46-.35-.86-.76-1.18-1.25-.32-.48-.59-1.02-.8-1.6-.21-.58-.37-1.18-.47-1.78-.11-.6-.18-1.19-.21-1.76-.03-.57-.03-1.08,0-1.55.02-.35.06-.81.13-1.38.07-.56.19-1.1.35-1.63.16-.52.39-.94.68-1.27s.67-.43,1.15-.31c.31.07.56.26.75.55.2.29.35.63.48,1.03.12.4.21.82.27,1.28.06.46.09.91.11,1.35s.02.84.01,1.21-.01.64-.01.84c0,.28,0,.55.03.83.01.28.07.54.17.77.1.24.25.44.45.61.2.17.49.29.87.36.42.08.76.04,1.01-.13.25-.16.44-.39.56-.69s.2-.62.23-.98c.03-.36.05-.7.05-1.03v-.83c0-.32,0-.66.01-1.02s.04-.7.1-1.04c.06-.34.15-.64.27-.9.12-.26.28-.46.49-.6.2-.14.47-.18.79-.12.41.08.75.3,1.05.67s.54.83.74,1.38c.2.55.37,1.14.49,1.78s.21,1.27.28,1.89.11,1.19.13,1.71c.02.52.04.92.04,1.21,0,.68-.02,1.45-.07,2.31-.05.86-.14,1.73-.28,2.63-.14.89-.34,1.75-.62,2.58-.28.83-.64,1.56-1.08,2.17-.45.61-1,1.07-1.64,1.37-.65.3-1.43.36-2.34.19Z"/>
        </g>
        <g>
          <path class="st12" d="M236.23,412.14c0,.73-.16,1.41-.47,2.05-.32.64-.74,1.19-1.26,1.65-.52.46-1.12.8-1.8,1.03-.67.23-1.37.3-2.08.2-.01.24-.02.54-.03.91s-.03.75-.07,1.15c-.04.4-.1.79-.17,1.18-.07.39-.18.73-.32,1.03-.14.3-.32.52-.55.68-.22.16-.49.21-.82.15-.38-.07-.68-.25-.9-.54-.22-.29-.39-.62-.5-.99-.11-.37-.19-.75-.23-1.14-.04-.39-.07-.72-.08-.99-.03-.4-.04-.78-.05-1.16,0-.38,0-.76,0-1.15v-.98c0-.48,0-1.02,0-1.63,0-.61.02-1.25.03-1.91s.03-1.28.06-1.84c.03-.57.06-1.05.09-1.45.03-.4.08-.62.13-.68.01-.01.05-.03.12-.07.07-.03.14-.07.22-.1.08-.03.15-.06.22-.09.07-.03.11-.05.14-.05.62-.23,1.3-.41,2.04-.52.74-.12,1.47-.1,2.2.03.62.12,1.18.35,1.68.69.5.34.93.75,1.29,1.23.35.48.63,1.01.82,1.59.19.58.28,1.16.28,1.74ZM232.74,411.94c0-.27-.06-.52-.19-.74-.13-.23-.34-.37-.64-.42-.26-.05-.51-.05-.77,0-.26.05-.49.11-.71.18.04.48.08.94.11,1.39s.04.91,0,1.37c.22-.07.45-.15.71-.24.25-.09.49-.21.71-.34s.4-.3.54-.49.22-.43.22-.71Z"/>
          <path class="st12" d="M245.7,421.9c0,.24,0,.56-.03.94-.02.39-.08.76-.17,1.11-.1.35-.24.64-.44.87-.2.23-.48.31-.85.24-.5-.09-.88-.33-1.15-.7-.27-.37-.4-.8-.38-1.28-.43.3-.92.5-1.46.61-.55.11-1.1.11-1.67,0-.39-.07-.76-.24-1.11-.49-.35-.26-.66-.56-.93-.9-.27-.35-.48-.72-.64-1.12-.16-.4-.24-.78-.24-1.14,0-.65.2-1.17.6-1.58.4-.41.88-.73,1.46-.96.58-.23,1.19-.39,1.85-.47.65-.08,1.23-.1,1.74-.07,0-.07,0-.13,0-.18s.01-.11.01-.18c0-.42-.12-.77-.34-1.07-.23-.3-.55-.49-.97-.57-.34-.06-.63-.06-.87,0-.24.07-.47.15-.69.25-.22.1-.43.19-.65.26-.21.07-.46.08-.73.03-.3-.06-.55-.2-.76-.43s-.31-.49-.31-.79c0-.44.13-.82.39-1.14.26-.31.59-.56.99-.73.4-.17.83-.29,1.29-.34.46-.05.89-.04,1.28.03.36.07.73.18,1.09.34.36.16.71.36,1.03.6.32.24.62.52.88.83.26.31.47.66.64,1.04.24.54.44,1.11.58,1.69.15.59.26,1.18.34,1.78.08.6.13,1.19.16,1.78.03.59.04,1.16.04,1.71ZM242.47,420.64l-.06-1.38s-.05-.01-.08-.03-.05-.02-.08-.03c-.17-.03-.39-.03-.66,0-.26.04-.52.11-.76.22-.24.11-.45.24-.61.4-.17.16-.25.34-.25.54,0,.19.07.33.2.42s.29.16.46.19c.3.06.61.04.95-.05.34-.09.63-.19.89-.29Z"/>
          <path class="st12" d="M252.02,426.67c-.95-.18-1.7-.45-2.23-.8-.53-.35-.93-.78-1.19-1.29-.26-.51-.42-1.09-.47-1.74-.05-.66-.08-1.38-.08-2.17,0-.63.02-1.26.06-1.9.04-.63.1-1.3.18-2.01-.19-.03-.34-.06-.44-.07-.11-.01-.2-.03-.26-.04-.43-.08-.8-.25-1.12-.49-.32-.25-.47-.57-.47-.96,0-.24.09-.44.27-.59s.41-.27.7-.35c.28-.08.59-.13.92-.15s.64-.01.94.02c0-.38.03-.79.08-1.23.05-.45.15-.86.29-1.23.14-.37.33-.67.58-.89.24-.22.55-.3.93-.23.22.04.41.14.58.3.17.16.3.35.41.56.11.22.19.45.24.7.05.25.08.49.08.72,0,.27-.02.54-.06.81-.04.28-.12.61-.22,1.01.23.02.38.03.46.04.08,0,.16.02.22.03.23.04.47.11.71.2.25.09.48.2.69.33.21.13.38.29.52.47.13.18.2.38.2.59,0,.24-.1.44-.29.59-.19.15-.44.27-.74.34-.3.08-.61.12-.95.13s-.65,0-.95-.03c-.08.54-.14,1.03-.17,1.49-.03.46-.07.92-.11,1.38-.03.22-.05.45-.07.68-.02.23-.03.47-.03.71,0,.17,0,.38.02.62.01.24.06.47.14.7.08.23.21.44.38.63s.42.31.73.37c.19.04.38.06.58.06.2,0,.4.03.61.06.35.06.6.23.76.51.16.27.23.6.23.97,0,.28-.08.51-.25.69-.17.18-.38.31-.64.38-.26.08-.54.12-.86.13s-.62-.02-.9-.07Z"/>
          <path class="st12" d="M264.64,423.11c0,.23,0,.57,0,1.02,0,.45-.03.92-.06,1.4-.03.48-.08.94-.13,1.37-.06.43-.12.73-.2.92-.11.23-.25.43-.42.58-.17.16-.41.2-.71.15-.46-.09-.79-.33-.99-.73-.2-.4-.34-.88-.4-1.43-.07-.55-.1-1.14-.08-1.77.01-.63,0-1.22-.02-1.76-.03-.54-.1-1.01-.22-1.39-.12-.39-.34-.61-.67-.67-.44-.08-.78-.08-1.02.02-.24.1-.4.25-.5.46-.1.21-.16.46-.18.75-.02.29-.04.6-.07.91-.03.3-.05.72-.06,1.24-.01.52-.07,1.03-.18,1.52-.11.49-.29.9-.53,1.22-.25.32-.61.44-1.1.35-.3-.06-.53-.22-.72-.48-.18-.26-.33-.59-.43-.97-.11-.38-.19-.8-.23-1.25s-.07-.89-.08-1.32c0-.42,0-.81,0-1.16,0-.35,0-.61,0-.78,0-.27.01-.71.03-1.33.02-.61.06-1.3.13-2.04.07-.75.15-1.51.26-2.3.11-.79.25-1.5.42-2.13.17-.63.39-1.13.63-1.5.25-.37.54-.52.88-.44.21.05.4.18.55.39.15.2.28.45.38.75.1.29.19.61.25.95s.12.66.15.99c.03.32.06.62.06.89,0,.27,0,.48,0,.63,0,.35,0,.7-.02,1.04-.01.35-.03.69-.06,1.04.31-.36.72-.62,1.24-.79.52-.17,1.04-.21,1.56-.11.67.13,1.18.41,1.52.84.34.43.59.94.74,1.51.15.57.23,1.17.24,1.78.01.61.02,1.16.02,1.65Z"/>
        </g>
        <path class="st12" d="M194.09,400.56c-.52-.17-1.05-.33-1.59-.45-1.93-.45-4.29-.72-5.48.8-1.16,1.48-1.14,3.98-.66,6,1.15,4.83,5.21,7.65,9.31,9.98,2.21,1.26,4.53,2.53,6.33,4.46,1.82,1.95,3.06,4.84,2.05,7.02-.29.63.71,1.41,1.01.77.96-2.06.45-4.61-.96-6.82-1.47-2.31-3.76-3.92-6.02-5.28-2.75-1.65-5.8-3.04-8.06-5.5-2.12-2.32-3.19-5.53-2.65-8.25.36-1.8,1.51-2.47,3.38-2.3,1.49.14,3.01.58,4.47,1.16,0,0,0,0,0,0l-1.03-1.37c-.05-.07-.08-.14-.1-.22Z"/>
        <path class="st12" d="M162.01,371.99c-.76-2.08-2.76-3.49-4.78-3.81-1.48-.23-2.81.09-3.88.81-.15-1.64.04-3.25.52-4.71.15-.45.32-.87.52-1.28l.99,1.42c.23.33.69.33.8,0l.56-1.76c.04-.13.14-.22.28-.24l1.82-.35c.35-.07.4-.52.1-.79l-1.6-1.42c-.06-.05-.11-.11-.14-.18-.03-.07-.05-.14-.06-.21l-.06-1.27-.04-.7c-.02-.37-.44-.65-.74-.48l-1.55.89c-.11.06-.26.07-.4,0l-1.88-.87c-.36-.16-.68.12-.55.49l.64,1.96c.05.14.03.29-.05.39l-1.07,1.43c-.2.27.03.72.4.79l1.48.25c-1.01,2.13-1.51,4.92-1.05,7.59-.19.22-.36.45-.52.7-2.66,4.17-.94,10.29,1.68,15.06.39.71,1.4.32,1-.4-2.3-4.19-4.14-10.11-1.77-13.78.42,1.27,1.08,2.47,2.05,3.52,1.64,1.77,4.17,2.84,6.06,1.83,1.56-.84,1.91-3.02,1.24-4.88ZM159.68,375.94c-2.63.81-5.15-2.22-5.89-4.69-.08-.28-.15-.56-.22-.84,1.56-1.43,4.37-1.66,6.34.23,1.66,1.6,1.78,4.67-.24,5.29Z"/>
        <path class="st12" d="M180.96,348.71l-1.94-.58c-.14-.04-.27-.15-.34-.28l-1.01-1.86c-.19-.35-.66-.41-.81-.11l-.81,1.62c-.06.12-.17.19-.31.2l-1.9.09c-.36.02-.48.45-.2.75l1.22,1.35c-1.02.23-2.01.56-2.94,1-2.54,1.2-4.82,3.32-6.1,5.98-.15-.03-.3-.06-.44-.09-2.97-.53-5.95.01-8.3,1.43l.06,1.27c0,.07.02.14.06.21,1.68-1.21,3.78-1.87,6.1-1.91.66-.01,1.36.04,2.07.16-.4,1.11-.62,2.29-.62,3.54,0,1.88.6,4.18,2.36,5.48,1.9,1.41,4.12.84,5.17-.73,1.17-1.76.48-4.26-1.01-6.15-1.1-1.4-2.61-2.31-4.18-2.86.16-.31.34-.62.52-.91,1.72-2.72,4.42-4.46,7.56-5.21l-.11,1.34c-.03.36.36.69.69.57l1.7-.64c.12-.05.27-.03.4.05l1.8,1.1c.34.21.7-.02.63-.4l-.39-1.99c-.03-.15,0-.28.1-.37l.04-.04,1.1-1.06.13-.13c.24-.23.07-.7-.3-.81ZM169.55,359.79c2.09,1.81,3.19,5.3.77,6.53-2.43,1.24-4.21-1.81-4.38-4.01-.11-1.43.18-2.83.69-4.09,1.05.32,2.06.82,2.92,1.56Z"/>
        <path class="st12" d="M224.97,369c.26-.22.11-.69-.25-.82l-1.92-.7c-.14-.05-.26-.16-.33-.3l-.91-1.9c-.17-.36-.64-.45-.81-.15l-.68,1.17c-.55-.6-1.16-1.14-1.82-1.62-.99-.71-2.04-1.24-3.12-1.61-.63-2.06-1.92-4.03-3.74-5.59-3.95-3.39-9.37-4.46-13.92-4.74-2.18-.13-4.33.06-6.22.73-1.07-.76-2.21-1.38-3.36-1.89-2.18-.97-4.48-1.63-6.75-1.92l-1.1,1.06c3.2.2,7.02,1.2,10.08,3.23-1.42.69-2.65,1.69-3.57,3.09-2.03,3.07-3.21,9.15,1.4,12.08,1.9,1.21,4.26,1.28,5.89.34,1.82-1.05,2.69-3.18,2.83-5.38.16-2.55-.68-5.41-2.38-7.69-.55-.73-1.18-1.39-1.86-1.98,1.41-.41,2.96-.57,4.56-.52,4.04.13,8.93,1.01,12.64,3.59,1.98,1.38,3.45,3.23,4.2,5.23-2.84-.63-5.78-.25-8.16.74-1.97.82-3.62,2.4-3.65,4.81-.03,2.23,1.52,4.24,3.69,5.05,4.09,1.52,7.91-.81,9.27-4.24.59-1.47.72-3.08.45-4.67,1.34.55,2.57,1.38,3.62,2.45l-1.48-.02c-.36,0-.51.41-.25.73l1.36,1.66c.1.12.15.27.13.41l-.28,1.88c-.05.36.33.7.66.6l1.75-.53c.13-.04.28-.01.41.08l.92.63.83.56c.2.14.42.11.55,0,.08-.08.13-.2.11-.35l-.28-1.98c-.02-.14.03-.28.13-.36l1.36-1.14ZM193.34,356.89c3.03,3.93,3.31,11.88-2.16,12.01-2.45.06-4.53-1.79-5.13-4.3-.54-2.29.16-4.55,1.17-6.3.98-1.68,2.38-2.81,4.05-3.51.77.62,1.46,1.32,2.06,2.1ZM213.9,368.43c-.63,1.64-1.84,2.98-3.44,3.65-1.73.73-4.3.83-6.07-.8-2.52-2.32-.73-5.39,1.24-6.42,1.78-.93,4.03-1.34,6.19-1.25.81.03,1.61.16,2.39.38.32,1.48.25,3.01-.3,4.45Z"/>
        <path class="st12" d="M230.93,378.4c-1.67-1.82-4.03-2.46-6.17-2.69-.18-.02-.36-.04-.54-.05-.1-.93-.3-1.88-.57-2.83-.13.12-.35.14-.55,0l-.83-.56c.36,1.07.62,2.2.76,3.3-1.64-.08-3.28-.03-4.82.23-2.07.35-4.24,1.12-5.32,2.92-1.09,1.82-.39,4.31,1.7,5.72,2.3,1.55,5.07,1.01,6.81-.31,1.75-1.33,2.69-3.5,2.87-5.84.04-.47.05-.96.03-1.46.15.01.3.03.45.04,2.3.25,4.74.94,6.15,3.27,2.62,4.32,1.41,9.5-1.57,12.14-1.8,1.6-3.88,2.37-6.1,2.56l.68-1.36c.15-.31-.13-.73-.5-.74l-1.92-.03c-.14,0-.28-.07-.39-.19l-1.44-1.59c-.27-.3-.71-.23-.77.13l-.28,1.88c-.02.14-.11.24-.23.29l-1.7.63c-.07.03-.12.07-.16.13-.14.19-.07.51.18.69l1.21.82.54.37c.13.09.22.22.25.37l.38,1.99c.07.38.52.59.78.38l1.36-1.14c.1-.08.24-.11.38-.06l1.94.59c.37.11.63-.22.46-.58l-.71-1.48c3.48-.28,6.6-1.72,8.51-4.57,2.18-3.26,2.54-9.2-.9-12.96ZM219.65,383.73c-1.12.53-2.58.71-3.92.11-1.56-.69-2.61-2.36-2.07-3.86.72-2,3.18-2.76,5.16-3.05,1.38-.2,2.84-.26,4.3-.19.1,3-.85,5.75-3.47,6.98Z"/>
        <path class="st12" d="M175.44,382.3c.19-.16.38-.3.58-.44l-.68-1.64c-.15-.37-.62-.48-.81-.2l-1.01,1.48c-.07.11-.2.16-.34.15l-1.94-.15c-.37-.03-.54.37-.3.7l1.27,1.72c.09.13.13.28.1.41l-.39,1.84c-.07.35.29.71.63.64l.91-.21c-.17-1.79.76-3.28,1.98-4.29Z"/>
        <path class="st12" d="M174.61,386.01c-.01.13-.02.26-.01.39.05.02.11.04.16.08l1.7,1.29c.32.24.72.07.69-.31l-.16-1.97c-.01-.14.04-.27.15-.35l1.44-1.04c.27-.2.16-.67-.2-.83l-1.32-.56c-1.17.74-2.27,1.8-2.43,3.3Z"/>
        <path class="st12" d="M174.59,386.41c0-.13,0-.26.01-.39.16-1.5,1.26-2.56,2.43-3.3l-.58-.25c-.14-.06-.25-.18-.31-.32l-.12-.29c-.2.14-.39.29-.58.44-1.23,1.01-2.15,2.5-1.98,4.29l.89-.2c.08-.02.16,0,.25.02Z"/>
        <path class="st12" d="M195.48,402.49c.09.12.13.28.11.41l-.37,1.84c-.07.35.29.71.63.63l1.79-.43c.13-.03.28,0,.41.1l1.71,1.27c.32.24.71.06.68-.32l-.14-1.48c-1.68-.83-3.35-1.69-5.07-2.37l.26.34Z"/>
        <path class="st12" d="M201.82,402.6c.27-.2.15-.68-.21-.82l-1.9-.79c-.14-.06-.26-.17-.32-.31l-.82-1.92c-.16-.36-.62-.48-.81-.19l-.99,1.49c-.07.11-.2.17-.34.16l-1.94-.13c-.29-.02-.45.23-.39.49,2.23.73,4.37,1.85,6.53,2.93l1.2-.89Z"/>
        <path class="st12" d="M200.39,403.66l.23-.17c-2.16-1.07-4.3-2.2-6.53-2.93.02.07.05.15.1.22l1.03,1.37c1.72.68,3.39,1.53,5.07,2.37l-.05-.5c-.01-.14.04-.27.14-.35Z"/>
        <path class="st12" d="M190.12,381.03c-.16-.05-.33-.1-.49-.15.52-.62,1.05-1.23,1.61-1.82,4.32,2.26,11.21,7.86,15.1,4.06,1.5-1.47,1.34-4.07.03-6.14-1.36-2.13-3.79-3.36-6.04-3.59-3.88-.4-6.97,1.74-9.47,4.25-4.72-2.37-9.74-4.1-14.66-4.2-4.36-.09-8.7,1.14-11.49,4.12-2.52,2.69-4.27,7.01-3.34,11.26.82,3.75,4.1,6.31,7.53,7.53,4.87,1.73,10.06,1.88,14.75,1.41,5.08-.52,9.76-1.96,14.53-3.3,4.13-1.15,9.74-1.78,13.57,2.49,1.85,2.07,2.34,4.96,1.53,7.17-.9,2.43-3.62,2.61-6.1,2.01-2.25-.54-4.41-1.57-6.56-2.64l-.23.17c-.1.08-.16.21-.14.35l.05.5c1.22.6,2.43,1.2,3.68,1.71,2.39.98,5.02,1.77,7.34,1.22,2.33-.56,3.41-2.63,3.5-5.06.18-4.89-4.05-8.74-8.65-9.73-2.86-.62-5.63-.1-8.19.59-2.88.78-5.69,1.71-8.63,2.36-5.89,1.29-12.24,1.8-18.66.13-2.24-.59-4.64-1.59-6.35-3.46-2-2.19-2.27-4.96-1.84-7.41,1-5.65,5.25-9.26,10.79-10.04,5.5-.78,11.34.99,16.79,3.66-.55.59-1.07,1.2-1.56,1.78-.06.07-.2.22-.26.29M196.21,375.35c2.07-.94,4.66-1.23,7.06.14,2.37,1.35,4.07,4.79,2.25,6.66-1.68,1.72-4.66.94-6.92-.19-2.23-1.12-4.35-2.5-6.55-3.69,1.23-1.18,2.58-2.2,4.16-2.91Z"/>
        <path class="st12" d="M177.56,390.77c2.08.1,3.84-1.19,5.27-2.34,1.54-1.25,2.85-2.73,4.12-4.25.64-.76,1.26-1.56,1.9-2.34.56.15,1.12.33,1.68.52h-.02c-2.74-1.16-4.02-1.11-4.32-1.08.43.07.87.14,1.3.23-1.2,1.48-2.39,2.98-3.72,4.33-.82.84-1.7,1.62-2.66,2.3-1.14.81-2.68,1.81-4.32,1.38-1.39-.37-2.18-1.8-2.2-3.1-.08-.03-.17-.04-.25-.02l-.89.2c.02.21.05.42.1.64.45,1.95,2.09,3.45,4.01,3.54Z"/>
        <path class="st12" d="M189.54,382.03c4.54,1.37,8.91,3.96,13.13,6.47,4.88,2.89,9.94,5.83,15.25,7l-1.21-.82c-.26-.18-.32-.5-.18-.69-5.12-1.53-10.42-4.7-14.74-7.25-3.75-2.22-7.62-4.41-11.64-5.69,0,0-1.26-.41-1.9-.54-.32-.06-.63-.15-.95-.21-3.99-.79-8.25-.56-11.28,1.57l.12.29c.06.14.17.26.31.32l.58.25c.16-.1.32-.2.48-.28,2.2-1.22,4.9-1.56,7.61-1.3.77.07,1.53.19,2.29.35"/>
      </g>
    </g>
  </g>
</svg>