<?xml version="1.0" encoding="UTF-8"?>
<svg id="Layer_1" xmlns="http://www.w3.org/2000/svg" version="1.1" viewBox="0 0 1294.48 480">
  <!-- Generator: Adobe Illustrator 29.7.1, SVG Export Plug-In . SVG Version: 2.1.1 Build 8)  -->
  <defs>
    <style>
      .st0 {
        fill: #fff;
      }

      .st1 {
        fill: #e44c17;
      }

      .st2 {
        fill: #002f55;
      }
    </style>
  </defs>
  <rect class="st2" x="646.78" y="43.06" width="480.34" height="393.89" rx="21.84" ry="21.84"/>
  <rect class="st1" x="167.36" y="43.06" width="480.58" height="393.89" rx="21.84" ry="21.84"/>
  <circle class="st1" cx="675.37" cy="240" r="38.16"/>
  <g>
    <path class="st0" d="M738.23,169.42c-.53,0-.93-.15-1.27-.49-.32-.32-.5-.73-.5-1.2v-16.02c0-.47.17-.88.5-1.2s.73-.47,1.2-.47h9.01c.47,0,.88.15,1.2.46s.47.69.47,1.17c0,.4-.15.77-.47,1.08s-.73.47-1.2.47h-7.48l.24-.34v5.58l-.2-.35h6.17c.47,0,.88.15,1.2.46s.5.69.5,1.19c0,.4-.17.77-.5,1.08s-.73.47-1.2.47h-6.24l.24-.24v6.71c0,.47-.17.88-.51,1.2s-.74.49-1.2.49v-.04h.02Z"/>
    <path class="st0" d="M765.75,162.02c0,1.51-.34,2.85-1.01,4s-1.58,2.05-2.71,2.69-2.4.97-3.81.97-2.68-.32-3.82-.97-2.05-1.54-2.71-2.69c-.68-1.16-1.01-2.5-1.01-4s.34-2.85,1.01-4,1.58-2.07,2.71-2.71,2.4-.99,3.82-.99,2.68.32,3.81.99,2.05,1.55,2.71,2.71c.68,1.16,1.01,2.5,1.01,4ZM762.42,162.02c0-.94-.19-1.76-.57-2.45s-.89-1.23-1.53-1.62-1.34-.58-2.12-.58-1.47.2-2.12.58c-.63.39-1.14.92-1.53,1.62s-.57,1.51-.57,2.45.19,1.73.57,2.42c.38.69.89,1.23,1.53,1.62s1.34.58,2.12.58,1.47-.2,2.12-.58,1.14-.92,1.53-1.62.57-1.5.57-2.42Z"/>
    <path class="st0" d="M770.31,169.42c-.47,0-.88-.15-1.19-.49-.31-.32-.47-.73-.47-1.2v-11.44c0-.47.15-.88.47-1.2.31-.32.7-.47,1.19-.47s.88.16,1.19.47c.31.32.47.73.47,1.2v2.61l-.2-1.86c.2-.45.46-.84.78-1.17s.69-.63,1.09-.86.85-.4,1.31-.51.92-.16,1.39-.16c.55,0,1.01.15,1.4.47s.57.68.57,1.11c0,.62-.15,1.04-.47,1.32s-.66.4-1.03.4-.68-.07-.96-.2c-.3-.12-.62-.2-.99-.2-.34,0-.68.08-1.01.23-.34.15-.66.4-.93.74-.3.34-.53.74-.69,1.23s-.26,1.07-.26,1.73v6.58c0,.47-.15.88-.47,1.2-.31.32-.7.49-1.19.49h.01v-.02Z"/>
    <path class="st0" d="M795.05,154.32c1.05,0,1.97.11,2.76.34.78.22,1.4.53,1.84.92.43.4.65.88.65,1.43,0,.37-.11.73-.34,1.04-.22.32-.54.47-.97.47-.3,0-.54-.04-.74-.12s-.37-.19-.51-.32c-.15-.12-.32-.24-.53-.35-.19-.11-.46-.2-.85-.26s-.66-.09-.85-.09c-.93,0-1.74.2-2.4.62-.66.4-1.15.96-1.51,1.65s-.53,1.5-.53,2.4.19,1.68.54,2.38.86,1.24,1.5,1.65c.63.4,1.38.62,2.2.62.46,0,.86-.03,1.19-.08.34-.07.62-.14.84-.24.26-.15.5-.31.69-.47s.51-.24.91-.24c.47,0,.85.15,1.11.46s.38.68.38,1.12-.26.88-.77,1.26-1.2.68-2.03.91c-.85.23-1.76.34-2.73.34-1.46,0-2.73-.34-3.81-1.01-1.08-.68-1.89-1.61-2.48-2.76-.58-1.17-.88-2.46-.88-3.92s.31-2.85.92-4,1.47-2.07,2.57-2.71c1.09-.66,2.35-.99,3.78-.99l.03-.03-.02-.02Z"/>
    <path class="st0" d="M810.65,154.32c1.32,0,2.34.3,3.04.86s1.17,1.34,1.43,2.3.38,2,.38,3.17v7.09c0,.47-.15.88-.47,1.2-.31.32-.7.49-1.19.49s-.88-.15-1.19-.49c-.31-.32-.47-.73-.47-1.2v-7.09c0-.62-.08-1.16-.22-1.65-.15-.49-.42-.88-.8-1.17-.38-.3-.93-.45-1.66-.45s-1.31.15-1.8.45-.88.69-1.12,1.17c-.24.49-.37,1.04-.37,1.65v7.09c0,.47-.15.88-.47,1.2-.31.32-.7.49-1.19.49s-.88-.15-1.19-.49c-.31-.32-.47-.73-.47-1.2v-17.13c0-.47.15-.88.47-1.2.31-.32.7-.49,1.19-.49s.88.16,1.19.49.47.73.47,1.2v6.86l-.42-.08c.17-.31.4-.65.69-1.01.3-.35.66-.69,1.08-1.01.43-.31.89-.57,1.42-.77s1.08-.3,1.69-.3h-.01,0Z"/>
    <path class="st0" d="M820.55,152.79c-.63,0-1.08-.11-1.32-.31s-.38-.57-.38-1.08v-.53c0-.54.14-.89.43-1.09s.73-.3,1.31-.3c.65,0,1.09.11,1.35.31s.38.57.38,1.08v.53c0,.54-.14.89-.42,1.09s-.73.3-1.35.3ZM822.24,167.73c0,.47-.15.88-.47,1.2-.31.32-.7.49-1.19.49s-.88-.15-1.19-.49c-.31-.32-.47-.73-.47-1.2v-11.44c0-.47.15-.88.47-1.2.31-.32.7-.47,1.19-.47s.88.16,1.19.47c.31.32.47.73.47,1.2v11.44Z"/>
    <path class="st0" d="M829.25,167.73c0,.47-.15.88-.47,1.2s-.73.49-1.2.49-.85-.15-1.17-.49c-.31-.32-.47-.73-.47-1.2v-17.13c0-.47.15-.88.47-1.2s.73-.49,1.2-.49.88.16,1.17.49c.31.32.46.73.46,1.2v17.13h.01Z"/>
    <path class="st0" d="M844.99,148.92c.47,0,.88.15,1.19.47.31.31.47.73.47,1.22v17.13c0,.47-.15.88-.47,1.2-.31.32-.7.49-1.19.49s-.88-.15-1.19-.49c-.31-.32-.47-.73-.47-1.2v-1.35l.62.24c0,.24-.12.54-.38.88s-.62.68-1.05,1.01-.97.62-1.57.85-1.24.34-1.96.34c-1.28,0-2.43-.32-3.47-.99s-1.85-1.55-2.45-2.71-.89-2.47-.89-3.97.31-2.85.89-4,1.42-2.07,2.43-2.71,2.15-.99,3.39-.99c.8,0,1.53.12,2.19.35.66.24,1.24.54,1.73.91.5.37.86.74,1.14,1.12s.4.69.4.96l-1,.35v-7.42c0-.47.15-.88.47-1.2s.7-.49,1.19-.49h-.01ZM839.4,166.65c.81,0,1.53-.2,2.15-.62.62-.4,1.09-.96,1.43-1.66s.51-1.5.51-2.35-.17-1.68-.51-2.39-.81-1.26-1.43-1.66-1.32-.62-2.15-.62-1.5.2-2.11.62c-.62.4-1.09.96-1.43,1.66s-.51,1.5-.51,2.39.17,1.65.51,2.35.81,1.26,1.43,1.66,1.31.62,2.11.62Z"/>
    <path class="st0" d="M851.92,169.42c-.47,0-.88-.15-1.19-.49-.31-.32-.47-.73-.47-1.2v-11.44c0-.47.15-.88.47-1.2.31-.32.7-.47,1.19-.47s.88.16,1.19.47c.31.32.47.73.47,1.2v2.61l-.2-1.86c.2-.45.46-.84.78-1.17s.69-.63,1.09-.86.85-.4,1.31-.51.92-.16,1.39-.16c.55,0,1.01.15,1.4.47.38.31.57.68.57,1.11,0,.62-.15,1.04-.47,1.32s-.66.4-1.03.4-.66-.07-.96-.2c-.3-.12-.62-.2-.99-.2-.34,0-.68.08-1.01.23-.34.15-.66.4-.93.74-.3.34-.53.74-.69,1.23s-.26,1.07-.26,1.73v6.58c0,.47-.15.88-.47,1.2-.31.32-.7.49-1.19.49h.01v-.02Z"/>
    <path class="st0" d="M868.68,169.71c-1.57,0-2.94-.32-4.09-.99s-2.05-1.54-2.66-2.68c-.62-1.12-.92-2.4-.92-3.82,0-1.66.34-3.08,1.01-4.25s1.55-2.08,2.65-2.69c1.09-.63,2.24-.94,3.47-.94.93,0,1.84.2,2.68.58s1.58.92,2.23,1.58c.65.68,1.15,1.46,1.54,2.34s.57,1.84.57,2.84c-.01.45-.2.8-.53,1.08s-.73.42-1.17.42h-10.59l-.84-2.77h10.17l-.62.55v-.76c-.03-.54-.23-1.01-.57-1.45s-.77-.77-1.28-1.01-1.05-.37-1.62-.37-1.08.08-1.55.22c-.47.15-.89.4-1.24.76-.35.35-.63.81-.84,1.42-.2.58-.31,1.34-.31,2.24,0,1,.2,1.85.62,2.54s.96,1.22,1.61,1.58c.66.35,1.35.54,2.09.54.68,0,1.23-.07,1.63-.16s.74-.24.99-.4.47-.3.68-.4c.34-.16.65-.24.93-.24.4,0,.74.14,1.01.42.26.27.4.61.4.97,0,.49-.26.96-.77,1.35-.47.4-1.15.76-2.01,1.07s-1.77.46-2.7.46h.01v-.03Z"/>
    <path class="st0" d="M885.97,154.32c1.38,0,2.4.3,3.12.86s1.2,1.34,1.46,2.3.4,2,.4,3.17v7.09c0,.47-.15.88-.47,1.2-.31.32-.7.49-1.19.49s-.88-.15-1.19-.49c-.31-.32-.47-.73-.47-1.2v-7.09c0-.62-.08-1.16-.23-1.65s-.45-.88-.85-1.17c-.4-.3-.99-.45-1.74-.45s-1.35.15-1.86.45-.89.69-1.17,1.17c-.26.49-.4,1.04-.4,1.65v7.09c0,.47-.15.88-.47,1.2-.31.32-.7.49-1.19.49s-.88-.15-1.19-.49c-.31-.32-.47-.73-.47-1.2v-11.44c0-.47.15-.88.47-1.2.31-.32.7-.47,1.19-.47s.88.16,1.19.47c.31.32.47.73.47,1.2v1.19l-.42-.08c.17-.31.4-.65.73-1.01.31-.35.68-.69,1.11-1.01.43-.31.91-.57,1.45-.77s1.12-.3,1.74-.3h-.03Z"/>
    <path class="st0" d="M919.41,154.6c.43,0,.8.16,1.11.47.31.32.47.74.47,1.23,0,.12,0,.24-.03.34-.01.11-.04.2-.08.3l-4.23,11.43c-.12.37-.35.65-.69.85-.34.2-.68.26-1.05.2-.63-.03-1.09-.39-1.42-1.04l-2.74-7.9.73.03-2.57,7.86c-.31.66-.78,1.01-1.42,1.04-.35.07-.69,0-1.03-.2s-.58-.47-.7-.85l-4.23-11.43c-.08-.2-.11-.42-.11-.63,0-.45.15-.85.45-1.19.3-.35.7-.53,1.22-.53.35,0,.66.08.93.24s.47.43.58.8l3.35,9.09-.69-.07,2.53-6.85c.3-.68.8-1.03,1.53-1.03.4,0,.7.09.92.26.22.16.38.43.51.76l2.53,6.85-.84.11,3.4-9.15c.22-.7.76-1.04,1.61-1.04l-.03.03Z"/>
    <path class="st0" d="M931.4,154.32c1.32,0,2.34.3,3.04.86.69.57,1.17,1.34,1.43,2.3s.38,2,.38,3.17v7.09c0,.47-.15.88-.47,1.2-.31.32-.7.49-1.19.49s-.88-.15-1.19-.49c-.31-.32-.47-.73-.47-1.2v-7.09c0-.62-.08-1.16-.22-1.65-.15-.49-.42-.88-.8-1.17-.38-.3-.93-.45-1.66-.45s-1.31.15-1.8.45-.88.69-1.12,1.17c-.24.49-.37,1.04-.37,1.65v7.09c0,.47-.15.88-.47,1.2-.31.32-.7.49-1.19.49s-.88-.15-1.19-.49c-.31-.32-.47-.73-.47-1.2v-17.13c0-.47.15-.88.47-1.2s.7-.49,1.19-.49.88.16,1.19.49.47.73.47,1.2v6.86l-.42-.08c.17-.31.4-.65.69-1.01.3-.35.66-.69,1.08-1.01.43-.31.89-.57,1.42-.77s1.08-.3,1.69-.3h-.01,0Z"/>
    <path class="st0" d="M954.24,162.02c0,1.51-.34,2.85-1.01,4s-1.58,2.05-2.71,2.69-2.4.97-3.81.97-2.68-.32-3.82-.97-2.05-1.54-2.71-2.69c-.68-1.16-1.01-2.5-1.01-4s.34-2.85,1.01-4,1.58-2.07,2.71-2.71,2.4-.99,3.82-.99,2.68.32,3.81.99,2.05,1.55,2.71,2.71c.68,1.16,1.01,2.5,1.01,4ZM950.91,162.02c0-.94-.19-1.76-.57-2.45s-.89-1.23-1.53-1.62-1.34-.58-2.12-.58-1.47.2-2.12.58c-.63.39-1.14.92-1.53,1.62s-.57,1.51-.57,2.45.19,1.73.57,2.42c.38.69.89,1.23,1.53,1.62s1.34.58,2.12.58,1.47-.2,2.12-.58,1.14-.92,1.53-1.62.57-1.5.57-2.42Z"/>
    <path class="st0" d="M972.85,154.32c1.38,0,2.4.3,3.11.86s1.2,1.34,1.46,2.3.4,2,.4,3.17v7.09c0,.47-.15.88-.47,1.2-.31.32-.7.49-1.19.49s-.88-.15-1.19-.49c-.31-.32-.47-.73-.47-1.2v-7.09c0-.62-.08-1.16-.23-1.65s-.45-.88-.85-1.17c-.4-.3-.99-.45-1.74-.45s-1.38.15-1.86.45c-.51.3-.89.69-1.17,1.17-.26.49-.4,1.04-.4,1.65v7.09c0,.47-.15.88-.47,1.2-.31.32-.7.49-1.19.49s-.88-.15-1.19-.49c-.31-.32-.47-.73-.47-1.2v-11.44c0-.47.15-.88.47-1.2.31-.32.7-.47,1.19-.47s.88.16,1.19.47c.31.32.47.73.47,1.2v1.19l-.42-.08c.17-.31.4-.65.73-1.01.31-.35.68-.69,1.11-1.01s.91-.57,1.45-.77,1.12-.3,1.74-.3h-.02Z"/>
    <path class="st0" d="M988.43,169.71c-1.57,0-2.94-.32-4.09-.99s-2.05-1.54-2.66-2.68c-.62-1.12-.92-2.4-.92-3.82,0-1.66.34-3.08,1.01-4.25s1.55-2.08,2.65-2.69c1.09-.63,2.24-.94,3.47-.94.93,0,1.84.2,2.68.58s1.58.92,2.23,1.58c.65.68,1.16,1.46,1.54,2.34s.57,1.84.57,2.84c-.01.45-.2.8-.53,1.08s-.73.42-1.17.42h-10.59l-.84-2.77h10.17l-.62.55v-.76c-.03-.54-.23-1.01-.57-1.45s-.77-.77-1.28-1.01-1.05-.37-1.62-.37-1.08.08-1.55.22c-.47.15-.89.4-1.24.76-.35.35-.63.81-.84,1.42-.2.58-.31,1.34-.31,2.24,0,1,.2,1.85.62,2.54s.96,1.22,1.61,1.58c.66.35,1.35.54,2.09.54.68,0,1.23-.07,1.63-.16s.74-.24.99-.4.47-.3.68-.4c.34-.16.65-.24.93-.24.4,0,.74.14,1.01.42.26.27.4.61.4.97,0,.49-.26.96-.77,1.35-.47.4-1.16.76-2.01,1.07s-1.77.46-2.7.46h.01v-.03Z"/>
    <path class="st0" d="M1004.78,169.71c-1.57,0-2.94-.32-4.09-.99s-2.05-1.54-2.66-2.68c-.62-1.12-.92-2.4-.92-3.82,0-1.66.34-3.08,1.01-4.25s1.55-2.08,2.65-2.69c1.09-.63,2.24-.94,3.47-.94.93,0,1.84.2,2.68.58s1.58.92,2.23,1.58c.65.68,1.16,1.46,1.54,2.34s.57,1.84.57,2.84c-.01.45-.2.8-.53,1.08s-.73.42-1.17.42h-10.59l-.84-2.77h10.18l-.62.55v-.76c-.03-.54-.23-1.01-.57-1.45s-.77-.77-1.28-1.01-1.04-.37-1.62-.37-1.08.08-1.55.22c-.47.15-.89.4-1.24.76-.35.35-.63.81-.84,1.42-.2.58-.31,1.34-.31,2.24,0,1,.2,1.85.62,2.54s.96,1.22,1.61,1.58c.66.35,1.35.54,2.09.54.68,0,1.23-.07,1.63-.16s.74-.24.99-.4.47-.3.68-.4c.34-.16.65-.24.93-.24.4,0,.74.14,1.01.42.26.27.4.61.4.97,0,.49-.26.96-.77,1.35-.47.4-1.16.76-2.01,1.07s-1.77.46-2.69.46h.01v-.03Z"/>
    <path class="st0" d="M1026.28,148.92c.47,0,.88.15,1.19.47.31.31.47.73.47,1.22v17.13c0,.47-.15.88-.47,1.2-.31.32-.7.49-1.19.49s-.88-.15-1.19-.49c-.31-.32-.47-.73-.47-1.2v-1.35l.62.24c0,.24-.12.54-.38.88s-.62.68-1.04,1.01-.97.62-1.57.85-1.24.34-1.96.34c-1.28,0-2.43-.32-3.47-.99s-1.85-1.55-2.45-2.71-.89-2.47-.89-3.97.31-2.85.89-4,1.42-2.07,2.43-2.71,2.14-.99,3.39-.99c.8,0,1.53.12,2.19.35.66.24,1.24.54,1.73.91.49.37.86.74,1.14,1.12s.4.69.4.96l-1,.35v-7.42c0-.47.15-.88.47-1.2s.7-.49,1.19-.49h-.01,0ZM1020.7,166.65c.81,0,1.53-.2,2.14-.62.62-.4,1.09-.96,1.43-1.66s.51-1.5.51-2.35-.17-1.68-.51-2.39c-.34-.7-.81-1.26-1.43-1.66s-1.32-.62-2.14-.62-1.5.2-2.11.62c-.62.4-1.09.96-1.43,1.66s-.51,1.5-.51,2.39.17,1.65.51,2.35c.34.7.81,1.26,1.43,1.66s1.31.62,2.11.62Z"/>
    <path class="st0" d="M735.34,213.34c-.19-.26-.26-.58-.24-1,.01-.4.26-.76.73-1.04.3-.19.62-.26.93-.23.34.03.66.2.97.51.54.54,1.09.96,1.69,1.24.58.3,1.32.45,2.22.45.27-.01.58-.07.91-.12s.62-.22.88-.45.37-.58.37-1.07c0-.4-.14-.73-.42-.97s-.65-.45-1.09-.62c-.45-.16-.96-.32-1.51-.47-.57-.16-1.15-.35-1.76-.55s-1.15-.46-1.65-.78c-.5-.32-.91-.76-1.22-1.3-.31-.54-.47-1.22-.47-2.01,0-.92.26-1.71.77-2.35s1.19-1.14,2-1.5,1.68-.53,2.58-.53c.57,0,1.17.07,1.8.2.63.14,1.23.35,1.8.66s1.05.7,1.45,1.2c.2.27.32.62.35,1s-.14.74-.53,1.04c-.28.22-.6.32-.97.3s-.68-.15-.91-.37c-.31-.4-.74-.73-1.27-.97s-1.12-.35-1.82-.35c-.27,0-.58.03-.89.09-.32.07-.6.2-.85.42s-.35.55-.35,1.01c0,.43.14.77.42,1.01s.65.45,1.12.62c.47.15.97.31,1.51.46.55.15,1.12.32,1.69.53.57.2,1.09.47,1.58.8.47.34.86.77,1.17,1.3.3.53.45,1.2.45,2,0,.94-.27,1.74-.84,2.42-.55.66-1.24,1.17-2.08,1.51s-1.68.51-2.55.51c-1.09,0-2.19-.19-3.27-.57-1.09-.39-2-1.04-2.71-2h-.04Z"/>
    <path class="st0" d="M760.57,200.8c.47,0,.88.16,1.19.47.31.32.47.73.47,1.2v7.04c0,1.96-.54,3.51-1.63,4.65s-2.66,1.73-4.71,1.73-3.62-.57-4.7-1.73-1.62-2.69-1.62-4.65v-7.04c0-.47.15-.88.47-1.2.31-.32.7-.47,1.19-.47s.88.16,1.19.47c.31.32.47.73.47,1.2v7.04c0,1.12.24,1.97.76,2.51.5.54,1.24.81,2.24.81s1.77-.27,2.28-.81c.5-.54.76-1.39.76-2.51v-7.04c0-.47.15-.88.47-1.2.31-.32.7-.47,1.19-.47h-.03Z"/>
    <path class="st0" d="M773.5,200.52c1.3,0,2.45.32,3.48.99s1.84,1.55,2.43,2.69.89,2.47.89,3.99-.31,2.85-.89,4-1.4,2.07-2.42,2.71c-1,.66-2.15.99-3.4.99-.74,0-1.43-.12-2.08-.35-.65-.24-1.22-.54-1.7-.91-.5-.37-.86-.74-1.14-1.12s-.4-.69-.4-.96l.86-.35v7.28c0,.47-.15.88-.47,1.2s-.7.47-1.19.47-.88-.15-1.19-.47c-.31-.31-.47-.73-.47-1.22v-16.98c0-.47.15-.88.47-1.2.31-.32.7-.47,1.19-.47s.88.16,1.19.47c.31.32.47.73.47,1.2v1.35l-.47-.24c0-.24.12-.54.38-.88s.62-.68,1.05-1.03.96-.63,1.54-.85,1.2-.34,1.85-.34l.03.03h0ZM773.09,203.57c-.81,0-1.53.2-2.15.62-.62.4-1.09.96-1.43,1.65s-.51,1.47-.51,2.38.17,1.66.51,2.38c.34.7.81,1.28,1.43,1.68.62.4,1.32.62,2.15.62s1.53-.2,2.12-.62c.6-.4,1.08-.97,1.42-1.68.34-.7.51-1.5.51-2.38s-.17-1.68-.51-2.38-.81-1.24-1.42-1.65c-.6-.4-1.31-.62-2.12-.62Z"/>
    <path class="st0" d="M790.93,200.52c1.3,0,2.45.32,3.48.99s1.84,1.55,2.43,2.69.89,2.47.89,3.99-.31,2.85-.89,4-1.4,2.07-2.42,2.71c-1,.66-2.15.99-3.4.99-.74,0-1.43-.12-2.08-.35-.65-.24-1.22-.54-1.7-.91-.5-.37-.86-.74-1.14-1.12s-.4-.69-.4-.96l.86-.35v7.28c0,.47-.15.88-.47,1.2s-.7.47-1.19.47-.88-.15-1.19-.47c-.31-.31-.47-.73-.47-1.22v-16.98c0-.47.15-.88.47-1.2.31-.32.7-.47,1.19-.47s.88.16,1.19.47c.31.32.47.73.47,1.2v1.35l-.47-.24c0-.24.12-.54.38-.88s.62-.68,1.05-1.03.96-.63,1.54-.85,1.2-.34,1.85-.34l.03.03h0ZM790.51,203.57c-.81,0-1.53.2-2.15.62-.62.4-1.09.96-1.43,1.65s-.51,1.47-.51,2.38.17,1.66.51,2.38c.34.7.81,1.28,1.43,1.68.62.4,1.32.62,2.15.62s1.53-.2,2.12-.62c.6-.4,1.08-.97,1.42-1.68.34-.7.51-1.5.51-2.38s-.17-1.68-.51-2.38-.81-1.24-1.42-1.65c-.6-.4-1.31-.62-2.12-.62Z"/>
    <path class="st0" d="M815.04,208.22c0,1.51-.34,2.85-1.01,4s-1.58,2.05-2.71,2.69c-1.14.65-2.4.97-3.81.97s-2.68-.32-3.81-.97c-1.14-.65-2.05-1.54-2.71-2.69-.68-1.16-1.01-2.5-1.01-4s.34-2.85,1.01-4,1.58-2.07,2.71-2.71c1.14-.66,2.4-.99,3.81-.99s2.68.32,3.81.99c1.14.66,2.05,1.55,2.71,2.71.68,1.16,1.01,2.5,1.01,4ZM811.72,208.22c0-.94-.19-1.76-.57-2.45s-.89-1.23-1.53-1.62-1.34-.58-2.12-.58-1.47.2-2.12.58-1.14.92-1.53,1.62-.57,1.51-.57,2.45.19,1.73.57,2.42c.38.69.89,1.23,1.53,1.62s1.34.58,2.12.58,1.47-.2,2.12-.58,1.14-.92,1.53-1.62.57-1.5.57-2.42Z"/>
    <path class="st0" d="M819.62,215.62c-.47,0-.88-.15-1.19-.49-.31-.32-.47-.73-.47-1.2v-11.44c0-.47.15-.88.47-1.2.31-.32.7-.47,1.19-.47s.88.16,1.19.47c.31.32.47.73.47,1.2v2.61l-.2-1.86c.2-.45.46-.84.78-1.17s.69-.63,1.09-.86.85-.4,1.31-.51.92-.16,1.39-.16c.55,0,1.01.15,1.4.47.38.31.57.68.57,1.11,0,.62-.15,1.04-.47,1.32s-.66.4-1.03.4-.66-.07-.96-.2c-.3-.12-.62-.2-.99-.2-.34,0-.68.08-1.01.23-.34.15-.66.4-.93.74-.3.34-.53.74-.69,1.23s-.26,1.07-.26,1.73v6.58c0,.47-.15.88-.47,1.2-.31.32-.7.49-1.19.49h.01v-.02Z"/>
    <path class="st0" d="M830.14,201.07h6.58c.45,0,.81.15,1.11.45s.45.66.45,1.11-.15.78-.45,1.07c-.3.3-.66.43-1.11.43h-6.58c-.45,0-.81-.15-1.11-.45s-.45-.66-.45-1.11.15-.78.45-1.07c.3-.3.66-.43,1.11-.43ZM833.1,197.61c.47,0,.88.16,1.19.49s.46.73.46,1.2v12.33c0,.26.04.47.15.63.11.16.24.3.42.35.17.08.37.11.57.11.22,0,.43-.04.62-.12s.4-.12.63-.12c.26,0,.5.12.7.35.22.24.32.57.32,1,0,.53-.27.94-.85,1.28s-1.17.49-1.82.49c-.38,0-.81-.03-1.3-.09s-.91-.22-1.32-.47c-.42-.24-.76-.63-1.03-1.16s-.42-1.23-.42-2.14v-12.47c0-.47.15-.88.47-1.2s.73-.49,1.2-.49v.03h0Z"/>
    <path class="st0" d="M866.16,200.8c.43,0,.8.16,1.11.47.31.32.47.74.47,1.23,0,.12,0,.24-.03.34-.01.11-.04.2-.08.3l-4.23,11.43c-.12.37-.35.65-.69.85s-.68.26-1.05.2c-.63-.03-1.09-.39-1.42-1.04l-2.74-7.9.73.03-2.57,7.86c-.31.66-.78,1.01-1.42,1.04-.35.07-.69,0-1.03-.2s-.58-.47-.7-.85l-4.23-11.43c-.08-.2-.11-.42-.11-.63,0-.45.15-.85.45-1.19.3-.35.7-.53,1.22-.53.35,0,.66.08.93.24s.47.43.58.8l3.35,9.09-.69-.07,2.53-6.85c.3-.68.8-1.03,1.53-1.03.4,0,.7.09.92.26.22.16.38.43.51.76l2.53,6.85-.84.11,3.4-9.15c.22-.7.76-1.04,1.61-1.04l-.03.03Z"/>
    <path class="st0" d="M871.8,198.99c-.63,0-1.08-.11-1.32-.31s-.38-.57-.38-1.08v-.53c0-.54.14-.89.43-1.09s.73-.3,1.31-.3c.65,0,1.09.11,1.35.31s.38.57.38,1.08v.53c0,.54-.14.89-.42,1.09s-.73.3-1.35.3ZM873.49,213.93c0,.47-.15.88-.47,1.2-.31.32-.7.49-1.19.49s-.88-.15-1.19-.49c-.31-.32-.47-.73-.47-1.2v-11.44c0-.47.15-.88.47-1.2.31-.32.7-.47,1.19-.47s.88.16,1.19.47c.31.32.47.73.47,1.2v11.44Z"/>
    <path class="st0" d="M877.07,201.07h6.58c.45,0,.81.15,1.11.45s.45.66.45,1.11-.15.78-.45,1.07c-.3.3-.66.43-1.11.43h-6.58c-.45,0-.81-.15-1.11-.45s-.45-.66-.45-1.11.15-.78.45-1.07c.3-.3.66-.43,1.11-.43ZM880.04,197.61c.47,0,.88.16,1.19.49s.46.73.46,1.2v12.33c0,.26.04.47.15.63.11.16.24.3.42.35.17.08.37.11.57.11.22,0,.43-.04.62-.12s.4-.12.63-.12c.26,0,.5.12.7.35.22.24.32.57.32,1,0,.53-.27.94-.85,1.28s-1.17.49-1.82.49c-.38,0-.81-.03-1.3-.09s-.91-.22-1.32-.47c-.42-.24-.76-.63-1.03-1.16s-.42-1.23-.42-2.14v-12.47c0-.47.15-.88.47-1.2s.73-.49,1.2-.49v.03h0Z"/>
    <path class="st0" d="M896.03,200.52c1.32,0,2.34.3,3.04.86.69.57,1.17,1.34,1.43,2.3s.38,2,.38,3.17v7.09c0,.47-.15.88-.47,1.2-.31.32-.7.49-1.19.49s-.88-.15-1.19-.49c-.31-.32-.47-.73-.47-1.2v-7.09c0-.62-.08-1.16-.22-1.65-.15-.49-.42-.88-.8-1.17-.38-.3-.93-.45-1.66-.45s-1.31.15-1.8.45-.88.69-1.12,1.17c-.24.49-.37,1.04-.37,1.65v7.09c0,.47-.15.88-.47,1.2-.31.32-.7.49-1.19.49s-.88-.15-1.19-.49c-.31-.32-.47-.73-.47-1.2v-17.13c0-.47.15-.88.47-1.2s.7-.49,1.19-.49.88.16,1.19.49.47.73.47,1.2v6.86l-.42-.08c.17-.31.4-.65.69-1.01.3-.35.66-.69,1.08-1.01.43-.31.89-.57,1.42-.77s1.08-.3,1.69-.3h-.01,0Z"/>
    <path class="st0" d="M913.91,215.62c-.47,0-.88-.15-1.19-.49-.31-.32-.47-.73-.47-1.2v-11.44c0-.47.15-.88.47-1.2.31-.32.7-.47,1.19-.47s.88.16,1.19.47c.31.32.47.73.47,1.2v2.61l-.2-1.86c.2-.45.46-.84.78-1.17s.69-.63,1.09-.86.85-.4,1.31-.51.92-.16,1.39-.16c.55,0,1.01.15,1.4.47.38.31.57.68.57,1.11,0,.62-.15,1.04-.47,1.32s-.66.4-1.03.4-.66-.07-.96-.2c-.3-.12-.62-.2-.99-.2-.34,0-.68.08-1.01.23-.34.15-.66.4-.93.74-.3.34-.53.74-.69,1.23s-.26,1.07-.26,1.73v6.58c0,.47-.15.88-.47,1.2-.31.32-.7.49-1.19.49h.01v-.02Z"/>
    <path class="st0" d="M930.65,215.91c-1.57,0-2.94-.32-4.09-.99s-2.05-1.54-2.66-2.68c-.62-1.12-.92-2.4-.92-3.82,0-1.66.34-3.08,1.01-4.25s1.55-2.08,2.65-2.69c1.09-.63,2.24-.94,3.47-.94.93,0,1.84.2,2.68.58s1.58.92,2.23,1.58c.65.68,1.15,1.46,1.54,2.34s.57,1.84.57,2.84c-.01.45-.2.8-.53,1.08s-.73.42-1.17.42h-10.59l-.84-2.77h10.17l-.62.55v-.76c-.03-.54-.23-1.01-.57-1.45s-.77-.77-1.28-1.01-1.05-.37-1.62-.37-1.08.08-1.55.22c-.47.15-.89.4-1.24.76-.35.35-.63.81-.84,1.42-.2.58-.31,1.34-.31,2.24,0,1,.2,1.85.62,2.54s.96,1.22,1.61,1.58c.66.35,1.35.54,2.09.54.68,0,1.23-.07,1.63-.16s.74-.24.99-.4.47-.3.68-.4c.34-.16.65-.24.93-.24.4,0,.74.14,1.01.42.26.27.4.61.4.97,0,.49-.26.96-.77,1.35-.47.4-1.15.76-2.01,1.07s-1.77.46-2.7.46h.01v-.03Z"/>
    <path class="st0" d="M952.26,200.52c.47,0,.88.15,1.19.47.31.31.47.73.47,1.22v11.71c0,.47-.15.88-.47,1.2-.31.32-.7.49-1.19.49s-.88-.15-1.19-.49c-.31-.32-.47-.73-.47-1.2v-1.35l.62.24c0,.24-.12.54-.38.88s-.62.68-1.05,1.01-.97.62-1.57.85-1.24.34-1.96.34c-1.28,0-2.43-.32-3.47-.99s-1.85-1.55-2.45-2.71-.89-2.48-.89-3.97.31-2.85.89-4,1.42-2.07,2.43-2.71,2.15-.99,3.39-.99c.8,0,1.53.12,2.19.35.66.24,1.24.54,1.73.91.5.37.86.74,1.14,1.12s.4.69.4.96l-1,.35v-2.01c0-.47.15-.88.47-1.2s.7-.47,1.19-.47h-.01v-.02ZM946.68,212.85c.81,0,1.53-.2,2.15-.62.62-.4,1.09-.96,1.43-1.66s.51-1.5.51-2.35-.17-1.68-.51-2.39-.81-1.26-1.43-1.66-1.32-.62-2.15-.62-1.5.2-2.11.62c-.62.4-1.09.96-1.43,1.66s-.51,1.5-.51,2.39.17,1.65.51,2.35.81,1.26,1.43,1.66,1.31.62,2.11.62Z"/>
    <path class="st0" d="M969.69,195.12c.47,0,.88.15,1.19.47.31.31.47.73.47,1.22v17.13c0,.47-.15.88-.47,1.2-.31.32-.7.49-1.19.49s-.88-.15-1.19-.49c-.31-.32-.47-.73-.47-1.2v-1.35l.62.24c0,.24-.12.54-.38.88s-.62.68-1.05,1.01-.97.62-1.57.85-1.24.34-1.96.34c-1.28,0-2.43-.32-3.47-.99s-1.85-1.55-2.45-2.71-.89-2.48-.89-3.97.31-2.85.89-4,1.42-2.07,2.43-2.71,2.15-.99,3.39-.99c.8,0,1.53.12,2.19.35.66.24,1.24.54,1.73.91.5.37.86.74,1.14,1.12s.4.69.4.96l-1,.35v-7.42c0-.47.15-.88.47-1.2s.7-.49,1.19-.49h-.01ZM964.08,212.85c.81,0,1.53-.2,2.15-.62.62-.4,1.09-.96,1.43-1.66s.51-1.5.51-2.35-.17-1.68-.51-2.39-.81-1.26-1.43-1.66-1.32-.62-2.15-.62-1.5.2-2.11.62c-.62.4-1.09.96-1.43,1.66s-.51,1.5-.51,2.39.17,1.65.51,2.35.81,1.26,1.43,1.66,1.31.62,2.11.62Z"/>
    <path class="st0" d="M976.39,198.99c-.63,0-1.08-.11-1.32-.31-.26-.2-.38-.57-.38-1.08v-.53c0-.54.14-.89.43-1.09s.73-.3,1.32-.3c.65,0,1.09.11,1.35.31s.38.57.38,1.08v.53c0,.54-.14.89-.42,1.09s-.73.3-1.35.3h-.01ZM978.08,213.93c0,.47-.15.88-.47,1.2-.31.32-.7.49-1.19.49s-.88-.15-1.19-.49c-.31-.32-.47-.73-.47-1.2v-11.44c0-.47.15-.88.47-1.2.31-.32.7-.47,1.19-.47s.88.16,1.19.47c.31.32.47.73.47,1.2v11.44Z"/>
    <path class="st0" d="M989.41,200.52c1.38,0,2.4.3,3.12.86s1.2,1.34,1.46,2.3.4,2,.4,3.17v7.09c0,.47-.15.88-.47,1.2-.31.32-.7.49-1.19.49s-.88-.15-1.19-.49c-.31-.32-.47-.73-.47-1.2v-7.09c0-.62-.08-1.16-.23-1.65s-.45-.88-.85-1.17c-.4-.3-.99-.45-1.74-.45s-1.35.15-1.86.45-.89.69-1.17,1.17c-.26.49-.4,1.04-.4,1.65v7.09c0,.47-.15.88-.47,1.2-.31.32-.7.49-1.19.49s-.88-.15-1.19-.49c-.31-.32-.47-.73-.47-1.2v-11.44c0-.47.15-.88.47-1.2.31-.32.7-.47,1.19-.47s.88.16,1.19.47c.31.32.47.73.47,1.2v1.19l-.42-.08c.17-.31.4-.65.73-1.01.31-.35.68-.69,1.11-1.01.43-.31.91-.57,1.45-.77s1.12-.3,1.74-.3h-.03Z"/>
    <path class="st0" d="M1004.16,200.52c.77,0,1.5.12,2.14.35.65.24,1.2.54,1.68.91.47.37.85.74,1.11,1.12s.4.69.4.96l-.73.35v-2.01c0-.47.15-.88.47-1.2s.7-.47,1.19-.47.88.15,1.19.47.47.73.47,1.22v12.33c0,1.61-.35,2.89-1.03,3.86-.69.97-1.61,1.68-2.73,2.11s-2.34.65-3.63.65c-.37,0-.85-.04-1.45-.14-.58-.09-1.16-.2-1.69-.34-.54-.12-.93-.24-1.22-.35-.55-.24-.93-.54-1.16-.89s-.26-.74-.12-1.16c.17-.54.43-.89.8-1.09s.76-.22,1.17-.07c.19.07.49.16.91.34.43.16.89.32,1.4.46s.96.2,1.34.2c1.39,0,2.42-.27,3.08-.84s1-1.32,1-2.3v-2.42l.34.24c0,.24-.12.54-.37.88s-.58.68-1.03,1.01-.96.62-1.54.85-1.22.34-1.88.34c-1.31,0-2.5-.32-3.54-.99s-1.88-1.55-2.5-2.71-.91-2.48-.91-3.97.31-2.85.91-4c.62-1.16,1.43-2.07,2.46-2.71s2.19-.99,3.47-.99v-.03h0ZM1004.69,203.57c-.84,0-1.55.2-2.19.62-.63.4-1.12.96-1.46,1.66-.35.7-.53,1.5-.53,2.39s.17,1.65.53,2.35.85,1.26,1.46,1.66c.63.4,1.35.62,2.19.62s1.58-.2,2.22-.62c.63-.4,1.12-.96,1.46-1.66s.53-1.5.53-2.35-.17-1.68-.53-2.39c-.35-.7-.85-1.26-1.46-1.66-.63-.4-1.38-.62-2.22-.62Z"/>
    <path class="st0" d="M748.35,246.72c.47,0,.88.15,1.19.47.31.31.47.73.47,1.22v11.71c0,.47-.15.88-.47,1.2-.31.32-.7.5-1.19.5s-.88-.15-1.19-.5c-.31-.32-.47-.73-.47-1.2v-1.35l.62.24c0,.24-.12.54-.38.88s-.62.68-1.05,1.01-.97.62-1.57.85-1.24.34-1.96.34c-1.28,0-2.43-.32-3.47-.99s-1.85-1.55-2.45-2.71-.89-2.48-.89-3.97.31-2.85.89-4,1.42-2.07,2.43-2.71,2.15-.99,3.39-.99c.8,0,1.53.12,2.19.35.66.24,1.24.54,1.73.91.5.37.86.74,1.14,1.12s.4.69.4.96l-1,.35v-2.01c0-.47.15-.88.47-1.2s.7-.47,1.19-.47h-.01v-.02ZM742.74,259.05c.81,0,1.53-.2,2.15-.62.62-.4,1.09-.96,1.43-1.66s.51-1.5.51-2.35-.17-1.68-.51-2.39-.81-1.26-1.43-1.66-1.32-.62-2.15-.62-1.5.2-2.11.62c-.62.4-1.09.96-1.43,1.66s-.51,1.5-.51,2.39.17,1.65.51,2.35.81,1.27,1.43,1.66,1.31.62,2.11.62Z"/>
    <path class="st0" d="M761.54,246.72c1.38,0,2.4.3,3.12.86s1.2,1.34,1.46,2.3.4,2,.4,3.17v7.09c0,.47-.15.88-.47,1.2-.31.32-.7.5-1.19.5s-.88-.15-1.19-.5c-.31-.32-.47-.73-.47-1.2v-7.09c0-.62-.08-1.16-.23-1.65s-.45-.88-.85-1.17c-.4-.3-.99-.45-1.74-.45s-1.35.15-1.86.45-.89.69-1.17,1.17c-.26.49-.4,1.04-.4,1.65v7.09c0,.47-.15.88-.47,1.2-.31.32-.7.5-1.19.5s-.88-.15-1.19-.5c-.31-.32-.47-.73-.47-1.2v-11.44c0-.47.15-.88.47-1.2.31-.32.7-.47,1.19-.47s.88.16,1.19.47c.31.32.47.73.47,1.2v1.19l-.42-.08c.17-.31.4-.65.73-1.01.31-.35.68-.69,1.11-1.01.43-.31.91-.57,1.45-.77s1.12-.3,1.74-.3h-.03Z"/>
    <path class="st0" d="M782.27,241.32c.47,0,.88.15,1.19.47s.47.73.47,1.22v17.13c0,.47-.15.88-.47,1.2-.31.32-.7.5-1.19.5s-.88-.15-1.19-.5c-.31-.32-.47-.73-.47-1.2v-1.35l.62.24c0,.24-.12.54-.38.88s-.62.68-1.05,1.01-.97.62-1.57.85-1.24.34-1.96.34c-1.28,0-2.43-.32-3.47-.99s-1.85-1.55-2.45-2.71-.89-2.48-.89-3.97.3-2.85.89-4,1.4-2.07,2.42-2.71,2.15-.99,3.39-.99c.8,0,1.53.12,2.19.35.66.24,1.24.54,1.73.91.5.37.86.74,1.14,1.12s.4.69.4.96l-1,.35v-7.43c0-.47.15-.88.47-1.2s.7-.49,1.19-.49h0ZM776.66,259.05c.81,0,1.53-.2,2.15-.62.62-.4,1.08-.96,1.43-1.66.34-.7.51-1.5.51-2.35s-.17-1.68-.51-2.39-.81-1.26-1.43-1.66-1.32-.62-2.15-.62-1.5.2-2.11.62c-.62.4-1.09.96-1.43,1.66s-.51,1.5-.51,2.39.17,1.65.51,2.35.81,1.27,1.43,1.66,1.31.62,2.11.62Z"/>
    <path class="st0" d="M812.38,247c.43,0,.8.16,1.11.47.31.32.47.74.47,1.23,0,.12,0,.24-.03.34-.01.11-.04.2-.08.3l-4.23,11.43c-.12.37-.35.65-.69.85s-.68.26-1.05.2c-.63-.03-1.09-.39-1.42-1.05l-2.74-7.9.73.03-2.57,7.86c-.31.66-.78,1.01-1.42,1.05-.35.07-.69,0-1.03-.2s-.58-.47-.7-.85l-4.23-11.43c-.08-.2-.11-.42-.11-.63,0-.45.15-.85.45-1.19.3-.35.7-.53,1.22-.53.35,0,.66.08.93.24s.47.43.58.8l3.35,9.09-.69-.07,2.53-6.85c.3-.68.8-1.03,1.53-1.03.4,0,.7.09.92.26.22.16.38.43.51.76l2.53,6.85-.84.11,3.4-9.15c.22-.7.76-1.04,1.61-1.04l-.03.03Z"/>
    <path class="st0" d="M818.24,261.82c-.47,0-.88-.15-1.19-.5-.31-.32-.47-.73-.47-1.2v-11.44c0-.47.15-.88.47-1.2.31-.32.7-.47,1.19-.47s.88.16,1.19.47c.31.32.47.73.47,1.2v2.61l-.2-1.86c.2-.45.46-.84.78-1.17s.69-.63,1.09-.86.85-.4,1.31-.51.92-.16,1.39-.16c.55,0,1.01.15,1.4.47.38.31.57.68.57,1.11,0,.62-.15,1.04-.47,1.32s-.66.4-1.03.4-.66-.07-.96-.2c-.3-.12-.62-.2-.99-.2-.34,0-.68.08-1.01.23-.34.15-.66.4-.93.74-.3.34-.53.74-.69,1.23s-.26,1.07-.26,1.73v6.58c0,.47-.15.88-.47,1.2-.31.32-.7.5-1.19.5h.01v-.02Z"/>
    <path class="st0" d="M830.05,245.19c-.63,0-1.08-.11-1.32-.31s-.38-.57-.38-1.08v-.53c0-.54.14-.89.43-1.09s.73-.3,1.31-.3c.65,0,1.09.11,1.35.31s.38.57.38,1.08v.53c0,.54-.14.89-.42,1.09s-.73.3-1.35.3ZM831.75,260.13c0,.47-.15.88-.47,1.2-.31.32-.7.5-1.19.5s-.88-.15-1.19-.5c-.31-.32-.47-.73-.47-1.2v-11.44c0-.47.15-.88.47-1.2.31-.32.7-.47,1.19-.47s.88.16,1.19.47c.31.32.47.73.47,1.2v11.44Z"/>
    <path class="st0" d="M835.32,247.27h6.58c.45,0,.81.15,1.11.45s.45.66.45,1.11-.15.78-.45,1.07c-.3.3-.66.43-1.11.43h-6.58c-.45,0-.81-.15-1.11-.45s-.45-.66-.45-1.11.15-.78.45-1.07c.3-.3.66-.43,1.11-.43ZM838.29,243.81c.47,0,.88.16,1.19.49s.46.73.46,1.2v12.33c0,.26.04.47.15.63.11.16.24.3.42.35.17.08.37.11.57.11.22,0,.43-.04.62-.12s.4-.12.63-.12c.26,0,.5.12.7.35.22.24.32.57.32,1,0,.53-.27.94-.85,1.28s-1.17.5-1.82.5c-.38,0-.81-.03-1.3-.09s-.91-.22-1.32-.47c-.42-.24-.76-.63-1.03-1.15s-.42-1.23-.42-2.15v-12.47c0-.47.15-.88.47-1.2s.73-.49,1.2-.49v.03h0Z"/>
    <path class="st0" d="M847.93,245.19c-.63,0-1.08-.11-1.32-.31-.26-.2-.38-.57-.38-1.08v-.53c0-.54.14-.89.43-1.09s.73-.3,1.32-.3c.65,0,1.09.11,1.35.31s.38.57.38,1.08v.53c0,.54-.14.89-.42,1.09s-.73.3-1.35.3h-.01ZM849.62,260.13c0,.47-.15.88-.47,1.2-.31.32-.7.5-1.19.5s-.88-.15-1.19-.5c-.31-.32-.47-.73-.47-1.2v-11.44c0-.47.15-.88.47-1.2.31-.32.7-.47,1.19-.47s.88.16,1.19.47c.31.32.47.73.47,1.2v11.44Z"/>
    <path class="st0" d="M860.96,246.72c1.38,0,2.4.3,3.12.86s1.2,1.34,1.46,2.3.4,2,.4,3.17v7.09c0,.47-.15.88-.47,1.2-.31.32-.7.5-1.19.5s-.88-.15-1.19-.5c-.31-.32-.47-.73-.47-1.2v-7.09c0-.62-.08-1.16-.23-1.65s-.45-.88-.85-1.17c-.4-.3-.99-.45-1.74-.45s-1.35.15-1.86.45-.89.69-1.17,1.17c-.26.49-.4,1.04-.4,1.65v7.09c0,.47-.15.88-.47,1.2-.31.32-.7.5-1.19.5s-.88-.15-1.19-.5c-.31-.32-.47-.73-.47-1.2v-11.44c0-.47.15-.88.47-1.2.31-.32.7-.47,1.19-.47s.88.16,1.19.47c.31.32.47.73.47,1.2v1.19l-.42-.08c.17-.31.4-.65.73-1.01.31-.35.68-.69,1.11-1.01.43-.31.91-.57,1.45-.77s1.12-.3,1.74-.3h-.03Z"/>
    <path class="st0" d="M875.72,246.72c.77,0,1.5.12,2.15.35.65.24,1.2.54,1.68.91.47.37.85.74,1.11,1.12s.4.69.4.96l-.73.35v-2.01c0-.47.15-.88.47-1.2s.7-.47,1.19-.47.88.15,1.19.47.47.73.47,1.22v12.33c0,1.61-.35,2.89-1.03,3.86-.69.97-1.61,1.68-2.73,2.11-1.12.43-2.34.65-3.63.65-.37,0-.85-.04-1.45-.14-.58-.09-1.15-.2-1.69-.34-.54-.12-.93-.24-1.22-.35-.55-.24-.93-.54-1.15-.89s-.26-.74-.12-1.15c.17-.54.43-.89.8-1.09s.76-.22,1.17-.07c.19.07.5.16.91.34.43.16.89.32,1.4.46s.96.2,1.34.2c1.39,0,2.42-.27,3.08-.84s1-1.32,1-2.3v-2.42l.34.24c0,.24-.12.54-.37.88s-.58.68-1.03,1.01-.96.62-1.54.85-1.22.34-1.88.34c-1.31,0-2.5-.32-3.54-.99s-1.88-1.55-2.5-2.71-.91-2.48-.91-3.97.31-2.85.91-4c.62-1.16,1.43-2.07,2.46-2.71s2.19-.99,3.47-.99v-.03h0ZM876.24,249.77c-.84,0-1.55.2-2.19.62-.63.4-1.12.96-1.46,1.66-.35.7-.53,1.5-.53,2.39s.17,1.65.53,2.35.85,1.27,1.46,1.66c.63.4,1.35.62,2.19.62s1.58-.2,2.22-.62c.63-.4,1.12-.96,1.46-1.66s.53-1.5.53-2.35-.17-1.68-.53-2.39c-.35-.7-.85-1.26-1.46-1.66-.63-.4-1.38-.62-2.22-.62Z"/>
    <path class="st0" d="M888.72,261.8c-.54,0-.96-.14-1.23-.43-.3-.3-.43-.69-.43-1.23v-.47c0-.54.14-.94.43-1.23s.69-.43,1.23-.43h.35c.54,0,.96.14,1.23.43.3.3.43.69.43,1.23v.47c0,.54-.14.96-.43,1.23s-.69.43-1.23.43h-.35Z"/>
    <path class="st0" d="M751.44,323.48c.65,0,1.17.2,1.61.62s.65.92.65,1.57-.22,1.12-.65,1.54c-.43.4-.97.62-1.61.62h-12.01c-.65,0-1.17-.22-1.61-.65-.43-.43-.65-.97-.65-1.61v-21.36c0-.65.22-1.17.66-1.61s1.01-.65,1.69-.65c.58,0,1.11.22,1.57.65s.68.97.68,1.61v19.93l-.81-.63h10.46v-.03h.01Z"/>
    <path class="st0" d="M760.2,301.93h12.39c.65,0,1.17.2,1.61.62.43.4.65.92.65,1.57s-.22,1.11-.65,1.5c-.43.39-.97.57-1.61.57h-10.35l.34-.63v7.2l-.3-.3h8.66c.65,0,1.17.2,1.61.62.43.4.65.92.65,1.57s-.22,1.11-.65,1.5c-.43.39-.97.57-1.61.57h-8.54l.19-.3v7.47l-.3-.34h10.32c.65,0,1.17.22,1.61.65.43.43.65.92.65,1.5,0,.62-.22,1.12-.65,1.51-.43.4-.97.58-1.61.58h-12.39c-.65,0-1.17-.22-1.61-.65-.43-.43-.65-.97-.65-1.61v-21.36c0-.65.22-1.17.65-1.61.43-.43.97-.65,1.61-.65h-.03.01Z"/>
    <path class="st0" d="M788.58,307.74l-7.98,18.78c-.17.46-.43.84-.8,1.09-.35.26-.74.39-1.17.39-.66,0-1.15-.19-1.47-.55s-.47-.84-.47-1.38c0-.22.03-.46.11-.7l9.21-22.1c.2-.5.5-.88.91-1.14.4-.28.85-.39,1.31-.34.45,0,.86.12,1.23.39s.66.62.84,1.09l9.09,21.65c.12.32.19.62.19.89,0,.66-.22,1.2-.65,1.58-.43.4-.91.58-1.42.58-.45,0-.85-.14-1.2-.4-.35-.27-.63-.65-.84-1.11l-7.94-18.51,1.08-.22h0l-.02.02ZM781.74,321.99l2.03-4.25h9.98l.7,4.25h-12.72Z"/>
    <path class="st0" d="M805.35,327.8c-.69,0-1.31-.22-1.85-.65s-.81-.97-.81-1.61v-21.36c0-.65.22-1.17.65-1.61.43-.43.97-.65,1.61-.65h10.64c1.28,0,2.47.34,3.61,1.01,1.12.68,2.03,1.62,2.71,2.8.69,1.2,1.03,2.57,1.03,4.12,0,.94-.19,1.85-.57,2.74s-.89,1.69-1.55,2.4-1.39,1.26-2.2,1.66l.03-.85c.69.37,1.27.8,1.73,1.31s.81,1.05,1.08,1.63.42,1.2.46,1.86c.09.62.17,1.15.2,1.63.03.46.11.86.22,1.19s.32.57.65.74c.54.32.88.78,1.01,1.39.14.6,0,1.14-.43,1.61-.28.32-.62.53-1.03.62s-.84.09-1.27,0c-.42-.09-.77-.2-1.03-.35-.42-.24-.84-.62-1.27-1.09-.42-.47-.76-1.12-1.01-1.94s-.38-1.86-.38-3.15c0-.42-.08-.8-.22-1.17-.15-.35-.35-.66-.63-.92s-.62-.46-1.03-.58c-.42-.14-.91-.2-1.47-.2h-7.47l.55-.85v8.02c0,.65-.17,1.17-.53,1.61-.34.43-.84.65-1.45.65l.04-.03v.02ZM806.8,314.57h8.61c.45,0,.88-.2,1.3-.62.42-.4.77-.96,1.03-1.66.27-.7.4-1.47.4-2.31,0-1.08-.3-1.99-.86-2.71-.58-.73-1.2-1.09-1.86-1.09h-8.54l.45-1.19v10.46l-.53-.89h-.01Z"/>
    <path class="st0" d="M847.72,301.93c.58,0,1.08.2,1.45.58.37.4.55.89.55,1.47v21.55c0,.65-.22,1.17-.65,1.61-.43.43-.97.65-1.61.65-.32,0-.65-.07-.99-.16-.34-.11-.58-.26-.76-.46l-14.52-18.45.96-.58v17.59c0,.58-.19,1.08-.57,1.47s-.88.58-1.5.58-1.08-.2-1.45-.58c-.37-.4-.55-.89-.55-1.47v-21.55c0-.65.22-1.17.65-1.61.43-.43.97-.65,1.61-.65.34,0,.7.07,1.08.2s.65.34.81.62l14.08,17.95-.63.45v-17.16c0-.58.19-1.08.55-1.47s.86-.58,1.47-.58h.01Z"/>
    <path class="st0" d="M859.86,325.56c0,.65-.23,1.17-.7,1.61s-1.01.65-1.63.65c-.69,0-1.24-.22-1.66-.65s-.63-.97-.63-1.61v-21.36c0-.65.22-1.17.66-1.61s1.01-.65,1.69-.65c.58,0,1.11.22,1.57.65s.68.97.68,1.61v21.36h.03-.02Z"/>
    <path class="st0" d="M885.04,301.93c.58,0,1.08.2,1.45.58s.55.89.55,1.47v21.55c0,.65-.22,1.17-.65,1.61s-.97.65-1.61.65c-.32,0-.65-.07-.99-.16-.34-.11-.58-.26-.76-.46l-14.52-18.45.96-.58v17.59c0,.58-.19,1.08-.57,1.47s-.88.58-1.5.58-1.08-.2-1.45-.58-.55-.89-.55-1.47v-21.55c0-.65.22-1.17.65-1.61.43-.43.97-.65,1.61-.65.34,0,.7.07,1.08.2s.65.34.81.62l14.08,17.95-.63.45v-17.16c0-.58.19-1.08.55-1.47.37-.4.86-.58,1.47-.58h.01Z"/>
    <path class="st0" d="M904.78,328.18c-1.88,0-3.62-.34-5.25-1.03s-3.05-1.65-4.28-2.86c-1.23-1.22-2.2-2.63-2.89-4.24s-1.05-3.32-1.05-5.17.35-3.57,1.05-5.17,1.66-3.01,2.89-4.24,2.66-2.17,4.28-2.86c1.63-.69,3.38-1.03,5.25-1.03,1.15,0,2.28.12,3.35.37s2.08.62,2.99,1.11c.37.2.65.46.84.8s.27.68.27,1.01c0,.58-.2,1.12-.58,1.58-.4.46-.89.7-1.51.7-.2,0-.4-.03-.62-.08s-.42-.12-.62-.22c-.62-.27-1.27-.47-1.96-.63s-1.42-.22-2.19-.22c-1.61,0-3.07.4-4.38,1.2-1.32.8-2.38,1.88-3.15,3.22s-1.17,2.84-1.17,4.45.38,3.08,1.17,4.43,1.82,2.43,3.15,3.23c1.32.8,2.77,1.2,4.38,1.2.74,0,1.55-.08,2.43-.22.89-.15,1.62-.34,2.19-.58l-.34,1.11v-6.31l.63.55h-4.09c-.65,0-1.17-.22-1.61-.63-.43-.42-.65-.96-.65-1.58s.22-1.17.65-1.58.97-.63,1.61-.63h6.07c.65,0,1.17.22,1.58.65s.63.97.63,1.61v7.84c0,.5-.12.89-.35,1.22-.23.32-.5.58-.8.77-1.14.69-2.38,1.23-3.71,1.65-1.34.4-2.76.62-4.23.62v-.07Z"/>
    <path class="st0" d="M936.97,328.18c-1.73,0-3.28-.22-4.65-.65-1.39-.43-2.7-1.19-3.96-2.28-.32-.27-.57-.58-.74-.92s-.26-.69-.26-1.03c0-.57.2-1.07.62-1.5.4-.43.92-.65,1.54-.65.46,0,.89.15,1.27.45.93.77,1.86,1.34,2.78,1.74s2.07.58,3.42.58c.91,0,1.76-.14,2.51-.43s1.39-.66,1.85-1.14.7-1.03.7-1.65c0-.74-.22-1.38-.66-1.88s-1.12-.96-2.03-1.31-2.07-.63-3.48-.84c-1.32-.2-2.5-.5-3.51-.91-1.01-.4-1.85-.92-2.53-1.55s-1.19-1.38-1.54-2.22c-.34-.85-.53-1.8-.53-2.86,0-1.61.42-2.97,1.23-4.09.84-1.14,1.94-2,3.34-2.59s2.96-.89,4.65-.89c1.61,0,3.08.24,4.45.73s2.48,1.09,3.34,1.84c.7.57,1.08,1.22,1.08,1.96,0,.54-.22,1.03-.63,1.47-.42.45-.91.66-1.47.66-.37,0-.7-.11-1-.34-.4-.34-.92-.68-1.58-.99s-1.38-.57-2.11-.77c-.74-.22-1.43-.31-2.07-.31-1.07,0-1.96.14-2.68.4-.73.27-1.28.65-1.65,1.11s-.55,1.01-.55,1.63c0,.74.22,1.35.65,1.84.43.47,1.05.86,1.86,1.14s1.78.54,2.93.76c1.47.27,2.77.58,3.89.96,1.12.37,2.05.85,2.78,1.42.74.58,1.3,1.31,1.66,2.19s.55,1.94.55,3.2c0,1.61-.45,2.99-1.32,4.15-.89,1.15-2.05,2.05-3.5,2.66-1.45.62-3,.92-4.69.92h.03Z"/>
    <path class="st0" d="M951.32,306.18c-.65,0-1.17-.2-1.61-.58s-.65-.91-.65-1.55.22-1.15.65-1.54.97-.57,1.61-.57h16.41c.65,0,1.17.2,1.61.58.43.4.65.91.65,1.55s-.22,1.15-.65,1.54-.97.57-1.61.57h-16.41ZM959.48,327.8c-.69,0-1.27-.22-1.69-.65s-.66-.97-.66-1.61v-21.44h4.81v21.44c0,.65-.23,1.17-.68,1.61-.46.43-1.05.65-1.76.65h-.01Z"/>
    <path class="st0" d="M981.51,307.74l-7.98,18.78c-.17.46-.45.84-.8,1.09-.35.26-.74.39-1.17.39-.66,0-1.15-.19-1.47-.55s-.47-.84-.47-1.38c0-.22.03-.46.11-.7l9.21-22.1c.2-.5.5-.88.91-1.14.4-.28.85-.39,1.31-.34.45,0,.86.12,1.23.39.38.26.66.62.84,1.09l9.09,21.65c.12.32.19.62.19.89,0,.66-.22,1.2-.65,1.58-.43.4-.91.58-1.42.58-.45,0-.85-.14-1.2-.4-.35-.27-.63-.65-.84-1.11l-7.94-18.51,1.08-.22h0l-.02.02ZM974.67,321.99l2.03-4.25h9.98l.7,4.25h-12.72Z"/>
    <path class="st0" d="M998.29,327.8c-.69,0-1.31-.22-1.85-.65-.54-.43-.81-.97-.81-1.61v-21.36c0-.65.22-1.17.65-1.61.43-.43.97-.65,1.61-.65h10.64c1.28,0,2.48.34,3.61,1.01,1.12.68,2.03,1.62,2.71,2.8.69,1.2,1.03,2.57,1.03,4.12,0,.94-.19,1.85-.57,2.74s-.89,1.69-1.55,2.4-1.39,1.26-2.2,1.66l.03-.85c.69.37,1.27.8,1.73,1.31.46.51.81,1.05,1.08,1.63s.42,1.2.46,1.86c.09.62.17,1.15.2,1.63.03.46.11.86.22,1.19s.32.57.65.74c.54.32.88.78,1.01,1.39.14.6,0,1.14-.43,1.61-.27.32-.62.53-1.03.62-.42.09-.84.09-1.27,0-.42-.09-.77-.2-1.03-.35-.42-.24-.84-.62-1.27-1.09-.42-.47-.76-1.12-1.01-1.94s-.38-1.86-.38-3.15c0-.42-.08-.8-.22-1.17-.15-.35-.35-.66-.63-.92s-.62-.46-1.03-.58c-.42-.14-.91-.2-1.47-.2h-7.47l.55-.85v8.02c0,.65-.17,1.17-.53,1.61-.34.43-.84.65-1.45.65l.04-.03v.02ZM999.73,314.57h8.61c.45,0,.88-.2,1.3-.62.42-.4.77-.96,1.03-1.66s.4-1.47.4-2.31c0-1.08-.3-1.99-.86-2.71s-1.2-1.09-1.86-1.09h-8.54l.45-1.19v10.46l-.53-.89h-.01Z"/>
    <path class="st0" d="M1029.33,328.18c-1.73,0-3.28-.22-4.65-.65-1.39-.43-2.69-1.19-3.96-2.28-.32-.27-.57-.58-.74-.92s-.26-.69-.26-1.03c0-.57.2-1.07.62-1.5.4-.43.92-.65,1.54-.65.46,0,.89.15,1.27.45.93.77,1.86,1.34,2.78,1.74s2.07.58,3.42.58c.91,0,1.76-.14,2.51-.43s1.39-.66,1.85-1.14c.46-.47.7-1.03.7-1.65,0-.74-.22-1.38-.66-1.88s-1.12-.96-2.03-1.31-2.07-.63-3.48-.84c-1.32-.2-2.5-.5-3.51-.91-1.01-.4-1.85-.92-2.53-1.55s-1.19-1.38-1.54-2.22c-.34-.85-.53-1.8-.53-2.86,0-1.61.42-2.97,1.23-4.09.84-1.14,1.94-2,3.34-2.59s2.96-.89,4.65-.89c1.61,0,3.08.24,4.46.73s2.48,1.09,3.34,1.84c.7.57,1.08,1.22,1.08,1.96,0,.54-.22,1.03-.63,1.47-.42.45-.91.66-1.47.66-.37,0-.7-.11-1-.34-.4-.34-.92-.68-1.58-.99s-1.38-.57-2.11-.77c-.74-.22-1.43-.31-2.07-.31-1.07,0-1.96.14-2.68.4-.73.27-1.28.65-1.65,1.11s-.55,1.01-.55,1.63c0,.74.22,1.35.65,1.84.43.47,1.04.86,1.86,1.14s1.78.54,2.93.76c1.47.27,2.77.58,3.89.96s2.05.85,2.78,1.42c.74.58,1.3,1.31,1.66,2.19s.55,1.94.55,3.2c0,1.61-.45,2.99-1.32,4.15-.89,1.15-2.05,2.05-3.5,2.66-1.45.62-3,.92-4.69.92h.03Z"/>
  </g>
  <g>
    <path class="st0" d="M238.98,168.39c-.53,0-.94-.15-1.26-.49-.32-.32-.47-.73-.47-1.2v-16.02c0-.47.15-.88.47-1.2s.73-.47,1.2-.47h9.01c.47,0,.88.15,1.2.46s.49.69.49,1.17c0,.4-.16.77-.49,1.08s-.73.47-1.2.47h-7.48l.24-.34v5.58l-.2-.35h6.17c.47,0,.88.15,1.2.46s.47.69.47,1.19c0,.4-.15.77-.47,1.08s-.73.47-1.2.47h-6.24l.24-.24v6.71c0,.47-.16.88-.51,1.2-.34.32-.74.49-1.2.49v-.04h.02Z"/>
    <path class="st0" d="M266.5,160.97c0,1.51-.34,2.85-1.01,4s-1.58,2.05-2.71,2.69c-1.14.65-2.4.97-3.81.97s-2.68-.32-3.81-.97c-1.14-.65-2.05-1.54-2.71-2.69-.68-1.16-1.01-2.5-1.01-4s.34-2.85,1.01-4,1.58-2.07,2.71-2.71c1.14-.66,2.4-.99,3.81-.99s2.68.32,3.81.99c1.14.66,2.05,1.55,2.71,2.71.68,1.16,1.01,2.5,1.01,4ZM263.17,160.97c0-.94-.19-1.76-.57-2.45s-.89-1.23-1.53-1.62-1.34-.58-2.12-.58-1.47.2-2.12.58-1.14.92-1.53,1.62-.57,1.51-.57,2.45.19,1.73.57,2.42c.39.69.89,1.23,1.53,1.62s1.34.58,2.12.58,1.47-.2,2.12-.58,1.14-.92,1.53-1.62.57-1.5.57-2.42Z"/>
    <path class="st0" d="M271.07,168.39c-.47,0-.88-.15-1.19-.49-.31-.32-.47-.73-.47-1.2v-11.44c0-.47.15-.88.47-1.2.31-.32.7-.47,1.19-.47s.88.16,1.19.47c.31.32.47.73.47,1.2v2.61l-.2-1.86c.2-.45.46-.84.78-1.17.32-.34.69-.63,1.09-.86.4-.23.85-.4,1.31-.51s.92-.16,1.39-.16c.55,0,1.01.15,1.4.47.39.31.57.68.57,1.11,0,.62-.15,1.04-.47,1.32s-.66.4-1.03.4-.66-.07-.96-.2c-.3-.12-.62-.2-.99-.2-.34,0-.68.08-1.01.23-.34.15-.66.4-.94.74-.3.34-.53.74-.69,1.23s-.26,1.07-.26,1.73v6.58c0,.47-.15.88-.47,1.2-.31.32-.7.49-1.19.49h.01v-.02Z"/>
    <path class="st0" d="M295.81,153.27c1.04,0,1.97.11,2.76.34.78.22,1.4.53,1.84.92.43.4.65.88.65,1.43,0,.37-.11.73-.34,1.04-.22.32-.54.47-.97.47-.3,0-.54-.04-.74-.12s-.37-.19-.51-.32-.32-.24-.53-.35c-.19-.11-.46-.2-.85-.26s-.66-.09-.85-.09c-.94,0-1.74.2-2.4.62-.66.4-1.16.96-1.51,1.65-.35.69-.53,1.5-.53,2.4s.19,1.68.54,2.38.86,1.24,1.5,1.65c.63.4,1.38.62,2.2.62.46,0,.86-.03,1.19-.08.34-.07.62-.14.84-.24.26-.15.49-.31.69-.47s.51-.24.91-.24c.47,0,.85.15,1.11.46s.39.68.39,1.12-.26.88-.77,1.26-1.2.68-2.04.91c-.85.23-1.76.34-2.73.34-1.46,0-2.73-.34-3.81-1.01s-1.89-1.61-2.47-2.76c-.58-1.17-.88-2.46-.88-3.92s.31-2.85.92-4,1.47-2.07,2.57-2.71,2.35-.99,3.78-.99l.03-.03-.02-.02Z"/>
    <path class="st0" d="M311.41,153.27c1.32,0,2.34.3,3.04.86s1.17,1.34,1.43,2.3c.26.96.39,2,.39,3.17v7.09c0,.47-.15.88-.47,1.2-.31.32-.7.49-1.19.49s-.88-.15-1.19-.49c-.31-.32-.47-.73-.47-1.2v-7.09c0-.62-.08-1.16-.22-1.65-.15-.49-.42-.88-.8-1.17-.39-.3-.94-.45-1.66-.45s-1.31.15-1.8.45-.88.69-1.12,1.17c-.24.49-.37,1.04-.37,1.65v7.09c0,.47-.15.88-.47,1.2-.31.32-.7.49-1.19.49s-.88-.15-1.19-.49c-.31-.32-.47-.73-.47-1.2v-17.13c0-.47.15-.88.47-1.2s.7-.49,1.19-.49.88.16,1.19.49.47.73.47,1.2v6.86l-.42-.08c.16-.31.4-.65.69-1.01.3-.35.66-.69,1.08-1.01.43-.31.89-.57,1.42-.77s1.08-.3,1.69-.3h-.01Z"/>
    <path class="st0" d="M321.31,151.76c-.63,0-1.08-.11-1.32-.31-.26-.2-.39-.57-.39-1.08v-.53c0-.54.14-.89.43-1.09s.73-.3,1.32-.3c.65,0,1.09.11,1.35.31.26.2.39.57.39,1.08v.53c0,.54-.14.89-.42,1.09s-.73.3-1.35.3h-.01ZM323,166.69c0,.47-.15.88-.47,1.2-.31.32-.7.49-1.19.49s-.88-.15-1.19-.49c-.31-.32-.47-.73-.47-1.2v-11.44c0-.47.15-.88.47-1.2.31-.32.7-.47,1.19-.47s.88.16,1.19.47c.31.32.47.73.47,1.2v11.44Z"/>
    <path class="st0" d="M330.01,166.69c0,.47-.16.88-.5,1.2-.32.32-.73.49-1.2.49s-.85-.15-1.17-.49c-.31-.32-.47-.73-.47-1.2v-17.13c0-.47.16-.88.5-1.2s.73-.49,1.2-.49.88.16,1.17.49.46.73.46,1.2v17.13h.01,0Z"/>
    <path class="st0" d="M345.75,147.87c.47,0,.88.15,1.19.47s.47.73.47,1.22v17.13c0,.47-.15.88-.47,1.2-.31.32-.7.49-1.19.49s-.88-.15-1.19-.49c-.31-.32-.47-.73-.47-1.2v-1.35l.62.24c0,.24-.12.54-.39.88s-.62.68-1.05,1.01-.97.62-1.57.85-1.24.34-1.96.34c-1.28,0-2.43-.32-3.46-.99s-1.85-1.55-2.45-2.71c-.6-1.16-.89-2.48-.89-3.97s.3-2.85.89-4c.6-1.16,1.4-2.07,2.42-2.71s2.15-.99,3.39-.99c.8,0,1.53.12,2.19.35.66.24,1.24.54,1.73.91.5.37.86.74,1.14,1.12s.4.69.4.96l-1,.35v-7.43c0-.47.15-.88.47-1.2s.7-.49,1.19-.49h0ZM340.16,165.61c.81,0,1.53-.2,2.15-.62.62-.4,1.08-.96,1.43-1.66.34-.7.51-1.5.51-2.35s-.16-1.68-.51-2.39-.81-1.26-1.43-1.66-1.32-.62-2.15-.62-1.5.2-2.11.62c-.62.4-1.09.96-1.43,1.66s-.51,1.5-.51,2.39.16,1.65.51,2.35.81,1.26,1.43,1.66,1.31.62,2.11.62Z"/>
    <path class="st0" d="M352.68,168.39c-.47,0-.88-.15-1.19-.49-.31-.32-.47-.73-.47-1.2v-11.44c0-.47.15-.88.47-1.2.31-.32.7-.47,1.19-.47s.88.16,1.19.47c.31.32.47.73.47,1.2v2.61l-.2-1.86c.2-.45.46-.84.78-1.17.32-.34.69-.63,1.09-.86.4-.23.85-.4,1.31-.51s.92-.16,1.39-.16c.55,0,1.01.15,1.4.47s.57.68.57,1.11c0,.62-.15,1.04-.47,1.32s-.66.4-1.03.4-.68-.07-.96-.2c-.3-.12-.62-.2-.99-.2-.34,0-.68.08-1.01.23-.34.15-.66.4-.94.74-.3.34-.53.74-.69,1.23s-.26,1.07-.26,1.73v6.58c0,.47-.15.88-.47,1.2-.31.32-.7.49-1.19.49h.01v-.02Z"/>
    <path class="st0" d="M369.42,168.66c-1.57,0-2.94-.32-4.09-.99s-2.05-1.54-2.66-2.68c-.62-1.12-.92-2.4-.92-3.82,0-1.66.34-3.08,1.01-4.25s1.55-2.08,2.65-2.69c1.09-.63,2.24-.94,3.46-.94.94,0,1.84.2,2.68.58s1.58.92,2.23,1.58c.65.68,1.15,1.46,1.54,2.34s.57,1.84.57,2.84c-.01.45-.2.8-.53,1.08-.34.27-.73.42-1.17.42h-10.59l-.84-2.77h10.17l-.62.55v-.76c-.03-.54-.23-1.01-.57-1.45s-.77-.77-1.28-1.01-1.05-.37-1.62-.37-1.08.08-1.55.22c-.47.15-.89.4-1.24.76s-.63.81-.84,1.42c-.2.58-.31,1.34-.31,2.24,0,1,.2,1.85.63,2.54.42.69.96,1.22,1.61,1.58.66.35,1.35.54,2.09.54.68,0,1.23-.07,1.63-.16s.74-.24.99-.4c.24-.15.47-.3.68-.4.34-.16.65-.24.94-.24.4,0,.74.14,1.01.42.26.27.4.61.4.97,0,.49-.26.96-.77,1.35-.47.4-1.15.76-2.01,1.07s-1.77.46-2.7.46h0v-.03Z"/>
    <path class="st0" d="M386.72,153.27c1.38,0,2.4.3,3.11.86s1.2,1.34,1.46,2.3.4,2,.4,3.17v7.09c0,.47-.15.88-.47,1.2-.31.32-.7.49-1.19.49s-.88-.15-1.19-.49c-.31-.32-.47-.73-.47-1.2v-7.09c0-.62-.08-1.16-.23-1.65s-.45-.88-.85-1.17c-.4-.3-.99-.45-1.74-.45s-1.38.15-1.86.45c-.51.3-.89.69-1.17,1.17-.26.49-.4,1.04-.4,1.65v7.09c0,.47-.15.88-.47,1.2-.31.32-.7.49-1.19.49s-.88-.15-1.19-.49c-.31-.32-.47-.73-.47-1.2v-11.44c0-.47.15-.88.47-1.2.31-.32.7-.47,1.19-.47s.88.16,1.19.47c.31.32.47.73.47,1.2v1.19l-.42-.08c.16-.31.4-.65.73-1.01.31-.35.68-.69,1.11-1.01s.91-.57,1.45-.77,1.12-.3,1.74-.3h-.02Z"/>
    <path class="st0" d="M415.21,147.87c.47,0,.88.15,1.19.47.31.31.47.73.47,1.22v17.13c0,.47-.15.88-.47,1.2-.31.32-.7.49-1.19.49s-.88-.15-1.19-.49c-.31-.32-.47-.73-.47-1.2v-1.35l.62.24c0,.24-.12.54-.39.88s-.62.68-1.05,1.01-.97.62-1.57.85-1.24.34-1.96.34c-1.28,0-2.43-.32-3.46-.99s-1.85-1.55-2.45-2.71-.89-2.48-.89-3.97.31-2.85.89-4,1.42-2.07,2.43-2.71,2.15-.99,3.39-.99c.8,0,1.53.12,2.19.35.66.24,1.24.54,1.73.91.5.37.86.74,1.14,1.12s.4.69.4.96l-1,.35v-7.43c0-.47.15-.88.47-1.2s.7-.49,1.19-.49h-.01,0ZM409.62,165.61c.81,0,1.53-.2,2.15-.62.62-.4,1.09-.96,1.43-1.66s.51-1.5.51-2.35-.16-1.68-.51-2.39-.81-1.26-1.43-1.66-1.32-.62-2.15-.62-1.5.2-2.11.62c-.62.4-1.09.96-1.43,1.66s-.51,1.5-.51,2.39.16,1.65.51,2.35.81,1.26,1.43,1.66,1.31.62,2.11.62Z"/>
    <path class="st0" d="M434.87,160.97c0,1.51-.34,2.85-1.01,4s-1.58,2.05-2.71,2.69-2.4.97-3.81.97-2.68-.32-3.82-.97-2.05-1.54-2.71-2.69c-.68-1.16-1.01-2.5-1.01-4s.34-2.85,1.01-4,1.58-2.07,2.71-2.71,2.4-.99,3.82-.99,2.68.32,3.81.99,2.05,1.55,2.71,2.71c.68,1.16,1.01,2.5,1.01,4ZM431.54,160.97c0-.94-.19-1.76-.57-2.45s-.89-1.23-1.53-1.62-1.34-.58-2.12-.58-1.47.2-2.12.58c-.63.39-1.14.92-1.53,1.62s-.57,1.51-.57,2.45.19,1.73.57,2.42c.39.69.89,1.23,1.53,1.62s1.34.58,2.12.58,1.47-.2,2.12-.58,1.14-.92,1.53-1.62.57-1.5.57-2.42Z"/>
    <path class="st0" d="M439.23,151.76c-.63,0-1.08-.11-1.32-.31s-.39-.57-.39-1.08v-.53c0-.54.14-.89.43-1.09s.73-.3,1.31-.3c.65,0,1.09.11,1.35.31.26.2.39.57.39,1.08v.53c0,.54-.14.89-.42,1.09s-.73.3-1.35.3h0ZM440.92,166.69c0,.47-.15.88-.47,1.2-.31.32-.7.49-1.19.49s-.88-.15-1.19-.49c-.31-.32-.47-.73-.47-1.2v-11.44c0-.47.15-.88.47-1.2.31-.32.7-.47,1.19-.47s.88.16,1.19.47c.31.32.47.73.47,1.2v11.44Z"/>
    <path class="st0" d="M452.25,153.27c1.38,0,2.4.3,3.11.86s1.2,1.34,1.46,2.3.4,2,.4,3.17v7.09c0,.47-.15.88-.47,1.2-.31.32-.7.49-1.19.49s-.88-.15-1.19-.49c-.31-.32-.47-.73-.47-1.2v-7.09c0-.62-.08-1.16-.23-1.65s-.45-.88-.85-1.17c-.4-.3-.99-.45-1.74-.45s-1.38.15-1.86.45c-.51.3-.89.69-1.17,1.17-.26.49-.4,1.04-.4,1.65v7.09c0,.47-.15.88-.47,1.2-.31.32-.7.49-1.19.49s-.88-.15-1.19-.49c-.31-.32-.47-.73-.47-1.2v-11.44c0-.47.15-.88.47-1.2.31-.32.7-.47,1.19-.47s.88.16,1.19.47c.31.32.47.73.47,1.2v1.19l-.42-.08c.16-.31.4-.65.73-1.01.31-.35.68-.69,1.11-1.01s.91-.57,1.45-.77,1.12-.3,1.74-.3h-.02Z"/>
    <path class="st0" d="M467.01,153.27c.77,0,1.5.12,2.15.35.65.24,1.2.54,1.68.91.47.37.85.74,1.11,1.12s.4.69.4.96l-.73.35v-2.01c0-.47.15-.88.47-1.2s.7-.47,1.19-.47.88.15,1.19.47.47.73.47,1.22v12.33c0,1.61-.34,2.89-1.03,3.86-.69.97-1.61,1.68-2.73,2.11-1.12.43-2.34.65-3.63.65-.37,0-.85-.04-1.45-.14-.58-.09-1.15-.2-1.69-.34s-.94-.24-1.22-.35c-.55-.24-.94-.54-1.15-.89s-.26-.74-.12-1.16c.16-.54.43-.89.8-1.09s.76-.22,1.17-.07c.19.07.5.16.91.34.43.16.89.32,1.4.46s.96.2,1.34.2c1.39,0,2.42-.27,3.08-.84s1-1.32,1-2.3v-2.42l.34.24c0,.24-.12.54-.37.88s-.58.68-1.03,1.01c-.43.34-.96.62-1.54.85s-1.22.34-1.88.34c-1.31,0-2.5-.32-3.54-.99s-1.88-1.55-2.5-2.71-.91-2.48-.91-3.97.31-2.85.91-4c.62-1.16,1.43-2.07,2.46-2.71,1.03-.66,2.19-.99,3.46-.99v-.03h0ZM467.53,156.33c-.84,0-1.55.2-2.19.62-.63.4-1.12.96-1.46,1.66-.35.7-.53,1.5-.53,2.39s.16,1.65.53,2.35c.35.7.85,1.26,1.46,1.66.63.4,1.35.62,2.19.62s1.58-.2,2.22-.62c.63-.4,1.12-.96,1.46-1.66.35-.7.53-1.5.53-2.35s-.16-1.68-.53-2.39-.85-1.26-1.46-1.66c-.63-.4-1.38-.62-2.22-.62Z"/>
    <path class="st0" d="M503.37,153.56c.43,0,.8.16,1.11.47.31.32.47.74.47,1.23,0,.12,0,.24-.03.34-.01.11-.04.2-.08.3l-4.24,11.43c-.12.37-.35.65-.69.85s-.68.26-1.05.2c-.63-.03-1.09-.39-1.42-1.04l-2.74-7.9.73.03-2.57,7.86c-.31.66-.78,1.01-1.42,1.04-.35.07-.69,0-1.03-.2s-.58-.47-.7-.85l-4.24-11.43c-.08-.2-.11-.42-.11-.63,0-.45.15-.85.45-1.19.3-.35.7-.53,1.22-.53.35,0,.66.08.94.24s.47.43.58.8l3.35,9.09-.69-.07,2.53-6.85c.3-.68.8-1.03,1.53-1.03.4,0,.7.09.92.26s.39.43.51.76l2.53,6.85-.84.11,3.4-9.15c.22-.7.76-1.04,1.61-1.04l-.03.03h0Z"/>
    <path class="st0" d="M514.56,168.66c-1.57,0-2.94-.32-4.09-.99s-2.05-1.54-2.66-2.68c-.62-1.12-.92-2.4-.92-3.82,0-1.66.34-3.08,1.01-4.25s1.55-2.08,2.65-2.69c1.09-.63,2.24-.94,3.46-.94.94,0,1.84.2,2.68.58s1.58.92,2.23,1.58c.65.68,1.15,1.46,1.54,2.34s.57,1.84.57,2.84c-.01.45-.2.8-.53,1.08s-.73.42-1.17.42h-10.59l-.84-2.77h10.17l-.62.55v-.76c-.03-.54-.23-1.01-.57-1.45s-.77-.77-1.28-1.01-1.05-.37-1.62-.37-1.08.08-1.55.22c-.47.15-.89.4-1.24.76-.35.35-.63.81-.84,1.42-.2.58-.31,1.34-.31,2.24,0,1,.2,1.85.62,2.54s.96,1.22,1.61,1.58c.66.35,1.35.54,2.09.54.68,0,1.23-.07,1.63-.16s.74-.24.99-.4.47-.3.68-.4c.34-.16.65-.24.94-.24.4,0,.74.14,1.01.42.26.27.4.61.4.97,0,.49-.26.96-.77,1.35-.47.4-1.15.76-2.01,1.07s-1.77.46-2.7.46h.01v-.03Z"/>
    <path class="st0" d="M527.54,166.69c0,.47-.16.88-.5,1.2-.32.32-.73.49-1.2.49s-.85-.15-1.17-.49c-.31-.32-.47-.73-.47-1.2v-17.13c0-.47.16-.88.5-1.2s.73-.49,1.2-.49.88.16,1.17.49.46.73.46,1.2v17.13h.01,0Z"/>
    <path class="st0" d="M535.02,166.69c0,.47-.15.88-.47,1.2-.32.32-.73.49-1.2.49s-.85-.15-1.17-.49c-.31-.32-.47-.73-.47-1.2v-17.13c0-.47.15-.88.47-1.2s.73-.49,1.2-.49.88.16,1.17.49c.31.32.46.73.46,1.2v17.13h.01,0Z"/>
    <path class="st0" d="M249.1,199.47c.47,0,.88.15,1.19.47s.47.73.47,1.22v11.71c0,.47-.15.88-.47,1.2-.31.32-.7.49-1.19.49s-.88-.15-1.19-.49c-.31-.32-.47-.73-.47-1.2v-1.35l.62.24c0,.24-.12.54-.39.88s-.62.68-1.04,1.01-.97.62-1.57.85c-.61.23-1.24.34-1.96.34-1.28,0-2.43-.32-3.46-.99s-1.85-1.55-2.45-2.71-.89-2.48-.89-3.97.3-2.85.89-4,1.4-2.07,2.42-2.71,2.14-.99,3.39-.99c.8,0,1.53.12,2.19.35.66.24,1.24.54,1.73.91.49.37.86.74,1.14,1.12s.4.69.4.96l-1,.35v-2.01c0-.47.15-.88.47-1.2s.7-.47,1.19-.47h0v-.02ZM243.49,211.81c.81,0,1.53-.2,2.14-.62.62-.4,1.08-.96,1.43-1.66.34-.7.51-1.5.51-2.35s-.16-1.68-.51-2.39-.81-1.26-1.43-1.66-1.32-.62-2.14-.62-1.5.2-2.11.62c-.62.4-1.09.96-1.43,1.66s-.51,1.5-.51,2.39.16,1.65.51,2.35c.34.7.81,1.26,1.43,1.66s1.31.62,2.11.62Z"/>
    <path class="st0" d="M254.54,200.03h6.58c.45,0,.81.15,1.11.45.3.3.45.66.45,1.11s-.15.78-.45,1.07c-.3.3-.66.43-1.11.43h-6.58c-.45,0-.81-.15-1.11-.45-.3-.3-.45-.66-.45-1.11s.15-.78.45-1.07c.3-.3.66-.43,1.11-.43ZM257.49,196.57c.47,0,.88.16,1.19.49s.46.73.46,1.2v12.33c0,.26.04.47.15.63.11.16.24.3.42.35.16.08.37.11.57.11.22,0,.43-.04.62-.12s.4-.12.63-.12c.26,0,.49.12.7.35.22.24.32.57.32,1,0,.53-.27.94-.85,1.28s-1.17.49-1.81.49c-.39,0-.81-.03-1.3-.09s-.91-.22-1.32-.47c-.42-.24-.76-.63-1.03-1.16s-.42-1.23-.42-2.14v-12.47c0-.47.15-.88.47-1.2s.73-.49,1.2-.49v.03h0Z"/>
    <path class="st0" d="M272.6,212.29c-.19-.26-.26-.58-.24-1,.01-.4.26-.76.73-1.04.3-.19.62-.26.94-.23.34.03.66.2.97.51.54.54,1.09.96,1.69,1.24.58.3,1.32.45,2.22.45.27-.01.58-.07.91-.12s.62-.22.88-.45.37-.58.37-1.07c0-.4-.14-.73-.42-.97s-.65-.45-1.09-.62c-.45-.16-.96-.32-1.51-.47-.57-.16-1.16-.35-1.76-.55s-1.16-.46-1.65-.78c-.49-.32-.91-.76-1.22-1.3-.31-.54-.47-1.22-.47-2.01,0-.92.26-1.71.77-2.35s1.19-1.14,2-1.5,1.68-.53,2.59-.53c.57,0,1.17.07,1.8.2.63.14,1.23.35,1.8.66s1.04.7,1.45,1.2c.2.28.32.62.35,1,.03.39-.14.74-.53,1.04-.27.22-.61.32-.97.3s-.68-.15-.91-.37c-.31-.4-.74-.73-1.26-.97s-1.12-.35-1.81-.35c-.27,0-.58.03-.89.09-.32.07-.61.2-.85.42s-.35.55-.35,1.01c0,.43.14.77.42,1.01s.65.45,1.12.62c.47.15.97.31,1.51.46.55.15,1.12.32,1.69.53.57.2,1.09.47,1.58.8.47.34.86.77,1.17,1.3.3.53.45,1.2.45,2,0,.94-.27,1.74-.84,2.42-.55.66-1.24,1.17-2.08,1.51s-1.68.51-2.55.51c-1.09,0-2.19-.19-3.27-.57-1.09-.39-2-1.04-2.71-2h-.04Z"/>
    <path class="st0" d="M293.42,199.47c1.04,0,1.97.11,2.76.34.78.22,1.4.53,1.84.92.43.4.65.88.65,1.43,0,.37-.11.73-.34,1.04-.22.32-.54.47-.97.47-.3,0-.54-.04-.74-.12s-.37-.19-.51-.32c-.15-.12-.32-.24-.53-.35-.19-.11-.46-.2-.85-.26s-.66-.09-.85-.09c-.94,0-1.74.2-2.4.62-.66.4-1.16.96-1.51,1.65s-.53,1.5-.53,2.4.19,1.68.54,2.38.86,1.24,1.5,1.65c.63.4,1.38.62,2.2.62.46,0,.86-.03,1.19-.08.34-.07.62-.14.84-.24.26-.15.49-.31.69-.47s.51-.24.91-.24c.47,0,.85.15,1.11.46s.39.68.39,1.12-.26.88-.77,1.26-1.2.68-2.04.91c-.85.23-1.76.34-2.73.34-1.46,0-2.73-.34-3.81-1.01s-1.89-1.61-2.48-2.76c-.58-1.17-.88-2.46-.88-3.92s.31-2.85.92-4,1.47-2.07,2.57-2.71c1.09-.66,2.35-.99,3.78-.99l.03-.03-.02-.02Z"/>
    <path class="st0" d="M309.02,199.47c1.32,0,2.34.3,3.04.86s1.17,1.34,1.43,2.3.39,2,.39,3.17v7.09c0,.47-.15.88-.47,1.2-.31.32-.7.49-1.19.49s-.88-.15-1.19-.49c-.31-.32-.47-.73-.47-1.2v-7.09c0-.62-.08-1.16-.22-1.65-.15-.49-.42-.88-.8-1.17-.39-.3-.94-.45-1.66-.45s-1.31.15-1.8.45-.88.69-1.12,1.17c-.24.49-.37,1.04-.37,1.65v7.09c0,.47-.15.88-.47,1.2-.31.32-.7.49-1.19.49s-.88-.15-1.19-.49c-.31-.32-.47-.73-.47-1.2v-17.13c0-.47.15-.88.47-1.2.31-.32.7-.49,1.19-.49s.88.16,1.19.49.47.73.47,1.2v6.86l-.42-.08c.16-.31.4-.65.69-1.01.3-.35.66-.69,1.08-1.01.43-.31.89-.57,1.42-.77s1.08-.3,1.69-.3h-.01Z"/>
    <path class="st0" d="M331.88,207.17c0,1.51-.34,2.85-1.01,4s-1.58,2.05-2.71,2.69c-1.14.65-2.4.97-3.81.97s-2.68-.32-3.81-.97c-1.14-.65-2.05-1.54-2.71-2.69-.68-1.16-1.01-2.5-1.01-4s.34-2.85,1.01-4,1.58-2.07,2.71-2.71c1.14-.66,2.4-.99,3.81-.99s2.68.32,3.81.99c1.14.66,2.05,1.55,2.71,2.71.68,1.16,1.01,2.5,1.01,4ZM328.53,207.17c0-.94-.19-1.76-.57-2.45s-.89-1.23-1.53-1.62-1.34-.58-2.12-.58-1.47.2-2.12.58-1.14.92-1.53,1.62-.57,1.51-.57,2.45.19,1.73.57,2.42c.39.69.89,1.23,1.53,1.62s1.34.58,2.12.58,1.47-.2,2.12-.58,1.14-.92,1.53-1.62.57-1.5.57-2.42Z"/>
    <path class="st0" d="M349.17,207.17c0,1.51-.34,2.85-1.01,4s-1.58,2.05-2.71,2.69-2.4.97-3.81.97-2.68-.32-3.82-.97-2.05-1.54-2.71-2.69c-.68-1.16-1.01-2.5-1.01-4s.34-2.85,1.01-4,1.58-2.07,2.71-2.71,2.4-.99,3.82-.99,2.68.32,3.81.99,2.05,1.55,2.71,2.71c.68,1.16,1.01,2.5,1.01,4ZM345.84,207.17c0-.94-.19-1.76-.57-2.45s-.89-1.23-1.53-1.62-1.34-.58-2.12-.58-1.47.2-2.12.58c-.63.39-1.14.92-1.53,1.62s-.57,1.51-.57,2.45.19,1.73.57,2.42c.39.69.89,1.23,1.53,1.62s1.34.58,2.12.58,1.47-.2,2.12-.58,1.14-.92,1.53-1.62.57-1.5.57-2.42Z"/>
    <path class="st0" d="M355.68,212.89c0,.47-.15.88-.47,1.2-.32.32-.73.49-1.2.49s-.85-.15-1.17-.49c-.31-.32-.47-.73-.47-1.2v-17.13c0-.47.15-.88.47-1.2s.73-.49,1.2-.49.88.16,1.17.49c.31.32.46.73.46,1.2v17.13h.01,0Z"/>
    <path class="st0" d="M379.46,199.47c.47,0,.88.15,1.19.47.31.31.47.73.47,1.22v11.71c0,.47-.15.88-.47,1.2-.31.32-.7.49-1.19.49s-.88-.15-1.19-.49c-.31-.32-.47-.73-.47-1.2v-1.35l.62.24c0,.24-.12.54-.39.88s-.62.68-1.05,1.01-.97.62-1.57.85-1.24.34-1.96.34c-1.28,0-2.43-.32-3.46-.99s-1.85-1.55-2.45-2.71-.89-2.48-.89-3.97.31-2.85.89-4,1.42-2.07,2.43-2.71,2.15-.99,3.39-.99c.8,0,1.53.12,2.19.35.66.24,1.24.54,1.73.91.5.37.86.74,1.14,1.12s.4.69.4.96l-1,.35v-2.01c0-.47.15-.88.47-1.2s.7-.47,1.19-.47h-.01v-.02ZM373.85,211.81c.81,0,1.53-.2,2.15-.62.62-.4,1.09-.96,1.43-1.66s.51-1.5.51-2.35-.16-1.68-.51-2.39-.81-1.26-1.43-1.66-1.32-.62-2.15-.62-1.5.2-2.11.62c-.62.4-1.09.96-1.43,1.66s-.51,1.5-.51,2.39.16,1.65.51,2.35.81,1.26,1.43,1.66,1.31.62,2.11.62Z"/>
    <path class="st0" d="M392.65,199.47c1.38,0,2.4.3,3.12.86s1.2,1.34,1.46,2.3.4,2,.4,3.17v7.09c0,.47-.15.88-.47,1.2-.31.32-.7.49-1.19.49s-.88-.15-1.19-.49c-.31-.32-.47-.73-.47-1.2v-7.09c0-.62-.08-1.16-.23-1.65s-.45-.88-.85-1.17c-.4-.3-.99-.45-1.74-.45s-1.35.15-1.86.45-.89.69-1.17,1.17c-.26.49-.4,1.04-.4,1.65v7.09c0,.47-.15.88-.47,1.2-.31.32-.7.49-1.19.49s-.88-.15-1.19-.49c-.31-.32-.47-.73-.47-1.2v-11.44c0-.47.15-.88.47-1.2.31-.32.7-.47,1.19-.47s.88.16,1.19.47c.31.32.47.73.47,1.2v1.19l-.42-.08c.16-.31.4-.65.73-1.01.31-.35.68-.69,1.11-1.01.43-.31.91-.57,1.45-.77s1.12-.3,1.74-.3h-.03Z"/>
    <path class="st0" d="M413.39,194.07c.47,0,.88.15,1.19.47s.47.73.47,1.22v17.13c0,.47-.15.88-.47,1.2-.31.32-.7.49-1.19.49s-.88-.15-1.19-.49c-.31-.32-.47-.73-.47-1.2v-1.35l.62.24c0,.24-.12.54-.39.88s-.62.68-1.05,1.01-.97.62-1.57.85-1.24.34-1.96.34c-1.28,0-2.43-.32-3.46-.99s-1.85-1.55-2.45-2.71c-.6-1.16-.89-2.47-.89-3.97s.3-2.85.89-4c.6-1.16,1.4-2.07,2.42-2.71s2.15-.99,3.39-.99c.8,0,1.53.12,2.19.35.66.24,1.24.54,1.73.91.5.37.86.74,1.14,1.12s.4.69.4.96l-1,.35v-7.42c0-.47.15-.88.47-1.2s.7-.49,1.19-.49h0ZM407.8,211.81c.81,0,1.53-.2,2.15-.62.62-.4,1.08-.96,1.43-1.66.34-.7.51-1.5.51-2.35s-.16-1.68-.51-2.39-.81-1.26-1.43-1.66-1.32-.62-2.15-.62-1.5.2-2.11.62c-.62.4-1.09.96-1.43,1.66s-.51,1.5-.51,2.39.16,1.65.51,2.35.81,1.26,1.43,1.66,1.31.62,2.11.62Z"/>
    <path class="st0" d="M428.07,214.59c-.47,0-.88-.15-1.19-.49-.31-.32-.47-.73-.47-1.2v-11.44c0-.47.15-.88.47-1.2.31-.32.7-.47,1.19-.47s.88.16,1.19.47c.31.32.47.73.47,1.2v2.61l-.2-1.86c.2-.45.46-.84.78-1.17.32-.34.69-.63,1.09-.86.4-.23.85-.4,1.31-.51s.92-.16,1.39-.16c.55,0,1.01.15,1.4.47s.57.68.57,1.11c0,.62-.15,1.04-.47,1.32s-.66.4-1.03.4-.68-.07-.96-.2c-.3-.12-.62-.2-.99-.2-.34,0-.68.08-1.01.23-.34.15-.66.4-.94.74-.3.34-.53.74-.69,1.23s-.26,1.07-.26,1.73v6.58c0,.47-.15.88-.47,1.2-.31.32-.7.49-1.19.49h.01v-.02Z"/>
    <path class="st0" d="M444.81,214.86c-1.57,0-2.94-.32-4.09-.99s-2.05-1.54-2.66-2.68c-.62-1.12-.92-2.4-.92-3.82,0-1.66.34-3.08,1.01-4.25s1.55-2.08,2.65-2.69c1.09-.63,2.24-.94,3.46-.94.94,0,1.84.2,2.68.58s1.58.92,2.23,1.58c.65.68,1.15,1.46,1.54,2.34s.57,1.84.57,2.84c-.01.45-.2.8-.53,1.08-.34.27-.73.42-1.17.42h-10.59l-.84-2.77h10.18l-.62.55v-.76c-.03-.54-.23-1.01-.57-1.45s-.77-.77-1.28-1.01-1.05-.37-1.62-.37-1.08.08-1.55.22c-.47.15-.89.4-1.24.76s-.63.81-.84,1.42c-.2.58-.31,1.34-.31,2.24,0,1,.2,1.85.63,2.54.42.69.96,1.22,1.61,1.58.66.35,1.35.54,2.09.54.68,0,1.23-.07,1.63-.16s.74-.24.99-.4c.24-.15.47-.3.68-.4.34-.16.65-.24.94-.24.4,0,.74.14,1.01.42.26.28.4.61.4.97,0,.49-.26.96-.77,1.35-.47.4-1.15.76-2.01,1.07s-1.77.46-2.7.46h0v-.03Z"/>
    <path class="st0" d="M466.44,199.47c.47,0,.88.15,1.19.47s.47.73.47,1.22v11.71c0,.47-.15.88-.47,1.2-.31.32-.7.49-1.19.49s-.88-.15-1.19-.49c-.31-.32-.47-.73-.47-1.2v-1.35l.62.24c0,.24-.12.54-.39.88s-.62.68-1.05,1.01-.97.62-1.57.85-1.24.34-1.96.34c-1.28,0-2.43-.32-3.46-.99s-1.85-1.55-2.45-2.71c-.6-1.16-.89-2.48-.89-3.97s.3-2.85.89-4c.6-1.16,1.4-2.07,2.42-2.71s2.15-.99,3.39-.99c.8,0,1.53.12,2.19.35.66.24,1.24.54,1.73.91.5.37.86.74,1.14,1.12s.4.69.4.96l-1,.35v-2.01c0-.47.15-.88.47-1.2s.7-.47,1.19-.47h0v-.02ZM460.85,211.81c.81,0,1.53-.2,2.15-.62.62-.4,1.08-.96,1.43-1.66.34-.7.51-1.5.51-2.35s-.16-1.68-.51-2.39-.81-1.26-1.43-1.66-1.32-.62-2.15-.62-1.5.2-2.11.62c-.62.4-1.09.96-1.43,1.66s-.51,1.5-.51,2.39.16,1.65.51,2.35.81,1.26,1.43,1.66,1.31.62,2.11.62Z"/>
    <path class="st0" d="M483.85,194.07c.47,0,.88.15,1.19.47s.47.73.47,1.22v17.13c0,.47-.15.88-.47,1.2-.31.32-.7.49-1.19.49s-.88-.15-1.19-.49c-.31-.32-.47-.73-.47-1.2v-1.35l.62.24c0,.24-.12.54-.39.88s-.62.68-1.05,1.01-.97.62-1.57.85-1.24.34-1.96.34c-1.28,0-2.43-.32-3.46-.99s-1.85-1.55-2.45-2.71c-.6-1.16-.89-2.47-.89-3.97s.3-2.85.89-4c.6-1.16,1.4-2.07,2.42-2.71s2.15-.99,3.39-.99c.8,0,1.53.12,2.19.35.66.24,1.24.54,1.73.91.5.37.86.74,1.14,1.12s.4.69.4.96l-1,.35v-7.42c0-.47.15-.88.47-1.2s.7-.49,1.19-.49h0ZM478.25,211.81c.81,0,1.53-.2,2.15-.62.62-.4,1.08-.96,1.43-1.66.34-.7.51-1.5.51-2.35s-.16-1.68-.51-2.39-.81-1.26-1.43-1.66-1.32-.62-2.15-.62-1.5.2-2.11.62c-.62.4-1.09.96-1.43,1.66s-.51,1.5-.51,2.39.16,1.65.51,2.35.81,1.26,1.43,1.66,1.31.62,2.11.62Z"/>
    <path class="st0" d="M500.12,199.76c.47,0,.88.16,1.19.47.31.32.47.73.47,1.2v11.78c0,1.69-.32,3.05-.96,4.07s-1.5,1.73-2.57,2.17c-1.08.45-2.28.66-3.61.66-.58,0-1.22-.04-1.88-.14s-1.22-.23-1.63-.42c-.55-.24-.94-.54-1.15-.89s-.26-.74-.12-1.16c.16-.54.43-.89.8-1.09s.76-.22,1.17-.07c.3.09.68.23,1.17.43.47.2,1.03.3,1.66.3.85,0,1.55-.12,2.12-.35s.99-.62,1.28-1.17c.3-.54.43-1.3.43-2.23v-1.86l.58.66c-.31.62-.7,1.11-1.17,1.51-.47.4-1.03.69-1.68.89s-1.39.31-2.22.31c-.99,0-1.84-.23-2.57-.68-.73-.45-1.3-1.08-1.7-1.88-.4-.8-.62-1.73-.62-2.76v-8.1c0-.47.15-.88.47-1.2.31-.32.7-.47,1.19-.47s.88.16,1.19.47c.31.32.47.73.47,1.2v7.09c0,1.2.26,2.05.78,2.54.53.49,1.26.74,2.2.74.65,0,1.19-.12,1.63-.37s.78-.62,1.03-1.11.35-1.09.35-1.78v-7.09c0-.47.15-.88.47-1.2.31-.32.7-.47,1.19-.47h.04Z"/>
    <path class="st0" d="M244.88,246.23c.45,0,.81.14,1.11.43s.45.65.45,1.09-.15.81-.45,1.09c-.3.3-.66.43-1.11.43h-7.35c-.45,0-.81-.14-1.11-.43s-.45-.65-.45-1.09.15-.8.45-1.09c.3-.3.66-.43,1.11-.43h7.35ZM244.57,240.27c.4,0,.8.07,1.19.16s.7.3.97.54.39.58.39.99c0,.46-.14.84-.4,1.09-.26.26-.58.4-.92.4-.16,0-.42-.04-.76-.12s-.66-.12-.97-.12c-.46,0-.81.11-1.07.31s-.42.45-.51.7c-.09.26-.14.51-.14.7v14.17c0,.47-.15.88-.47,1.2-.31.32-.7.5-1.19.5s-.88-.15-1.19-.5c-.31-.32-.47-.73-.47-1.2v-14.14c0-1.31.46-2.42,1.39-3.32.92-.91,2.31-1.35,4.16-1.35h0Z"/>
    <path class="st0" d="M262.62,253.37c0,1.51-.34,2.85-1.01,4s-1.58,2.05-2.71,2.69-2.4.97-3.81.97-2.68-.32-3.82-.97-2.05-1.54-2.71-2.69c-.68-1.16-1.01-2.5-1.01-4s.34-2.85,1.01-4,1.58-2.07,2.71-2.71,2.4-.99,3.82-.99,2.68.32,3.81.99,2.05,1.55,2.71,2.71c.68,1.16,1.01,2.5,1.01,4ZM259.29,253.37c0-.94-.19-1.76-.57-2.45s-.89-1.23-1.53-1.62-1.34-.58-2.12-.58-1.47.2-2.12.58c-.63.39-1.14.92-1.53,1.62s-.57,1.51-.57,2.45.19,1.73.57,2.42c.39.69.89,1.23,1.53,1.62s1.34.58,2.12.58,1.47-.2,2.12-.58,1.14-.92,1.53-1.62.57-1.5.57-2.42h0Z"/>
    <path class="st0" d="M267.2,260.79c-.47,0-.88-.15-1.19-.5-.31-.32-.47-.73-.47-1.2v-11.44c0-.47.15-.88.47-1.2.31-.32.7-.47,1.19-.47s.88.16,1.19.47c.31.32.47.73.47,1.2v2.61l-.2-1.86c.2-.45.46-.84.78-1.17.32-.34.69-.63,1.09-.86.4-.23.85-.4,1.31-.51s.92-.16,1.39-.16c.55,0,1.01.15,1.4.47s.57.68.57,1.11c0,.62-.15,1.04-.47,1.32s-.66.4-1.03.4-.68-.07-.96-.2c-.3-.12-.62-.2-.99-.2-.34,0-.68.08-1.01.23-.34.15-.66.4-.94.74-.3.34-.53.74-.69,1.23s-.26,1.07-.26,1.73v6.58c0,.47-.15.88-.47,1.2-.31.32-.7.5-1.19.5h.01v-.02Z"/>
    <path class="st0" d="M293.11,245.67c1.47,0,2.57.35,3.27,1.07s1.17,1.63,1.39,2.76l-.47-.24.22-.45c.22-.43.57-.88,1.03-1.38s1.01-.91,1.68-1.24,1.39-.51,2.2-.51c1.32,0,2.34.3,3.04.86s1.17,1.34,1.43,2.3.39,2,.39,3.17v7.1c0,.47-.15.88-.47,1.2-.31.32-.7.5-1.19.5s-.88-.15-1.19-.5c-.31-.32-.47-.73-.47-1.2v-7.09c0-.62-.08-1.16-.22-1.65-.15-.49-.42-.88-.8-1.17-.39-.3-.94-.45-1.66-.45s-1.31.15-1.8.45-.88.69-1.12,1.17c-.24.49-.37,1.04-.37,1.65v7.09c0,.47-.15.88-.47,1.2-.31.32-.7.5-1.19.5s-.88-.15-1.19-.5c-.31-.32-.47-.73-.47-1.2v-7.09c0-.62-.08-1.16-.22-1.65-.15-.49-.42-.88-.8-1.17-.39-.3-.94-.45-1.66-.45s-1.31.15-1.8.45-.88.69-1.12,1.17c-.24.49-.37,1.04-.37,1.65v7.09c0,.47-.15.88-.47,1.2-.31.32-.7.5-1.19.5s-.88-.15-1.19-.5c-.31-.32-.47-.73-.47-1.2v-11.44c0-.47.15-.88.47-1.2.31-.32.7-.47,1.19-.47s.88.16,1.19.47c.31.32.47.73.47,1.2v1.19l-.42-.08c.16-.31.4-.65.69-1.01.3-.35.66-.69,1.08-1.01.43-.31.89-.57,1.42-.77s1.08-.3,1.69-.3h-.02Z"/>
    <path class="st0" d="M325.27,253.37c0,1.51-.34,2.85-1.01,4s-1.58,2.05-2.71,2.69-2.4.97-3.81.97-2.68-.32-3.82-.97-2.05-1.54-2.71-2.69c-.68-1.16-1.01-2.5-1.01-4s.34-2.85,1.01-4,1.58-2.07,2.71-2.71,2.4-.99,3.82-.99,2.68.32,3.81.99,2.05,1.55,2.71,2.71c.68,1.16,1.01,2.5,1.01,4ZM321.94,253.37c0-.94-.19-1.76-.57-2.45s-.89-1.23-1.53-1.62-1.34-.58-2.12-.58-1.47.2-2.12.58c-.63.39-1.14.92-1.53,1.62s-.57,1.51-.57,2.45.19,1.73.57,2.42c.39.69.89,1.23,1.53,1.62.64.39,1.34.58,2.12.58s1.47-.2,2.12-.58,1.14-.92,1.53-1.62.57-1.5.57-2.42h0Z"/>
    <path class="st0" d="M329.84,260.79c-.47,0-.88-.15-1.19-.5-.31-.32-.47-.73-.47-1.2v-11.44c0-.47.15-.88.47-1.2.31-.32.7-.47,1.19-.47s.88.16,1.19.47c.31.32.47.73.47,1.2v2.61l-.2-1.86c.2-.45.46-.84.78-1.17.32-.34.69-.63,1.09-.86.4-.23.85-.4,1.31-.51s.92-.16,1.39-.16c.55,0,1.01.15,1.4.47s.57.68.57,1.11c0,.62-.15,1.04-.47,1.32s-.66.4-1.03.4-.68-.07-.96-.2c-.3-.12-.62-.2-.99-.2-.34,0-.68.08-1.01.23-.34.15-.66.4-.94.74-.3.34-.53.74-.69,1.23s-.26,1.07-.26,1.73v6.58c0,.47-.15.88-.47,1.2-.31.32-.7.5-1.19.5h.01v-.02Z"/>
    <path class="st0" d="M346.58,261.06c-1.57,0-2.94-.32-4.09-.99s-2.05-1.54-2.66-2.68c-.62-1.12-.92-2.4-.92-3.82,0-1.66.34-3.08,1.01-4.25s1.55-2.08,2.65-2.69c1.09-.63,2.24-.94,3.46-.94.94,0,1.84.2,2.68.58s1.58.92,2.23,1.58c.65.68,1.15,1.46,1.54,2.34s.57,1.84.57,2.84c-.01.45-.2.8-.53,1.08s-.73.42-1.17.42h-10.59l-.84-2.77h10.18l-.62.55v-.76c-.03-.54-.23-1.01-.57-1.45s-.77-.77-1.28-1.01-1.05-.37-1.62-.37-1.08.08-1.55.22c-.47.15-.89.4-1.24.76-.35.35-.63.81-.84,1.42-.2.58-.31,1.34-.31,2.24,0,1,.2,1.85.62,2.54s.96,1.22,1.61,1.58c.66.35,1.35.54,2.09.54.68,0,1.23-.07,1.63-.16s.74-.24.99-.4.47-.3.68-.4c.34-.16.65-.24.94-.24.4,0,.74.14,1.01.42.26.27.4.6.4.97,0,.5-.26.96-.77,1.35-.47.4-1.15.76-2.01,1.07s-1.77.46-2.7.46h.01v-.03Z"/>
    <path class="st0" d="M363.89,246.23h6.58c.45,0,.81.15,1.11.45.3.3.45.66.45,1.11s-.15.78-.45,1.07c-.3.3-.66.43-1.11.43h-6.58c-.45,0-.81-.15-1.11-.45s-.45-.66-.45-1.11.15-.78.45-1.07c.3-.3.66-.43,1.11-.43ZM366.85,242.77c.47,0,.88.16,1.17.49s.46.73.46,1.2v12.33c0,.26.04.47.15.63.11.16.24.3.42.35.16.08.37.11.57.11.22,0,.43-.04.62-.12s.4-.12.63-.12c.26,0,.5.12.7.35.21.23.32.57.32,1,0,.53-.27.94-.85,1.28s-1.17.5-1.81.5c-.39,0-.81-.03-1.3-.09s-.91-.22-1.32-.47c-.42-.24-.77-.63-1.03-1.15-.27-.53-.42-1.23-.42-2.14v-12.47c0-.47.16-.88.5-1.2s.73-.49,1.2-.49v.03h0Z"/>
    <path class="st0" d="M382.85,245.67c1.32,0,2.34.3,3.04.86s1.17,1.34,1.43,2.3.39,2,.39,3.17v7.1c0,.47-.15.88-.47,1.2-.31.32-.7.5-1.19.5s-.88-.15-1.19-.5c-.31-.32-.47-.73-.47-1.2v-7.09c0-.62-.08-1.16-.22-1.65-.15-.49-.42-.88-.8-1.17-.39-.3-.94-.45-1.66-.45s-1.31.15-1.8.45-.88.69-1.12,1.17c-.24.49-.37,1.04-.37,1.65v7.09c0,.47-.15.88-.47,1.2-.31.32-.7.5-1.19.5s-.88-.15-1.19-.5c-.31-.32-.47-.73-.47-1.2v-17.13c0-.47.15-.88.47-1.2.31-.32.7-.49,1.19-.49s.88.16,1.19.49.47.73.47,1.2v6.86l-.42-.08c.16-.31.4-.65.69-1.01.3-.35.66-.69,1.08-1.01.43-.31.89-.57,1.42-.77s1.08-.3,1.69-.3h-.01Z"/>
    <path class="st0" d="M403.43,245.67c.47,0,.88.15,1.19.47s.47.73.47,1.22v11.72c0,.47-.15.88-.47,1.2-.31.32-.7.5-1.19.5s-.88-.15-1.19-.5c-.31-.32-.47-.73-.47-1.2v-1.35l.62.24c0,.24-.12.54-.39.88s-.62.68-1.05,1.01-.97.62-1.57.85-1.24.34-1.96.34c-1.28,0-2.43-.32-3.46-.99s-1.85-1.55-2.45-2.71c-.6-1.16-.89-2.48-.89-3.97s.3-2.85.89-4c.6-1.16,1.4-2.07,2.42-2.71s2.15-.99,3.39-.99c.8,0,1.53.12,2.19.35.66.24,1.24.54,1.73.91.5.37.86.74,1.14,1.12s.4.69.4.96l-1,.35v-2.01c0-.47.15-.88.47-1.2s.7-.47,1.19-.47h0v-.02ZM397.83,258.01c.81,0,1.53-.2,2.15-.62.62-.4,1.08-.96,1.43-1.66.34-.7.51-1.5.51-2.35s-.16-1.68-.51-2.39-.81-1.26-1.43-1.66-1.32-.62-2.15-.62-1.5.2-2.11.62c-.62.4-1.09.96-1.43,1.66s-.51,1.5-.51,2.39.16,1.65.51,2.35.81,1.26,1.43,1.66,1.31.62,2.11.62Z"/>
    <path class="st0" d="M416.63,245.67c1.38,0,2.4.3,3.11.86s1.2,1.34,1.46,2.3.4,2,.4,3.17v7.1c0,.47-.15.88-.47,1.2-.31.32-.7.5-1.19.5s-.88-.15-1.19-.5c-.31-.32-.47-.73-.47-1.2v-7.09c0-.62-.08-1.16-.23-1.65s-.45-.88-.85-1.17c-.4-.3-.99-.45-1.74-.45s-1.38.15-1.86.45c-.51.3-.89.69-1.17,1.17-.26.49-.4,1.04-.4,1.65v7.09c0,.47-.15.88-.47,1.2-.31.32-.7.5-1.19.5s-.88-.15-1.19-.5c-.31-.32-.47-.73-.47-1.2v-11.44c0-.47.15-.88.47-1.2.31-.32.7-.47,1.19-.47s.88.16,1.19.47c.31.32.47.73.47,1.2v1.19l-.42-.08c.16-.31.4-.65.73-1.01.31-.35.68-.69,1.11-1.01s.91-.57,1.45-.77,1.12-.3,1.74-.3h-.02Z"/>
    <path class="st0" d="M445.12,245.67c.47,0,.88.15,1.19.47.31.31.47.73.47,1.22v11.72c0,.47-.15.88-.47,1.2-.31.32-.7.5-1.19.5s-.88-.15-1.19-.5c-.31-.32-.47-.73-.47-1.2v-1.35l.62.24c0,.24-.12.54-.39.88s-.62.68-1.05,1.01-.97.62-1.57.85-1.24.34-1.96.34c-1.28,0-2.43-.32-3.46-.99s-1.85-1.55-2.45-2.71-.89-2.48-.89-3.97.31-2.85.89-4,1.42-2.07,2.43-2.71,2.15-.99,3.39-.99c.8,0,1.53.12,2.19.35.66.24,1.24.54,1.73.91.5.37.86.74,1.14,1.12s.4.69.4.96l-1,.35v-2.01c0-.47.15-.88.47-1.2s.7-.47,1.19-.47h-.01v-.02ZM439.53,258.01c.81,0,1.53-.2,2.15-.62.62-.4,1.09-.96,1.43-1.66s.51-1.5.51-2.35-.16-1.68-.51-2.39-.81-1.26-1.43-1.66-1.32-.62-2.15-.62-1.5.2-2.11.62c-.62.4-1.09.96-1.43,1.66s-.51,1.5-.51,2.39.16,1.65.51,2.35.81,1.26,1.43,1.66,1.31.62,2.11.62Z"/>
    <path class="st0" d="M457,245.67c1.05,0,1.97.11,2.76.34.78.22,1.4.53,1.84.92.43.4.65.88.65,1.43,0,.37-.11.73-.34,1.04-.22.32-.54.47-.97.47-.3,0-.54-.04-.74-.12s-.37-.19-.51-.32c-.15-.12-.32-.24-.53-.35-.19-.11-.46-.2-.85-.26s-.66-.09-.85-.09c-.94,0-1.74.2-2.4.62-.66.4-1.15.96-1.51,1.65s-.53,1.5-.53,2.4.19,1.68.54,2.38.86,1.24,1.5,1.65c.63.4,1.38.62,2.2.62.46,0,.86-.03,1.19-.08.34-.07.62-.14.84-.24.26-.15.5-.31.69-.47s.51-.24.91-.24c.47,0,.85.15,1.11.46s.39.68.39,1.12-.26.88-.77,1.26-1.2.68-2.04.91c-.85.23-1.76.34-2.73.34-1.46,0-2.73-.34-3.81-1.01s-1.89-1.61-2.47-2.76c-.58-1.17-.88-2.46-.88-3.92s.31-2.85.92-4,1.47-2.07,2.57-2.71c1.09-.66,2.35-.99,3.78-.99l.03-.03-.02-.02Z"/>
    <path class="st0" d="M476.96,245.67c.47,0,.88.15,1.19.47s.47.73.47,1.22v11.72c0,.47-.15.88-.47,1.2-.31.32-.7.5-1.19.5s-.88-.15-1.19-.5c-.31-.32-.47-.73-.47-1.2v-1.35l.62.24c0,.24-.12.54-.39.88s-.62.68-1.05,1.01-.97.62-1.57.85-1.24.34-1.96.34c-1.28,0-2.43-.32-3.46-.99s-1.85-1.55-2.45-2.71c-.6-1.16-.89-2.48-.89-3.97s.3-2.85.89-4c.6-1.16,1.4-2.07,2.42-2.71s2.15-.99,3.39-.99c.8,0,1.53.12,2.19.35.66.24,1.24.54,1.73.91.5.37.86.74,1.14,1.12s.4.69.4.96l-1,.35v-2.01c0-.47.15-.88.47-1.2s.7-.47,1.19-.47h0v-.02ZM471.35,258.01c.81,0,1.53-.2,2.15-.62.62-.4,1.08-.96,1.43-1.66.34-.7.51-1.5.51-2.35s-.16-1.68-.51-2.39-.81-1.26-1.43-1.66-1.32-.62-2.15-.62-1.5.2-2.11.62c-.62.4-1.09.96-1.43,1.66s-.51,1.5-.51,2.39.16,1.65.51,2.35.81,1.26,1.43,1.66,1.31.62,2.11.62Z"/>
    <path class="st0" d="M494.36,240.27c.47,0,.88.15,1.19.47s.47.73.47,1.22v17.13c0,.47-.15.88-.47,1.2-.31.32-.7.5-1.19.5s-.88-.15-1.19-.5c-.31-.32-.47-.73-.47-1.2v-1.35l.62.24c0,.24-.12.54-.39.88s-.62.68-1.05,1.01-.97.62-1.57.85-1.24.34-1.96.34c-1.28,0-2.43-.32-3.46-.99s-1.85-1.55-2.45-2.71c-.6-1.16-.89-2.47-.89-3.97s.3-2.85.89-4c.6-1.16,1.4-2.07,2.42-2.71s2.15-.99,3.39-.99c.8,0,1.53.12,2.19.35.66.24,1.24.54,1.73.91.5.37.86.74,1.14,1.12s.4.69.4.96l-1,.35v-7.42c0-.47.15-.88.47-1.2s.7-.49,1.19-.49h0ZM488.75,258.01c.81,0,1.53-.2,2.15-.62.62-.4,1.08-.96,1.43-1.66.34-.7.51-1.5.51-2.35s-.16-1.68-.51-2.39-.81-1.26-1.43-1.66-1.32-.62-2.15-.62-1.5.2-2.11.62c-.62.4-1.09.96-1.43,1.66s-.51,1.5-.51,2.39.16,1.65.51,2.35.81,1.26,1.43,1.66,1.31.62,2.11.62Z"/>
    <path class="st0" d="M506.61,261.06c-1.57,0-2.94-.32-4.09-.99s-2.05-1.54-2.66-2.68c-.62-1.12-.92-2.4-.92-3.82,0-1.66.34-3.08,1.01-4.25s1.55-2.08,2.65-2.69c1.09-.63,2.24-.94,3.46-.94.94,0,1.84.2,2.68.58s1.58.92,2.23,1.58c.65.68,1.15,1.46,1.54,2.34s.57,1.84.57,2.84c-.01.45-.2.8-.53,1.08-.34.27-.73.42-1.17.42h-10.59l-.84-2.77h10.17l-.62.55v-.76c-.03-.54-.23-1.01-.57-1.45s-.77-.77-1.28-1.01-1.05-.37-1.62-.37-1.08.08-1.55.22c-.47.15-.89.4-1.24.76s-.63.81-.84,1.42c-.2.58-.31,1.34-.31,2.24,0,1,.2,1.85.63,2.54.42.69.96,1.22,1.61,1.58.66.35,1.35.54,2.09.54.68,0,1.23-.07,1.63-.16s.74-.24.99-.4c.24-.15.47-.3.68-.4.34-.16.65-.24.94-.24.4,0,.74.14,1.01.42.26.27.4.6.4.97,0,.5-.26.96-.77,1.35-.47.4-1.15.76-2.01,1.07s-1.77.46-2.7.46h0v-.03Z"/>
    <path class="st0" d="M523.77,245.67c1.47,0,2.57.35,3.27,1.07s1.17,1.63,1.39,2.76l-.47-.24.22-.45c.22-.43.57-.88,1.03-1.38s1.01-.91,1.68-1.24,1.39-.51,2.2-.51c1.32,0,2.34.3,3.04.86s1.17,1.34,1.43,2.3.39,2,.39,3.17v7.1c0,.47-.15.88-.47,1.2-.31.32-.7.5-1.19.5s-.88-.15-1.19-.5c-.31-.32-.47-.73-.47-1.2v-7.09c0-.62-.08-1.16-.22-1.65-.15-.49-.42-.88-.8-1.17-.39-.3-.94-.45-1.66-.45s-1.31.15-1.8.45-.88.69-1.12,1.17c-.24.49-.37,1.04-.37,1.65v7.09c0,.47-.15.88-.47,1.2-.31.32-.7.5-1.19.5s-.88-.15-1.19-.5c-.31-.32-.47-.73-.47-1.2v-7.09c0-.62-.08-1.16-.22-1.65-.15-.49-.42-.88-.8-1.17-.39-.3-.94-.45-1.66-.45s-1.31.15-1.8.45-.88.69-1.12,1.17c-.24.49-.37,1.04-.37,1.65v7.09c0,.47-.15.88-.47,1.2-.31.32-.7.5-1.19.5s-.88-.15-1.19-.5c-.31-.32-.47-.73-.47-1.2v-11.44c0-.47.15-.88.47-1.2.31-.32.7-.47,1.19-.47s.88.16,1.19.47c.31.32.47.73.47,1.2v1.19l-.42-.08c.16-.31.4-.65.69-1.01.3-.35.66-.69,1.08-1.01.43-.31.89-.57,1.42-.77s1.08-.3,1.69-.3h-.02Z"/>
    <path class="st0" d="M542.98,244.16c-.63,0-1.08-.11-1.32-.31-.26-.2-.39-.57-.39-1.08v-.53c0-.54.14-.89.43-1.09s.73-.3,1.32-.3c.65,0,1.09.11,1.35.31.26.2.39.57.39,1.08v.53c0,.54-.14.89-.42,1.09s-.73.3-1.35.3h-.01ZM544.67,259.09c0,.47-.15.88-.47,1.2-.31.32-.7.5-1.19.5s-.88-.15-1.19-.5c-.31-.32-.47-.73-.47-1.2v-11.44c0-.47.15-.88.47-1.2.31-.32.7-.47,1.19-.47s.88.16,1.19.47c.31.32.47.73.47,1.2v11.44Z"/>
    <path class="st0" d="M554.68,245.67c1.05,0,1.97.11,2.76.34.78.22,1.4.53,1.84.92.43.4.65.88.65,1.43,0,.37-.11.73-.34,1.04-.22.32-.54.47-.97.47-.3,0-.54-.04-.74-.12s-.37-.19-.51-.32c-.15-.12-.32-.24-.53-.35-.19-.11-.46-.2-.85-.26s-.66-.09-.85-.09c-.94,0-1.74.2-2.4.62-.66.4-1.15.96-1.51,1.65s-.53,1.5-.53,2.4.19,1.68.54,2.38.86,1.24,1.5,1.65c.63.4,1.38.62,2.2.62.46,0,.86-.03,1.19-.08.34-.07.62-.14.84-.24.26-.15.5-.31.69-.47s.51-.24.91-.24c.47,0,.85.15,1.11.46s.39.68.39,1.12-.26.88-.77,1.26-1.2.68-2.04.91c-.85.23-1.76.34-2.73.34-1.46,0-2.73-.34-3.81-1.01s-1.89-1.61-2.48-2.76c-.58-1.17-.88-2.46-.88-3.92s.31-2.85.92-4,1.47-2.07,2.57-2.71c1.09-.66,2.35-.99,3.78-.99l.03-.03-.02-.02Z"/>
    <path class="st0" d="M561.64,258.49c-.19-.26-.26-.58-.24-1,.01-.4.26-.76.73-1.04.3-.19.62-.26.94-.23.34.03.66.2.97.51.54.54,1.09.96,1.69,1.24.58.3,1.32.45,2.22.45.27-.01.58-.07.91-.12s.63-.22.88-.45.37-.58.37-1.07c0-.4-.14-.73-.42-.97s-.65-.45-1.09-.62c-.45-.16-.96-.32-1.51-.47-.57-.16-1.15-.35-1.76-.55s-1.15-.46-1.65-.78c-.5-.32-.91-.76-1.22-1.3-.31-.54-.47-1.22-.47-2.01,0-.92.26-1.71.77-2.35s1.19-1.14,2.01-1.5c.81-.35,1.68-.53,2.59-.53.57,0,1.17.07,1.8.2s1.23.35,1.8.66,1.05.7,1.45,1.2c.2.27.32.62.35,1s-.14.74-.53,1.04c-.27.22-.6.32-.97.3s-.68-.15-.91-.37c-.32-.4-.74-.73-1.26-.97s-1.14-.35-1.81-.35c-.28,0-.58.03-.89.09-.32.07-.6.2-.85.42-.24.22-.35.55-.35,1.01,0,.43.14.77.42,1.01s.65.45,1.12.62c.47.15.97.31,1.51.46.55.15,1.12.32,1.69.53.57.2,1.09.47,1.58.8.47.34.86.77,1.17,1.3.3.53.45,1.2.45,2,0,.94-.27,1.74-.84,2.42-.55.66-1.24,1.17-2.08,1.51s-1.68.51-2.55.51c-1.09,0-2.19-.19-3.27-.57-1.09-.39-2-1.05-2.71-2h-.06Z"/>
    <path class="st0" d="M577.32,260.75c-.54,0-.96-.14-1.23-.43-.3-.3-.43-.69-.43-1.23v-.47c0-.54.14-.94.43-1.23s.69-.43,1.23-.43h.35c.54,0,.94.14,1.23.43s.43.69.43,1.23v.47c0,.54-.14.96-.43,1.23s-.69.43-1.23.43h-.35Z"/>
    <path class="st0" d="M242.53,324.51c0,.65-.23,1.17-.7,1.61-.46.43-1.01.65-1.63.65-.69,0-1.24-.22-1.66-.65s-.63-.97-.63-1.61v-21.36c0-.65.22-1.17.66-1.61s1.01-.65,1.69-.65c.58,0,1.11.22,1.57.65s.68.97.68,1.61v21.36h.03-.02Z"/>
    <path class="st0" d="M267.71,300.88c.58,0,1.08.2,1.45.58.37.4.55.89.55,1.47v21.55c0,.65-.22,1.17-.65,1.61s-.97.65-1.61.65c-.32,0-.65-.07-.99-.16-.34-.11-.58-.26-.76-.46l-14.52-18.45.96-.58v17.59c0,.58-.19,1.08-.57,1.47s-.88.58-1.5.58-1.08-.2-1.45-.58c-.37-.4-.55-.89-.55-1.47v-21.55c0-.65.22-1.17.65-1.61s.97-.65,1.61-.65c.34,0,.7.07,1.08.2s.65.34.81.62l14.08,17.95-.63.45v-17.16c0-.58.19-1.08.55-1.47s.86-.58,1.47-.58h.01Z"/>
    <path class="st0" d="M294.88,300.88c.58,0,1.08.2,1.45.58.37.4.55.89.55,1.47v21.55c0,.65-.22,1.17-.65,1.61s-.97.65-1.61.65c-.32,0-.65-.07-.99-.16-.34-.11-.58-.26-.76-.46l-14.52-18.45.96-.58v17.59c0,.58-.19,1.08-.57,1.47s-.88.58-1.5.58-1.08-.2-1.45-.58c-.37-.4-.55-.89-.55-1.47v-21.55c0-.65.22-1.17.65-1.61s.97-.65,1.61-.65c.34,0,.7.07,1.08.2s.65.34.81.62l14.08,17.95-.63.45v-17.16c0-.58.19-1.08.55-1.47s.86-.58,1.47-.58h.01Z"/>
    <path class="st0" d="M304.67,300.88h12.39c.65,0,1.17.2,1.61.62.43.4.65.92.65,1.57s-.22,1.11-.65,1.5-.97.57-1.61.57h-10.35l.34-.63v7.2l-.3-.3h8.66c.65,0,1.17.2,1.61.62.43.4.65.92.65,1.57s-.22,1.11-.65,1.5-.97.57-1.61.57h-8.54l.19-.3v7.47l-.3-.34h10.32c.65,0,1.17.22,1.61.65s.65.92.65,1.5c0,.62-.22,1.12-.65,1.51s-.97.58-1.61.58h-12.39c-.65,0-1.17-.22-1.61-.65s-.65-.97-.65-1.61v-21.36c0-.65.22-1.17.65-1.61s.97-.65,1.61-.65h-.03.01Z"/>
    <path class="st0" d="M326.22,326.75c-.69,0-1.31-.22-1.85-.65s-.81-.97-.81-1.61v-21.36c0-.65.22-1.17.65-1.61s.97-.65,1.61-.65h10.64c1.28,0,2.48.34,3.61,1.01s2.04,1.62,2.71,2.8c.69,1.2,1.03,2.57,1.03,4.12,0,.94-.19,1.85-.57,2.74s-.89,1.69-1.55,2.4-1.39,1.26-2.2,1.66l.03-.85c.69.37,1.26.8,1.73,1.31s.81,1.05,1.08,1.63.42,1.2.46,1.86c.09.62.16,1.15.2,1.63.03.46.11.86.22,1.19s.32.57.65.74c.54.32.88.78,1.01,1.39.14.6,0,1.14-.43,1.61-.27.32-.62.53-1.03.62s-.84.09-1.26,0c-.42-.09-.77-.2-1.03-.35-.42-.24-.84-.62-1.26-1.09-.42-.47-.76-1.12-1.01-1.94s-.39-1.86-.39-3.15c0-.42-.08-.8-.22-1.17-.15-.35-.35-.66-.63-.92s-.62-.46-1.03-.58c-.42-.14-.91-.2-1.47-.2h-7.47l.55-.85v8.02c0,.65-.16,1.17-.53,1.61-.34.43-.84.65-1.45.65l.04-.03v.02ZM327.65,313.53h8.61c.45,0,.88-.2,1.3-.62.42-.4.77-.96,1.03-1.66s.4-1.47.4-2.31c0-1.08-.3-1.99-.86-2.71s-1.2-1.09-1.86-1.09h-8.54l.45-1.19v10.46l-.53-.89h-.01Z"/>
    <path class="st0" d="M367.62,327.13c-1.73,0-3.28-.22-4.65-.65-1.39-.43-2.7-1.19-3.96-2.28-.32-.28-.57-.58-.74-.92-.16-.34-.26-.69-.26-1.03,0-.57.2-1.07.62-1.5.4-.43.92-.65,1.54-.65.46,0,.89.15,1.26.45.94.77,1.86,1.34,2.78,1.74s2.07.58,3.42.58c.91,0,1.76-.14,2.51-.43.77-.27,1.39-.66,1.85-1.14.46-.47.7-1.03.7-1.65,0-.74-.22-1.38-.66-1.88s-1.12-.96-2.04-1.31-2.07-.63-3.48-.84c-1.32-.2-2.5-.5-3.51-.91-1.01-.4-1.85-.92-2.53-1.55s-1.19-1.38-1.54-2.22-.53-1.8-.53-2.86c0-1.61.42-2.97,1.23-4.09.84-1.14,1.94-2,3.34-2.59s2.96-.89,4.65-.89c1.61,0,3.08.24,4.45.73s2.48,1.09,3.34,1.84c.7.57,1.08,1.22,1.08,1.96,0,.54-.22,1.03-.63,1.47-.42.45-.91.66-1.47.66-.37,0-.7-.11-1-.34-.4-.34-.92-.68-1.58-.99s-1.38-.57-2.11-.77c-.74-.22-1.43-.31-2.07-.31-1.07,0-1.96.14-2.68.4s-1.28.65-1.65,1.11-.55,1.01-.55,1.63c0,.74.22,1.35.65,1.84s1.05.86,1.86,1.14,1.78.54,2.93.76c1.47.28,2.77.58,3.89.96s2.05.85,2.78,1.42c.74.58,1.3,1.31,1.66,2.19s.55,1.94.55,3.2c0,1.61-.45,2.99-1.32,4.15s-2.05,2.05-3.5,2.66c-1.45.62-3,.92-4.69.92h.03Z"/>
    <path class="st0" d="M381.95,305.14c-.65,0-1.17-.2-1.61-.58-.43-.4-.65-.91-.65-1.55s.22-1.15.65-1.54.97-.57,1.61-.57h16.41c.65,0,1.17.2,1.61.58.43.4.65.91.65,1.55s-.22,1.15-.65,1.54-.97.57-1.61.57h-16.41ZM390.11,326.75c-.69,0-1.26-.22-1.69-.65-.45-.43-.66-.97-.66-1.61v-21.44h4.81v21.44c0,.65-.23,1.17-.68,1.61s-1.05.65-1.76.65h-.01,0Z"/>
    <path class="st0" d="M412.15,306.69l-7.98,18.78c-.16.46-.43.84-.8,1.09-.35.26-.74.39-1.17.39-.66,0-1.15-.19-1.47-.55s-.47-.84-.47-1.38c0-.22.03-.46.11-.7l9.21-22.1c.2-.5.5-.88.91-1.14.4-.27.85-.39,1.31-.34.45,0,.86.12,1.23.39s.66.62.84,1.09l9.09,21.65c.12.32.19.62.19.89,0,.66-.22,1.2-.65,1.58-.43.4-.91.58-1.42.58-.45,0-.85-.14-1.2-.4-.35-.27-.63-.65-.84-1.11l-7.94-18.51,1.08-.22h0l-.02.02ZM405.31,320.96l2.04-4.25h9.98l.7,4.25h-12.72Z"/>
    <path class="st0" d="M428.92,326.75c-.69,0-1.31-.22-1.85-.65s-.81-.97-.81-1.61v-21.36c0-.65.22-1.17.65-1.61s.97-.65,1.61-.65h10.64c1.28,0,2.48.34,3.61,1.01s2.04,1.62,2.71,2.8c.69,1.2,1.03,2.57,1.03,4.12,0,.94-.19,1.85-.57,2.74s-.89,1.69-1.55,2.4-1.39,1.26-2.2,1.66l.03-.85c.69.37,1.26.8,1.73,1.31s.81,1.05,1.08,1.63.42,1.2.46,1.86c.09.62.16,1.15.2,1.63.03.46.11.86.22,1.19s.32.57.65.74c.54.32.88.78,1.01,1.39.14.6,0,1.14-.43,1.61-.27.32-.62.53-1.03.62s-.84.09-1.26,0c-.42-.09-.77-.2-1.03-.35-.42-.24-.84-.62-1.26-1.09-.42-.47-.76-1.12-1.01-1.94s-.39-1.86-.39-3.15c0-.42-.08-.8-.22-1.17-.15-.35-.35-.66-.63-.92s-.62-.46-1.03-.58c-.42-.14-.91-.2-1.47-.2h-7.47l.55-.85v8.02c0,.65-.16,1.17-.53,1.61-.34.43-.84.65-1.45.65l.04-.03v.02ZM430.37,313.53h8.61c.45,0,.88-.2,1.3-.62.42-.4.77-.96,1.03-1.66.27-.7.4-1.47.4-2.31,0-1.08-.3-1.99-.86-2.71-.58-.73-1.2-1.09-1.86-1.09h-8.54l.45-1.19v10.46l-.53-.89h-.01Z"/>
    <path class="st0" d="M459.97,327.13c-1.73,0-3.28-.22-4.65-.65-1.39-.43-2.7-1.19-3.96-2.28-.32-.28-.57-.58-.74-.92-.16-.34-.26-.69-.26-1.03,0-.57.2-1.07.62-1.5.4-.43.92-.65,1.54-.65.46,0,.89.15,1.26.45.94.77,1.86,1.34,2.78,1.74s2.07.58,3.42.58c.91,0,1.76-.14,2.51-.43.77-.27,1.39-.66,1.85-1.14.46-.47.7-1.03.7-1.65,0-.74-.22-1.38-.66-1.88s-1.12-.96-2.04-1.31-2.07-.63-3.48-.84c-1.32-.2-2.5-.5-3.51-.91-1.01-.4-1.85-.92-2.53-1.55s-1.19-1.38-1.54-2.22-.53-1.8-.53-2.86c0-1.61.42-2.97,1.23-4.09.84-1.14,1.94-2,3.34-2.59s2.96-.89,4.65-.89c1.61,0,3.08.24,4.45.73s2.47,1.09,3.34,1.84c.7.57,1.08,1.22,1.08,1.96,0,.54-.22,1.03-.63,1.47-.42.45-.91.66-1.47.66-.37,0-.7-.11-1-.34-.4-.34-.92-.68-1.58-.99s-1.38-.57-2.11-.77c-.74-.22-1.43-.31-2.07-.31-1.07,0-1.96.14-2.68.4s-1.28.65-1.65,1.11-.55,1.01-.55,1.63c0,.74.22,1.35.65,1.84s1.05.86,1.86,1.14,1.78.54,2.93.76c1.47.28,2.77.58,3.89.96s2.05.85,2.78,1.42c.74.58,1.3,1.31,1.66,2.19s.55,1.94.55,3.2c0,1.61-.45,2.99-1.32,4.15s-2.05,2.05-3.5,2.66c-1.45.62-3,.92-4.69.92h.03Z"/>
  </g>
</svg>