<?xml version="1.0" encoding="UTF-8"?>
<svg id="Layer_1" xmlns="http://www.w3.org/2000/svg" version="1.1" viewBox="0 0 1294.48 480">
  <!-- Generator: Adobe Illustrator 29.7.1, SVG Export Plug-In . SVG Version: 2.1.1 Build 8)  -->
  <defs>
    <style>
      .st0 {
        fill: #fff;
      }

      .st1 {
        fill: #e44c17;
      }

      .st2 {
        fill: #002f55;
      }
    </style>
  </defs>
  <rect class="st2" x="646.78" y="43.06" width="600.34" height="393.89" rx="21.84" ry="21.84"/>
  <rect class="st1" x="47.36" y="43.06" width="600.58" height="393.89" rx="21.84" ry="21.84"/>
  <circle class="st1" cx="675.37" cy="240" r="38.16"/>
  <g>
    <path class="st0" d="M796.04,175.71c-.48,0-.85-.14-1.15-.45-.29-.29-.45-.66-.45-1.09v-14.56c0-.43.15-.8.45-1.09s.66-.43,1.09-.43h8.19c.43,0,.8.14,1.09.42s.43.63.43,1.06c0,.36-.14.7-.43.98s-.66.43-1.09.43h-6.8l.22-.31v5.07l-.18-.32h5.61c.43,0,.8.14,1.09.42s.45.63.45,1.08c0,.36-.15.7-.45.98s-.66.43-1.09.43h-5.67l.22-.22v6.1c0,.43-.15.8-.46,1.09-.31.29-.67.45-1.09.45v-.04Z"/>
    <path class="st0" d="M821.06,168.98c0,1.37-.31,2.59-.92,3.64s-1.44,1.86-2.46,2.45-2.18.88-3.46.88-2.44-.29-3.47-.88-1.86-1.4-2.46-2.45c-.62-1.05-.92-2.27-.92-3.64s.31-2.59.92-3.64,1.44-1.88,2.46-2.46,2.18-.9,3.47-.9,2.44.29,3.46.9,1.86,1.41,2.46,2.46c.62,1.05.92,2.27.92,3.64ZM818.03,168.98c0-.85-.17-1.6-.52-2.23s-.81-1.12-1.39-1.47-1.22-.53-1.93-.53-1.34.18-1.93.53c-.57.35-1.04.84-1.39,1.47s-.52,1.37-.52,2.23.17,1.57.52,2.2c.35.63.81,1.12,1.39,1.47s1.22.53,1.93.53,1.34-.18,1.93-.53,1.04-.84,1.39-1.47.52-1.36.52-2.2Z"/>
    <path class="st0" d="M825.21,175.71c-.43,0-.8-.14-1.08-.45-.28-.29-.43-.66-.43-1.09v-10.4c0-.43.14-.8.43-1.09.28-.29.64-.43,1.08-.43s.8.15,1.08.43c.28.29.43.66.43,1.09v2.37l-.18-1.69c.18-.41.42-.76.71-1.06s.63-.57.99-.78.77-.36,1.19-.46.84-.15,1.26-.15c.5,0,.92.14,1.27.43s.52.62.52,1.01c0,.56-.14.95-.43,1.2s-.6.36-.94.36-.62-.06-.87-.18c-.27-.11-.56-.18-.9-.18-.31,0-.62.07-.92.21-.31.14-.6.36-.85.67-.27.31-.48.67-.63,1.12s-.24.97-.24,1.57v5.98c0,.43-.14.8-.43,1.09-.28.29-.64.45-1.08.45h.01Z"/>
    <path class="st0" d="M847.7,161.98c.95,0,1.79.1,2.51.31.71.2,1.27.48,1.67.84.39.36.59.8.59,1.3,0,.34-.1.66-.31.95-.2.29-.49.43-.88.43-.27,0-.49-.04-.67-.11s-.34-.17-.46-.29c-.14-.11-.29-.22-.48-.32-.17-.1-.42-.18-.77-.24s-.6-.08-.77-.08c-.85,0-1.58.18-2.18.56-.6.36-1.05.87-1.37,1.5s-.48,1.36-.48,2.18.17,1.53.49,2.16.78,1.13,1.36,1.5c.57.36,1.25.56,2,.56.42,0,.78-.03,1.08-.07.31-.06.56-.13.76-.22.24-.14.45-.28.63-.43s.46-.22.83-.22c.43,0,.77.14,1.01.42s.35.62.35,1.02-.24.8-.7,1.15-1.09.62-1.85.83c-.77.21-1.6.31-2.48.31-1.33,0-2.48-.31-3.46-.92-.98-.62-1.72-1.46-2.25-2.51-.53-1.06-.8-2.24-.8-3.56s.28-2.59.84-3.64c.56-1.05,1.34-1.88,2.34-2.46.99-.6,2.14-.9,3.44-.9l.03-.03Z"/>
    <path class="st0" d="M861.88,161.98c1.2,0,2.13.27,2.76.78s1.06,1.22,1.3,2.09.35,1.82.35,2.88v6.45c0,.43-.14.8-.43,1.09-.28.29-.64.45-1.08.45s-.8-.14-1.08-.45c-.28-.29-.43-.66-.43-1.09v-6.45c0-.56-.07-1.05-.2-1.5-.14-.45-.38-.8-.73-1.06-.35-.27-.85-.41-1.51-.41s-1.19.14-1.64.41c-.45.27-.8.63-1.02,1.06-.22.45-.34.95-.34,1.5v6.45c0,.43-.14.8-.43,1.09-.28.29-.64.45-1.08.45s-.8-.14-1.08-.45c-.28-.29-.43-.66-.43-1.09v-15.57c0-.43.14-.8.43-1.09.28-.29.64-.45,1.08-.45s.8.15,1.08.45.43.66.43,1.09v6.24l-.38-.07c.15-.28.36-.59.63-.92.27-.32.6-.63.98-.92.39-.28.81-.52,1.29-.7s.98-.27,1.54-.27h-.01Z"/>
    <path class="st0" d="M870.88,160.59c-.57,0-.98-.1-1.2-.28s-.35-.52-.35-.98v-.48c0-.49.13-.81.39-.99s.66-.27,1.19-.27c.59,0,.99.1,1.23.28.24.18.35.52.35.98v.48c0,.49-.13.81-.38.99s-.66.27-1.23.27ZM872.42,174.17c0,.43-.14.8-.43,1.09-.28.29-.64.45-1.08.45s-.8-.14-1.08-.45c-.28-.29-.43-.66-.43-1.09v-10.4c0-.43.14-.8.43-1.09.28-.29.64-.43,1.08-.43s.8.15,1.08.43c.28.29.43.66.43,1.09v10.4Z"/>
    <path class="st0" d="M878.79,174.17c0,.43-.14.8-.43,1.09-.29.29-.66.45-1.09.45s-.77-.14-1.06-.45c-.28-.29-.43-.66-.43-1.09v-15.57c0-.43.14-.8.43-1.09s.66-.45,1.09-.45.8.15,1.06.45c.28.29.42.66.42,1.09v15.57h.01Z"/>
    <path class="st0" d="M893.1,157.07c.43,0,.8.14,1.08.43.28.28.43.66.43,1.11v15.57c0,.43-.14.8-.43,1.09-.28.29-.64.45-1.08.45s-.8-.14-1.08-.45c-.28-.29-.43-.66-.43-1.09v-1.23l.56.22c0,.22-.11.49-.35.8s-.56.62-.95.92-.88.56-1.43.77c-.55.21-1.13.31-1.78.31-1.16,0-2.21-.29-3.15-.9s-1.68-1.41-2.23-2.46-.81-2.25-.81-3.61.28-2.59.81-3.64,1.29-1.88,2.21-2.46,1.95-.9,3.08-.9c.73,0,1.39.11,1.99.32.6.22,1.13.49,1.57.83.45.34.78.67,1.04,1.02s.36.63.36.87l-.91.32v-6.75c0-.43.14-.8.43-1.09s.64-.45,1.08-.45h-.01ZM888.02,173.19c.74,0,1.39-.18,1.95-.56.56-.36.99-.87,1.3-1.51s.46-1.36.46-2.14-.15-1.53-.46-2.17c-.31-.64-.74-1.15-1.3-1.51-.56-.36-1.2-.56-1.95-.56s-1.36.18-1.92.56c-.56.36-.99.87-1.3,1.51s-.46,1.36-.46,2.17.15,1.5.46,2.14c.31.64.74,1.15,1.3,1.51.56.36,1.19.56,1.92.56Z"/>
    <path class="st0" d="M899.4,175.71c-.43,0-.8-.14-1.08-.45-.28-.29-.43-.66-.43-1.09v-10.4c0-.43.14-.8.43-1.09.28-.29.64-.43,1.08-.43s.8.15,1.08.43c.28.29.43.66.43,1.09v2.37l-.18-1.69c.18-.41.42-.76.71-1.06s.63-.57.99-.78.77-.36,1.19-.46.84-.15,1.26-.15c.5,0,.92.14,1.27.43.35.28.52.62.52,1.01,0,.56-.14.95-.43,1.2s-.6.36-.94.36-.6-.06-.87-.18c-.27-.11-.56-.18-.9-.18-.31,0-.62.07-.92.21-.31.14-.6.36-.85.67-.27.31-.48.67-.63,1.12s-.24.97-.24,1.57v5.98c0,.43-.14.8-.43,1.09-.28.29-.64.45-1.08.45h.01Z"/>
    <path class="st0" d="M914.63,175.97c-1.43,0-2.67-.29-3.72-.9s-1.86-1.4-2.42-2.44c-.56-1.02-.84-2.18-.84-3.47,0-1.51.31-2.8.92-3.86s1.41-1.89,2.41-2.45c.99-.57,2.04-.85,3.15-.85.85,0,1.67.18,2.44.53s1.44.84,2.03,1.44c.59.62,1.05,1.33,1.4,2.13s.52,1.67.52,2.58c-.01.41-.18.73-.48.98s-.66.38-1.06.38h-9.63l-.76-2.52h9.25l-.56.5v-.69c-.03-.49-.21-.92-.52-1.32s-.7-.7-1.16-.92-.95-.34-1.47-.34-.98.07-1.41.2c-.43.14-.81.36-1.13.69-.32.32-.57.74-.76,1.29-.18.53-.28,1.22-.28,2.04,0,.91.18,1.68.56,2.31s.87,1.11,1.46,1.44c.6.32,1.23.49,1.9.49.62,0,1.12-.06,1.48-.15s.67-.22.9-.36.43-.27.62-.36c.31-.15.59-.22.85-.22.36,0,.67.13.92.38.24.25.36.55.36.88,0,.45-.24.87-.7,1.23-.43.36-1.05.69-1.83.97s-1.61.42-2.45.42h.01Z"/>
    <path class="st0" d="M930.35,161.98c1.25,0,2.18.27,2.84.78s1.09,1.22,1.33,2.09.36,1.82.36,2.88v6.45c0,.43-.14.8-.43,1.09-.28.29-.64.45-1.08.45s-.8-.14-1.08-.45c-.28-.29-.43-.66-.43-1.09v-6.45c0-.56-.07-1.05-.21-1.5-.14-.45-.41-.8-.77-1.06-.36-.27-.9-.41-1.58-.41s-1.23.14-1.69.41c-.46.27-.81.63-1.06,1.06-.24.45-.36.95-.36,1.5v6.45c0,.43-.14.8-.43,1.09-.28.29-.64.45-1.08.45s-.8-.14-1.08-.45c-.28-.29-.43-.66-.43-1.09v-10.4c0-.43.14-.8.43-1.09.28-.29.64-.43,1.08-.43s.8.15,1.08.43c.28.29.43.66.43,1.09v1.08l-.38-.07c.15-.28.36-.59.66-.92.28-.32.62-.63,1.01-.92.39-.28.83-.52,1.32-.7s1.02-.27,1.58-.27h-.01Z"/>
    <path class="st0" d="M960.75,162.23c.39,0,.73.15,1.01.43.28.29.43.67.43,1.12,0,.11,0,.22-.03.31-.01.1-.04.18-.07.27l-3.85,10.39c-.11.34-.32.59-.63.77-.31.18-.62.24-.95.18-.57-.03-.99-.35-1.29-.95l-2.49-7.18.66.03-2.34,7.15c-.28.6-.71.92-1.29.95-.32.06-.63,0-.94-.18s-.53-.43-.64-.77l-3.85-10.39c-.07-.18-.1-.38-.1-.57,0-.41.14-.77.41-1.08.27-.32.64-.48,1.11-.48.32,0,.6.07.85.22s.43.39.53.73l3.05,8.26-.63-.06,2.3-6.23c.27-.62.73-.94,1.39-.94.36,0,.64.08.84.24.2.15.35.39.46.69l2.3,6.23-.76.1,3.09-8.32c.2-.64.69-.95,1.46-.95l-.03.03Z"/>
    <path class="st0" d="M971.65,161.98c1.2,0,2.13.27,2.76.78.63.52,1.06,1.22,1.3,2.09s.35,1.82.35,2.88v6.45c0,.43-.14.8-.43,1.09-.28.29-.64.45-1.08.45s-.8-.14-1.08-.45c-.28-.29-.43-.66-.43-1.09v-6.45c0-.56-.07-1.05-.2-1.5-.14-.45-.38-.8-.73-1.06-.35-.27-.85-.41-1.51-.41s-1.19.14-1.64.41c-.45.27-.8.63-1.02,1.06-.22.45-.34.95-.34,1.5v6.45c0,.43-.14.8-.43,1.09-.28.29-.64.45-1.08.45s-.8-.14-1.08-.45c-.28-.29-.43-.66-.43-1.09v-15.57c0-.43.14-.8.43-1.09s.64-.45,1.08-.45.8.15,1.08.45.43.66.43,1.09v6.24l-.38-.07c.15-.28.36-.59.63-.92.27-.32.6-.63.98-.92.39-.28.81-.52,1.29-.7s.98-.27,1.54-.27h-.01Z"/>
    <path class="st0" d="M992.42,168.98c0,1.37-.31,2.59-.92,3.64s-1.44,1.86-2.46,2.45-2.18.88-3.46.88-2.44-.29-3.47-.88-1.86-1.4-2.46-2.45c-.62-1.05-.92-2.27-.92-3.64s.31-2.59.92-3.64,1.44-1.88,2.46-2.46,2.18-.9,3.47-.9,2.44.29,3.46.9,1.86,1.41,2.46,2.46c.62,1.05.92,2.27.92,3.64ZM989.39,168.98c0-.85-.17-1.6-.52-2.23s-.81-1.12-1.39-1.47-1.22-.53-1.93-.53-1.34.18-1.93.53c-.57.35-1.04.84-1.39,1.47s-.52,1.37-.52,2.23.17,1.57.52,2.2c.35.63.81,1.12,1.39,1.47s1.22.53,1.93.53,1.34-.18,1.93-.53,1.04-.84,1.39-1.47.52-1.36.52-2.2Z"/>
    <path class="st0" d="M1009.33,161.98c1.25,0,2.18.27,2.83.78s1.09,1.22,1.33,2.09.36,1.82.36,2.88v6.45c0,.43-.14.8-.43,1.09-.28.29-.64.45-1.08.45s-.8-.14-1.08-.45c-.28-.29-.43-.66-.43-1.09v-6.45c0-.56-.07-1.05-.21-1.5-.14-.45-.41-.8-.77-1.06-.36-.27-.9-.41-1.58-.41s-1.25.14-1.69.41c-.46.27-.81.63-1.06,1.06-.24.45-.36.95-.36,1.5v6.45c0,.43-.14.8-.43,1.09-.28.29-.64.45-1.08.45s-.8-.14-1.08-.45c-.28-.29-.43-.66-.43-1.09v-10.4c0-.43.14-.8.43-1.09.28-.29.64-.43,1.08-.43s.8.15,1.08.43c.28.29.43.66.43,1.09v1.08l-.38-.07c.15-.28.36-.59.66-.92.28-.32.62-.63,1.01-.92s.83-.52,1.32-.7,1.02-.27,1.58-.27h0Z"/>
    <path class="st0" d="M1023.5,175.97c-1.43,0-2.67-.29-3.72-.9s-1.86-1.4-2.42-2.44c-.56-1.02-.84-2.18-.84-3.47,0-1.51.31-2.8.92-3.86s1.41-1.89,2.41-2.45c.99-.57,2.04-.85,3.15-.85.85,0,1.67.18,2.44.53s1.44.84,2.03,1.44c.59.62,1.05,1.33,1.4,2.13s.52,1.67.52,2.58c-.01.41-.18.73-.48.98s-.66.38-1.06.38h-9.63l-.76-2.52h9.25l-.56.5v-.69c-.03-.49-.21-.92-.52-1.32s-.7-.7-1.16-.92-.95-.34-1.47-.34-.98.07-1.41.2c-.43.14-.81.36-1.13.69-.32.32-.57.74-.76,1.29-.18.53-.28,1.22-.28,2.04,0,.91.18,1.68.56,2.31s.87,1.11,1.46,1.44c.6.32,1.23.49,1.9.49.62,0,1.12-.06,1.48-.15s.67-.22.9-.36.43-.27.62-.36c.31-.15.59-.22.85-.22.36,0,.67.13.92.38.24.25.36.55.36.88,0,.45-.24.87-.7,1.23-.43.36-1.05.69-1.83.97s-1.61.42-2.45.42h.01Z"/>
    <path class="st0" d="M1038.36,175.97c-1.43,0-2.67-.29-3.72-.9s-1.86-1.4-2.42-2.44c-.56-1.02-.84-2.18-.84-3.47,0-1.51.31-2.8.92-3.86s1.41-1.89,2.41-2.45c.99-.57,2.04-.85,3.15-.85.85,0,1.67.18,2.44.53s1.44.84,2.03,1.44c.59.62,1.05,1.33,1.4,2.13s.52,1.67.52,2.58c-.01.41-.18.73-.48.98s-.66.38-1.06.38h-9.63l-.76-2.52h9.25l-.56.5v-.69c-.03-.49-.21-.92-.52-1.32s-.7-.7-1.16-.92-.95-.34-1.47-.34-.98.07-1.41.2c-.43.14-.81.36-1.13.69-.32.32-.57.74-.76,1.29-.18.53-.28,1.22-.28,2.04,0,.91.18,1.68.56,2.31s.87,1.11,1.46,1.44c.6.32,1.23.49,1.9.49.62,0,1.12-.06,1.48-.15s.67-.22.9-.36.43-.27.62-.36c.31-.15.59-.22.85-.22.36,0,.67.13.92.38.24.25.36.55.36.88,0,.45-.24.87-.7,1.23-.43.36-1.05.69-1.83.97s-1.61.42-2.45.42h.01Z"/>
    <path class="st0" d="M1057.91,157.07c.43,0,.8.14,1.08.43.28.28.43.66.43,1.11v15.57c0,.43-.14.8-.43,1.09-.28.29-.64.45-1.08.45s-.8-.14-1.08-.45c-.28-.29-.43-.66-.43-1.09v-1.23l.56.22c0,.22-.11.49-.35.8s-.56.62-.95.92-.88.56-1.43.77c-.55.21-1.13.31-1.78.31-1.16,0-2.21-.29-3.15-.9s-1.68-1.41-2.23-2.46-.81-2.25-.81-3.61.28-2.59.81-3.64,1.29-1.88,2.21-2.46,1.95-.9,3.08-.9c.73,0,1.39.11,1.99.32.6.22,1.13.49,1.57.83.45.34.78.67,1.04,1.02s.36.63.36.87l-.91.32v-6.75c0-.43.14-.8.43-1.09s.64-.45,1.08-.45h-.01ZM1052.83,173.19c.74,0,1.39-.18,1.95-.56.56-.36.99-.87,1.3-1.51s.46-1.36.46-2.14-.15-1.53-.46-2.17c-.31-.64-.74-1.15-1.3-1.51-.56-.36-1.2-.56-1.95-.56s-1.36.18-1.92.56c-.56.36-.99.87-1.3,1.51s-.46,1.36-.46,2.17.15,1.5.46,2.14c.31.64.74,1.15,1.3,1.51.56.36,1.19.56,1.92.56Z"/>
    <path class="st0" d="M793.42,215.63c-.17-.24-.24-.53-.22-.91.01-.36.24-.69.66-.95.27-.17.56-.24.85-.21.31.03.6.18.88.46.49.49.99.87,1.54,1.13.53.27,1.2.41,2.02.41.25-.01.53-.06.83-.11s.56-.2.8-.41.34-.53.34-.97c0-.36-.13-.66-.38-.88s-.59-.41-.99-.56c-.41-.15-.87-.29-1.37-.43-.52-.15-1.05-.32-1.6-.5s-1.05-.42-1.5-.71c-.45-.29-.83-.69-1.11-1.18-.28-.49-.43-1.11-.43-1.83,0-.84.24-1.55.7-2.14s1.08-1.04,1.82-1.36c.74-.32,1.53-.48,2.35-.48.52,0,1.06.06,1.64.18.57.13,1.12.32,1.64.6s.95.64,1.32,1.09c.18.25.29.56.32.91.03.35-.13.67-.48.95-.25.2-.55.29-.88.27s-.62-.14-.83-.34c-.28-.36-.67-.66-1.15-.88s-1.02-.32-1.65-.32c-.25,0-.53.03-.81.08-.29.06-.55.18-.77.38s-.32.5-.32.92c0,.39.13.7.38.92s.59.41,1.02.56c.43.14.88.28,1.37.42.5.14,1.02.29,1.54.48.52.18.99.43,1.44.73.43.31.78.7,1.06,1.18.27.48.41,1.09.41,1.82,0,.85-.25,1.58-.76,2.2-.5.6-1.13,1.06-1.89,1.37s-1.53.46-2.32.46c-.99,0-1.99-.17-2.97-.52-.99-.35-1.82-.95-2.46-1.82h-.03Z"/>
    <path class="st0" d="M816.35,204.23c.43,0,.8.15,1.08.43.28.29.43.66.43,1.09v6.4c0,1.78-.49,3.19-1.48,4.23s-2.42,1.57-4.28,1.57-3.29-.52-4.27-1.57-1.47-2.45-1.47-4.23v-6.4c0-.43.14-.8.43-1.09.28-.29.64-.43,1.08-.43s.8.15,1.08.43c.28.29.43.66.43,1.09v6.4c0,1.02.22,1.79.69,2.28.45.49,1.13.74,2.04.74s1.61-.25,2.07-.74c.45-.49.69-1.26.69-2.28v-6.4c0-.43.14-.8.43-1.09.28-.29.64-.43,1.08-.43h-.03Z"/>
    <path class="st0" d="M828.11,203.98c1.18,0,2.23.29,3.16.9s1.67,1.41,2.21,2.45.81,2.25.81,3.63-.28,2.59-.81,3.64-1.27,1.88-2.2,2.46c-.91.6-1.95.9-3.09.9-.67,0-1.3-.11-1.89-.32-.59-.22-1.11-.49-1.55-.83-.45-.34-.78-.67-1.04-1.02s-.36-.63-.36-.87l.78-.32v6.62c0,.43-.14.8-.43,1.09s-.64.43-1.08.43-.8-.14-1.08-.43c-.28-.28-.43-.66-.43-1.11v-15.44c0-.43.14-.8.43-1.09.28-.29.64-.43,1.08-.43s.8.15,1.08.43c.28.29.43.66.43,1.09v1.23l-.43-.22c0-.22.11-.49.35-.8s.56-.62.95-.94.87-.57,1.4-.77,1.09-.31,1.68-.31l.03.03ZM827.73,206.75c-.74,0-1.39.18-1.95.56-.56.36-.99.87-1.3,1.5-.31.63-.46,1.34-.46,2.16s.15,1.51.46,2.16c.31.64.74,1.16,1.3,1.53.56.36,1.2.56,1.95.56s1.39-.18,1.93-.56c.55-.36.98-.88,1.29-1.53.31-.64.46-1.36.46-2.16s-.15-1.53-.46-2.16c-.31-.63-.74-1.13-1.29-1.5-.55-.36-1.19-.56-1.93-.56Z"/>
    <path class="st0" d="M843.95,203.98c1.18,0,2.23.29,3.16.9s1.67,1.41,2.21,2.45.81,2.25.81,3.63-.28,2.59-.81,3.64-1.27,1.88-2.2,2.46c-.91.6-1.95.9-3.09.9-.67,0-1.3-.11-1.89-.32-.59-.22-1.11-.49-1.55-.83-.45-.34-.78-.67-1.04-1.02s-.36-.63-.36-.87l.78-.32v6.62c0,.43-.14.8-.43,1.09s-.64.43-1.08.43-.8-.14-1.08-.43c-.28-.28-.43-.66-.43-1.11v-15.44c0-.43.14-.8.43-1.09.28-.29.64-.43,1.08-.43s.8.15,1.08.43c.28.29.43.66.43,1.09v1.23l-.43-.22c0-.22.11-.49.35-.8s.56-.62.95-.94.87-.57,1.4-.77,1.09-.31,1.68-.31l.03.03ZM843.57,206.75c-.74,0-1.39.18-1.95.56-.56.36-.99.87-1.3,1.5-.31.63-.46,1.34-.46,2.16s.15,1.51.46,2.16c.31.64.74,1.16,1.3,1.53.56.36,1.2.56,1.95.56s1.39-.18,1.93-.56c.55-.36.98-.88,1.29-1.53.31-.64.46-1.36.46-2.16s-.15-1.53-.46-2.16c-.31-.63-.74-1.13-1.29-1.5-.55-.36-1.19-.56-1.93-.56Z"/>
    <path class="st0" d="M865.87,210.98c0,1.37-.31,2.59-.92,3.64s-1.44,1.86-2.46,2.45c-1.04.59-2.18.88-3.46.88s-2.44-.29-3.46-.88c-1.04-.59-1.86-1.4-2.46-2.45-.62-1.05-.92-2.27-.92-3.64s.31-2.59.92-3.64,1.44-1.88,2.46-2.46c1.04-.6,2.18-.9,3.46-.9s2.44.29,3.46.9c1.04.6,1.86,1.41,2.46,2.46.62,1.05.92,2.27.92,3.64ZM862.85,210.98c0-.85-.17-1.6-.52-2.23s-.81-1.12-1.39-1.47-1.22-.53-1.93-.53-1.34.18-1.93.53-1.04.84-1.39,1.47-.52,1.37-.52,2.23.17,1.57.52,2.2c.35.63.81,1.12,1.39,1.47s1.22.53,1.93.53,1.34-.18,1.93-.53,1.04-.84,1.39-1.47.52-1.36.52-2.2Z"/>
    <path class="st0" d="M870.03,217.71c-.43,0-.8-.14-1.08-.45-.28-.29-.43-.66-.43-1.09v-10.4c0-.43.14-.8.43-1.09.28-.29.64-.43,1.08-.43s.8.15,1.08.43c.28.29.43.66.43,1.09v2.37l-.18-1.69c.18-.41.42-.76.71-1.06s.63-.57.99-.78.77-.36,1.19-.46.84-.15,1.26-.15c.5,0,.92.14,1.27.43.35.28.52.62.52,1.01,0,.56-.14.95-.43,1.2s-.6.36-.94.36-.6-.06-.87-.18c-.27-.11-.56-.18-.9-.18-.31,0-.62.07-.92.21-.31.14-.6.36-.85.67-.27.31-.48.67-.63,1.12s-.24.97-.24,1.57v5.98c0,.43-.14.8-.43,1.09-.28.29-.64.45-1.08.45h.01Z"/>
    <path class="st0" d="M879.6,204.48h5.98c.41,0,.74.14,1.01.41.27.27.41.6.41,1.01s-.14.71-.41.97c-.27.27-.6.39-1.01.39h-5.98c-.41,0-.74-.14-1.01-.41-.27-.27-.41-.6-.41-1.01s.14-.71.41-.97c.27-.27.6-.39,1.01-.39ZM882.29,201.33c.43,0,.8.15,1.08.45s.42.66.42,1.09v11.21c0,.24.04.43.14.57.1.15.22.27.38.32.15.07.34.1.52.1.2,0,.39-.04.56-.11s.36-.11.57-.11c.24,0,.45.11.64.32.2.22.29.52.29.91,0,.48-.25.85-.77,1.16s-1.06.45-1.65.45c-.35,0-.74-.03-1.18-.08s-.83-.2-1.2-.43c-.38-.22-.69-.57-.94-1.05s-.38-1.12-.38-1.95v-11.34c0-.43.14-.8.43-1.09s.66-.45,1.09-.45v.03Z"/>
    <path class="st0" d="M912.34,204.23c.39,0,.73.15,1.01.43.28.29.43.67.43,1.12,0,.11,0,.22-.03.31-.01.1-.04.18-.07.27l-3.85,10.39c-.11.34-.32.59-.63.77s-.62.24-.95.18c-.57-.03-.99-.35-1.29-.95l-2.49-7.18.66.03-2.34,7.15c-.28.6-.71.92-1.29.95-.32.06-.63,0-.94-.18s-.53-.43-.64-.77l-3.85-10.39c-.07-.18-.1-.38-.1-.57,0-.41.14-.77.41-1.08.27-.32.64-.48,1.11-.48.32,0,.6.07.85.22s.43.39.53.73l3.05,8.26-.63-.06,2.3-6.23c.27-.62.73-.94,1.39-.94.36,0,.64.08.84.24.2.15.35.39.46.69l2.3,6.23-.76.1,3.09-8.32c.2-.64.69-.95,1.46-.95l-.03.03Z"/>
    <path class="st0" d="M917.47,202.59c-.57,0-.98-.1-1.2-.28s-.35-.52-.35-.98v-.48c0-.49.13-.81.39-.99s.66-.27,1.19-.27c.59,0,.99.1,1.23.28.24.18.35.52.35.98v.48c0,.49-.13.81-.38.99s-.66.27-1.23.27ZM919.01,216.17c0,.43-.14.8-.43,1.09-.28.29-.64.45-1.08.45s-.8-.14-1.08-.45c-.28-.29-.43-.66-.43-1.09v-10.4c0-.43.14-.8.43-1.09.28-.29.64-.43,1.08-.43s.8.15,1.08.43c.28.29.43.66.43,1.09v10.4Z"/>
    <path class="st0" d="M922.26,204.48h5.98c.41,0,.74.14,1.01.41.27.27.41.6.41,1.01s-.14.71-.41.97c-.27.27-.6.39-1.01.39h-5.98c-.41,0-.74-.14-1.01-.41-.27-.27-.41-.6-.41-1.01s.14-.71.41-.97c.27-.27.6-.39,1.01-.39ZM924.96,201.33c.43,0,.8.15,1.08.45s.42.66.42,1.09v11.21c0,.24.04.43.14.57.1.15.22.27.38.32.15.07.34.1.52.1.2,0,.39-.04.56-.11s.36-.11.57-.11c.24,0,.45.11.64.32.2.22.29.52.29.91,0,.48-.25.85-.77,1.16s-1.06.45-1.65.45c-.35,0-.74-.03-1.18-.08s-.83-.2-1.2-.43c-.38-.22-.69-.57-.94-1.05s-.38-1.12-.38-1.95v-11.34c0-.43.14-.8.43-1.09s.66-.45,1.09-.45v.03Z"/>
    <path class="st0" d="M939.5,203.98c1.2,0,2.13.27,2.76.78.63.52,1.06,1.22,1.3,2.09s.35,1.82.35,2.88v6.45c0,.43-.14.8-.43,1.09-.28.29-.64.45-1.08.45s-.8-.14-1.08-.45c-.28-.29-.43-.66-.43-1.09v-6.45c0-.56-.07-1.05-.2-1.5-.14-.45-.38-.8-.73-1.06-.35-.27-.85-.41-1.51-.41s-1.19.14-1.64.41c-.45.27-.8.63-1.02,1.06-.22.45-.34.95-.34,1.5v6.45c0,.43-.14.8-.43,1.09-.28.29-.64.45-1.08.45s-.8-.14-1.08-.45c-.28-.29-.43-.66-.43-1.09v-15.57c0-.43.14-.8.43-1.09s.64-.45,1.08-.45.8.15,1.08.45.43.66.43,1.09v6.24l-.38-.07c.15-.28.36-.59.63-.92.27-.32.6-.63.98-.92.39-.28.81-.52,1.29-.7s.98-.27,1.54-.27h-.01Z"/>
    <path class="st0" d="M955.75,217.71c-.43,0-.8-.14-1.08-.45-.28-.29-.43-.66-.43-1.09v-10.4c0-.43.14-.8.43-1.09.28-.29.64-.43,1.08-.43s.8.15,1.08.43c.28.29.43.66.43,1.09v2.37l-.18-1.69c.18-.41.42-.76.71-1.06s.63-.57.99-.78.77-.36,1.19-.46.84-.15,1.26-.15c.5,0,.92.14,1.27.43.35.28.52.62.52,1.01,0,.56-.14.95-.43,1.2s-.6.36-.94.36-.6-.06-.87-.18c-.27-.11-.56-.18-.9-.18-.31,0-.62.07-.92.21-.31.14-.6.36-.85.67-.27.31-.48.67-.63,1.12s-.24.97-.24,1.57v5.98c0,.43-.14.8-.43,1.09-.28.29-.64.45-1.08.45h.01Z"/>
    <path class="st0" d="M970.97,217.97c-1.43,0-2.67-.29-3.72-.9s-1.86-1.4-2.42-2.44c-.56-1.02-.84-2.18-.84-3.47,0-1.51.31-2.8.92-3.86s1.41-1.89,2.41-2.45c.99-.57,2.04-.85,3.15-.85.85,0,1.67.18,2.44.53s1.44.84,2.03,1.44c.59.62,1.05,1.33,1.4,2.13s.52,1.67.52,2.58c-.01.41-.18.73-.48.98s-.66.38-1.06.38h-9.63l-.76-2.52h9.25l-.56.5v-.69c-.03-.49-.21-.92-.52-1.32s-.7-.7-1.16-.92-.95-.34-1.47-.34-.98.07-1.41.2c-.43.14-.81.36-1.13.69-.32.32-.57.74-.76,1.29-.18.53-.28,1.22-.28,2.04,0,.91.18,1.68.56,2.31s.87,1.11,1.46,1.44c.6.32,1.23.49,1.9.49.62,0,1.12-.06,1.48-.15s.67-.22.9-.36.43-.27.62-.36c.31-.15.59-.22.85-.22.36,0,.67.13.92.38.24.25.36.55.36.88,0,.45-.24.87-.7,1.23-.43.36-1.05.69-1.83.97s-1.61.42-2.45.42h.01Z"/>
    <path class="st0" d="M990.62,203.98c.43,0,.8.14,1.08.43.28.28.43.66.43,1.11v10.65c0,.43-.14.8-.43,1.09-.28.29-.64.45-1.08.45s-.8-.14-1.08-.45c-.28-.29-.43-.66-.43-1.09v-1.23l.56.22c0,.22-.11.49-.35.8s-.56.62-.95.92-.88.56-1.43.77c-.55.21-1.13.31-1.78.31-1.16,0-2.21-.29-3.15-.9s-1.68-1.41-2.23-2.46-.81-2.25-.81-3.61.28-2.59.81-3.64,1.29-1.88,2.21-2.46,1.95-.9,3.08-.9c.73,0,1.39.11,1.99.32.6.22,1.13.49,1.57.83.45.34.78.67,1.04,1.02s.36.63.36.87l-.91.32v-1.83c0-.43.14-.8.43-1.09s.64-.43,1.08-.43h-.01ZM985.54,215.19c.74,0,1.39-.18,1.95-.56.56-.36.99-.87,1.3-1.51s.46-1.36.46-2.14-.15-1.53-.46-2.17c-.31-.64-.74-1.15-1.3-1.51-.56-.36-1.2-.56-1.95-.56s-1.36.18-1.92.56c-.56.36-.99.87-1.3,1.51s-.46,1.36-.46,2.17.15,1.5.46,2.14c.31.64.74,1.15,1.3,1.51.56.36,1.19.56,1.92.56Z"/>
    <path class="st0" d="M1006.46,199.07c.43,0,.8.14,1.08.43.28.28.43.66.43,1.11v15.57c0,.43-.14.8-.43,1.09-.28.29-.64.45-1.08.45s-.8-.14-1.08-.45c-.28-.29-.43-.66-.43-1.09v-1.23l.56.22c0,.22-.11.49-.35.8s-.56.62-.95.92-.88.56-1.43.77c-.55.21-1.13.31-1.78.31-1.16,0-2.21-.29-3.15-.9s-1.68-1.41-2.23-2.46-.81-2.25-.81-3.61.28-2.59.81-3.64,1.29-1.88,2.21-2.46,1.95-.9,3.08-.9c.73,0,1.39.11,1.99.32.6.22,1.13.49,1.57.83.45.34.78.67,1.04,1.02s.36.63.36.87l-.91.32v-6.75c0-.43.14-.8.43-1.09s.64-.45,1.08-.45h-.01ZM1001.36,215.19c.74,0,1.39-.18,1.95-.56.56-.36.99-.87,1.3-1.51s.46-1.36.46-2.14-.15-1.53-.46-2.17c-.31-.64-.74-1.15-1.3-1.51-.56-.36-1.2-.56-1.95-.56s-1.36.18-1.92.56c-.56.36-.99.87-1.3,1.51s-.46,1.36-.46,2.17.15,1.5.46,2.14c.31.64.74,1.15,1.3,1.51.56.36,1.19.56,1.92.56Z"/>
    <path class="st0" d="M1012.55,202.59c-.57,0-.98-.1-1.2-.28-.24-.18-.35-.52-.35-.98v-.48c0-.49.13-.81.39-.99s.66-.27,1.2-.27c.59,0,.99.1,1.23.28.24.18.35.52.35.98v.48c0,.49-.13.81-.38.99s-.66.27-1.23.27h-.01ZM1014.09,216.17c0,.43-.14.8-.43,1.09-.28.29-.64.45-1.08.45s-.8-.14-1.08-.45c-.28-.29-.43-.66-.43-1.09v-10.4c0-.43.14-.8.43-1.09.28-.29.64-.43,1.08-.43s.8.15,1.08.43c.28.29.43.66.43,1.09v10.4Z"/>
    <path class="st0" d="M1024.39,203.98c1.25,0,2.18.27,2.84.78s1.09,1.22,1.33,2.09.36,1.82.36,2.88v6.45c0,.43-.14.8-.43,1.09-.28.29-.64.45-1.08.45s-.8-.14-1.08-.45c-.28-.29-.43-.66-.43-1.09v-6.45c0-.56-.07-1.05-.21-1.5-.14-.45-.41-.8-.77-1.06-.36-.27-.9-.41-1.58-.41s-1.23.14-1.69.41c-.46.27-.81.63-1.06,1.06-.24.45-.36.95-.36,1.5v6.45c0,.43-.14.8-.43,1.09-.28.29-.64.45-1.08.45s-.8-.14-1.08-.45c-.28-.29-.43-.66-.43-1.09v-10.4c0-.43.14-.8.43-1.09.28-.29.64-.43,1.08-.43s.8.15,1.08.43c.28.29.43.66.43,1.09v1.08l-.38-.07c.15-.28.36-.59.66-.92.28-.32.62-.63,1.01-.92.39-.28.83-.52,1.32-.7s1.02-.27,1.58-.27h-.01Z"/>
    <path class="st0" d="M1037.8,203.98c.7,0,1.36.11,1.95.32.59.22,1.09.49,1.53.83.43.34.77.67,1.01,1.02s.36.63.36.87l-.66.32v-1.83c0-.43.14-.8.43-1.09s.64-.43,1.08-.43.8.14,1.08.43.43.66.43,1.11v11.21c0,1.46-.32,2.63-.94,3.51-.63.88-1.46,1.53-2.48,1.92-1.02.39-2.13.59-3.3.59-.34,0-.77-.04-1.32-.13-.53-.08-1.05-.18-1.54-.31-.49-.11-.85-.22-1.11-.32-.5-.22-.85-.49-1.05-.81s-.24-.67-.11-1.05c.15-.49.39-.81.73-.99s.69-.2,1.06-.06c.17.06.45.15.83.31.39.15.81.29,1.27.42.46.13.87.18,1.22.18,1.26,0,2.2-.25,2.8-.76s.91-1.2.91-2.09v-2.2l.31.22c0,.22-.11.49-.34.8s-.53.62-.94.92-.87.56-1.4.77c-.53.21-1.11.31-1.71.31-1.19,0-2.27-.29-3.22-.9s-1.71-1.41-2.27-2.46-.83-2.25-.83-3.61.28-2.59.83-3.64c.56-1.05,1.3-1.88,2.24-2.46s1.99-.9,3.15-.9v-.03ZM1038.28,206.75c-.76,0-1.41.18-1.99.56-.57.36-1.02.87-1.33,1.51-.32.64-.48,1.36-.48,2.17s.15,1.5.48,2.14.77,1.15,1.33,1.51c.57.36,1.23.56,1.99.56s1.44-.18,2.02-.56c.57-.36,1.02-.87,1.33-1.51s.48-1.36.48-2.14-.15-1.53-.48-2.17c-.32-.64-.77-1.15-1.33-1.51-.57-.36-1.25-.56-2.02-.56Z"/>
    <path class="st0" d="M805.24,245.98c.43,0,.8.14,1.08.43.28.28.43.66.43,1.11v10.65c0,.43-.14.8-.43,1.09-.28.29-.64.45-1.08.45s-.8-.14-1.08-.45c-.28-.29-.43-.66-.43-1.09v-1.23l.56.22c0,.22-.11.49-.35.8s-.56.62-.95.92-.88.56-1.43.77c-.55.21-1.13.31-1.78.31-1.16,0-2.21-.29-3.15-.9s-1.68-1.41-2.23-2.46-.81-2.25-.81-3.61.28-2.59.81-3.64,1.29-1.88,2.21-2.46,1.95-.9,3.08-.9c.73,0,1.39.11,1.99.32.6.22,1.13.49,1.57.83.45.34.78.67,1.04,1.02s.36.63.36.87l-.91.32v-1.83c0-.43.14-.8.43-1.09s.64-.43,1.08-.43h-.01ZM800.14,257.19c.74,0,1.39-.18,1.95-.56.56-.36.99-.87,1.3-1.51s.46-1.36.46-2.14-.15-1.53-.46-2.17c-.31-.64-.74-1.15-1.3-1.51-.56-.36-1.2-.56-1.95-.56s-1.36.18-1.92.56c-.56.36-.99.87-1.3,1.51s-.46,1.36-.46,2.17.15,1.5.46,2.14c.31.64.74,1.15,1.3,1.51.56.36,1.19.56,1.92.56Z"/>
    <path class="st0" d="M817.23,245.98c1.25,0,2.18.27,2.84.78s1.09,1.22,1.33,2.09.36,1.82.36,2.88v6.45c0,.43-.14.8-.43,1.09-.28.29-.64.45-1.08.45s-.8-.14-1.08-.45c-.28-.29-.43-.66-.43-1.09v-6.45c0-.56-.07-1.05-.21-1.5-.14-.45-.41-.8-.77-1.06-.36-.27-.9-.41-1.58-.41s-1.23.14-1.69.41c-.46.27-.81.63-1.06,1.06-.24.45-.36.95-.36,1.5v6.45c0,.43-.14.8-.43,1.09-.28.29-.64.45-1.08.45s-.8-.14-1.08-.45c-.28-.29-.43-.66-.43-1.09v-10.4c0-.43.14-.8.43-1.09.28-.29.64-.43,1.08-.43s.8.15,1.08.43c.28.29.43.66.43,1.09v1.08l-.38-.07c.15-.28.36-.59.66-.92.28-.32.62-.63,1.01-.92.39-.28.83-.52,1.32-.7s1.02-.27,1.58-.27h-.01Z"/>
    <path class="st0" d="M836.08,241.07c.43,0,.8.14,1.08.43s.43.66.43,1.11v15.57c0,.43-.14.8-.43,1.09-.28.29-.64.45-1.08.45s-.8-.14-1.08-.45c-.28-.29-.43-.66-.43-1.09v-1.23l.56.22c0,.22-.11.49-.35.8s-.56.62-.95.92-.88.56-1.43.77c-.55.21-1.13.31-1.78.31-1.16,0-2.21-.29-3.15-.9s-1.68-1.41-2.23-2.46-.81-2.25-.81-3.61.27-2.59.81-3.64,1.27-1.88,2.2-2.46,1.95-.9,3.08-.9c.73,0,1.39.11,1.99.32.6.22,1.13.49,1.57.83.45.34.78.67,1.04,1.02s.36.63.36.87l-.91.32v-6.75c0-.43.14-.8.43-1.09s.64-.45,1.08-.45h0ZM830.98,257.19c.74,0,1.39-.18,1.95-.56.56-.36.98-.87,1.3-1.51.31-.64.46-1.36.46-2.14s-.15-1.53-.46-2.17c-.31-.64-.74-1.15-1.3-1.51-.56-.36-1.2-.56-1.95-.56s-1.36.18-1.92.56c-.56.36-.99.87-1.3,1.51s-.46,1.36-.46,2.17.15,1.5.46,2.14c.31.64.74,1.15,1.3,1.51.56.36,1.19.56,1.92.56Z"/>
    <path class="st0" d="M863.45,246.23c.39,0,.73.15,1.01.43.28.29.43.67.43,1.12,0,.11,0,.22-.03.31-.01.1-.04.18-.07.27l-3.85,10.39c-.11.34-.32.59-.63.77-.31.18-.62.24-.95.18-.57-.03-.99-.35-1.29-.95l-2.49-7.18.66.03-2.34,7.15c-.28.6-.71.92-1.29.95-.32.06-.63,0-.94-.18s-.53-.43-.64-.77l-3.85-10.39c-.07-.18-.1-.38-.1-.57,0-.41.14-.77.41-1.08.27-.32.64-.48,1.11-.48.32,0,.6.07.85.22s.43.39.53.73l3.05,8.26-.63-.06,2.3-6.23c.27-.62.73-.94,1.39-.94.36,0,.64.08.84.24.2.15.35.39.46.69l2.3,6.23-.76.1,3.09-8.32c.2-.64.69-.95,1.46-.95l-.03.03Z"/>
    <path class="st0" d="M868.78,259.71c-.43,0-.8-.14-1.08-.45-.28-.29-.43-.66-.43-1.09v-10.4c0-.43.14-.8.43-1.09.28-.29.64-.43,1.08-.43s.8.15,1.08.43c.28.29.43.66.43,1.09v2.37l-.18-1.69c.18-.41.42-.76.71-1.06s.63-.57.99-.78.77-.36,1.19-.46.84-.15,1.26-.15c.5,0,.92.14,1.27.43.35.28.52.62.52,1.01,0,.56-.14.95-.43,1.2s-.6.36-.94.36-.6-.06-.87-.18c-.27-.11-.56-.18-.9-.18-.31,0-.62.07-.92.21-.31.14-.6.36-.85.67-.27.31-.48.67-.63,1.12s-.24.97-.24,1.57v5.98c0,.43-.14.8-.43,1.09-.28.29-.64.45-1.08.45h.01Z"/>
    <path class="st0" d="M879.52,244.59c-.57,0-.98-.1-1.2-.28s-.35-.52-.35-.98v-.48c0-.49.13-.81.39-.99s.66-.27,1.19-.27c.59,0,.99.1,1.23.28.24.18.35.52.35.98v.48c0,.49-.13.81-.38.99s-.66.27-1.23.27ZM881.06,258.17c0,.43-.14.8-.43,1.09-.28.29-.64.45-1.08.45s-.8-.14-1.08-.45c-.28-.29-.43-.66-.43-1.09v-10.4c0-.43.14-.8.43-1.09.28-.29.64-.43,1.08-.43s.8.15,1.08.43c.28.29.43.66.43,1.09v10.4Z"/>
    <path class="st0" d="M884.31,246.48h5.98c.41,0,.74.14,1.01.41.27.27.41.6.41,1.01s-.14.71-.41.97c-.27.27-.6.39-1.01.39h-5.98c-.41,0-.74-.14-1.01-.41-.27-.27-.41-.6-.41-1.01s.14-.71.41-.97c.27-.27.6-.39,1.01-.39ZM887.01,243.33c.43,0,.8.15,1.08.45s.42.66.42,1.09v11.21c0,.24.04.43.14.57.1.15.22.27.38.32.15.07.34.1.52.1.2,0,.39-.04.56-.11s.36-.11.57-.11c.24,0,.45.11.64.32.2.22.29.52.29.91,0,.48-.25.85-.77,1.16s-1.06.45-1.65.45c-.35,0-.74-.03-1.18-.08s-.83-.2-1.2-.43c-.38-.22-.69-.57-.94-1.05s-.38-1.12-.38-1.95v-11.34c0-.43.14-.8.43-1.09s.66-.45,1.09-.45v.03Z"/>
    <path class="st0" d="M895.77,244.59c-.57,0-.98-.1-1.2-.28-.24-.18-.35-.52-.35-.98v-.48c0-.49.13-.81.39-.99s.66-.27,1.2-.27c.59,0,.99.1,1.23.28.24.18.35.52.35.98v.48c0,.49-.13.81-.38.99s-.66.27-1.23.27h-.01ZM897.31,258.17c0,.43-.14.8-.43,1.09-.28.29-.64.45-1.08.45s-.8-.14-1.08-.45c-.28-.29-.43-.66-.43-1.09v-10.4c0-.43.14-.8.43-1.09.28-.29.64-.43,1.08-.43s.8.15,1.08.43c.28.29.43.66.43,1.09v10.4Z"/>
    <path class="st0" d="M907.62,245.98c1.25,0,2.18.27,2.84.78s1.09,1.22,1.33,2.09.36,1.82.36,2.88v6.45c0,.43-.14.8-.43,1.09-.28.29-.64.45-1.08.45s-.8-.14-1.08-.45c-.28-.29-.43-.66-.43-1.09v-6.45c0-.56-.07-1.05-.21-1.5-.14-.45-.41-.8-.77-1.06-.36-.27-.9-.41-1.58-.41s-1.23.14-1.69.41c-.46.27-.81.63-1.06,1.06-.24.45-.36.95-.36,1.5v6.45c0,.43-.14.8-.43,1.09-.28.29-.64.45-1.08.45s-.8-.14-1.08-.45c-.28-.29-.43-.66-.43-1.09v-10.4c0-.43.14-.8.43-1.09.28-.29.64-.43,1.08-.43s.8.15,1.08.43c.28.29.43.66.43,1.09v1.08l-.38-.07c.15-.28.36-.59.66-.92.28-.32.62-.63,1.01-.92.39-.28.83-.52,1.32-.7s1.02-.27,1.58-.27h-.01Z"/>
    <path class="st0" d="M921.03,245.98c.7,0,1.36.11,1.95.32.59.22,1.09.49,1.53.83.43.34.77.67,1.01,1.02s.36.63.36.87l-.66.32v-1.83c0-.43.14-.8.43-1.09s.64-.43,1.08-.43.8.14,1.08.43.43.66.43,1.11v11.21c0,1.46-.32,2.63-.94,3.51-.63.88-1.46,1.53-2.48,1.92-1.02.39-2.13.59-3.3.59-.34,0-.77-.04-1.32-.13-.53-.08-1.05-.18-1.54-.31-.49-.11-.85-.22-1.11-.32-.5-.22-.85-.49-1.05-.81-.2-.32-.24-.67-.11-1.05.15-.49.39-.81.73-.99s.69-.2,1.06-.06c.17.06.45.15.83.31.39.15.81.29,1.27.42.46.13.87.18,1.22.18,1.26,0,2.2-.25,2.8-.76s.91-1.2.91-2.09v-2.2l.31.22c0,.22-.11.49-.34.8s-.53.62-.94.92-.87.56-1.4.77c-.53.21-1.11.31-1.71.31-1.19,0-2.27-.29-3.22-.9s-1.71-1.41-2.27-2.46-.83-2.25-.83-3.61.28-2.59.83-3.64c.56-1.05,1.3-1.88,2.24-2.46s1.99-.9,3.15-.9v-.03ZM921.51,248.75c-.76,0-1.41.18-1.99.56-.57.36-1.02.87-1.33,1.51-.32.64-.48,1.36-.48,2.17s.15,1.5.48,2.14.77,1.15,1.33,1.51c.57.36,1.23.56,1.99.56s1.44-.18,2.02-.56c.57-.36,1.02-.87,1.33-1.51s.48-1.36.48-2.14-.15-1.53-.48-2.17c-.32-.64-.77-1.15-1.33-1.51-.57-.36-1.25-.56-2.02-.56Z"/>
    <path class="st0" d="M932.85,259.69c-.49,0-.87-.13-1.12-.39-.27-.27-.39-.63-.39-1.12v-.43c0-.49.13-.85.39-1.12s.63-.39,1.12-.39h.32c.49,0,.87.13,1.12.39.27.27.39.63.39,1.12v.43c0,.49-.13.87-.39,1.12s-.63.39-1.12.39h-.32Z"/>
    <path class="st0" d="M808.05,315.76c.59,0,1.06.18,1.46.56s.59.84.59,1.43-.2,1.02-.59,1.4c-.39.36-.88.56-1.46.56h-10.92c-.59,0-1.06-.2-1.46-.59-.39-.39-.59-.88-.59-1.46v-19.42c0-.59.2-1.06.6-1.46s.92-.59,1.54-.59c.53,0,1.01.2,1.43.59s.62.88.62,1.46v18.12l-.74-.57h9.51v-.03Z"/>
    <path class="st0" d="M816.02,296.17h11.26c.59,0,1.06.18,1.46.56.39.36.59.84.59,1.43s-.2,1.01-.59,1.36c-.39.35-.88.52-1.46.52h-9.41l.31-.57v6.55l-.27-.27h7.87c.59,0,1.06.18,1.46.56.39.36.59.84.59,1.43s-.2,1.01-.59,1.36c-.39.35-.88.52-1.46.52h-7.76l.17-.27v6.79l-.27-.31h9.38c.59,0,1.06.2,1.46.59.39.39.59.84.59,1.36,0,.56-.2,1.02-.59,1.37-.39.36-.88.53-1.46.53h-11.26c-.59,0-1.06-.2-1.46-.59-.39-.39-.59-.88-.59-1.46v-19.42c0-.59.2-1.06.59-1.46.39-.39.88-.59,1.46-.59h-.03Z"/>
    <path class="st0" d="M841.82,301.45l-7.25,17.07c-.15.42-.39.76-.73.99-.32.24-.67.35-1.06.35-.6,0-1.05-.17-1.34-.5s-.43-.76-.43-1.25c0-.2.03-.42.1-.64l8.37-20.09c.18-.45.45-.8.83-1.04.36-.25.77-.35,1.19-.31.41,0,.78.11,1.12.35s.6.56.76.99l8.26,19.68c.11.29.17.56.17.81,0,.6-.2,1.09-.59,1.44-.39.36-.83.53-1.29.53-.41,0-.77-.13-1.09-.36-.32-.25-.57-.59-.76-1.01l-7.22-16.83.98-.2h0ZM835.6,314.41l1.85-3.86h9.07l.64,3.86h-11.56Z"/>
    <path class="st0" d="M857.06,319.69c-.63,0-1.19-.2-1.68-.59s-.74-.88-.74-1.46v-19.42c0-.59.2-1.06.59-1.46.39-.39.88-.59,1.46-.59h9.67c1.16,0,2.25.31,3.28.92,1.02.62,1.85,1.47,2.46,2.55.63,1.09.94,2.34.94,3.75,0,.85-.17,1.68-.52,2.49s-.81,1.54-1.41,2.18-1.26,1.15-2,1.51l.03-.77c.63.34,1.15.73,1.57,1.19s.74.95.98,1.48.38,1.09.42,1.69c.08.56.15,1.05.18,1.48.03.42.1.78.2,1.08s.29.52.59.67c.49.29.8.71.92,1.26.13.55,0,1.04-.39,1.46-.25.29-.56.48-.94.56-.38.08-.76.08-1.15,0-.38-.08-.7-.18-.94-.32-.38-.22-.76-.56-1.15-.99-.38-.43-.69-1.02-.92-1.76s-.35-1.69-.35-2.86c0-.38-.07-.73-.2-1.06-.14-.32-.32-.6-.57-.84s-.56-.42-.94-.53c-.38-.13-.83-.18-1.34-.18h-6.79l.5-.77v7.29c0,.59-.15,1.06-.48,1.46-.31.39-.76.59-1.32.59l.04-.03ZM858.38,307.66h7.83c.41,0,.8-.18,1.18-.56.38-.36.7-.87.94-1.51.25-.64.36-1.34.36-2.1,0-.98-.27-1.81-.78-2.46-.53-.66-1.09-.99-1.69-.99h-7.76l.41-1.08v9.51l-.48-.81h0Z"/>
    <path class="st0" d="M895.58,296.17c.53,0,.98.18,1.32.53.34.36.5.81.5,1.34v19.59c0,.59-.2,1.06-.59,1.46-.39.39-.88.59-1.46.59-.29,0-.59-.06-.9-.15-.31-.1-.53-.24-.69-.42l-13.2-16.77.87-.53v15.99c0,.53-.17.98-.52,1.34s-.8.53-1.36.53-.98-.18-1.32-.53c-.34-.36-.5-.81-.5-1.34v-19.59c0-.59.2-1.06.59-1.46.39-.39.88-.59,1.46-.59.31,0,.64.06.98.18s.59.31.74.56l12.8,16.32-.57.41v-15.6c0-.53.17-.98.5-1.34s.78-.53,1.34-.53h0Z"/>
    <path class="st0" d="M906.62,317.65c0,.59-.21,1.06-.64,1.46s-.92.59-1.48.59c-.63,0-1.13-.2-1.51-.59s-.57-.88-.57-1.46v-19.42c0-.59.2-1.06.6-1.46s.92-.59,1.54-.59c.53,0,1.01.2,1.43.59s.62.88.62,1.46v19.42h.03Z"/>
    <path class="st0" d="M929.51,296.17c.53,0,.98.18,1.32.53s.5.81.5,1.34v19.59c0,.59-.2,1.06-.59,1.46s-.88.59-1.46.59c-.29,0-.59-.06-.9-.15-.31-.1-.53-.24-.69-.42l-13.2-16.77.87-.53v15.99c0,.53-.17.98-.52,1.34s-.8.53-1.36.53-.98-.18-1.32-.53-.5-.81-.5-1.34v-19.59c0-.59.2-1.06.59-1.46.39-.39.88-.59,1.46-.59.31,0,.64.06.98.18s.59.31.74.56l12.8,16.32-.57.41v-15.6c0-.53.17-.98.5-1.34.34-.36.78-.53,1.34-.53h0Z"/>
    <path class="st0" d="M947.45,320.03c-1.71,0-3.29-.31-4.77-.94s-2.77-1.5-3.89-2.6c-1.12-1.11-2-2.39-2.63-3.85s-.95-3.02-.95-4.7.32-3.25.95-4.7,1.51-2.74,2.63-3.85,2.42-1.97,3.89-2.6c1.48-.63,3.07-.94,4.77-.94,1.05,0,2.07.11,3.05.34s1.89.56,2.72,1.01c.34.18.59.42.76.73s.25.62.25.92c0,.53-.18,1.02-.53,1.44-.36.42-.81.64-1.37.64-.18,0-.36-.03-.56-.07s-.38-.11-.56-.2c-.56-.25-1.15-.43-1.78-.57s-1.29-.2-1.99-.2c-1.46,0-2.79.36-3.98,1.09-1.2.73-2.16,1.71-2.86,2.93s-1.06,2.58-1.06,4.05.35,2.8,1.06,4.03,1.65,2.21,2.86,2.94c1.2.73,2.52,1.09,3.98,1.09.67,0,1.41-.07,2.21-.2.81-.14,1.47-.31,1.99-.53l-.31,1.01v-5.74l.57.5h-3.72c-.59,0-1.06-.2-1.46-.57-.39-.38-.59-.87-.59-1.44s.2-1.06.59-1.44c.39-.38.88-.57,1.46-.57h5.52c.59,0,1.06.2,1.44.59s.57.88.57,1.46v7.13c0,.45-.11.81-.32,1.11-.21.29-.45.53-.73.7-1.04.63-2.16,1.12-3.37,1.5-1.22.36-2.51.56-3.85.56v-.03Z"/>
    <path class="st0" d="M976.72,320.03c-1.57,0-2.98-.2-4.23-.59-1.26-.39-2.45-1.08-3.6-2.07-.29-.25-.52-.53-.67-.84s-.24-.63-.24-.94c0-.52.18-.97.56-1.36.36-.39.84-.59,1.4-.59.42,0,.81.14,1.15.41.85.7,1.69,1.22,2.53,1.58s1.88.53,3.11.53c.83,0,1.6-.13,2.28-.39s1.26-.6,1.68-1.04.64-.94.64-1.5c0-.67-.2-1.25-.6-1.71s-1.02-.87-1.85-1.19-1.88-.57-3.16-.76c-1.2-.18-2.27-.45-3.19-.83-.92-.36-1.68-.84-2.3-1.41s-1.08-1.25-1.4-2.02c-.31-.77-.48-1.64-.48-2.6,0-1.46.38-2.7,1.12-3.72.76-1.04,1.76-1.82,3.04-2.35s2.69-.81,4.23-.81c1.46,0,2.8.22,4.05.66s2.25.99,3.04,1.67c.64.52.98,1.11.98,1.78,0,.49-.2.94-.57,1.34-.38.41-.83.6-1.34.6-.34,0-.64-.1-.91-.31-.36-.31-.84-.62-1.44-.9-.6-.28-1.25-.52-1.92-.7-.67-.2-1.3-.28-1.88-.28-.97,0-1.78.13-2.44.36-.66.25-1.16.59-1.5,1.01s-.5.92-.5,1.48c0,.67.2,1.23.59,1.67.39.43.95.78,1.69,1.04s1.62.49,2.66.69c1.34.25,2.52.53,3.54.87,1.02.34,1.86.77,2.53,1.29.67.53,1.18,1.19,1.51,1.99s.5,1.76.5,2.91c0,1.46-.41,2.72-1.2,3.77-.81,1.05-1.86,1.86-3.18,2.42-1.32.56-2.73.84-4.26.84h.01Z"/>
    <path class="st0" d="M989.76,300.03c-.59,0-1.06-.18-1.46-.53s-.59-.83-.59-1.41.2-1.05.59-1.4.88-.52,1.46-.52h14.92c.59,0,1.06.18,1.46.53.39.36.59.83.59,1.41s-.2,1.05-.59,1.4c-.39.35-.88.52-1.46.52h-14.92ZM997.18,319.69c-.63,0-1.15-.2-1.54-.59s-.6-.88-.6-1.46v-19.49h4.37v19.49c0,.59-.21,1.06-.62,1.46-.42.39-.95.59-1.6.59h-.01Z"/>
    <path class="st0" d="M1017.21,301.45l-7.25,17.07c-.15.42-.41.76-.73.99-.32.24-.67.35-1.06.35-.6,0-1.05-.17-1.34-.5s-.43-.76-.43-1.25c0-.2.03-.42.1-.64l8.37-20.09c.18-.45.45-.8.83-1.04.36-.25.77-.35,1.19-.31.41,0,.78.11,1.12.35.35.24.6.56.76.99l8.26,19.68c.11.29.17.56.17.81,0,.6-.2,1.09-.59,1.44-.39.36-.83.53-1.29.53-.41,0-.77-.13-1.09-.36-.32-.25-.57-.59-.76-1.01l-7.22-16.83.98-.2h0ZM1010.99,314.41l1.85-3.86h9.07l.64,3.86h-11.56Z"/>
    <path class="st0" d="M1032.46,319.69c-.63,0-1.19-.2-1.68-.59-.49-.39-.74-.88-.74-1.46v-19.42c0-.59.2-1.06.59-1.46.39-.39.88-.59,1.46-.59h9.67c1.16,0,2.25.31,3.28.92,1.02.62,1.85,1.47,2.46,2.55.63,1.09.94,2.34.94,3.75,0,.85-.17,1.68-.52,2.49s-.81,1.54-1.41,2.18-1.26,1.15-2,1.51l.03-.77c.63.34,1.15.73,1.57,1.19.42.46.74.95.98,1.48s.38,1.09.42,1.69c.08.56.15,1.05.18,1.48.03.42.1.78.2,1.08s.29.52.59.67c.49.29.8.71.92,1.26.13.55,0,1.04-.39,1.46-.25.29-.56.48-.94.56-.38.08-.76.08-1.15,0-.38-.08-.7-.18-.94-.32-.38-.22-.76-.56-1.15-.99-.38-.43-.69-1.02-.92-1.76s-.35-1.69-.35-2.86c0-.38-.07-.73-.2-1.06-.14-.32-.32-.6-.57-.84s-.56-.42-.94-.53c-.38-.13-.83-.18-1.34-.18h-6.79l.5-.77v7.29c0,.59-.15,1.06-.48,1.46-.31.39-.76.59-1.32.59l.04-.03ZM1033.77,307.66h7.83c.41,0,.8-.18,1.18-.56.38-.36.7-.87.94-1.51s.36-1.34.36-2.1c0-.98-.27-1.81-.78-2.46s-1.09-.99-1.69-.99h-7.76l.41-1.08v9.51l-.48-.81h0Z"/>
    <path class="st0" d="M1060.68,320.03c-1.57,0-2.98-.2-4.23-.59-1.26-.39-2.45-1.08-3.6-2.07-.29-.25-.52-.53-.67-.84s-.24-.63-.24-.94c0-.52.18-.97.56-1.36.36-.39.84-.59,1.4-.59.42,0,.81.14,1.15.41.85.7,1.69,1.22,2.53,1.58s1.88.53,3.11.53c.83,0,1.6-.13,2.28-.39s1.26-.6,1.68-1.04c.42-.43.64-.94.64-1.5,0-.67-.2-1.25-.6-1.71s-1.02-.87-1.85-1.19-1.88-.57-3.16-.76c-1.2-.18-2.27-.45-3.19-.83-.92-.36-1.68-.84-2.3-1.41s-1.08-1.25-1.4-2.02c-.31-.77-.48-1.64-.48-2.6,0-1.46.38-2.7,1.12-3.72.76-1.04,1.76-1.82,3.04-2.35s2.69-.81,4.23-.81c1.46,0,2.8.22,4.05.66s2.25.99,3.04,1.67c.64.52.98,1.11.98,1.78,0,.49-.2.94-.57,1.34-.38.41-.83.6-1.34.6-.34,0-.64-.1-.91-.31-.36-.31-.84-.62-1.44-.9s-1.25-.52-1.92-.7c-.67-.2-1.3-.28-1.88-.28-.97,0-1.78.13-2.44.36-.66.25-1.16.59-1.5,1.01s-.5.92-.5,1.48c0,.67.2,1.23.59,1.67.39.43.95.78,1.69,1.04s1.62.49,2.66.69c1.34.25,2.52.53,3.54.87s1.86.77,2.53,1.29c.67.53,1.18,1.19,1.51,1.99s.5,1.76.5,2.91c0,1.46-.41,2.72-1.2,3.77-.81,1.05-1.86,1.86-3.18,2.42-1.32.56-2.73.84-4.26.84h.01Z"/>
  </g>
  <g>
    <path class="st0" d="M186.34,174.67c-.48,0-.85-.14-1.15-.45-.29-.29-.43-.66-.43-1.09v-14.56c0-.43.14-.8.43-1.09s.66-.43,1.09-.43h8.19c.43,0,.8.14,1.09.42.29.28.45.63.45,1.06,0,.36-.15.7-.45.98s-.66.43-1.09.43h-6.8l.22-.31v5.07l-.18-.32h5.61c.43,0,.8.14,1.09.42.29.28.43.63.43,1.08,0,.36-.14.7-.43.98s-.66.43-1.09.43h-5.67l.22-.22v6.1c0,.43-.15.8-.46,1.09-.31.29-.67.45-1.09.45v-.04Z"/>
    <path class="st0" d="M211.36,167.93c0,1.37-.31,2.59-.92,3.64s-1.44,1.86-2.46,2.45c-1.04.59-2.18.88-3.46.88s-2.44-.29-3.46-.88c-1.04-.59-1.86-1.4-2.46-2.45-.62-1.05-.92-2.27-.92-3.64s.31-2.59.92-3.64,1.44-1.88,2.46-2.46c1.04-.6,2.18-.9,3.46-.9s2.44.29,3.46.9c1.04.6,1.86,1.41,2.46,2.46.62,1.05.92,2.27.92,3.64ZM208.33,167.93c0-.85-.17-1.6-.52-2.23s-.81-1.12-1.39-1.47-1.22-.53-1.93-.53-1.34.18-1.93.53-1.04.84-1.39,1.47-.52,1.37-.52,2.23.17,1.57.52,2.2c.35.63.81,1.12,1.39,1.47s1.22.53,1.93.53,1.34-.18,1.93-.53,1.04-.84,1.39-1.47.52-1.36.52-2.2Z"/>
    <path class="st0" d="M215.51,174.67c-.43,0-.8-.14-1.08-.45-.28-.29-.43-.66-.43-1.09v-10.4c0-.43.14-.8.43-1.09.28-.29.64-.43,1.08-.43s.8.15,1.08.43c.28.29.43.66.43,1.09v2.37l-.18-1.69c.18-.41.42-.76.71-1.06.29-.31.63-.57.99-.78.36-.21.77-.36,1.19-.46s.84-.15,1.26-.15c.5,0,.92.14,1.27.43.35.28.52.62.52,1.01,0,.56-.14.95-.43,1.2s-.6.36-.94.36-.6-.06-.87-.18c-.27-.11-.56-.18-.9-.18-.31,0-.62.07-.92.21-.31.14-.6.36-.85.67-.27.31-.48.67-.63,1.12s-.24.97-.24,1.57v5.98c0,.43-.14.8-.43,1.09-.28.29-.64.45-1.08.45h.01Z"/>
    <path class="st0" d="M238,160.93c.95,0,1.79.1,2.51.31.71.2,1.27.48,1.67.84.39.36.59.8.59,1.3,0,.34-.1.66-.31.95-.2.29-.49.43-.88.43-.27,0-.49-.04-.67-.11s-.34-.17-.46-.29-.29-.22-.48-.32c-.17-.1-.42-.18-.77-.24s-.6-.08-.77-.08c-.85,0-1.58.18-2.18.56-.6.36-1.05.87-1.37,1.5-.32.63-.48,1.36-.48,2.18s.17,1.53.49,2.16.78,1.13,1.36,1.5c.57.36,1.25.56,2,.56.42,0,.78-.03,1.08-.07.31-.06.56-.13.76-.22.24-.14.45-.28.63-.43s.46-.22.83-.22c.43,0,.77.14,1.01.42s.35.62.35,1.02-.24.8-.7,1.15-1.09.62-1.85.83c-.77.21-1.6.31-2.48.31-1.33,0-2.48-.31-3.46-.92s-1.72-1.46-2.25-2.51c-.53-1.06-.8-2.24-.8-3.56s.28-2.59.84-3.64,1.34-1.88,2.34-2.46,2.14-.9,3.44-.9l.03-.03Z"/>
    <path class="st0" d="M252.18,160.93c1.2,0,2.13.27,2.76.78s1.06,1.22,1.3,2.09.35,1.82.35,2.88v6.45c0,.43-.14.8-.43,1.09-.28.29-.64.45-1.08.45s-.8-.14-1.08-.45c-.28-.29-.43-.66-.43-1.09v-6.45c0-.56-.07-1.05-.2-1.5-.14-.45-.38-.8-.73-1.06-.35-.27-.85-.41-1.51-.41s-1.19.14-1.64.41c-.45.27-.8.63-1.02,1.06-.22.45-.34.95-.34,1.5v6.45c0,.43-.14.8-.43,1.09-.28.29-.64.45-1.08.45s-.8-.14-1.08-.45c-.28-.29-.43-.66-.43-1.09v-15.57c0-.43.14-.8.43-1.09s.64-.45,1.08-.45.8.15,1.08.45.43.66.43,1.09v6.24l-.38-.07c.15-.28.36-.59.63-.92.27-.32.6-.63.98-.92.39-.28.81-.52,1.29-.7s.98-.27,1.54-.27h-.01Z"/>
    <path class="st0" d="M261.18,159.55c-.57,0-.98-.1-1.2-.28-.24-.18-.35-.52-.35-.98v-.48c0-.49.13-.81.39-.99s.66-.27,1.2-.27c.59,0,.99.1,1.23.28.24.18.35.52.35.98v.48c0,.49-.13.81-.38.99s-.66.27-1.23.27h-.01ZM262.72,173.13c0,.43-.14.8-.43,1.09-.28.29-.64.45-1.08.45s-.8-.14-1.08-.45c-.28-.29-.43-.66-.43-1.09v-10.4c0-.43.14-.8.43-1.09.28-.29.64-.43,1.08-.43s.8.15,1.08.43c.28.29.43.66.43,1.09v10.4Z"/>
    <path class="st0" d="M269.09,173.13c0,.43-.15.8-.45,1.09-.29.29-.66.45-1.09.45s-.77-.14-1.06-.45c-.28-.29-.43-.66-.43-1.09v-15.57c0-.43.15-.8.45-1.09s.66-.45,1.09-.45.8.15,1.06.45.42.66.42,1.09v15.57h.01Z"/>
    <path class="st0" d="M283.4,156.02c.43,0,.8.14,1.08.43s.43.66.43,1.11v15.57c0,.43-.14.8-.43,1.09-.28.29-.64.45-1.08.45s-.8-.14-1.08-.45c-.28-.29-.43-.66-.43-1.09v-1.23l.56.22c0,.22-.11.49-.35.8s-.56.62-.95.92-.88.56-1.43.77c-.55.21-1.13.31-1.78.31-1.16,0-2.21-.29-3.15-.9s-1.68-1.41-2.23-2.46c-.55-1.05-.81-2.25-.81-3.61s.27-2.59.81-3.64c.55-1.05,1.27-1.88,2.2-2.46s1.95-.9,3.08-.9c.73,0,1.39.11,1.99.32.6.22,1.13.49,1.57.83.45.34.78.67,1.04,1.02s.36.63.36.87l-.91.32v-6.75c0-.43.14-.8.43-1.09s.64-.45,1.08-.45h0ZM278.32,172.15c.74,0,1.39-.18,1.95-.56.56-.36.98-.87,1.3-1.51.31-.64.46-1.36.46-2.14s-.15-1.53-.46-2.17-.74-1.15-1.3-1.51-1.2-.56-1.95-.56-1.36.18-1.92.56c-.56.36-.99.87-1.3,1.51s-.46,1.36-.46,2.17.15,1.5.46,2.14c.31.64.74,1.15,1.3,1.51s1.19.56,1.92.56Z"/>
    <path class="st0" d="M289.7,174.67c-.43,0-.8-.14-1.08-.45-.28-.29-.43-.66-.43-1.09v-10.4c0-.43.14-.8.43-1.09.28-.29.64-.43,1.08-.43s.8.15,1.08.43c.28.29.43.66.43,1.09v2.37l-.18-1.69c.18-.41.42-.76.71-1.06.29-.31.63-.57.99-.78.36-.21.77-.36,1.19-.46s.84-.15,1.26-.15c.5,0,.92.14,1.27.43s.52.62.52,1.01c0,.56-.14.95-.43,1.2s-.6.36-.94.36-.62-.06-.87-.18c-.27-.11-.56-.18-.9-.18-.31,0-.62.07-.92.21-.31.14-.6.36-.85.67-.27.31-.48.67-.63,1.12-.15.45-.24.97-.24,1.57v5.98c0,.43-.14.8-.43,1.09-.28.29-.64.45-1.08.45h.01Z"/>
    <path class="st0" d="M304.92,174.92c-1.43,0-2.67-.29-3.72-.9s-1.86-1.4-2.42-2.44c-.56-1.02-.84-2.18-.84-3.47,0-1.51.31-2.8.92-3.86s1.41-1.89,2.41-2.45c.99-.57,2.04-.85,3.15-.85.85,0,1.67.18,2.44.53s1.44.84,2.03,1.44c.59.62,1.05,1.33,1.4,2.13s.52,1.67.52,2.58c-.01.41-.18.73-.48.98-.31.25-.66.38-1.06.38h-9.63l-.76-2.52h9.25l-.56.5v-.69c-.03-.49-.21-.92-.52-1.32s-.7-.7-1.16-.92-.95-.34-1.47-.34-.98.07-1.41.2c-.43.14-.81.36-1.13.69s-.57.74-.76,1.29c-.18.53-.28,1.22-.28,2.04,0,.91.18,1.68.57,2.31.38.63.87,1.11,1.46,1.44.6.32,1.23.49,1.9.49.62,0,1.12-.06,1.48-.15s.67-.22.9-.36c.22-.14.43-.27.62-.36.31-.15.59-.22.85-.22.36,0,.67.13.92.38.24.25.36.55.36.88,0,.45-.24.87-.7,1.23-.43.36-1.05.69-1.83.97s-1.61.42-2.45.42h0Z"/>
    <path class="st0" d="M320.65,160.93c1.25,0,2.18.27,2.83.78s1.09,1.22,1.33,2.09.36,1.82.36,2.88v6.45c0,.43-.14.8-.43,1.09-.28.29-.64.45-1.08.45s-.8-.14-1.08-.45c-.28-.29-.43-.66-.43-1.09v-6.45c0-.56-.07-1.05-.21-1.5s-.41-.8-.77-1.06c-.36-.27-.9-.41-1.58-.41s-1.25.14-1.69.41c-.46.27-.81.63-1.06,1.06-.24.45-.36.95-.36,1.5v6.45c0,.43-.14.8-.43,1.09-.28.29-.64.45-1.08.45s-.8-.14-1.08-.45c-.28-.29-.43-.66-.43-1.09v-10.4c0-.43.14-.8.43-1.09.28-.29.64-.43,1.08-.43s.8.15,1.08.43c.28.29.43.66.43,1.09v1.08l-.38-.07c.15-.28.36-.59.66-.92.28-.32.62-.63,1.01-.92s.83-.52,1.32-.7,1.02-.27,1.58-.27h0Z"/>
    <path class="st0" d="M346.55,156.02c.43,0,.8.14,1.08.43.28.28.43.66.43,1.11v15.57c0,.43-.14.8-.43,1.09-.28.29-.64.45-1.08.45s-.8-.14-1.08-.45c-.28-.29-.43-.66-.43-1.09v-1.23l.56.22c0,.22-.11.49-.35.8s-.56.62-.95.92-.88.56-1.43.77c-.55.21-1.13.31-1.78.31-1.16,0-2.21-.29-3.15-.9s-1.68-1.41-2.23-2.46-.81-2.25-.81-3.61.28-2.59.81-3.64,1.29-1.88,2.21-2.46,1.95-.9,3.08-.9c.73,0,1.39.11,1.99.32.6.22,1.13.49,1.57.83.45.34.78.67,1.04,1.02s.36.63.36.87l-.91.32v-6.75c0-.43.14-.8.43-1.09s.64-.45,1.08-.45h-.01ZM341.47,172.15c.74,0,1.39-.18,1.95-.56.56-.36.99-.87,1.3-1.51s.46-1.36.46-2.14-.15-1.53-.46-2.17-.74-1.15-1.3-1.51-1.2-.56-1.95-.56-1.36.18-1.92.56c-.56.36-.99.87-1.3,1.51s-.46,1.36-.46,2.17.15,1.5.46,2.14c.31.64.74,1.15,1.3,1.51s1.19.56,1.92.56Z"/>
    <path class="st0" d="M364.42,167.93c0,1.37-.31,2.59-.92,3.64s-1.44,1.86-2.46,2.45-2.18.88-3.46.88-2.44-.29-3.47-.88-1.86-1.4-2.46-2.45c-.62-1.05-.92-2.27-.92-3.64s.31-2.59.92-3.64,1.44-1.88,2.46-2.46,2.18-.9,3.47-.9,2.44.29,3.46.9,1.86,1.41,2.46,2.46c.62,1.05.92,2.27.92,3.64ZM361.39,167.93c0-.85-.17-1.6-.52-2.23s-.81-1.12-1.39-1.47-1.22-.53-1.93-.53-1.34.18-1.93.53c-.57.35-1.04.84-1.39,1.47s-.52,1.37-.52,2.23.17,1.57.52,2.2c.35.63.81,1.12,1.39,1.47s1.22.53,1.93.53,1.34-.18,1.93-.53,1.04-.84,1.39-1.47.52-1.36.52-2.2Z"/>
    <path class="st0" d="M368.38,159.55c-.57,0-.98-.1-1.2-.28s-.35-.52-.35-.98v-.48c0-.49.13-.81.39-.99s.66-.27,1.19-.27c.59,0,.99.1,1.23.28.24.18.35.52.35.98v.48c0,.49-.13.81-.38.99s-.66.27-1.23.27h0ZM369.92,173.13c0,.43-.14.8-.43,1.09-.28.29-.64.45-1.08.45s-.8-.14-1.08-.45c-.28-.29-.43-.66-.43-1.09v-10.4c0-.43.14-.8.43-1.09.28-.29.64-.43,1.08-.43s.8.15,1.08.43c.28.29.43.66.43,1.09v10.4Z"/>
    <path class="st0" d="M380.22,160.93c1.25,0,2.18.27,2.83.78s1.09,1.22,1.33,2.09.36,1.82.36,2.88v6.45c0,.43-.14.8-.43,1.09-.28.29-.64.45-1.08.45s-.8-.14-1.08-.45c-.28-.29-.43-.66-.43-1.09v-6.45c0-.56-.07-1.05-.21-1.5s-.41-.8-.77-1.06c-.36-.27-.9-.41-1.58-.41s-1.25.14-1.69.41c-.46.27-.81.63-1.06,1.06-.24.45-.36.95-.36,1.5v6.45c0,.43-.14.8-.43,1.09-.28.29-.64.45-1.08.45s-.8-.14-1.08-.45c-.28-.29-.43-.66-.43-1.09v-10.4c0-.43.14-.8.43-1.09.28-.29.64-.43,1.08-.43s.8.15,1.08.43c.28.29.43.66.43,1.09v1.08l-.38-.07c.15-.28.36-.59.66-.92.28-.32.62-.63,1.01-.92s.83-.52,1.32-.7,1.02-.27,1.58-.27h0Z"/>
    <path class="st0" d="M393.64,160.93c.7,0,1.36.11,1.95.32.59.22,1.09.49,1.53.83.43.34.77.67,1.01,1.02s.36.63.36.87l-.66.32v-1.83c0-.43.14-.8.43-1.09s.64-.43,1.08-.43.8.14,1.08.43.43.66.43,1.11v11.21c0,1.46-.31,2.63-.94,3.51-.63.88-1.46,1.53-2.48,1.92-1.02.39-2.13.59-3.3.59-.34,0-.77-.04-1.32-.13-.53-.08-1.05-.18-1.54-.31s-.85-.22-1.11-.32c-.5-.22-.85-.49-1.05-.81s-.24-.67-.11-1.05c.15-.49.39-.81.73-.99s.69-.2,1.06-.06c.17.06.45.15.83.31.39.15.81.29,1.27.42.46.13.87.18,1.22.18,1.26,0,2.2-.25,2.8-.76s.91-1.2.91-2.09v-2.2l.31.22c0,.22-.11.49-.34.8s-.53.62-.94.92c-.39.31-.87.56-1.4.77-.53.21-1.11.31-1.71.31-1.19,0-2.27-.29-3.22-.9s-1.71-1.41-2.27-2.46-.83-2.25-.83-3.61.28-2.59.83-3.64c.56-1.05,1.3-1.88,2.24-2.46.94-.6,1.99-.9,3.15-.9v-.03ZM394.11,163.71c-.76,0-1.41.18-1.99.56-.57.36-1.02.87-1.33,1.51-.32.64-.48,1.36-.48,2.17s.15,1.5.48,2.14c.32.64.77,1.15,1.33,1.51.57.36,1.23.56,1.99.56s1.44-.18,2.02-.56c.57-.36,1.02-.87,1.33-1.51.32-.64.48-1.36.48-2.14s-.15-1.53-.48-2.17-.77-1.15-1.33-1.51c-.57-.36-1.25-.56-2.02-.56Z"/>
    <path class="st0" d="M426.69,161.19c.39,0,.73.15,1.01.43.28.29.43.67.43,1.12,0,.11,0,.22-.03.31-.01.1-.04.18-.07.27l-3.85,10.39c-.11.34-.32.59-.63.77s-.62.24-.95.18c-.57-.03-.99-.35-1.29-.95l-2.49-7.18.66.03-2.34,7.15c-.28.6-.71.92-1.29.95-.32.06-.63,0-.94-.18s-.53-.43-.64-.77l-3.85-10.39c-.07-.18-.1-.38-.1-.57,0-.41.14-.77.41-1.08.27-.32.64-.48,1.11-.48.32,0,.6.07.85.22s.43.39.53.73l3.05,8.26-.63-.06,2.3-6.23c.27-.62.73-.94,1.39-.94.36,0,.64.08.84.24s.35.39.46.69l2.3,6.23-.76.1,3.09-8.32c.2-.64.69-.95,1.46-.95l-.03.03Z"/>
    <path class="st0" d="M436.87,174.92c-1.43,0-2.67-.29-3.72-.9s-1.86-1.4-2.42-2.44c-.56-1.02-.84-2.18-.84-3.47,0-1.51.31-2.8.92-3.86s1.41-1.89,2.41-2.45c.99-.57,2.04-.85,3.15-.85.85,0,1.67.18,2.44.53s1.44.84,2.03,1.44c.59.62,1.05,1.33,1.4,2.13s.52,1.67.52,2.58c-.01.41-.18.73-.48.98s-.66.38-1.06.38h-9.63l-.76-2.52h9.25l-.56.5v-.69c-.03-.49-.21-.92-.52-1.32s-.7-.7-1.16-.92-.95-.34-1.47-.34-.98.07-1.41.2c-.43.14-.81.36-1.13.69-.32.32-.57.74-.76,1.29-.18.53-.28,1.22-.28,2.04,0,.91.18,1.68.56,2.31s.87,1.11,1.46,1.44c.6.32,1.23.49,1.9.49.62,0,1.12-.06,1.48-.15s.67-.22.9-.36.43-.27.62-.36c.31-.15.59-.22.85-.22.36,0,.67.13.92.38.24.25.36.55.36.88,0,.45-.24.87-.7,1.23-.43.36-1.05.69-1.83.97s-1.61.42-2.45.42h.01Z"/>
    <path class="st0" d="M448.67,173.13c0,.43-.15.8-.45,1.09-.29.29-.66.45-1.09.45s-.77-.14-1.06-.45c-.28-.29-.43-.66-.43-1.09v-15.57c0-.43.15-.8.45-1.09s.66-.45,1.09-.45.8.15,1.06.45.42.66.42,1.09v15.57h.01Z"/>
    <path class="st0" d="M455.47,173.13c0,.43-.14.8-.43,1.09-.29.29-.66.45-1.09.45s-.77-.14-1.06-.45c-.28-.29-.43-.66-.43-1.09v-15.57c0-.43.14-.8.43-1.09s.66-.45,1.09-.45.8.15,1.06.45c.28.29.42.66.42,1.09v15.57h.01Z"/>
    <path class="st0" d="M195.54,202.93c.43,0,.8.14,1.08.43s.43.66.43,1.11v10.65c0,.43-.14.8-.43,1.09-.28.29-.64.45-1.08.45s-.8-.14-1.08-.45c-.28-.29-.43-.66-.43-1.09v-1.23l.56.22c0,.22-.11.49-.35.8s-.56.62-.95.92-.88.56-1.43.77c-.55.21-1.13.31-1.78.31-1.16,0-2.21-.29-3.15-.9s-1.68-1.41-2.23-2.46-.81-2.25-.81-3.61.27-2.59.81-3.64,1.27-1.88,2.2-2.46,1.95-.9,3.08-.9c.73,0,1.39.11,1.99.32.6.22,1.13.49,1.57.83.45.34.78.67,1.04,1.02s.36.63.36.87l-.91.32v-1.83c0-.43.14-.8.43-1.09s.64-.43,1.08-.43h0ZM190.44,214.15c.74,0,1.39-.18,1.95-.56.56-.36.98-.87,1.3-1.51.31-.64.46-1.36.46-2.14s-.15-1.53-.46-2.17-.74-1.15-1.3-1.51-1.2-.56-1.95-.56-1.36.18-1.92.56c-.56.36-.99.87-1.3,1.51s-.46,1.36-.46,2.17.15,1.5.46,2.14c.31.64.74,1.15,1.3,1.51s1.19.56,1.92.56Z"/>
    <path class="st0" d="M200.48,203.44h5.98c.41,0,.74.14,1.01.41.27.27.41.6.41,1.01s-.14.71-.41.97c-.27.27-.6.39-1.01.39h-5.98c-.41,0-.74-.14-1.01-.41-.27-.27-.41-.6-.41-1.01s.14-.71.41-.97c.27-.27.6-.39,1.01-.39ZM203.17,200.29c.43,0,.8.15,1.08.45s.42.66.42,1.09v11.21c0,.24.04.43.14.57.1.15.22.27.38.32.15.07.34.1.52.1.2,0,.39-.04.56-.11s.36-.11.57-.11c.24,0,.45.11.64.32.2.22.29.52.29.91,0,.48-.25.85-.77,1.16-.52.31-1.06.45-1.65.45-.35,0-.74-.03-1.18-.08s-.83-.2-1.2-.43c-.38-.22-.69-.57-.94-1.05s-.38-1.12-.38-1.95v-11.34c0-.43.14-.8.43-1.09s.66-.45,1.09-.45v.03Z"/>
    <path class="st0" d="M216.9,214.58c-.17-.24-.24-.53-.22-.91.01-.36.24-.69.66-.95.27-.17.56-.24.85-.21.31.03.6.18.88.46.49.49.99.87,1.54,1.13.53.27,1.2.41,2.02.41.25-.01.53-.06.83-.11s.56-.2.8-.41.34-.53.34-.97c0-.36-.13-.66-.38-.88s-.59-.41-.99-.56c-.41-.15-.87-.29-1.37-.43-.52-.15-1.05-.32-1.6-.5s-1.05-.42-1.5-.71c-.45-.29-.83-.69-1.11-1.18-.28-.49-.43-1.11-.43-1.83,0-.84.24-1.55.7-2.14s1.08-1.04,1.82-1.36,1.53-.48,2.35-.48c.52,0,1.06.06,1.64.18.57.13,1.12.32,1.64.6.52.28.95.64,1.32,1.09.18.25.29.56.32.91.03.35-.13.67-.48.95-.25.2-.55.29-.88.27s-.62-.14-.83-.34c-.28-.36-.67-.66-1.15-.88s-1.02-.32-1.65-.32c-.25,0-.53.03-.81.08-.29.06-.55.18-.77.38s-.32.5-.32.92c0,.39.13.7.38.92.25.22.59.41,1.02.56.43.14.88.28,1.37.42.5.14,1.02.29,1.54.48.52.18.99.43,1.44.73.43.31.78.7,1.06,1.18.27.48.41,1.09.41,1.82,0,.85-.25,1.58-.76,2.2-.5.6-1.13,1.06-1.89,1.37s-1.53.46-2.32.46c-.99,0-1.99-.17-2.97-.52-.99-.35-1.82-.95-2.46-1.82h-.03Z"/>
    <path class="st0" d="M235.83,202.93c.95,0,1.79.1,2.51.31.71.2,1.27.48,1.67.84.39.36.59.8.59,1.3,0,.34-.1.66-.31.95-.2.29-.49.43-.88.43-.27,0-.49-.04-.67-.11s-.34-.17-.46-.29c-.14-.11-.29-.22-.48-.32-.17-.1-.42-.18-.77-.24s-.6-.08-.77-.08c-.85,0-1.58.18-2.18.56-.6.36-1.05.87-1.37,1.5s-.48,1.36-.48,2.18.17,1.53.49,2.16.78,1.13,1.36,1.5c.57.36,1.25.56,2,.56.42,0,.78-.03,1.08-.07.31-.06.56-.13.76-.22.24-.14.45-.28.63-.43s.46-.22.83-.22c.43,0,.77.14,1.01.42s.35.62.35,1.02-.24.8-.7,1.15-1.09.62-1.85.83c-.77.21-1.6.31-2.48.31-1.33,0-2.48-.31-3.46-.92s-1.72-1.46-2.25-2.51c-.53-1.06-.8-2.24-.8-3.56s.28-2.59.84-3.64,1.34-1.88,2.34-2.46c.99-.6,2.14-.9,3.44-.9l.03-.03Z"/>
    <path class="st0" d="M250.01,202.93c1.2,0,2.13.27,2.76.78s1.06,1.22,1.3,2.09.35,1.82.35,2.88v6.45c0,.43-.14.8-.43,1.09-.28.29-.64.45-1.08.45s-.8-.14-1.08-.45c-.28-.29-.43-.66-.43-1.09v-6.45c0-.56-.07-1.05-.2-1.5-.14-.45-.38-.8-.73-1.06-.35-.27-.85-.41-1.51-.41s-1.19.14-1.64.41c-.45.27-.8.63-1.02,1.06-.22.45-.34.95-.34,1.5v6.45c0,.43-.14.8-.43,1.09-.28.29-.64.45-1.08.45s-.8-.14-1.08-.45c-.28-.29-.43-.66-.43-1.09v-15.57c0-.43.14-.8.43-1.09.28-.29.64-.45,1.08-.45s.8.15,1.08.45.43.66.43,1.09v6.24l-.38-.07c.15-.28.36-.59.63-.92.27-.32.6-.63.98-.92.39-.28.81-.52,1.29-.7s.98-.27,1.54-.27h-.01Z"/>
    <path class="st0" d="M270.79,209.93c0,1.37-.31,2.59-.92,3.64s-1.44,1.86-2.46,2.45c-1.04.59-2.18.88-3.46.88s-2.44-.29-3.46-.88c-1.04-.59-1.86-1.4-2.46-2.45-.62-1.05-.92-2.27-.92-3.64s.31-2.59.92-3.64,1.44-1.88,2.46-2.46c1.04-.6,2.18-.9,3.46-.9s2.44.29,3.46.9c1.04.6,1.86,1.41,2.46,2.46.62,1.05.92,2.27.92,3.64ZM267.75,209.93c0-.85-.17-1.6-.52-2.23s-.81-1.12-1.39-1.47-1.22-.53-1.93-.53-1.34.18-1.93.53-1.04.84-1.39,1.47-.52,1.37-.52,2.23.17,1.57.52,2.2c.35.63.81,1.12,1.39,1.47s1.22.53,1.93.53,1.34-.18,1.93-.53,1.04-.84,1.39-1.47.52-1.36.52-2.2Z"/>
    <path class="st0" d="M286.51,209.93c0,1.37-.31,2.59-.92,3.64s-1.44,1.86-2.46,2.45-2.18.88-3.46.88-2.44-.29-3.47-.88-1.86-1.4-2.46-2.45c-.62-1.05-.92-2.27-.92-3.64s.31-2.59.92-3.64,1.44-1.88,2.46-2.46,2.18-.9,3.47-.9,2.44.29,3.46.9,1.86,1.41,2.46,2.46c.62,1.05.92,2.27.92,3.64ZM283.48,209.93c0-.85-.17-1.6-.52-2.23s-.81-1.12-1.39-1.47-1.22-.53-1.93-.53-1.34.18-1.93.53c-.57.35-1.04.84-1.39,1.47s-.52,1.37-.52,2.23.17,1.57.52,2.2c.35.63.81,1.12,1.39,1.47s1.22.53,1.93.53,1.34-.18,1.93-.53,1.04-.84,1.39-1.47.52-1.36.52-2.2Z"/>
    <path class="st0" d="M292.43,215.13c0,.43-.14.8-.43,1.09-.29.29-.66.45-1.09.45s-.77-.14-1.06-.45c-.28-.29-.43-.66-.43-1.09v-15.57c0-.43.14-.8.43-1.09s.66-.45,1.09-.45.8.15,1.06.45c.28.29.42.66.42,1.09v15.57h.01Z"/>
    <path class="st0" d="M314.05,202.93c.43,0,.8.14,1.08.43.28.28.43.66.43,1.11v10.65c0,.43-.14.8-.43,1.09-.28.29-.64.45-1.08.45s-.8-.14-1.08-.45c-.28-.29-.43-.66-.43-1.09v-1.23l.56.22c0,.22-.11.49-.35.8s-.56.62-.95.92-.88.56-1.43.77c-.55.21-1.13.31-1.78.31-1.16,0-2.21-.29-3.15-.9s-1.68-1.41-2.23-2.46-.81-2.25-.81-3.61.28-2.59.81-3.64,1.29-1.88,2.21-2.46,1.95-.9,3.08-.9c.73,0,1.39.11,1.99.32.6.22,1.13.49,1.57.83.45.34.78.67,1.04,1.02s.36.63.36.87l-.91.32v-1.83c0-.43.14-.8.43-1.09s.64-.43,1.08-.43h-.01ZM308.95,214.15c.74,0,1.39-.18,1.95-.56.56-.36.99-.87,1.3-1.51s.46-1.36.46-2.14-.15-1.53-.46-2.17-.74-1.15-1.3-1.51-1.2-.56-1.95-.56-1.36.18-1.92.56c-.56.36-.99.87-1.3,1.51s-.46,1.36-.46,2.17.15,1.5.46,2.14c.31.64.74,1.15,1.3,1.51s1.19.56,1.92.56Z"/>
    <path class="st0" d="M326.04,202.93c1.25,0,2.18.27,2.84.78s1.09,1.22,1.33,2.09.36,1.82.36,2.88v6.45c0,.43-.14.8-.43,1.09-.28.29-.64.45-1.08.45s-.8-.14-1.08-.45c-.28-.29-.43-.66-.43-1.09v-6.45c0-.56-.07-1.05-.21-1.5s-.41-.8-.77-1.06c-.36-.27-.9-.41-1.58-.41s-1.23.14-1.69.41c-.46.27-.81.63-1.06,1.06-.24.45-.36.95-.36,1.5v6.45c0,.43-.14.8-.43,1.09-.28.29-.64.45-1.08.45s-.8-.14-1.08-.45c-.28-.29-.43-.66-.43-1.09v-10.4c0-.43.14-.8.43-1.09.28-.29.64-.43,1.08-.43s.8.15,1.08.43c.28.29.43.66.43,1.09v1.08l-.38-.07c.15-.28.36-.59.66-.92.28-.32.62-.63,1.01-.92.39-.28.83-.52,1.32-.7s1.02-.27,1.58-.27h-.01Z"/>
    <path class="st0" d="M344.89,198.02c.43,0,.8.14,1.08.43s.43.66.43,1.11v15.57c0,.43-.14.8-.43,1.09-.28.29-.64.45-1.08.45s-.8-.14-1.08-.45c-.28-.29-.43-.66-.43-1.09v-1.23l.56.22c0,.22-.11.49-.35.8s-.56.62-.95.92-.88.56-1.43.77c-.55.21-1.13.31-1.78.31-1.16,0-2.21-.29-3.15-.9s-1.68-1.41-2.23-2.46c-.55-1.05-.81-2.25-.81-3.61s.27-2.59.81-3.64c.55-1.05,1.27-1.88,2.2-2.46s1.95-.9,3.08-.9c.73,0,1.39.11,1.99.32.6.22,1.13.49,1.57.83.45.34.78.67,1.04,1.02s.36.63.36.87l-.91.32v-6.75c0-.43.14-.8.43-1.09s.64-.45,1.08-.45h0ZM339.81,214.15c.74,0,1.39-.18,1.95-.56.56-.36.98-.87,1.3-1.51.31-.64.46-1.36.46-2.14s-.15-1.53-.46-2.17-.74-1.15-1.3-1.51-1.2-.56-1.95-.56-1.36.18-1.92.56c-.56.36-.99.87-1.3,1.51s-.46,1.36-.46,2.17.15,1.5.46,2.14c.31.64.74,1.15,1.3,1.51s1.19.56,1.92.56Z"/>
    <path class="st0" d="M358.24,216.67c-.43,0-.8-.14-1.08-.45-.28-.29-.43-.66-.43-1.09v-10.4c0-.43.14-.8.43-1.09.28-.29.64-.43,1.08-.43s.8.15,1.08.43c.28.29.43.66.43,1.09v2.37l-.18-1.69c.18-.41.42-.76.71-1.06.29-.31.63-.57.99-.78.36-.21.77-.36,1.19-.46s.84-.15,1.26-.15c.5,0,.92.14,1.27.43s.52.62.52,1.01c0,.56-.14.95-.43,1.2s-.6.36-.94.36-.62-.06-.87-.18c-.27-.11-.56-.18-.9-.18-.31,0-.62.07-.92.21-.31.14-.6.36-.85.67-.27.31-.48.67-.63,1.12-.15.45-.24.97-.24,1.57v5.98c0,.43-.14.8-.43,1.09-.28.29-.64.45-1.08.45h.01Z"/>
    <path class="st0" d="M373.46,216.92c-1.43,0-2.67-.29-3.72-.9s-1.86-1.4-2.42-2.44c-.56-1.02-.84-2.18-.84-3.47,0-1.51.31-2.8.92-3.86s1.41-1.89,2.41-2.45c.99-.57,2.04-.85,3.15-.85.85,0,1.67.18,2.44.53s1.44.84,2.03,1.44c.59.62,1.05,1.33,1.4,2.13s.52,1.67.52,2.58c-.01.41-.18.73-.48.98-.31.25-.66.38-1.06.38h-9.63l-.76-2.52h9.25l-.56.5v-.69c-.03-.49-.21-.92-.52-1.32s-.7-.7-1.16-.92-.95-.34-1.47-.34-.98.07-1.41.2c-.43.14-.81.36-1.13.69s-.57.74-.76,1.29c-.18.53-.28,1.22-.28,2.04,0,.91.18,1.68.57,2.31.38.63.87,1.11,1.46,1.44.6.32,1.23.49,1.9.49.62,0,1.12-.06,1.48-.15s.67-.22.9-.36c.22-.14.43-.27.62-.36.31-.15.59-.22.85-.22.36,0,.67.13.92.38.24.25.36.55.36.88,0,.45-.24.87-.7,1.23-.43.36-1.05.69-1.83.97s-1.61.42-2.45.42h0Z"/>
    <path class="st0" d="M393.12,202.93c.43,0,.8.14,1.08.43s.43.66.43,1.11v10.65c0,.43-.14.8-.43,1.09-.28.29-.64.45-1.08.45s-.8-.14-1.08-.45c-.28-.29-.43-.66-.43-1.09v-1.23l.56.22c0,.22-.11.49-.35.8s-.56.62-.95.92-.88.56-1.43.77c-.55.21-1.13.31-1.78.31-1.16,0-2.21-.29-3.15-.9s-1.68-1.41-2.23-2.46c-.55-1.05-.81-2.25-.81-3.61s.27-2.59.81-3.64c.55-1.05,1.27-1.88,2.2-2.46s1.95-.9,3.08-.9c.73,0,1.39.11,1.99.32.6.22,1.13.49,1.57.83.45.34.78.67,1.04,1.02s.36.63.36.87l-.91.32v-1.83c0-.43.14-.8.43-1.09s.64-.43,1.08-.43h0ZM388.04,214.15c.74,0,1.39-.18,1.95-.56.56-.36.98-.87,1.3-1.51.31-.64.46-1.36.46-2.14s-.15-1.53-.46-2.17-.74-1.15-1.3-1.51-1.2-.56-1.95-.56-1.36.18-1.92.56c-.56.36-.99.87-1.3,1.51s-.46,1.36-.46,2.17.15,1.5.46,2.14c.31.64.74,1.15,1.3,1.51s1.19.56,1.92.56Z"/>
    <path class="st0" d="M408.95,198.02c.43,0,.8.14,1.08.43s.43.66.43,1.11v15.57c0,.43-.14.8-.43,1.09-.28.29-.64.45-1.08.45s-.8-.14-1.08-.45c-.28-.29-.43-.66-.43-1.09v-1.23l.56.22c0,.22-.11.49-.35.8s-.56.62-.95.92-.88.56-1.43.77c-.55.21-1.13.31-1.78.31-1.16,0-2.21-.29-3.15-.9s-1.68-1.41-2.23-2.46c-.55-1.05-.81-2.25-.81-3.61s.27-2.59.81-3.64c.55-1.05,1.27-1.88,2.2-2.46s1.95-.9,3.08-.9c.73,0,1.39.11,1.99.32.6.22,1.13.49,1.57.83.45.34.78.67,1.04,1.02s.36.63.36.87l-.91.32v-6.75c0-.43.14-.8.43-1.09s.64-.45,1.08-.45h0ZM403.86,214.15c.74,0,1.39-.18,1.95-.56.56-.36.98-.87,1.3-1.51.31-.64.46-1.36.46-2.14s-.15-1.53-.46-2.17-.74-1.15-1.3-1.51-1.2-.56-1.95-.56-1.36.18-1.92.56c-.56.36-.99.87-1.3,1.51s-.46,1.36-.46,2.17.15,1.5.46,2.14c.31.64.74,1.15,1.3,1.51s1.19.56,1.92.56Z"/>
    <path class="st0" d="M423.74,203.19c.43,0,.8.15,1.08.43.28.29.43.66.43,1.09v10.71c0,1.54-.29,2.77-.87,3.7s-1.36,1.57-2.34,1.97c-.98.41-2.07.6-3.28.6-.53,0-1.11-.04-1.71-.13s-1.11-.21-1.48-.38c-.5-.22-.85-.49-1.05-.81s-.24-.67-.11-1.05c.15-.49.39-.81.73-.99s.69-.2,1.06-.06c.27.08.62.21,1.06.39.43.18.94.27,1.51.27.77,0,1.41-.11,1.93-.32s.9-.56,1.16-1.06c.27-.49.39-1.18.39-2.03v-1.69l.53.6c-.28.56-.64,1.01-1.06,1.37-.43.36-.94.63-1.53.81-.59.18-1.26.28-2.02.28-.9,0-1.67-.21-2.34-.62-.66-.41-1.18-.98-1.55-1.71-.36-.73-.56-1.57-.56-2.51v-7.36c0-.43.14-.8.43-1.09.28-.29.64-.43,1.08-.43s.8.15,1.08.43c.28.29.43.66.43,1.09v6.45c0,1.09.24,1.86.71,2.31.48.45,1.15.67,2,.67.59,0,1.08-.11,1.48-.34s.71-.56.94-1.01.32-.99.32-1.62v-6.45c0-.43.14-.8.43-1.09.28-.29.64-.43,1.08-.43h0Z"/>
    <path class="st0" d="M191.7,245.44c.41,0,.74.13,1.01.39s.41.59.41.99-.14.74-.41.99c-.27.27-.6.39-1.01.39h-6.68c-.41,0-.74-.13-1.01-.39s-.41-.59-.41-.99.14-.73.41-.99c.27-.27.6-.39,1.01-.39h6.68ZM191.42,240.02c.36,0,.73.06,1.08.15s.64.27.88.49.35.53.35.9c0,.42-.13.76-.36.99-.24.24-.53.36-.84.36-.15,0-.38-.04-.69-.11s-.6-.11-.88-.11c-.42,0-.74.1-.97.28s-.38.41-.46.64c-.08.24-.13.46-.13.64v12.88c0,.43-.14.8-.43,1.09-.28.29-.64.45-1.08.45s-.8-.14-1.08-.45c-.28-.29-.43-.66-.43-1.09v-12.85c0-1.19.42-2.2,1.26-3.02.84-.83,2.1-1.23,3.78-1.23h0Z"/>
    <path class="st0" d="M207.83,251.93c0,1.37-.31,2.59-.92,3.64s-1.44,1.86-2.46,2.45-2.18.88-3.46.88-2.44-.29-3.47-.88-1.86-1.4-2.46-2.45c-.62-1.05-.92-2.27-.92-3.64s.31-2.59.92-3.64,1.44-1.88,2.46-2.46,2.18-.9,3.47-.9,2.44.29,3.46.9,1.86,1.41,2.46,2.46c.62,1.05.92,2.27.92,3.64ZM204.8,251.93c0-.85-.17-1.6-.52-2.23s-.81-1.12-1.39-1.47-1.22-.53-1.93-.53-1.34.18-1.93.53c-.57.35-1.04.84-1.39,1.47s-.52,1.37-.52,2.23.17,1.57.52,2.2c.35.63.81,1.12,1.39,1.47s1.22.53,1.93.53,1.34-.18,1.93-.53,1.04-.84,1.39-1.47.52-1.36.52-2.2Z"/>
    <path class="st0" d="M211.99,258.67c-.43,0-.8-.14-1.08-.45-.28-.29-.43-.66-.43-1.09v-10.4c0-.43.14-.8.43-1.09.28-.29.64-.43,1.08-.43s.8.15,1.08.43c.28.29.43.66.43,1.09v2.37l-.18-1.69c.18-.41.42-.76.71-1.06.29-.31.63-.57.99-.78.36-.21.77-.36,1.19-.46s.84-.15,1.26-.15c.5,0,.92.14,1.27.43s.52.62.52,1.01c0,.56-.14.95-.43,1.2s-.6.36-.94.36-.62-.06-.87-.18c-.27-.11-.56-.18-.9-.18-.31,0-.62.07-.92.21-.31.14-.6.36-.85.67-.27.31-.48.67-.63,1.12s-.24.97-.24,1.57v5.98c0,.43-.14.8-.43,1.09-.28.29-.64.45-1.08.45h.01Z"/>
    <path class="st0" d="M235.55,244.93c1.34,0,2.34.32,2.97.97s1.06,1.48,1.26,2.51l-.43-.22.2-.41c.2-.39.52-.8.94-1.25.42-.45.92-.83,1.53-1.13s1.26-.46,2-.46c1.2,0,2.13.27,2.76.78s1.06,1.22,1.3,2.09.35,1.82.35,2.88v6.45c0,.43-.14.8-.43,1.09-.28.29-.64.45-1.08.45s-.8-.14-1.08-.45c-.28-.29-.43-.66-.43-1.09v-6.45c0-.56-.07-1.05-.2-1.5-.14-.45-.38-.8-.73-1.06-.35-.27-.85-.41-1.51-.41s-1.19.14-1.64.41c-.45.27-.8.63-1.02,1.06-.22.45-.34.95-.34,1.5v6.45c0,.43-.14.8-.43,1.09-.28.29-.64.45-1.08.45s-.8-.14-1.08-.45c-.28-.29-.43-.66-.43-1.09v-6.45c0-.56-.07-1.05-.2-1.5-.14-.45-.38-.8-.73-1.06-.35-.27-.85-.41-1.51-.41s-1.19.14-1.64.41c-.45.27-.8.63-1.02,1.06-.22.45-.34.95-.34,1.5v6.45c0,.43-.14.8-.43,1.09-.28.29-.64.45-1.08.45s-.8-.14-1.08-.45c-.28-.29-.43-.66-.43-1.09v-10.4c0-.43.14-.8.43-1.09.28-.29.64-.43,1.08-.43s.8.15,1.08.43c.28.29.43.66.43,1.09v1.08l-.38-.07c.15-.28.36-.59.63-.92.27-.32.6-.63.98-.92.39-.28.81-.52,1.29-.7s.98-.27,1.54-.27h-.01Z"/>
    <path class="st0" d="M264.78,251.93c0,1.37-.31,2.59-.92,3.64s-1.44,1.86-2.46,2.45-2.18.88-3.46.88-2.44-.29-3.47-.88-1.86-1.4-2.46-2.45c-.62-1.05-.92-2.27-.92-3.64s.31-2.59.92-3.64,1.44-1.88,2.46-2.46,2.18-.9,3.47-.9,2.44.29,3.46.9,1.86,1.41,2.46,2.46c.62,1.05.92,2.27.92,3.64ZM261.76,251.93c0-.85-.17-1.6-.52-2.23s-.81-1.12-1.39-1.47-1.22-.53-1.93-.53-1.34.18-1.93.53c-.57.35-1.04.84-1.39,1.47s-.52,1.37-.52,2.23.17,1.57.52,2.2c.35.63.81,1.12,1.39,1.47s1.22.53,1.93.53,1.34-.18,1.93-.53,1.04-.84,1.39-1.47.52-1.36.52-2.2Z"/>
    <path class="st0" d="M268.94,258.67c-.43,0-.8-.14-1.08-.45-.28-.29-.43-.66-.43-1.09v-10.4c0-.43.14-.8.43-1.09.28-.29.64-.43,1.08-.43s.8.15,1.08.43c.28.29.43.66.43,1.09v2.37l-.18-1.69c.18-.41.42-.76.71-1.06.29-.31.63-.57.99-.78.36-.21.77-.36,1.19-.46s.84-.15,1.26-.15c.5,0,.92.14,1.27.43s.52.62.52,1.01c0,.56-.14.95-.43,1.2s-.6.36-.94.36-.62-.06-.87-.18c-.27-.11-.56-.18-.9-.18-.31,0-.62.07-.92.21-.31.14-.6.36-.85.67-.27.31-.48.67-.63,1.12-.15.45-.24.97-.24,1.57v5.98c0,.43-.14.8-.43,1.09-.28.29-.64.45-1.08.45h.01Z"/>
    <path class="st0" d="M284.16,258.92c-1.43,0-2.67-.29-3.72-.9s-1.86-1.4-2.42-2.44c-.56-1.02-.84-2.18-.84-3.47,0-1.51.31-2.8.92-3.86s1.41-1.89,2.41-2.45c.99-.57,2.04-.85,3.15-.85.85,0,1.67.18,2.44.53s1.44.84,2.03,1.44c.59.62,1.05,1.33,1.4,2.13s.52,1.67.52,2.58c-.01.41-.18.73-.48.98s-.66.38-1.06.38h-9.63l-.76-2.52h9.25l-.56.5v-.69c-.03-.49-.21-.92-.52-1.32s-.7-.7-1.16-.92-.95-.34-1.47-.34-.98.07-1.41.2c-.43.14-.81.36-1.13.69-.32.32-.57.74-.76,1.29-.18.53-.28,1.22-.28,2.04,0,.91.18,1.68.56,2.31s.87,1.11,1.46,1.44c.6.32,1.23.49,1.9.49.62,0,1.12-.06,1.48-.15s.67-.22.9-.36.43-.27.62-.36c.31-.15.59-.22.85-.22.36,0,.67.13.92.38.24.25.36.55.36.88,0,.45-.24.87-.7,1.23-.43.36-1.05.69-1.83.97s-1.61.42-2.45.42h.01Z"/>
    <path class="st0" d="M299.89,245.44h5.98c.41,0,.74.14,1.01.41.27.27.41.6.41,1.01s-.14.71-.41.97c-.27.27-.6.39-1.01.39h-5.98c-.41,0-.74-.14-1.01-.41s-.41-.6-.41-1.01.14-.71.41-.97c.27-.27.6-.39,1.01-.39ZM302.58,242.29c.43,0,.8.15,1.06.45s.42.66.42,1.09v11.21c0,.24.04.43.14.57.1.15.22.27.38.32.15.07.34.1.52.1.2,0,.39-.04.56-.11s.36-.11.57-.11c.24,0,.45.11.64.32s.29.52.29.91c0,.48-.25.85-.77,1.16s-1.06.45-1.65.45c-.35,0-.74-.03-1.18-.08s-.83-.2-1.2-.43c-.38-.22-.7-.57-.94-1.05-.25-.48-.38-1.12-.38-1.95v-11.34c0-.43.15-.8.45-1.09s.66-.45,1.09-.45v.03Z"/>
    <path class="st0" d="M317.13,244.93c1.2,0,2.13.27,2.76.78s1.06,1.22,1.3,2.09.35,1.82.35,2.88v6.45c0,.43-.14.8-.43,1.09-.28.29-.64.45-1.08.45s-.8-.14-1.08-.45c-.28-.29-.43-.66-.43-1.09v-6.45c0-.56-.07-1.05-.2-1.5-.14-.45-.38-.8-.73-1.06-.35-.27-.85-.41-1.51-.41s-1.19.14-1.64.41c-.45.27-.8.63-1.02,1.06-.22.45-.34.95-.34,1.5v6.45c0,.43-.14.8-.43,1.09-.28.29-.64.45-1.08.45s-.8-.14-1.08-.45c-.28-.29-.43-.66-.43-1.09v-15.57c0-.43.14-.8.43-1.09.28-.29.64-.45,1.08-.45s.8.15,1.08.45.43.66.43,1.09v6.24l-.38-.07c.15-.28.36-.59.63-.92.27-.32.6-.63.98-.92.39-.28.81-.52,1.29-.7s.98-.27,1.54-.27h-.01Z"/>
    <path class="st0" d="M335.84,244.93c.43,0,.8.14,1.08.43s.43.66.43,1.11v10.65c0,.43-.14.8-.43,1.09-.28.29-.64.45-1.08.45s-.8-.14-1.08-.45c-.28-.29-.43-.66-.43-1.09v-1.23l.56.22c0,.22-.11.49-.35.8s-.56.62-.95.92-.88.56-1.43.77c-.55.21-1.13.31-1.78.31-1.16,0-2.21-.29-3.15-.9s-1.68-1.41-2.23-2.46c-.55-1.05-.81-2.25-.81-3.61s.27-2.59.81-3.64c.55-1.05,1.27-1.88,2.2-2.46s1.95-.9,3.08-.9c.73,0,1.39.11,1.99.32.6.22,1.13.49,1.57.83.45.34.78.67,1.04,1.02s.36.63.36.87l-.91.32v-1.83c0-.43.14-.8.43-1.09s.64-.43,1.08-.43h0ZM330.75,256.15c.74,0,1.39-.18,1.95-.56.56-.36.98-.87,1.3-1.51.31-.64.46-1.36.46-2.14s-.15-1.53-.46-2.17-.74-1.15-1.3-1.51-1.2-.56-1.95-.56-1.36.18-1.92.56c-.56.36-.99.87-1.3,1.51s-.46,1.36-.46,2.17.15,1.5.46,2.14c.31.64.74,1.15,1.3,1.51s1.19.56,1.92.56Z"/>
    <path class="st0" d="M347.84,244.93c1.25,0,2.18.27,2.83.78s1.09,1.22,1.33,2.09.36,1.82.36,2.88v6.45c0,.43-.14.8-.43,1.09-.28.29-.64.45-1.08.45s-.8-.14-1.08-.45c-.28-.29-.43-.66-.43-1.09v-6.45c0-.56-.07-1.05-.21-1.5s-.41-.8-.77-1.06c-.36-.27-.9-.41-1.58-.41s-1.25.14-1.69.41c-.46.27-.81.63-1.06,1.06-.24.45-.36.95-.36,1.5v6.45c0,.43-.14.8-.43,1.09-.28.29-.64.45-1.08.45s-.8-.14-1.08-.45c-.28-.29-.43-.66-.43-1.09v-10.4c0-.43.14-.8.43-1.09.28-.29.64-.43,1.08-.43s.8.15,1.08.43c.28.29.43.66.43,1.09v1.08l-.38-.07c.15-.28.36-.59.66-.92.28-.32.62-.63,1.01-.92s.83-.52,1.32-.7,1.02-.27,1.58-.27h0Z"/>
    <path class="st0" d="M373.74,244.93c.43,0,.8.14,1.08.43.28.28.43.66.43,1.11v10.65c0,.43-.14.8-.43,1.09-.28.29-.64.45-1.08.45s-.8-.14-1.08-.45c-.28-.29-.43-.66-.43-1.09v-1.23l.56.22c0,.22-.11.49-.35.8s-.56.62-.95.92-.88.56-1.43.77c-.55.21-1.13.31-1.78.31-1.16,0-2.21-.29-3.15-.9s-1.68-1.41-2.23-2.46-.81-2.25-.81-3.61.28-2.59.81-3.64,1.29-1.88,2.21-2.46,1.95-.9,3.08-.9c.73,0,1.39.11,1.99.32.6.22,1.13.49,1.57.83.45.34.78.67,1.04,1.02s.36.63.36.87l-.91.32v-1.83c0-.43.14-.8.43-1.09s.64-.43,1.08-.43h-.01ZM368.66,256.15c.74,0,1.39-.18,1.95-.56.56-.36.99-.87,1.3-1.51s.46-1.36.46-2.14-.15-1.53-.46-2.17-.74-1.15-1.3-1.51-1.2-.56-1.95-.56-1.36.18-1.92.56c-.56.36-.99.87-1.3,1.51s-.46,1.36-.46,2.17.15,1.5.46,2.14c.31.64.74,1.15,1.3,1.51s1.19.56,1.92.56Z"/>
    <path class="st0" d="M384.54,244.93c.95,0,1.79.1,2.51.31.71.2,1.27.48,1.67.84.39.36.59.8.59,1.3,0,.34-.1.66-.31.95-.2.29-.49.43-.88.43-.27,0-.49-.04-.67-.11s-.34-.17-.46-.29c-.14-.11-.29-.22-.48-.32-.17-.1-.42-.18-.77-.24s-.6-.08-.77-.08c-.85,0-1.58.18-2.18.56-.6.36-1.05.87-1.37,1.5s-.48,1.36-.48,2.18.17,1.53.49,2.16.78,1.13,1.36,1.5c.57.36,1.25.56,2,.56.42,0,.78-.03,1.08-.07.31-.06.56-.13.76-.22.24-.14.45-.28.63-.43s.46-.22.83-.22c.43,0,.77.14,1.01.42s.35.62.35,1.02-.24.8-.7,1.15-1.09.62-1.85.83c-.77.21-1.6.31-2.48.31-1.33,0-2.48-.31-3.46-.92s-1.72-1.46-2.25-2.51c-.53-1.06-.8-2.24-.8-3.56s.28-2.59.84-3.64,1.34-1.88,2.34-2.46c.99-.6,2.14-.9,3.44-.9l.03-.03Z"/>
    <path class="st0" d="M402.68,244.93c.43,0,.8.14,1.08.43s.43.66.43,1.11v10.65c0,.43-.14.8-.43,1.09-.28.29-.64.45-1.08.45s-.8-.14-1.08-.45c-.28-.29-.43-.66-.43-1.09v-1.23l.56.22c0,.22-.11.49-.35.8s-.56.62-.95.92-.88.56-1.43.77c-.55.21-1.13.31-1.78.31-1.16,0-2.21-.29-3.15-.9s-1.68-1.41-2.23-2.46c-.55-1.05-.81-2.25-.81-3.61s.27-2.59.81-3.64c.55-1.05,1.27-1.88,2.2-2.46s1.95-.9,3.08-.9c.73,0,1.39.11,1.99.32.6.22,1.13.49,1.57.83.45.34.78.67,1.04,1.02s.36.63.36.87l-.91.32v-1.83c0-.43.14-.8.43-1.09s.64-.43,1.08-.43h0ZM397.58,256.15c.74,0,1.39-.18,1.95-.56.56-.36.98-.87,1.3-1.51.31-.64.46-1.36.46-2.14s-.15-1.53-.46-2.17-.74-1.15-1.3-1.51-1.2-.56-1.95-.56-1.36.18-1.92.56c-.56.36-.99.87-1.3,1.51s-.46,1.36-.46,2.17.15,1.5.46,2.14c.31.64.74,1.15,1.3,1.51s1.19.56,1.92.56Z"/>
    <path class="st0" d="M418.5,240.02c.43,0,.8.14,1.08.43s.43.66.43,1.11v15.57c0,.43-.14.8-.43,1.09-.28.29-.64.45-1.08.45s-.8-.14-1.08-.45c-.28-.29-.43-.66-.43-1.09v-1.23l.56.22c0,.22-.11.49-.35.8s-.56.62-.95.92-.88.56-1.43.77c-.55.21-1.13.31-1.78.31-1.16,0-2.21-.29-3.15-.9s-1.68-1.41-2.23-2.46c-.55-1.05-.81-2.25-.81-3.61s.27-2.59.81-3.64c.55-1.05,1.27-1.88,2.2-2.46s1.95-.9,3.08-.9c.73,0,1.39.11,1.99.32.6.22,1.13.49,1.57.83.45.34.78.67,1.04,1.02s.36.63.36.87l-.91.32v-6.75c0-.43.14-.8.43-1.09s.64-.45,1.08-.45h0ZM413.4,256.15c.74,0,1.39-.18,1.95-.56.56-.36.98-.87,1.3-1.51.31-.64.46-1.36.46-2.14s-.15-1.53-.46-2.17-.74-1.15-1.3-1.51-1.2-.56-1.95-.56-1.36.18-1.92.56c-.56.36-.99.87-1.3,1.51s-.46,1.36-.46,2.17.15,1.5.46,2.14c.31.64.74,1.15,1.3,1.51s1.19.56,1.92.56Z"/>
    <path class="st0" d="M429.64,258.92c-1.43,0-2.67-.29-3.72-.9s-1.86-1.4-2.42-2.44c-.56-1.02-.84-2.18-.84-3.47,0-1.51.31-2.8.92-3.86s1.41-1.89,2.41-2.45c.99-.57,2.04-.85,3.15-.85.85,0,1.67.18,2.44.53s1.44.84,2.03,1.44c.59.62,1.05,1.33,1.4,2.13s.52,1.67.52,2.58c-.01.41-.18.73-.48.98-.31.25-.66.38-1.06.38h-9.63l-.76-2.52h9.25l-.56.5v-.69c-.03-.49-.21-.92-.52-1.32s-.7-.7-1.16-.92-.95-.34-1.47-.34-.98.07-1.41.2c-.43.14-.81.36-1.13.69s-.57.74-.76,1.29c-.18.53-.28,1.22-.28,2.04,0,.91.18,1.68.57,2.31.38.63.87,1.11,1.46,1.44.6.32,1.23.49,1.9.49.62,0,1.12-.06,1.48-.15s.67-.22.9-.36c.22-.14.43-.27.62-.36.31-.15.59-.22.85-.22.36,0,.67.13.92.38.24.25.36.55.36.88,0,.45-.24.87-.7,1.23-.43.36-1.05.69-1.83.97s-1.61.42-2.45.42h0Z"/>
    <path class="st0" d="M445.24,244.93c1.34,0,2.34.32,2.97.97s1.06,1.48,1.26,2.51l-.43-.22.2-.41c.2-.39.52-.8.94-1.25.42-.45.92-.83,1.53-1.13s1.26-.46,2-.46c1.2,0,2.13.27,2.76.78s1.06,1.22,1.3,2.09.35,1.82.35,2.88v6.45c0,.43-.14.8-.43,1.09-.28.29-.64.45-1.08.45s-.8-.14-1.08-.45c-.28-.29-.43-.66-.43-1.09v-6.45c0-.56-.07-1.05-.2-1.5-.14-.45-.38-.8-.73-1.06-.35-.27-.85-.41-1.51-.41s-1.19.14-1.64.41c-.45.27-.8.63-1.02,1.06-.22.45-.34.95-.34,1.5v6.45c0,.43-.14.8-.43,1.09-.28.29-.64.45-1.08.45s-.8-.14-1.08-.45c-.28-.29-.43-.66-.43-1.09v-6.45c0-.56-.07-1.05-.2-1.5-.14-.45-.38-.8-.73-1.06-.35-.27-.85-.41-1.51-.41s-1.19.14-1.64.41c-.45.27-.8.63-1.02,1.06-.22.45-.34.95-.34,1.5v6.45c0,.43-.14.8-.43,1.09-.28.29-.64.45-1.08.45s-.8-.14-1.08-.45c-.28-.29-.43-.66-.43-1.09v-10.4c0-.43.14-.8.43-1.09.28-.29.64-.43,1.08-.43s.8.15,1.08.43c.28.29.43.66.43,1.09v1.08l-.38-.07c.15-.28.36-.59.63-.92.27-.32.6-.63.98-.92.39-.28.81-.52,1.29-.7s.98-.27,1.54-.27h-.01Z"/>
    <path class="st0" d="M462.7,243.55c-.57,0-.98-.1-1.2-.28-.24-.18-.35-.52-.35-.98v-.48c0-.49.13-.81.39-.99s.66-.27,1.2-.27c.59,0,.99.1,1.23.28.24.18.35.52.35.98v.48c0,.49-.13.81-.38.99s-.66.27-1.23.27h-.01ZM464.24,257.13c0,.43-.14.8-.43,1.09-.28.29-.64.45-1.08.45s-.8-.14-1.08-.45c-.28-.29-.43-.66-.43-1.09v-10.4c0-.43.14-.8.43-1.09.28-.29.64-.43,1.08-.43s.8.15,1.08.43c.28.29.43.66.43,1.09v10.4Z"/>
    <path class="st0" d="M473.34,244.93c.95,0,1.79.1,2.51.31.71.2,1.27.48,1.67.84.39.36.59.8.59,1.3,0,.34-.1.66-.31.95-.2.29-.49.43-.88.43-.27,0-.49-.04-.67-.11s-.34-.17-.46-.29c-.14-.11-.29-.22-.48-.32-.17-.1-.42-.18-.77-.24s-.6-.08-.77-.08c-.85,0-1.58.18-2.18.56-.6.36-1.05.87-1.37,1.5s-.48,1.36-.48,2.18.17,1.53.49,2.16.78,1.13,1.36,1.5c.57.36,1.25.56,2,.56.42,0,.78-.03,1.08-.07.31-.06.56-.13.76-.22.24-.14.45-.28.63-.43s.46-.22.83-.22c.43,0,.77.14,1.01.42s.35.62.35,1.02-.24.8-.7,1.15-1.09.62-1.85.83c-.77.21-1.6.31-2.48.31-1.33,0-2.48-.31-3.46-.92s-1.72-1.46-2.25-2.51c-.53-1.06-.8-2.24-.8-3.56s.28-2.59.84-3.64,1.34-1.88,2.34-2.46c.99-.6,2.14-.9,3.44-.9l.03-.03Z"/>
    <path class="st0" d="M479.67,256.58c-.17-.24-.24-.53-.22-.91.01-.36.24-.69.66-.95.27-.17.56-.24.85-.21.31.03.6.18.88.46.49.49.99.87,1.54,1.13.53.27,1.2.41,2.02.41.25-.01.53-.06.83-.11s.57-.2.8-.41.34-.53.34-.97c0-.36-.13-.66-.38-.88s-.59-.41-.99-.56c-.41-.15-.87-.29-1.37-.43-.52-.15-1.05-.32-1.6-.5s-1.05-.42-1.5-.71c-.45-.29-.83-.69-1.11-1.18-.28-.49-.43-1.11-.43-1.83,0-.84.24-1.55.7-2.14s1.08-1.04,1.83-1.36c.74-.32,1.53-.48,2.35-.48.52,0,1.06.06,1.64.18s1.12.32,1.64.6.95.64,1.32,1.09c.18.25.29.56.32.91.03.35-.13.67-.48.95-.25.2-.55.29-.88.27s-.62-.14-.83-.34c-.29-.36-.67-.66-1.15-.88s-1.04-.32-1.65-.32c-.25,0-.53.03-.81.08-.29.06-.55.18-.77.38-.22.2-.32.5-.32.92,0,.39.13.7.38.92s.59.41,1.02.56c.43.14.88.28,1.37.42.5.14,1.02.29,1.54.48.52.18.99.43,1.44.73.43.31.78.7,1.06,1.18.27.48.41,1.09.41,1.82,0,.85-.25,1.58-.76,2.2-.5.6-1.13,1.06-1.89,1.37s-1.53.46-2.32.46c-.99,0-1.99-.17-2.97-.52-.99-.35-1.82-.95-2.46-1.82h-.04Z"/>
    <path class="st0" d="M493.92,258.64c-.49,0-.87-.13-1.12-.39-.27-.27-.39-.63-.39-1.12v-.43c0-.49.13-.85.39-1.12s.63-.39,1.12-.39h.32c.49,0,.85.13,1.12.39s.39.63.39,1.12v.43c0,.49-.13.87-.39,1.12s-.63.39-1.12.39h-.32Z"/>
    <path class="st0" d="M189.57,316.6c0,.59-.21,1.06-.64,1.46-.42.39-.92.59-1.48.59-.63,0-1.13-.2-1.51-.59s-.57-.88-.57-1.46v-19.42c0-.59.2-1.06.6-1.46s.92-.59,1.54-.59c.53,0,1.01.2,1.43.59s.62.88.62,1.46v19.42h.03Z"/>
    <path class="st0" d="M212.46,295.12c.53,0,.98.18,1.32.53.34.36.5.81.5,1.34v19.59c0,.59-.2,1.06-.59,1.46s-.88.59-1.46.59c-.29,0-.59-.06-.9-.15-.31-.1-.53-.24-.69-.42l-13.2-16.77.87-.53v15.99c0,.53-.17.98-.52,1.34s-.8.53-1.36.53-.98-.18-1.32-.53c-.34-.36-.5-.81-.5-1.34v-19.59c0-.59.2-1.06.59-1.46s.88-.59,1.46-.59c.31,0,.64.06.98.18s.59.31.74.56l12.8,16.32-.57.41v-15.6c0-.53.17-.98.5-1.34s.78-.53,1.34-.53h0Z"/>
    <path class="st0" d="M237.16,295.12c.53,0,.98.18,1.32.53.34.36.5.81.5,1.34v19.59c0,.59-.2,1.06-.59,1.46s-.88.59-1.46.59c-.29,0-.59-.06-.9-.15-.31-.1-.53-.24-.69-.42l-13.2-16.77.87-.53v15.99c0,.53-.17.98-.52,1.34s-.8.53-1.36.53-.98-.18-1.32-.53c-.34-.36-.5-.81-.5-1.34v-19.59c0-.59.2-1.06.59-1.46s.88-.59,1.46-.59c.31,0,.64.06.98.18s.59.31.74.56l12.8,16.32-.57.41v-15.6c0-.53.17-.98.5-1.34s.78-.53,1.34-.53h0Z"/>
    <path class="st0" d="M246.06,295.12h11.26c.59,0,1.06.18,1.46.56.39.36.59.84.59,1.43s-.2,1.01-.59,1.36-.88.52-1.46.52h-9.41l.31-.57v6.55l-.27-.27h7.87c.59,0,1.06.18,1.46.56.39.36.59.84.59,1.43s-.2,1.01-.59,1.36-.88.52-1.46.52h-7.76l.17-.27v6.79l-.27-.31h9.38c.59,0,1.06.2,1.46.59s.59.84.59,1.36c0,.56-.2,1.02-.59,1.37s-.88.53-1.46.53h-11.26c-.59,0-1.06-.2-1.46-.59s-.59-.88-.59-1.46v-19.42c0-.59.2-1.06.59-1.46s.88-.59,1.46-.59h-.03Z"/>
    <path class="st0" d="M265.65,318.64c-.63,0-1.19-.2-1.68-.59s-.74-.88-.74-1.46v-19.42c0-.59.2-1.06.59-1.46s.88-.59,1.46-.59h9.67c1.16,0,2.25.31,3.28.92s1.85,1.47,2.46,2.55c.63,1.09.94,2.34.94,3.75,0,.85-.17,1.68-.52,2.49s-.81,1.54-1.41,2.18-1.26,1.15-2,1.51l.03-.77c.63.34,1.15.73,1.57,1.19.42.46.74.95.98,1.48s.38,1.09.42,1.69c.08.56.15,1.05.18,1.48.03.42.1.78.2,1.08s.29.52.59.67c.49.29.8.71.92,1.26.13.55,0,1.04-.39,1.46-.25.29-.56.48-.94.56-.38.08-.76.08-1.15,0-.38-.08-.7-.18-.94-.32-.38-.22-.76-.56-1.15-.99-.38-.43-.69-1.02-.92-1.76s-.35-1.69-.35-2.86c0-.38-.07-.73-.2-1.06-.14-.32-.32-.6-.57-.84s-.56-.42-.94-.53c-.38-.13-.83-.18-1.34-.18h-6.79l.5-.77v7.29c0,.59-.15,1.06-.48,1.46-.31.39-.76.59-1.32.59l.04-.03ZM266.95,306.62h7.83c.41,0,.8-.18,1.18-.56.38-.36.7-.87.94-1.51s.36-1.34.36-2.1c0-.98-.27-1.81-.78-2.46s-1.09-.99-1.69-.99h-7.76l.41-1.08v9.51l-.48-.81h0Z"/>
    <path class="st0" d="M303.28,318.98c-1.57,0-2.98-.2-4.23-.59-1.26-.39-2.45-1.08-3.6-2.07-.29-.25-.52-.53-.67-.84-.15-.31-.24-.63-.24-.94,0-.52.18-.97.56-1.36.36-.39.84-.59,1.4-.59.42,0,.81.14,1.15.41.85.7,1.69,1.22,2.53,1.58s1.88.53,3.11.53c.83,0,1.6-.13,2.28-.39.7-.25,1.26-.6,1.68-1.04.42-.43.64-.94.64-1.5,0-.67-.2-1.25-.6-1.71s-1.02-.87-1.85-1.19-1.88-.57-3.16-.76c-1.2-.18-2.27-.45-3.19-.83-.92-.36-1.68-.84-2.3-1.41s-1.08-1.25-1.4-2.02-.48-1.64-.48-2.6c0-1.46.38-2.7,1.12-3.72.76-1.04,1.76-1.82,3.04-2.35s2.69-.81,4.23-.81c1.46,0,2.8.22,4.05.66s2.25.99,3.04,1.67c.64.52.98,1.11.98,1.78,0,.49-.2.94-.57,1.34-.38.41-.83.6-1.34.6-.34,0-.64-.1-.91-.31-.36-.31-.84-.62-1.44-.9s-1.25-.52-1.92-.7c-.67-.2-1.3-.28-1.88-.28-.97,0-1.78.13-2.44.36s-1.16.59-1.5,1.01c-.34.42-.5.92-.5,1.48,0,.67.2,1.23.59,1.67s.95.78,1.69,1.04,1.62.49,2.66.69c1.34.25,2.52.53,3.54.87s1.86.77,2.53,1.29c.67.53,1.18,1.19,1.51,1.99s.5,1.76.5,2.91c0,1.46-.41,2.72-1.2,3.77s-1.86,1.86-3.18,2.42c-1.32.56-2.73.84-4.26.84h.01Z"/>
    <path class="st0" d="M316.31,298.99c-.59,0-1.06-.18-1.46-.53-.39-.36-.59-.83-.59-1.41s.2-1.05.59-1.4.88-.52,1.46-.52h14.92c.59,0,1.06.18,1.46.53.39.36.59.83.59,1.41s-.2,1.05-.59,1.4-.88.52-1.46.52h-14.92ZM323.73,318.64c-.63,0-1.15-.2-1.54-.59-.41-.39-.6-.88-.6-1.46v-19.49h4.37v19.49c0,.59-.21,1.06-.62,1.46s-.95.59-1.6.59h-.01Z"/>
    <path class="st0" d="M343.77,300.4l-7.25,17.07c-.15.42-.39.76-.73.99-.32.24-.67.35-1.06.35-.6,0-1.05-.17-1.34-.5s-.43-.76-.43-1.25c0-.2.03-.42.1-.64l8.37-20.09c.18-.45.45-.8.83-1.04.36-.25.77-.35,1.19-.31.41,0,.78.11,1.12.35s.6.56.76.99l8.26,19.68c.11.29.17.56.17.81,0,.6-.2,1.09-.59,1.44-.39.36-.83.53-1.29.53-.41,0-.77-.13-1.09-.36-.32-.25-.57-.59-.76-1.01l-7.22-16.83.98-.2h0ZM337.55,313.37l1.85-3.86h9.07l.64,3.86h-11.56Z"/>
    <path class="st0" d="M359.01,318.64c-.63,0-1.19-.2-1.68-.59s-.74-.88-.74-1.46v-19.42c0-.59.2-1.06.59-1.46s.88-.59,1.46-.59h9.67c1.16,0,2.25.31,3.28.92s1.85,1.47,2.46,2.55c.63,1.09.94,2.34.94,3.75,0,.85-.17,1.68-.52,2.49s-.81,1.54-1.41,2.18-1.26,1.15-2,1.51l.03-.77c.63.34,1.15.73,1.57,1.19s.74.95.98,1.48.38,1.09.42,1.69c.08.56.15,1.05.18,1.48.03.42.1.78.2,1.08s.29.52.59.67c.49.29.8.71.92,1.26.13.55,0,1.04-.39,1.46-.25.29-.56.48-.94.56-.38.08-.76.08-1.15,0-.38-.08-.7-.18-.94-.32-.38-.22-.76-.56-1.15-.99-.38-.43-.69-1.02-.92-1.76s-.35-1.69-.35-2.86c0-.38-.07-.73-.2-1.06-.14-.32-.32-.6-.57-.84s-.56-.42-.94-.53c-.38-.13-.83-.18-1.34-.18h-6.79l.5-.77v7.29c0,.59-.15,1.06-.48,1.46-.31.39-.76.59-1.32.59l.04-.03ZM360.33,306.62h7.83c.41,0,.8-.18,1.18-.56.38-.36.7-.87.94-1.51.25-.64.36-1.34.36-2.1,0-.98-.27-1.81-.78-2.46-.53-.66-1.09-.99-1.69-.99h-7.76l.41-1.08v9.51l-.48-.81h0Z"/>
    <path class="st0" d="M387.24,318.98c-1.57,0-2.98-.2-4.23-.59-1.26-.39-2.45-1.08-3.6-2.07-.29-.25-.52-.53-.67-.84-.15-.31-.24-.63-.24-.94,0-.52.18-.97.56-1.36.36-.39.84-.59,1.4-.59.42,0,.81.14,1.15.41.85.7,1.69,1.22,2.53,1.58s1.88.53,3.11.53c.83,0,1.6-.13,2.28-.39.7-.25,1.26-.6,1.68-1.04.42-.43.64-.94.64-1.5,0-.67-.2-1.25-.6-1.71s-1.02-.87-1.85-1.19-1.88-.57-3.16-.76c-1.2-.18-2.27-.45-3.19-.83-.92-.36-1.68-.84-2.3-1.41s-1.08-1.25-1.4-2.02-.48-1.64-.48-2.6c0-1.46.38-2.7,1.12-3.72.76-1.04,1.76-1.82,3.04-2.35s2.69-.81,4.23-.81c1.46,0,2.8.22,4.05.66s2.25.99,3.04,1.67c.64.52.98,1.11.98,1.78,0,.49-.2.94-.57,1.34-.38.41-.83.6-1.34.6-.34,0-.64-.1-.91-.31-.36-.31-.84-.62-1.44-.9s-1.25-.52-1.92-.7c-.67-.2-1.3-.28-1.88-.28-.97,0-1.78.13-2.44.36s-1.16.59-1.5,1.01c-.34.42-.5.92-.5,1.48,0,.67.2,1.23.59,1.67s.95.78,1.69,1.04,1.62.49,2.66.69c1.34.25,2.52.53,3.54.87s1.86.77,2.53,1.29c.67.53,1.18,1.19,1.51,1.99s.5,1.76.5,2.91c0,1.46-.41,2.72-1.2,3.77s-1.86,1.86-3.18,2.42c-1.32.56-2.73.84-4.26.84h.01Z"/>
  </g>
</svg>