<?xml version="1.0" encoding="UTF-8"?>
<svg id="Layer_1" xmlns="http://www.w3.org/2000/svg" xmlns:xlink="http://www.w3.org/1999/xlink" version="1.1" viewBox="0 0 628.25 628.25">
  <!-- Generator: Adobe Illustrator 29.7.1, SVG Export Plug-In . SVG Version: 2.1.1 Build 8)  -->
  <defs>
    <style>
      .st0 {
        fill: none;
      }

      .st1 {
        stroke: #aca547;
        stroke-width: .1px;
      }

      .st1, .st2 {
        fill: #aca547;
      }

      .st3 {
        clip-path: url(#clippath);
      }
    </style>
    <clipPath id="clippath">
      <rect class="st0" x="259.66" y="170.12" width="107.14" height="183.15"/>
    </clipPath>
  </defs>
  <g id="Group_56">
    <g id="Your_paragraph_text">
      <g id="Group_3">
        <g id="Group_2">
          <g id="Group_1">
            <path id="Path_1" class="st2" d="M274.51,388.99c-1.83.02-3.63-.4-5.27-1.22-1.56-.78-2.87-1.97-3.8-3.45-.95-1.54-1.43-3.33-1.39-5.13-.03-1.75.42-3.47,1.3-4.98.86-1.46,2.1-2.65,3.59-3.45,1.54-.84,3.28-1.28,5.04-1.26,1.65,0,3.28.34,4.79,1.01,1.55.67,2.97,1.62,4.18,2.8l-2.02,1.71c-.99-.83-2.09-1.52-3.26-2.06-1.12-.5-2.33-.76-3.55-.75-1.3-.01-2.58.29-3.74.88-1.1.57-2.03,1.44-2.67,2.5-.66,1.1-.99,2.36-.97,3.64-.03,1.33.35,2.65,1.09,3.76.72,1.07,1.72,1.91,2.9,2.42,1.25.55,2.6.83,3.97.82.87.01,1.74-.1,2.58-.33.76-.21,1.48-.54,2.14-.97.74-.49,1.42-1.06,2.04-1.7l1.79,1.95c-1.04,1.25-2.36,2.23-3.85,2.86-1.54.63-3.2.95-4.87.94Z"/>
          </g>
        </g>
      </g>
      <g id="Group_6">
        <g id="Group_5">
          <g id="Group_4">
            <path id="Path_2" class="st2" d="M293.9,388.53h-2.94l8.45-18.56h3l8.32,18.56h-3.03l-2.67-6.05h-8.36l-2.77,6.05ZM300.87,373.25l-2.94,6.49h5.88l-2.94-6.49Z"/>
          </g>
        </g>
      </g>
      <g id="Group_9">
        <g id="Group_8">
          <g id="Group_7">
            <path id="Path_3" class="st2" d="M334.18,388.53h-14.02v-18.58h2.71v15.87h11.31v2.71Z"/>
          </g>
        </g>
      </g>
      <g id="Group_12">
        <g id="Group_11">
          <g id="Group_10">
            <path id="Path_4" class="st2" d="M346.34,388.53h-2.63v-18.58h2.67l6.39,11.58,6.64-11.58h2.69v18.58h-2.73v-13.01l-6.6,11.49-6.43-11.49v13.01Z"/>
          </g>
        </g>
      </g>
      <g id="Group_15">
        <g id="Group_14">
          <g id="Group_13">
            <path id="Path_5" class="st2" d="M232.27,423.79c-1.83.02-3.63-.4-5.27-1.22-1.56-.78-2.87-1.97-3.8-3.45-.95-1.54-1.43-3.33-1.39-5.13-.03-1.75.42-3.47,1.3-4.98.86-1.46,2.1-2.65,3.59-3.45,1.54-.84,3.28-1.28,5.04-1.26,1.65,0,3.28.34,4.79,1.01,1.55.67,2.97,1.62,4.18,2.8l-2.02,1.71c-.99-.83-2.09-1.52-3.26-2.06-1.12-.5-2.33-.76-3.55-.75-1.3-.01-2.58.29-3.74.88-1.1.57-2.03,1.44-2.67,2.5-.66,1.1-.99,2.36-.97,3.64-.03,1.33.35,2.65,1.09,3.76.72,1.07,1.72,1.91,2.9,2.42,1.25.55,2.6.83,3.97.82.87.01,1.74-.1,2.58-.33.76-.21,1.48-.54,2.14-.97.74-.49,1.42-1.06,2.04-1.7l1.79,1.95c-1.04,1.25-2.36,2.23-3.85,2.86-1.54.63-3.2.95-4.87.94Z"/>
          </g>
        </g>
      </g>
      <g id="Group_18">
        <g id="Group_17">
          <g id="Group_16">
            <path id="Path_6" class="st2" d="M259.65,423.79c-1.78.02-3.53-.45-5.07-1.34-1.5-.87-2.75-2.12-3.61-3.62-.88-1.55-1.33-3.3-1.32-5.07-.01-1.71.46-3.4,1.37-4.85.92-1.45,2.19-2.64,3.7-3.45,1.51-.83,3.22-1.27,4.94-1.26,1.75-.01,3.48.44,5,1.31,1.51.84,2.77,2.07,3.64,3.57.9,1.5,1.37,3.23,1.35,4.98.02,1.74-.46,3.44-1.37,4.92-.91,1.47-2.18,2.68-3.68,3.51-1.51.86-3.22,1.3-4.96,1.3ZM259.67,421.04c1.27,0,2.53-.31,3.64-.93,1.1-.61,2.02-1.5,2.67-2.58.66-1.09,1-2.35.99-3.62.02-1.26-.33-2.5-1.01-3.57-.65-1.06-1.57-1.92-2.67-2.5-1.12-.6-2.37-.91-3.64-.9-1.3-.01-2.59.3-3.74.92-1.1.59-2.01,1.48-2.63,2.56-.65,1.11-.97,2.38-.95,3.66-.01,1.26.34,2.49,1.01,3.55.67,1.06,1.61,1.92,2.71,2.52,1.11.6,2.36.91,3.62.9h0Z"/>
          </g>
        </g>
      </g>
      <g id="Group_21">
        <g id="Group_20">
          <g id="Group_19">
            <path id="Path_7" class="st2" d="M283.52,423.33h-2.67v-18.58h2.65l11.18,14.19v-14.19h2.75v18.58h-2.69l-11.22-14.16v14.16Z"/>
          </g>
        </g>
      </g>
      <g id="Group_24">
        <g id="Group_23">
          <g id="Group_22">
            <path id="Path_8" class="st2" d="M312.48,423.33h-2.67v-18.58h2.65l11.18,14.19v-14.19h2.75v18.58h-2.69l-11.22-14.16v14.16Z"/>
          </g>
        </g>
      </g>
      <g id="Group_27">
        <g id="Group_26">
          <g id="Group_25">
            <path id="Path_9" class="st2" d="M354.54,423.33h-15.78v-18.58h15.3v2.73h-12.57v4.87h6.32v2.69h-6.32v5.59h13.05v2.71Z"/>
          </g>
        </g>
      </g>
      <g id="Group_30">
        <g id="Group_29">
          <g id="Group_28">
            <path id="Path_10" class="st2" d="M373.28,423.79c-1.83.02-3.63-.4-5.27-1.22-1.56-.78-2.87-1.97-3.8-3.45-.95-1.54-1.43-3.33-1.39-5.13-.03-1.75.42-3.47,1.3-4.98.86-1.46,2.1-2.65,3.59-3.45,1.54-.84,3.28-1.28,5.04-1.26,1.65,0,3.28.34,4.79,1.01,1.55.67,2.97,1.62,4.18,2.8l-2.02,1.71c-.99-.83-2.09-1.52-3.26-2.06-1.12-.5-2.33-.76-3.55-.75-1.3-.01-2.58.29-3.74.88-1.1.57-2.03,1.44-2.67,2.5-.66,1.1-.99,2.36-.97,3.64-.03,1.33.35,2.65,1.09,3.76.72,1.07,1.72,1.91,2.9,2.42,1.25.55,2.6.83,3.97.82.87.01,1.74-.1,2.58-.33.76-.21,1.48-.54,2.14-.97.74-.49,1.42-1.06,2.04-1.7l1.79,1.95c-1.04,1.25-2.36,2.23-3.85,2.86-1.54.63-3.2.95-4.87.94Z"/>
          </g>
        </g>
      </g>
      <g id="Group_33">
        <g id="Group_32">
          <g id="Group_31">
            <path id="Path_11" class="st2" d="M399.87,423.33h-2.63v-15.87h-6.64v-2.71h15.84v2.71h-6.56v15.87Z"/>
          </g>
        </g>
      </g>
      <g id="Group_36">
        <g id="Group_35">
          <g id="Group_34">
            <path id="Path_12" class="st2" d="M235.47,458.13h-2.63v-15.87h-6.64v-2.71h15.84v2.71h-6.56v15.87Z"/>
          </g>
        </g>
      </g>
      <g id="Group_39">
        <g id="Group_38">
          <g id="Group_37">
            <path id="Path_13" class="st2" d="M254.83,458.13h-2.69v-18.58h2.69v7.52h10.95v-7.52h2.71v18.58h-2.71v-8.32h-10.95v8.32Z"/>
          </g>
        </g>
      </g>
      <g id="Group_42">
        <g id="Group_41">
          <g id="Group_40">
            <path id="Path_14" class="st2" d="M296.48,458.13h-15.78v-18.58h15.3v2.73h-12.57v4.87h6.32v2.69h-6.32v5.59h13.05v2.71Z"/>
          </g>
        </g>
      </g>
      <g id="Group_45">
        <g id="Group_44">
          <g id="Group_43">
            <path id="Path_15" class="st2" d="M306.56,458.13v-18.58h11.01c1.04-.02,2.08.19,3.03.63.87.4,1.6,1.06,2.08,1.89.52.9.77,1.92.75,2.96.05,1.25-.35,2.47-1.13,3.45-.81.95-1.92,1.61-3.15,1.86l3.85,7.8h-3.07l-3.74-7.71h-6.93v7.71h-2.71ZM317.56,447.71c.83.04,1.65-.21,2.31-.71.6-.54.92-1.33.86-2.13.07-.77-.26-1.52-.86-2.01-.68-.45-1.49-.67-2.31-.63h-8.3v5.48h8.3Z"/>
          </g>
        </g>
      </g>
      <g id="Group_48">
        <g id="Group_47">
          <g id="Group_46">
            <path id="Path_16" class="st2" d="M334.59,458.13h-2.94l8.45-18.56h3l8.32,18.56h-3.03l-2.67-6.05h-8.36l-2.77,6.05ZM341.55,442.85l-2.94,6.49h5.88l-2.94-6.49Z"/>
          </g>
        </g>
      </g>
      <g id="Group_51">
        <g id="Group_50">
          <g id="Group_49">
            <path id="Path_17" class="st2" d="M360.77,458.13v-18.58h10.78c.99-.03,1.97.19,2.86.63.8.41,1.46,1.05,1.89,1.83.48.87.71,1.85.69,2.84.02.99-.21,1.97-.69,2.84-.44.8-1.1,1.46-1.91,1.88-.88.45-1.86.67-2.84.65h-8.07v7.9h-2.71ZM371.54,447.48c.74.05,1.47-.18,2.04-.65.5-.53.76-1.25.71-1.98.07-.72-.18-1.44-.69-1.97-.58-.46-1.32-.69-2.06-.63h-8.07v5.23h8.07Z"/>
          </g>
        </g>
      </g>
      <g id="Group_54">
        <g id="Group_53">
          <g id="Group_52">
            <path id="Path_18" class="st2" d="M394.73,458.13h-2.69v-8.05l-7.56-10.53h3.26l5.68,7.86,5.61-7.86h3.36l-7.67,10.53v8.05Z"/>
          </g>
        </g>
      </g>
      <g class="st3">
        <g id="Group_55">
          <path id="Path_19" class="st1" d="M338.5,238.11c-9.48-9.33-12.71-21.97-5.38-29.7-3.51,6.93.25,17.67.25,17.67,12.72-7.76,1.79-18.35,6.33-27.46-15.44,4.06-14.95,17.6-13.49,23.97-11.49-16.37-19.38-25.21-2.72-39.53-7.58,2.21-11.72,7.92-13.08,11.29,0,0-4.22-11.46-4.77-24.22,0,0-1.04,15.46,2.98,29.34-10.29-8.08-21.81-.85-21.81-.85,2.58,4.29,13.01,5.4,18.18,5.04,5.17-.37,7.38,3.97,7.38,3.97,5.08,9.52,14.81,24.29,21.78,32.5-29.52-30.2-53.84-11.64-53.84-11.64,5.39,10.15,9.84,7.12,25.3,8.24,48.73.78,77.44,74.51,33.38,101.89-19.15,11.9-42.55,7.13-56.96-6.97-11.86-11.61-17.45-29.92-11.07-47.32,6.93-18.92,32.5-30.63,50.18-20.65,25.35,14.31,9.22,59.38-18.09,44.88-5.69-3.02-7.48-11.39-5.54-17.82s7.64-10.96,13.4-6.62c-7.21,3.84-4.31,15.45,4,15.3,16.99-2.76,7.05-27.75-6.84-27.79-12.01-1.04-20.54,10.08-21.44,21.14-2.86,28.79,30.75,37.7,48.22,17.91,24.24-32.43-6.27-70.21-43.88-58.21-39.85,12.73-38.91,68.21-11.71,88.72,10.77,8.12,21.11,11.97,33.69,11.97s23.15-4.46,30.5-9.56c28.6-19.82,34.98-66.19-4.94-105.48Z"/>
        </g>
      </g>
    </g>
  </g>
</svg>