<?xml version="1.0" encoding="UTF-8"?>
<svg id="Layer_1" xmlns="http://www.w3.org/2000/svg" version="1.1" viewBox="0 0 575.83 416.68">
  <!-- Generator: Adobe Illustrator 29.7.1, SVG Export Plug-In . SVG Version: 2.1.1 Build 8)  -->
  <defs>
    <style>
      .st0 {
        fill: #002f55;
      }

      .st1 {
        fill: #dd2080;
      }

      .st2 {
        fill: #ecaa19;
      }
    </style>
  </defs>
  <path class="st1" d="M194.17,203.8c-10.21,1.46-20.3-2.08-28.31-8.36-8.59-6.74-14.63-16.09-17.71-26.52-3.24-10.96-3.24-23.17,1.03-33.87,3.77-9.45,10.55-17.68,19.32-22.9,10.45-6.23,22.78-6.66,34.63-6.37,5.66.14,11.06,1.12,15.35,5.05,3.8,3.49,6.3,8.24,8.21,12.97,2.09,5.18,3.82,10.72,3.71,16.36s-2.66,10.4-7.12,13.72c-4.71,3.51-10.44,5.67-16.13,6.96-3.06.69-6.19,1.07-9.33,1.17-2.84.08-6.19.25-8.79-1.08-4.38-2.24-5.8-8.23-5.37-12.74s2.71-9.22,5.99-12.6c7.73-7.97,20.37-9.09,30.76-7.47,5.93.92,11.82,2.85,16.74,6.37,4.15,2.97,7.48,6.93,9.98,11.36,5.55,9.83,6.68,21.46,5.01,32.48-.96,6.36-2.75,12.58-4.95,18.61-2.02,5.53-4.15,11.63-7.86,16.28s-9,7-14.42,8.87c-6.12,2.1-12.46,3.62-18.9,4.3-11.76,1.24-23.82-.23-34.53-5.39-10.1-4.87-18.09-12.59-23.21-22.57-2.77-5.4-4.72-11.2-6.41-17.02-1.78-6.17-3.21-12.47-3.67-18.89s.04-12.4,1.97-18.3c1.55-4.73,4.06-9.18,7.17-13.05,14.66-18.31,40.8-23.33,62.83-18.17,10.95,2.57,21.26,8.11,28.49,16.85s10.63,19.03,9.32,29.86c-.75,6.17-2.76,12.12-5.28,17.78s-5.38,11.12-8.84,16.2c-6.34,9.31-15.13,16.4-25.55,20.68-10.07,4.14-21.04,5.91-31.9,5.83-9.63-.07-19.64-1.88-28.03-6.8-3.96-2.32-7.48-5.43-10.02-9.27-3.22-4.89-4.59-10.64-5.61-16.34-2.17-12.06-3.74-24.86-.48-36.87,5.91-21.75,28.08-34.74,48.93-38.91,11.36-2.27,23.25-2.08,34.55.48,5.59,1.27,11.04,3.11,16.23,5.55s10.64,5.69,14.79,10.07c8.08,8.52,11.25,20.9,13.39,32.12,2.28,11.96,2.37,24.31-1.82,35.87-7.49,20.67-25.68,35.61-46.16,42.43-11.38,3.79-23.41,5.35-35.39,5.17s-23.69-2.11-32.85-9.82c-8.11-6.82-13.23-16.58-16.29-26.59-3.46-11.3-4.56-23.33-3.41-35.08,1.11-11.39,4.37-22.54,9.59-32.71,1.17-2.28-2.35-4.14-3.53-1.85-11.47,22.34-13.83,49.53-5.64,73.36,3.66,10.64,9.71,20.99,18.97,27.68,10.5,7.58,23.69,9.13,36.31,9.01,24.61-.24,49.89-8.15,67.15-26.36,7.74-8.17,13.67-18.15,16.6-29.04,3.51-13.05,2.02-26.74-1.14-39.7-2.94-12.05-7.7-24.01-17.93-31.68s-22.43-11.76-34.62-13.52c-23.72-3.41-49.87,2.83-67.53,19.59-8.83,8.38-14.32,19.23-15.62,31.35-.71,6.61-.39,13.26.42,19.85s1.71,13.16,3.68,19.4c1.72,5.43,4.6,10.35,8.74,14.29,3.7,3.51,8.2,6.16,12.93,8.02,10.11,3.97,21.18,4.87,31.94,4.01,11.67-.93,23.33-3.97,33.48-9.92,10.84-6.36,18.65-16.01,24.47-27.01s11.23-24.35,9.3-37.42c-1.67-11.3-7.98-21.6-16.73-28.84-9.65-7.98-21.89-12.06-34.24-13.19s-26.56.7-38.29,6.48c-9.89,4.87-18.46,12.86-23.51,22.7-6.03,11.76-5.81,25.1-3.07,37.74,1.4,6.46,3.3,12.88,5.73,19.03s5.24,11.56,9.25,16.47c7.39,9.06,17.69,15.31,28.89,18.46,12.81,3.61,26.55,2.94,39.34-.39,6.14-1.6,12.65-3.62,17.91-7.28s8.45-9.22,10.93-15.09c5.25-12.39,9.38-25.72,8.79-39.33-.49-11.24-4.53-22.61-12.42-30.79-8.67-8.98-21.75-12.42-33.94-11.93-11.48.46-23.36,5.33-28.48,16.25-2.26,4.81-3.07,10.4-1.57,15.56.79,2.71,2.22,5.36,4.29,7.31,2.42,2.28,5.55,3.02,8.78,3.24,6.58.45,13.36-.53,19.62-2.59,5.74-1.89,11.61-4.68,15.81-9.14,8.88-9.43,5.31-23.43.58-33.96-2.27-5.06-5.24-10.06-9.68-13.5-5.15-3.99-11.32-4.84-17.66-4.94-6.79-.11-13.63,0-20.33,1.24-5.8,1.07-11.36,3.18-16.35,6.33-9.36,5.9-16.56,15.01-20.37,25.37-8.3,22.6-.1,50.28,19.3,64.57,8.58,6.32,19.2,10.03,29.92,8.5,1.06-.15,1.97-.89,1.93-2.05-.03-.98-.98-2.08-2.05-1.93h0Z"/>
  <circle class="st2" cx="381.43" cy="169.97" r="68.61"/>
  <path class="st1" d="M433.65,117.81c-21.96-7.24-46.25-14.82-69.34-8.31-10.82,3.05-20.62,9.36-28.72,17.06-7.23,6.88-13.25,15.21-17.25,24.37s-5.97,18.84-5.02,28.62,5.12,19.63,11.56,27.46c14.21,17.27,37.11,24.35,58.94,22.34s40.96-11.76,55.17-27.23c3.85-4.19,7.26-8.81,9.18-14.22,1.89-5.35,2.29-11.17,2.41-16.81.21-9.92-1.03-20.05-4.4-29.41-3.31-9.2-8.77-17.71-16.59-23.71-8.34-6.4-18.45-9.75-28.67-11.73-5.18-1-10.42-1.68-15.66-2.28-6.09-.7-12.25-1.53-18.39-1.23-11.65.56-21.84,6.25-30.81,13.32-15.98,12.59-30.93,29.76-33.74,50.64-2.92,21.73,8.13,43.01,25.22,56.02,8.58,6.53,18.42,11.2,28.77,14.18,11.49,3.3,24.08,4.77,35.69,1.16,10.54-3.27,19.65-10.22,27.4-17.89,7.29-7.21,13.46-15.54,18.47-24.48,10.15-18.1,15.54-38.75,16.53-59.43.28-5.83.23-11.93-2.17-17.36-2.03-4.59-5.45-8.31-9.52-11.19-9.19-6.51-20.88-9.18-31.91-10.35-11.89-1.26-24.54-1.58-36.2,1.48-11.53,3.02-21.83,9.98-31.6,16.58-5.14,3.48-10.18,7.11-15.09,10.91-4.47,3.45-8.89,7.06-12.58,11.35-7.4,8.6-10.77,19.57-11.54,30.74s.84,23.13,5.86,33.39c4.26,8.7,11.11,15.74,19.01,21.22,8.03,5.58,17.07,9.51,26.26,12.76,4.58,1.62,9.22,3.05,13.88,4.4,5.97,1.72,12.11,3.42,18.38,3.24,5.89-.16,11.41-2.24,16.53-5.05s9.87-6.11,14.55-9.49c9.22-6.64,17.76-14.21,24.52-23.38,6.41-8.69,11.32-18.4,14.48-28.72,2.93-9.54,4.68-19.91,3.41-29.89-1.15-8.95-4.8-17.49-12.43-22.73-.89-.61-2.23-.03-2.69.84-.55,1.04-.05,2.08.84,2.69,7.13,4.89,9.97,13.75,10.57,22,.7,9.63-1.27,19.45-4.33,28.55-3.23,9.61-8.15,18.73-14.4,26.7-6.73,8.58-15.02,15.63-23.91,21.87-8.96,6.29-18.62,13.28-30.1,12.58-5.61-.34-11.11-2.08-16.48-3.66-4.55-1.34-9.07-2.78-13.52-4.4-16.81-6.14-34.02-15.71-41.71-32.74-4.46-9.87-5.63-21.28-4.6-31.98,1.01-10.51,4.74-20.44,12.09-28.15,3.77-3.95,8.1-7.32,12.45-10.6,4.64-3.51,9.39-6.88,14.23-10.11,9.42-6.28,19.25-12.79,30.41-15.42,5.65-1.33,11.48-1.73,17.28-1.77s11.63.2,17.39.91c10.19,1.25,21.35,3.77,29.63,10.2,3.76,2.92,6.74,6.64,8.08,11.26,1.5,5.17,1.17,10.74.82,16.04-.65,9.86-2.4,19.66-5.17,29.15-5.48,18.76-15.26,36.4-29.34,50.07-7.39,7.18-16.08,13.65-26.13,16.45-11.08,3.08-22.97,1.3-33.79-1.99-19.28-5.86-37.18-18.58-45.4-37.47-4.02-9.24-5.67-19.49-3.93-29.47s6.1-18.52,11.9-26.28,13.33-15.07,21.28-21.12c4.14-3.15,8.54-6.08,13.31-8.18,5.15-2.27,10.55-3.39,16.18-3.42s11.5.74,17.2,1.42c4.97.59,9.94,1.28,14.85,2.28,9.62,1.96,19.26,5.21,26.93,11.54,14.63,12.09,19.02,32.28,18.42,50.44-.18,5.4-.64,11.03-2.83,16.04s-5.47,8.79-9.05,12.5c-6.94,7.18-15.24,12.99-24.28,17.22-18.49,8.66-40.98,10.51-60.08,2.69-17.92-7.33-32.18-23.74-33.19-43.59-.96-18.83,9.13-36.91,22.79-49.26,7.99-7.22,17.56-12.84,28.09-15.3s22.17-1.81,33.01.24,21.31,5.36,31.73,8.8c1.02.34,2.16-.51,2.39-1.49.26-1.13-.47-2.05-1.49-2.39h0Z"/>
  <path class="st1" d="M171.15,245.06c0,11.53.15,23.05.28,34.58.13,11.6.49,23.23.28,34.83-.02,1.06-.38,1.23-1.35,1.54s-2.03.65-3.08.81c-1.67.25-3.83,0-4.75-1.64s.5-3.26,1.92-3.91c1.96-.9,4.34-.37,6.36.02,1.57.31,2.24-2.1.66-2.41-3.66-.71-7.98-1.22-10.56,2.1-2.19,2.81-.95,6.44,2.2,7.83,1.76.78,3.69.7,5.54.29,1.56-.35,3.82-.77,4.88-2.09.92-1.15.67-2.82.67-4.2s0-2.89-.02-4.33c-.07-14.04-.27-28.07-.41-42.11-.07-7.1-.14-14.2-.14-21.3,0-1.61-2.5-1.61-2.5,0h0Z"/>
  <path class="st1" d="M203.02,245.65c-1.04,15.35.22,30.75.69,46.1.23,7.57.22,15.11-.2,22.67-.08,1.51.17,3.09,1.63,3.88s3.64.81,5.3.92c3,.2,7.21.56,9.71-1.51,1.16-.96,1.68-2.49,1.23-3.95s-1.84-2.49-3.21-3.1c-3.86-1.72-8.73-1.91-12.87-1.58-1.59.12-1.61,2.63,0,2.5,3.57-.28,7.21-.05,10.66.93,1,.28,2.48.78,2.96,1.81.58,1.22-.9,1.88-1.84,2.14-1.37.38-2.86.35-4.27.34-1.87,0-3.85-.07-5.69-.47-.88-.19-1.14-.47-1.13-1.38,0-.73.09-1.46.13-2.19.1-1.68.16-3.36.21-5.04.35-13.37-.63-26.73-1.02-40.08-.21-7.33-.27-14.68.22-22,.11-1.61-2.39-1.6-2.5,0h0Z"/>
  <path class="st1" d="M366.22,239.2c0,11.53.15,23.05.28,34.58.13,11.6.49,23.23.28,34.83-.02,1.06-.38,1.23-1.35,1.54s-2.03.65-3.08.81c-1.67.25-3.83,0-4.75-1.64s.5-3.26,1.92-3.91c1.96-.9,4.34-.37,6.36.02,1.57.31,2.24-2.1.66-2.41-3.66-.71-7.98-1.22-10.56,2.1-2.19,2.81-.95,6.44,2.2,7.83,1.76.78,3.69.7,5.54.29,1.56-.35,3.82-.77,4.88-2.09.92-1.15.67-2.82.67-4.2s0-2.89-.02-4.33c-.07-14.04-.27-28.07-.41-42.11-.07-7.1-.14-14.2-.14-21.3,0-1.61-2.5-1.61-2.5,0h0Z"/>
  <path class="st1" d="M398.09,239.79c-1.04,15.35.22,30.75.69,46.1.23,7.57.22,15.11-.2,22.67-.08,1.51.17,3.09,1.63,3.88s3.64.81,5.3.92c3,.2,7.21.56,9.71-1.51,1.16-.96,1.68-2.49,1.23-3.95s-1.84-2.49-3.21-3.1c-3.86-1.72-8.73-1.91-12.87-1.58-1.59.12-1.61,2.63,0,2.5,3.57-.28,7.21-.05,10.66.93,1,.28,2.48.78,2.96,1.81.58,1.22-.9,1.88-1.84,2.14-1.37.38-2.86.35-4.27.34-1.87,0-3.85-.07-5.69-.47-.88-.19-1.14-.47-1.13-1.38,0-.73.09-1.46.13-2.19.1-1.68.16-3.36.21-5.04.35-13.37-.63-26.73-1.02-40.08-.21-7.33-.27-14.68.22-22,.11-1.61-2.39-1.6-2.5,0h0Z"/>
  <g>
    <path class="st0" d="M405.99,164.14c-2.91,3.52-7.27,5.66-11.88,5.45-2.02-.09-4.27-.74-5.61-2.35-1.19-1.42-1.43-3.44-.35-4.96.62-.88.16-2.21-.71-2.72-1-.58-2.1-.17-2.72.71-1.74,2.47-1.54,5.89-.03,8.42,1.6,2.69,4.6,4.24,7.62,4.7,6.14.92,12.57-1.66,16.51-6.43.68-.83.81-2,0-2.82-.71-.71-2.13-.83-2.82,0h0Z"/>
    <path class="st0" d="M373.93,159.96c-1.97,3.38-6.2,5.32-10.04,4.36s-6.83-4.78-6.88-8.81c-.02-1.99-3.12-2-3.1,0,.06,5.37,3.88,10.49,9.16,11.8s10.87-1.2,13.54-5.79c1.01-1.73-1.67-3.29-2.68-1.56h0Z"/>
    <path class="st0" d="M384.77,178.29c-1.77,2.9-5.38,4.67-8.76,4.04s-6.12-3.44-6.84-6.82c-.23-1.05-1.46-1.66-2.45-1.39-1.09.3-1.62,1.39-1.39,2.45,1.02,4.74,5.07,8.82,9.89,9.65,5.09.87,10.31-1.51,12.99-5.92,1.34-2.2-2.11-4.2-3.44-2.01h0Z"/>
  </g>
  <path class="st1" d="M263.04,189.11c6.84,7.25,12.94,15.14,18.22,23.58l.57-2.18c-3.16,1.47-5.74,5.52-4.46,9.04,1.4,3.84,6.53,3.25,9.43,1.73,3.05-1.6,5.85-5.27,5.4-8.88-.24-1.94-1.72-3.36-3.57-3.85-2.17-.57-4.28.29-6.24,1.14-.8.34-.96,1.5-.57,2.18.47.82,1.39.91,2.18.57,1.69-.73,5.73-1.87,4.95,1.44-.47,2.02-1.93,3.69-3.75,4.65-1.17.62-4.6,1.64-4.93-.44s1.44-4.02,3.18-4.83c.77-.36.99-1.5.57-2.18-5.42-8.67-11.7-16.79-18.72-24.23-1.41-1.49-3.66.76-2.25,2.25h0Z"/>
  <path class="st1" d="M453.51,189.11c6.84,7.25,12.94,15.14,18.22,23.58l.57-2.18c-3.16,1.47-5.74,5.52-4.46,9.04,1.4,3.84,6.53,3.25,9.43,1.73,3.05-1.6,5.85-5.27,5.4-8.88-.24-1.94-1.72-3.36-3.57-3.85-2.17-.57-4.28.29-6.24,1.14-.8.34-.96,1.5-.57,2.18.47.82,1.39.91,2.18.57,1.69-.73,5.73-1.87,4.95,1.44-.47,2.02-1.93,3.69-3.75,4.65-1.17.62-4.6,1.64-4.93-.44s1.44-4.02,3.18-4.83c.77-.36.99-1.5.57-2.18-5.42-8.67-11.7-16.79-18.72-24.23-1.41-1.49-3.66.76-2.25,2.25h0Z"/>
  <path class="st1" d="M306.34,186.36c-6.51,7.9-12.23,16.4-17.06,25.42-.52.98-.02,1.97.95,2.34,1.68.65,3.43,2.6,3.2,4.53-.25,2.13-3.86,1.22-5.1.64-1.77-.84-3.32-2.43-3.85-4.35-.92-3.37,3.45-2.19,5.15-1.59,1.94.68,2.77-2.39.85-3.07s-4.18-1.31-6.25-.51c-1.83.7-3.12,2.3-3.1,4.31.03,3.65,3.07,6.93,6.26,8.27s8.12,1.3,9.1-2.7c.92-3.74-2.14-7.34-5.41-8.59l.95,2.34c4.7-8.78,10.24-17.09,16.57-24.77,1.29-1.57-.95-3.84-2.25-2.25h0Z"/>
  <path class="st1" d="M118.33,186.36c-6.51,7.9-12.23,16.4-17.06,25.42-.52.98-.02,1.97.95,2.34,1.68.65,3.43,2.6,3.2,4.53-.25,2.13-3.86,1.22-5.1.64-1.77-.84-3.32-2.43-3.85-4.35-.92-3.37,3.45-2.19,5.15-1.59,1.94.68,2.77-2.39.85-3.07s-4.18-1.31-6.25-.51c-1.83.7-3.12,2.3-3.1,4.31.03,3.65,3.07,6.93,6.26,8.27s8.12,1.3,9.1-2.7c.92-3.74-2.14-7.34-5.41-8.59l.95,2.34c4.7-8.78,10.24-17.09,16.57-24.77,1.29-1.57-.95-3.84-2.25-2.25h0Z"/>
</svg>