<?xml version="1.0" encoding="UTF-8"?>
<svg id="Layer_1" xmlns="http://www.w3.org/2000/svg" xmlns:xlink="http://www.w3.org/1999/xlink" version="1.1" viewBox="0 0 1292.73 694.65">
  <!-- Generator: Adobe Illustrator 29.7.1, SVG Export Plug-In . SVG Version: 2.1.1 Build 8)  -->
  <defs>
    <style>
      .st0 {
        fill: none;
        stroke: #f7a500;
        stroke-miterlimit: 10;
      }

      .st1 {
        fill: #f7a500;
      }

      .st2 {
        fill: #98cd00;
      }

      .st3 {
        fill: url(#linear-gradient);
      }

      .st4 {
        fill: #ff0080;
      }

      .st5 {
        fill: #00273c;
      }

      .st6 {
        fill: #004f7b;
      }

      .st7 {
        fill: #00b9ae;
      }

      .st8 {
        fill: #ff2400;
      }

      .st9 {
        fill: #5e46a0;
      }
    </style>
    <linearGradient id="linear-gradient" x1="646.55" y1="649.96" x2="646.55" y2="44.69" gradientUnits="userSpaceOnUse">
      <stop offset="0" stop-color="#003058"/>
      <stop offset="1" stop-color="#00273c"/>
    </linearGradient>
  </defs>
  <rect class="st3" x="46.55" y="44.69" width="1200" height="605.26" rx="19.69" ry="19.69"/>
  <path class="st6" d="M331.2,589.12c.87-4.32,13.12-10.21,22.12-15.54,15.53-9.19,31.88-17.14,48.47-24.2,64.29-27.36,134.99-39.74,204.75-35.26,105.78,6.8,222.97,54.09,293.31,135.84,0,0-548.58,0-548.58,0-3.47-16.91-8.86-34.37-10.57-51.52-.62-6.17-10.08-6.42-9.5-9.32Z"/>
  <path class="st5" d="M47.2,490.21v126.47s-7.66,32.99,19.04,33.28h325.35s-100.03-180.47-344.39-159.75Z"/>
  <polyline class="st0" points="178.34 157.86 513.06 146.11 385.33 297.32 147.51 388.34 328.08 466.15 573.25 450"/>
  <path class="st9" d="M378.23,323.53l-28.36,7.24c-5.47,1.4-10.27-3.91-8.34-9.21l10.03-27.5c.75-2.05.5-4.32-.66-6.16l-15.65-24.73c-3.02-4.77.54-10.98,6.19-10.78l29.25,1.04c2.18.08,4.27-.86,5.66-2.54l18.69-22.53c3.61-4.35,10.61-2.88,12.16,2.55l8.05,28.14c.6,2.09,2.14,3.79,4.16,4.6l27.2,10.81c5.25,2.09,6.01,9.2,1.33,12.35l-24.28,16.35c-1.81,1.22-2.95,3.2-3.09,5.38l-1.88,29.21c-.36,5.64-6.89,8.56-11.34,5.08l-23.05-18.04c-1.72-1.34-3.96-1.81-6.07-1.27Z"/>
  <path class="st2" d="M184,182.83l-12.83,12.45c-2.47,2.4-6.63,1.05-7.22-2.35l-3.04-17.61c-.23-1.31-1.05-2.44-2.22-3.06l-15.8-8.35c-3.05-1.61-3.05-5.98,0-7.59l15.81-8.33c1.18-.62,2-1.75,2.23-3.06l3.06-17.61c.59-3.4,4.75-4.75,7.22-2.34l12.81,12.47c.95.93,2.28,1.36,3.6,1.17l17.69-2.53c3.41-.49,5.98,3.05,4.46,6.14l-7.9,16.04c-.59,1.19-.59,2.59,0,3.79l7.88,16.04c1.52,3.1-1.05,6.63-4.46,6.14l-17.69-2.55c-1.32-.19-2.65.24-3.6,1.17Z"/>
  <path class="st8" d="M154.08,408.47l-11.24,8.35c-2.17,1.61-5.26.13-5.36-2.57l-.54-13.99c-.04-1.04-.56-2-1.41-2.61l-11.41-8.11c-2.2-1.57-1.75-4.96.79-5.89l13.14-4.84c.98-.36,1.73-1.15,2.05-2.15l4.19-13.36c.81-2.58,4.17-3.2,5.85-1.07l8.66,11c.64.82,1.63,1.29,2.67,1.28l14-.14c2.7-.03,4.33,2.98,2.83,5.23l-7.79,11.64c-.58.87-.72,1.95-.39,2.94l4.46,13.27c.86,2.56-1.5,5.04-4.1,4.3l-13.47-3.81c-1-.28-2.08-.09-2.92.54Z"/>
  <path class="st7" d="M327.14,480.18l-13.88,1.82c-2.68.35-4.66-2.44-3.43-4.85l6.34-12.49c.47-.93.49-2.02.04-2.97l-6.02-12.64c-1.16-2.44.89-5.18,3.56-4.76l13.83,2.17c1.03.16,2.08-.16,2.83-.88l10.17-9.63c1.96-1.86,5.2-.76,5.63,1.91l2.21,13.83c.16,1.03.8,1.92,1.71,2.42l12.3,6.69c2.37,1.29,2.33,4.71-.08,5.94l-12.47,6.38c-.93.47-1.58,1.35-1.77,2.38l-2.56,13.77c-.49,2.66-3.76,3.67-5.68,1.76l-9.92-9.89c-.74-.74-1.78-1.09-2.81-.95Z"/>
  <path class="st1" d="M573.78,466.25l-12.57,6.18c-2.42,1.19-5.19-.82-4.81-3.49l1.99-13.86c.15-1.03-.19-2.07-.92-2.82l-9.76-10.04c-1.88-1.94-.83-5.19,1.84-5.65l13.8-2.39c1.03-.18,1.91-.82,2.4-1.74l6.53-12.38c1.26-2.39,4.68-2.39,5.94,0l6.53,12.38c.49.92,1.37,1.57,2.4,1.74l13.8,2.39c2.66.46,3.72,3.72,1.84,5.65l-9.76,10.04c-.73.75-1.06,1.79-.92,2.82l1.99,13.86c.38,2.67-2.38,4.69-4.81,3.49l-12.57-6.18c-.94-.46-2.03-.46-2.97,0Z"/>
  <path class="st4" d="M512.67,168.12l-13.52,7.95c-2.61,1.53-5.87-.48-5.66-3.5l1.07-15.65c.08-1.16-.39-2.3-1.26-3.07l-11.74-10.41c-2.27-2.01-1.35-5.73,1.58-6.47l15.22-3.82c1.13-.28,2.07-1.08,2.54-2.15l6.27-14.38c1.21-2.77,5.03-3.06,6.64-.49l8.33,13.29c.62.99,1.66,1.63,2.83,1.75l15.61,1.52c3.01.29,4.47,3.84,2.52,6.16l-10.07,12.03c-.75.9-1.04,2.09-.79,3.23l3.38,15.32c.65,2.96-2.27,5.43-5.08,4.3l-14.55-5.86c-1.08-.44-2.31-.34-3.31.25Z"/>
</svg>