<?xml version="1.0" encoding="UTF-8"?>
<svg id="Layer_1" xmlns="http://www.w3.org/2000/svg" version="1.1" viewBox="0 0 472.01 433.52">
  <!-- Generator: Adobe Illustrator 29.7.1, SVG Export Plug-In . SVG Version: 2.1.1 Build 8)  -->
  <defs>
    <style>
      .st0 {
        fill: #573bb4;
      }

      .st1 {
        fill: #fff;
      }

      .st2 {
        fill: #f93800;
      }

      .st3 {
        fill: #f9a700;
      }
    </style>
  </defs>
  <path class="st2" d="M238.45,388.11c-94.48,0-175.08-78.06-176.22-172.53-1.33-109.49,81.74-170.16,176.22-170.16s171.35,76.87,171.35,171.35-76.87,171.35-171.35,171.35h0Z"/>
  <path class="st3" d="M233.86,376.38c-82.3,0-149.26-66.96-149.26-149.26,0-51.91,27.91-101.03,72.31-127.85,48.35-29.21,111.8-27.92,158.94,3.19,41.56,27.43,70.21,57.37,71.53,125.72,1.6,82.28-71.23,148.2-153.53,148.2h0Z"/>
  <path class="st0" d="M354,236.27c0,69.32-56.2,125.52-125.52,125.52s-125.52-56.2-125.52-125.52,55.97-133.64,125.17-129.53c67.02,3.98,125.87,60.2,125.87,129.53h0Z"/>
  <path class="st0" d="M319.41,128.31l-15.82,5.25c-3.05,1.01-5.99-1.81-5.11-4.9l4.59-16.02c.34-1.19.11-2.48-.62-3.47l-9.89-13.42c-1.91-2.59-.13-6.26,3.08-6.37l16.66-.58c1.24-.04,2.39-.66,3.11-1.67l9.71-13.55c1.87-2.61,5.91-2.06,7.01.96l5.7,15.66c.42,1.17,1.37,2.07,2.55,2.44l15.89,5.05c3.07.97,3.79,4.98,1.25,6.96l-13.13,10.26c-.98.76-1.54,1.94-1.54,3.18l.11,16.67c.02,3.22-3.57,5.14-6.24,3.34l-13.82-9.32c-1.03-.69-2.32-.87-3.5-.48h.01Z"/>
  <g>
    <path class="st1" d="M160.88,187.54c.52,0,.96.17,1.3.5s.53.75.53,1.27-.18.92-.53,1.25-.79.5-1.3.5h-9.75c-.52,0-.96-.17-1.3-.53-.35-.35-.53-.78-.53-1.3v-17.34c0-.52.18-.96.54-1.3s.82-.53,1.38-.53c.48,0,.9.18,1.28.53.37.35.55.79.55,1.3v16.17l-.66-.51h8.49Z"/>
    <path class="st1" d="M173.42,191.35c-1.7,0-3.17-.35-4.42-1.06s-2.21-1.67-2.88-2.9c-.67-1.22-1-2.6-1-4.14,0-1.8.36-3.33,1.09-4.61.73-1.27,1.68-2.24,2.87-2.92,1.18-.68,2.43-1.02,3.75-1.02,1.02,0,1.98.21,2.89.63s1.71,1,2.42,1.72c.7.73,1.25,1.58,1.67,2.54s.62,1.98.62,3.06c-.02.48-.21.87-.57,1.17s-.78.45-1.26.45h-11.46l-.9-3h11.01l-.66.6v-.81c-.04-.58-.25-1.1-.62-1.56s-.83-.83-1.38-1.09c-.55-.27-1.14-.41-1.75-.41s-1.16.08-1.68.24c-.52.16-.97.43-1.35.81s-.68.89-.9,1.53-.33,1.45-.33,2.43c0,1.08.22,2,.67,2.75s1.03,1.32,1.74,1.71,1.46.58,2.26.58c.74,0,1.33-.06,1.77-.18s.79-.27,1.07-.44c.27-.17.51-.31.74-.43.36-.18.7-.27,1.02-.27.44,0,.8.15,1.09.45s.44.65.44,1.05c0,.54-.28,1.03-.84,1.47-.52.44-1.25.82-2.19,1.15-.94.33-1.91.5-2.91.5h-.02Z"/>
    <path class="st1" d="M196.82,174.7c.52,0,.95.17,1.29.51s.51.78.51,1.32v12.69c0,.52-.17.96-.51,1.3-.34.35-.77.53-1.29.53s-.95-.17-1.29-.53c-.34-.35-.51-.78-.51-1.3v-1.47l.66.27c0,.26-.14.58-.42.95s-.66.74-1.14,1.09c-.48.36-1.04.67-1.69.92-.65.25-1.36.38-2.12.38-1.38,0-2.63-.35-3.75-1.06s-2.01-1.69-2.66-2.94c-.65-1.25-.97-2.68-.97-4.3s.32-3.08.97-4.33,1.53-2.23,2.62-2.94,2.32-1.06,3.66-1.06c.86,0,1.65.13,2.37.39s1.34.59,1.88.99c.53.4.94.8,1.23,1.21s.44.75.44,1.04l-1.08.39v-2.19c0-.52.17-.96.51-1.31.34-.35.77-.52,1.29-.52v-.03ZM190.76,188.05c.88,0,1.65-.22,2.31-.66s1.17-1.04,1.54-1.8c.37-.76.56-1.61.56-2.55s-.19-1.82-.56-2.58-.88-1.36-1.54-1.8c-.66-.44-1.43-.66-2.31-.66s-1.62.22-2.28.66-1.17,1.04-1.54,1.8-.55,1.62-.55,2.58.18,1.79.55,2.55c.37.76.88,1.36,1.54,1.8.66.44,1.42.66,2.28.66Z"/>
    <path class="st1" d="M204.32,191.05c-.52,0-.95-.17-1.29-.53-.34-.35-.51-.78-.51-1.3v-12.39c0-.52.17-.96.51-1.31.34-.35.77-.52,1.29-.52s.95.17,1.29.52.51.79.51,1.31v2.82l-.21-2.01c.22-.48.5-.9.86-1.27.35-.37.74-.68,1.18-.93.44-.25.91-.43,1.41-.55s1-.18,1.5-.18c.6,0,1.1.17,1.51.51s.62.74.62,1.2c0,.66-.17,1.13-.51,1.42s-.71.43-1.11.43-.72-.07-1.04-.21c-.31-.14-.67-.21-1.06-.21-.36,0-.73.09-1.09.25-.37.17-.71.44-1.02.79-.31.36-.56.81-.75,1.33-.19.53-.29,1.16-.29,1.88v7.11c0,.52-.17.96-.51,1.3-.34.35-.77.53-1.29.53h0Z"/>
    <path class="st1" d="M224.12,174.7c1.48,0,2.6.31,3.38.93.77.62,1.3,1.45,1.59,2.47.29,1.03.43,2.18.43,3.44v7.68c0,.52-.17.96-.51,1.3-.34.35-.77.53-1.29.53s-.95-.17-1.29-.53c-.34-.35-.51-.78-.51-1.3v-7.68c0-.66-.08-1.25-.25-1.79-.17-.53-.48-.96-.92-1.28-.44-.32-1.07-.48-1.89-.48s-1.47.16-2.02.48c-.55.32-.97.75-1.26,1.28s-.44,1.12-.44,1.79v7.68c0,.52-.17.96-.51,1.3-.34.35-.77.53-1.29.53s-.95-.17-1.29-.53c-.34-.35-.51-.78-.51-1.3v-12.39c0-.52.17-.96.51-1.31.34-.35.77-.52,1.29-.52s.95.17,1.29.52.51.79.51,1.31v1.29l-.45-.09c.18-.34.44-.71.78-1.1s.74-.75,1.2-1.09.98-.62,1.56-.83,1.21-.31,1.89-.31h0Z"/>
    <path class="st1" d="M234.98,173.05c-.68,0-1.16-.11-1.44-.33s-.42-.61-.42-1.17v-.57c0-.58.15-.97.46-1.18.31-.21.78-.32,1.42-.32.7,0,1.19.11,1.47.33s.42.61.42,1.17v.57c0,.58-.15.97-.45,1.18-.3.21-.79.32-1.47.32h0ZM236.81,189.22c0,.52-.17.96-.51,1.3-.34.35-.77.53-1.29.53s-.95-.17-1.29-.53c-.34-.35-.51-.78-.51-1.3v-12.39c0-.52.17-.96.51-1.31.34-.35.77-.52,1.29-.52s.95.17,1.29.52.51.79.51,1.31v12.39Z"/>
    <path class="st1" d="M249.08,174.7c1.48,0,2.6.31,3.38.93.77.62,1.3,1.45,1.59,2.47.29,1.03.43,2.18.43,3.44v7.68c0,.52-.17.96-.51,1.3-.34.35-.77.53-1.29.53s-.95-.17-1.29-.53c-.34-.35-.51-.78-.51-1.3v-7.68c0-.66-.08-1.25-.25-1.79-.17-.53-.48-.96-.92-1.28-.44-.32-1.07-.48-1.89-.48s-1.47.16-2.02.48c-.55.32-.97.75-1.26,1.28s-.44,1.12-.44,1.79v7.68c0,.52-.17.96-.51,1.3-.34.35-.77.53-1.29.53s-.95-.17-1.29-.53c-.34-.35-.51-.78-.51-1.3v-12.39c0-.52.17-.96.51-1.31.34-.35.77-.52,1.29-.52s.95.17,1.29.52.51.79.51,1.31v1.29l-.45-.09c.18-.34.44-.71.78-1.1s.74-.75,1.2-1.09.98-.62,1.56-.83,1.21-.31,1.89-.31h0Z"/>
    <path class="st1" d="M265.04,174.7c.84,0,1.61.13,2.31.39s1.3.59,1.82.99c.51.4.91.8,1.2,1.21s.44.75.44,1.04l-.78.39v-2.19c0-.52.17-.96.51-1.31.34-.35.77-.52,1.29-.52s.95.17,1.29.51.51.78.51,1.32v13.35c0,1.74-.38,3.13-1.12,4.18-.75,1.05-1.74,1.81-2.96,2.28s-2.53.71-3.93.71c-.4,0-.92-.05-1.56-.15-.64-.1-1.25-.22-1.83-.36s-1.02-.27-1.32-.39c-.6-.26-1.01-.58-1.25-.97-.23-.39-.27-.81-.13-1.25.18-.58.47-.97.87-1.18.4-.21.82-.24,1.26-.08.2.06.53.18.99.36.46.18.96.34,1.51.49.55.15,1.04.23,1.46.23,1.5,0,2.61-.3,3.33-.9.72-.6,1.08-1.43,1.08-2.49v-2.61l.36.27c0,.26-.13.58-.41.95-.27.37-.64.74-1.11,1.09-.47.36-1.02.67-1.67.92-.64.25-1.32.38-2.04.38-1.42,0-2.7-.35-3.84-1.06-1.14-.71-2.04-1.69-2.7-2.94s-.99-2.68-.99-4.3.33-3.08.99-4.33,1.55-2.23,2.67-2.94c1.12-.71,2.37-1.06,3.75-1.06v-.03ZM265.61,178c-.9,0-1.69.22-2.37.66s-1.21,1.04-1.59,1.8-.57,1.62-.57,2.58.19,1.79.57,2.55c.38.76.91,1.36,1.59,1.8s1.47.66,2.37.66,1.72-.22,2.4-.66,1.21-1.04,1.59-1.8c.38-.76.57-1.61.57-2.55s-.19-1.82-.57-2.58-.91-1.36-1.59-1.8-1.48-.66-2.4-.66Z"/>
    <path class="st1" d="M149.18,210.34h7.11c.48,0,.88.16,1.2.48s.48.72.48,1.2-.16.85-.48,1.16c-.32.31-.72.46-1.2.46h-7.11c-.48,0-.88-.16-1.2-.48s-.48-.72-.48-1.2.16-.84.48-1.16c.32-.31.72-.46,1.2-.46ZM152.39,206.59c.52,0,.95.18,1.28.53s.5.79.5,1.3v13.35c0,.28.05.51.17.69.11.18.26.31.45.39s.4.12.62.12c.24,0,.46-.04.66-.13.2-.09.43-.13.69-.13.28,0,.53.13.76.39s.34.62.34,1.08c0,.56-.3,1.02-.92,1.38s-1.26.54-1.96.54c-.42,0-.88-.04-1.39-.11s-.99-.24-1.44-.51c-.45-.27-.83-.68-1.12-1.25-.3-.56-.45-1.33-.45-2.31v-13.5c0-.52.17-.96.53-1.3.35-.35.78-.53,1.3-.53h-.02Z"/>
    <path class="st1" d="M169.7,209.74c1.44,0,2.54.31,3.29.93s1.26,1.45,1.54,2.47c.28,1.03.42,2.18.42,3.44v7.68c0,.52-.17.96-.51,1.3-.34.35-.77.53-1.29.53s-.95-.17-1.29-.53c-.34-.35-.51-.78-.51-1.3v-7.68c0-.66-.08-1.25-.24-1.79-.16-.53-.45-.96-.87-1.28-.42-.32-1.02-.48-1.8-.48s-1.41.16-1.95.48c-.54.32-.95.75-1.21,1.28-.27.53-.41,1.12-.41,1.79v7.68c0,.52-.17.96-.51,1.3-.34.35-.77.53-1.29.53s-.95-.17-1.29-.53c-.34-.35-.51-.78-.51-1.3v-18.54c0-.52.17-.96.51-1.3s.77-.53,1.29-.53.95.18,1.29.53.51.79.51,1.3v7.44l-.45-.09c.18-.34.43-.71.75-1.1s.71-.75,1.17-1.09.97-.62,1.53-.83,1.17-.31,1.83-.31Z"/>
    <path class="st1" d="M186.41,226.39c-1.7,0-3.17-.35-4.42-1.06s-2.21-1.67-2.88-2.9c-.67-1.22-1-2.6-1-4.14,0-1.8.36-3.33,1.09-4.61.73-1.27,1.68-2.24,2.87-2.92,1.18-.68,2.43-1.02,3.75-1.02,1.02,0,1.98.21,2.89.63s1.71,1,2.42,1.72c.7.73,1.25,1.58,1.67,2.54s.62,1.98.62,3.06c-.02.48-.21.87-.57,1.17s-.78.45-1.26.45h-11.46l-.9-3h11.01l-.66.6v-.81c-.04-.58-.25-1.1-.62-1.56s-.83-.83-1.38-1.09c-.55-.27-1.14-.41-1.75-.41s-1.16.08-1.68.24c-.52.16-.97.43-1.35.81s-.68.89-.9,1.53-.33,1.45-.33,2.43c0,1.08.22,2,.67,2.75s1.03,1.32,1.74,1.71,1.46.58,2.26.58c.74,0,1.33-.06,1.77-.18s.79-.27,1.07-.44c.27-.17.51-.31.74-.43.36-.18.7-.27,1.02-.27.44,0,.8.15,1.09.45s.44.65.44,1.05c0,.54-.28,1.03-.84,1.47-.52.44-1.25.82-2.19,1.15-.94.33-1.91.5-2.91.5h-.02Z"/>
    <path class="st1" d="M208.85,224.26c0,.52-.17.96-.52,1.3s-.79.53-1.31.53-.92-.17-1.26-.53c-.34-.35-.51-.78-.51-1.3v-18.54c0-.52.17-.96.53-1.3.35-.35.78-.53,1.3-.53s.95.18,1.28.53.49.79.49,1.3v18.54h0Z"/>
    <path class="st1" d="M226.19,209.74c.52,0,.95.17,1.29.51s.51.78.51,1.32v12.69c0,.52-.17.96-.51,1.3-.34.35-.77.53-1.29.53s-.95-.17-1.29-.53c-.34-.35-.51-.78-.51-1.3v-1.47l.66.27c0,.26-.14.58-.42.95s-.66.74-1.14,1.09c-.48.36-1.04.67-1.69.92-.65.25-1.36.38-2.12.38-1.38,0-2.63-.35-3.75-1.06s-2.01-1.69-2.66-2.94c-.65-1.25-.97-2.68-.97-4.3s.32-3.08.97-4.33,1.53-2.23,2.62-2.94,2.32-1.06,3.66-1.06c.86,0,1.65.13,2.37.39s1.34.59,1.88.99c.53.4.94.8,1.23,1.21s.44.75.44,1.04l-1.08.39v-2.19c0-.52.17-.96.51-1.31.34-.35.77-.52,1.29-.52v-.03ZM220.13,223.09c.88,0,1.65-.22,2.31-.66s1.17-1.04,1.54-1.8c.37-.76.56-1.61.56-2.55s-.19-1.82-.56-2.58-.88-1.36-1.54-1.8c-.66-.44-1.43-.66-2.31-.66s-1.62.22-2.28.66-1.17,1.04-1.54,1.8-.55,1.62-.55,2.58.18,1.79.55,2.55c.37.76.88,1.36,1.54,1.8.66.44,1.42.66,2.28.66Z"/>
    <path class="st1" d="M243.8,210.04c.52,0,.95.17,1.29.52s.51.79.51,1.31v12.75c0,1.84-.34,3.3-1.04,4.39s-1.62,1.88-2.78,2.36-2.46.72-3.9.72c-.64,0-1.32-.05-2.04-.15-.72-.1-1.31-.25-1.77-.45-.6-.26-1.01-.58-1.25-.98-.23-.39-.27-.8-.13-1.25.18-.58.47-.97.87-1.18s.82-.24,1.26-.08c.32.1.74.25,1.26.46.52.21,1.12.32,1.8.32.92,0,1.68-.12,2.29-.38.61-.25,1.07-.67,1.38-1.26s.46-1.4.46-2.42v-2.01l.63.72c-.34.66-.76,1.21-1.27,1.63-.51.43-1.12.75-1.82.97s-1.5.33-2.4.33c-1.06,0-1.99-.25-2.78-.73-.79-.49-1.41-1.17-1.84-2.04-.44-.87-.66-1.87-.66-2.99v-8.76c0-.52.17-.96.51-1.31.34-.35.77-.52,1.29-.52s.95.17,1.29.52.51.79.51,1.31v7.68c0,1.3.29,2.22.86,2.75s1.36.79,2.38.79c.7,0,1.29-.13,1.77-.41.48-.27.85-.67,1.11-1.2s.39-1.17.39-1.93v-7.68c0-.52.17-.96.51-1.31.34-.35.77-.52,1.29-.52l.02.03Z"/>
    <path class="st1" d="M256.91,226.39c-1.7,0-3.17-.35-4.42-1.06s-2.21-1.67-2.88-2.9c-.67-1.22-1-2.6-1-4.14,0-1.8.36-3.33,1.09-4.61.73-1.27,1.68-2.24,2.87-2.92,1.18-.68,2.43-1.02,3.75-1.02,1.02,0,1.98.21,2.89.63s1.71,1,2.42,1.72c.7.73,1.25,1.58,1.67,2.54s.62,1.98.62,3.06c-.02.48-.21.87-.57,1.17-.36.3-.78.45-1.26.45h-11.46l-.9-3h11.01l-.66.6v-.81c-.04-.58-.25-1.1-.62-1.56s-.83-.83-1.38-1.09c-.55-.27-1.14-.41-1.75-.41s-1.16.08-1.68.24c-.52.16-.97.43-1.35.81s-.68.89-.9,1.53-.33,1.45-.33,2.43c0,1.08.22,2,.67,2.75s1.03,1.32,1.74,1.71,1.46.58,2.26.58c.74,0,1.33-.06,1.77-.18s.79-.27,1.07-.44c.27-.17.51-.31.74-.43.36-.18.7-.27,1.02-.27.44,0,.8.15,1.09.45s.44.65.44,1.05c0,.54-.28,1.03-.84,1.47-.52.44-1.25.82-2.19,1.15-.94.33-1.91.5-2.91.5h-.02Z"/>
    <path class="st1" d="M268.85,226.09c-.52,0-.95-.17-1.29-.53-.34-.35-.51-.78-.51-1.3v-12.39c0-.52.17-.96.51-1.31.34-.35.77-.52,1.29-.52s.95.17,1.29.52.51.79.51,1.31v2.82l-.21-2.01c.22-.48.5-.9.86-1.27.35-.37.74-.68,1.18-.93s.91-.43,1.41-.55,1-.18,1.5-.18c.6,0,1.1.17,1.51.51s.62.74.62,1.2c0,.66-.17,1.13-.51,1.42s-.71.43-1.11.43-.72-.07-1.04-.21c-.31-.14-.67-.21-1.06-.21-.36,0-.73.09-1.09.25-.37.17-.71.44-1.02.79-.31.36-.56.81-.75,1.33-.19.53-.29,1.16-.29,1.88v7.11c0,.52-.17.96-.51,1.3-.34.35-.77.53-1.29.53h0Z"/>
    <path class="st1" d="M279.14,223.6c-.2-.28-.29-.64-.27-1.08.02-.44.28-.82.78-1.14.32-.2.66-.29,1.02-.25.36.03.71.21,1.05.55.58.58,1.19,1.03,1.83,1.35.64.32,1.44.48,2.4.48.3-.02.63-.06.99-.13s.67-.23.94-.48.41-.63.41-1.15c0-.44-.15-.79-.45-1.05-.3-.26-.7-.48-1.18-.66-.49-.18-1.04-.35-1.63-.51-.62-.18-1.26-.38-1.91-.6s-1.25-.5-1.79-.86c-.54-.35-.98-.81-1.32-1.39s-.51-1.31-.51-2.19c0-1,.28-1.85.84-2.55s1.29-1.24,2.17-1.62c.89-.38,1.83-.57,2.81-.57.62,0,1.27.07,1.95.22.68.15,1.33.39,1.95.72s1.14.77,1.56,1.31c.22.3.35.66.39,1.08s-.15.8-.57,1.14c-.3.24-.65.34-1.05.31s-.73-.17-.99-.4c-.34-.44-.8-.79-1.37-1.05-.57-.26-1.23-.39-1.96-.39-.3,0-.63.04-.98.11s-.66.22-.92.45-.39.6-.39,1.1c0,.46.15.83.45,1.09.3.27.71.49,1.21.66s1.05.33,1.63.5c.6.16,1.21.35,1.83.57s1.19.51,1.71.87.94.83,1.26,1.4c.32.57.48,1.29.48,2.17,0,1.02-.3,1.89-.9,2.61s-1.35,1.26-2.25,1.63c-.9.37-1.82.55-2.76.55-1.18,0-2.36-.21-3.54-.62-1.18-.41-2.16-1.13-2.94-2.17h.02Z"/>
    <path class="st1" d="M164.57,253.12c0,1.64-.36,3.08-1.09,4.33s-1.71,2.22-2.94,2.92-2.61,1.05-4.12,1.05-2.9-.35-4.12-1.05c-1.23-.7-2.21-1.67-2.94-2.92s-1.09-2.7-1.09-4.33.36-3.08,1.09-4.33,1.71-2.23,2.94-2.94,2.6-1.06,4.12-1.06,2.89.35,4.12,1.06c1.23.71,2.21,1.69,2.94,2.94s1.09,2.7,1.09,4.33h0ZM160.97,253.12c0-1.02-.21-1.91-.62-2.66s-.96-1.33-1.65-1.75c-.69-.42-1.46-.63-2.29-.63s-1.61.21-2.29.63c-.69.42-1.24,1-1.65,1.75-.41.75-.62,1.63-.62,2.66s.21,1.88.62,2.62c.41.75.96,1.33,1.65,1.75.69.42,1.45.63,2.29.63s1.6-.21,2.29-.63c.69-.42,1.24-1,1.65-1.75s.62-1.62.62-2.62Z"/>
    <path class="st1" d="M176.3,245.38c.48,0,.88.16,1.2.46.32.31.48.71.48,1.19s-.16.88-.48,1.18c-.32.31-.72.46-1.2.46h-7.95c-.48,0-.88-.15-1.2-.46-.32-.31-.48-.71-.48-1.18s.16-.88.48-1.19c.32-.31.72-.46,1.2-.46h7.95ZM175.97,238.93c.44,0,.87.06,1.29.18s.77.31,1.05.58.42.62.42,1.06c0,.5-.15.9-.43,1.19-.29.29-.63.43-1.01.43-.18,0-.45-.04-.81-.13s-.71-.13-1.05-.13c-.5,0-.88.11-1.16.33-.27.22-.46.48-.55.77-.1.29-.15.54-.15.76v15.33c0,.52-.17.96-.51,1.3-.34.35-.77.53-1.29.53s-.95-.17-1.29-.53c-.34-.35-.51-.78-.51-1.3v-15.3c0-1.42.5-2.62,1.5-3.6,1-.98,2.5-1.47,4.5-1.47h0Z"/>
    <path class="st1" d="M189.41,245.38h7.11c.48,0,.88.16,1.2.48s.48.72.48,1.2-.16.85-.48,1.16c-.32.31-.72.46-1.2.46h-7.11c-.48,0-.88-.16-1.2-.48s-.48-.72-.48-1.2.16-.84.48-1.16c.32-.31.72-.46,1.2-.46ZM192.62,241.63c.52,0,.95.18,1.28.53s.5.79.5,1.3v13.35c0,.28.05.51.17.69.11.18.26.31.45.39.19.08.4.12.62.12.24,0,.46-.04.66-.13s.43-.13.69-.13c.28,0,.53.13.76.39s.34.62.34,1.08c0,.56-.3,1.02-.92,1.38s-1.26.54-1.96.54c-.42,0-.88-.04-1.39-.11-.51-.07-.99-.24-1.44-.51-.45-.27-.83-.68-1.12-1.25-.3-.56-.45-1.33-.45-2.31v-13.5c0-.52.17-.96.53-1.3.35-.35.78-.53,1.3-.53h-.02Z"/>
    <path class="st1" d="M209.93,244.78c1.44,0,2.54.31,3.29.93s1.26,1.45,1.54,2.47c.28,1.03.42,2.18.42,3.44v7.68c0,.52-.17.96-.51,1.3-.34.35-.77.53-1.29.53s-.95-.17-1.29-.53c-.34-.35-.51-.78-.51-1.3v-7.68c0-.66-.08-1.25-.24-1.79-.16-.53-.45-.96-.87-1.28-.42-.32-1.02-.48-1.8-.48s-1.41.16-1.95.48c-.54.32-.95.75-1.21,1.28-.27.53-.41,1.12-.41,1.79v7.68c0,.52-.17.96-.51,1.3-.34.35-.77.53-1.29.53s-.95-.17-1.29-.53c-.34-.35-.51-.78-.51-1.3v-18.54c0-.52.17-.96.51-1.3s.77-.53,1.29-.53.95.18,1.29.53.51.79.51,1.3v7.44l-.45-.09c.18-.34.43-.71.75-1.1s.71-.75,1.17-1.09.97-.62,1.53-.83,1.17-.31,1.83-.31h0Z"/>
    <path class="st1" d="M226.64,261.43c-1.7,0-3.17-.35-4.42-1.06s-2.21-1.67-2.88-2.9c-.67-1.22-1-2.6-1-4.14,0-1.8.36-3.33,1.09-4.61.73-1.27,1.68-2.24,2.87-2.92,1.18-.68,2.43-1.02,3.75-1.02,1.02,0,1.98.21,2.89.63s1.71,1,2.42,1.72c.7.73,1.25,1.58,1.67,2.54s.62,1.98.62,3.06c-.02.48-.21.87-.57,1.17s-.78.45-1.26.45h-11.46l-.9-3h11.01l-.66.6v-.81c-.04-.58-.25-1.1-.62-1.56s-.83-.83-1.38-1.09c-.55-.27-1.14-.41-1.75-.41s-1.16.08-1.68.24c-.52.16-.97.43-1.35.81s-.68.89-.9,1.53-.33,1.45-.33,2.43c0,1.08.22,2,.67,2.75s1.03,1.32,1.74,1.71c.71.39,1.46.58,2.26.58.74,0,1.33-.06,1.77-.18s.79-.27,1.07-.44c.27-.17.51-.31.74-.43.36-.18.7-.27,1.02-.27.44,0,.8.15,1.09.45s.44.65.44,1.05c0,.54-.28,1.03-.84,1.47-.52.44-1.25.82-2.19,1.15s-1.91.5-2.91.5h-.02Z"/>
    <path class="st1" d="M238.34,243.13c-.68,0-1.16-.11-1.44-.33s-.42-.61-.42-1.17v-.57c0-.58.15-.97.46-1.18.31-.21.78-.32,1.42-.32.7,0,1.19.11,1.47.33s.42.61.42,1.17v.57c0,.58-.15.97-.45,1.18-.3.21-.79.32-1.47.32h0ZM240.17,259.3c0,.52-.17.96-.51,1.3-.34.35-.77.53-1.29.53s-.95-.17-1.29-.53c-.34-.35-.51-.78-.51-1.3v-12.39c0-.52.17-.96.51-1.31.34-.35.77-.52,1.29-.52s.95.17,1.29.52.51.79.51,1.31v12.39Z"/>
    <path class="st1" d="M245.66,261.13c-.52,0-.95-.17-1.29-.53-.34-.35-.51-.78-.51-1.3v-12.39c0-.52.17-.96.51-1.31.34-.35.77-.52,1.29-.52s.95.17,1.29.52.51.79.51,1.31v2.82l-.21-2.01c.22-.48.5-.9.86-1.27.35-.37.74-.68,1.18-.93.44-.25.91-.43,1.41-.55s1-.18,1.5-.18c.6,0,1.1.17,1.51.51s.62.74.62,1.2c0,.66-.17,1.13-.51,1.42s-.71.43-1.11.43-.72-.07-1.04-.21c-.31-.14-.67-.21-1.06-.21-.36,0-.73.09-1.09.25-.37.17-.71.44-1.02.79-.31.36-.56.81-.75,1.33-.19.53-.29,1.16-.29,1.88v7.11c0,.52-.17.96-.51,1.3-.34.35-.77.53-1.29.53h0Z"/>
    <path class="st1" d="M150.56,278.16c-.68,0-1.16-.11-1.44-.33s-.42-.61-.42-1.17v-.57c0-.58.15-.97.46-1.18.31-.21.78-.32,1.42-.32.7,0,1.19.11,1.47.33s.42.61.42,1.17v.57c0,.58-.15.97-.45,1.18s-.79.32-1.47.32h0ZM152.39,294.33c0,.52-.17.96-.51,1.3-.34.35-.77.53-1.29.53s-.95-.17-1.29-.53c-.34-.35-.51-.78-.51-1.3v-12.39c0-.52.17-.96.51-1.31s.77-.52,1.29-.52.95.17,1.29.52c.34.35.51.79.51,1.31v12.39Z"/>
    <path class="st1" d="M164.66,279.81c1.48,0,2.6.31,3.38.93.77.62,1.3,1.45,1.59,2.47.29,1.03.43,2.18.43,3.44v7.68c0,.52-.17.96-.51,1.3-.34.35-.77.53-1.29.53s-.95-.17-1.29-.53c-.34-.35-.51-.78-.51-1.3v-7.68c0-.66-.08-1.25-.25-1.79-.17-.53-.48-.96-.92-1.28s-1.07-.48-1.89-.48-1.47.16-2.02.48-.97.75-1.26,1.28-.44,1.12-.44,1.79v7.68c0,.52-.17.96-.51,1.3-.34.35-.77.53-1.29.53s-.95-.17-1.29-.53c-.34-.35-.51-.78-.51-1.3v-12.39c0-.52.17-.96.51-1.31s.77-.52,1.29-.52.95.17,1.29.52c.34.35.51.79.51,1.31v1.29l-.45-.09c.18-.34.44-.71.78-1.1s.74-.75,1.2-1.09.98-.62,1.56-.83,1.21-.31,1.89-.31h0Z"/>
    <path class="st1" d="M182.54,279.81c1.48,0,2.6.31,3.38.93.77.62,1.3,1.45,1.59,2.47.29,1.03.43,2.18.43,3.44v7.68c0,.52-.17.96-.51,1.3-.34.35-.77.53-1.29.53s-.95-.17-1.29-.53c-.34-.35-.51-.78-.51-1.3v-7.68c0-.66-.08-1.25-.25-1.79-.17-.53-.48-.96-.92-1.28s-1.07-.48-1.89-.48-1.47.16-2.02.48-.97.75-1.26,1.28-.44,1.12-.44,1.79v7.68c0,.52-.17.96-.51,1.3-.34.35-.77.53-1.29.53s-.95-.17-1.29-.53c-.34-.35-.51-.78-.51-1.3v-12.39c0-.52.17-.96.51-1.31s.77-.52,1.29-.52.95.17,1.29.52c.34.35.51.79.51,1.31v1.29l-.45-.09c.18-.34.44-.71.78-1.1s.74-.75,1.2-1.09.98-.62,1.56-.83,1.21-.31,1.89-.31h0Z"/>
    <path class="st1" d="M199.4,296.46c-1.7,0-3.17-.35-4.42-1.06s-2.21-1.67-2.88-2.9c-.67-1.22-1-2.6-1-4.14,0-1.8.36-3.33,1.09-4.61.73-1.27,1.68-2.24,2.87-2.92,1.18-.68,2.43-1.02,3.75-1.02,1.02,0,1.98.21,2.89.63s1.71,1,2.42,1.72c.7.73,1.25,1.58,1.67,2.54s.62,1.98.62,3.06c-.02.48-.21.87-.57,1.17-.36.3-.78.45-1.26.45h-11.46l-.9-3h11.01l-.66.6v-.81c-.04-.58-.25-1.1-.62-1.56s-.83-.83-1.38-1.09c-.55-.27-1.14-.41-1.75-.41s-1.16.08-1.68.24c-.52.16-.97.43-1.35.81s-.68.89-.9,1.53c-.22.64-.33,1.45-.33,2.43,0,1.08.22,2,.67,2.75s1.03,1.32,1.74,1.71c.71.39,1.46.58,2.26.58.74,0,1.33-.06,1.77-.18s.79-.27,1.07-.44c.27-.17.51-.31.74-.43.36-.18.7-.27,1.02-.27.44,0,.8.15,1.09.45s.44.65.44,1.05c0,.54-.28,1.03-.84,1.47-.52.44-1.25.82-2.19,1.15s-1.91.5-2.91.5h-.02Z"/>
    <path class="st1" d="M211.34,296.16c-.52,0-.95-.17-1.29-.53-.34-.35-.51-.78-.51-1.3v-12.39c0-.52.17-.96.51-1.31s.77-.52,1.29-.52.95.17,1.29.52c.34.35.51.79.51,1.31v2.82l-.21-2.01c.22-.48.5-.9.86-1.27.35-.37.74-.68,1.18-.93.44-.25.91-.43,1.41-.55s1-.18,1.5-.18c.6,0,1.1.17,1.51.51s.62.74.62,1.2c0,.66-.17,1.13-.51,1.42s-.71.43-1.11.43-.72-.07-1.04-.21c-.31-.14-.67-.21-1.06-.21-.36,0-.73.09-1.09.25-.37.17-.71.44-1.02.79-.31.36-.56.81-.75,1.33-.19.53-.29,1.16-.29,1.88v7.11c0,.52-.17.96-.51,1.3-.34.35-.77.53-1.29.53h0Z"/>
    <path class="st1" d="M249.44,280.11c.46,0,.86.17,1.2.52.34.35.51.79.51,1.33,0,.14,0,.27-.03.38-.02.11-.05.22-.09.32l-4.59,12.36c-.14.4-.39.71-.75.92-.36.21-.74.28-1.14.22-.68-.04-1.19-.42-1.53-1.14l-2.97-8.55.78.03-2.79,8.52c-.34.72-.85,1.1-1.53,1.14-.38.06-.75-.01-1.12-.22s-.62-.51-.76-.92l-4.59-12.36c-.08-.22-.12-.45-.12-.69,0-.48.16-.91.48-1.29.32-.38.76-.57,1.32-.57.38,0,.72.09,1.02.27s.51.47.63.87l3.63,9.84-.75-.06,2.73-7.41c.32-.74.87-1.11,1.65-1.11.44,0,.77.1,1,.29s.42.46.55.83l2.73,7.41-.9.12,3.69-9.9c.24-.76.82-1.14,1.74-1.14h0Z"/>
    <path class="st1" d="M269.57,288.15c0,1.64-.36,3.08-1.09,4.33s-1.71,2.22-2.94,2.92-2.61,1.05-4.12,1.05-2.9-.35-4.12-1.05c-1.23-.7-2.21-1.67-2.94-2.92s-1.09-2.7-1.09-4.33.36-3.08,1.09-4.33,1.71-2.23,2.94-2.94,2.6-1.06,4.12-1.06,2.89.35,4.12,1.06c1.23.71,2.21,1.69,2.94,2.94s1.09,2.7,1.09,4.33ZM265.97,288.15c0-1.02-.21-1.91-.62-2.66s-.96-1.33-1.65-1.75-1.46-.63-2.29-.63-1.61.21-2.29.63c-.69.42-1.24,1-1.65,1.75s-.62,1.63-.62,2.66.21,1.88.62,2.62c.41.75.96,1.33,1.65,1.75s1.45.63,2.29.63,1.6-.21,2.29-.63,1.24-1,1.65-1.75.62-1.62.62-2.62Z"/>
    <path class="st1" d="M274.52,296.16c-.52,0-.95-.17-1.29-.53-.34-.35-.51-.78-.51-1.3v-12.39c0-.52.17-.96.51-1.31s.77-.52,1.29-.52.95.17,1.29.52c.34.35.51.79.51,1.31v2.82l-.21-2.01c.22-.48.5-.9.86-1.27.35-.37.74-.68,1.18-.93s.91-.43,1.41-.55,1-.18,1.5-.18c.6,0,1.1.17,1.51.51s.62.74.62,1.2c0,.66-.17,1.13-.51,1.42s-.71.43-1.11.43-.72-.07-1.04-.21c-.31-.14-.67-.21-1.06-.21-.36,0-.73.09-1.09.25-.37.17-.71.44-1.02.79-.31.36-.56.81-.75,1.33-.19.53-.29,1.16-.29,1.88v7.11c0,.52-.17.96-.51,1.3-.34.35-.77.53-1.29.53h0Z"/>
    <path class="st1" d="M289.64,294.33c0,.52-.17.96-.52,1.3s-.79.53-1.31.53-.92-.17-1.26-.53c-.34-.35-.51-.78-.51-1.3v-18.54c0-.52.17-.96.53-1.3.35-.35.78-.53,1.3-.53s.95.18,1.28.53.49.79.49,1.3v18.54h0Z"/>
    <path class="st1" d="M306.68,273.96c.52,0,.95.17,1.29.51s.51.78.51,1.32v18.54c0,.52-.17.96-.51,1.3-.34.35-.77.53-1.29.53s-.95-.17-1.29-.53c-.34-.35-.51-.78-.51-1.3v-1.47l.66.27c0,.26-.14.58-.42.95-.28.37-.66.74-1.14,1.09-.48.36-1.04.67-1.69.92s-1.36.38-2.12.38c-1.38,0-2.63-.35-3.75-1.06s-2.01-1.69-2.66-2.94-.97-2.68-.97-4.3.32-3.08.97-4.33,1.53-2.23,2.62-2.94,2.32-1.06,3.66-1.06c.86,0,1.65.13,2.37.39s1.34.59,1.88.99c.53.4.94.8,1.23,1.21s.44.75.44,1.04l-1.08.39v-8.04c0-.52.17-.96.51-1.3s.77-.53,1.29-.53v-.03ZM300.62,293.16c.88,0,1.65-.22,2.31-.66s1.17-1.04,1.54-1.8c.37-.76.56-1.61.56-2.55s-.19-1.82-.56-2.58-.88-1.36-1.54-1.8-1.43-.66-2.31-.66-1.62.22-2.28.66-1.17,1.04-1.54,1.8-.55,1.62-.55,2.58.18,1.79.55,2.55c.37.76.88,1.36,1.54,1.8s1.42.66,2.28.66Z"/>
  </g>
</svg>