<?xml version="1.0" encoding="UTF-8"?>
<svg id="Layer_1" xmlns="http://www.w3.org/2000/svg" version="1.1" viewBox="0 0 786.24 433.52">
  <!-- Generator: Adobe Illustrator 29.7.1, SVG Export Plug-In . SVG Version: 2.1.1 Build 8)  -->
  <defs>
    <style>
      .st0 {
        fill: #00c7b4;
      }

      .st1 {
        fill: #f7a500;
      }

      .st2 {
        fill: #a5c700;
      }

      .st3 {
        fill: #563bb1;
      }

      .st4 {
        fill: #f63a00;
      }

      .st5 {
        fill: #f00081;
      }
    </style>
  </defs>
  <path class="st5" d="M439.51,307.31c39.22-21.85,79.21-44.24,123.8-52.8,11.09-2.13,23.82-4.15,34.31,1.33,8.51,4.45,14.55,13.04,15.12,22.7,1.39,23.37-22.4,38.87-39.92,49.38-21.06,12.63-44.32,21.12-68.3,26.23-3.91.83-2.25,6.82,1.65,5.99,23.1-4.93,45.61-13,66.15-24.73,18.9-10.8,42.43-25.8,46.15-49.13,1.66-10.38-1.19-20.69-8.29-28.49-7.12-7.83-17.22-11.39-27.64-11.62-12.1-.26-24.55,2.78-36.17,5.84s-23.46,7.18-34.8,11.84c-26.03,10.69-50.65,24.42-75.2,38.09-3.49,1.94-.36,7.31,3.13,5.36h0Z"/>
  <g>
    <path class="st1" d="M34.82,103.97c28.2,1.38,56.43,2.11,84.66,1.84,13.81-.13,27.63-.55,41.42-1.26,7.02-.36,14.04-.8,21.06-1.31,6.35-.46,13.02-.51,19.28-1.72s10.94-6.18,9.2-12.9c-1.64-6.32-7.32-11.78-13.14-14.38-7.97-3.58-17.42-.51-20.53,8.05s.64,18.35,7.39,24.09c13.93,11.83,35.15,8.53,51.81,6.7,3.93-.43,3.97-6.64,0-6.21-12.81,1.4-26.61,3.52-39.15-.53-6.54-2.11-12.63-6.72-14.43-13.65-1.19-4.57-.46-10.45,4.11-12.9,3.07-1.65,6.44-.94,9.35.63,3.47,1.88,9.62,7.04,8.8,11.67-.42,2.38-2.97,3.06-5.06,3.45-5.48,1.01-11.3,1.03-16.85,1.44-22.89,1.69-45.83,2.56-68.79,2.66-26.39.12-52.78-.59-79.14-1.88-3.99-.2-3.98,6.01,0,6.21h0Z"/>
    <path class="st0" d="M504.52,354.16c-3.26.65-10.28,1.07-10.1-4.15.09-2.63,3.25-5.04,5.15-6.43,5.59-4.11,12.31-6.8,19.03-8.33,21.68-4.94,43.56,2.76,64.52,7.56,36.63,8.4,75.15,7.51,111.23-3.14,20.81-6.14,40.61-15.47,58.63-27.54,3.3-2.21.2-7.59-3.13-5.36-35.66,23.89-78.08,36.32-121,35.52-10.24-.19-20.47-1.09-30.58-2.77-11.58-1.93-22.87-5.09-34.29-7.75-20.36-4.74-42.1-7.18-61.38,2.73-5.6,2.88-12.93,7.27-14.21,14-.67,3.53.93,6.93,3.48,9.32,3.98,3.73,9.34,3.3,14.3,2.32,3.91-.78,2.26-6.76-1.65-5.99h0Z"/>
    <path class="st3" d="M268.14,275.91c28.43-10.41,60.12-18.68,90.46-12.05,7.23,1.58,14.07,4.74,18.24,11.12,3.81,5.83,4.97,13.36,1.72,19.7-7.37,14.4-27.01,11.83-40.49,12.13-8.47.18-16.93.37-25.4.55-7.44.16-15.13-.22-22.49,1.01-12,2-21.15,12.48-18.33,24.97,2.98,13.15,15.5,18.64,27.93,18.03,14.62-.72,29.47-3.71,43.71-6.96,33.59-7.67,65.9-20.4,96.01-37.09,3.49-1.94.37-7.3-3.13-5.36-27.13,15.04-56.02,26.77-86.1,34.43-14.61,3.72-29.49,6.55-44.47,8.24-6.85.77-14.73,1.57-20.8-2.43-5.38-3.55-8.8-10.7-7.02-17.07,2.08-7.46,9.39-10.45,16.46-11.05,7.87-.67,15.89-.45,23.79-.62s16.4-.36,24.6-.54c7.58-.17,15.44.16,22.87-1.58,11.66-2.73,21.29-12.68,20.99-25.12-.31-13.12-9.9-23.29-21.95-27.14-15.2-4.86-32.92-4.32-48.54-2.27-17.08,2.24-33.57,7.22-49.71,13.13-3.72,1.36-2.11,7.36,1.65,5.99h0Z"/>
    <path class="st4" d="M308.02,229.78c-30.6-2.39-60.64-9.17-90.15-17.39-14.62-4.07-29.04-9.2-43.81-12.67-12.32-2.9-25.3-3.72-37.06,1.65-21.73,9.91-28.24,34.97-19.39,56.05,4.49,10.69,12.15,19.64,22.35,25.25,10.83,5.96,23.28,7.93,35.5,8.25,31.19.82,63.39-4.34,92.69-15.02,3.72-1.36,2.12-7.36-1.65-5.99-24.63,8.97-50.72,13.58-76.88,14.62-22.72.91-48.87-.83-62.37-22-5.78-9.06-8.94-20.41-6.95-31.13s9.09-19.52,18.85-24.23c11.67-5.63,24.94-3.74,37.01-.54,13.45,3.55,26.66,8,40.06,11.73,30.05,8.37,60.64,15.18,91.8,17.61,3.98.31,3.96-5.9,0-6.21h0Z"/>
    <path class="st2" d="M235.98,113.08c31.44-3.54,61.62-13.85,93.09-17.32,31.44-3.47,64.98-3.12,95.87,4.32,13.37,3.22,26.01,9.32,34.5,20.47s11,25.35,8.05,38.98c-6.31,29.2-32.36,45.7-58.24,56.26-31.29,12.78-65.13,16.35-98.66,14.18-3.99-.26-3.97,5.95,0,6.21,31.57,2.05,63.59-.91,93.46-11.76,26.78-9.73,54.91-24.88,66.15-52.66,5.21-12.87,6.58-27.87,1.75-41.07-4.6-12.57-13.98-22.94-25.7-29.31-13.5-7.33-29.15-9.56-44.2-11.39-17.25-2.11-34.67-2.79-52.04-2.04-19.15.83-38.14,3.5-56.87,7.56s-37.82,9.19-57.17,11.37c-3.93.44-3.97,6.65,0,6.21h0Z"/>
  </g>
</svg>