<?xml version="1.0" encoding="UTF-8"?>
<svg id="Layer_1" xmlns="http://www.w3.org/2000/svg" version="1.1" viewBox="0 0 473.44 378.62">
  <!-- Generator: Adobe Illustrator 29.7.1, SVG Export Plug-In . SVG Version: 2.1.1 Build 8)  -->
  <defs>
    <style>
      .st0 {
        fill: #f9a91a;
      }

      .st1 {
        fill: #00b6ad;
      }

      .st2 {
        fill: #fff;
      }

      .st3 {
        fill: #ea027f;
      }
    </style>
  </defs>
  <path class="st1" d="M222.7,277.6c-11.66,5.73-23.32,11.47-34.98,17.2-6.36,3.13-12.73,6.26-19.09,9.39-.76.38-1.52.77-2.3,1.13-.17.08-1.28.54-.52.27,1.09-.39-.98.23-1.22.27-1.74.3,1.6.03-.12-.04-.35-.01-2.38-.26-1.01,0s-.62-.22-.92-.35c-1.58-.66,1.48.72-.04-.05-.54-.27-2.05-1.57-.55-.22-.48-.43-.94-.89-1.37-1.37,1.03,1.14.17.2-.24-.57-.81-1.49.49,1.52-.05-.11-.1-.3-.51-2.34-.32-1.03.21,1.47-.06-1.62.07-1.7,0,0-.28,1.92-.26,1.77.04-.48.14-.96.21-1.44.34-2.4.69-4.8,1.04-7.21l3.51-24.41,3.4-23.65c1.21-8.44,2.48-16.66-2.07-24.56-2.69-4.67-7.23-8.58-10.96-12.42-5.92-6.09-11.84-12.18-17.76-18.27l-16.11-16.57c-1.15-1.19-2.3-2.38-3.46-3.56-.05-.05-.1-.1-.14-.15-1.5-1.49-.41-.51-.15-.1-.34-.54-.66-1.08-.95-1.65.92,1.81.23.57.12.03-.57-2.86-.07,1.6-.12-.19-.01-.58.08-1.23,0-1.79-.16-1.01-.61,1.62.09-.15.22-.55.33-1.14.55-1.69-.91,2.25-.04.6.07.23.64-2.3-.65.75.17-.27.2-.26,1.62-1.55.56-.66s.5-.26.78-.45c1.32-.88-1.59.43-.02-.06.83-.26,1.65-.46,2.5-.64,1.44-.29,2.9-.5,4.35-.75l22.26-3.85,25.07-4.34c4.53-.78,9.47-1.15,13.84-2.69,8.69-3.06,13.27-9.56,17.29-17.18l10.75-20.38,11.84-22.45,3.68-6.97c.24-.46.48-.94.74-1.39.03-.06.06-.12.1-.18.33-.58.65-1.17,1.04-1.71-1.29,1.77.57-.37.84-.6-1.88,1.62,2.49-.77-.16.11.57-.19,1.15-.32,1.71-.5,1.89-.61.23.03-.28.01.5.01,1.26.06,1.78,0-1.75.21-1.2-.31-.28-.01.57.18,1.15.32,1.71.5-2.31-.77.03.16.6.5-2.24-1.36,1.44,1.84.08-.01.41.56.73,1.16,1.07,1.76.24.42.45.86.68,1.29,2.98,5.6,5.92,11.22,8.88,16.83,6.64,12.59,13.12,25.29,19.94,37.79,7.95,14.57,25.38,14.72,39.8,17.21,13.49,2.33,27.09,4.34,40.53,7.01.22.04.43.08.66.13.81.18,1.61.37,2.38.68-1.54-.62-.24.25-.08.14.27-.19,1.84,1.76-.02-.07.43.43.85.84,1.26,1.29-.59-.64-.53-1.47-.14-.06.62,2.23-.26-1.89.37.6.14.57.3,1.15.45,1.72-.14-.54.05-2.19-.09-.27-.04.59-.01,1.19-.05,1.79.03-.39.32-2.34-.09-.25-.1.54-.8,1.78.12-.03-.29.57-.6,1.11-.95,1.65.95-1.51.16-.21-.23.18-3.38,3.37-6.66,6.85-9.98,10.27-10.89,11.21-21.78,22.41-32.68,33.62-7.04,7.24-10.05,15.43-8.62,25.56.74,5.23,1.5,10.46,2.26,15.68,2.17,15.1,4.34,30.2,6.51,45.3.08.53.16,1.07.23,1.61.07.57.55-2.39-.23-1.12-.09.14-.13,2.6.05,1.16.21-1.73-1,2.68-.31,1.11.52-1.19-.4.62-.57.87-.95,1.4,1.07-1.15-.07.08-.21.22-1.72,1.55-.69.75s-.62.35-.9.49l-.42.23c1.15-.43,1.12-.44-.08-.03-.13.2-2.48.41.03.15-.66.07-1.33.05-2,.04,1.59.02.29.04-.63-.21-1.15-.32.82.44-.47-.15-.75-.34-1.48-.73-2.22-1.09l-7.82-3.84c-14.31-7.04-28.62-14.07-42.93-21.11-1.2-.59-2.4-1.21-3.61-1.78-8.34-3.9-16.27-3.71-24.63-.02-5.43,2.39-6.69,10.32-3.94,15.03,3.27,5.6,9.58,6.34,15.03,3.94.37-.16,2.05-.12,2.46.02.45.16.88.44,1.31.64,2.36,1.13,4.7,2.31,7.05,3.47,7.68,3.78,15.36,7.55,23.04,11.33l21.5,10.57c7.83,3.85,15.73,6.85,24.59,3.88,8.04-2.7,14.3-9,16.99-17.03,1.56-4.67,1.2-9.32.53-14.08-.86-6.07-1.75-12.14-2.62-18.21-2.08-14.49-4.56-28.99-6.26-43.53-.07-.59.17-.18.09.51-.32,2.69.4-1.57.05-.26-.3,1.09.77-2.52.62-2.22-.28.55.56-.48.87-.82,1.37-1.52,2.87-2.95,4.3-4.42l17.03-17.52c5.93-6.1,11.85-12.2,17.78-18.3,4.79-4.93,9.68-9.61,11.6-16.53,3.95-14.26-5.32-29.74-19.88-32.69-4.69-.95-9.46-1.64-14.18-2.45l-46.8-8.1c-.55-.09-1.1-.17-1.64-.28-.42-.09-.85-.18-1.27-.27-1.41-.29-1.1-.13-2.14-1.12-.84-.8-.61-.65-1.24-1.86-.36-.69-.73-1.38-1.09-2.07-3.3-6.26-6.6-12.52-9.91-18.78-4.25-8.05-8.49-16.1-12.74-24.15-2.08-3.94-3.96-8.09-6.31-11.89-8.65-14-27.91-16.72-40.2-5.87-4.36,3.85-6.75,9.48-9.42,14.53-7.74,14.67-15.48,29.34-23.22,44.01-.78,1.49-1.62,2.96-2.36,4.47-.19.38-.41.77-.65,1.13.79-1.19-.6.63-.89.89-1.31,1.12.98-.42-.57.31-1.66.79,2.08-.24-1.14.42-.39.08-.78.17-1.17.25-.15.03-.3.05-.44.08-5.49,1.03-11.02,1.91-16.53,2.86-15,2.6-30.03,5.06-45.01,7.79-12.3,2.24-21.21,13-21.56,25.44-.26,9.12,4.72,15.87,10.69,22.01,11.51,11.85,23.03,23.69,34.54,35.54l5.49,5.65c.38.4.8.78,1.16,1.2.1.12.25.1-.01-.16-.04-.04,1.14,1.75.64.73.02.04.82,3.19.56,2.02.31,1.36.13,1.8.22-.25,0,.2-.06.4-.09.59-.11.85-.24,1.69-.37,2.54l-1.35,9.39c-2.3,15.96-4.59,31.92-6.89,47.89-.36,2.52-.91,5.11-.92,7.64-.04,8.69,4.39,16.58,11.36,21.56,9.26,6.62,19.91,5.23,29.52.51,14.47-7.12,28.94-14.23,43.41-21.35l11.46-5.64c5.32-2.62,6.78-10.17,3.94-15.03-3.17-5.43-9.69-6.57-15.03-3.94Z"/>
  <g>
    <path class="st2" d="M141.27,148.67c.1.83,0,1.58-.29,2.25s-.73,1.23-1.31,1.65c-.58.43-1.25.69-2.02.78-.77.09-1.48,0-2.15-.28-.66-.28-1.22-.71-1.66-1.3-.44-.59-.71-1.3-.81-2.12-.1-.83,0-1.58.29-2.25.29-.67.73-1.23,1.31-1.66.58-.43,1.25-.69,2.02-.79.77-.09,1.48,0,2.15.29.66.29,1.22.72,1.66,1.31.44.59.71,1.29.81,2.12ZM139.46,148.88c-.06-.51-.22-.95-.47-1.3s-.56-.62-.94-.79c-.37-.17-.77-.23-1.2-.18-.43.05-.8.2-1.12.46-.32.25-.57.58-.73.99-.16.4-.21.86-.15,1.38.06.51.22.93.47,1.29.25.35.56.62.94.79.37.17.77.23,1.2.18.42-.05.8-.2,1.12-.46.32-.25.57-.58.73-.99.16-.4.21-.86.15-1.36Z"/>
    <path class="st2" d="M148.4,143.7c.26-.03.49.03.68.19.19.16.3.37.33.63l.46,3.85c.13,1.07-.07,1.95-.59,2.65-.52.7-1.34,1.11-2.46,1.24s-2.01-.08-2.68-.63c-.66-.56-1.06-1.37-1.19-2.44l-.46-3.85c-.03-.26.03-.49.18-.69.15-.2.36-.31.62-.34.26-.03.49.03.68.19.19.16.3.37.34.63l.46,3.85c.07.62.26,1.06.57,1.32.31.27.73.37,1.28.3.56-.07.95-.26,1.19-.59.24-.33.32-.8.25-1.42l-.46-3.85c-.03-.26.03-.49.18-.69.15-.2.36-.31.62-.34Z"/>
    <path class="st2" d="M151.38,143.5l3.59-.43c.24-.03.45.03.63.17.18.14.29.33.31.58.03.23-.03.44-.17.61s-.34.28-.58.31l-3.59.43c-.24.03-.45-.03-.63-.17-.18-.14-.29-.33-.32-.58-.03-.23.03-.43.17-.61.14-.17.34-.28.58-.31ZM152.78,141.42c.26-.03.49.03.67.19.19.16.3.37.33.63l.8,6.74c.02.14.06.25.12.34.07.09.15.14.25.17.1.03.21.04.32.02.12-.01.23-.05.32-.11s.21-.09.34-.11c.14-.02.28.03.41.15.13.12.21.29.24.52.03.28-.09.53-.38.75-.29.22-.61.35-.96.39-.21.03-.45.04-.71.03-.26,0-.51-.06-.76-.17-.25-.11-.46-.3-.64-.56-.18-.26-.31-.64-.37-1.14l-.81-6.82c-.03-.26.03-.49.19-.69.16-.2.37-.31.63-.34Z"/>
  </g>
  <g>
    <path class="st2" d="M336.02,203.26c.58.6.97,1.25,1.15,1.96s.17,1.42-.03,2.11c-.2.69-.57,1.31-1.12,1.85-.55.54-1.18.9-1.87,1.09s-1.4.18-2.11-.02c-.71-.19-1.36-.59-1.94-1.18-.58-.59-.97-1.25-1.15-1.96-.18-.71-.17-1.42.02-2.12.19-.7.57-1.31,1.12-1.85.55-.54,1.18-.9,1.88-1.08.7-.18,1.4-.17,2.11.02.71.2,1.36.59,1.94,1.18ZM334.71,204.54c-.36-.37-.75-.62-1.17-.74-.42-.12-.82-.14-1.22-.05-.4.09-.75.29-1.06.59-.3.3-.51.65-.61,1.04-.1.4-.09.81.03,1.23.12.42.36.81.72,1.18.36.36.74.61,1.16.73.42.13.82.14,1.22.05.4-.09.75-.29,1.06-.59.31-.3.51-.65.61-1.04.1-.4.09-.81-.03-1.23-.12-.42-.35-.81-.71-1.17Z"/>
    <path class="st2" d="M338.63,194.98c.19-.19.41-.28.65-.27.25,0,.47.1.65.29l2.71,2.77c.75.77,1.14,1.59,1.15,2.46.01.87-.38,1.7-1.19,2.49-.81.79-1.64,1.17-2.51,1.13-.87-.03-1.68-.44-2.43-1.21l-2.71-2.77c-.18-.19-.28-.41-.28-.66s.09-.46.28-.65c.19-.19.41-.28.66-.27s.46.1.65.29l2.71,2.77c.43.45.86.68,1.26.7.41.02.81-.16,1.2-.54.4-.39.59-.79.58-1.2-.01-.41-.24-.83-.67-1.27l-2.71-2.77c-.19-.19-.28-.41-.28-.66,0-.25.09-.46.28-.65Z"/>
    <path class="st2" d="M340.7,190.49c.19-.19.41-.27.65-.26.24,0,.46.11.64.3l4.75,4.85c.1.1.2.17.3.19.1.03.21.02.3-.02.1-.04.19-.1.27-.18.09-.09.15-.18.19-.29.04-.1.11-.2.2-.29.1-.1.24-.14.42-.13s.35.1.51.27c.2.21.25.48.16.83-.09.35-.27.65-.52.89-.15.15-.33.3-.54.46-.21.16-.44.27-.7.33-.26.06-.54.04-.85-.05-.31-.1-.64-.32-.99-.68l-4.81-4.9c-.19-.19-.28-.41-.27-.66,0-.25.1-.47.29-.65ZM340.87,193l2.58-2.53c.17-.17.38-.26.61-.25.23,0,.43.09.6.26.16.17.24.37.24.59,0,.23-.1.43-.27.6l-2.58,2.53c-.17.17-.38.26-.61.25-.23,0-.43-.09-.6-.26-.16-.17-.24-.36-.24-.59,0-.22.1-.42.27-.6Z"/>
  </g>
  <g>
    <path class="st2" d="M153.61,269.78c.83.12,1.53.41,2.1.87.58.46.99,1.02,1.26,1.7.26.67.34,1.39.22,2.15-.11.77-.39,1.43-.83,2s-1.01.99-1.69,1.26-1.44.35-2.26.23c-.83-.12-1.52-.41-2.1-.87-.58-.46-1-1.02-1.26-1.7-.27-.67-.34-1.39-.23-2.15.11-.77.39-1.43.84-2,.45-.57,1.01-.99,1.7-1.26s1.44-.35,2.26-.23ZM153.35,271.6c-.51-.07-.97-.04-1.38.12-.41.15-.74.38-1,.7-.26.32-.42.69-.49,1.11-.06.42-.01.82.15,1.2.16.38.41.7.76.96.35.26.78.43,1.29.51.5.07.96.03,1.37-.12.41-.15.74-.38,1.01-.7.26-.32.42-.69.48-1.11.06-.42.01-.82-.15-1.2-.16-.38-.42-.7-.76-.96-.35-.26-.77-.43-1.28-.5Z"/>
    <path class="st2" d="M150.67,261.61c.04-.26.16-.46.36-.61.2-.15.43-.2.69-.16l3.83.56c1.07.16,1.87.58,2.41,1.26s.72,1.59.56,2.7-.6,1.92-1.31,2.42c-.71.5-1.6.67-2.67.51l-3.83-.56c-.26-.04-.47-.16-.62-.35-.15-.2-.21-.43-.17-.69s.16-.46.36-.61c.2-.15.43-.2.69-.16l3.83.56c.61.09,1.09.02,1.43-.21s.54-.61.62-1.16c.08-.55,0-.99-.26-1.3-.26-.32-.69-.52-1.31-.61l-3.83-.56c-.26-.04-.47-.16-.62-.35-.15-.2-.21-.43-.17-.69Z"/>
    <path class="st2" d="M149.6,256.79c.04-.26.16-.46.36-.6.2-.14.43-.19.69-.15l6.72.98c.14.02.26,0,.36-.03.1-.04.17-.11.23-.2.05-.09.09-.19.11-.3.02-.12.01-.23-.02-.34-.03-.11-.04-.23-.02-.36.02-.14.1-.26.25-.36.15-.1.34-.13.57-.09.28.04.49.23.63.56.14.33.18.68.13,1.03-.03.21-.08.44-.16.69-.07.25-.19.48-.36.69-.17.21-.41.36-.71.47-.3.11-.7.13-1.2.06l-6.79-.99c-.26-.04-.47-.16-.62-.36-.15-.2-.21-.43-.17-.7ZM151.26,258.68l.52-3.58c.04-.24.14-.43.33-.57.18-.14.4-.19.64-.15.23.03.41.14.54.33.13.18.18.4.15.64l-.52,3.58c-.04.24-.14.43-.33.57-.18.14-.4.19-.64.15-.23-.03-.41-.14-.54-.33-.13-.18-.18-.4-.15-.64Z"/>
  </g>
  <g>
    <path class="st2" d="M259.59,296.51c-.33.77-.79,1.37-1.38,1.8-.59.44-1.25.69-1.96.77-.72.08-1.43-.04-2.14-.34-.71-.31-1.28-.75-1.71-1.32-.43-.58-.7-1.23-.78-1.96-.09-.73.03-1.48.36-2.24.33-.77.79-1.37,1.38-1.8.59-.44,1.25-.7,1.96-.78.72-.08,1.43.03,2.14.33.71.3,1.28.75,1.71,1.33.43.58.69,1.23.78,1.96.09.73-.03,1.48-.36,2.24ZM257.91,295.78c.21-.48.29-.93.25-1.37-.04-.43-.18-.81-.42-1.15s-.55-.59-.95-.76c-.39-.17-.79-.22-1.2-.17-.41.06-.78.22-1.12.49-.34.27-.62.64-.82,1.12-.2.47-.28.92-.24,1.35.04.43.18.82.42,1.15.24.33.55.59.94.76.39.17.79.22,1.2.17.41-.06.78-.22,1.12-.49.34-.27.61-.63.81-1.1Z"/>
    <path class="st2" d="M268.24,295.78c.24.11.41.27.5.51.09.23.08.47-.02.71l-1.53,3.56c-.43.99-1.04,1.66-1.84,2-.8.34-1.72.29-2.76-.16-1.04-.45-1.7-1.08-2-1.89-.3-.81-.23-1.72.19-2.71l1.53-3.56c.1-.24.27-.41.5-.51.23-.09.47-.09.71.02.24.1.41.27.5.5.09.23.08.47-.02.71l-1.53,3.56c-.25.57-.3,1.05-.17,1.43.13.38.45.69.96.9.51.22.96.25,1.33.08.37-.17.68-.54.93-1.11l1.53-3.56c.1-.24.27-.41.5-.51.23-.1.47-.09.71.01Z"/>
    <path class="st2" d="M273.18,296c.24.1.41.27.49.5.08.23.07.47-.03.71l-2.69,6.23c-.06.13-.08.25-.06.36.02.11.06.2.13.27.07.08.16.14.26.18.11.05.22.07.34.07.11,0,.23.02.35.08.13.06.22.17.28.34.05.17.04.36-.06.57-.11.26-.35.42-.71.46-.36.04-.7,0-1.03-.14-.2-.08-.41-.19-.63-.33-.22-.13-.41-.31-.57-.53-.16-.22-.25-.49-.27-.81-.03-.32.06-.71.25-1.17l2.72-6.3c.1-.24.27-.41.51-.5s.47-.09.72.02ZM270.93,297.11l3.32,1.43c.22.1.38.25.46.47.09.21.08.43-.02.66-.09.21-.24.36-.46.44-.21.08-.43.07-.65-.03l-3.32-1.43c-.22-.1-.38-.25-.46-.46-.08-.21-.08-.43.02-.66.09-.21.25-.36.46-.44s.43-.07.65.03Z"/>
  </g>
  <g>
    <path class="st2" d="M260.45,101.95c-.72.41-1.45.62-2.19.61-.74,0-1.41-.19-2.03-.56-.62-.37-1.12-.88-1.5-1.56-.38-.67-.58-1.37-.58-2.09,0-.72.18-1.4.55-2.04.37-.64.91-1.16,1.64-1.58.72-.41,1.45-.62,2.19-.61.74,0,1.42.19,2.04.56.62.36,1.13.88,1.51,1.55.38.67.57,1.37.57,2.09,0,.72-.19,1.4-.56,2.04-.37.64-.91,1.16-1.64,1.58ZM259.54,100.36c.45-.26.79-.57,1.02-.94.23-.37.35-.76.36-1.17.01-.41-.09-.8-.3-1.17s-.5-.66-.86-.85c-.36-.2-.76-.29-1.19-.29-.43,0-.88.14-1.33.4-.44.25-.78.56-1,.93-.23.37-.35.76-.36,1.17-.01.41.09.8.3,1.17.21.37.5.66.86.85.36.2.76.29,1.19.29.43,0,.87-.14,1.31-.39Z"/>
    <path class="st2" d="M267.8,106.57c.13.23.16.46.09.7-.07.24-.22.42-.45.55l-3.36,1.92c-.94.53-1.83.7-2.67.49-.85-.21-1.55-.8-2.11-1.78-.56-.98-.71-1.88-.46-2.71.25-.83.85-1.51,1.78-2.05l3.36-1.92c.23-.13.46-.17.71-.1.24.06.43.21.56.44.13.23.16.46.09.7-.07.24-.22.42-.45.56l-3.36,1.92c-.54.31-.87.66-.99,1.04-.12.39-.05.82.22,1.3.28.49.62.77,1.01.86.4.09.86-.02,1.4-.33l3.36-1.92c.23-.13.46-.17.7-.11.24.06.43.21.56.44Z"/>
    <path class="st2" d="M271.62,109.71c.13.23.16.46.09.69-.07.23-.22.42-.45.55l-5.89,3.37c-.12.07-.21.15-.26.25-.05.09-.07.19-.06.3s.05.21.1.3c.06.11.14.19.23.26.09.07.17.16.23.27.07.12.08.27.02.44-.06.17-.19.31-.39.43-.25.14-.53.12-.84-.06s-.56-.42-.73-.73c-.11-.19-.21-.4-.31-.64-.1-.24-.14-.5-.14-.76,0-.27.09-.54.27-.81s.47-.53.91-.78l5.96-3.41c.23-.13.46-.16.71-.1s.43.21.56.44ZM269.15,109.24l1.79,3.14c.12.21.15.43.09.65s-.2.39-.41.51c-.2.12-.41.14-.63.08-.22-.06-.39-.2-.51-.41l-1.79-3.14c-.12-.21-.15-.43-.09-.65.06-.22.2-.39.41-.51.2-.12.41-.14.63-.08.22.06.39.2.51.41Z"/>
  </g>
  <g>
    <path class="st3" d="M201.22,138.72c9.31-17.64,18.62-35.29,27.93-52.93.57-1.08,1.15-2.16,1.71-3.24.73-1.41.21-.88,1.55-2.1.94-.85.13-.14-.05.03.4-.4,1.45-.78.28-.31.49-.2,1.02-.32,1.53-.46,1.69-.46-2.35.05.76-.07,5.93-.22,10.98-4.89,10.98-10.98,0-5.78-5.03-11.21-10.98-10.98-9.99.38-18.55,5.48-23.33,14.31-1.95,3.6-3.82,7.25-5.73,10.87-6.23,11.81-12.46,23.62-18.69,35.43-1.64,3.11-3.29,6.23-4.93,9.34-2.77,5.24-1.33,11.94,3.94,15.03,4.96,2.9,12.25,1.32,15.03-3.94h0Z"/>
    <path class="st3" d="M161.85,215.62c-8.05-8.28-16.1-16.56-24.15-24.84l-15.29-15.73c-1.42-1.46-2.89-2.89-4.27-4.39-1.66-1.8-1.84-2.54-1.81-4.43.11-5.94-5.12-10.98-10.98-10.98s-10.88,5.03-10.98,10.98c-.24,13.54,9.99,21.76,18.56,30.57,8.88,9.14,17.77,18.28,26.65,27.42,2.24,2.31,4.49,4.62,6.73,6.93,4.13,4.25,11.38,4.15,15.53,0s4.15-11.27,0-15.53h0Z"/>
    <path class="st3" d="M222.7,277.6c-17.71,8.71-35.43,17.42-53.14,26.13-1.21.59-2.43,1.34-3.69,1.81-.66.25.06,0-.91.22-.12.03-1.82.02-1.06.07-1.3-.09-1.32-.34-2.92-1.39-4.96-3.25-12.14-.99-15.03,3.94-3.13,5.35-1.03,11.77,3.94,15.03,8.72,5.72,18.65,5.15,27.73.77,3.89-1.88,7.76-3.81,11.63-5.72l35.32-17.37,9.21-4.53c5.32-2.62,6.78-10.17,3.94-15.03-3.17-5.43-9.69-6.57-15.03-3.94h0Z"/>
    <path class="st3" d="M301.15,239.14c2.82,19.61,5.64,39.22,8.46,58.83.19,1.32.44,2.65.57,3.98,0,.01.04.25.04.25-.94.2.82-2.73-.24-.98-.51.84.21-.24.03.74-.1.56-.26,1.19-.48,1.71.45-1.07-.21.26-.43.5.17-.18.79-.89-.06.02-.66.7-1.38,1.29-2.14,1.89-4.67,3.66-3.84,11.69,0,15.53,4.61,4.61,10.85,3.67,15.53,0,8.25-6.46,10.23-16.4,8.83-26.25-.6-4.21-1.21-8.41-1.81-12.61-1.88-13.1-3.77-26.2-5.65-39.3-.49-3.38-.97-6.77-1.46-10.15-.85-5.88-8.31-9.1-13.51-7.67-6.31,1.73-8.52,7.62-7.67,13.51h0Z"/>
    <path class="st3" d="M286.25,151.7c20.38,3.44,40.77,6.89,61.15,10.33,1.04.18,2.1.32,3.13.53.27.06,2.92.79,1.95.41-.7-.28,2.35,1.8.94.51.37.34.78.7,1.08,1.1.43.48.45.51.08.1-.47-.55-.38-.36.25.59-.02-.18-.53-1.52-.1-.3.29.8.47,1.62.64,2.45,1.2,5.81,8.06,9.17,13.51,7.67,6.04-1.66,8.87-7.68,7.67-13.51-2.08-10.11-10.43-18.4-20.59-20.27-3.95-.73-7.93-1.34-11.9-2.01l-41.18-6.96c-3.6-.61-7.2-1.22-10.79-1.82-5.84-.99-11.83,1.54-13.51,7.67-1.45,5.27,1.79,12.52,7.67,13.51h0Z"/>
  </g>
  <g>
    <circle class="st0" cx="234.99" cy="64.27" r="18.29"/>
    <g>
      <path class="st2" d="M226.41,61.46c.59,0,1.03.13,1.34.38.31.25.51.59.63,1.01s.17.88.17,1.4v3.12c0,.21-.07.39-.21.53-.14.14-.31.21-.52.21s-.39-.07-.52-.21c-.14-.14-.21-.32-.21-.53v-3.12c0-.27-.03-.51-.1-.73-.06-.22-.18-.39-.35-.52s-.42-.2-.73-.2-.57.07-.79.2-.38.3-.49.52c-.11.22-.17.46-.17.73v3.12c0,.21-.07.39-.21.53-.14.14-.31.21-.52.21s-.39-.07-.52-.21c-.14-.14-.21-.32-.21-.53v-7.54c0-.21.07-.39.21-.53.14-.14.31-.21.52-.21s.39.07.52.21c.14.14.21.32.21.53v3.03l-.18-.04c.07-.14.18-.29.31-.45.13-.16.29-.31.48-.45.19-.14.39-.25.62-.34.23-.08.48-.13.74-.13Z"/>
      <path class="st2" d="M236.47,64.85c0,.67-.15,1.26-.45,1.76-.3.51-.7.91-1.2,1.19-.5.28-1.06.43-1.68.43s-1.18-.14-1.68-.43c-.5-.29-.9-.68-1.2-1.19-.3-.51-.45-1.1-.45-1.76s.15-1.25.45-1.76c.3-.51.7-.91,1.2-1.2.5-.29,1.06-.43,1.68-.43s1.18.14,1.68.43c.5.29.9.69,1.2,1.2.3.51.45,1.1.45,1.76ZM235.01,64.85c0-.42-.08-.77-.25-1.08-.17-.3-.39-.54-.67-.71-.28-.17-.59-.26-.93-.26s-.65.08-.93.26-.5.41-.67.71c-.17.31-.25.67-.25,1.08s.08.76.25,1.07c.17.3.39.54.67.71s.59.26.93.26.65-.08.93-.26c.28-.17.5-.41.67-.71.17-.31.25-.66.25-1.07Z"/>
      <path class="st2" d="M239.34,67.36c0,.21-.07.39-.21.53-.14.14-.32.21-.53.21s-.38-.07-.51-.21c-.14-.14-.21-.32-.21-.53v-7.54c0-.21.07-.39.21-.53s.32-.21.53-.21.38.07.52.21c.13.14.2.32.2.53v7.54Z"/>
      <path class="st2" d="M246.27,59.08c.21,0,.39.07.52.21.14.14.21.32.21.54v7.54c0,.21-.07.39-.21.53-.14.14-.31.21-.52.21s-.39-.07-.52-.21c-.14-.14-.21-.32-.21-.53v-.6l.27.11c0,.11-.06.23-.17.38-.11.15-.27.3-.46.45s-.42.27-.69.37-.55.15-.86.15c-.56,0-1.07-.14-1.53-.43-.46-.29-.82-.69-1.08-1.2-.26-.51-.4-1.09-.4-1.75s.13-1.25.4-1.76c.26-.51.62-.91,1.07-1.2.45-.29.94-.43,1.49-.43.35,0,.67.05.96.16.29.11.55.24.76.4.22.16.38.33.5.49s.18.31.18.42l-.44.16v-3.27c0-.21.07-.39.21-.53.14-.14.31-.21.52-.21ZM243.8,66.89c.36,0,.67-.09.94-.27.27-.18.48-.42.63-.73.15-.31.23-.66.23-1.04s-.08-.74-.23-1.05c-.15-.31-.36-.55-.63-.73s-.58-.27-.94-.27-.66.09-.93.27-.48.42-.63.73c-.15.31-.23.66-.23,1.05s.08.73.23,1.04c.15.31.36.55.63.73.27.18.58.27.93.27Z"/>
    </g>
  </g>
  <g>
    <circle class="st0" cx="313.27" cy="314.35" r="18.29"/>
    <g>
      <path class="st2" d="M304.68,311.53c.59,0,1.03.12,1.34.38.31.25.51.59.63,1.01.11.42.17.88.17,1.4v3.12c0,.21-.07.39-.21.53-.14.14-.31.21-.52.21s-.39-.07-.52-.21c-.14-.14-.21-.32-.21-.53v-3.12c0-.27-.03-.51-.1-.72-.06-.22-.18-.39-.35-.52-.17-.13-.42-.2-.73-.2s-.57.07-.79.2c-.22.13-.38.3-.49.52-.11.21-.17.46-.17.72v3.12c0,.21-.07.39-.21.53-.14.14-.31.21-.52.21s-.39-.07-.52-.21c-.14-.14-.21-.32-.21-.53v-7.54c0-.21.07-.39.21-.53.14-.14.31-.21.52-.21s.39.07.52.21c.14.14.21.32.21.53v3.03l-.18-.04c.07-.14.18-.29.31-.45.13-.16.29-.31.48-.45.19-.14.39-.25.62-.34.23-.08.48-.13.74-.13Z"/>
      <path class="st2" d="M314.74,314.93c0,.67-.15,1.26-.45,1.76s-.7.9-1.2,1.19c-.5.29-1.06.43-1.68.43s-1.18-.14-1.68-.43c-.5-.29-.9-.68-1.2-1.19s-.45-1.1-.45-1.76.15-1.26.45-1.76.7-.91,1.2-1.2c.5-.29,1.06-.43,1.68-.43s1.18.14,1.68.43c.5.29.9.69,1.2,1.2s.45,1.1.45,1.76ZM313.28,314.93c0-.42-.08-.78-.25-1.08-.17-.3-.39-.54-.67-.71-.28-.17-.59-.26-.93-.26s-.65.09-.93.26c-.28.17-.5.41-.67.71-.17.3-.25.66-.25,1.08s.08.76.25,1.07c.17.3.39.54.67.71.28.17.59.26.93.26s.65-.08.93-.26c.28-.17.5-.41.67-.71.17-.31.25-.66.25-1.07Z"/>
      <path class="st2" d="M317.61,317.44c0,.21-.07.39-.21.53s-.32.21-.53.21-.38-.07-.51-.21c-.14-.14-.21-.32-.21-.53v-7.54c0-.21.07-.39.21-.53s.32-.21.53-.21.38.07.52.21c.13.14.2.32.2.53v7.54Z"/>
      <path class="st2" d="M324.54,309.15c.21,0,.39.07.52.21.14.14.21.32.21.54v7.54c0,.21-.07.39-.21.53-.14.14-.31.21-.52.21s-.39-.07-.52-.21c-.14-.14-.21-.32-.21-.53v-.6l.27.11c0,.11-.06.23-.17.38s-.27.3-.46.45-.42.27-.69.37-.55.15-.86.15c-.56,0-1.07-.14-1.53-.43s-.82-.69-1.08-1.2c-.26-.51-.4-1.09-.4-1.75s.13-1.26.4-1.76.62-.91,1.07-1.2c.45-.29.94-.43,1.49-.43.35,0,.67.05.96.16s.55.24.76.4c.22.16.38.33.5.49.12.17.18.31.18.42l-.44.16v-3.27c0-.21.07-.39.21-.53.14-.14.31-.21.52-.21ZM322.08,316.96c.36,0,.67-.09.94-.27s.48-.42.63-.73c.15-.31.23-.65.23-1.04s-.08-.74-.23-1.05c-.15-.31-.36-.55-.63-.73-.27-.18-.58-.27-.94-.27s-.66.09-.93.27c-.27.18-.48.42-.63.73-.15.31-.23.66-.23,1.05s.08.73.23,1.04.36.55.63.73.58.27.93.27Z"/>
    </g>
  </g>
  <g>
    <circle class="st0" cx="153.6" cy="314.35" r="18.29"/>
    <g>
      <path class="st2" d="M145.01,311.53c.59,0,1.03.12,1.34.38.31.25.51.59.63,1.01.11.42.17.88.17,1.4v3.12c0,.21-.07.39-.21.53-.14.14-.31.21-.52.21s-.39-.07-.52-.21c-.14-.14-.21-.32-.21-.53v-3.12c0-.27-.03-.51-.1-.72-.06-.22-.18-.39-.35-.52-.17-.13-.42-.2-.73-.2s-.57.07-.79.2c-.22.13-.38.3-.49.52-.11.21-.17.46-.17.72v3.12c0,.21-.07.39-.21.53-.14.14-.31.21-.52.21s-.39-.07-.52-.21c-.14-.14-.21-.32-.21-.53v-7.54c0-.21.07-.39.21-.53.14-.14.31-.21.52-.21s.39.07.52.21c.14.14.21.32.21.53v3.03l-.18-.04c.07-.14.18-.29.31-.45.13-.16.29-.31.48-.45.19-.14.39-.25.62-.34.23-.08.48-.13.74-.13Z"/>
      <path class="st2" d="M155.07,314.93c0,.67-.15,1.26-.45,1.76s-.7.9-1.2,1.19c-.5.29-1.06.43-1.68.43s-1.18-.14-1.68-.43c-.5-.29-.9-.68-1.2-1.19s-.45-1.1-.45-1.76.15-1.26.45-1.76.7-.91,1.2-1.2c.5-.29,1.06-.43,1.68-.43s1.18.14,1.68.43c.5.29.9.69,1.2,1.2s.45,1.1.45,1.76ZM153.61,314.93c0-.42-.08-.78-.25-1.08-.17-.3-.39-.54-.67-.71-.28-.17-.59-.26-.93-.26s-.65.09-.93.26c-.28.17-.5.41-.67.71-.17.3-.25.66-.25,1.08s.08.76.25,1.07c.17.3.39.54.67.71.28.17.59.26.93.26s.65-.08.93-.26c.28-.17.5-.41.67-.71.17-.31.25-.66.25-1.07Z"/>
      <path class="st2" d="M157.94,317.44c0,.21-.07.39-.21.53s-.32.21-.53.21-.38-.07-.51-.21c-.14-.14-.21-.32-.21-.53v-7.54c0-.21.07-.39.21-.53s.32-.21.53-.21.38.07.52.21c.13.14.2.32.2.53v7.54Z"/>
      <path class="st2" d="M164.87,309.15c.21,0,.39.07.52.21.14.14.21.32.21.54v7.54c0,.21-.07.39-.21.53-.14.14-.31.21-.52.21s-.39-.07-.52-.21c-.14-.14-.21-.32-.21-.53v-.6l.27.11c0,.11-.06.23-.17.38s-.27.3-.46.45-.42.27-.69.37-.55.15-.86.15c-.56,0-1.07-.14-1.53-.43s-.82-.69-1.08-1.2c-.26-.51-.4-1.09-.4-1.75s.13-1.26.4-1.76.62-.91,1.07-1.2c.45-.29.94-.43,1.49-.43.35,0,.67.05.96.16s.55.24.76.4c.22.16.38.33.5.49.12.17.18.31.18.42l-.44.16v-3.27c0-.21.07-.39.21-.53.14-.14.31-.21.52-.21ZM162.41,316.96c.36,0,.67-.09.94-.27s.48-.42.63-.73c.15-.31.23-.65.23-1.04s-.08-.74-.23-1.05c-.15-.31-.36-.55-.63-.73-.27-.18-.58-.27-.94-.27s-.66.09-.93.27c-.27.18-.48.42-.63.73-.15.31-.23.66-.23,1.05s.08.73.23,1.04.36.55.63.73.58.27.93.27Z"/>
    </g>
  </g>
  <g>
    <circle class="st0" cx="366.06" cy="160.87" r="18.29"/>
    <g>
      <path class="st2" d="M357.47,158.06c.59,0,1.03.13,1.34.38.31.25.51.59.63,1.01s.17.88.17,1.4v3.12c0,.21-.07.39-.21.53-.14.14-.31.21-.52.21s-.39-.07-.52-.21c-.14-.14-.21-.32-.21-.53v-3.12c0-.27-.03-.51-.1-.73-.06-.22-.18-.39-.35-.52s-.42-.2-.73-.2-.57.07-.79.2-.38.3-.49.52c-.11.22-.17.46-.17.73v3.12c0,.21-.07.39-.21.53-.14.14-.31.21-.52.21s-.39-.07-.52-.21c-.14-.14-.21-.32-.21-.53v-7.54c0-.21.07-.39.21-.53.14-.14.31-.21.52-.21s.39.07.52.21c.14.14.21.32.21.53v3.03l-.18-.04c.07-.14.18-.29.31-.45.13-.16.29-.31.48-.45.19-.14.39-.25.62-.34.23-.08.48-.13.74-.13Z"/>
      <path class="st2" d="M367.53,161.45c0,.67-.15,1.26-.45,1.76-.3.51-.7.91-1.2,1.19-.5.28-1.06.43-1.68.43s-1.18-.14-1.68-.43c-.5-.29-.9-.68-1.2-1.19-.3-.51-.45-1.1-.45-1.76s.15-1.25.45-1.76c.3-.51.7-.91,1.2-1.2.5-.29,1.06-.43,1.68-.43s1.18.14,1.68.43c.5.29.9.69,1.2,1.2.3.51.45,1.1.45,1.76ZM366.07,161.45c0-.42-.08-.77-.25-1.08-.17-.3-.39-.54-.67-.71-.28-.17-.59-.26-.93-.26s-.65.08-.93.26-.5.41-.67.71c-.17.31-.25.67-.25,1.08s.08.76.25,1.07c.17.3.39.54.67.71s.59.26.93.26.65-.08.93-.26c.28-.17.5-.41.67-.71.17-.31.25-.66.25-1.07Z"/>
      <path class="st2" d="M370.4,163.97c0,.21-.07.39-.21.53-.14.14-.32.21-.53.21s-.38-.07-.51-.21c-.14-.14-.21-.32-.21-.53v-7.54c0-.21.07-.39.21-.53s.32-.21.53-.21.38.07.52.21c.13.14.2.32.2.53v7.54Z"/>
      <path class="st2" d="M377.33,155.68c.21,0,.39.07.52.21.14.14.21.32.21.54v7.54c0,.21-.07.39-.21.53-.14.14-.31.21-.52.21s-.39-.07-.52-.21c-.14-.14-.21-.32-.21-.53v-.6l.27.11c0,.11-.06.23-.17.38-.11.15-.27.3-.46.45s-.42.27-.69.37-.55.15-.86.15c-.56,0-1.07-.14-1.53-.43-.46-.29-.82-.69-1.08-1.2-.26-.51-.4-1.09-.4-1.75s.13-1.25.4-1.76c.26-.51.62-.91,1.07-1.2.45-.29.94-.43,1.49-.43.35,0,.67.05.96.16.29.11.55.24.76.4.22.16.38.33.5.49s.18.31.18.42l-.44.16v-3.27c0-.21.07-.39.21-.53.14-.14.31-.21.52-.21ZM374.86,163.49c.36,0,.67-.09.94-.27.27-.18.48-.42.63-.73.15-.31.23-.66.23-1.04s-.08-.74-.23-1.05c-.15-.31-.36-.55-.63-.73s-.58-.27-.94-.27-.66.09-.93.27-.48.42-.63.73c-.15.31-.23.66-.23,1.05s.08.73.23,1.04c.15.31.36.55.63.73.27.18.58.27.93.27Z"/>
    </g>
  </g>
  <g>
    <circle class="st0" cx="107.39" cy="160.87" r="18.29"/>
    <g>
      <path class="st2" d="M98.81,158.06c.59,0,1.03.13,1.34.38.31.25.51.59.63,1.01s.17.88.17,1.4v3.12c0,.21-.07.39-.21.53-.14.14-.31.21-.52.21s-.39-.07-.52-.21c-.14-.14-.21-.32-.21-.53v-3.12c0-.27-.03-.51-.1-.73-.06-.22-.18-.39-.35-.52s-.42-.2-.73-.2-.57.07-.79.2-.38.3-.49.52c-.11.22-.17.46-.17.73v3.12c0,.21-.07.39-.21.53-.14.14-.31.21-.52.21s-.39-.07-.52-.21c-.14-.14-.21-.32-.21-.53v-7.54c0-.21.07-.39.21-.53.14-.14.31-.21.52-.21s.39.07.52.21c.14.14.21.32.21.53v3.03l-.18-.04c.07-.14.18-.29.31-.45.13-.16.29-.31.48-.45.19-.14.39-.25.62-.34.23-.08.48-.13.74-.13Z"/>
      <path class="st2" d="M108.86,161.45c0,.67-.15,1.26-.45,1.76-.3.51-.7.91-1.2,1.19-.5.28-1.06.43-1.68.43s-1.18-.14-1.68-.43c-.5-.29-.9-.68-1.2-1.19-.3-.51-.45-1.1-.45-1.76s.15-1.25.45-1.76c.3-.51.7-.91,1.2-1.2.5-.29,1.06-.43,1.68-.43s1.18.14,1.68.43c.5.29.9.69,1.2,1.2.3.51.45,1.1.45,1.76ZM107.4,161.45c0-.42-.08-.77-.25-1.08-.17-.3-.39-.54-.67-.71-.28-.17-.59-.26-.93-.26s-.65.08-.93.26-.5.41-.67.71c-.17.31-.25.67-.25,1.08s.08.76.25,1.07c.17.3.39.54.67.71s.59.26.93.26.65-.08.93-.26c.28-.17.5-.41.67-.71.17-.31.25-.66.25-1.07Z"/>
      <path class="st2" d="M111.73,163.97c0,.21-.07.39-.21.53-.14.14-.32.21-.53.21s-.38-.07-.51-.21c-.14-.14-.21-.32-.21-.53v-7.54c0-.21.07-.39.21-.53s.32-.21.53-.21.38.07.52.21c.13.14.2.32.2.53v7.54Z"/>
      <path class="st2" d="M118.66,155.68c.21,0,.39.07.52.21.14.14.21.32.21.54v7.54c0,.21-.07.39-.21.53-.14.14-.31.21-.52.21s-.39-.07-.52-.21c-.14-.14-.21-.32-.21-.53v-.6l.27.11c0,.11-.06.23-.17.38-.11.15-.27.3-.46.45s-.42.27-.69.37-.55.15-.86.15c-.56,0-1.07-.14-1.53-.43-.46-.29-.82-.69-1.08-1.2-.26-.51-.4-1.09-.4-1.75s.13-1.25.4-1.76c.26-.51.62-.91,1.07-1.2.45-.29.94-.43,1.49-.43.35,0,.67.05.96.16.29.11.55.24.76.4.22.16.38.33.5.49s.18.31.18.42l-.44.16v-3.27c0-.21.07-.39.21-.53.14-.14.31-.21.52-.21ZM116.2,163.49c.36,0,.67-.09.94-.27.27-.18.48-.42.63-.73.15-.31.23-.66.23-1.04s-.08-.74-.23-1.05c-.15-.31-.36-.55-.63-.73s-.58-.27-.94-.27-.66.09-.93.27-.48.42-.63.73c-.15.31-.23.66-.23,1.05s.08.73.23,1.04c.15.31.36.55.63.73.27.18.58.27.93.27Z"/>
    </g>
  </g>
  <g>
    <path class="st2" d="M199.9,107.84c-.17.3-.33.49-.5.56-.17.07-.37.04-.62-.1l-.25-.14c-.26-.14-.4-.31-.41-.5s.05-.43.21-.71c.17-.31.34-.5.51-.57.17-.07.38-.04.62.1l.25.14c.26.14.4.31.42.49s-.05.43-.22.73ZM207.55,111c.23.13.38.31.46.55.07.24.04.47-.08.7-.13.23-.31.38-.55.45-.24.07-.48.04-.71-.09l-5.52-3.04c-.23-.13-.38-.31-.46-.55s-.04-.47.08-.7c.13-.23.31-.38.55-.45s.47-.03.71.09l5.52,3.04Z"/>
    <path class="st2" d="M204.09,101.97c.36-.66.78-1.08,1.24-1.28.47-.19.96-.22,1.49-.1.53.12,1.08.34,1.64.65l3.42,1.88c.23.13.38.31.46.55.07.24.04.47-.08.7-.13.23-.31.38-.55.45-.24.07-.48.04-.71-.09l-3.42-1.88c-.29-.16-.58-.27-.86-.32-.28-.05-.54-.02-.79.1-.25.12-.48.36-.68.72-.2.36-.29.7-.28,1.02,0,.32.09.62.26.87.17.26.39.47.69.63l3.42,1.88c.23.13.38.31.46.55.07.24.04.47-.08.7-.13.23-.31.38-.55.45-.24.07-.48.03-.71-.09l-5.52-3.04c-.23-.13-.38-.31-.46-.55s-.04-.47.08-.7c.13-.23.31-.38.55-.45.24-.07.48-.03.71.09l.57.32-.15.18c-.11-.16-.21-.37-.29-.62-.09-.25-.16-.51-.19-.8-.04-.29-.03-.59.02-.9.05-.31.16-.62.32-.92Z"/>
  </g>
  <g>
    <path class="st2" d="M127.9,202.45c-.17.2-.38.31-.63.33-.25.02-.47-.05-.67-.22s-.31-.38-.32-.63c-.02-.25.06-.47.23-.67l4.1-4.79c.17-.2.38-.31.63-.34.25-.02.47.05.67.22s.31.38.32.63c.02.25-.06.47-.23.67l-4.1,4.79ZM132.54,195.6c-.26-.22-.41-.43-.45-.6-.04-.18.04-.37.22-.59l.19-.22c.19-.22.38-.32.57-.3.19.02.41.14.65.35.27.23.42.44.46.62.03.18-.04.37-.23.59l-.19.22c-.19.22-.38.33-.56.31-.19-.02-.41-.14-.67-.37Z"/>
    <path class="st2" d="M137.45,200.9c.57.49.9.98,1,1.47.09.49.02.99-.2,1.48s-.55.98-.97,1.47l-2.54,2.97c-.17.2-.38.31-.63.33-.25.02-.47-.05-.67-.22-.2-.17-.31-.38-.33-.63-.01-.25.06-.47.23-.67l2.54-2.97c.22-.25.38-.51.49-.77s.13-.53.07-.79-.26-.54-.57-.81c-.31-.26-.62-.43-.94-.48-.32-.06-.62-.04-.91.07-.29.11-.54.29-.76.55l-2.54,2.97c-.17.2-.38.31-.63.33-.25.02-.47-.05-.67-.22-.2-.17-.31-.38-.33-.63-.01-.25.06-.47.23-.67l4.1-4.79c.17-.2.38-.31.63-.33.25-.02.47.05.67.22.2.17.31.38.32.63.02.25-.06.47-.23.67l-.43.5-.14-.18c.18-.07.4-.13.66-.17.26-.04.54-.04.83-.03.29.02.58.09.88.2.29.11.57.28.83.5Z"/>
  </g>
  <g>
    <path class="st2" d="M311.32,261.88c-.26.04-.49-.02-.69-.17-.2-.15-.31-.36-.35-.62-.03-.26.03-.49.18-.68.15-.2.36-.31.63-.34l6.25-.8c.26-.03.49.02.69.17.2.15.31.35.35.62.03.26-.03.49-.18.69-.15.19-.36.31-.62.34l-6.25.8ZM319.36,259.92c-.04-.34-.02-.59.07-.75.09-.16.28-.25.56-.29l.29-.04c.29-.04.5.02.63.16.13.14.21.38.25.7.04.35.02.61-.07.76-.09.15-.28.25-.56.29l-.29.04c-.29.04-.5-.01-.63-.15-.13-.14-.21-.38-.25-.72Z"/>
    <path class="st2" d="M319.44,267.14c.09.75,0,1.33-.25,1.76s-.64.75-1.15.96c-.5.21-1.07.36-1.7.44l-3.87.49c-.26.04-.49-.02-.69-.17-.2-.15-.31-.36-.35-.62s.03-.49.18-.68c.15-.2.36-.31.63-.34l3.87-.49c.33-.04.63-.12.88-.24.26-.12.45-.3.58-.54.13-.24.17-.57.12-.98-.05-.4-.17-.73-.37-.99-.2-.26-.44-.44-.72-.55-.29-.11-.59-.15-.93-.11l-3.87.49c-.26.04-.49-.02-.69-.17-.2-.15-.31-.36-.35-.62-.03-.26.03-.49.18-.68.16-.2.36-.31.63-.34l6.25-.8c.26-.03.49.03.69.17.2.15.31.36.35.62.03.26-.03.49-.18.68-.15.19-.36.31-.62.34l-.65.08.02-.23c.18.07.38.18.6.32s.43.32.63.54c.2.21.37.46.52.73.14.28.24.59.28.93Z"/>
  </g>
  <g>
    <path class="st2" d="M195.06,297.85c-.31.15-.55.21-.73.17-.18-.04-.33-.18-.45-.44l-.13-.26c-.13-.27-.15-.48-.05-.65.09-.16.29-.32.58-.46.32-.15.57-.21.75-.18.18.04.33.19.45.44l.13.26c.13.27.15.48.06.64-.09.16-.29.32-.6.47ZM199.49,304.83c.12.24.13.48.06.71s-.23.41-.47.53c-.24.12-.47.13-.71.05-.23-.09-.41-.25-.52-.48l-2.75-5.67c-.12-.24-.13-.48-.06-.71.08-.24.24-.41.47-.53.24-.12.47-.13.71-.05.23.09.41.25.52.48l2.75,5.67Z"/>
    <path class="st2" d="M201.88,295.47c.68-.33,1.26-.44,1.75-.32s.92.37,1.28.78c.36.41.68.9.96,1.47l1.71,3.51c.12.24.13.47.06.71-.08.23-.24.41-.47.53-.24.12-.47.13-.71.05-.23-.08-.41-.25-.52-.48l-1.71-3.51c-.15-.3-.32-.55-.51-.76-.2-.21-.43-.33-.7-.38-.27-.05-.6.02-.97.2-.37.18-.64.4-.82.67-.18.27-.28.56-.29.86-.01.31.05.61.2.91l1.71,3.51c.12.24.13.47.06.71-.08.23-.23.41-.47.53s-.47.13-.71.05-.41-.25-.52-.48l-2.75-5.67c-.12-.24-.14-.47-.06-.71.08-.23.24-.41.47-.53.24-.12.47-.13.71-.05s.41.25.52.48l.29.59-.23.06c0-.2.04-.42.11-.67.07-.25.17-.51.3-.77.13-.26.31-.5.53-.72s.48-.41.79-.56Z"/>
  </g>
  <g>
    <path class="st2" d="M314.17,148.68c-.07.26-.2.45-.41.58-.21.13-.45.16-.7.1-.26-.07-.44-.21-.57-.42-.12-.21-.15-.45-.09-.71l1.55-6.11c.06-.26.2-.45.42-.58.21-.13.45-.16.7-.1.26.06.45.21.57.42.12.22.15.45.09.71l-1.55,6.11ZM315.3,140.48c-.33-.08-.56-.2-.67-.34-.11-.14-.13-.35-.06-.63l.07-.28c.07-.29.2-.46.38-.53.18-.07.43-.06.74.02.35.09.57.2.68.35.11.14.13.35.06.63l-.07.28c-.07.29-.2.46-.37.53-.17.07-.43.06-.76-.03Z"/>
    <path class="st2" d="M322.04,143.06c.73.19,1.24.48,1.55.88.3.4.46.88.47,1.42.01.54-.06,1.13-.22,1.75l-.96,3.79c-.07.26-.2.45-.42.58s-.45.16-.7.1c-.26-.06-.45-.21-.57-.42-.12-.21-.15-.45-.09-.71l.96-3.79c.08-.32.12-.63.1-.91-.02-.28-.12-.53-.29-.74s-.47-.37-.87-.47c-.39-.1-.75-.11-1.06-.02-.31.09-.57.25-.78.47-.21.23-.36.5-.44.83l-.96,3.79c-.07.26-.2.45-.41.58-.21.13-.45.16-.7.1-.26-.07-.45-.21-.57-.42-.12-.21-.15-.45-.09-.71l1.55-6.11c.06-.26.2-.45.42-.58.21-.13.45-.16.7-.1.26.06.45.21.57.42.12.21.15.45.09.71l-.16.64-.21-.1c.13-.15.3-.29.52-.44.22-.15.46-.28.73-.39.27-.11.56-.18.87-.21s.63,0,.97.08Z"/>
  </g>
</svg>