<?xml version="1.0" encoding="UTF-8"?>
<svg id="Layer_1" xmlns="http://www.w3.org/2000/svg" version="1.1" viewBox="0 0 595.72 569.6">
  <!-- Generator: Adobe Illustrator 29.7.1, SVG Export Plug-In . SVG Version: 2.1.1 Build 8)  -->
  <defs>
    <style>
      .st0 {
        fill: #573bb4;
      }

      .st1 {
        fill: none;
        stroke: #573bb4;
        stroke-miterlimit: 10;
      }

      .st2 {
        fill: #fff;
      }
    </style>
  </defs>
  <g>
    <g>
      <path class="st0" d="M368.91,447.53c-.23,0-.41-.07-.55-.22-.14-.14-.21-.32-.21-.52v-11.12c0-.2.07-.38.22-.52.14-.14.32-.22.52-.22h6.32c.2,0,.38.07.52.21.14.14.22.31.22.51,0,.18-.07.34-.22.48-.14.14-.32.21-.52.21h-5.67l.11-.14v4.39l-.09-.2h4.84c.2,0,.38.07.52.21.14.14.22.31.22.51,0,.19-.07.35-.22.49-.14.13-.32.2-.52.2h-4.88l.13-.14v5.15c0,.2-.07.38-.22.52s-.32.22-.52.22Z"/>
      <path class="st0" d="M379.65,446.8c0,.2-.07.38-.22.52-.14.14-.32.22-.52.22s-.38-.07-.51-.22c-.14-.14-.21-.32-.21-.52v-11.84c0-.2.07-.38.22-.52s.32-.22.52-.22c.22,0,.39.07.52.22.13.14.2.32.2.52v11.84Z"/>
      <path class="st0" d="M389.32,438.23c.22,0,.39.07.52.21.13.14.2.31.2.53v4.9c0,1.21-.34,2.15-1.02,2.82s-1.62,1-2.83,1-2.14-.33-2.82-1-1.02-1.6-1.02-2.82v-4.9c0-.22.07-.39.21-.53s.31-.21.51-.21c.22,0,.39.07.52.21.13.14.2.31.2.53v4.9c0,.82.21,1.43.63,1.85.42.42,1.01.63,1.76.63s1.36-.21,1.78-.63.63-1.04.63-1.85v-4.9c0-.22.07-.39.2-.53.13-.14.31-.21.52-.21Z"/>
      <path class="st0" d="M397.01,447.71c-.97,0-1.82-.2-2.54-.61-.72-.41-1.28-.97-1.67-1.68-.4-.71-.59-1.54-.59-2.47,0-1.04.21-1.94.62-2.67.41-.74.95-1.3,1.62-1.69.67-.39,1.37-.58,2.11-.58.55,0,1.09.1,1.6.31.52.2.97.5,1.37.9s.71.86.95,1.4c.24.54.37,1.15.38,1.84,0,.19-.07.35-.22.48-.14.13-.31.19-.5.19h-7.11l-.32-1.24h6.91l-.29.25v-.4c-.04-.49-.2-.91-.48-1.27-.28-.35-.62-.63-1.03-.82-.4-.19-.83-.29-1.27-.29-.36,0-.72.07-1.07.2-.35.13-.67.34-.95.61-.28.28-.51.64-.68,1.08s-.26.98-.26,1.6c0,.7.14,1.31.42,1.84.28.53.67.95,1.18,1.25.5.31,1.09.46,1.76.46.42,0,.79-.05,1.1-.16.31-.11.58-.24.8-.4.22-.16.41-.33.57-.5.16-.11.31-.16.47-.16.17,0,.31.06.43.18.12.12.18.26.18.43,0,.2-.1.39-.29.56-.35.37-.81.7-1.38.97-.57.28-1.18.41-1.83.41Z"/>
      <path class="st0" d="M407.64,437.99c.82,0,1.46.17,1.93.5s.8.79,1,1.35c.2.56.3,1.2.3,1.91v5.04c0,.2-.07.38-.21.52-.14.14-.31.22-.51.22-.22,0-.39-.07-.52-.22-.13-.14-.2-.32-.2-.52v-5c0-.46-.07-.87-.21-1.24-.14-.37-.37-.67-.69-.89-.32-.22-.76-.33-1.3-.33-.5,0-.97.11-1.39.33-.42.22-.76.52-1.01.89-.25.37-.38.79-.38,1.24v5c0,.2-.07.38-.21.52-.14.14-.31.22-.51.22s-.38-.07-.51-.22c-.14-.14-.21-.32-.21-.52v-7.83c0-.22.07-.39.21-.53s.31-.21.51-.21c.22,0,.39.07.52.21.13.14.2.31.2.53v1.26l-.36.4c.06-.31.2-.63.41-.95.22-.32.49-.6.81-.85s.68-.45,1.08-.6c.4-.15.81-.22,1.24-.22Z"/>
      <path class="st0" d="M417.65,437.99c.62,0,1.18.07,1.67.2s.88.31,1.17.54c.29.23.43.49.43.77,0,.17-.05.32-.16.47-.11.14-.26.22-.45.22-.16,0-.29-.03-.39-.1-.1-.07-.2-.14-.29-.23-.09-.09-.21-.18-.37-.26-.14-.07-.35-.13-.63-.19-.28-.05-.55-.08-.83-.08-.66,0-1.24.16-1.74.47-.5.31-.89.73-1.18,1.26-.29.53-.43,1.13-.43,1.8s.14,1.27.41,1.8c.28.53.66.95,1.15,1.26.49.31,1.06.47,1.71.47.42,0,.75-.04,1-.11.25-.07.46-.16.64-.25.2-.12.36-.24.48-.36.11-.12.27-.18.48-.18s.36.07.48.2c.11.13.17.29.17.49,0,.23-.15.46-.45.7s-.71.44-1.22.6c-.52.16-1.09.24-1.73.24-.91,0-1.71-.21-2.39-.64-.68-.43-1.21-1.01-1.59-1.75-.38-.74-.57-1.56-.57-2.47s.19-1.73.58-2.47c.39-.73.93-1.31,1.63-1.75.7-.43,1.5-.65,2.41-.65Z"/>
      <path class="st0" d="M429.84,438.08c.2,0,.38.07.51.22.14.14.21.32.21.52v7.83c0,1.02-.2,1.86-.59,2.52-.4.66-.93,1.15-1.59,1.48s-1.42.49-2.26.49c-.47,0-.92-.05-1.35-.14-.43-.1-.79-.22-1.06-.38-.23-.11-.39-.24-.49-.41s-.11-.33-.04-.51c.08-.22.21-.37.37-.45s.33-.08.51,0c.19.08.47.2.84.35.37.15.78.23,1.23.23.62,0,1.16-.12,1.6-.36.44-.24.79-.59,1.03-1.05s.36-1.04.36-1.72v-1.26l.2.43c-.18.38-.43.71-.76.99-.32.28-.7.49-1.12.64-.43.15-.88.22-1.38.22-.7,0-1.28-.15-1.75-.44-.47-.29-.83-.7-1.07-1.22-.24-.52-.36-1.12-.36-1.79v-5.44c0-.2.07-.38.21-.52.14-.14.31-.22.51-.22.22,0,.39.07.52.22.13.14.2.32.2.52v5.09c0,.82.18,1.43.54,1.84.36.41.92.62,1.67.62.48,0,.91-.11,1.3-.32.38-.22.69-.51.93-.89s.35-.79.35-1.25v-5.09c0-.2.07-.38.21-.52.14-.14.32-.22.53-.22Z"/>
    </g>
    <g>
      <path class="st0" d="M158.57,434.92c.21,0,.4.07.54.2.14.13.22.29.22.49,0,.11-.03.22-.07.34l-4.7,11.12c-.07.16-.17.27-.3.35-.13.08-.26.12-.41.12-.13-.01-.26-.06-.39-.13-.12-.08-.22-.19-.28-.33l-4.66-11.11s-.04-.1-.05-.16c-.01-.06-.02-.12-.02-.18,0-.21.08-.39.24-.52s.32-.2.48-.2c.32,0,.56.17.7.5l4.3,10.26h-.41l4.14-10.28c.14-.31.37-.47.67-.47Z"/>
      <path class="st0" d="M169.66,442.85c0,.94-.21,1.77-.62,2.5s-.97,1.31-1.67,1.73c-.7.42-1.49.63-2.37.63s-1.67-.21-2.38-.63c-.71-.42-1.27-1-1.68-1.73s-.62-1.57-.62-2.5.21-1.77.62-2.5.97-1.31,1.68-1.73c.71-.42,1.5-.63,2.38-.63s1.66.21,2.37.63c.7.42,1.26,1,1.67,1.73s.62,1.57.62,2.5ZM168.2,442.85c0-.7-.14-1.3-.42-1.83-.28-.52-.67-.94-1.15-1.24-.49-.31-1.03-.46-1.63-.46s-1.16.15-1.65.46c-.49.3-.87.72-1.16,1.24-.29.52-.43,1.13-.43,1.83s.14,1.29.43,1.82c.29.53.68.95,1.16,1.25.48.31,1.04.46,1.65.46s1.14-.15,1.63-.46c.49-.3.87-.72,1.15-1.25.28-.53.42-1.13.42-1.82Z"/>
      <path class="st0" d="M175.94,437.99c.62,0,1.18.07,1.67.2.49.13.88.31,1.17.54.29.23.43.48.43.77,0,.17-.05.32-.16.47-.11.14-.26.21-.45.21-.16,0-.29-.03-.39-.1-.1-.06-.2-.14-.29-.23-.09-.09-.21-.18-.37-.26-.14-.07-.36-.13-.63-.19-.28-.05-.55-.08-.83-.08-.66,0-1.24.16-1.74.47-.5.31-.89.73-1.18,1.26-.29.53-.43,1.13-.43,1.8s.14,1.27.41,1.8c.28.53.66.95,1.15,1.26s1.06.47,1.71.47c.42,0,.75-.04,1-.11s.46-.16.64-.25c.2-.12.36-.24.48-.36.11-.12.27-.18.48-.18s.36.06.48.2c.11.13.17.29.17.49,0,.23-.15.46-.45.7-.3.24-.71.44-1.22.6s-1.09.24-1.73.24c-.91,0-1.71-.21-2.39-.64-.69-.43-1.21-1.01-1.59-1.75s-.57-1.56-.57-2.47.19-1.73.58-2.47c.39-.73.93-1.31,1.63-1.74.7-.43,1.5-.65,2.41-.65Z"/>
      <path class="st0" d="M188.83,438.14c.2,0,.38.07.51.21s.21.31.21.51v7.94c0,.21-.07.38-.21.52-.14.14-.31.21-.51.21-.22,0-.39-.07-.53-.21-.14-.14-.21-.32-.21-.52v-1.71l.34-.04c0,.28-.09.57-.27.87-.18.31-.43.6-.74.87s-.68.49-1.1.67-.88.26-1.37.26c-.82,0-1.55-.21-2.21-.64s-1.17-1-1.54-1.74c-.37-.73-.56-1.57-.56-2.5s.19-1.79.57-2.51c.38-.72.89-1.29,1.53-1.71.64-.41,1.37-.62,2.17-.62.52,0,1,.08,1.44.25s.83.4,1.16.68.58.61.76.95c.18.35.27.7.27,1.04l-.47-.11v-1.96c0-.2.07-.38.21-.51s.31-.21.53-.21ZM185.12,446.38c.6,0,1.13-.15,1.58-.47.46-.31.82-.73,1.08-1.27.26-.53.4-1.14.4-1.81s-.13-1.25-.4-1.78c-.26-.53-.62-.95-1.08-1.26-.46-.31-.98-.47-1.58-.47s-1.11.15-1.57.46c-.46.3-.83.72-1.09,1.25-.26.53-.39,1.13-.39,1.8s.13,1.28.39,1.81c.26.54.62.96,1.08,1.27.46.31.99.47,1.59.47Z"/>
      <path class="st0" d="M196.8,437.99c.82,0,1.55.21,2.2.62.65.41,1.16.98,1.54,1.7.38.72.57,1.55.57,2.5s-.19,1.79-.57,2.52c-.38.73-.89,1.31-1.53,1.74-.64.43-1.37.64-2.17.64-.45,0-.86-.07-1.25-.21-.39-.14-.74-.32-1.06-.56-.32-.23-.58-.49-.8-.77-.21-.28-.37-.56-.47-.85l.4-.23v1.78c0,.21-.07.38-.2.52-.13.14-.31.21-.52.21s-.38-.07-.51-.21-.21-.31-.21-.53v-11.93c0-.2.07-.38.21-.52.14-.14.31-.22.51-.22s.39.07.52.22.2.32.2.52v5.54l-.27-.14c.08-.3.23-.59.44-.87.21-.28.47-.53.77-.76.31-.22.65-.4,1.03-.53.38-.13.77-.2,1.18-.2ZM196.64,439.33c-.6,0-1.13.15-1.59.46-.46.3-.82.72-1.08,1.24-.26.52-.39,1.12-.39,1.79s.13,1.28.39,1.82c.26.54.62.97,1.08,1.28.46.31.99.47,1.59.47s1.13-.15,1.58-.47c.46-.31.82-.74,1.08-1.28.26-.54.4-1.14.4-1.82s-.13-1.27-.4-1.79c-.26-.52-.62-.94-1.08-1.24-.46-.31-.98-.46-1.58-.46Z"/>
      <path class="st0" d="M210.23,438.23c.22,0,.39.07.52.21.13.14.2.31.2.53v4.9c0,1.21-.34,2.15-1.02,2.82s-1.62,1-2.83,1-2.14-.33-2.82-1-1.02-1.6-1.02-2.82v-4.9c0-.21.07-.39.21-.53.14-.14.31-.21.51-.21.22,0,.39.07.52.21.13.14.2.31.2.53v4.9c0,.82.21,1.43.63,1.85.42.42,1.01.63,1.76.63s1.36-.21,1.78-.63c.42-.42.63-1.04.63-1.85v-4.9c0-.21.06-.39.2-.53.13-.14.31-.21.52-.21Z"/>
      <path class="st0" d="M215.2,446.8c0,.21-.07.38-.21.52-.14.14-.32.21-.52.21s-.38-.07-.51-.21c-.14-.14-.21-.32-.21-.52v-11.84c0-.2.07-.38.21-.52.14-.14.32-.22.52-.22s.39.07.52.22c.13.14.2.32.2.52v11.84Z"/>
      <path class="st0" d="M225.66,438.14c.2,0,.38.07.51.21s.21.31.21.51v7.94c0,.21-.07.38-.21.52-.14.14-.31.21-.51.21-.22,0-.39-.07-.53-.21-.14-.14-.21-.32-.21-.52v-1.71l.34-.04c0,.28-.09.57-.27.87-.18.31-.43.6-.74.87s-.68.49-1.1.67-.88.26-1.37.26c-.82,0-1.55-.21-2.21-.64s-1.17-1-1.54-1.74c-.37-.73-.56-1.57-.56-2.5s.19-1.79.57-2.51c.38-.72.89-1.29,1.53-1.71.64-.41,1.37-.62,2.17-.62.52,0,1,.08,1.44.25s.83.4,1.16.68.58.61.76.95c.18.35.27.7.27,1.04l-.47-.11v-1.96c0-.2.07-.38.21-.51s.31-.21.53-.21ZM221.95,446.38c.6,0,1.13-.15,1.58-.47.46-.31.82-.73,1.08-1.27.26-.53.4-1.14.4-1.81s-.13-1.25-.4-1.78c-.26-.53-.62-.95-1.08-1.26-.46-.31-.98-.47-1.58-.47s-1.11.15-1.57.46c-.46.3-.83.72-1.09,1.25-.26.53-.39,1.13-.39,1.8s.13,1.28.39,1.81c.26.54.62.96,1.08,1.27.46.31.99.47,1.59.47Z"/>
      <path class="st0" d="M229.76,447.53c-.21,0-.38-.07-.51-.21-.14-.14-.21-.32-.21-.52v-7.83c0-.21.07-.39.21-.53s.31-.21.51-.21.39.07.52.21c.13.14.2.31.2.53v2.36l-.22-.38c.07-.37.2-.73.39-1.09.19-.36.42-.67.71-.96.29-.28.62-.5.99-.67.37-.16.78-.24,1.22-.24.26,0,.51.06.73.19.22.12.33.3.33.53,0,.25-.06.44-.2.57-.13.12-.28.19-.45.19-.16,0-.31-.04-.45-.11-.14-.07-.32-.11-.54-.11-.3,0-.6.08-.89.25-.29.17-.56.4-.81.69-.25.29-.45.63-.59,1.01-.15.38-.22.78-.22,1.21v4.37c0,.21-.07.38-.21.52-.14.14-.31.21-.51.21Z"/>
      <path class="st0" d="M243.22,438.08c.21,0,.38.07.51.21.14.14.21.32.21.52v7.83c0,1.02-.2,1.86-.59,2.52s-.93,1.15-1.59,1.48-1.42.48-2.26.48c-.47,0-.92-.05-1.35-.14-.43-.1-.79-.22-1.06-.38-.23-.11-.39-.24-.49-.4s-.11-.33-.04-.51c.08-.21.21-.37.37-.45s.33-.08.51,0c.19.08.47.2.84.35.37.15.78.23,1.23.23.62,0,1.16-.12,1.6-.36s.79-.59,1.03-1.05c.24-.46.36-1.04.36-1.72v-1.26l.2.43c-.18.38-.43.71-.76.99s-.7.49-1.12.64-.88.22-1.38.22c-.7,0-1.28-.15-1.76-.44-.47-.29-.83-.7-1.07-1.22s-.36-1.12-.36-1.79v-5.44c0-.21.07-.38.21-.52.14-.14.31-.21.51-.21.22,0,.39.07.52.21.13.14.2.32.2.52v5.09c0,.82.18,1.43.54,1.84.36.41.92.62,1.68.62.48,0,.91-.11,1.29-.32.38-.22.69-.51.93-.89.23-.38.35-.79.35-1.25v-5.09c0-.21.07-.38.21-.52.14-.14.32-.21.53-.21Z"/>
    </g>
    <g>
      <g>
        <path class="st0" d="M191.43,116.57c0,.92-.15,1.78-.45,2.56-.3.79-.72,1.47-1.27,2.06s-1.19,1.04-1.93,1.37c-.74.32-1.55.49-2.44.49s-1.68-.16-2.42-.49c-.74-.32-1.38-.78-1.93-1.37s-.97-1.28-1.26-2.06c-.29-.79-.44-1.64-.44-2.56s.15-1.78.44-2.57c.29-.79.71-1.47,1.26-2.06s1.19-1.04,1.93-1.37c.74-.32,1.54-.49,2.42-.49s1.7.16,2.44.49,1.38.78,1.93,1.37.97,1.28,1.27,2.06c.3.79.45,1.64.45,2.57ZM189.86,116.57c0-.97-.19-1.84-.58-2.6-.38-.76-.92-1.36-1.59-1.79-.68-.43-1.46-.65-2.35-.65s-1.65.22-2.33.65c-.68.43-1.21,1.03-1.59,1.78-.38.76-.58,1.63-.58,2.61s.19,1.84.58,2.6c.38.76.92,1.36,1.59,1.79.68.43,1.45.65,2.33.65s1.67-.22,2.35-.65c.68-.43,1.21-1.03,1.59-1.79.38-.76.58-1.63.58-2.6Z"/>
        <path class="st0" d="M194.27,122.87c-.2,0-.38-.07-.51-.22-.14-.14-.21-.32-.21-.52v-7.83c0-.22.07-.39.21-.53s.31-.21.51-.21c.22,0,.39.07.52.21.13.14.2.31.2.53v2.36l-.22-.38c.07-.37.2-.74.39-1.09.19-.35.42-.67.71-.95s.62-.5.99-.67.78-.24,1.22-.24c.26,0,.51.06.73.19.22.13.33.3.33.53,0,.25-.07.44-.2.57-.13.13-.28.19-.45.19-.16,0-.31-.04-.45-.11s-.32-.11-.54-.11c-.3,0-.6.08-.89.25-.29.17-.56.4-.81.69s-.44.63-.59,1.01c-.15.38-.22.78-.22,1.21v4.37c0,.2-.07.38-.21.52-.14.14-.31.22-.51.22Z"/>
        <path class="st0" d="M208.22,113.47c.2,0,.38.07.51.21.14.14.21.31.21.51v7.94c0,.2-.07.38-.21.52-.14.14-.31.22-.51.22-.22,0-.39-.07-.53-.22-.14-.14-.21-.32-.21-.52v-1.71l.34-.04c0,.28-.09.57-.27.87-.18.31-.43.59-.74.86-.31.27-.68.49-1.1.67s-.88.26-1.37.26c-.82,0-1.55-.21-2.21-.64s-1.17-1-1.54-1.74c-.37-.73-.56-1.57-.56-2.5s.19-1.78.57-2.51c.38-.73.89-1.3,1.53-1.71s1.37-.62,2.17-.62c.52,0,1,.08,1.44.25.44.17.83.4,1.16.68.33.29.58.61.76.95.18.35.27.7.27,1.04l-.47-.11v-1.96c0-.2.07-.38.21-.51.14-.14.32-.21.53-.21ZM204.51,121.72c.6,0,1.13-.16,1.58-.47.46-.31.82-.73,1.08-1.27s.4-1.14.4-1.81-.13-1.25-.4-1.78c-.26-.53-.62-.95-1.08-1.26-.46-.31-.98-.47-1.58-.47s-1.11.15-1.58.46-.83.72-1.09,1.25-.4,1.13-.4,1.8.13,1.28.39,1.81c.26.53.62.96,1.08,1.27.46.31.99.47,1.59.47Z"/>
        <path class="st0" d="M213.19,122.13c0,.2-.07.38-.22.52-.14.14-.32.22-.52.22s-.38-.07-.51-.22c-.14-.14-.21-.32-.21-.52v-11.84c0-.2.07-.38.22-.52s.32-.22.52-.22c.22,0,.39.07.52.22.13.14.2.32.2.52v11.84Z"/>
        <path class="st0" d="M162.51,142.49c.2,0,.38.07.52.21.14.14.22.31.22.51s-.07.37-.22.5c-.14.13-.32.2-.52.2h-6.23c-.22,0-.39-.07-.53-.22-.14-.14-.21-.32-.21-.52v-11.12c0-.2.07-.38.22-.52.14-.14.33-.22.56-.22.2,0,.38.07.52.22s.22.32.22.52v10.76l-.36-.32h5.81Z"/>
        <path class="st0" d="M172.74,134.51c.2,0,.38.07.51.21.14.14.21.31.21.51v7.94c0,.2-.07.38-.21.52-.14.14-.31.22-.51.22-.22,0-.39-.07-.53-.22-.14-.14-.21-.32-.21-.52v-1.71l.34-.04c0,.28-.09.57-.27.87-.18.31-.43.59-.74.86-.31.27-.68.49-1.1.67s-.88.26-1.37.26c-.82,0-1.55-.21-2.21-.64s-1.17-1-1.54-1.74c-.37-.73-.56-1.57-.56-2.5s.19-1.78.57-2.51c.38-.73.89-1.3,1.53-1.71s1.37-.62,2.17-.62c.52,0,1,.08,1.44.25.44.17.83.4,1.16.68.33.29.58.61.76.95.18.35.27.7.27,1.04l-.47-.11v-1.96c0-.2.07-.38.21-.51.14-.14.32-.21.53-.21ZM169.03,142.76c.6,0,1.13-.16,1.58-.47.46-.31.82-.73,1.08-1.27s.4-1.14.4-1.81-.13-1.25-.4-1.78c-.26-.53-.62-.95-1.08-1.26-.46-.31-.98-.47-1.58-.47s-1.11.15-1.58.46-.83.72-1.09,1.25-.4,1.13-.4,1.8.13,1.28.39,1.81c.26.53.62.96,1.08,1.27.46.31.99.47,1.59.47Z"/>
        <path class="st0" d="M180.75,134.37c.82,0,1.46.17,1.93.5s.8.79,1,1.35c.2.56.3,1.2.3,1.91v5.04c0,.2-.07.38-.21.52-.14.14-.31.22-.51.22-.22,0-.39-.07-.52-.22-.13-.14-.2-.32-.2-.52v-5c0-.46-.07-.87-.21-1.24-.14-.37-.37-.67-.69-.89-.32-.22-.76-.33-1.3-.33-.5,0-.97.11-1.39.33-.42.22-.76.52-1.01.89-.25.37-.38.79-.38,1.24v5c0,.2-.07.38-.21.52-.14.14-.31.22-.51.22s-.38-.07-.51-.22c-.14-.14-.21-.32-.21-.52v-7.83c0-.22.07-.39.21-.53s.31-.21.51-.21c.22,0,.39.07.52.21.13.14.2.31.2.53v1.26l-.36.4c.06-.31.2-.63.41-.95.22-.32.49-.6.81-.85s.68-.45,1.08-.6c.4-.15.81-.22,1.24-.22Z"/>
        <path class="st0" d="M190.52,134.37c.53,0,1.01.09,1.46.26.44.17.83.4,1.16.68.33.28.59.56.77.86.19.3.28.58.28.85l-.36-.22v-1.57c0-.2.07-.38.21-.51s.31-.21.51-.21c.22,0,.39.07.53.21.14.14.21.31.21.51v7.88c0,.98-.21,1.8-.62,2.46s-.97,1.14-1.67,1.46c-.7.32-1.48.48-2.34.48-.36,0-.76-.04-1.19-.13-.43-.09-.82-.2-1.15-.34-.34-.14-.55-.28-.65-.42-.18-.13-.29-.27-.33-.41-.04-.14-.02-.29.06-.43.12-.17.26-.25.43-.25s.38.05.65.16c.12.04.3.1.53.18.23.08.5.16.79.22.29.07.58.1.87.1,1.02,0,1.8-.27,2.34-.8s.81-1.24.81-2.12v-1.67l.2.09c-.07.34-.22.65-.43.94s-.48.54-.8.76c-.32.22-.67.4-1.05.52-.38.13-.78.19-1.19.19-.84,0-1.59-.21-2.26-.63s-1.19-1-1.58-1.73c-.39-.73-.58-1.57-.58-2.5s.19-1.79.58-2.52c.39-.73.92-1.3,1.58-1.72.66-.41,1.4-.62,2.23-.62ZM190.72,135.7c-.61,0-1.16.15-1.65.46-.49.31-.86.73-1.13,1.26-.27.53-.4,1.14-.4,1.81s.13,1.26.4,1.79c.27.53.65.96,1.13,1.27.49.31,1.03.47,1.65.47s1.18-.15,1.66-.46c.48-.31.86-.72,1.13-1.25.28-.53.41-1.13.41-1.82s-.14-1.29-.41-1.83-.65-.95-1.13-1.25c-.48-.3-1.03-.45-1.66-.45Z"/>
        <path class="st0" d="M204.78,134.61c.22,0,.39.07.52.21.13.14.2.31.2.53v4.9c0,1.21-.34,2.15-1.02,2.82s-1.62,1-2.83,1-2.14-.33-2.82-1-1.02-1.6-1.02-2.82v-4.9c0-.22.07-.39.21-.53s.31-.21.51-.21c.22,0,.39.07.52.21.13.14.2.31.2.53v4.9c0,.82.21,1.43.63,1.85.42.42,1.01.63,1.76.63s1.36-.21,1.78-.63.63-1.04.63-1.85v-4.9c0-.22.07-.39.2-.53.13-.14.31-.21.52-.21Z"/>
        <path class="st0" d="M215.83,134.51c.2,0,.38.07.51.21.14.14.21.31.21.51v7.94c0,.2-.07.38-.21.52-.14.14-.31.22-.51.22-.22,0-.39-.07-.53-.22-.14-.14-.21-.32-.21-.52v-1.71l.34-.04c0,.28-.09.57-.27.87-.18.31-.43.59-.74.86-.31.27-.68.49-1.1.67s-.88.26-1.37.26c-.82,0-1.55-.21-2.21-.64s-1.17-1-1.54-1.74c-.37-.73-.56-1.57-.56-2.5s.19-1.78.57-2.51c.38-.73.89-1.3,1.53-1.71s1.37-.62,2.17-.62c.52,0,1,.08,1.44.25.44.17.83.4,1.16.68.33.29.58.61.76.95.18.35.27.7.27,1.04l-.47-.11v-1.96c0-.2.07-.38.21-.51.14-.14.32-.21.53-.21ZM212.12,142.76c.6,0,1.13-.16,1.58-.47.46-.31.82-.73,1.08-1.27s.4-1.14.4-1.81-.13-1.25-.4-1.78c-.26-.53-.62-.95-1.08-1.26-.46-.31-.98-.47-1.58-.47s-1.11.15-1.58.46-.83.72-1.09,1.25-.4,1.13-.4,1.8.13,1.28.39,1.81c.26.53.62.96,1.08,1.27.46.31.99.47,1.59.47Z"/>
        <path class="st0" d="M223.1,134.37c.53,0,1.01.09,1.46.26.44.17.83.4,1.16.68.33.28.59.56.77.86.19.3.28.58.28.85l-.36-.22v-1.57c0-.2.07-.38.21-.51s.31-.21.51-.21c.22,0,.39.07.53.21.14.14.21.31.21.51v7.88c0,.98-.21,1.8-.62,2.46s-.97,1.14-1.67,1.46c-.7.32-1.48.48-2.34.48-.36,0-.76-.04-1.19-.13-.43-.09-.82-.2-1.15-.34-.34-.14-.55-.28-.65-.42-.18-.13-.29-.27-.33-.41-.04-.14-.02-.29.06-.43.12-.17.26-.25.43-.25s.38.05.65.16c.12.04.3.1.53.18.23.08.5.16.79.22.29.07.58.1.87.1,1.02,0,1.8-.27,2.34-.8s.81-1.24.81-2.12v-1.67l.2.09c-.07.34-.22.65-.43.94s-.48.54-.8.76c-.32.22-.67.4-1.05.52-.38.13-.78.19-1.19.19-.84,0-1.59-.21-2.26-.63s-1.19-1-1.58-1.73c-.39-.73-.58-1.57-.58-2.5s.19-1.79.58-2.52c.39-.73.92-1.3,1.58-1.72.66-.41,1.4-.62,2.23-.62ZM223.3,135.7c-.61,0-1.16.15-1.65.46-.49.31-.86.73-1.13,1.26-.27.53-.4,1.14-.4,1.81s.13,1.26.4,1.79c.27.53.65.96,1.13,1.27.49.31,1.03.47,1.65.47s1.18-.15,1.66-.46c.48-.31.86-.72,1.13-1.25.28-.53.41-1.13.41-1.82s-.14-1.29-.41-1.83-.65-.95-1.13-1.25c-.48-.3-1.03-.45-1.66-.45Z"/>
        <path class="st0" d="M234.48,144.09c-.97,0-1.82-.2-2.54-.61-.72-.41-1.28-.97-1.67-1.68-.4-.71-.59-1.54-.59-2.47,0-1.04.21-1.94.62-2.67.41-.74.95-1.3,1.62-1.69.67-.39,1.37-.58,2.11-.58.55,0,1.09.1,1.6.31.52.2.97.5,1.37.9s.71.86.95,1.4c.24.54.37,1.15.38,1.84,0,.19-.07.35-.22.48-.14.13-.31.19-.5.19h-7.11l-.32-1.24h6.91l-.29.25v-.4c-.04-.49-.2-.91-.48-1.27-.28-.35-.62-.63-1.03-.82-.4-.19-.83-.29-1.27-.29-.36,0-.72.07-1.07.2-.35.13-.67.34-.95.61-.28.28-.51.64-.68,1.08s-.26.98-.26,1.6c0,.7.14,1.31.42,1.84.28.53.67.95,1.18,1.25.5.31,1.09.46,1.76.46.42,0,.79-.05,1.1-.16.31-.11.58-.24.8-.4.22-.16.41-.33.57-.5.16-.11.31-.16.47-.16.17,0,.31.06.43.18.12.12.18.26.18.43,0,.2-.1.39-.29.56-.35.37-.81.7-1.38.97-.57.28-1.18.41-1.83.41Z"/>
      </g>
      <circle class="st1" cx="196.57" cy="127.73" r="77.61"/>
    </g>
    <g>
      <g>
        <path class="st0" d="M348.84,110.27c.65,0,1.24.16,1.77.49s.95.77,1.26,1.33c.31.56.46,1.21.46,1.93s-.15,1.35-.46,1.93c-.31.58-.73,1.04-1.26,1.38s-1.12.51-1.77.51h-3.65l.13-.23v4.54c0,.2-.07.38-.2.52-.13.14-.3.22-.5.22-.22,0-.39-.07-.52-.22-.13-.14-.2-.32-.2-.52v-11.12c0-.2.07-.38.22-.52.14-.14.32-.22.52-.22h4.21ZM348.84,116.43c.38,0,.73-.11,1.04-.32.31-.22.55-.51.73-.87.18-.37.27-.77.27-1.22s-.09-.84-.27-1.2c-.18-.35-.42-.63-.73-.84-.31-.2-.65-.31-1.04-.31h-3.65l.13-.22v5.15l-.13-.18h3.65Z"/>
        <path class="st0" d="M358.94,113.42c.79,0,1.42.17,1.88.51.46.34.79.8.99,1.37.2.57.3,1.2.3,1.9v4.93c0,.2-.07.38-.21.52-.14.14-.31.22-.51.22-.22,0-.39-.07-.52-.22-.13-.14-.2-.32-.2-.52v-4.93c0-.44-.07-.85-.2-1.22-.13-.37-.35-.67-.66-.89-.31-.22-.72-.33-1.25-.33-.49,0-.94.11-1.35.33-.41.22-.73.52-.97.89s-.36.78-.36,1.22v4.93c0,.2-.07.38-.21.52-.14.14-.31.22-.51.22s-.38-.07-.51-.22c-.14-.14-.21-.32-.21-.52v-11.84c0-.2.07-.38.21-.52.14-.14.31-.22.51-.22.22,0,.39.07.52.22.13.14.2.32.2.52v5.36l-.36.4c.06-.31.19-.63.4-.94.2-.32.46-.6.77-.86.31-.25.66-.45,1.04-.6.38-.15.79-.23,1.21-.23Z"/>
        <path class="st0" d="M373.61,118.19c0,.94-.21,1.77-.62,2.5-.41.73-.97,1.31-1.67,1.73s-1.49.63-2.37.63-1.67-.21-2.38-.63-1.27-1-1.68-1.73c-.41-.73-.62-1.57-.62-2.5s.21-1.77.62-2.5c.41-.73.97-1.31,1.68-1.73s1.5-.63,2.38-.63,1.67.21,2.37.63,1.26,1,1.67,1.73c.41.73.62,1.57.62,2.5ZM372.15,118.19c0-.7-.14-1.31-.42-1.83-.28-.52-.67-.94-1.15-1.24-.49-.31-1.03-.46-1.63-.46s-1.16.15-1.65.46c-.49.31-.87.72-1.16,1.24-.29.52-.43,1.13-.43,1.83s.14,1.29.43,1.82c.29.53.67.95,1.16,1.25.49.31,1.04.46,1.65.46s1.14-.15,1.63-.46c.49-.31.87-.72,1.15-1.25.28-.53.42-1.13.42-1.82Z"/>
        <path class="st0" d="M380.39,113.33c.82,0,1.46.17,1.93.5s.8.79,1,1.35c.2.56.3,1.2.3,1.91v5.04c0,.2-.07.38-.21.52-.14.14-.31.22-.51.22-.22,0-.39-.07-.52-.22-.13-.14-.2-.32-.2-.52v-5c0-.46-.07-.87-.21-1.24-.14-.37-.37-.67-.69-.89-.32-.22-.76-.33-1.3-.33-.5,0-.97.11-1.39.33-.42.22-.76.52-1.01.89-.25.37-.38.79-.38,1.24v5c0,.2-.07.38-.21.52-.14.14-.31.22-.51.22s-.38-.07-.51-.22c-.14-.14-.21-.32-.21-.52v-7.83c0-.22.07-.39.21-.53s.31-.21.51-.21c.22,0,.39.07.52.21.13.14.2.31.2.53v1.26l-.36.4c.06-.31.2-.63.41-.95.22-.32.49-.6.81-.85s.68-.45,1.08-.6c.4-.15.81-.22,1.24-.22Z"/>
        <path class="st0" d="M395.12,118.19c0,.94-.21,1.77-.62,2.5-.41.73-.97,1.31-1.67,1.73s-1.49.63-2.37.63-1.67-.21-2.38-.63-1.27-1-1.68-1.73c-.41-.73-.62-1.57-.62-2.5s.21-1.77.62-2.5c.41-.73.97-1.31,1.68-1.73s1.5-.63,2.38-.63,1.67.21,2.37.63,1.26,1,1.67,1.73c.41.73.62,1.57.62,2.5ZM393.66,118.19c0-.7-.14-1.31-.42-1.83-.28-.52-.67-.94-1.15-1.24-.49-.31-1.03-.46-1.63-.46s-1.16.15-1.65.46c-.49.31-.87.72-1.16,1.24-.29.52-.43,1.13-.43,1.83s.14,1.29.43,1.82c.29.53.67.95,1.16,1.25.49.31,1.04.46,1.65.46s1.14-.15,1.63-.46c.49-.31.87-.72,1.15-1.25.28-.53.42-1.13.42-1.82Z"/>
        <path class="st0" d="M398.86,122.13c0,.2-.07.38-.22.52-.14.14-.32.22-.52.22s-.38-.07-.51-.22c-.14-.14-.21-.32-.21-.52v-11.84c0-.2.07-.38.22-.52s.32-.22.52-.22c.22,0,.39.07.52.22.13.14.2.32.2.52v11.84Z"/>
        <path class="st0" d="M410.31,118.19c0,.94-.21,1.77-.62,2.5-.41.73-.97,1.31-1.67,1.73s-1.49.63-2.37.63-1.67-.21-2.38-.63-1.27-1-1.68-1.73c-.41-.73-.62-1.57-.62-2.5s.21-1.77.62-2.5c.41-.73.97-1.31,1.68-1.73s1.5-.63,2.38-.63,1.67.21,2.37.63,1.26,1,1.67,1.73c.41.73.62,1.57.62,2.5ZM408.85,118.19c0-.7-.14-1.31-.42-1.83-.28-.52-.67-.94-1.15-1.24-.49-.31-1.03-.46-1.63-.46s-1.16.15-1.65.46c-.49.31-.87.72-1.16,1.24-.29.52-.43,1.13-.43,1.83s.14,1.29.43,1.82c.29.53.67.95,1.16,1.25.49.31,1.04.46,1.65.46s1.14-.15,1.63-.46c.49-.31.87-.72,1.15-1.25.28-.53.42-1.13.42-1.82Z"/>
        <path class="st0" d="M416.36,113.33c.53,0,1.01.09,1.46.26.44.17.83.4,1.16.68.33.28.59.56.77.86.19.3.28.58.28.85l-.36-.22v-1.57c0-.2.07-.38.21-.51s.31-.21.51-.21c.22,0,.39.07.53.21.14.14.21.31.21.51v7.88c0,.98-.21,1.8-.62,2.46s-.97,1.14-1.67,1.46c-.7.32-1.48.48-2.34.48-.36,0-.76-.04-1.19-.13-.43-.09-.82-.2-1.15-.34-.34-.14-.55-.28-.65-.42-.18-.13-.29-.27-.33-.41-.04-.14-.02-.29.06-.43.12-.17.26-.25.43-.25s.38.05.65.16c.12.04.3.1.53.18.23.08.5.16.79.22.29.07.58.1.87.1,1.02,0,1.8-.27,2.34-.8s.81-1.24.81-2.12v-1.67l.2.09c-.07.34-.22.65-.43.94s-.48.54-.8.76c-.32.22-.67.4-1.05.52-.38.13-.78.19-1.19.19-.84,0-1.59-.21-2.26-.63s-1.19-1-1.58-1.73c-.39-.73-.58-1.57-.58-2.5s.19-1.79.58-2.52c.39-.73.92-1.3,1.58-1.72.66-.41,1.4-.62,2.23-.62ZM416.55,114.66c-.61,0-1.16.15-1.65.46-.49.31-.86.73-1.13,1.26-.27.53-.4,1.14-.4,1.81s.13,1.26.4,1.79c.27.53.65.96,1.13,1.27.49.31,1.03.47,1.65.47s1.18-.15,1.66-.46c.48-.31.86-.72,1.13-1.25.28-.53.41-1.13.41-1.82s-.14-1.29-.41-1.83-.65-.95-1.13-1.25c-.48-.3-1.03-.45-1.66-.45Z"/>
        <path class="st0" d="M424.44,112.21c-.3,0-.52-.06-.67-.18-.14-.12-.22-.31-.22-.56v-.25c0-.25.08-.44.23-.56s.38-.18.67-.18.5.06.65.18c.14.12.22.31.22.56v.25c0,.25-.08.44-.23.56s-.37.18-.66.18ZM425.18,122.13c0,.2-.07.38-.21.52-.14.14-.31.22-.51.22-.22,0-.39-.07-.53-.22-.14-.14-.21-.32-.21-.52v-7.97c0-.2.07-.38.21-.52.14-.14.32-.22.53-.22.2,0,.38.07.51.22.14.14.21.32.21.52v7.97Z"/>
        <path class="st0" d="M431.89,113.33c.62,0,1.18.07,1.67.2s.88.31,1.17.54c.29.23.43.49.43.77,0,.17-.05.32-.16.47-.11.14-.26.22-.45.22-.16,0-.29-.03-.39-.1-.1-.07-.2-.14-.29-.23-.09-.09-.21-.18-.37-.26-.14-.07-.35-.13-.63-.19-.28-.05-.55-.08-.83-.08-.66,0-1.24.16-1.74.47-.5.31-.89.73-1.18,1.26-.29.53-.43,1.13-.43,1.8s.14,1.27.41,1.8c.28.53.66.95,1.15,1.26.49.31,1.06.47,1.71.47.42,0,.75-.04,1-.11.25-.07.46-.16.64-.25.2-.12.36-.24.48-.36.11-.12.27-.18.48-.18s.36.07.48.2c.11.13.17.29.17.49,0,.23-.15.46-.45.7s-.71.44-1.22.6c-.52.16-1.09.24-1.73.24-.91,0-1.71-.21-2.39-.64-.68-.43-1.21-1.01-1.59-1.75-.38-.74-.57-1.56-.57-2.47s.19-1.73.58-2.47c.39-.73.93-1.31,1.63-1.75.7-.43,1.5-.65,2.41-.65Z"/>
        <path class="st0" d="M444.78,113.47c.2,0,.38.07.51.21.14.14.21.31.21.51v7.94c0,.2-.07.38-.21.52-.14.14-.31.22-.51.22-.22,0-.39-.07-.53-.22-.14-.14-.21-.32-.21-.52v-1.71l.34-.04c0,.28-.09.57-.27.87-.18.31-.43.59-.74.86-.31.27-.68.49-1.1.67s-.88.26-1.37.26c-.82,0-1.55-.21-2.21-.64s-1.17-1-1.54-1.74c-.37-.73-.56-1.57-.56-2.5s.19-1.78.57-2.51c.38-.73.89-1.3,1.53-1.71s1.37-.62,2.17-.62c.52,0,1,.08,1.44.25.44.17.83.4,1.16.68.33.29.58.61.76.95.18.35.27.7.27,1.04l-.47-.11v-1.96c0-.2.07-.38.21-.51.14-.14.32-.21.53-.21ZM441.07,121.72c.6,0,1.13-.16,1.58-.47.46-.31.82-.73,1.08-1.27s.4-1.14.4-1.81-.13-1.25-.4-1.78c-.26-.53-.62-.95-1.08-1.26-.46-.31-.98-.47-1.58-.47s-1.11.15-1.58.46-.83.72-1.09,1.25-.4,1.13-.4,1.8.13,1.28.39,1.81c.26.53.62.96,1.08,1.27.46.31.99.47,1.59.47Z"/>
        <path class="st0" d="M449.74,122.13c0,.2-.07.38-.22.52-.14.14-.32.22-.52.22s-.38-.07-.51-.22c-.14-.14-.21-.32-.21-.52v-11.84c0-.2.07-.38.22-.52s.32-.22.52-.22c.22,0,.39.07.52.22.13.14.2.32.2.52v11.84Z"/>
        <path class="st0" d="M359.57,133.18l-4.23,10.3c-.05.14-.13.26-.25.35s-.25.13-.38.13c-.23,0-.4-.06-.5-.19-.11-.13-.17-.27-.18-.44,0-.08.01-.17.04-.27l4.66-11.32c.07-.17.17-.29.3-.38s.27-.12.42-.11c.16,0,.3.04.42.13.13.08.21.2.26.36l4.64,11.21c.04.1.05.19.05.29,0,.22-.07.39-.22.52-.14.13-.31.2-.49.2-.16,0-.29-.04-.41-.13s-.21-.21-.27-.37l-4.28-10.3.41.02ZM356.24,140.54l.61-1.4h5.35l.27,1.4h-6.23Z"/>
        <path class="st0" d="M377.38,134.44c.19,0,.36.07.5.2.14.13.21.31.21.54,0,.05,0,.1,0,.15s-.02.1-.04.13l-2.77,7.97c-.06.16-.16.28-.3.37-.14.09-.29.12-.44.1-.28-.01-.49-.17-.63-.47l-2.27-5.67.36.05-2.05,5.62c-.13.3-.34.46-.63.47-.16.02-.31,0-.45-.1-.14-.09-.25-.21-.31-.37l-2.81-7.97c-.04-.1-.05-.19-.05-.29,0-.2.07-.38.2-.52.13-.14.31-.22.54-.22.14,0,.28.04.4.11.12.07.2.19.25.36l2.43,7.07-.38-.02,2.09-5.4c.13-.3.36-.45.68-.45.17,0,.3.04.4.12.1.08.18.19.23.33l2.2,5.4-.45.04,2.43-7.09c.1-.31.32-.47.68-.47Z"/>
        <path class="st0" d="M387.76,134.51c.2,0,.38.07.51.21.14.14.21.31.21.51v7.94c0,.2-.07.38-.21.52-.14.14-.31.22-.51.22-.22,0-.39-.07-.53-.22-.14-.14-.21-.32-.21-.52v-1.71l.34-.04c0,.28-.09.57-.27.87-.18.31-.43.59-.74.86-.31.27-.68.49-1.1.67s-.88.26-1.37.26c-.82,0-1.55-.21-2.21-.64s-1.17-1-1.54-1.74c-.37-.73-.56-1.57-.56-2.5s.19-1.78.57-2.51c.38-.73.89-1.3,1.53-1.71s1.37-.62,2.17-.62c.52,0,1,.08,1.44.25.44.17.83.4,1.16.68.33.29.58.61.76.95.18.35.27.7.27,1.04l-.47-.11v-1.96c0-.2.07-.38.21-.51.14-.14.32-.21.53-.21ZM384.05,142.76c.6,0,1.13-.16,1.58-.47.46-.31.82-.73,1.08-1.27s.4-1.14.4-1.81-.13-1.25-.4-1.78c-.26-.53-.62-.95-1.08-1.26-.46-.31-.98-.47-1.58-.47s-1.11.15-1.58.46-.83.72-1.09,1.25-.4,1.13-.4,1.8.13,1.28.39,1.81c.26.53.62.96,1.08,1.27.46.31.99.47,1.59.47Z"/>
        <path class="st0" d="M391.87,143.91c-.2,0-.38-.07-.51-.22-.14-.14-.21-.32-.21-.52v-7.83c0-.22.07-.39.21-.53s.31-.21.51-.21c.22,0,.39.07.52.21.13.14.2.31.2.53v2.36l-.22-.38c.07-.37.2-.74.39-1.09.19-.35.42-.67.71-.95s.62-.5.99-.67.78-.24,1.22-.24c.26,0,.51.06.73.19.22.13.33.3.33.53,0,.25-.07.44-.2.57-.13.13-.28.19-.45.19-.16,0-.31-.04-.45-.11s-.32-.11-.54-.11c-.3,0-.6.08-.89.25-.29.17-.56.4-.81.69s-.44.63-.59,1.01c-.15.38-.22.78-.22,1.21v4.37c0,.2-.07.38-.21.52-.14.14-.31.22-.51.22Z"/>
        <path class="st0" d="M402.27,144.09c-.97,0-1.82-.2-2.54-.61-.72-.41-1.28-.97-1.67-1.68-.4-.71-.59-1.54-.59-2.47,0-1.04.21-1.94.62-2.67.41-.74.95-1.3,1.62-1.69.67-.39,1.37-.58,2.11-.58.55,0,1.09.1,1.6.31.52.2.97.5,1.37.9s.71.86.95,1.4c.24.54.37,1.15.38,1.84,0,.19-.07.35-.22.48-.14.13-.31.19-.5.19h-7.11l-.32-1.24h6.91l-.29.25v-.4c-.04-.49-.2-.91-.48-1.27-.28-.35-.62-.63-1.03-.82-.4-.19-.83-.29-1.27-.29-.36,0-.72.07-1.07.2-.35.13-.67.34-.95.61-.28.28-.51.64-.68,1.08s-.26.98-.26,1.6c0,.7.14,1.31.42,1.84.28.53.67.95,1.18,1.25.5.31,1.09.46,1.76.46.42,0,.79-.05,1.1-.16.31-.11.58-.24.8-.4.22-.16.41-.33.57-.5.16-.11.31-.16.47-.16.17,0,.31.06.43.18.12.12.18.26.18.43,0,.2-.1.39-.29.56-.35.37-.81.7-1.38.97-.57.28-1.18.41-1.83.41Z"/>
        <path class="st0" d="M412.91,134.37c.82,0,1.46.17,1.93.5s.8.79,1,1.35c.2.56.3,1.2.3,1.91v5.04c0,.2-.07.38-.21.52-.14.14-.31.22-.51.22-.22,0-.39-.07-.52-.22-.13-.14-.2-.32-.2-.52v-5c0-.46-.07-.87-.21-1.24-.14-.37-.37-.67-.69-.89-.32-.22-.76-.33-1.3-.33-.5,0-.97.11-1.39.33-.42.22-.76.52-1.01.89-.25.37-.38.79-.38,1.24v5c0,.2-.07.38-.21.52-.14.14-.31.22-.51.22s-.38-.07-.51-.22c-.14-.14-.21-.32-.21-.52v-7.83c0-.22.07-.39.21-.53s.31-.21.51-.21c.22,0,.39.07.52.21.13.14.2.31.2.53v1.26l-.36.4c.06-.31.2-.63.41-.95.22-.32.49-.6.81-.85s.68-.45,1.08-.6c.4-.15.81-.22,1.24-.22Z"/>
        <path class="st0" d="M423.1,144.09c-.97,0-1.82-.2-2.54-.61-.72-.41-1.28-.97-1.67-1.68-.4-.71-.59-1.54-.59-2.47,0-1.04.21-1.94.62-2.67.41-.74.95-1.3,1.62-1.69.67-.39,1.37-.58,2.11-.58.55,0,1.09.1,1.6.31.52.2.97.5,1.37.9s.71.86.95,1.4c.24.54.37,1.15.38,1.84,0,.19-.07.35-.22.48-.14.13-.31.19-.5.19h-7.11l-.32-1.24h6.91l-.29.25v-.4c-.04-.49-.2-.91-.48-1.27-.28-.35-.62-.63-1.03-.82-.4-.19-.83-.29-1.27-.29-.36,0-.72.07-1.07.2-.35.13-.67.34-.95.61-.28.28-.51.64-.68,1.08s-.26.98-.26,1.6c0,.7.14,1.31.42,1.84.28.53.67.95,1.18,1.25.5.31,1.09.46,1.76.46.42,0,.79-.05,1.1-.16.31-.11.58-.24.8-.4.22-.16.41-.33.57-.5.16-.11.31-.16.47-.16.17,0,.31.06.43.18.12.12.18.26.18.43,0,.2-.1.39-.29.56-.35.37-.81.7-1.38.97-.57.28-1.18.41-1.83.41Z"/>
        <path class="st0" d="M428.57,142.44c-.1-.16-.14-.32-.13-.5,0-.17.1-.33.3-.46.13-.08.28-.12.44-.11.16.01.31.09.44.23.34.4.72.71,1.15.94.43.23.96.35,1.58.35.28-.01.56-.06.85-.14.29-.08.54-.23.74-.44s.3-.49.3-.84-.1-.6-.31-.8c-.2-.2-.47-.36-.8-.49-.33-.13-.68-.24-1.05-.33-.4-.11-.79-.23-1.17-.36-.38-.13-.73-.3-1.04-.51-.31-.21-.55-.47-.74-.79-.19-.32-.28-.71-.28-1.18,0-.54.15-1.01.44-1.4.29-.4.69-.7,1.18-.92s1.04-.32,1.64-.32c.34,0,.69.04,1.05.12s.72.21,1.07.4c.35.19.65.44.92.77.11.12.17.27.18.45.01.18-.07.34-.23.49-.13.1-.28.14-.44.13-.16,0-.3-.06-.4-.17-.26-.31-.59-.55-.96-.71s-.79-.24-1.25-.24c-.28,0-.55.04-.83.14-.28.09-.51.23-.69.42-.19.19-.28.46-.28.81.01.32.12.59.32.79s.48.37.83.5c.35.13.73.25,1.15.37.38.1.75.21,1.11.33.35.13.67.29.96.5s.52.46.68.78c.17.32.25.72.25,1.2,0,.55-.16,1.03-.47,1.43-.31.4-.72.71-1.23.92-.51.21-1.06.31-1.65.31-.66,0-1.31-.12-1.96-.37-.65-.25-1.21-.67-1.67-1.29Z"/>
        <path class="st0" d="M437.1,142.44c-.1-.16-.14-.32-.13-.5,0-.17.1-.33.3-.46.13-.08.28-.12.44-.11.16.01.31.09.44.23.34.4.72.71,1.15.94.43.23.96.35,1.58.35.28-.01.56-.06.85-.14.29-.08.54-.23.74-.44s.3-.49.3-.84-.1-.6-.31-.8c-.2-.2-.47-.36-.8-.49-.33-.13-.68-.24-1.05-.33-.4-.11-.79-.23-1.17-.36-.38-.13-.73-.3-1.04-.51-.31-.21-.55-.47-.74-.79-.19-.32-.28-.71-.28-1.18,0-.54.15-1.01.44-1.4.29-.4.69-.7,1.18-.92s1.04-.32,1.64-.32c.34,0,.69.04,1.05.12s.72.21,1.07.4c.35.19.65.44.92.77.11.12.17.27.18.45.01.18-.07.34-.23.49-.13.1-.28.14-.44.13-.16,0-.3-.06-.4-.17-.26-.31-.59-.55-.96-.71s-.79-.24-1.25-.24c-.28,0-.55.04-.83.14-.28.09-.51.23-.69.42-.19.19-.28.46-.28.81.01.32.12.59.32.79s.48.37.83.5c.35.13.73.25,1.15.37.38.1.75.21,1.11.33.35.13.67.29.96.5s.52.46.68.78c.17.32.25.72.25,1.2,0,.55-.16,1.03-.47,1.43-.31.4-.72.71-1.23.92-.51.21-1.06.31-1.65.31-.66,0-1.31-.12-1.96-.37-.65-.25-1.21-.67-1.67-1.29Z"/>
      </g>
      <circle class="st1" cx="399.24" cy="127.73" r="77.61"/>
    </g>
    <circle class="st1" cx="196.57" cy="441.87" r="77.61"/>
    <circle class="st1" cx="399.24" cy="441.87" r="77.61"/>
    <g>
      <g>
        <path class="st0" d="M459.65,278c.65,0,1.24.16,1.77.49.54.32.96.77,1.26,1.33.31.56.46,1.21.46,1.93s-.15,1.35-.46,1.93c-.3.58-.72,1.04-1.26,1.38-.53.34-1.12.51-1.77.51h-3.65l.12-.23v4.54c0,.2-.07.38-.2.52-.13.14-.3.22-.5.22-.22,0-.39-.07-.52-.22-.13-.14-.2-.32-.2-.52v-11.12c0-.2.07-.38.22-.52.14-.14.32-.22.52-.22h4.21ZM459.65,284.16c.38,0,.73-.11,1.04-.32.31-.22.55-.51.73-.87.18-.37.27-.77.27-1.22s-.09-.84-.27-1.2c-.18-.35-.42-.63-.73-.84-.3-.2-.65-.31-1.04-.31h-3.65l.12-.22v5.15l-.12-.18h3.65Z"/>
        <path class="st0" d="M469.75,281.15c.79,0,1.42.17,1.88.51.46.34.79.8.99,1.37.2.57.3,1.2.3,1.9v4.93c0,.2-.07.38-.21.52-.14.14-.31.22-.51.22s-.39-.07-.52-.22c-.13-.14-.2-.32-.2-.52v-4.93c0-.44-.06-.85-.2-1.22s-.35-.67-.66-.89c-.31-.22-.72-.33-1.25-.33-.49,0-.94.11-1.35.33-.41.22-.73.52-.97.89s-.36.78-.36,1.22v4.93c0,.2-.07.38-.21.52-.14.14-.31.22-.51.22s-.38-.07-.51-.22c-.14-.14-.21-.32-.21-.52v-11.84c0-.2.07-.38.21-.52.14-.14.31-.22.51-.22.22,0,.39.07.52.22.13.14.2.32.2.52v5.36l-.36.4c.06-.31.19-.63.39-.94.21-.32.46-.6.78-.86.31-.25.66-.45,1.04-.6.38-.15.79-.23,1.21-.23Z"/>
        <path class="st0" d="M484.42,285.92c0,.94-.21,1.77-.62,2.5-.41.73-.97,1.31-1.67,1.73-.7.42-1.49.63-2.37.63s-1.67-.21-2.38-.63c-.71-.42-1.27-1-1.68-1.73-.41-.73-.62-1.57-.62-2.5s.21-1.77.62-2.5c.41-.73.97-1.31,1.68-1.73.71-.42,1.5-.63,2.38-.63s1.66.21,2.37.63c.7.42,1.26,1,1.67,1.73.41.73.62,1.57.62,2.5ZM482.96,285.92c0-.7-.14-1.31-.42-1.83-.28-.52-.67-.94-1.15-1.24s-1.03-.46-1.63-.46-1.16.15-1.65.46c-.49.31-.87.72-1.16,1.24-.29.52-.43,1.13-.43,1.83s.14,1.29.43,1.82c.29.53.68.95,1.16,1.25.48.31,1.04.46,1.65.46s1.14-.15,1.63-.46c.49-.31.87-.72,1.15-1.25.28-.53.42-1.13.42-1.82Z"/>
        <path class="st0" d="M491.2,281.06c.81,0,1.46.17,1.93.5.47.34.8.79,1,1.35.2.56.3,1.2.3,1.91v5.04c0,.2-.07.38-.21.52-.14.14-.31.22-.51.22-.22,0-.39-.07-.52-.22-.13-.14-.2-.32-.2-.52v-5c0-.46-.07-.87-.21-1.24-.14-.37-.37-.67-.69-.89-.32-.22-.76-.33-1.29-.33-.5,0-.97.11-1.39.33-.42.22-.76.52-1.01.89-.25.37-.38.79-.38,1.24v5c0,.2-.07.38-.21.52-.14.14-.31.22-.51.22s-.38-.07-.51-.22c-.14-.14-.21-.32-.21-.52v-7.83c0-.22.07-.39.21-.53.14-.14.31-.21.51-.21s.39.07.52.21.2.31.2.53v1.26l-.36.4c.06-.31.2-.63.41-.95.22-.32.49-.6.81-.85s.68-.45,1.08-.6c.4-.15.81-.22,1.24-.22Z"/>
        <path class="st0" d="M497.74,279.95c-.3,0-.52-.06-.67-.18-.14-.12-.22-.31-.22-.56v-.25c0-.25.08-.44.23-.56s.38-.18.67-.18.5.06.65.18c.14.12.21.31.21.56v.25c0,.25-.07.44-.22.56s-.37.18-.66.18ZM498.48,289.86c0,.2-.07.38-.21.52-.14.14-.31.22-.51.22-.22,0-.39-.07-.53-.22-.14-.14-.21-.32-.21-.52v-7.97c0-.2.07-.38.21-.52.14-.14.31-.22.53-.22.2,0,.38.07.51.22.14.14.21.32.21.52v7.97Z"/>
        <path class="st0" d="M505.19,281.06c.62,0,1.18.07,1.67.2s.88.31,1.17.54c.29.23.43.49.43.77,0,.17-.05.32-.16.47-.11.14-.26.22-.45.22-.16,0-.29-.03-.39-.1-.1-.07-.2-.14-.29-.23s-.21-.18-.37-.26c-.14-.07-.35-.13-.63-.19-.28-.05-.55-.08-.83-.08-.66,0-1.24.16-1.74.47-.5.31-.89.73-1.18,1.26-.29.53-.43,1.13-.43,1.8s.14,1.27.41,1.8c.28.53.66.95,1.15,1.26.49.31,1.06.47,1.71.47.42,0,.75-.04,1-.11.25-.07.46-.16.64-.25.21-.12.36-.24.48-.36.11-.12.27-.18.48-.18s.36.07.48.2c.11.13.17.29.17.49,0,.23-.15.46-.45.7-.3.24-.71.44-1.22.6-.52.16-1.09.24-1.73.24-.91,0-1.71-.21-2.39-.64s-1.21-1.01-1.59-1.75c-.38-.74-.57-1.56-.57-2.47s.2-1.73.59-2.47c.39-.73.93-1.31,1.63-1.75.7-.43,1.5-.65,2.41-.65Z"/>
        <path class="st0" d="M509.87,289.13c-.1-.16-.14-.32-.13-.5,0-.17.1-.33.3-.46.13-.08.28-.12.44-.11.16.01.31.09.44.23.34.4.72.71,1.15.94.43.23.96.35,1.58.35.28-.01.56-.06.86-.14.29-.08.54-.23.74-.44.2-.21.3-.49.3-.84s-.1-.6-.31-.8c-.2-.2-.47-.36-.8-.49s-.68-.24-1.05-.33c-.4-.11-.79-.23-1.17-.36-.38-.13-.73-.3-1.04-.51s-.55-.47-.74-.79-.28-.71-.28-1.18c0-.54.15-1.01.44-1.4.29-.4.69-.7,1.18-.92s1.04-.32,1.64-.32c.34,0,.69.04,1.05.12.37.08.72.21,1.07.4.35.19.65.44.92.77.11.12.17.27.18.45.01.18-.07.34-.23.49-.13.1-.28.14-.44.13-.16,0-.3-.06-.4-.17-.26-.31-.59-.55-.96-.71-.38-.16-.79-.24-1.25-.24-.28,0-.55.04-.83.14-.28.09-.51.23-.69.42-.19.19-.28.46-.28.81.01.32.12.59.32.79.2.2.48.37.83.5.35.13.73.25,1.15.37.38.1.75.21,1.11.33s.68.29.96.5c.29.2.52.46.69.78.17.32.25.72.25,1.2,0,.55-.16,1.03-.47,1.43s-.72.71-1.23.92c-.51.21-1.06.31-1.65.31-.66,0-1.31-.12-1.96-.37-.65-.25-1.21-.67-1.67-1.29Z"/>
      </g>
      <circle class="st1" cx="485.37" cy="284.94" r="77.61"/>
    </g>
    <g>
      <g>
        <path class="st0" d="M54.76,278.83c.2.11.32.27.36.49s-.02.42-.16.61c-.11.14-.25.22-.41.24-.17.02-.34-.02-.5-.1-.4-.24-.82-.43-1.28-.57s-.94-.21-1.44-.21c-.71,0-1.36.12-1.94.36-.59.24-1.1.58-1.53,1.04-.43.45-.77.98-1.01,1.59-.24.61-.36,1.28-.36,2.02,0,.79.13,1.5.38,2.12.25.62.6,1.15,1.04,1.59.44.44.95.77,1.53,1s1.21.34,1.9.34c.49,0,.97-.07,1.42-.2.46-.13.88-.32,1.28-.57.17-.08.34-.12.51-.09.17.03.31.11.42.25.16.19.21.39.17.6-.04.21-.16.37-.35.48-.3.18-.64.34-1.03.49-.38.14-.78.26-1.2.34s-.83.13-1.23.13c-.86,0-1.68-.15-2.45-.45-.77-.3-1.45-.73-2.04-1.29-.59-.56-1.06-1.24-1.39-2.04-.34-.8-.5-1.7-.5-2.71,0-.92.16-1.78.49-2.57.32-.79.77-1.47,1.35-2.04.58-.58,1.25-1.02,2.02-1.34.77-.32,1.62-.48,2.53-.48.62,0,1.23.08,1.82.24.59.16,1.13.4,1.62.71Z"/>
        <path class="st0" d="M65.88,285.92c0,.94-.21,1.77-.62,2.5-.41.73-.97,1.31-1.67,1.73s-1.49.63-2.37.63-1.67-.21-2.38-.63-1.27-1-1.68-1.73c-.41-.73-.62-1.57-.62-2.5s.21-1.77.62-2.5c.41-.73.97-1.31,1.68-1.73s1.5-.63,2.38-.63,1.67.21,2.37.63,1.26,1,1.67,1.73c.41.73.62,1.57.62,2.5ZM64.43,285.92c0-.7-.14-1.31-.42-1.83-.28-.52-.67-.94-1.15-1.24-.49-.31-1.03-.46-1.63-.46s-1.16.15-1.65.46c-.49.31-.87.72-1.16,1.24-.29.52-.43,1.13-.43,1.83s.14,1.29.43,1.82c.29.53.67.95,1.16,1.25.49.31,1.04.46,1.65.46s1.14-.15,1.63-.46c.49-.31.87-.72,1.15-1.25.28-.53.42-1.13.42-1.82Z"/>
        <path class="st0" d="M72.49,281.15c.82,0,1.48.21,1.99.62.51.41.85,1,1.02,1.75h-.27l.13-.32c.14-.33.39-.66.74-.97.35-.31.75-.57,1.21-.77s.93-.31,1.42-.31c.79,0,1.42.17,1.87.51.46.34.78.8.98,1.37.2.57.3,1.21.3,1.92v4.91c0,.2-.07.38-.21.52-.14.14-.32.22-.53.22-.2,0-.38-.07-.51-.22-.14-.14-.21-.32-.21-.52v-4.88c0-.46-.07-.87-.2-1.25s-.35-.68-.67-.91c-.31-.23-.73-.34-1.26-.34-.48,0-.92.11-1.33.34-.41.23-.73.53-.97.91-.24.38-.36.79-.36,1.25v4.88c0,.2-.07.38-.2.52s-.31.22-.52.22-.39-.07-.52-.22-.2-.32-.2-.52v-4.93c0-.44-.07-.85-.2-1.22-.13-.37-.35-.67-.65-.89-.3-.22-.71-.33-1.22-.33-.48,0-.92.11-1.31.33-.4.22-.71.52-.95.89s-.36.78-.36,1.22v4.93c0,.2-.07.38-.21.52-.14.14-.31.22-.51.22s-.38-.07-.51-.22-.21-.32-.21-.52v-7.83c0-.22.07-.39.21-.53s.31-.21.51-.21c.22,0,.39.07.52.21.13.14.2.31.2.53v1.35l-.4.43c.05-.31.17-.62.37-.94.2-.31.45-.6.76-.86.31-.26.66-.47,1.04-.63s.79-.23,1.22-.23Z"/>
        <path class="st0" d="M89.12,281.15c.82,0,1.55.2,2.2.61.65.41,1.16.97,1.54,1.69.38.72.57,1.55.57,2.48s-.19,1.75-.57,2.48-.89,1.3-1.53,1.71c-.64.41-1.37.62-2.17.62-.44,0-.86-.07-1.25-.21-.39-.14-.74-.32-1.06-.54-.32-.22-.58-.47-.8-.75-.22-.28-.37-.56-.47-.85l.4-.23v5.29c0,.2-.07.38-.2.52-.13.14-.31.22-.52.22-.2,0-.38-.07-.51-.21s-.21-.31-.21-.53v-11.48c0-.22.07-.39.21-.53.14-.14.31-.21.51-.21.22,0,.39.07.52.21.13.14.2.32.2.53v1.58l-.27-.14c.08-.3.23-.59.44-.86.21-.28.47-.52.77-.73.31-.21.65-.38,1.03-.49.38-.12.77-.18,1.18-.18ZM88.96,282.48c-.6,0-1.13.15-1.59.45s-.82.71-1.08,1.22c-.26.52-.39,1.11-.39,1.78s.13,1.25.39,1.78c.26.53.62.94,1.08,1.24.46.3.99.45,1.59.45s1.13-.15,1.58-.45c.46-.3.82-.71,1.08-1.24.26-.53.4-1.12.4-1.78s-.13-1.27-.4-1.78c-.26-.52-.62-.92-1.08-1.22s-.98-.45-1.58-.45Z"/>
        <path class="st0" d="M96.3,290.6c-.2,0-.38-.07-.51-.22s-.21-.32-.21-.52v-7.83c0-.22.07-.39.21-.53s.31-.21.51-.21c.22,0,.39.07.52.21.13.14.2.31.2.53v2.36l-.22-.38c.07-.37.2-.74.39-1.09.19-.35.42-.67.71-.95s.62-.5.99-.67.78-.24,1.22-.24c.26,0,.51.06.73.19.22.13.33.3.33.53,0,.25-.07.44-.2.57-.13.13-.28.19-.45.19-.16,0-.31-.04-.45-.11s-.32-.11-.54-.11c-.3,0-.6.08-.89.25-.29.17-.56.4-.81.69s-.44.63-.59,1.01c-.15.38-.22.78-.22,1.21v4.37c0,.2-.07.38-.21.52-.14.14-.31.22-.51.22Z"/>
        <path class="st0" d="M106.71,290.78c-.97,0-1.82-.2-2.54-.61-.72-.41-1.28-.97-1.67-1.68-.4-.71-.59-1.54-.59-2.48,0-1.04.21-1.94.62-2.67.41-.74.95-1.3,1.62-1.69.67-.39,1.37-.58,2.11-.58.55,0,1.09.1,1.6.31.52.2.97.5,1.37.9s.71.86.95,1.4c.24.54.37,1.15.38,1.84,0,.19-.07.35-.22.48-.14.13-.31.19-.5.19h-7.11l-.32-1.24h6.91l-.29.25v-.4c-.04-.49-.2-.91-.48-1.27-.28-.35-.62-.63-1.03-.82-.4-.19-.83-.29-1.27-.29-.36,0-.72.07-1.07.2-.35.13-.67.34-.95.61-.28.28-.51.64-.68,1.08s-.26.98-.26,1.6c0,.7.14,1.31.42,1.84.28.53.67.95,1.18,1.25.5.31,1.09.46,1.76.46.42,0,.79-.05,1.1-.16.31-.11.58-.24.8-.4.22-.16.41-.33.57-.5.16-.11.31-.16.47-.16.17,0,.31.06.43.18.12.12.18.27.18.43,0,.2-.1.39-.29.56-.35.37-.81.7-1.38.97s-1.18.41-1.83.41Z"/>
        <path class="st0" d="M117.22,281.15c.79,0,1.42.17,1.88.51.46.34.79.8.99,1.37.2.57.3,1.2.3,1.9v4.93c0,.2-.07.38-.21.52s-.31.22-.51.22c-.22,0-.39-.07-.52-.22s-.2-.32-.2-.52v-4.93c0-.44-.07-.85-.2-1.22-.13-.37-.35-.67-.66-.89-.31-.22-.72-.33-1.25-.33-.49,0-.94.11-1.35.33-.41.22-.73.52-.97.89s-.36.78-.36,1.22v4.93c0,.2-.07.38-.21.52-.14.14-.31.22-.51.22s-.38-.07-.51-.22-.21-.32-.21-.52v-11.84c0-.2.07-.38.21-.52.14-.14.31-.22.51-.22.22,0,.39.07.52.22.13.14.2.32.2.52v5.36l-.36.4c.06-.31.19-.63.4-.94.2-.32.46-.6.77-.86.31-.25.66-.45,1.04-.6.38-.15.79-.23,1.21-.23Z"/>
        <path class="st0" d="M127.35,290.78c-.97,0-1.82-.2-2.54-.61-.72-.41-1.28-.97-1.67-1.68-.4-.71-.59-1.54-.59-2.48,0-1.04.21-1.94.62-2.67.41-.74.95-1.3,1.62-1.69.67-.39,1.37-.58,2.11-.58.55,0,1.09.1,1.6.31.52.2.97.5,1.37.9s.71.86.95,1.4c.24.54.37,1.15.38,1.84,0,.19-.07.35-.22.48-.14.13-.31.19-.5.19h-7.11l-.32-1.24h6.91l-.29.25v-.4c-.04-.49-.2-.91-.48-1.27-.28-.35-.62-.63-1.03-.82-.4-.19-.83-.29-1.27-.29-.36,0-.72.07-1.07.2-.35.13-.67.34-.95.61-.28.28-.51.64-.68,1.08s-.26.98-.26,1.6c0,.7.14,1.31.42,1.84.28.53.67.95,1.18,1.25.5.31,1.09.46,1.76.46.42,0,.79-.05,1.1-.16.31-.11.58-.24.8-.4.22-.16.41-.33.57-.5.16-.11.31-.16.47-.16.17,0,.31.06.43.18.12.12.18.27.18.43,0,.2-.1.39-.29.56-.35.37-.81.7-1.38.97s-1.18.41-1.83.41Z"/>
        <path class="st0" d="M137.99,281.06c.82,0,1.46.17,1.93.5s.8.79,1,1.35c.2.56.3,1.2.3,1.91v5.04c0,.2-.07.38-.21.52s-.31.22-.51.22c-.22,0-.39-.07-.52-.22-.13-.14-.2-.32-.2-.52v-5c0-.46-.07-.87-.21-1.24-.14-.37-.37-.67-.69-.89-.32-.22-.76-.33-1.3-.33-.5,0-.97.11-1.39.33-.42.22-.76.52-1.01.89-.25.37-.38.79-.38,1.24v5c0,.2-.07.38-.21.52-.14.14-.31.22-.51.22s-.38-.07-.51-.22-.21-.32-.21-.52v-7.83c0-.22.07-.39.21-.53s.31-.21.51-.21c.22,0,.39.07.52.21.13.14.2.31.2.53v1.26l-.36.4c.06-.31.2-.63.41-.95.22-.32.49-.6.81-.85s.68-.45,1.08-.6c.4-.15.81-.22,1.24-.22Z"/>
        <path class="st0" d="M143.34,289.13c-.1-.16-.14-.32-.13-.49,0-.17.1-.33.3-.46.13-.08.28-.12.44-.11.16.01.31.09.44.23.34.4.72.71,1.15.95.43.23.96.35,1.58.35.28-.01.56-.06.85-.14s.54-.23.74-.44c.2-.21.3-.49.3-.84s-.1-.6-.31-.8c-.2-.2-.47-.36-.8-.48-.33-.13-.68-.24-1.05-.33-.4-.11-.79-.23-1.17-.36s-.73-.3-1.04-.51c-.31-.21-.55-.47-.74-.79-.19-.32-.28-.71-.28-1.18,0-.54.15-1.01.44-1.4.29-.4.69-.7,1.18-.92s1.04-.32,1.64-.32c.34,0,.69.04,1.05.12s.72.21,1.07.4c.35.19.65.44.92.77.11.12.17.27.18.45.01.18-.07.34-.23.49-.13.1-.28.14-.44.13-.16,0-.3-.06-.4-.17-.26-.31-.59-.55-.96-.71s-.79-.24-1.25-.24c-.28,0-.55.04-.83.14-.28.09-.51.23-.69.42-.19.19-.28.46-.28.81.01.32.12.59.32.79s.48.37.83.5c.35.13.73.25,1.15.37.38.1.75.21,1.11.33.35.13.67.29.96.49.29.21.52.46.68.78.17.32.25.72.25,1.2,0,.55-.16,1.03-.47,1.43-.31.4-.72.71-1.23.92-.51.21-1.06.31-1.65.31-.66,0-1.31-.12-1.96-.37-.65-.25-1.21-.68-1.67-1.29Z"/>
        <path class="st0" d="M153.06,279.95c-.3,0-.52-.06-.67-.18-.14-.12-.22-.31-.22-.56v-.25c0-.25.08-.44.23-.56s.38-.18.67-.18.5.06.65.18c.14.12.22.31.22.56v.25c0,.25-.08.44-.23.56s-.37.18-.66.18ZM153.79,289.86c0,.2-.07.38-.21.52s-.31.22-.51.22c-.22,0-.39-.07-.53-.22s-.21-.32-.21-.52v-7.97c0-.2.07-.38.21-.52.14-.14.32-.22.53-.22.2,0,.38.07.51.22.14.14.21.32.21.52v7.97Z"/>
        <path class="st0" d="M165.22,285.92c0,.94-.21,1.77-.62,2.5-.41.73-.97,1.31-1.67,1.73s-1.49.63-2.37.63-1.67-.21-2.38-.63-1.27-1-1.68-1.73c-.41-.73-.62-1.57-.62-2.5s.21-1.77.62-2.5c.41-.73.97-1.31,1.68-1.73s1.5-.63,2.38-.63,1.67.21,2.37.63,1.26,1,1.67,1.73c.41.73.62,1.57.62,2.5ZM163.77,285.92c0-.7-.14-1.31-.42-1.83-.28-.52-.67-.94-1.15-1.24-.49-.31-1.03-.46-1.63-.46s-1.16.15-1.65.46c-.49.31-.87.72-1.16,1.24-.29.52-.43,1.13-.43,1.83s.14,1.29.43,1.82c.29.53.67.95,1.16,1.25.49.31,1.04.46,1.65.46s1.14-.15,1.63-.46c.49-.31.87-.72,1.15-1.25.28-.53.42-1.13.42-1.82Z"/>
        <path class="st0" d="M172.01,281.06c.82,0,1.46.17,1.93.5s.8.79,1,1.35c.2.56.3,1.2.3,1.91v5.04c0,.2-.07.38-.21.52s-.31.22-.51.22c-.22,0-.39-.07-.52-.22-.13-.14-.2-.32-.2-.52v-5c0-.46-.07-.87-.21-1.24-.14-.37-.37-.67-.69-.89-.32-.22-.76-.33-1.3-.33-.5,0-.97.11-1.39.33-.42.22-.76.52-1.01.89-.25.37-.38.79-.38,1.24v5c0,.2-.07.38-.21.52-.14.14-.31.22-.51.22s-.38-.07-.51-.22-.21-.32-.21-.52v-7.83c0-.22.07-.39.21-.53s.31-.21.51-.21c.22,0,.39.07.52.21.13.14.2.31.2.53v1.26l-.36.4c.06-.31.2-.63.41-.95.22-.32.49-.6.81-.85s.68-.45,1.08-.6c.4-.15.81-.22,1.24-.22Z"/>
      </g>
      <circle class="st1" cx="110.34" cy="284.94" r="77.61"/>
    </g>
  </g>
  <g>
    <path class="st0" d="M305.13,209.16l31.27-17.05c9.98-5.44,22.18,1.6,22.46,12.97l.87,35.6c.13,5.16,2.87,9.91,7.27,12.6l30.39,18.56c9.7,5.92,9.7,20.01,0,25.94l-30.39,18.56c-4.41,2.69-7.15,7.43-7.27,12.6l-.87,35.6c-.28,11.36-12.48,18.41-22.46,12.97l-31.27-17.05c-4.53-2.47-10.01-2.47-14.55,0l-31.27,17.05c-9.98,5.44-22.18-1.6-22.46-12.97l-.87-35.6c-.13-5.16-2.87-9.91-7.27-12.6l-30.39-18.56c-9.7-5.92-9.7-20.01,0-25.94l30.39-18.56c4.41-2.69,7.15-7.43,7.27-12.6l.87-35.6c.28-11.36,12.48-18.41,22.46-12.97l31.27,17.05c4.53,2.47,10.01,2.47,14.55,0Z"/>
    <g>
      <path class="st2" d="M282.24,244.01c-.31,0-.57-.1-.78-.29-.21-.19-.32-.44-.32-.76s.1-.56.32-.75c.21-.19.47-.28.78-.28h7.99c.31,0,.57.1.78.29.21.19.31.44.31.76s-.1.56-.31.75c-.21.19-.47.28-.78.28h-7.99ZM286.22,254.54c-.34,0-.61-.1-.83-.32-.22-.21-.32-.47-.32-.78v-10.44h2.34v10.44c0,.31-.11.57-.33.78-.22.21-.51.32-.85.32Z"/>
      <path class="st2" d="M294.37,241.94c.29,0,.54.1.76.31.22.21.33.47.33.78v10.4c0,.31-.11.57-.34.78-.23.21-.49.32-.79.32-.34,0-.61-.1-.81-.32-.2-.21-.31-.47-.31-.78v-10.4c0-.31.11-.57.32-.78s.49-.31.83-.31ZM294.32,247.17h8.03v2.07h-8.03v-2.07ZM302.35,241.94c.34,0,.61.1.81.31s.31.47.31.78v10.4c0,.31-.11.57-.31.78-.21.21-.49.32-.84.32-.29,0-.54-.1-.77-.32-.22-.21-.33-.47-.33-.78v-10.4c0-.31.11-.57.34-.78.23-.21.49-.31.79-.31Z"/>
      <path class="st2" d="M307.26,241.94h6.03c.31,0,.57.1.78.3.21.2.32.45.32.76s-.11.54-.32.73c-.21.19-.47.28-.78.28h-5.04l.16-.31v3.51l-.14-.14h4.21c.31,0,.57.1.78.3s.31.45.31.76-.1.54-.31.73c-.21.19-.47.28-.78.28h-4.16l.09-.14v3.64l-.14-.16h5.02c.31,0,.57.11.78.32s.32.45.32.73c0,.3-.11.55-.32.74-.21.19-.47.29-.78.29h-6.03c-.31,0-.57-.1-.78-.32-.21-.21-.32-.47-.32-.78v-10.4c0-.31.11-.57.32-.78s.47-.31.78-.31Z"/>
      <path class="st2" d="M265.97,260.58c1.54,0,2.68.36,3.43,1.08.75.72,1.13,1.78,1.13,3.19,0,.75-.18,1.41-.55,1.98-.37.57-.91,1.01-1.63,1.32-.72.31-1.61.47-2.66.47l.1-1.08c.5,0,1.06.07,1.7.2.64.14,1.26.38,1.86.72.6.34,1.1.82,1.49,1.44.39.62.59,1.4.59,2.36,0,1.06-.17,1.92-.52,2.59-.34.67-.8,1.19-1.36,1.56-.56.37-1.16.62-1.8.76s-1.26.2-1.85.2h-5.98c-.42,0-.76-.14-1.04-.42s-.42-.63-.42-1.04v-13.87c0-.42.14-.76.42-1.04s.63-.42,1.04-.42h6.05ZM265.54,263.41h-4.27l.31-.38v4.34l-.29-.22h4.32c.46,0,.88-.15,1.25-.46s.55-.74.55-1.32c0-.69-.17-1.19-.52-1.5-.34-.31-.8-.47-1.36-.47ZM265.73,269.99h-4.37l.22-.19v5.06l-.24-.24h4.56c.74,0,1.32-.2,1.75-.59.43-.39.65-.98.65-1.76,0-.72-.14-1.24-.43-1.56s-.63-.52-1.03-.6c-.4-.08-.77-.12-1.1-.12Z"/>
      <path class="st2" d="M277.18,275.91c0,.42-.15.76-.46,1.04s-.66.42-1.06.42c-.45,0-.81-.14-1.08-.42-.27-.28-.41-.63-.41-1.04v-13.87c0-.42.14-.76.43-1.04.29-.28.66-.42,1.1-.42.38,0,.72.14,1.02.42.3.28.44.63.44,1.04v13.87Z"/>
      <path class="st2" d="M288.7,277.62c-1.22,0-2.35-.22-3.41-.67-1.06-.45-1.98-1.07-2.78-1.86-.8-.79-1.43-1.71-1.88-2.75-.46-1.04-.68-2.16-.68-3.36s.23-2.32.68-3.36c.46-1.04,1.08-1.96,1.88-2.75.8-.79,1.73-1.41,2.78-1.86,1.06-.45,2.19-.67,3.41-.67.75,0,1.48.08,2.18.24.7.16,1.35.4,1.94.72.24.13.42.3.54.52.12.22.18.44.18.66,0,.38-.13.73-.38,1.03s-.58.46-.98.46c-.13,0-.26-.02-.4-.05s-.27-.08-.4-.14c-.4-.18-.82-.31-1.27-.41-.45-.1-.92-.14-1.42-.14-1.04,0-1.99.26-2.84.78-.86.52-1.54,1.22-2.04,2.09s-.76,1.84-.76,2.89.25,2,.76,2.88,1.18,1.58,2.04,2.1c.86.52,1.8.78,2.84.78.48,0,1.01-.05,1.58-.14s1.05-.22,1.42-.38l-.22.72v-4.1l.41.36h-2.66c-.42,0-.76-.14-1.04-.41-.28-.27-.42-.62-.42-1.03s.14-.76.42-1.03c.28-.27.63-.41,1.04-.41h3.94c.42,0,.76.14,1.03.42.27.28.41.63.41,1.04v5.09c0,.32-.08.58-.23.79-.15.21-.32.38-.52.5-.74.45-1.54.8-2.41,1.07-.87.26-1.79.4-2.75.4Z"/>
      <path class="st2" d="M309.61,277.62c-1.12,0-2.13-.14-3.02-.42-.9-.28-1.75-.77-2.57-1.48-.21-.18-.37-.38-.48-.6s-.17-.45-.17-.67c0-.37.13-.69.4-.97.26-.28.6-.42,1-.42.3,0,.58.1.82.29.61.5,1.21.87,1.81,1.13.6.26,1.34.38,2.22.38.59,0,1.14-.09,1.63-.28s.9-.43,1.2-.74c.3-.31.46-.67.46-1.07,0-.48-.14-.89-.43-1.22s-.73-.62-1.32-.85c-.59-.23-1.34-.41-2.26-.54-.86-.13-1.62-.32-2.28-.59-.66-.26-1.2-.6-1.64-1.01-.44-.41-.77-.89-1-1.44-.22-.55-.34-1.17-.34-1.86,0-1.04.27-1.93.8-2.66.54-.74,1.26-1.3,2.17-1.68s1.92-.58,3.02-.58c1.04,0,2,.16,2.89.47.89.31,1.61.71,2.17,1.19.46.37.7.79.7,1.27,0,.35-.14.67-.41.96-.27.29-.59.43-.96.43-.24,0-.46-.07-.65-.22-.26-.22-.6-.44-1.03-.64-.43-.2-.89-.37-1.37-.5-.48-.14-.93-.2-1.34-.2-.69,0-1.27.09-1.74.26-.47.18-.83.42-1.07.72s-.36.66-.36,1.06c0,.48.14.88.42,1.19.28.31.68.56,1.21.74.53.18,1.16.35,1.9.49.96.18,1.8.38,2.53.62.73.24,1.33.55,1.81.92.48.38.84.85,1.08,1.42.24.57.36,1.26.36,2.08,0,1.04-.29,1.94-.86,2.69s-1.33,1.33-2.27,1.73c-.94.4-1.95.6-3.04.6Z"/>
      <path class="st2" d="M321.53,275.91c0,.42-.15.76-.46,1.04s-.66.42-1.06.42c-.45,0-.81-.14-1.08-.42-.27-.28-.41-.63-.41-1.04v-13.87c0-.42.14-.76.43-1.04.29-.28.66-.42,1.1-.42.38,0,.72.14,1.02.42.3.28.44.63.44,1.04v13.87Z"/>
      <path class="st2" d="M325.71,277.5c-.35,0-.66-.13-.91-.4-.26-.26-.38-.56-.38-.88,0-.35.12-.68.36-.98l4.87-6.6,1.58,2.33-4.32,5.86c-.32.45-.72.67-1.2.67ZM325.92,260.51c.46,0,.86.21,1.18.62l10.56,14.04c.19.26.29.55.29.89,0,.45-.16.8-.48,1.06s-.64.38-.96.38c-.46,0-.86-.21-1.18-.62l-10.56-14.04c-.21-.26-.31-.54-.31-.86,0-.42.16-.76.47-1.04.31-.28.64-.42,1-.42ZM336.63,260.55c.37,0,.68.14.95.43s.4.59.4.91-.1.59-.31.86l-4.82,6.36-1.63-2.23,4.25-5.64c.34-.46.73-.7,1.18-.7Z"/>
      <path class="st2" d="M298.91,291.92c0,.9-.15,1.74-.45,2.52-.3.78-.72,1.47-1.27,2.06-.55.59-1.19,1.06-1.94,1.39s-1.57.5-2.46.5-1.7-.17-2.45-.5-1.39-.8-1.93-1.39c-.55-.6-.97-1.28-1.27-2.06-.3-.78-.45-1.62-.45-2.52s.15-1.74.45-2.52.72-1.47,1.27-2.06c.55-.59,1.19-1.06,1.93-1.4.74-.33,1.56-.5,2.45-.5s1.71.17,2.46.5c.75.34,1.4.8,1.94,1.4s.97,1.28,1.27,2.06.45,1.62.45,2.52ZM296.57,291.92c0-.8-.16-1.53-.49-2.19-.32-.65-.77-1.17-1.33-1.56-.56-.38-1.22-.58-1.96-.58s-1.4.19-1.96.58c-.56.38-1.01.9-1.32,1.55-.32.65-.48,1.38-.48,2.2s.16,1.53.48,2.19c.32.65.76,1.17,1.32,1.56.56.38,1.22.58,1.96.58s1.4-.19,1.96-.58c.56-.38,1.01-.9,1.33-1.56s.49-1.38.49-2.19Z"/>
      <path class="st2" d="M302.11,298.22c-.34,0-.61-.11-.82-.32-.21-.21-.32-.47-.32-.78v-10.4c0-.31.11-.57.32-.78.21-.21.47-.31.78-.31h5.85c.31,0,.57.1.78.3.21.2.32.45.32.76,0,.27-.11.5-.32.7-.21.2-.47.3-.78.3h-4.86l.16-.21v3.62l-.13-.23h4.01c.31,0,.57.1.78.3.21.2.31.45.31.77,0,.26-.11.5-.31.7-.21.2-.47.3-.78.3h-4.05l.16-.16v4.36c0,.31-.11.57-.33.78-.22.21-.48.32-.78.32Z"/>
      <path class="st2" d="M253.97,322.25c.42,0,.76.13,1.04.4.28.26.42.6.42,1.02s-.14.73-.42,1c-.28.26-.63.4-1.04.4h-7.8c-.42,0-.76-.14-1.04-.42-.28-.28-.42-.63-.42-1.04v-13.87c0-.42.14-.76.43-1.04.29-.28.66-.42,1.1-.42.38,0,.72.14,1.02.42.3.28.44.63.44,1.04v12.94l-.53-.41h6.79Z"/>
      <path class="st2" d="M261.2,323.6c0,.42-.15.76-.46,1.04-.3.28-.66.42-1.06.42-.45,0-.81-.14-1.08-.42-.27-.28-.41-.63-.41-1.04v-13.87c0-.42.14-.76.43-1.04.29-.28.66-.42,1.1-.42.38,0,.72.14,1.02.42.3.28.44.63.44,1.04v13.87Z"/>
      <path class="st2" d="M265.18,311.02c-.42,0-.76-.13-1.04-.38-.28-.26-.42-.59-.42-1.01s.14-.75.42-1c.28-.25.63-.37,1.04-.37h10.66c.42,0,.76.13,1.04.38s.42.59.42,1.01-.14.75-.42,1-.63.37-1.04.37h-10.66ZM270.49,325.06c-.45,0-.82-.14-1.1-.42-.29-.28-.43-.63-.43-1.04v-13.92h3.12v13.92c0,.42-.15.76-.44,1.04-.3.28-.68.42-1.14.42Z"/>
      <path class="st2" d="M281.28,308.26h8.04c.42,0,.76.13,1.04.4.28.26.42.6.42,1.02s-.14.72-.42.97c-.28.25-.63.37-1.04.37h-6.72l.22-.41v4.68l-.19-.19h5.62c.42,0,.76.13,1.04.4.28.26.42.6.42,1.02s-.14.72-.42.97c-.28.25-.63.37-1.04.37h-5.54l.12-.19v4.85l-.19-.21h6.7c.42,0,.76.14,1.04.42.28.28.42.6.42.97,0,.4-.14.73-.42.98-.28.26-.63.38-1.04.38h-8.04c-.42,0-.76-.14-1.04-.42-.28-.28-.42-.63-.42-1.04v-13.87c0-.42.14-.76.42-1.04.28-.28.63-.42,1.04-.42Z"/>
      <path class="st2" d="M295.28,325.06c-.45,0-.85-.14-1.2-.42-.35-.28-.53-.63-.53-1.04v-13.87c0-.42.14-.76.42-1.04.28-.28.63-.42,1.04-.42h6.91c.83,0,1.61.22,2.34.66.73.44,1.32,1.05,1.76,1.82.45.78.67,1.67.67,2.68,0,.61-.12,1.2-.37,1.78s-.58,1.1-1.01,1.56c-.42.46-.9.82-1.43,1.08l.02-.55c.45.24.82.53,1.12.85.3.33.53.68.7,1.05.17.38.27.78.3,1.21.06.4.11.75.13,1.06.02.3.07.56.14.77.07.21.21.37.42.48.35.21.57.51.66.9.09.39,0,.74-.28,1.04-.18.21-.4.34-.67.4-.27.05-.54.05-.82,0-.27-.06-.5-.13-.67-.23-.27-.16-.54-.4-.82-.71-.27-.31-.49-.73-.66-1.26-.17-.53-.25-1.21-.25-2.04,0-.27-.05-.52-.14-.76s-.23-.43-.41-.6c-.18-.17-.4-.3-.67-.38-.27-.09-.59-.13-.96-.13h-4.85l.36-.55v5.21c0,.42-.11.76-.34,1.04-.22.28-.54.42-.94.42ZM296.21,316.47h5.59c.29,0,.57-.13.84-.4.27-.26.5-.62.67-1.08.18-.46.26-.96.26-1.5,0-.7-.19-1.29-.56-1.76-.38-.47-.78-.71-1.21-.71h-5.54l.29-.77v6.79l-.34-.58Z"/>
      <path class="st2" d="M316.2,312.03l-5.18,12.19c-.11.3-.28.54-.52.71-.23.17-.48.25-.76.25-.43,0-.75-.12-.96-.36s-.31-.54-.31-.89c0-.14.02-.29.07-.46l5.98-14.35c.13-.32.32-.57.59-.74s.55-.25.85-.22c.29,0,.56.08.8.25s.43.4.54.71l5.9,14.06c.08.21.12.4.12.58,0,.43-.14.78-.42,1.03s-.59.38-.92.38c-.29,0-.55-.09-.78-.26-.23-.18-.41-.42-.54-.72l-5.16-12.02.7-.14ZM311.77,321.3l1.32-2.76h6.48l.46,2.76h-8.26Z"/>
      <path class="st2" d="M337.01,309.08c.42.21.66.54.73.98s-.04.86-.35,1.22c-.21.29-.48.45-.8.48-.33.03-.66-.03-1-.19-.38-.18-.79-.31-1.21-.41s-.87-.14-1.33-.14c-.86,0-1.64.14-2.32.41-.68.27-1.26.66-1.74,1.16-.48.5-.84,1.1-1.09,1.79-.25.69-.37,1.45-.37,2.28,0,.98.14,1.82.42,2.54.28.72.67,1.32,1.16,1.8s1.08.84,1.75,1.07,1.4.35,2.18.35c.43,0,.86-.04,1.3-.12.43-.08.85-.22,1.25-.43.34-.16.67-.21,1-.17.33.05.6.22.83.5.32.4.44.81.35,1.24-.09.42-.33.73-.73.92-.42.21-.84.38-1.28.52-.44.13-.88.24-1.33.31s-.9.11-1.37.11c-1.15,0-2.24-.19-3.28-.55s-1.95-.91-2.76-1.63c-.81-.72-1.44-1.62-1.91-2.7-.46-1.08-.7-2.33-.7-3.76,0-1.23.21-2.37.64-3.41.42-1.04,1.02-1.94,1.8-2.7.78-.76,1.69-1.35,2.75-1.78,1.06-.42,2.21-.63,3.46-.63.7,0,1.39.08,2.06.24s1.3.39,1.9.7Z"/>
      <path class="st2" d="M351,308.19c.37,0,.7.14,1,.42.3.28.44.64.44,1.07,0,.14-.02.29-.06.44-.04.15-.11.3-.2.45l-5.45,7.8.43-1.65v6.89c0,.42-.14.76-.42,1.04-.28.28-.6.42-.97.42-.4,0-.74-.14-1.02-.42-.28-.28-.42-.63-.42-1.04v-6.7l.19.77-5.18-6.89c-.16-.21-.27-.41-.34-.6-.06-.19-.1-.37-.1-.53,0-.43.17-.78.5-1.06.34-.27.68-.41,1.03-.41.45,0,.84.22,1.18.67l4.61,6.36-.67-.1,4.25-6.22c.34-.48.74-.72,1.2-.72Z"/>
    </g>
  </g>
</svg>