<?xml version="1.0" encoding="UTF-8"?>
<svg id="Layer_1" xmlns="http://www.w3.org/2000/svg" version="1.1" viewBox="0 0 595.72 569.6">
  <!-- Generator: Adobe Illustrator 29.7.1, SVG Export Plug-In . SVG Version: 2.1.1 Build 8)  -->
  <defs>
    <style>
      .st0 {
        fill: none;
        stroke: #33c5b5;
        stroke-miterlimit: 10;
        stroke-width: 1.8px;
      }

      .st1 {
        fill: #33c5b5;
      }
    </style>
  </defs>
  <g>
    <path class="st0" d="M297.72,410.02c0,12.55-11.63,21.84-23.89,19.11-15.68-3.5-41.63-6.44-84.6-6.44s-68.98,2.86-84.62,6.29c-12.19,2.68-23.71-6.67-23.71-19.15v-242.16c0-8.38,5.32-15.86,13.26-18.54,13.45-4.54,40.53-9.13,95.07-9.13s81.75,4.59,95.21,9.14c7.95,2.68,13.27,10.16,13.27,18.54v242.33Z"/>
    <path class="st0" d="M297.99,410.02c0,12.55,11.63,21.84,23.89,19.11,15.68-3.5,41.63-6.44,84.6-6.44,43.04,0,68.98,2.86,84.62,6.29,12.19,2.68,23.71-6.67,23.71-19.15v-242.16c0-8.38-5.32-15.86-13.26-18.54-13.45-4.54-40.53-9.13-95.07-9.13-54.63,0-81.75,4.59-95.21,9.14-7.95,2.68-13.27,10.16-13.27,18.54v242.33Z"/>
    <g id="eFAy8I">
      <g>
        <path class="st1" d="M221.59,323.12c0,.51-.14,1-.32,1.48-1.47,3.94-4.02,11.69-5.96,15-.98,1.67-2.7,1.92-4.09.6l-16.95-26.42c-3.67-4-7.46-3.91-10.74.47-4.53,8.09-8.46,16.51-12.86,24.67-.52.96-1.71,3.65-2.65,3.92-1.02.29-2.46.34-3.01-.72-2.4-4.94-5.07-9.78-7.43-14.73-.22-.46-.39-.93-.44-1.44l-16.93,2.71c-1.8.37-3.25-.73-3.33-2.58,4.06-8.92,8.93-17.49,13.4-26.22-3.11-3.47-4.6-7.09-2.93-11.7.58-1.61,2.03-3.19,2.37-4.89.95-4.77-3.15-5.74-5.73-8.54-3.2-3.48-3.36-8.05-1.18-12.14,2.52-4.72,8.76-4.24,10.46-7.82,1.41-2.96-.93-6.73-.54-10.13.51-4.44,5.2-8.66,9.7-8.77,4.38-.12,8.74,3.99,12.25-.52,1.04-1.34,1.4-3.01,2.39-4.4,2.72-3.82,5.89-4.59,10.49-4.27,6.01.42,6.85,7.69,10.66,9.15,3.26,1.25,6.31-1.44,9.56-1.91,5.06-.73,10.71,3.63,11.27,8.69.39,3.49-1.93,7.49,1.1,10.35,1.59,1.5,4.54,1.77,6.6,2.8,5.56,2.78,7.33,10.21,3.49,15.19-2.25,2.93-6.2,4.26-5.03,8.82.44,1.72,2.12,3.26,2.85,4.85,2.12,4.63.75,8.09-1.87,12.05l13.89,21.55c1.38,2.3,3.23,5.13-.63,6.1l-17.85-1.19ZM184.38,231.53c-3.5.59-3.45,3.01-5,5.53-2.15,3.5-5.26,5.56-9.53,5.32-3.85-.22-7.42-3.43-10.83.01-2.73,2.76-.89,5.18-.5,8.25.65,5.17-1.73,9.16-6.38,11.32-2.74,1.27-5.31,1.21-5.8,5.03-.67,5.15,3.66,5.52,6.27,8.84,3.95,5.02,1.89,8.15-.21,12.94-1.02,2.34-1.34,3.83.15,6.12,2.66,4.07,7.63,1.33,11.8,2.78,5.57,1.94,5.36,6.44,6.95,10.9,1.22,3.43,5.1,4.52,8.12,2.6,3.25-2.07,4.33-5,9.14-5.21,4.52-.2,6.13,2.45,9.41,4.3s7.08.39,8.01-3.2c1.18-4.58.54-9.04,5.96-11.47,3.97-1.78,9.09.42,11.43-3.64,2.82-4.91-2.53-7.51-3.19-12.1-.96-6.69,2.88-7.67,6.12-11.8,2.41-3.08.88-7.09-2.66-8.4-4.73-1.75-9.12-2.87-9.9-8.96-.46-3.66,1.93-7.98-1.31-10.63-3.77-3.08-6.95.38-10.79.94s-7.29-.99-9.65-4.03c-2.37-3.06-2.56-6.28-7.6-5.43ZM176.39,316.99c-4.46-.31-7.93-2.09-9.54-6.4-.69-1.85-.85-4.12-1.68-5.87-1.71-3.59-5.21-2.65-8.47-2.57-.87.02-1.86-.63-2.42.35l-10.52,20.58c5.16-.53,10.39-2.13,15.56-1.97.91.32,1.66,1.98,2.12,2.82,1.72,3.22,3.22,6.81,4.85,10.1.18.36.46,1.16.83,1.27l9.27-18.32ZM234.66,319.1l-11.4-18.23c-1.4-2.31-1.22-1.64-3.32-1.49-1.42.11-3.02-.02-4.39.21-4.98.83-3.99,5.99-5.19,9.59-1.38,4.14-4.54,6.02-8.73,6.7l10.83,17.44c.36-.15.57-.97.72-1.34,1.34-3.42,2.52-7.13,3.95-10.49,1.23-2.88,1.25-3.28,4.61-3.3l12.93.9Z"/>
        <path class="st1" d="M183.43,243.12c22.18-2.73,38.91,19.91,29.68,40.36-7.82,17.32-30.53,22.21-44.87,9.69-18.55-16.19-9.23-47.05,15.19-50.05ZM183.14,248.03c-14.48,2.16-23.37,17.64-18.52,31.36,6.92,19.62,34.21,21.58,43.53,3.07,8.83-17.55-5.61-37.33-25.01-34.43Z"/>
        <path class="st1" d="M185.53,252.33c1.18-.32,2.04.05,2.81.93,1.28,1.57,3.57,8.47,4.84,9.35.29.21.77.25,1.13.31,3.04.45,6.8.08,9.77.63,1.36.25,1.87,1.89,1.46,3.12-.54,1.62-4.44,4.6-5.8,5.97-.35.35-2.01,2.09-2.06,2.35.41,3.15,2.5,7.34,2.62,10.39.05,1.31-1.06,2.64-2.4,2.62-3.63-1.2-6.85-3.49-10.35-5.05l-8.91,5.63c-1.59.91-3.49-.34-3.58-2.1-.15-3.06,1.57-7.41,1.71-10.58-.07-.26-1.88-1.84-2.26-2.16-1.5-1.26-5.77-3.99-6.38-5.63-.43-1.16-.05-2.4,1.07-2.99,3.16-.75,6.75-.81,9.86-1.55.35-.08.83-.17,1.1-.4,1.02-.85,2.88-7.85,3.91-9.59.28-.47.91-1.11,1.45-1.26ZM197.57,267.96c-2.48-.5-6.82.52-8.32-1.83l-2.8-5.53c-.71,1.49-1.69,6.02-2.9,6.87-1.44,1.01-5.48.91-7.29,1.43,1.04,1.59,5.18,3.63,5.58,5.34.32,1.37-1.35,6.95-1.1,7.23,1.73-.71,4.86-3.67,6.58-3.75,1.72-.08,5.1,2.6,6.89,3.16.22-.29-1.93-5.71-1.73-7.1.19-1.29,2.93-3.4,3.93-4.4.41-.41.88-.9,1.16-1.4Z"/>
      </g>
    </g>
  </g>
  <g>
    <g id="JlL9QI">
      <g>
        <path class="st1" d="M470.89,232.16c10.15-11.2,15.21-33.71,1.92-44.52-4.1-3.33-12.42-3.87-17.38-2.6-.85.22-3.42,1.51-3.69,1.5-.93-.03-2.93-1.25-1.74-2.15,1.51-1.15,5.46-1.87,7.36-1.99,23.76-1.52,31.03,20.2,23.35,39.67-7.35,18.62-23.58,24.64-42.7,22.79-31.93-3.1-35.72-46.14-10.34-60.6,8.34-4.76,21.92-7.58,31.44-6.63.71.07,2.65.63,2.47,1.6s-1.86.36-2.46.35c-20-.43-41.14,7.59-44.66,29.55-2.06,12.84,3.39,29.79,17.52,32.84,13.57,2.93,29.25.86,38.92-9.8Z"/>
        <path class="st1" d="M448.55,208.52c2-.75,8.38-2.07,6.58,2.12-.57,1.33-4.63,1.05-5.94,1.93.35,3.19.37,6.35.45,9.55.01.42.22.84.22,1.3.01,1.11.03,5.08-.47,5.86-.81,1.28-3.27.93-3.63-.68-.21-4.53.22-9.13-.29-13.64-.03-.23-.1-1.16-.48-.97l-10.76,4.8c-.75,5.12-.9,10.31-.93,15.49-.3,1.82-3.67,2.28-3.91-.41-.35-3.89.43-8.17.44-12.09-.57-.02-.77.6-1.29.77-1.8.58-3.21-1.52-2.19-3.06.86-1.29,3.92-2.77,4.24-3.38.44-.84.8-4.15,1.13-5.4,1.61-6.16,5.13-14.86,10.74-18.41,1.23-.78,2.81-.32,3.21,1.13.94,3.47,1.66,7.94,2.37,11.55.23,1.16.41,2.35.5,3.52ZM435.06,213.74l9.77-4.05-2.38-11.83c-.35-.26-2.24,2.47-2.48,2.85-2.55,3.93-3.81,8.52-4.91,13.03Z"/>
        <path class="st1" d="M464.79,192.71c1.76,1.73,1.97,4.1,1.82,6.45,1.55-.31,5.6-1.8,6.96-1.19.98.44,1.34,2.59.51,3.38l-7.02,1.74c-.2.22.35,2.23.48,2.64.25.78,2.22,4.19,1.11,4.51-2.11.46-3.77-5.53-4.36-5.63-.77-.13-2.61,2.64-3.46,2.81-1.22.24-2.22-.46-2.46-1.68-.37-1.91,3.34-4.44,4.93-5.09-.16-2.9-.57-5.76-.4-8.67.74-.14,1.37.23,1.88.73Z"/>
      </g>
    </g>
    <path class="st1" d="M328.09,240.58c16.17,0,32.34,0,48.5,0,.87,0,2.64-1.82,1.12-1.82-16.17,0-32.34,0-48.5,0-.87,0-2.64,1.82-1.12,1.82h0Z"/>
    <path class="st1" d="M326.9,257.14c18.93,0,37.86,0,56.78,0,.87,0,2.64-1.82,1.12-1.82-18.93,0-37.86,0-56.78,0-.87,0-2.64,1.82-1.12,1.82h0Z"/>
    <path class="st1" d="M326.9,303.27c19.87,0,39.73,0,59.6,0,19.78,0,39.56,0,59.35,0,11.22,0,22.44,0,33.66,0,.87,0,2.64-1.82,1.12-1.82-19.87,0-39.73,0-59.6,0-19.78,0-39.56,0-59.35,0-11.22,0-22.44,0-33.66,0-.87,0-2.64,1.82-1.12,1.82h0Z"/>
    <path class="st1" d="M328.09,327.23c20.9-.11,41.8-.22,62.71-.33s41.8-.22,62.71-.33c11.83-.06,23.65-.13,35.48-.19.87,0,2.64-1.83,1.12-1.82-20.9.11-41.8.22-62.71.33-20.9.11-41.8.22-62.71.33-11.83.06-23.65.13-35.48.19-.87,0-2.64,1.83-1.12,1.82h0Z"/>
    <path class="st1" d="M327.85,350.23c19.7.71,39.41,1,59.12.87,19.71-.13,39.41-.68,59.1-1.66,11.17-.55,22.32-1.24,33.47-2.07.58-.04,1.37-.46,1.62-1.01.23-.48.09-.86-.51-.82-19.57,1.44-39.17,2.48-58.79,3.09-19.62.61-39.24.8-58.87.57-11.18-.13-22.35-.4-33.52-.8-.63-.02-1.28.28-1.7.76-.23.26-.57,1.02.08,1.05h0Z"/>
    <path class="st1" d="M332.82,373.07h98.19c.87,0,2.64-1.82,1.12-1.82h-98.19c-.87,0-2.64,1.82-1.12,1.82h0Z"/>
  </g>
</svg>