<?xml version="1.0" encoding="UTF-8"?>
<svg id="Layer_1" xmlns="http://www.w3.org/2000/svg" version="1.1" viewBox="0 0 1466.12 779.08">
  <!-- Generator: Adobe Illustrator 29.7.1, SVG Export Plug-In . SVG Version: 2.1.1 Build 8)  -->
  <defs>
    <style>
      .st0 {
        fill: #adc716;
      }

      .st1 {
        fill: #fff7f0;
      }

      .st2 {
        fill: #33c5b5;
      }

      .st3 {
        fill: #e44c17;
      }
    </style>
  </defs>
  <g>
    <rect class="st0" x="129.15" y="418.36" width="377.77" height="114.2" rx="22.49" ry="22.49"/>
    <g>
      <path class="st1" d="M151.65,247.69h332.78c11.77,0,21.32,9.56,21.32,21.32v185.81c0,11.77-9.56,21.32-21.32,21.32H151.65c-11.77,0-21.33-9.56-21.33-21.33v-185.81c0-11.77,9.56-21.32,21.32-21.32Z"/>
      <path class="st0" d="M484.43,248.86c11.11,0,20.16,9.04,20.16,20.16v185.81c0,11.11-9.04,20.16-20.16,20.16H151.65c-11.11,0-20.16-9.04-20.16-20.16v-185.81c0-11.11,9.04-20.16,20.16-20.16h332.78M484.43,246.52H151.65c-12.37,0-22.49,10.12-22.49,22.49v185.81c0,12.37,10.12,22.49,22.49,22.49h332.78c12.37,0,22.49-10.12,22.49-22.49v-185.81c0-12.37-10.12-22.49-22.49-22.49h0Z"/>
    </g>
    <g id="F9Fsmk">
      <path class="st0" d="M366.8,319.31v-5.82h-21.75v30.78c0,1.83-3.62,4.75-5.36,4.75h-36.3v30.78c0,1.44-3.36,4.44-4.75,4.44h-36.91v31.86h112.73v-88.37s.43-.46.46-.46h11.49v96.64c0,1.11-2.6,3.57-3.76,3.9-42.94.35-86.1.47-129.05-.06-2-.97-3.67-2.77-3.81-5.07.96-14.41-1.29-30.51-.02-44.73.16-1.84,1.17-3.92,2.86-4.8.28-.14,2.37-.86,2.51-.86h35.99v-30.17c0-1.7,3.06-5.05,4.75-5.05h36.91v-30.48c0-1.71,3.31-5.05,5.05-5.05h28.95v-5.82l19.9,11.79-19.9,11.79Z"/>
    </g>
  </g>
  <g>
    <rect class="st2" x="544.18" y="418.36" width="377.77" height="114.2" rx="22.49" ry="22.49"/>
    <g>
      <path class="st1" d="M566.67,247.69h332.78c11.77,0,21.32,9.56,21.32,21.32v185.81c0,11.77-9.56,21.32-21.32,21.32h-332.78c-11.77,0-21.33-9.56-21.33-21.33v-185.81c0-11.77,9.56-21.32,21.32-21.32Z"/>
      <path class="st2" d="M899.45,248.86c11.11,0,20.16,9.04,20.16,20.16v185.81c0,11.11-9.04,20.16-20.16,20.16h-332.78c-11.11,0-20.16-9.04-20.16-20.16v-185.81c0-11.11,9.04-20.16,20.16-20.16h332.78M899.45,246.52h-332.78c-12.37,0-22.49,10.12-22.49,22.49v185.81c0,12.37,10.12,22.49,22.49,22.49h332.78c12.37,0,22.49-10.12,22.49-22.49v-185.81c0-12.37-10.12-22.49-22.49-22.49h0Z"/>
    </g>
    <g id="_x39_jUu3v">
      <g>
        <path class="st2" d="M766.65,369.65c13.96,6.53,18.5,25.45,9.69,38.01l13.58,13.82c2.06,5.52-3.19,9.57-8.11,5.85-2.03-1.53-11.64-12.19-12.51-12.36-9.76,6.17-22.61,5.78-31.59-1.67-.95-.79-2.97-3.36-3.89-3.54h-45.2c-5.82-.85-10.64-5.03-12.28-10.66-.83-30.92-.71-62.17-.06-93.11,1.56-5.83,6.63-10.24,12.65-10.92h64.6c7.13.78,12.24,6.41,13.06,13.42l.06,61.15ZM756.59,366.47v-57.98c0-1.59-3.6-4.09-5.32-3.73h-60.08c-2.9.04-5.21,2.04-5.33,5,.18,28.88-.29,57.83.23,86.68.3,1.56,2.62,3.61,4.14,3.61h38.91c-3.95-13.61,4.02-27.89,17.26-32.31.81-.27,4.27-1.28,4.85-1.28h5.33ZM752.97,376.58c-21.85,1.59-18.2,36.58,4.66,32.44,19.76-3.58,16.55-33.99-4.66-32.44Z"/>
        <path class="st2" d="M696.32,332.12c-2.81-2.81-1.34-7.68,2.62-8.29h44.57c5.71,1.18,5.12,8.72-.33,9.7-14.08-.92-29.71,1.22-43.6.01-1.29-.11-2.33-.49-3.26-1.42Z"/>
        <path class="st2" d="M696.32,351.17c-2.81-2.81-1.34-7.68,2.62-8.29h44.57c5.71,1.18,5.12,8.72-.33,9.7-14.08-.92-29.71,1.22-43.6.01-1.29-.11-2.33-.49-3.26-1.42Z"/>
        <path class="st2" d="M731.93,370.23c-.66.66-1.7,1.3-2.62,1.41-9.27,1.13-20.82-.83-30.33-.04-5.15-1.14-5.67-8.15-.33-9.64h30.95c3.78.85,5.11,5.49,2.34,8.26Z"/>
      </g>
    </g>
  </g>
  <g>
    <rect class="st3" x="959.2" y="418.36" width="377.77" height="114.2" rx="22.49" ry="22.49"/>
    <g>
      <path class="st1" d="M981.69,247.69h332.79c11.77,0,21.32,9.56,21.32,21.32v185.81c0,11.77-9.56,21.32-21.32,21.32h-332.78c-11.77,0-21.33-9.56-21.33-21.33v-185.81c0-11.77,9.56-21.32,21.32-21.32Z"/>
      <path class="st3" d="M1314.48,248.86c11.11,0,20.16,9.04,20.16,20.16v185.81c0,11.11-9.04,20.16-20.16,20.16h-332.78c-11.11,0-20.16-9.04-20.16-20.16v-185.81c0-11.11,9.04-20.16,20.16-20.16h332.78M1314.48,246.52h-332.78c-12.37,0-22.49,10.12-22.49,22.49v185.81c0,12.37,10.12,22.49,22.49,22.49h332.78c12.37,0,22.49-10.12,22.49-22.49v-185.81c0-12.37-10.12-22.49-22.49-22.49h0Z"/>
    </g>
    <g>
      <path class="st3" d="M1076.96,292.46c.38-.37.96-.6,1.46-.79,46.38-.63,93.01-.6,139.39-.01,1.93.79,2.67,2.63,2.63,4.66v132.16c-.07,1.69-.8,3.45-2.42,4.17h-139.81c-1.04-.46-1.76-1.33-2.08-2.43-.61-45.28-.42-90.78-.09-136.08.26-.53.51-1.27.92-1.68ZM1216.61,295.11h-136.99v11.1h136.99v-11.1ZM1216.61,310.02h-136.99v118.95h136.99v-118.95Z"/>
      <path class="st3" d="M1119.15,401.58c-3.22-12.46,3.6-27.22,15.03-33.01.85-.43,4.57-1.49,4.74-1.68.13-.14.05-.48-.22-.72-1.12-1-2.67-1.56-3.93-2.93-12.92-14.04,1.54-36.11,19.59-29.65,12.22,4.38,15.8,20.19,7.09,29.65-1.26,1.37-2.82,1.92-3.93,2.93-.27.24-.35.58-.22.72.17.18,3.89,1.25,4.74,1.68,11.42,5.78,18.16,20.56,15.03,33.01h-57.92Z"/>
      <path class="st3" d="M1094.08,298.31c5.25-1.19,4.34,6.32.08,4.98-2.36-.74-2.37-4.46-.08-4.98Z"/>
      <path class="st3" d="M1088.88,302.64c-2.19,2.19-6.53-.8-4.07-3.55,2.39-2.68,6.67.96,4.07,3.55Z"/>
      <path class="st3" d="M1105.17,302.63c-2.54,2.32-6.26-1.1-4.06-3.54,2.45-2.71,6.73,1.09,4.06,3.54Z"/>
    </g>
  </g>
</svg>