<?xml version="1.0" encoding="UTF-8"?>
<svg id="Layer_1" xmlns="http://www.w3.org/2000/svg" version="1.1" viewBox="0 0 412.14 480">
  <!-- Generator: Adobe Illustrator 29.7.1, SVG Export Plug-In . SVG Version: 2.1.1 Build 8)  -->
  <defs>
    <style>
      .st0 {
        fill: #002e52;
      }

      .st1, .st2 {
        fill: #523cac;
      }

      .st3 {
        stroke: #adc716;
      }

      .st3, .st4, .st5, .st6, .st7, .st2, .st8, .st9, .st10 {
        stroke-miterlimit: 10;
      }

      .st3, .st5, .st2, .st9 {
        stroke-width: 1.79px;
      }

      .st3, .st5, .st11 {
        fill: #002f55;
      }

      .st12 {
        fill: #adc716;
      }

      .st4 {
        stroke-width: 1.22px;
      }

      .st4, .st13 {
        fill: #33c5b5;
      }

      .st4, .st2, .st8, .st10 {
        stroke: #fff7f0;
      }

      .st14, .st9 {
        fill: #fff7f0;
      }

      .st15 {
        fill: #816dff;
      }

      .st5 {
        stroke: #33c5b5;
      }

      .st6 {
        stroke-width: .89px;
      }

      .st6, .st7 {
        stroke: #7f8080;
      }

      .st6, .st7, .st8, .st10 {
        fill: none;
      }

      .st7 {
        stroke-width: .9px;
      }

      .st16 {
        fill: #e44c17;
      }

      .st8 {
        stroke-width: 1.5px;
      }

      .st17 {
        fill: #745ff1;
      }

      .st9 {
        stroke: #ecaa19;
      }

      .st10 {
        stroke-width: 1.08px;
      }

      .st18 {
        fill: #dd2080;
      }

      .st19 {
        fill: #ecaa19;
      }
    </style>
  </defs>
  <path class="st7" d="M252.72,413.14l-161.96-26.5c-3.56-.55-5.55-4.4-3.94-7.63l12.49-24.98c.89-1.77,2.69-2.91,4.67-2.94l233.02-3.52c2.13-.03,4.07,1.21,4.93,3.15l3.74,8.42c1.16,2.6.05,5.66-2.5,6.92l-87.28,46.58c-.98.48-2.08.65-3.16.49h0Z"/>
  <g>
    <path class="st13" d="M273.63,76.59s.83-8.8,9.45-6.21l1.97.49s1.31-3.96,8.07-3.23c0,0,3.19,1.15,3.77,2.07,0,0,6.3-3.96,11.64.92l.61.77s9.03,2.81,7.11,10.57l-.19.69s5.15,4.23,2.69,10.57c0,0-13.33,14.1-22.56,11.57l-2.34-.54s-5.33,7.51-17.42,1.22c0,0-3.05-1.59-3.73-5.19,0,0-6.6-3.73-4.22-8.74l.86-2.81s-1.34-3.18-.43-5.8c0,0,1.53-4.22,4.4-4.76l.32-1.58Z"/>
    <g>
      <g>
        <path class="st5" d="M87.81,192.76l-13.02,16.15c-1.77,2.2.69,5.26,3.22,4l91.4-45.51-81.59,25.36Z"/>
        <g>
          <g id="_x35_kEdL7">
            <path class="st15" d="M232.56,226.54c-5.39,2.49-15.02-3.66-12.22-10.19,8.65-17.64,16.8-35.48,25.55-53.01,1.08-2.16.85-2.5,2.86-4.26,3.28-2.89,7.08-5.43,10.33-8.38,2.32-1.27,3.55,0,3.71,2.38.31,4.7-.39,10.1-.27,14.86-8.79,17.83-17,35.89-25.84,53.61-1.12,2.24-1.51,3.79-4.11,5ZM225,214.21l-.26.09c-1.17,2.24-2.65,4.39-.93,6.84.93,1.32,4.72,3.19,6.34,2.86,2.74-.55,3.52-2.62,4.34-4.98l-9.49-4.82ZM235.98,216.17l23.07-47.84-9.71-4.83-23.27,48.03,9.91,4.63ZM251.73,160.58l7.95,3.83-.15-10.17-7.8,6.34Z"/>
          </g>
          <path class="st6" d="M253.38,413.15l-161.39-26.41c-3.55-.55-5.53-4.39-3.93-7.6l12.44-24.89c.88-1.77,2.68-2.9,4.65-2.93l232.19-3.5c2.12-.03,4.06,1.2,4.92,3.14l3.73,8.39c1.15,2.59.05,5.64-2.49,6.89l-86.97,46.41c-.98.48-2.08.65-3.15.49Z"/>
          <path class="st3" d="M350.41,164.31l14.5-30.1c1.69-3.51-.32-7.67-4.12-8.53l-141.3-19.63c-2.51-.57-5.11.52-6.47,2.71l-23.15,37.26c-.56.91-.88,1.94-.91,3.01l-1.54,69.25c-.14,4.56,72.31,10.65,76.4,8.63l83.82-59.81c1.21-.6,2.19-1.58,2.77-2.8Z"/>
          <g>
            <g>
              <path class="st18" d="M190.48,190.95c3.49-19.83,4.05-40.06,2.94-60.13-.56-10.05-1.54-20.08-2.8-30.06-.23-1.85-1.18-4.54-.34-6.35,1.19-2.55,4.66-1.84,7.17-2.03,6.63-.51,13.26-1.01,19.88-1.52,11.59-.89,23.18-1.77,34.77-2.66,5.33-.41,9.26.53,11.84,5.48,2.23,4.28,2.56,9.37,2.78,14.1,1.38,28.88,2.94,57.65,2.8,86.55-.01,2.84-.37,6.24-2.89,7.53-1.12.57-2.44.57-3.7.56-23.35-.25-46.71-.51-70.06-.76-1.17-.01-2.53-.13-3.15-1.12-.41-.64-.35-1.47-.28-2.22.57-6.4,1.15-12.8,1.72-19.2"/>
              <path class="st14" d="M191.22,191.16c4.36-24.97,4.19-50.47,1.8-75.64-.31-3.29-.66-6.57-1.04-9.85-.32-2.75-.8-5.47-1.18-8.21-.16-1.17-.25-2.61.72-3.47.82-.72,2.08-.77,3.11-.8,2.69-.07,5.35-.24,8.04-.45,12.92-.99,25.84-1.97,38.76-2.96,3.23-.25,6.46-.49,9.69-.74,2.26-.17,4.57-.34,6.78.29,4.99,1.44,6.77,7.04,7.49,11.65.45,2.91.53,5.86.68,8.8.16,3.24.31,6.47.47,9.71.31,6.46.62,12.93.9,19.39.57,13,1.04,26.01,1.24,39.03.05,3.15.08,6.31.09,9.46.01,2.98.19,6.03-.09,9-.24,2.54-1.18,4.97-4.04,5.26-3.15.32-6.48-.01-9.64-.05-12.92-.14-25.84-.28-38.76-.42-6.46-.07-12.92-.14-19.38-.21-1.43-.02-2.87,0-4.3-.05-.57-.02-1.29-.05-1.79-.38-.75-.49-.62-1.42-.56-2.19.24-3.28.59-6.57.88-9.85s.56-6.24.84-9.35c.09-.98-1.45-.98-1.54,0-.31,3.45-.62,6.89-.93,10.34-.15,1.64-.29,3.28-.44,4.92s-.51,3.43-.39,5.09c.17,2.34,2.24,2.9,4.24,2.95,3.48.09,6.96.08,10.43.11,13.58.15,27.16.3,40.74.44,3.48.04,6.96.08,10.43.11s6.81.35,10.14.05c5.64-.49,5.66-6.45,5.67-10.81.03-13.69-.31-27.37-.83-41.04-.51-13.68-1.2-27.35-1.86-41.03-.27-5.71-.3-11.79-3.01-16.98-2.11-4.04-5.76-5.9-10.23-5.95-3.07-.03-6.17.38-9.23.62-3.48.27-6.95.53-10.43.8-6.79.52-13.58,1.04-20.37,1.55-6.33.48-12.73,1.29-19.07,1.33-1.91.01-4.13.13-5.34,1.84-1.41,2-.53,4.64-.15,6.82.55,3.23.81,6.53,1.16,9.79.37,3.45.7,6.9.99,10.35.55,6.69.94,13.39,1.13,20.09.36,13.45-.12,26.95-1.81,40.3-.42,3.31-.92,6.61-1.5,9.9-.17.97,1.31,1.38,1.48.41h0Z"/>
            </g>
            <g>
              <rect class="st8" x="201.64" y="103.18" width="18.75" height="18.75" rx="2.62" ry="2.62" transform="translate(-6.98 14.2) rotate(-3.79)"/>
              <g>
                <rect class="st8" x="220.38" y="101.94" width="18.75" height="18.75" rx="2.62" ry="2.62" transform="translate(-6.86 15.44) rotate(-3.79)"/>
                <rect class="st8" x="239.12" y="100.7" width="18.75" height="18.75" rx="2.62" ry="2.62" transform="translate(-6.73 16.67) rotate(-3.79)"/>
                <path class="st14" d="M230.13,117.03c-.8.05-1.51-.06-2.12-.35-.61-.29-1.1-.72-1.47-1.31-.37-.58-.58-1.29-.63-2.11-.04-.62.01-1.18.17-1.69.15-.5.39-.94.71-1.32.32-.38.72-.67,1.2-.89.47-.22,1.01-.34,1.61-.38.8-.05,1.51.06,2.12.35.61.29,1.1.72,1.47,1.3.37.58.58,1.28.63,2.1.04.62-.01,1.19-.17,1.69-.15.51-.39.95-.71,1.33-.32.38-.72.67-1.2.89-.47.22-1.01.34-1.61.38ZM230.03,115.52c.39-.03.73-.14,1.01-.35.28-.21.49-.51.63-.89.14-.38.19-.86.15-1.41-.06-.84-.28-1.46-.66-1.85-.39-.39-.87-.57-1.46-.53-.39.03-.73.14-1.01.34-.28.2-.49.5-.63.88-.14.38-.19.86-.15,1.41.06.83.28,1.45.66,1.85.39.4.87.58,1.46.55Z"/>
              </g>
              <path class="st14" d="M210.87,118.3c-.67.04-1.28-.08-1.81-.37-.53-.29-.96-.73-1.29-1.32-.32-.59-.51-1.29-.57-2.11s.04-1.56.28-2.17c.25-.61.61-1.1,1.1-1.46.49-.36,1.07-.56,1.75-.61s1.21.08,1.71.36c.5.28.85.68,1.05,1.18h-.17s-.27-4.1-.27-4.1c-.02-.33.05-.58.2-.76.16-.18.39-.28.71-.3s.57.05.75.2c.18.16.29.4.31.73l.62,9.39c.02.33-.05.58-.2.77-.16.19-.39.29-.71.31s-.56-.05-.74-.21c-.18-.16-.28-.41-.3-.73l-.08-1.23.21.46c-.12.56-.41,1.02-.88,1.38-.46.36-1.02.56-1.67.6ZM211.32,116.76c.39-.03.73-.14,1.01-.35.28-.21.49-.51.63-.89.14-.38.19-.86.15-1.41-.06-.84-.28-1.46-.66-1.85-.39-.39-.87-.57-1.46-.53-.39.03-.73.14-1.01.34-.28.2-.49.5-.63.88-.14.38-.19.86-.15,1.41.06.83.28,1.45.66,1.85.39.4.87.58,1.46.55Z"/>
            </g>
          </g>
          <polygon class="st3" points="189.08 210 92.67 191.1 188.96 149.03 189.08 210"/>
          <g>
            <g>
              <path class="st12" d="M127.92,204.63c3.49-19.83,4.05-40.06,2.94-60.13-.56-10.05-1.54-20.08-2.8-30.06-.23-1.85-1.18-4.54-.34-6.35,1.19-2.55,4.66-1.84,7.17-2.03,6.63-.51,13.26-1.01,19.88-1.52,11.59-.89,23.18-1.77,34.77-2.66,5.33-.41,9.26.53,11.84,5.48,2.23,4.28,2.56,9.37,2.78,14.1,1.38,28.88,2.94,57.65,2.8,86.55-.01,2.84-.37,6.24-2.89,7.53-1.12.57-2.44.57-3.7.56-23.35-.25-46.71-.51-70.06-.76-1.17-.01-2.53-.13-3.15-1.12-.41-.64-.35-1.47-.28-2.22.57-6.4,1.15-12.8,1.72-19.2"/>
              <path class="st14" d="M128.66,204.84c4.36-24.97,4.19-50.47,1.8-75.64-.31-3.29-.66-6.57-1.04-9.85-.32-2.75-.8-5.47-1.18-8.21-.16-1.17-.25-2.61.72-3.47.82-.72,2.08-.77,3.11-.8,2.69-.07,5.35-.24,8.04-.45,12.92-.99,25.84-1.97,38.76-2.96,3.23-.25,6.46-.49,9.69-.74,2.26-.17,4.57-.34,6.78.29,4.99,1.44,6.77,7.04,7.49,11.65.45,2.91.53,5.86.68,8.8.16,3.24.31,6.47.47,9.71.31,6.46.62,12.93.9,19.39.57,13,1.04,26.01,1.24,39.03.05,3.15.08,6.31.09,9.46.01,2.98.19,6.03-.09,9-.24,2.54-1.18,4.97-4.04,5.26-3.15.32-6.48-.01-9.64-.05-12.92-.14-25.84-.28-38.76-.42-6.46-.07-12.92-.14-19.38-.21-1.43-.02-2.87,0-4.3-.05-.57-.02-1.29-.05-1.79-.38-.75-.49-.62-1.42-.56-2.19.24-3.28.59-6.57.88-9.85s.56-6.24.84-9.35c.09-.98-1.45-.98-1.54,0-.31,3.45-.62,6.89-.93,10.34-.15,1.64-.29,3.28-.44,4.92s-.51,3.43-.39,5.09c.17,2.34,2.24,2.9,4.24,2.95,3.48.09,6.96.08,10.43.11,13.58.15,27.16.3,40.74.44,3.48.04,6.96.08,10.43.11s6.81.35,10.14.05c5.64-.49,5.66-6.45,5.67-10.81.03-13.69-.31-27.37-.83-41.04s-1.2-27.35-1.86-41.03c-.27-5.71-.3-11.79-3.01-16.98-2.11-4.04-5.76-5.9-10.23-5.95-3.07-.03-6.17.38-9.23.62-3.48.27-6.95.53-10.43.8-6.79.52-13.58,1.04-20.37,1.55-6.33.48-12.73,1.29-19.07,1.33-1.91.01-4.13.13-5.34,1.84-1.41,2-.53,4.64-.15,6.82.55,3.23.81,6.53,1.16,9.79.37,3.45.7,6.9.99,10.35.55,6.69.94,13.39,1.13,20.09.36,13.45-.12,26.95-1.81,40.3-.42,3.31-.92,6.61-1.5,9.9-.17.97,1.31,1.38,1.48.41h0Z"/>
            </g>
            <g>
              <rect class="st10" x="138.01" y="118.51" width="19.27" height="15.79" rx="2.43" ry="2.43" transform="translate(-8.27 10.35) rotate(-3.91)"/>
              <rect class="st10" x="157.27" y="117.2" width="19.27" height="15.79" rx="2.43" ry="2.43" transform="translate(-8.14 11.66) rotate(-3.91)"/>
              <rect class="st10" x="176.52" y="115.88" width="19.27" height="15.79" rx="2.43" ry="2.43" transform="translate(-8 12.97) rotate(-3.91)"/>
              <g>
                <path class="st14" d="M161.96,128.33c.02.29-.02.55-.12.77-.1.22-.24.4-.42.53-.18.13-.39.21-.63.22-.13,0-.24-.03-.32-.11-.09-.08-.13-.18-.14-.3v-.09c-.01-.11.02-.21.09-.28.07-.07.16-.13.27-.17.12-.05.2-.11.25-.19.05-.08.07-.17.08-.27,0-.1,0-.21,0-.33l-.24-3.47c0-.13.03-.25.11-.35.08-.1.19-.15.32-.16s.25.03.34.11c.09.08.15.19.15.33l.26,3.74ZM161.16,123.65c-.18.01-.3,0-.38-.06-.08-.05-.12-.15-.13-.29v-.15c-.02-.15.01-.25.09-.31.08-.06.2-.09.36-.11.18-.01.31,0,.38.06.08.05.12.15.13.29v.15c.02.15-.01.25-.09.31-.07.06-.2.1-.37.11Z"/>
                <path class="st14" d="M164.99,128.12c-.44.03-.82-.04-1.16-.2-.33-.16-.6-.39-.79-.7-.19-.3-.3-.65-.33-1.05-.03-.46.04-.87.2-1.21.17-.34.39-.61.69-.8.29-.2.61-.31.95-.33.26-.02.52.02.76.11.24.09.46.23.65.4.19.18.35.38.47.62.12.24.19.5.21.78,0,.12-.04.23-.13.31-.09.08-.19.13-.32.14l-2.95.2-.28-.76,2.84-.19-.16.17v-.21c-.03-.15-.1-.28-.2-.39-.1-.11-.23-.2-.37-.26-.15-.06-.3-.08-.46-.07s-.3.04-.43.09c-.13.05-.24.13-.33.23-.09.1-.16.24-.2.41-.05.17-.06.38-.04.63.02.28.09.51.22.7.13.19.29.32.48.41.19.09.39.12.59.11.19-.01.34-.04.45-.08.11-.04.2-.08.27-.13.07-.05.13-.09.18-.13.09-.05.18-.08.26-.09.11,0,.21.02.29.1.08.07.12.16.13.26,0,.14-.05.27-.19.39-.13.12-.31.23-.54.34-.24.1-.48.16-.74.18Z"/>
                <path class="st14" d="M169.15,123.53c.29-.02.55,0,.78.04.22.05.4.12.53.22.13.1.2.23.21.39,0,.1-.02.2-.07.3-.06.09-.14.15-.26.15-.08,0-.15,0-.21-.02s-.11-.05-.15-.08c-.04-.03-.09-.06-.15-.09-.05-.03-.13-.05-.24-.06-.11-.01-.19-.01-.24-.01-.26.02-.48.09-.66.22-.18.13-.31.29-.39.49-.08.2-.12.43-.1.68s.08.46.2.65c.11.19.26.33.45.43.19.1.39.14.63.13.13,0,.24-.02.33-.05s.17-.05.23-.09c.07-.05.13-.09.18-.14.05-.05.14-.08.25-.09.13,0,.24.03.32.11.08.08.12.18.13.31s-.06.25-.19.37c-.14.12-.32.21-.55.29-.23.08-.48.13-.75.15-.41.03-.77-.04-1.08-.21-.31-.17-.56-.41-.74-.72-.18-.31-.29-.67-.32-1.07-.03-.42.03-.8.18-1.13.15-.33.37-.6.67-.81.29-.2.64-.32,1.04-.35Z"/>
                <path class="st14" d="M171.39,123.53l1.83-.13c.12,0,.23.03.32.1.09.08.14.18.14.3s-.03.22-.1.31c-.08.09-.18.13-.3.14l-1.83.13c-.12,0-.23-.03-.32-.1-.09-.08-.14-.18-.14-.3s.03-.22.1-.31c.08-.09.18-.13.3-.14ZM172.15,122.51c.13,0,.25.03.34.11.09.08.14.19.15.33l.23,3.44c0,.07.02.13.05.17.03.04.07.08.12.09.05.02.1.02.16.02.06,0,.12-.02.17-.05.05-.03.11-.04.18-.05.07,0,.14.02.2.09.06.06.1.15.11.27,0,.14-.06.27-.21.37-.15.1-.32.16-.5.17-.11,0-.23,0-.36,0-.13,0-.26-.04-.38-.11-.12-.06-.22-.16-.31-.3-.09-.14-.14-.33-.16-.59l-.24-3.48c0-.13.03-.25.11-.35.08-.1.19-.15.33-.16Z"/>
              </g>
              <g>
                <path class="st14" d="M181.53,122.19c-.18.01-.3,0-.38-.06-.08-.05-.12-.15-.13-.29v-.15c-.02-.15.01-.25.09-.31.08-.06.2-.09.36-.11.18-.01.31,0,.38.06.08.05.12.15.13.29v.15c.02.15-.01.25-.09.31-.07.06-.2.1-.37.11ZM182.29,126.32c0,.13-.03.25-.11.35-.08.1-.19.15-.32.16s-.25-.03-.34-.11c-.09-.08-.15-.19-.15-.33l-.22-3.19c0-.13.03-.25.11-.35.08-.1.19-.15.32-.16s.25.03.34.11c.09.08.15.19.15.33l.22,3.19Z"/>
                <path class="st14" d="M183.17,122.58c.1,0,.19.01.28.05.09.04.15.11.2.21l1.31,2.52-.16.09.98-2.75c.07-.21.2-.32.39-.32.13,0,.24.02.32.1.09.07.13.17.14.29,0,.04,0,.08-.01.12-.01.04-.02.08-.03.12l-1.23,3.28c-.07.19-.19.3-.37.32-.1.02-.19.01-.29-.03-.09-.05-.17-.12-.22-.23l-1.66-3.09s-.03-.06-.04-.1c-.02-.04-.03-.09-.03-.15,0-.09.03-.19.1-.28.08-.1.18-.15.32-.16Z"/>
                <path class="st14" d="M189.53,126.38c-.44.03-.82-.04-1.16-.2-.33-.16-.6-.39-.79-.7-.19-.3-.3-.65-.33-1.05-.03-.46.04-.87.2-1.21.17-.34.39-.61.69-.8.29-.2.61-.31.95-.33.26-.02.52.02.76.11.24.09.46.23.65.4.19.18.35.38.47.62.12.24.19.5.21.78,0,.12-.04.23-.13.31-.09.08-.19.13-.32.14l-2.95.2-.28-.76,2.84-.19-.16.17v-.21c-.03-.15-.1-.28-.2-.39-.1-.11-.23-.2-.37-.26-.15-.06-.3-.08-.46-.07s-.3.04-.43.09c-.13.05-.24.13-.33.23-.09.1-.16.24-.2.41-.05.17-.06.38-.04.63.02.28.09.51.22.7.13.19.29.32.48.41.19.09.39.12.59.11.19-.01.34-.04.45-.08.11-.04.2-.08.27-.13.07-.05.13-.09.18-.13.09-.05.18-.08.26-.09.11,0,.21.02.29.1.08.07.12.16.13.26,0,.14-.05.27-.19.39-.13.12-.31.23-.54.34-.24.1-.48.16-.74.18Z"/>
              </g>
              <g>
                <path class="st14" d="M147.37,127.19c.03.42-.04.8-.21,1.14-.17.33-.4.6-.71.81-.3.2-.65.32-1.04.34s-.75-.04-1.08-.2c-.33-.16-.6-.39-.81-.7-.21-.31-.33-.68-.36-1.1s.04-.8.21-1.14c.17-.33.4-.6.71-.81.3-.2.65-.32,1.04-.35s.75.04,1.08.2c.33.16.6.4.81.71.21.31.33.68.36,1.1ZM146.45,127.25c-.02-.26-.09-.49-.21-.67-.12-.19-.27-.33-.46-.42-.19-.1-.39-.14-.6-.12s-.41.08-.58.2c-.17.12-.3.28-.39.48-.09.2-.13.43-.11.69s.09.48.2.67c.12.19.27.33.46.42.19.1.39.14.6.12s.41-.08.58-.2c.17-.12.3-.28.39-.48.09-.2.13-.43.11-.69Z"/>
                <path class="st14" d="M150.18,124.84c.36-.02.69.04.99.21.3.16.54.4.73.71.19.31.3.67.33,1.1s-.03.8-.17,1.13c-.15.33-.35.6-.62.8-.27.2-.58.32-.93.34-.21.01-.4,0-.59-.06-.19-.05-.35-.13-.49-.22-.14-.09-.26-.19-.34-.29-.08-.1-.13-.19-.13-.26l.23-.12.04.56c0,.13-.03.25-.11.35-.08.1-.19.15-.32.16s-.25-.03-.34-.11c-.09-.08-.15-.19-.15-.33l-.33-4.85c0-.13.03-.25.11-.35.08-.1.19-.15.32-.16s.25.03.34.11c.09.08.15.19.15.33l.13,1.96-.14-.06c0-.07.03-.15.09-.25.07-.1.16-.2.27-.31.12-.1.25-.19.41-.27.16-.07.33-.12.51-.13ZM150.12,125.7c-.23.02-.42.09-.58.21-.16.13-.28.29-.37.49-.08.2-.11.42-.1.67s.08.46.19.65c.11.19.25.34.43.44.18.1.38.14.61.13s.42-.09.58-.21c.16-.12.28-.29.36-.49.08-.2.11-.43.1-.67s-.08-.46-.19-.65c-.11-.19-.25-.33-.43-.43-.18-.1-.38-.15-.6-.13Z"/>
              </g>
            </g>
          </g>
          <g>
            <path class="st17" d="M110.23,109.67l-2.1,14.46,33.68,124.84,3.05,12.91s.77,6.13,7.59,3.63l9.09-4.65-7.44-29.6-25.41-97.9s-13.8-24.61-18.46-23.69Z"/>
            <g id="_x37_gDtSB">
              <g>
                <path class="st14" d="M148.34,266.14c-.57.01-1.1-.13-1.6-.42-.75-.44-1.74-1.95-2.13-3.02-.61-1.69-1.09-3.63-1.54-5.5-.32-1.32-.66-2.68-1.03-3.95-10.29-34.42-18.97-65.03-26.52-93.59-.64-2.41-1.29-4.82-1.95-7.25-1.61-5.96-3.28-12.13-4.69-18.17-1.51-6.49-1.68-10.58-1.47-16.75l.02-.59c.07-2.32.29-9.36.93-10.76.28-.62.43-.62.48-.62.23,0,.67.17.81.22.79.31,2.77,3.06,3.73,4.39.42.58.77,1.08,1.05,1.42,1.12,1.41,2.25,2.83,3.38,4.24,2.67,3.34,5.43,6.79,7.88,10.11,3.56,4.83,5,8.89,6.28,14.28,3.27,13.73,6.75,27.68,10.12,41.17l1.37,5.48c.9,3.6,1.79,7.2,2.68,10.81,3.71,15.02,7.55,30.56,11.99,45.67.34,1.14.66,2.21.99,3.26.91,2.96,1.77,5.77,2.44,9.2.1.53.24,1.01.37,1.48.26.95.49,1.77.42,2.76-.02.3-.19,1.01-.3,1.26-.25.17-.99.64-1.18.75-3.13,1.76-8.61,3.49-11.89,4.08-.21.04-.42.06-.62.06ZM155.49,245.13c-.99.02-2.42.58-3.92,1.21-.36.15-.67.28-.84.34-.84.28-1.74.54-2.62.79-1,.28-2.04.58-3,.92l-.14.05c-1.08.38-2.72.95-2.35,2.96.6,3.29,2.24,9.08,3.31,12.06.5,1.38,1.45,1.66,2.16,1.64h0c.56-.01,1.14-.19,1.75-.38,1.32-.41,2.61-.96,3.85-1.49,1.04-.45,2.11-.91,3.15-1.26.61-.21,1.24-.36,1.91-.53.6-.15,1.21-.3,1.81-.49l.74-.24-3.88-14.12c-.08-.31-.31-.46-.44-.53,0-.01,0-.02-.01-.03-.08-.18-.17-.38-.35-.54-.27-.24-.65-.36-1.13-.35ZM153.15,238.67c-.55,0-.97.23-1.31.4-.17.09-.32.16-.47.21-1.31.39-2.55.82-3.75,1.24-.51.18-1.02.36-1.54.54-.22.08-.62.17-1.04.27-1.83.44-3.16.82-3.61,1.62-.48.85-.24,2.13.25,2.96.47.79,1.19,1.24,1.97,1.22.08,0,.17,0,.25-.02.85-.12,1.35-.41,1.78-.68.21-.12.39-.23.61-.32.73-.29,1.55-.55,2.42-.81.91-.28,1.85-.57,2.69-.92,1.38-.57,2.39-1.02,2.99-1.34.74-.39,1.12-1.2,1-2.17-.11-.86-.66-1.9-1.63-2.15-.2-.05-.41-.07-.61-.07ZM113.52,131.66c-.41-.01-.82.04-1.21.21-2.33,1.01-.21,5.12.22,6.72.81,2.97,1.53,5.97,2.26,8.96.61,2.51,1.23,5.11,1.91,7.66,4.33,16.43,8.99,33.07,13.5,49.17,1.59,5.67,3.17,11.35,4.75,17.02.8,2.86,1.59,5.73,2.38,8.6.7,2.54,1.74,5.19,2.03,7.78.05.44.12.87.27,1.28.29.82.9,1.57,1.74,1.8.88.24,1.8-.13,2.64-.49,2.37-1.02,4.75-2.05,7.12-3.07.76-.33,1.59-.72,1.94-1.48.33-.73.11-1.58-.12-2.35-.02-1.24-.84-2.85-1.19-4.05-.39-1.33-.77-2.64-1.07-3.99-.64-2.92-1.43-5.82-2.14-8.72-1.43-5.81-2.85-11.63-4.28-17.44-.5-2.03-1-4.07-1.5-6.1-2.84-11.53-5.68-23.06-8.55-34.59-2.12-8.54-4.22-17.09-6.45-25.61-.21-.78-.43-1.6-.95-2.22-.58-.68-1.48-1.05-2.38-1.07s-1.78.28-2.55.74c-1.24.74-2.3,1.93-3.73,2.12-.99.13-1.97-.24-2.92-.55-.55-.18-1.14-.33-1.72-.35ZM112.65,129.54c.64-.04,1.28,0,1.9.21.84.29,1.6.9,2.5.91.98.01,1.8-.69,2.57-1.31.8-.64,1.43-.79,2.38-1.02.64-.15,1.41-.58,1.59-1.29.25-1.01-.56-2.19-1.1-2.97-1.8-2.62-3.6-5.25-5.4-7.87-.52-.77-1.1-1.57-1.95-1.92-1.12-.46-1.8.28-2.62.88-.97.71-1.95,1.24-2.48,2.39-.44.95-.47,2.03-.48,3.08-.03,1.89-.06,3.77-.09,5.66-.02,1.03-.22,2.5.7,3.22.59.46,1.08.2,1.77.11.24-.03.47-.06.71-.08Z"/>
                <path class="st14" d="M143.8,227.76c-.55.11-.61-.67-.73-1.08-.24-.79-.47-1.58-.7-2.37-.47-1.58-.93-3.16-1.39-4.74-.92-3.16-1.82-6.33-2.71-9.5-.89-3.17-1.76-6.34-2.62-9.52-.86-3.18-1.7-6.36-2.53-9.55-.83-3.19-1.64-6.38-2.44-9.57-.8-3.19-1.58-6.39-2.35-9.59-.77-3.2-1.52-6.41-2.26-9.61s-1.46-6.42-2.17-9.64-1.4-6.43-2.08-9.66c-.09-.43-.05-.5.05-.15.11.4.22.8.34,1.2.22.8.45,1.61.67,2.41.45,1.61.89,3.21,1.33,4.82.89,3.21,1.77,6.43,2.65,9.65.88,3.22,1.75,6.43,2.62,9.65.87,3.22,1.73,6.44,2.59,9.66s1.71,6.44,2.56,9.67,1.69,6.45,2.53,9.68c.84,3.23,1.67,6.45,2.5,9.68.83,3.23,1.65,6.46,2.47,9.69.41,1.62.82,3.23,1.23,4.85.2.81.41,1.62.61,2.42.11.43.58,1.33-.02,1.55-.04.02-.08.03-.12.03Z"/>
              </g>
            </g>
          </g>
          <g>
            <circle class="st11" cx="120.15" cy="188.47" r="6.42"/>
            <path class="st19" d="M129.98,190.27c-.37,1.97-1.14,3.63-2.3,4.97-1.16,1.34-2.56,2.29-4.2,2.86-1.64.56-3.37.68-5.2.33s-3.41-1.08-4.73-2.2c-1.32-1.12-2.28-2.52-2.88-4.19-.6-1.67-.71-3.49-.34-5.47s1.14-3.63,2.3-4.97c1.16-1.34,2.56-2.3,4.21-2.88,1.64-.58,3.38-.69,5.21-.35s3.41,1.08,4.73,2.22c1.32,1.13,2.28,2.54,2.87,4.21.6,1.67.71,3.49.34,5.47ZM125.65,189.45c.23-1.23.18-2.34-.14-3.34-.32-1-.85-1.82-1.59-2.49-.74-.66-1.61-1.09-2.62-1.28s-1.98-.11-2.91.24c-.93.35-1.72.93-2.38,1.74-.66.81-1.11,1.83-1.34,3.06-.23,1.2-.18,2.3.15,3.3.32,1,.85,1.82,1.59,2.49s1.61,1.09,2.62,1.28,1.98.11,2.91-.24c.93-.35,1.72-.93,2.38-1.74.66-.81,1.11-1.82,1.33-3.02Z"/>
          </g>
          <g>
            <path class="st16" d="M169.18,151.27l7.12-.75-.15-7.22s49.8-10.3,70.68.35l4.01.55s27.48-16.37,64.37-16.8l27.74,84.48-5.42.84,3.42,8.53-59.27,9.05-27.81,3.36-69.7,6.18-14.99-88.56Z"/>
            <g id="ZBwQvf">
              <g>
                <path class="st14" d="M168.69,151.3c-.07-.39.17-.77.55-.86.78-.19,1.97-.28,2.48-.32.98-.07,1.91-.14,2.65-.38l.43-.14c.29-.09.5-.36.53-.66,0,0,.03-.45.03-.45.07-.85-.01-1.69-.13-2.53-.1-.7-.41-1.28-.53-1.97-.09-.48-.02-1.02.29-1.4.37-.46,1-.6,1.58-.72.67-.33,1.74-.35,2.47-.5.85-.17,1.7-.36,2.55-.51,1.44-.25,2.88-.48,4.32-.68,3.12-.45,6.26-.81,9.4-1.09,5.88-.53,11.78-.79,17.68-.79,11.36,0,20.98,1.02,27.84,2.95.55.16,1.92.73,3.13,1.24,2.87,1.21,3.73,1.54,4.34,1.54h.11c.58-.04,1.17-.32,6.7-3.44,2.37-1.34,5.05-2.85,5.93-3.22,12.19-5.25,27.42-7.77,35.41-8.81l1.4-.18c4.93-.64,12.37-1.62,16.88-1.62h.31c1.74.02,1.92.05,2.39,1.15,3.98,13.51,8.48,27.1,12.84,40.25,4.15,12.53,8.21,25.08,12.09,37.69.53,1.72,1.06,3.45,1.59,5.17.19.6.36,1.29.04,1.84-.38.64-1.26.75-2,.67s-1.5-.31-2.21-.07c-2.56.85.36,5.27.93,6.54.25.55.49,1.24.13,1.73-.29.39-.83.47-1.31.52-9.4.94-18.76,1.93-28.12,3.21-7.92,1.08-15.84,2.25-23.71,3.63-.66.12-1.32.23-1.99.36-.5.09-1.07.29-1.67.49-.8.28-1.8.62-2.47.62-.34,0-.36-.05-.41-.17-.18-.46-.08-.64-.04-.71.58-1.03,3.77-1.61,5.3-1.88.47-.08.89-.16,1.24-.24,6.95-1.52,14.06-2.4,21.1-3.31,8.48-1.1,16.98-2.05,25.48-2.93l3.74-.39c.5-.05,1.08-.16,1.31-.61.27-.54-.16-1.15-.58-1.58-1.43-1.46-.72-4.44-3.34-4.88l-.21-.04c-4.62.6-9.24,1.2-13.86,1.8-3.91.51-7.82,1.02-11.73,1.53-4.5.59-9.02.99-13.49,1.85-2.91.55-5.8,1.24-8.65,2.05-2.4.68-4.98,1.66-7.52,1.66-.15,0-.23,0-.27-.02-.04-.03-.09-.08-.08-.27,0-.37.23-.78.5-.97.05-.04.12-.06.18-.08,9.77-2.94,20.01-4.48,30.08-5.96,9.93-1.46,19.87-2.56,29.86-3.5.56-.05,1.16-.13,1.56-.52.43-.42.49-1.1.32-1.67-.27-.9-.78-1.68-1.06-2.6-.13-.44-.29-.88-.43-1.31l-1.02-3.14c-.87-2.66-1.73-5.33-2.6-7.99-2.21-6.79-4.42-13.58-6.63-20.37-2.33-7.16-4.67-14.33-7-21.49-1.84-5.65-3.68-11.29-5.51-16.94-.73-2.23-1.45-4.47-2.18-6.7-.11-.33-.42-.54-.76-.52l-.51.03c-30.12,1.73-44.38,6.52-53.45,10.49-1.71.75-3.39,1.6-5.05,2.45-1.91.98-5.99,2.45-6.17,4.97-.05.73.13,1.46.31,2.18,0,1.44.81,3.24,1.16,4.64.4,1.61.81,3.22,1.21,4.83.73,2.91,1.25,5.82,2.01,8.74.85,3.27,1.71,6.54,2.56,9.81,1.71,6.54,3.42,13.07,5.13,19.61,2.75,10.52,5.5,21.05,8.25,31.57.14.54.26,1.18-.12,1.59-.41.45-1.2.31-1.62-.12s-.58-1.06-.73-1.65c-6.17-25.79-12.33-51.57-18.5-77.36-.35-1.48-.72-2.99-1.56-4.25-.8-1.21-1.83-1.78-3.17-2.15s-2.68-.93-4.04-1.34c-3.2-.96-6.48-1.62-9.79-2.08-4.81-.66-10.02-1-15.47-1-12.81,0-25.59,1.78-37.5,3.71l-.65.11c-.41.07-.69.45-.63.86l.1.65c1.89,12.34,3.9,24.66,5.97,36.97,2.15,12.73,4.36,25.45,6.6,38.17.37,2.11.98,4.3,1.16,6.43.15,1.72.22,3.54,2.26,4.12.87.25,1.79.11,2.68-.02,5.36-.81,10.7-1.74,16.11-2.14.82-.06,4.21-.38,8.89-.82,11.29-1.07,30.18-2.85,32.91-2.85.05,0,.09,0,.12,0,.94.06,1.52.56,1.62.9.02.06.06.19-.15.41-2.48.68-5.25.73-7.79.97-13.07,1.27-26.22,1.93-39.3,3.37-2.89.32-5.78.85-8.68,1.22-1.93.25-3.87.5-5.8.75-.78.1-1.61.2-2.33-.12-.86-.38-1.39-1.3-1.55-2.22-.21-1.18.02-2.29-.27-3.47-.16-.66-.25-1.34-.37-2.02-.23-1.33-.46-2.67-.69-4-.56-3.25-1.12-6.51-1.68-9.76-1.33-7.74-2.67-15.48-4-23.22-1.25-7.27-2.51-14.54-3.76-21.82-.74-4.27-1.47-8.55-2.21-12.82-.06-.32-.11-.64-.17-.96-.07-.38-.4-.65-.78-.63l-4.72.23c-.45.02-.79.44-.71.88l14.63,85.87c.06.37.39.64.77.63l.58-.02c5.47-.18,17.04-1.36,29.29-2.61,14.9-1.52,31.79-3.24,38.87-3.24h.53c.23,0,.53,0,.88,0,.42,0,.91-.01,1.37-.01.51,0,1.73-.19,1.83.57.05.34-.2.67-.5.84s-.66.19-1.01.22c-13.39,1.11-26.78,2.23-40.16,3.34-9.59.8-19.18,1.72-28.79,2.31-1.18.07-2.37.14-3.55.19-.38.02-.71-.25-.78-.63l-15.36-88.65Z"/>
                <path class="st14" d="M275.97,202.14c-.06,0-.09,0-.09,0-.04,0-.06-.02-.08-.03-.01-.06-.01-.2.03-.39,1.81-1.02,10.97-4.55,12.68-5.09,7.04-2.22,15.87-3.89,22.5-4.27.76-.04,2.75-.11,4.77-.11,3.22,0,4.73.15,5.41.26-.03.13-.08.26-.14.34-13.9.25-24.95,1.93-34.78,5.28-.82.28-1.99.81-3.36,1.43-2.26,1.03-5.67,2.58-6.96,2.58Z"/>
                <path class="st14" d="M273.11,188.27c-.1,0-.16-.01-.19-.02-.01-.03-.03-.08-.05-.18-.07-.37.63-.73,1.95-1.26.34-.14.69-.28,1.02-.44,9.79-4.66,22.82-7.06,31.74-7.74.56-.04,1.24-.11,1.98-.17,2.01-.18,4.5-.41,6.36-.41.61,0,1.11.02,1.49.07.5.06.7.26.71.36.01.1-.09.29-.39.44-.26,0-.53,0-.79,0-12.74,0-25.12,2.26-37.84,6.9-.48.17-1.08.48-1.78.83-1.26.64-3.17,1.61-4.21,1.61Z"/>
                <path class="st14" d="M237.03,154.68c-.97,0-2.78-.53-4.11-.92-.96-.28-1.72-.51-2.28-.59-3.62-.54-7.61-.8-12.22-.8-3.8,0-7.92.18-12.97.55-.91.07-2.46.3-4.25.56-2.88.42-6.46.95-8.41.95-.64,0-.84-.06-.85-.06-.13-.05-.18-.21-.19-.3-.02-.1,0-.24.06-.36,2.15-.55,15.54-1.77,18.03-1.89,1.9-.1,4.86-.21,8.19-.21,8.45,0,14.74.73,18.21,2.1.51.2.84.55.9.77,0,.02.02.08-.04.2-.03,0-.05,0-.09,0Z"/>
                <path class="st14" d="M242.35,177.34c-.52-.03-2.09-.48-3.14-.79-1.19-.35-2.22-.65-2.91-.75-4.03-.58-8.55-.88-13.42-.88-3.1,0-6.41.12-9.82.36-2.05.14-4.35.51-6.57.87-2.83.45-5.76.92-8.16.92-.15,0-.3,0-.44,0-.48-.01-.67-.13-.7-.17,0-.01-.02-.12.06-.28.1-.2.27-.37.49-.46,2.45-.22,4.93-.48,7.34-.74,6.23-.66,12.66-1.34,19-1.34,1.14,0,2.27.02,3.35.07,3.71.15,11.98.96,14.33,2.17.61.31.75.86.68.98h0s-.03.02-.08.04Z"/>
                <path class="st14" d="M239.82,165.66c-1.06-.05-3.3-.65-4.95-1.09-1.22-.32-2.18-.58-2.79-.67-3.05-.46-6.31-.69-9.99-.69-7.62,0-15.37.97-22.86,1.9-1.39.17-2.76.34-4.1.51-.47-.14-.65-.32-.67-.37.02-.09.39-.6,1.43-.81,5.52-1.1,15.04-1.84,23.7-1.84s15.38.72,19.01,2.02c.61.22,1.07.72,1.23,1.04Z"/>
                <path class="st14" d="M270.4,175.99c-.11,0-.16-.01-.16-.01-.03-.02-.05-.03-.07-.05.29-.33,1.14-1,3.66-2.1l.24-.11c9.75-4.31,24.31-7.32,35.41-7.32.34,0,.67,0,1.01,0,.12,0,.26,0,.42,0,1.81,0,2.57.16,2.88.32-1.12.52-5.08.55-6.63.57-1.05,0-1.88.02-2.43.07-10.78,1.07-18.53,2.8-28.59,6.39-.55.2-1.21.51-1.9.83-1.24.58-2.94,1.38-3.83,1.38Z"/>
                <path class="st14" d="M264.32,152.17c-.06-.02-.12-.05-.15-.09-.06-.09-.1-.31-.05-.63,10.79-4.71,21.37-7.49,32.32-8.5,1.94-.18,6.34-.52,9.06-.52,1.11,0,1.6.06,1.79.09.04.05.09.14.11.26,0,.02,0,.05.01.07-1.69.33-7.13.69-10.18.89-2.27.15-4.06.27-4.84.37-9.01,1.15-17.94,3.71-28.08,8.06Z"/>
                <path class="st14" d="M267.29,163.62c-.27-.08-.48-.16-.62-.23.42-.36,1.4-1.03,3.73-2.04,10.08-4.38,24.59-7.32,36.09-7.32h.43c.24,0,.5,0,.76-.01.25,0,.51-.01.76-.01.88,0,1.22.1,1.34.15,0,.08,0,.23-.08.49,0,.02,0,.04-.02.06-1.55.33-4.05.34-6.47.36-1.92.01-3.91.03-5.49.2-10.45,1.15-20.69,3.96-30.45,8.35Z"/>
                <path class="st14" d="M201.6,189.54c-.88,0-1.36-.27-1.51-.43.13-.14.51-.4,1.32-.58,4.54-1.03,31.15-2.72,36.81-2.72h.13c1.73.01,2.95.09,3.63.24-.11.11-.25.24-.43.4l-39.61,3.09c-.11,0-.23.01-.33.01Z"/>
                <path class="st14" d="M204.26,200.77c-.27,0-.53,0-.76-.02-.65-.04-.9-.23-.93-.28,0-.07.17-.4.71-.68,3.39-.15,10.75-.79,17.87-1.4,6.42-.56,12.49-1.08,15.25-1.22.47-.02,1.05-.06,1.68-.1,1.4-.09,3.14-.2,4.46-.2.56,0,1,.02,1.3.06.5.06.7.26.71.36.01.1-.09.29-.4.45-3.94.07-21.84.94-25.14,1.22-1.68.15-3.75.47-5.94.81-3.2.5-6.51,1.01-8.82,1.01Z"/>
                <path class="st14" d="M205.26,212.37c-.45,0-.78,0-1.01-.02.03-.17.09-.33.16-.39,1.08-.77,6.29-.95,9.75-1.07,3.45-.12,6.71-.24,8.6-.74.16.04.27.14.33.31.03.08.07.26-.04.42-1.81.46-12.68,1.5-17.79,1.5Z"/>
              </g>
            </g>
          </g>
          <path class="st9" d="M85.78,196.98l-3.21,175.3c-.05,2.91,1.97,5.45,4.82,6.03l164.76,34.05c.77.16,1.5-.43,1.51-1.21l2.2-191.72c.03-3.04-2.19-5.64-5.2-6.06l-158-22.27c-3.6-.51-6.83,2.25-6.89,5.88Z"/>
          <path class="st2" d="M258.14,211.32l82.52-40.76c4.05-2,8.78.98,8.73,5.5l-2.12,177.36c-.02,2.08-1.12,4.01-2.9,5.09l-87.19,53.17c-1.54.94-3.51-.18-3.5-1.98l1.1-192.98c.01-2.29,1.32-4.38,3.37-5.39Z"/>
          <path class="st3" d="M256.14,218.8l26.83,35.78c1.75,2.34,4.93,3.09,7.55,1.78l79.67-38.32c3.05-1.52,4.24-5.26,2.63-8.26l-20.55-38.42c-1.54-2.88-5.09-4.02-8.01-2.57l-85.96,40.97c-3.39,1.68-4.43,6.02-2.16,9.05Z"/>
          <path class="st19" d="M53.14,161.97c.62-.15,1.18-.07,1.68.24.5.31.83.78.98,1.43l3.62,15.12c.15.62.07,1.19-.23,1.7-.31.52-.77.85-1.39.99-.62.15-1.18.06-1.69-.26-.5-.32-.83-.79-.98-1.41l-.42-1.75.86.13c.07.31,0,.72-.23,1.25-.23.52-.58,1.06-1.05,1.63-.47.57-1.06,1.09-1.76,1.57-.7.48-1.51.83-2.41,1.05-1.64.39-3.23.33-4.77-.2s-2.87-1.44-4-2.74-1.93-2.92-2.39-4.85c-.47-1.95-.49-3.77-.08-5.44.42-1.67,1.18-3.09,2.29-4.25,1.11-1.16,2.46-1.93,4.06-2.31,1.02-.25,2-.32,2.94-.21.93.1,1.77.32,2.52.64.75.33,1.35.69,1.81,1.1.46.41.73.78.81,1.11l-1.18.77-.62-2.61c-.15-.62-.07-1.19.23-1.7.3-.51.77-.84,1.39-.99ZM49.73,179.61c1.05-.25,1.9-.73,2.56-1.45.66-.71,1.1-1.57,1.33-2.59.22-1.01.2-2.08-.07-3.2-.27-1.14-.74-2.11-1.4-2.92-.66-.8-1.44-1.37-2.36-1.7-.91-.33-1.89-.38-2.94-.13-1.02.25-1.87.73-2.53,1.44-.66.71-1.1,1.57-1.33,2.59-.22,1.01-.2,2.09.08,3.23.27,1.12.73,2.08,1.39,2.88.66.8,1.44,1.37,2.36,1.7.91.34,1.88.38,2.9.14Z"/>
          <path class="st19" d="M75.84,176.32c-2.08-.13-3.85-.68-5.33-1.65-1.47-.97-2.57-2.22-3.29-3.76-.72-1.54-1.03-3.26-.91-5.14.14-2.2.71-4.05,1.7-5.54.99-1.5,2.24-2.61,3.73-3.35s3.05-1.06,4.67-.95c1.25.08,2.41.41,3.49,1,1.08.58,2.02,1.35,2.82,2.3.8.95,1.41,2.02,1.84,3.23.43,1.21.6,2.47.51,3.79-.06.59-.32,1.05-.79,1.39-.46.34-.99.49-1.58.45l-14.01-.9-.87-3.74,13.46.86-.85.68.06-.99c0-.71-.21-1.36-.63-1.96-.42-.59-.95-1.07-1.6-1.45-.65-.37-1.36-.58-2.11-.63-.73-.05-1.43,0-2.07.16-.65.16-1.22.45-1.71.88-.5.44-.9,1.04-1.22,1.8-.32.77-.52,1.75-.59,2.95-.08,1.32.12,2.46.61,3.41.49.95,1.16,1.69,1.99,2.23.84.53,1.75.83,2.72.89.9.06,1.63.03,2.18-.08.55-.11.99-.26,1.33-.45.34-.19.66-.34.93-.47.46-.19.88-.28,1.27-.25.54.03.97.25,1.3.64s.48.83.45,1.32c-.04.66-.42,1.24-1.14,1.73-.67.5-1.59.91-2.77,1.24-1.18.33-2.38.46-3.6.38Z"/>
          <path class="st19" d="M99.39,163.95c-.83.03-1.42-.09-1.78-.35-.35-.26-.54-.73-.56-1.42l-.02-.7c-.02-.71.15-1.2.53-1.47.37-.27.95-.41,1.73-.44.86-.03,1.46.09,1.81.35.35.26.54.73.56,1.42l.02.7c.02.71-.15,1.2-.51,1.47-.36.27-.96.41-1.79.44ZM102.24,183.68c.02.64-.17,1.18-.58,1.62-.4.44-.92.67-1.56.69s-1.17-.18-1.6-.6c-.43-.42-.65-.94-.67-1.58l-.46-15.17c-.02-.64.17-1.18.58-1.62.4-.44.92-.67,1.56-.69s1.17.18,1.6.6c.43.42.65.94.67,1.58l.46,15.17Z"/>
          <g>
            <circle class="st13" cx="274.74" cy="123.73" r="2.55"/>
            <g id="degvMV">
              <g>
                <path class="st14" d="M309.73,71.4c5.39.55,8.91,6.21,6.85,11.29,2.66,2.21,4.25,5.49,3.54,9-.49,2.42-2.23,4.24-4.63,4.84.13,2.37-.8,4.46-2.57,6.01-4.03,3.52-11.42,3.49-16.41,2.7-.76-.12-1.51-.3-2.26-.47-1.87,2.28-4.78,3.42-7.67,3.7-4.81.47-11.73-1.76-13.94-6.41-.12-.26-.37-1.11-.48-1.23-.12-.13-.94-.4-1.18-.53-4.09-2.17-4.43-7.73-2.11-11.33-2.12-4.16-.19-9.65,4.18-11.36-.23-1.91.02-3.53,1.11-5.11,1.83-2.63,4.74-3.59,7.86-3.05.98.17,1.9.53,2.84.79,2.73-4.09,8.83-4.63,12.16-.96,3.92-3.46,10.23-2.46,12.72,2.15ZM295.53,72.13c-.17.15-.48.06-.5-.16-.04-.44.94-1.54,1.2-1.94.07-.1.1-.03,0-.15-.08-.1-.8-.5-.97-.6-3.35-1.8-7.01-1.34-9.76,1.27-.03.06,1.04.44,1.15.63.13.21.01.48-.23.5-.15.01-1.67-.56-2.01-.65-3.27-.86-6.44-.88-8.79,1.86-1.29,1.51-1.53,3.01-1.45,4.96.02.42.4,1.6-.27,1.66-.52.05-.52-.96-.66-.95-2.6,1.94-4.25,4.92-4.06,8.24.01.18.15,1.38.26,1.37.2-.27,1.17-1.26,1.43-1.33.2-.05.42.02.4.25-.03.28-.61.84-.81,1.13-.89,1.29-1.54,2.72-1.65,4.31-.29,3.96,1.38,6.57,5.23,7.59.42.11,1.56.04,1.2.78-.23.47-1.78.14-2.26.13,1.97,3.7,6.47,5.52,10.47,5.92,3.14.32,7.17-.23,9.63-2.36.05-.05.14,0,.09-.17-.41-.09-2.4-.4-1.45-.97,3.96.79,8.03,1.18,12.07.82,2.73-.25,6.32-1.15,8.42-2.98,1.43-1.26,2.44-3.31,2.12-5.24-.08-.49-.84-1.73-.03-1.76.52-.02.65.95.97,1.26,3.66-1.56,4.37-5.73,2.88-9.14-.37-.84-1.08-1.95-1.65-2.67-.2-.25-1.13-1.12-1.18-1.28-.17-.58.41-.36.43-.39.04-.05.15-1.14.15-1.3.04-1.41-.34-3.07-.96-4.34-1.24-2.53-4.17-4.26-6.94-4.46-.56-.53.45-.57.45-.67-1.01-1.05-2.37-1.91-3.76-2.35-3.24-1.02-6.39.14-8.65,2.53-.15.16-.36.53-.51.65Z"/>
                <path class="st14" d="M283.41,119.41s.13.3.04.52c-.25.56-1.4-.11-1.81-.2-.49-.11-2.01-.14-2.33-.5-.27-.3,0-.74.37-.75-2.15-1.96-1.94-5.68.57-7.25,1.69-1.06,3.38-.67,4.99.27,3.1,1.8,1.93,6.46-1.05,7.69-.15.06-.76.19-.78.22ZM282.5,111.68c-2.84.35-3.7,4.01-1.88,6.01.16.17.83.74,1.04.75.27.02,1.19-.26,1.49-.37,3.71-1.3,3.49-6.9-.65-6.39Z"/>
                <path class="st14" d="M274.3,120.47c.84-.09,2.03.4,2.69.92,3.33,2.61-1,6.86-4.01,4.76-2.31-1.61-1.44-5.38,1.32-5.68ZM274.67,121.51c-.86.07-1.68,1.34-1.62,2.18.09,1.07,1.47,2.25,2.48,1.75.79-.39,1.49-1.62,1.08-2.47-.22-.46-1.46-1.49-1.94-1.45Z"/>
              </g>
            </g>
            <path class="st13" d="M282.5,111.68c-2.84.35-3.7,4.01-1.88,6.01.16.17.83.74,1.04.75.27.02,1.19-.26,1.49-.37,3.71-1.3,3.49-6.9-.65-6.39Z"/>
          </g>
          <path class="st4" d="M337.31,94.15h-35.54c-1.85,0-3.36,1.51-3.36,3.36v28.68c0,1.85,1.51,3.36,3.36,3.36h18.24c.41,0,.8.2,1.04.54l8.85,12.77c1.22,1.36,3.47.49,3.47-1.33l-2.26-10.5c-.14-.78.46-1.49,1.25-1.49h4.96c1.85,0,3.36-1.51,3.36-3.36v-28.68c0-1.85-1.51-3.36-3.36-3.36Z"/>
        </g>
      </g>
      <g>
        <path class="st0" d="M215.52,270.23c-.05-.09-.1-.18-.15-.27-9.24-17.49-26.4-31.23-46.02-34.78-.05,0-.1-.02-.14-.03s-.09-.02-.14-.02c-19.62-3.44-36.78,4.18-46.02,18.38-.05.07-.1.15-.15.22-4.51,7.03-7.09,15.64-7.09,25.31s2.58,19.2,7.09,27.83c.05.09.1.18.15.27,9.24,17.49,26.4,31.23,46.02,34.78.05,0,.09.02.14.03s.09.02.14.02c19.62,3.44,36.78-4.18,46.02-18.38.05-.07.1-.15.15-.22,4.51-7.03,7.09-15.64,7.09-25.31s-2.58-19.2-7.09-27.83ZM212.07,320.76c-.05.07-.1.15-.15.22-8.55,13.13-24.42,20.18-42.56,17-.05,0-.1-.02-.14-.02s-.09-.02-.14-.03c-18.14-3.28-34.01-15.99-42.56-32.16-.05-.09-.1-.18-.15-.27-4.17-7.98-6.56-16.8-6.56-25.74s2.39-16.91,6.56-23.41c.05-.07.1-.15.15-.22,8.55-13.13,24.42-20.18,42.56-17,.05,0,.09.02.14.02s.09.02.14.03c18.14,3.28,34.01,15.99,42.56,32.16.05.09.1.18.15.27,4.17,7.98,6.56,16.8,6.56,25.74s-2.39,16.91-6.56,23.4Z"/>
        <g>
          <path class="st19" d="M146.18,276.03l-2.21-2.52c-.54-.62-.08-1.59.74-1.56l2.65.11c.36.01.7-.18.87-.5l1.21-2.29c.37-.69,1.37-.66,1.69.06l1.43,3.22c.11.25.32.43.57.51l3.33,1.05c.72.23.89,1.17.3,1.64l-2.11,1.65c-.27.21-.41.56-.35.9l.48,2.76c.14.83-.79,1.41-1.47.93l-2.58-1.84c-.25-.18-.57-.22-.86-.12l-2.84,1.01c-.68.24-1.37-.34-1.24-1.06l.59-3.17c.05-.28-.03-.57-.22-.79Z"/>
          <path class="st18" d="M165.05,279.39l-2.21-2.52c-.54-.62-.08-1.59.74-1.56l2.65.11c.36.01.7-.18.87-.5l1.21-2.29c.37-.69,1.37-.66,1.69.06l1.43,3.22c.11.25.32.43.57.51l3.33,1.05c.72.23.89,1.17.3,1.64l-2.11,1.65c-.27.21-.41.56-.35.9l.48,2.76c.14.83-.79,1.41-1.47.93l-2.58-1.84c-.25-.18-.57-.22-.86-.12l-2.84,1.01c-.68.24-1.37-.34-1.24-1.06l.59-3.17c.05-.28-.03-.57-.22-.79Z"/>
          <path class="st16" d="M183.92,282.75l-2.21-2.52c-.54-.62-.08-1.59.74-1.56l2.65.11c.36.01.7-.18.87-.5l1.21-2.29c.37-.69,1.37-.66,1.69.06l1.43,3.22c.11.25.32.43.57.51l3.33,1.05c.72.23.89,1.17.3,1.64l-2.11,1.65c-.27.21-.41.56-.35.9l.48,2.76c.14.83-.79,1.41-1.47.93l-2.58-1.84c-.25-.18-.57-.22-.86-.12l-2.84,1.01c-.68.24-1.37-.34-1.24-1.06l.59-3.17c.05-.28-.03-.57-.22-.79Z"/>
          <path class="st12" d="M146.18,295.96l-2.21-2.52c-.54-.62-.08-1.59.74-1.56l2.65.11c.36.01.7-.18.87-.5l1.21-2.29c.37-.69,1.37-.66,1.69.06l1.43,3.22c.11.25.32.43.57.51l3.33,1.05c.72.23.89,1.17.3,1.64l-2.11,1.65c-.27.21-.41.56-.35.9l.48,2.76c.14.83-.79,1.41-1.47.93l-2.58-1.84c-.25-.18-.57-.22-.86-.12l-2.84,1.01c-.68.24-1.37-.34-1.24-1.06l.59-3.17c.05-.28-.03-.57-.22-.79Z"/>
          <path class="st13" d="M165.05,299.32l-2.21-2.52c-.54-.62-.08-1.59.74-1.56l2.65.11c.36.01.7-.18.87-.5l1.21-2.29c.37-.69,1.37-.66,1.69.06l1.43,3.22c.11.25.32.43.57.51l3.33,1.05c.72.23.89,1.17.3,1.64l-2.11,1.65c-.27.21-.41.56-.35.9l.48,2.76c.14.83-.79,1.41-1.47.93l-2.58-1.84c-.25-.18-.57-.22-.86-.12l-2.84,1.01c-.68.24-1.37-.34-1.24-1.06l.59-3.17c.05-.28-.03-.57-.22-.79Z"/>
          <path class="st1" d="M183.92,302.68l-2.21-2.52c-.54-.62-.08-1.59.74-1.56l2.65.11c.36.01.7-.18.87-.5l1.21-2.29c.37-.69,1.37-.66,1.69.06l1.43,3.22c.11.25.32.43.57.51l3.33,1.05c.72.23.89,1.17.3,1.64l-2.11,1.65c-.27.21-.41.56-.35.9l.48,2.76c.14.83-.79,1.41-1.47.93l-2.58-1.84c-.25-.18-.57-.22-.86-.12l-2.84,1.01c-.68.24-1.37-.34-1.24-1.06l.59-3.17c.05-.28-.03-.57-.22-.79Z"/>
        </g>
        <g>
          <path class="st0" d="M133.16,352.15c.17.03.31.11.43.24.11.13.17.28.17.45s-.06.29-.17.38c-.12.09-.26.12-.43.08l-3.19-.57c-.17-.03-.31-.11-.43-.25s-.17-.29-.17-.46v-5.67c0-.17.06-.3.18-.4.12-.09.27-.12.45-.09.16.03.3.11.42.25.12.14.18.29.18.46v5.29l-.22-.21,2.78.49Z"/>
          <path class="st0" d="M135.48,346.84l3.28.59c.17.03.31.11.43.24.11.13.17.28.17.45s-.06.29-.17.37c-.11.08-.26.11-.43.08l-2.75-.49.09-.15v1.91l-.08-.09,2.29.41c.17.03.31.11.43.24.11.13.17.28.17.45s-.06.29-.17.37c-.11.08-.26.11-.43.08l-2.26-.4.05-.07v1.98l-.08-.1,2.74.49c.17.03.31.11.43.25.11.14.17.28.17.43,0,.16-.06.29-.17.37s-.26.11-.43.08l-3.28-.59c-.17-.03-.31-.11-.43-.25-.12-.13-.17-.29-.17-.46v-5.67c0-.17.06-.3.17-.4.11-.09.26-.13.43-.1Z"/>
          <path class="st0" d="M143.01,349.72l-2.12,4.6c-.05.12-.12.2-.21.25s-.2.07-.31.05c-.18-.03-.31-.1-.39-.22s-.13-.24-.13-.39c0-.06,0-.12.03-.18l2.44-5.43c.05-.12.13-.21.24-.26.11-.05.22-.06.35-.03.12.02.23.07.33.16.1.09.17.2.22.33l2.41,6.17c.03.09.05.17.05.24,0,.18-.06.31-.17.39-.12.08-.24.11-.38.09-.12-.02-.22-.08-.32-.16-.1-.09-.17-.2-.22-.33l-2.11-5.29h.28ZM141.19,353.19l.54-1.03,2.65.47.19,1.16-3.37-.6Z"/>
          <path class="st0" d="M147.46,355.84c-.18-.03-.35-.12-.49-.26-.14-.14-.21-.29-.21-.46v-5.67c0-.17.06-.3.17-.4.11-.09.26-.13.43-.1l2.82.5c.34.06.66.21.96.44.3.23.54.52.72.87.18.35.27.73.27,1.14,0,.25-.05.48-.15.7s-.24.41-.41.56c-.17.16-.37.27-.58.34v-.22c.19.13.34.27.47.43.12.16.22.32.28.48s.11.34.12.52c.03.17.04.31.05.44.01.13.03.23.06.32.03.09.09.17.17.23.14.11.23.25.27.42.04.17,0,.3-.11.41-.07.07-.16.11-.27.11-.11,0-.22-.02-.33-.06s-.2-.09-.27-.14c-.11-.08-.22-.2-.33-.35-.11-.15-.2-.33-.27-.56s-.1-.51-.1-.85c0-.11-.02-.22-.06-.32-.04-.1-.1-.19-.17-.28-.07-.08-.16-.15-.27-.21-.11-.06-.24-.1-.39-.12l-1.98-.35.15-.2v2.13c0,.17-.05.3-.14.4s-.22.13-.38.1ZM147.84,352.4l2.28.41c.12.02.23-.01.34-.1s.2-.22.27-.39c.07-.17.11-.37.11-.59,0-.29-.08-.54-.23-.76-.15-.22-.32-.35-.5-.38l-2.26-.4.12-.29v2.77l-.14-.26Z"/>
          <path class="st0" d="M158.7,350.98c.16.03.28.1.38.22.1.12.15.26.15.42v5.72c0,.17-.06.3-.17.4s-.26.13-.43.1c-.08-.02-.17-.04-.26-.09-.09-.04-.16-.1-.2-.16l-3.85-5.58.25-.11v4.67c0,.16-.05.28-.15.37-.1.09-.23.12-.4.09-.16-.03-.28-.1-.38-.22-.1-.12-.15-.26-.15-.42v-5.72c0-.17.06-.3.17-.4.11-.09.26-.13.43-.1.09.02.19.05.28.1s.17.12.22.2l3.74,5.43-.17.09v-4.55c0-.16.05-.28.15-.37.1-.09.23-.12.39-.09Z"/>
          <path class="st0" d="M161.92,357.82c0,.17-.06.3-.19.39-.12.09-.27.12-.43.09-.18-.03-.33-.12-.44-.25-.11-.13-.17-.29-.17-.46v-5.67c0-.17.06-.3.18-.4.12-.09.27-.12.45-.09.16.03.3.11.42.25s.18.29.18.46v5.67Z"/>
          <path class="st0" d="M168.6,352.74c.16.03.28.1.38.22.1.12.15.26.15.42v5.72c0,.17-.06.3-.17.4-.11.09-.26.12-.43.09-.08-.01-.17-.04-.26-.09-.09-.05-.16-.1-.2-.16l-3.85-5.58.25-.11v4.67c0,.16-.05.28-.15.37-.1.09-.23.11-.4.09-.16-.03-.28-.1-.38-.23-.1-.12-.15-.26-.15-.42v-5.72c0-.17.06-.3.17-.4.11-.09.26-.13.43-.1.09.02.19.05.28.1.1.05.17.12.22.2l3.74,5.43-.17.09v-4.55c0-.16.05-.28.15-.37s.23-.12.39-.09Z"/>
          <path class="st0" d="M173.83,360.64c-.5-.09-.96-.26-1.39-.52-.43-.26-.81-.58-1.14-.96-.33-.38-.58-.8-.77-1.26-.19-.46-.28-.93-.28-1.42s.09-.93.28-1.32c.19-.39.44-.72.77-.99.33-.27.71-.45,1.14-.56.43-.11.9-.12,1.39-.03.31.05.6.14.89.26.29.12.55.26.79.44.1.07.17.15.22.25.05.1.07.19.07.28,0,.16-.05.29-.16.39-.1.11-.24.14-.4.12-.05,0-.11-.03-.16-.05-.06-.02-.11-.05-.16-.09-.16-.1-.34-.19-.52-.26-.18-.07-.38-.13-.58-.16-.42-.08-.81-.04-1.16.11s-.63.38-.83.7-.31.7-.31,1.13.1.84.31,1.23.48.73.83,1.01c.35.28.74.45,1.16.53.2.04.41.05.65.06.24,0,.43-.02.58-.05l-.09.28v-1.68l.17.18-1.09-.19c-.17-.03-.31-.11-.43-.24-.11-.13-.17-.28-.17-.45s.06-.3.17-.39.26-.12.43-.09l1.61.29c.17.03.31.11.42.25.11.13.17.29.17.46v2.08c0,.13-.03.23-.09.31-.06.07-.13.13-.21.17-.3.13-.63.22-.99.26-.36.04-.73.03-1.12-.04Z"/>
          <path class="st0" d="M182.37,362.16c-.46-.08-.87-.21-1.24-.39-.37-.18-.72-.44-1.05-.79-.08-.09-.15-.18-.2-.28-.05-.1-.07-.2-.07-.29,0-.15.05-.27.16-.37.11-.1.24-.13.41-.1.12.02.24.08.33.18.25.25.5.44.74.59s.55.25.91.32c.24.04.46.05.67,0,.2-.04.37-.11.49-.22.12-.1.19-.24.19-.4,0-.2-.06-.37-.18-.53-.12-.16-.3-.31-.54-.44-.24-.14-.55-.27-.92-.38-.35-.12-.66-.25-.93-.41-.27-.16-.49-.33-.67-.53-.18-.2-.32-.42-.41-.66-.09-.24-.14-.5-.14-.78,0-.42.11-.77.33-1.03.22-.26.51-.44.89-.53.37-.09.78-.1,1.24-.02.42.08.82.21,1.18.4.36.19.66.41.89.64.19.18.29.38.29.57,0,.14-.06.26-.17.36-.11.1-.24.13-.39.11-.1-.02-.19-.06-.26-.14-.1-.11-.25-.22-.42-.33-.18-.11-.36-.21-.56-.31-.2-.09-.38-.15-.55-.18-.28-.05-.52-.06-.71-.02-.19.04-.34.11-.44.22-.1.11-.15.24-.15.41,0,.2.06.37.17.52.11.15.28.28.5.39.21.11.47.23.77.34.39.14.74.29,1.03.44.3.15.54.32.74.51.2.19.34.41.44.66.1.25.15.54.15.87,0,.43-.12.77-.35,1.04-.24.27-.54.45-.93.54-.38.1-.8.1-1.24.02Z"/>
          <path class="st0" d="M186.18,357c-.17-.03-.31-.11-.43-.23s-.17-.27-.17-.44.06-.3.17-.38c.11-.08.26-.11.43-.08l4.35.78c.17.03.31.11.43.23.11.12.17.27.17.44s-.06.3-.17.38c-.11.08-.26.11-.43.08l-4.35-.78ZM188.34,363.12c-.18-.03-.33-.12-.45-.25-.12-.14-.18-.29-.18-.46v-5.69l1.27.23v5.69c0,.17-.06.3-.18.39s-.28.12-.47.09Z"/>
          <path class="st0" d="M194.19,358.84l-2.12,4.6c-.04.12-.12.2-.21.25s-.2.07-.31.05c-.18-.03-.31-.1-.39-.22-.08-.11-.13-.24-.13-.38,0-.06,0-.12.03-.18l2.44-5.43c.05-.12.13-.21.24-.26.11-.05.22-.06.35-.03.12.02.23.07.33.16.1.09.17.2.22.33l2.41,6.18c.03.09.05.17.05.24,0,.18-.06.31-.17.39s-.24.11-.38.09c-.12-.02-.22-.08-.32-.16-.09-.09-.17-.2-.22-.33l-2.11-5.29h.28ZM192.37,362.3l.54-1.03,2.65.47.19,1.16-3.37-.6Z"/>
          <path class="st0" d="M198.64,364.96c-.18-.03-.35-.12-.49-.26s-.22-.3-.22-.47v-5.67c0-.17.06-.3.17-.4s.26-.13.43-.1l2.82.5c.34.06.66.21.96.44.3.23.54.52.72.87.18.35.27.73.27,1.14,0,.25-.05.48-.15.7-.1.22-.24.41-.41.56-.17.16-.37.27-.58.34v-.22c.19.13.34.27.47.43.12.16.22.32.28.48s.11.34.12.52c.03.17.04.32.05.44s.03.23.06.32.09.17.17.23c.14.11.23.25.27.42.04.17,0,.3-.11.41-.07.07-.16.11-.27.11-.11,0-.22-.02-.33-.06-.11-.04-.2-.09-.27-.14-.11-.08-.22-.2-.33-.35-.11-.15-.2-.33-.27-.56-.07-.23-.1-.51-.1-.85,0-.11-.02-.22-.06-.32-.04-.1-.09-.19-.17-.27-.07-.08-.16-.15-.27-.21-.11-.05-.24-.1-.39-.12l-1.98-.35.15-.2v2.13c0,.17-.05.3-.14.4-.09.1-.22.13-.38.1ZM199.02,361.52l2.28.41c.12.02.23-.01.34-.1.11-.09.2-.22.27-.39.07-.17.11-.37.11-.59,0-.29-.08-.54-.23-.76-.15-.22-.32-.35-.5-.38l-2.27-.4.12-.29v2.77l-.14-.26Z"/>
          <path class="st0" d="M206.87,366.52c-.46-.08-.87-.21-1.24-.39s-.72-.44-1.05-.79c-.08-.09-.15-.18-.2-.28s-.07-.2-.07-.29c0-.15.05-.27.16-.37.11-.09.24-.13.41-.1.12.02.24.08.33.18.25.25.5.44.74.59s.55.25.91.32c.24.04.46.04.67,0,.2-.04.37-.11.49-.22s.19-.24.19-.4c0-.2-.06-.37-.18-.53-.12-.16-.3-.31-.54-.44-.24-.14-.55-.27-.92-.38-.35-.12-.66-.25-.93-.41-.27-.16-.49-.33-.67-.53s-.32-.42-.41-.66c-.09-.24-.14-.5-.14-.78,0-.42.11-.77.33-1.03.22-.26.51-.44.89-.53.37-.09.78-.09,1.24-.01.42.08.82.21,1.18.4.36.19.66.41.89.64.19.18.29.37.29.57,0,.14-.06.26-.17.36-.11.1-.24.13-.39.11-.1-.02-.19-.06-.26-.14-.1-.11-.25-.22-.42-.33-.18-.11-.36-.21-.56-.31-.2-.09-.38-.15-.55-.18-.28-.05-.52-.06-.71-.02-.19.04-.34.11-.44.22-.1.11-.15.24-.15.41,0,.2.06.37.17.52.11.15.28.28.5.39.21.11.47.23.77.34.39.14.74.29,1.03.44.3.15.54.32.74.51.2.19.34.41.44.66.1.25.15.54.15.88,0,.42-.12.77-.35,1.04-.24.26-.54.45-.93.54-.38.09-.8.1-1.24.02Z"/>
        </g>
      </g>
    </g>
  </g>
</svg>