<?xml version="1.0" encoding="UTF-8"?>
<svg id="Layer_1" xmlns="http://www.w3.org/2000/svg" version="1.1" viewBox="0 0 595.72 569.6">
  <!-- Generator: Adobe Illustrator 29.7.1, SVG Export Plug-In . SVG Version: 2.1.1 Build 8)  -->
  <defs>
    <style>
      .st0 {
        stroke: #dd2080;
        stroke-miterlimit: 10;
        stroke-width: 6px;
      }

      .st0, .st1 {
        fill: #ecaa19;
      }

      .st2 {
        fill: #dd2080;
      }
    </style>
  </defs>
  <path class="st0" d="M56.41,90.18c1.05-2.23,2.36-4.23,3.98-5.88,11.62-11.79,41.05-9.17,56.01-9.26,81.05-.49,162.11-1.19,243.16-1.97,47.41-.46,94.82-1.42,142.26-2.62,11-.28,23.12-.17,31.42,7.05,9.57,8.33,10.28,22.7,10.21,35.39-.23,41.26-1.08,82.52-2.55,123.75-1.39,39.05,2.69,85.52-6.57,123.52-7.84,32.16-52.12,21.89-77.27,21.66-40.99-.37-81.96-1.32-122.95-1.84-9.2-.12-100.42-5.44-102.16.37-14.49,48.24-48.26,90.4-92.18,115.07-6.39,3.59-15.76,6.24-19.98.24-4.15-5.92,1.23-13.64,5.91-19.15,22.4-26.32,34.49-61.18,33.21-95.72-25.04.27-50.07.53-75.11.8-7.1.08-14.78-.03-20.45-4.31-7.92-5.98-8.69-17.39-8.74-27.32-.43-74.22-1.15-148.42-2.17-222.66-.14-10.05-1.07-26.37,3.99-37.13Z"/>
  <g>
    <g>
      <path class="st2" d="M110.25,176.19c7.4,7.71,15.28,14.88,23.65,21.52,2.84,2.26,6.9-1.75,4.03-4.03-8.37-6.64-16.25-13.82-23.65-21.52-2.54-2.65-6.57,1.38-4.03,4.03h0Z"/>
      <path class="st2" d="M116.33,196.89c6.72-6.61,12.9-13.68,18.62-21.18,2.23-2.91-2.72-5.75-4.92-2.88-5.42,7.1-11.37,13.76-17.73,20.02-2.62,2.58,1.41,6.6,4.03,4.03h0Z"/>
    </g>
    <g>
      <path class="st2" d="M110.25,304.95c7.4,7.71,15.28,14.88,23.65,21.52,2.84,2.26,6.9-1.75,4.03-4.03-8.37-6.64-16.25-13.82-23.65-21.52-2.54-2.65-6.57,1.38-4.03,4.03h0Z"/>
      <path class="st2" d="M116.33,325.65c6.72-6.61,12.9-13.68,18.62-21.18,2.23-2.91-2.72-5.75-4.92-2.88-5.42,7.1-11.37,13.76-17.73,20.02-2.62,2.58,1.41,6.6,4.03,4.03h0Z"/>
    </g>
    <path class="st2" d="M109.25,146.09c2.61,3.78,5.81,6.64,10,8.57,1.41.65,3.05.4,3.9-1.02,4.31-7.25,9.39-13.81,15.33-19.8,2.59-2.61-1.44-6.64-4.03-4.03-6.27,6.32-11.68,13.3-16.22,20.95l3.9-1.02c-3.3-1.52-5.88-3.52-7.95-6.53s-7.01-.15-4.92,2.88h0Z"/>
    <path class="st2" d="M109.25,231.93c2.61,3.78,5.81,6.64,10,8.57,1.41.65,3.05.4,3.9-1.02,4.31-7.25,9.39-13.81,15.33-19.8,2.59-2.61-1.44-6.64-4.03-4.03-6.27,6.32-11.68,13.3-16.22,20.95l3.9-1.02c-3.3-1.52-5.88-3.52-7.95-6.53s-7.01-.15-4.92,2.88h0Z"/>
    <path class="st2" d="M109.25,274.85c2.61,3.78,5.81,6.64,10,8.57,1.41.65,3.05.4,3.9-1.02,4.31-7.25,9.39-13.81,15.33-19.8,2.59-2.61-1.44-6.64-4.03-4.03-6.27,6.32-11.68,13.3-16.22,20.95l3.9-1.02c-3.3-1.52-5.88-3.52-7.95-6.53s-7.01-.15-4.92,2.88h0Z"/>
    <path class="st2" d="M160.71,144.89c73.12-.09,146.25.34,219.36,1.32,20.61.28,41.21.6,61.81.96,5.15.09,5.15-7.91,0-8-73.11-1.28-146.23-2.03-219.35-2.24-20.61-.06-41.21-.07-61.82-.04-5.15,0-5.16,8.01,0,8h0Z"/>
    <path class="st2" d="M160.71,187.81c73.12-.09,146.25.34,219.36,1.32,20.61.28,41.21.6,61.81.96,5.15.09,5.15-7.91,0-8-73.11-1.28-146.23-2.03-219.35-2.24-20.61-.06-41.21-.07-61.82-.04-5.15,0-5.16,8.01,0,8h0Z"/>
    <path class="st2" d="M160.71,230.73c73.12-.09,146.25.34,219.36,1.32,20.61.28,41.21.6,61.81.96,5.15.09,5.15-7.91,0-8-73.11-1.28-146.23-2.03-219.35-2.24-20.61-.06-41.21-.07-61.82-.04-5.15,0-5.16,8.01,0,8h0Z"/>
    <path class="st2" d="M160.71,273.65c73.12-.09,146.25.34,219.36,1.32,20.61.28,41.21.6,61.81.96,5.15.09,5.15-7.91,0-8-73.11-1.28-146.23-2.03-219.35-2.24-20.61-.06-41.21-.07-61.82-.04-5.15,0-5.16,8.01,0,8h0Z"/>
    <path class="st2" d="M160.71,316.57c73.12-.09,146.25.34,219.36,1.32,20.61.28,41.21.6,61.81.96,5.15.09,5.15-7.91,0-8-73.11-1.28-146.23-2.03-219.35-2.24-20.61-.06-41.21-.07-61.82-.04-5.15,0-5.16,8.01,0,8h0Z"/>
    <g>
      <ellipse class="st1" cx="417.16" cy="250.98" rx="36.16" ry="37.59"/>
      <g id="_x37_sZiIZ">
        <g>
          <path class="st2" d="M412.18,208.73c11.87-.72,22.31,2.13,31.34,9.94,16.93,14.64,19.31,40.41,5.49,58.02l7.11,7.11c.62.11,2.39-2.81,3.11-2.44l22.9,22.96c6.24,9.17-4.34,19.11-13.13,11.74-4.81-4.04-9.71-9.9-14.18-14.44-2.28-2.32-4.85-4.48-7.11-6.85-.37-.39-.59-.94-1.03-1.29l2.78-2.56-7.21-7.22c-2.18,1.16-4.2,2.85-6.44,4.04-23.64,12.6-52.79-.21-60.12-25.67-7.09-24.65,10.61-51.76,36.49-53.34ZM414.27,218.27c-25.43,1.58-39.37,30.61-24.24,51.34,16.56,22.68,52.32,14.71,57.69-12.77,4.02-20.6-12.41-39.88-33.45-38.57Z"/>
          <path class="st2" d="M414.5,222.93c1.73-.11,4.08-.19,4.25,2.15.24,3.25-4.04,2.37-6.16,2.7-10.29,1.57-18.03,10.5-19.45,20.57-.22,1.55.45,4.57-1.98,4.79-4.18.37-2.49-6.72-1.87-9.1,3.01-11.49,13.21-20.33,25.2-21.1Z"/>
        </g>
      </g>
    </g>
  </g>
</svg>