<?xml version="1.0" encoding="UTF-8"?>
<svg id="Layer_1" xmlns="http://www.w3.org/2000/svg" version="1.1" viewBox="0 0 465.29 311.71">
  <!-- Generator: Adobe Illustrator 29.7.1, SVG Export Plug-In . SVG Version: 2.1.1 Build 8)  -->
  <defs>
    <style>
      .st0 {
        stroke-width: 2.23px;
      }

      .st0, .st1 {
        fill: #fff7f0;
        stroke: #33c5b5;
        stroke-miterlimit: 10;
      }

      .st1 {
        stroke-width: 2.33px;
      }

      .st2 {
        fill: #33c5b5;
      }
    </style>
  </defs>
  <rect class="st0" x="43.76" y="40.46" width="377.77" height="230.79" rx="22.49" ry="22.49"/>
  <g>
    <g id="degvMV">
      <g>
        <path class="st2" d="M231.1,98.94c10.3,1.04,17.03,11.87,13.09,21.57,5.07,4.22,8.12,10.49,6.75,17.18-.95,4.61-4.26,8.1-8.84,9.24.24,4.52-1.53,8.52-4.9,11.47-7.7,6.73-21.81,6.66-31.35,5.15-1.45-.23-2.89-.58-4.32-.91-3.57,4.35-9.14,6.53-14.66,7.07-9.19.89-22.4-3.37-26.63-12.24-.23-.49-.71-2.12-.93-2.35-.23-.24-1.79-.77-2.26-1.02-7.81-4.14-8.47-14.76-4.03-21.65-4.05-7.94-.37-18.43,7.98-21.71-.43-3.65.03-6.74,2.13-9.76,3.49-5.03,9.05-6.86,15.01-5.83,1.87.32,3.64,1.01,5.43,1.51,5.21-7.81,16.88-8.84,23.23-1.84,7.49-6.61,19.54-4.69,24.3,4.11ZM203.99,100.34c-.33.28-.92.12-.96-.31-.08-.84,1.79-2.95,2.29-3.7.13-.19.19-.06,0-.29-.16-.2-1.52-.96-1.85-1.14-6.39-3.43-13.4-2.55-18.65,2.42-.05.11,1.98.83,2.21,1.21.24.4.03.92-.45.96-.29.03-3.18-1.06-3.83-1.23-6.24-1.64-12.29-1.69-16.79,3.55-2.47,2.88-2.92,5.75-2.77,9.47.03.8.77,3.05-.52,3.18-1,.09-1-1.83-1.26-1.82-4.97,3.72-8.12,9.4-7.76,15.74.02.35.29,2.63.5,2.63.39-.52,2.24-2.41,2.74-2.54.39-.1.8.05.76.47-.05.54-1.17,1.61-1.55,2.16-1.69,2.46-2.93,5.2-3.16,8.23-.56,7.57,2.64,12.55,9.99,14.5.8.21,2.98.07,2.29,1.49-.44.9-3.41.28-4.31.24,3.76,7.07,12.36,10.54,20,11.32,6,.61,13.69-.43,18.4-4.51.1-.09.27,0,.18-.33-.78-.18-4.58-.76-2.77-1.85,7.57,1.5,15.34,2.26,23.05,1.57,5.22-.47,12.08-2.19,16.08-5.7,2.74-2.4,4.65-6.33,4.05-10.02-.15-.94-1.6-3.3-.06-3.37,1-.05,1.24,1.82,1.85,2.41,6.98-2.98,8.35-10.94,5.51-17.45-.7-1.61-2.05-3.72-3.16-5.1-.38-.47-2.16-2.14-2.25-2.45-.33-1.1.78-.69.83-.75.08-.1.28-2.17.29-2.49.09-2.7-.65-5.87-1.83-8.29-2.37-4.82-7.96-8.13-13.27-8.52-1.07-1.01.85-1.08.85-1.28-1.92-2-4.52-3.65-7.18-4.49-6.19-1.94-12.22.26-16.52,4.84-.29.31-.69,1.01-.97,1.24Z"/>
        <path class="st2" d="M180.82,190.65s.26.58.07.99c-.48,1.08-2.67-.21-3.45-.39-.95-.22-3.84-.26-4.45-.96-.51-.58,0-1.41.71-1.42-4.1-3.75-3.71-10.84,1.1-13.85,3.22-2.02,6.45-1.27,9.54.52,5.93,3.44,3.68,12.34-2.02,14.69-.29.12-1.45.37-1.5.42ZM179.08,175.88c-5.43.66-7.06,7.67-3.58,11.48.3.33,1.58,1.4,1.98,1.43.52.04,2.27-.5,2.84-.7,7.1-2.48,6.67-13.17-1.24-12.21Z"/>
        <path class="st2" d="M163.42,192.68c1.6-.17,3.88.76,5.15,1.75,6.36,4.98-1.9,13.11-7.67,9.09-4.42-3.08-2.76-10.27,2.52-10.84ZM164.13,194.66c-1.64.14-3.21,2.56-3.09,4.15.16,2.04,2.8,4.31,4.74,3.35,1.51-.75,2.84-3.1,2.06-4.73-.42-.88-2.78-2.85-3.71-2.77Z"/>
      </g>
    </g>
    <path class="st1" d="M308.59,127.25h-67.89c-3.53,0-6.41,2.89-6.41,6.41v54.79c0,3.53,2.89,6.41,6.41,6.41h34.84c.79,0,1.53.39,1.98,1.03l16.91,24.4c2.33,2.59,6.62.95,6.62-2.54l-4.32-20.06c-.26-1.48.87-2.84,2.38-2.84h9.48c3.53,0,6.41-2.89,6.41-6.41v-54.79c0-3.53-2.89-6.41-6.41-6.41Z"/>
  </g>
</svg>