<?xml version="1.0" encoding="UTF-8"?>
<svg id="Layer_1" xmlns="http://www.w3.org/2000/svg" version="1.1" viewBox="0 0 595.72 569.6">
  <!-- Generator: Adobe Illustrator 29.7.1, SVG Export Plug-In . SVG Version: 2.1.1 Build 8)  -->
  <defs>
    <style>
      .st0 {
        fill: #e44c17;
      }

      .st1 {
        fill: none;
        stroke: #e44c17;
        stroke-miterlimit: 10;
        stroke-width: 1.8px;
      }
    </style>
  </defs>
  <g>
    <path class="st1" d="M297.72,410.02c0,12.55-11.63,21.84-23.89,19.11-15.68-3.5-41.63-6.44-84.6-6.44s-68.98,2.86-84.62,6.29c-12.19,2.68-23.71-6.67-23.71-19.15v-242.16c0-8.38,5.32-15.86,13.26-18.54,13.45-4.54,40.53-9.13,95.07-9.13s81.75,4.59,95.21,9.14c7.95,2.68,13.27,10.16,13.27,18.54v242.33Z"/>
    <path class="st1" d="M297.99,410.02c0,12.55,11.63,21.84,23.89,19.11,15.68-3.5,41.63-6.44,84.6-6.44,43.04,0,68.98,2.86,84.62,6.29,12.19,2.68,23.71-6.67,23.71-19.15v-242.16c0-8.38-5.32-15.86-13.26-18.54-13.45-4.54-40.53-9.13-95.07-9.13-54.63,0-81.75,4.59-95.21,9.14-7.95,2.68-13.27,10.16-13.27,18.54v242.33Z"/>
    <g id="xgd98D">
      <g>
        <path class="st0" d="M365.9,381.18c-3.49,0-6.88-.89-10.08-2.63-8.76-4.78-13.08-14.07-11.01-23.69,2.07-9.62,9.84-16.33,19.8-17.08.5-.04,1.01-.06,1.52-.06,9.97,0,18.97,7.53,20.93,17.52,1.27,6.47-.33,12.82-4.51,17.9-4.14,5.03-10.36,8.04-16.64,8.04ZM366.2,339.45c-.75,0-1.52.04-2.28.12-12.72,1.33-17.93,11.3-17.45,20.6.5,9.52,7.07,19.16,18.66,19.16h0c1.56,0,3.19-.18,4.84-.54,11.9-2.58,16.29-12.51,15.36-21.2-.96-9.01-7.85-18.14-19.14-18.14Z"/>
        <path class="st0" d="M365.63,231.76c-7.78,0-14.48-3.92-18.4-10.75-3.66-6.38-3.83-14.17-.46-20.83,3.32-6.56,9.32-10.79,16.46-11.61.82-.09,1.65-.14,2.47-.14,6.48,0,12.61,2.92,16.82,8.02,4.11,4.98,5.78,11.4,4.59,17.63-2.33,12.14-12.77,17.68-21.48,17.68ZM365.53,190.35c-9.28.16-19.21,6.46-19.09,19.93.08,9.84,6.76,19.81,19.37,19.81s19.54-10.02,19.54-19.93c0-5.16-1.72-9.97-4.84-13.57-3.55-4.09-8.58-6.24-14.56-6.24h-.42Z"/>
        <path class="st0" d="M365.89,306.41c-7.9,0-14.91-4.06-18.76-10.87-3.58-6.33-3.72-14.08-.36-20.71,3.27-6.46,9.14-10.65,16.12-11.48.94-.11,1.89-.17,2.82-.17,8.55,0,16.13,4.89,19.78,12.75,3.6,7.74,2.44,16.27-3.08,22.82-4.11,4.87-10.13,7.67-16.51,7.67ZM365.82,264.97c-3.65,0-7.17,1.03-10.46,3.06-5.02,3.11-8.3,8.42-9,14.57-.7,6.18,1.32,12.11,5.55,16.29,3.69,3.65,8.59,5.66,13.8,5.66,7.8,0,14.71-4.33,18.03-11.3,2.96-6.22,2.59-13.07-1.02-18.8-3.7-5.86-10.17-9.5-16.9-9.5Z"/>
        <path class="st0" d="M402.89,277.63c-.48-.05-.72-.36-.73-.91,0-.17.03-1.02.86-1.16l63.53-.1h.1c.11-.02.21-.03.31-.03,1.15,0,1.5.8,1.52,1.22.03.54-.34.87-1.09.98h-64.51Z"/>
        <path class="st0" d="M402.56,202.87c-.37-.09-.41-.76-.41-.79-.02-.37.09-.8.31-.94l65.7.11c.28.32.37.79.28,1.14-.08.33-.25.45-.63.47h-65.24Z"/>
        <path class="st0" d="M402.52,352.05c-.26-.05-.32-.52-.34-.66-.04-.48.12-.92.3-1.07l64.97-.09c.98.08,1.03.95,1.03,1.05.01.57-.39.71-.72.76h-65.24Z"/>
        <path class="st0" d="M428.27,294.5c-3.05,0-6.26-.14-9.36-.28-3.15-.14-6.41-.28-9.54-.28-2.18,0-4.1.07-5.88.21-.86-.03-1.26-.53-1.36-.99-.05-.27-.05-.73.49-1.08l33.52-.08c.76.12,1.1.57,1.1.97,0,.6-.75,1.07-1.9,1.2-2.06.23-4.37.34-7.06.34Z"/>
        <path class="st0" d="M402.84,368.57c-.29-.02-.6-.1-.72-.58-.09-.36,0-.82.27-1.14l34.46.11c.23.23.36.48.36.71s-.13.48-.36.71l-34.01.19Z"/>
        <path class="st0" d="M410.32,219.76c-2.79,0-5.18-.12-7.3-.36-.37-.04-.87-.18-.91-.87-.02-.33.11-.72.35-.86l33.7-.08c.64.08,1.01.38,1.02.85,0,.18-.06.78-.98.94-1.84-.15-3.84-.23-6.11-.23-3.28,0-6.69.16-9.98.31-3.25.15-6.61.3-9.79.3Z"/>
        <path class="st0" d="M363.59,365.86c-.13,0-.26,0-.39-.03-.52-.12-.93-.52-1.3-.91-1.31-1.37-2.63-2.75-3.94-4.12-.62-.65-2.74-2.37-1.28-3.22.29-.17.67-.13.97.03s.54.4.77.64c.32,0,1.37,1.42,1.62,1.68.59.62,1.19,1.23,1.78,1.85.42.43.9,1.07,1.46,1.32.7.31,1.36-.45,1.84-.94.2,0,.83-.84.98-1,.36-.36.71-.72,1.07-1.08.65-.66,1.32-1.31,1.98-1.95,1.47-1.41,2.81-3.01,4.2-4.5.27-.29.56-.6.93-.76s.84-.15,1.13.13c.27.27.29.73.15,1.09s-.42.65-.69.93c-3.09,3.22-6.19,6.43-9.29,9.63-.55.57-1.23,1.18-1.99,1.22Z"/>
        <path class="st0" d="M363.88,216.81s-.09.01-.13.01c-.49,0-.89-.37-1.23-.71-1.55-1.57-3.11-3.13-4.66-4.7-.54-.54-2.49-2.53-.99-3.11.89-.35,1.71.73,2.17,1.3.75.92,1.5,1.84,2.24,2.76.43.53.9,1.09,1.56,1.27.57.16,1.18,0,1.69-.3s.92-.72,1.33-1.14c1.9-1.95,3.78-3.91,5.65-5.87.33-.34.65-.69.98-1.03.15-.16.78-1.03.98-1.03.22-.23.45-.47.73-.62s.64-.2.92-.05c.39.21.51.75.38,1.18s-.44.77-.75,1.1c-.73.78-1.45,1.56-2.18,2.34-.66.71-1.39,1.26-2.09,1.92-1.96,1.82-3.68,3.94-5.48,5.92-.31.34-.67.7-1.11.76Z"/>
        <path class="st0" d="M363.6,291.04c-1.31.07-2.2-1.15-3.11-2.16l-3.4-3.72c-.27-.3-.54-.6-.69-.97s-.14-.83.13-1.13c.31-.35.88-.37,1.3-.17s.74.57,1.04.93c.77.91,1.53,1.82,2.3,2.73.7.83,1.47,1.58,2.66,1.49.81-.07,1.51-.57,2.13-1.1,2.72-2.34,4.6-5.47,7.19-7.93.31-.29.64-.59,1.05-.72s.91-.06,1.17.28c.22.3.21.72.07,1.06s-.41.62-.66.89c-2.76,2.92-5.56,5.82-8.34,8.72-.56.59-1.14,1.19-1.88,1.54-.35.17-.67.25-.97.26Z"/>
      </g>
    </g>
  </g>
  <g id="_x36_HiB3u">
    <g>
      <path class="st0" d="M164.21,140.54c0,10.2-.2,20.38-.3,30.56-.1,10.81-.08,21.66-.15,32.48-.03,3.93-1.06,9.48,1.08,12.92,2.42,3.89,6.24,7.53,8.76,11.4,2.34,3.59,3.95,8.45,5.19,12.51.9,2.96.62,5.85-1.92,7.88-1.7,1.36-3.66-.19-5.42-.77-.06.25.05.36.15.54,1.02,1.91,3.96,6.28,4.4,8.07.47,1.93-.35,3.9-2.03,4.91-1.97,1.17-3.91.72-6,.38-.11.65.27,1.43.29,2.11.03,1.04-.18,2.09-.41,3.1-.11.47-.72,1.44-1.07,1.78-4.17,4.12-12.25-1.96-15.65-4.79-3.01-2.51-5.87-5.19-6.76-9.25-.07-.33-.34-1.59.14-1.53.52.06.82,1.79,1.01,2.22,1.44,3.25,2.65,4.29,5.22,6.48,3.11,2.64,8.28,6.94,12.47,6.94.81,0,1.69-.18,2.38-.64.64-.43.96-1.23,1.2-1.95.38-1.13.49-2.35.31-3.52-.08-.52-.17-1.21-.55-1.56-.43-.39-1.15-.64-1.64-.96-2.12-1.35-4.04-2.98-5.88-4.68-3.45-3.2-6.49-6.29-10.07-9.41-.38-.33-1.65-2.04-2-1.86-1.21,1.47-3.09,2.93-3.37,4.95-.41,2.94.49,6.48.89,9.4.36,2.59.23,6.17,1.92,8.32.17.22,1.54,1.61,1.73,1.73.32.22.49.33.72-.03.75-1.18,1.12-2.63,2.19-3.65.32-.07.26.16.23.39-.15,1.44-3.13,6.42-3.96,8.05-1.31,2.55-3.02,5.41-4.16,8-.73,1.66-1.35,3.62-.93,5.47.2.87,1.62,2.43,2.1,3.29,1.56,2.8,1.07,5.86,2.08,8.7,1.25,3.53,5.17,4.79,7.42,7.51,1.75,2.12,2.22,4.87,4.62,6.62,1.04.75,2.52,1.26,3.51,2.03.27.21,1.18,1.35,1.41,1.36.4,0,.18-2.9.53-3.16.54-.4.64.62.64,1.09-.03,2.55-1.14,6.62-1.74,9.2-1.22,5.21-4.39,11.39-1.37,16.5,1.02,1.74,2.88,3.08,4.89,3.06,2.69-.03,4.75-2.34,6.31-4.53,5.49-7.76,9.27-16.57,14.14-24.73,5.04-8.44,11.22-16.14,17.38-23.81-2.34,6.83-8.15,11.77-12.44,17.58-5.91,8-8.96,17.63-14.1,26.08-1.09,1.8-2.28,3.54-3.61,5.18s-2.7,3.45-4.4,4.57c-1.25.83-3.02,1.41-4.51,1.08-1.26-.28-2.08-1.12-2.94-2-1-1.02-2.05-2.12-2.62-3.46-.92-2.16-.59-3.82-.15-5.99.96-4.66,2.27-9.17,3.34-13.75.17-.73.69-1.62.31-2.39-.23-.48-2.5-1.55-3.05-1.88-1.09-.66-3.24-1.84-4-2.78-1.01-1.26-1.69-3.41-2.64-4.6-2.18-2.75-6.81-4.55-8.07-7.93-.87-2.33-.69-5.23-1.45-7.48-.84-2.46-3.56-4.37-3.12-7.27.69-4.55,5.16-10.34,7.19-14.55.56-1.16-.81-1.48-1.6-2.19-1.62-1.46-2.34-3.71-2.72-5.8-.33-1.79-.51-3.6-.7-5.41-.16-1.59-.46-3.14-.52-4.73-.12-2.82.41-5.58,2.73-7.42.28-.22,1.56-.93,1.6-1.06.17-.68-.75-2.24-.98-2.99-1.04-3.45-1.81-7.26.52-10.36.68-.91,2.84-2.84,3.85-3.23.26-.1.49-.11.76-.08.02.27-.45.66-.63.83-1.48,1.34-3.93,3.05-4.28,5.26-.48,3.03.95,9.08,3.16,11.29,1.19,1.19,2.93,2.3,4.23,3.47,3.26,2.96,6.28,6.63,9.63,9.29,2.34,1.86,6.65,4.71,9.73,3.48,1.3-.52,2.59-2.06,2.32-3.51-.28-1.53-1.53-3.16-2.23-4.55-2.34-4.7-3.52-7.22-7.23-11.1-3.31-3.46-6.89-6.62-10.17-10.15-1.52-1.64-3.32-3.5-4.7-5.12-1.89-2.21-2.6-3.95-2.11-6.93.32-1.99,2.17-7.77,3.34-9.28.89-1.14,2.09-1.6,3.51-1.55.7.03,1.4.12,2.09.21.39.05.79.03,1.18.1.44.08.86.23,1.3.3.14.02.65-.03.69.15.06.22-.36.31-.5.29-.39-.06-.77-.15-1.16-.22-.94-.17-1.89-.24-2.85-.21-.83.02-1.99-.03-2.64.54-1.22,1.06-1.84,2.59-2.37,4.08-.04.12-.09.24-.13.37-.78,2.18-1.81,5.37-1.59,7.64.3,3.08,3.47,5.14,5.39,7.23,1.42,1.54,2.69,3.26,4.14,4.79,2.47,2.59,5.23,4.89,7.76,7.42,2.2,2.2,3.62,4.98,6.63,6.22.9.38,1.89.83,2.75.19.68-.5,1.23-1.31,1.56-2.08.7-1.63.54-2.55.05-4.18-1.24-4.16-3.11-9.39-5.59-13.03-2.73-4-9.35-10.28-9.9-14.88-.48-4.05.09-9.67.15-13.84.24-18.15.23-36.35.62-54.49.03-1.43-.16-2.81,0-4.24h1.23Z"/>
      <path class="st0" d="M211.47,422.86c-.36,0-.72,0-1.08,0-.22-30.56-.44-61.12-.65-91.68-.01-1.9-.03-3.81.13-5.71.08-.95.16-1.94.39-2.87.19-.74.75-.68.83.06.21,1.97.02,4.08.02,6.07s.02,4.04.02,6.06c.03,8.09.06,16.17.09,24.26l.09,24.26c.03,8.09.06,16.17.09,24.26.02,5.09.04,10.19.06,15.28Z"/>
      <path class="st0" d="M218.18,224.5c3.39,2.62,2.9,5.92,3.31,9.7.56,5.16,1.96,9.71,3.29,14.57,1.51,5.52.76,6.46-.5,11.65-1.38,5.69-1.37,12.23-3.19,17.59-.36,1.06-.89,3.31-1.38,3.08-.52-.25.78-3.31,1.12-4.89,1-4.63.86-9.63,1.89-14.27,1.24-5.56,2.6-6.63.95-12.67-1.19-4.36-2.69-8.64-3.25-13.22-.61-4.94.36-8.99-4.74-11.58-3.29-1.67-7.6-2.87-11.13-4.1-3.22-1.13-8.24-3.7-11.54-1.68-2.22,1.37-1.92,3.62-1.2,5.79.95,2.85,1.77,3.74,4.22,5.33,1.93,1.25,3.87,2.48,5.83,3.68.64.39,1.29.78,1.94,1.17.5.3,1,.61,1.54.84.27.11.55.2.83.3.15.05.42.09.54.21.32.31-.54.32-.67.33-.89.02-1.63-.48-2.38-.89s-1.46-.82-2.19-1.24c-.87-.5-1.73-1.02-2.6-1.52-2.31-1.36-5.52-2.86-6.85-5.16-1.87-3.25-3.37-7.68.63-9.95,2.71-1.54,5.27-.79,8.05.05,2.7.81,5.46,1.99,8.13,2.95,3.17,1.14,6.64,1.85,9.36,3.96Z"/>
      <path class="st0" d="M204.79,238.32c.35.01.56.27.55.63-.01.73-.03,1.46-.02,2.19.03,1.79.19,3.58.64,5.32,1.01,3.84,3.39,7.16,5.11,10.74,2.94,6.09,3.97,12.89,4.96,19.58,1.2,8.05,2.39,16.1,3.59,24.15.6,4.01,1.08,8.51-1.36,11.74-1.21,1.61-3.3,2.73-5.25,2.22-2.29-.6-3.48-3.06-4.38-5.26-2.11-5.13-4.21-10.26-6.32-15.39,2.68,5.37,5.36,10.75,8.04,16.12.57,1.14,1.21,2.35,2.35,2.92,1.17.57,2.62.29,3.68-.47s1.74-1.93,2.2-3.15c1.15-3.09.94-6.53.22-9.74-.72-3.22-1.91-6.31-2.69-9.51-2.35-9.63-.93-20.04-4.45-29.3-1.54-4.06-3.98-7.71-5.7-11.7-1.08-2.5-1.86-5.18-1.93-7.91-.02-.67.01-1.35.09-2.02.05-.4,0-1.11.54-1.17.04,0,.09,0,.13,0Z"/>
    </g>
  </g>
</svg>