<?xml version="1.0" encoding="UTF-8"?>
<svg id="Layer_1" xmlns="http://www.w3.org/2000/svg" version="1.1" viewBox="0 0 487.45 547.02">
  <!-- Generator: Adobe Illustrator 29.7.1, SVG Export Plug-In . SVG Version: 2.1.1 Build 8)  -->
  <defs>
    <style>
      .st0 {
        fill: #523cac;
      }

      .st1 {
        fill: #fff;
      }

      .st2 {
        fill: #dd2080;
      }

      .st3 {
        fill: #ecaa19;
      }
    </style>
  </defs>
  <g>
    <path class="st0" d="M235.82,33.92c.05.21.08.41.11.62.02.14.04.27.06.41.02.12.11.83.06.42.14,1.03.26,2.06.38,3.1.35,3.05.67,6.11.99,9.17.79,7.71,1.53,15.43,2.21,23.15.44,4.92,1.12,9.93,1.13,14.87,0,3.02-.97,8.59-4.39,9.62-1.78.54-4.62-1.37-3.82-3.43.48-1.23,2.29-1.28,3.34-.91,2.74.95,3.26,4.48,3.42,6.98.25,3.85.26,7.73.28,11.58.06,7.99-.32,16.01-2.14,23.81-.43,1.85,2.41,2.63,2.84.78,1.81-7.74,2.27-15.71,2.25-23.64-.01-3.91-.08-7.83-.25-11.74-.13-3.02-.55-6.31-2.63-8.68-2.7-3.08-9.58-3.22-10.12,1.82-.27,2.52,1.44,5.07,3.73,6.02,2.63,1.09,5.43.09,7.19-2.04,4.24-5.14,3.18-12.15,2.68-18.24-.68-8.32-1.47-16.63-2.29-24.93-.42-4.2-.84-8.41-1.31-12.6-.26-2.29-.4-4.67-.9-6.92-.41-1.85-3.26-1.07-2.84.78h0Z"/>
    <path class="st3" d="M181.57,206.91l-77.38,285.21c-6.28,9.44,11.97,18.55,37.82,18.87l199.43,2.5c27.81.35,48.85-9.57,41.6-19.6l-87.63-292.47-113.85,5.49Z"/>
    <g>
      <path class="st1" d="M227.5,217.36c-.41,3.63-.81,7.26-1.22,10.89-.37,3.36-1.01,6.82-.56,10.19.66,4.97,4.02,9.52,8.55,11.66s10.32,1.73,14.65-1.07c4.78-3.09,6.85-8.41,7.6-13.84,1.03-7.42.92-15.12.72-22.59-.04-1.39-2.2-1.4-2.17,0,.16,6.2.11,12.43-.32,18.62-.35,5.07-1.19,10.7-5.01,14.41-3.44,3.35-8.77,4.61-13.32,3.03s-7.76-5.6-8.52-10.15c-.56-3.35.17-6.92.55-10.26.41-3.63.81-7.26,1.22-10.89.15-1.38-2.01-1.37-2.17,0h0Z"/>
      <path class="st1" d="M252.73,215.89c-1.2,1.67-2.04,3.66-2.89,5.52-1.02,2.23-2.01,4.49-2.78,6.82-.34,1.02-.65,2.1-.38,3.18.34,1.37,2.04,2.48,3.1,1.08s-.2-3.04-1.46-3.7c-1.37-.73-2.92-.31-4,.72-1.02.96-1.77,2.48-1.88,3.88-.05.65.31,1.28,1.04,1.23s1.21-.77,1.46-1.37c.57-1.38.08-2.97-1.19-3.76s-2.89-.6-4.14.13c-1.02.6-2.78,2.38-1.82,3.66.4.53,1.16.68,1.73.37.64-.35.94-1.08.84-1.78-.19-1.3-1.48-2.15-2.69-2.35s-2.49.09-3.5.77-2.15,2.23-1.15,3.38c.47.55,1.24.59,1.79.13.66-.54.71-1.43.72-2.22.03-2.03-.26-4.05-.55-6.06s-.57-4.16-.85-6.23c-.14-1.04-.28-2.09-.42-3.13-.06-.45-.74-.26-.68.19.42,3.12.83,6.25,1.27,9.37.21,1.5.42,3,.49,4.52.04.74.11,1.56-.04,2.29-.07.31-.21.64-.5.81-.46.26-.86-.15-.91-.6-.12-1.09,1.2-1.98,2.07-2.3s1.81-.38,2.67-.09c.44.15.85.41,1.15.77.43.51.71,1.41.04,1.86-.28.19-.69.19-.91-.09-.25-.3-.09-.75.06-1.06.31-.62.82-1.14,1.4-1.52.98-.62,2.26-.88,3.33-.34,1.15.58,1.63,1.94,1.08,3.11-.12.26-.3.56-.54.72-.46.31-.6-.14-.55-.52.07-.55.27-1.12.5-1.62.48-1.04,1.27-2.05,2.39-2.42,1.28-.42,2.93.36,3.34,1.68.18.57-.03,1.4-.72,1.51-.76.13-1.23-.76-1.35-1.38-.15-.81.09-1.62.33-2.39s.51-1.49.8-2.23c.78-2.01,1.65-3.99,2.58-5.93.69-1.44,1.37-2.96,2.3-4.26.27-.37-.35-.72-.61-.36h0Z"/>
    </g>
    <path class="st0" d="M167.28,219.22s11.51-49.11,34.45-74.05c0,0,43.62-51.01,72.66-6.11,0,0,32.33,30.78,41.07,75.81,0,0-42.22,6.48-148.19,4.35Z"/>
    <path class="st2" d="M201.19,208.38c24.23-.31,48.45-1.11,72.64-2.43,6.79-.37,13.59-.78,20.37-1.22,1.88-.12,1.9-3.07,0-2.95-24.18,1.59-48.39,2.69-72.61,3.27-6.8.17-13.6.29-20.41.38-1.9.02-1.9,2.97,0,2.95h0Z"/>
    <path class="st2" d="M253.5,132.39c6.8,4.54,12.4,10.7,16.33,17.87.91,1.66,3.46.18,2.55-1.49-4.17-7.61-10.17-14.11-17.39-18.93-1.58-1.06-3.06,1.5-1.49,2.55h0Z"/>
    <path class="st2" d="M277.31,160.41c2.89,3.74,5.78,7.49,8.67,11.23.49.63,1.27.97,2.02.53.62-.36,1.02-1.38.53-2.02-2.89-3.74-5.78-7.49-8.67-11.23-.49-.63-1.27-.97-2.02-.53-.62.36-1.02,1.38-.53,2.02h0Z"/>
  </g>
  <g id="jxd4KQ">
    <path class="st2" d="M234.45,351.31c.87,3.74-.46,10.17-4.85,10.95,3.95,4.74,1.83,10.94-3.26,13.71.65,8.41,2.01,19.06-7.72,22.5.06.72,2.22.47,2.63.39.34-.07,3.85-2.76,4.48-3.25,19.69-15.72,38.25-32.97,58.18-48.42,12.58-2.28,26.92-8.76,39.5-9.73,3.83-.3,4.57-.13,3.24,3.65-4.37,12.42-15.5,25.31-21.18,37.41l-32.15,26.44c-.94,1.13.18,2.76-.78,4.91-2.63,5.93-9.88,6.31-14.85,8.34-2.71,1.1-18.33,14.47-21.36,17.3-.46.43-2.02,1.78-2.08,2.21.12,1.96.49,4.21.57,6.12.05,1.15-.85,3.83.18,4.99.32.36,7.65,2.6,9.13,3.28,1.22.56,4.01,1.65,4.78,2.54,2.44,2.79,4.43,9.21,6.82,12.71,1.87,2.72,4.91,4.84,5.84,8.41.9,3.44-4.44,5.87.59,8.14-.58-5.69,5.41-7.76,5.91-1.21,4.9-1.48,10.56-6.27,15.8-3.2,8.05,4.72-4.02,15.68-8.31,18.82-2.49,1.82-9.96,5.99-12.83,6.29-7.15.74-7.48-5.72-9.44-10.4-1.01-2.4-2.94-4.17-3.76-6.63-1.4.37-3.96.86-5.15-.12-.22-.18-3-4.42-3.15-4.78-1.88-4.63-3.05-5.6-5.85-9.62-.58-.83-.91-2.32-1.51-2.96-.79-.84-8.36-3.14-8.73-2.87-1.46,5.35-4.42,11.87-8.76,15.45-3.04,2.5-7.37,4.23-10.33,6.76-1.91,1.63-5.31,6.28-8.29,5.37-.96-.29-1.96-2.14-3.24-1.89-.98.19-3.88,2.98-4.78,3.81,5.32-.02,5.78,4.95,0,4.27l.81,2.03-1.62-.4c1.92,4.57,5.15,10.52-2.76,10.88-12.53.57-12.03-12.34-10.15-21.13.57-2.66.94-4.57,3.66-5.69,1.7-.7,9.35-1.87,10.04-2.79.16-.21-1.19-2.76.18-4.48l12.07-7.46,2.82-10-28.68,23.2c-3.42,2.98-4.25,6.52-9.68,5.59-6.15-1.05-15.23-13.22-18.01-18.61-1.73-3.35-3.62-6.43-1.01-9.97,1.18-1.6,5.33-5.85,6.91-7.33,11.35-10.71,25.48-20.25,37.23-30.72.55-.49,3.12-2.87,3.28-3.23s-1.95-3.93-2.15-5.19c-1.13-7.08,3.38-9.73,7.78-13.9.3-.28.44-.66.26-.84s-4.16-1.1-5.17-1.55c-1.37-.62-4.99-3.35-6.04-3.32-.73.02-3.03,2.42-4.55,2.74-3.01.63-7.81-1.58-9.89-3.75-1.46-1.52-1.82-4.26-2.63-5.1-.42-.43-2.47-1.16-3.42-1.87-3.69-2.75-3.91-5.8-3.7-10.14.02-.5.52-1.65.4-1.81-.36-.48-4.8-1.59-4.84-4.28-.03-1.99,5.9-10.08,7.68-11.81-10.03-3.84.55-10.34,6.52-9.16-1.58-4.74,2.39-11.37,6.65-13.49,4.2-2.09,2.42,1.62,3.73,4.13,6.27-6.24,13.8-6.98,21.8-3.48.74.33,1.32,1.19,1.89,1.36,1.37.4,4.3-.13,5.64-.7,2.56-1.1,4.78-5.2,7.92-1.87,2.89,3.06,1.92,7.45,1.79,11.22,3.64,1.07,5.98,4.41,9.97,3.27ZM308.55,341.92l-22.09,5.37c-.9.06-1.44,2.02-1.11,2.35.22.22,5.11,0,5.91,1.62,1.12,2.28-1.37,7.4-1.02,7.73,7.86-.56,10.57,2.99,6.92,10.17,4.96-.73,9.64-.85,8.55,5.7.97.22.66-.16.91-.53,3.83-5.61,6.99-12.12,10.49-17.97-6.61-1.33-8.45-8.58-8.56-14.45ZM206,414.73c.59.52,10.86-9.3,12.4-9.77,21.52-18.19,43.35-36.14,65.14-54.08l1-2.86c-26.37,21.53-52.43,43.52-78.58,65.29-.38.22,0,1.38.04,1.42ZM229.61,407.82l57.38-46.98c2.05-1.12,4.58-6.89,3.46-8.76-.5-.84-4.83-1.75-5.72-.82l-77.32,63.87c-.49.48-.04.69.2,1.04.88,1.27,4.65,4.82,6.25,4.56l11.44-9.28c1.3-1.28-.25-5.53,2.11-5.57,1.81-.03,1.97,1.77,2.19,1.93ZM240.93,407.89c.22.36-.06,1.19.14,1.66.27.61.97.95,1.07,1.4.19.8-.86,1.79.67,2.51,3.95-2.77,7.31-6.22,11-9.29,14.26-11.87,28.98-23.42,42.54-35.99.43-1.64,1.95-4.76,1-6.33s-6.67-2.07-8.33-1.4l-58.94,48.27c-.03.7-.61,2.93.52,2.77,1.72-.25,9.05-5.68,10.32-3.6ZM190.94,387.07c-1.04.09-1.95.48-3.04.43-5.26-.26-7.33-9.6-13.05-2.47-4.12,5.14,1.52,11.25,6.72,12.42,4.37.99,6.12-2.66,8.73-2.24,8.7,5.29,14.26,7.36,24.33,3.95,11.82-4.01,11.69-10.22,10.9-21.64-.08-1.13-1.17-9.15-1.42-9.56-.32-.54-5.13-3.97-6.11-4.87-.49-.45-.39-1.26-1-1.23.08,6.31-5.26,10.9-11.4,10.58v-4.89c-3.97.45-6.36-2.57-9.35-4.47.92,7.1-4.15,13.6-10.99,15.06.28,1.51,6.44,8.11,5.7,8.94ZM304.39,370.89c-1.34-1.3-7.01-.89-8.67-.11l-53.14,44.13c.58,4.71-4.74,4.42-7.49,6.32-13.78,12.9-30.52,23.95-44.16,36.81-.6.57-1.86,1.43-1.44,2.24s6.6,6.51,7.28,6.45l1.06-.58,60.49-50.18c1.79-1.99-1.52-7.98.16-9.61.39-.38,1.43-.43,1.57-.66.31-.49-.25-1.69.64-2.41,1.11-.91,2.53.09,2.65,0,.15-.1.19-1.25,1.14-1.53s1.69.22,2.37.15c.52-.06.9-.76,1.99-.63,1.47.18,2.67,2.08,3.29,3.26l32.38-26.61c.62-.85.63-6.32-.12-7.06ZM216.08,403.67c.43-.74-.05-3.27-.99-3.54-1.09-.31-7.8,2.71-9.91,1.59,1.5,1.09,6.12,4.87,7.7,4.27.22-.08,3.09-2.16,3.19-2.33ZM211.69,407.01c-2.9-.86-7.82-5.97-10.73-4.43-.89.47-2.14,1.98-3.1,2.59,4.4-.12,6.81,2.24,8.77,5.89.75.17,4.26-3.37,5.06-4.06ZM269.08,409.04c-.34-.25-1.14-6.97-3.81-6.44-2.34.46.45,2.91,1.04,4.13s1.12,2.94,1.14,4.35c-1.98-2.27-2.34-6.96-6.1-6.91-.21,3.25,3.33,5.46,2.84,8.95-1.41.25-1.07-1.94-1.42-2.84-.67-1.69-1.86-3.33-3.86-3.25-.3,3.15,2.08,6.32.81,9.35,4.81-.52,14.35-4.76,11.9-10.87-.33-.82-2.76-3.72-3.76-2.95.75.36,3.5,8.18,1.23,6.5ZM201.93,410.26c1.68-.3,1.87,1.71,3.05,2.43,2.24-.98-1.54-4.24-2.64-5.09-4.87-3.75-9.51,2.08-8.93,6.89.8,6.61,11.97,17.16,18.67,17.55,3.97.23,12.68-5.14,16.26-7.37,1.69-1.05,2.86-2.45,4.64-3.49,2.13-1.25,7.49-2.56,8.41-4.61.08-.18.1-.67-.2-.6-1.09,1.1-2.61,1.61-4.07,2.04-.35,0-.28-.86-.21-1.02.11-.28,5.91-1.99,4.48-3.46-.56-.58-4.42,2.72-5.7,2.03.26-1.07,6.73-3.44,5.29-4.88-.6-.6-5.9,3.5-6.51,2.84-.33-.36-.08-.96.51-1.33,1.78-1.12,4.38-1.32,5.19-3.55-2.92-.62-8.07,4.23-9.97,4.09-2.03-.15.1-5.65-3.05-5.71-.81,3.79.7,10.38-3.25,12.41-3.48,1.79-8.65,3.43-12.31,1.72-2.35-1.11-6.78-6.4-8.45-8.64-.51-.69-.85-1.47-1.22-2.23ZM216.17,420.42c4.62-.2,10.51-1.89,9.36-7.72l-9.36,7.72ZM195.68,422.1l-21.02,17.64c.25,1.25,2.48-.59,2.81-.84,5.54-4.2,12.45-10.16,17.73-14.82.69-.61,2.28-2.13.48-1.98ZM203.14,428.98c-2.37-1.17-4.23-3.24-5.89-5.22l-21.28,17.61,3.97,6.94c.31.23,1.23-.61,1.59-.87,4.53-3.22,9-7.55,13.28-11.13,2.25-1.89,5.5-3.93,7.52-5.91.43-.42.95-.7.81-1.42ZM225.53,427.75c-4.99,2.05-9.72,6.3-15.49,5.1-1.38-.29-5.15-2.73-5.82-2.6l-23.3,19.48c1.88,3.22,4.66,5.67,6.75,8.74l.95.14,36.91-30.86ZM233.67,438.33c-.67-.12-1.09.32-1.59.64-2.62,1.69-5.87,4.93-8.17,7.08l9.71-1.27.05-6.45ZM173.84,439.96l-19.32,16.28c-.2.3-.22.64-.23.99-.1,3.32,7.21,12.53,9.58,15.28,1.9,2.2,10.11,11.04,12.63,10.97,1.26-.03,16.58-14.23,19.31-15.65-8.83-8.05-16.7-17.02-21.97-27.87ZM233.67,446.06l-12.51,1.94-15.16,12.5,26.65,7.93v-2.84c1.36,1.61,1.77,3.72,2.88,5.66.61,1.08,5.56,8.16,6.07,8.16,3.79-4.18,8.55-7.73,14.04-9.35v-.61s-7.53-14.03-7.53-14.03c-5.71-3.57-12.8-5.42-19.33-6.92.5-1.8,4.44.47,4.88,0v-2.44ZM153.49,457.86c-.47-.42-3.02,2.35-3.46,2.84-2.68,3-3.58,3.87-2.14,7.85,2.18,6.01,11.87,19.2,18.21,20.85,3.96,1.03,7.57-1.96,8.94-5.47-5.44-3.16-9.92-7.96-13.8-12.86-3.07-3.88-6.56-8.39-7.75-13.21ZM224.31,467.22l-18.33-5.12c-1.26,3.77-2.56,7.62-2.83,11.63l-1.41-.81c-3.95,3.75-7.57,2.4-4.89,8.94,1.32,3.21,4.06,6.26,7.25,7.67,3.7-3.19,10.12-5.64,13.29-9.1s4.96-8.82,6.93-13.2ZM260.53,476.16c-.75-.95-2.12-5.07-2.85-5.52-.48-.3-1.83.27-2.42.46-3.33,1.03-13.99,7.16-12.96,11.26.05.19,1.77,3.11,1.93,3.31.78,1,.88-.38,1.24-.75,4.13-4.33,9.18-7.38,15.07-8.76ZM194.6,477.79c-2.59,1.27-4.49,1.73-3.97,4.99.58,3.57,3.22,7.6,6,9.86,2.07,1.69,3.03,1.22,5.27-.44,2.78-2.06-.39-2.57-2.01-4.04-2.7-2.44-4.57-6.85-5.29-10.38ZM258.9,482.26c-.92-1.2-.61-3.02-1.82-3.97-.55-.08-9.1,4.86-9.15,5.39l3.03,4.23c2.72-1.93,4.4-4.95,7.94-5.65ZM283.31,480.23c-2.04-.73-7.03-.59-8.67.78-.84.7-.68,3.43-.68,4.5l4.19-2.93,5.16-2.36ZM284.9,481.47c-.24-.2-3.51.65-4.13.9-4.3,1.73-19.49,14.74-22.49,18.6-.32.41-.79.52-.6,1.22.47-.03.92.4,1.36.33.61-.11,7.52-7.51,8.8-8.67,3.98-3.58,10.16-8.56,15.07-10.56.5-.21,2.35-.53,2.43-.63.04-.05-.4-1.15-.45-1.19ZM273.14,481.86c-3.04-.21-2.69,3.14-3.26,5.28-2.32-.13-.21-2.62-.41-4.07-.56-.71-3.4,4.39-2.85,5.29-1.01.16-.9-.18-.82-1.02.13-1.44,1.07-2.13,1.23-3.45-2.52.29-2.25,3.31-3.86,4.88-.93-.74.77-3.55.61-3.66-2.48-.54-3.21,2.39-5.1,4.05-1.46,1.28-3.5,2.64-5.48,2.87l3.67,8.94,8.13-7.94c1.4-1.27,6.71-5.08,7.36-6.07.94-1.42-.16-3.58.78-5.11ZM259.64,483.15c-.43-.25-.75-.03-1.13.14-1.19.5-6.71,4.61-6.86,5.76-.02.11.7,2.04.79,2.12,1.28,1.13,8.51-4.9,8.52-6.65,0-.09-1.23-1.31-1.31-1.36ZM188.55,485.57c-.73,1.14,2.31,7.84,3.74,7.62.23-.03,1.9-1.25,1.9-1.37,0-.16-1.56-1.85-1.95-2.52-.51-.88-2.33-5.86-3.69-3.73ZM190.93,494.45c.33-.46-2.17-3.27-2.52-4.17-.54-1.38-.49-2.96-.93-4.36-2.4,1.17.33,9.79,1.63,9.75.11,0,1.76-1.14,1.82-1.23ZM185.64,486.33l-4.89,1.1c-1.23,5.16-2.44,10.43-1.56,15.73.3.95,4.95.91,6.21,1.11,1.07.17,1.98.84,3.09.77-.69-.73-.19-2.9-.45-3.21-.18-.2-4.32-1.22-4.84-2.28-.16-.84.33-.69.93-.53,1.3.36,2.31,1.46,3.54,1.96.41-2.49-.35-1.73-1.59-2.67-.46-.35-1.83-1.05-1.66-1.6.32-1,.82-.28,1.25-.04.76.42,2,.97,2.01,1.86.53.14.73-1.31.73-1.54,0-1.39-.91-1.38-1.48-2.38-1.3-2.3-1.87-5.73-1.29-8.27ZM179.13,488.37c-1.02-.2-.72.19-1.02.79-1.47,2.92-2.22,12.35-1.79,15.65.92,6.99,6.99,8.56,12.99,6.74l-4.16-.51c-9.97-1.46-6.76-15.76-6.01-22.67ZM189.21,506.37c-.65-.6-8.83-1.73-9.26-1.32.89,4.57,5.99,6.19,10.13,4.85.4-.47-.39-3.07-.88-3.52Z"/>
  </g>
</svg>