<?xml version="1.0" encoding="UTF-8"?>
<svg id="Layer_1" xmlns="http://www.w3.org/2000/svg" version="1.1" viewBox="0 0 465.29 311.71">
  <!-- Generator: Adobe Illustrator 29.7.1, SVG Export Plug-In . SVG Version: 2.1.1 Build 8)  -->
  <defs>
    <style>
      .st0 {
        fill: #fff7f0;
        stroke: #ecaa19;
        stroke-miterlimit: 10;
        stroke-width: 2.34px;
      }

      .st1 {
        fill: #ecaa19;
      }
    </style>
  </defs>
  <rect class="st0" x="43.76" y="40.46" width="377.77" height="230.79" rx="23.53" ry="23.53"/>
  <g>
    <g id="qPw9Qg">
      <g>
        <path class="st1" d="M222.3,122.08c32.89-2.97,54.48,33.84,35.84,61.1-7.03,10.29-18.29,13.07-25.28,23.19-4.46,6.46-4.29,13.83-10.65,19-10.2,8.3-26.08,4.19-30.15-8.51-.57-1.77-1.96-5.95,1.03-5.93,2,.02,1.92,2.31,2.51,3.68,5.13,12.14,21.25,13.42,26.36.96,2.87-7,3.34-10.99,8.65-17.13,7.31-8.46,17.37-11.33,23.07-21.53,11.68-20.9-2.45-47.43-26.31-48.98-11.93-.78-22.06,3.86-29.84,12.69-1.57.68-3.33-.69-2.63-2.37.31-.75,3.14-4.16,3.85-4.91,5.93-6.27,14.94-10.49,23.54-11.26Z"/>
        <path class="st1" d="M206.89,159.64c9.55-3.64,18.14,6.04,14.89,15.28-1.8,5.13-6.51,7.27-11.02,9.6-3.06,1.59-6.22,3-9.44,4.25-.96.1-2.38-2.36-2.05-3.09.22-.48,3.83-3.42,4.54-3.98,2.52-1.99,10.13-6.27,11.19-8.66,2.35-5.27-2.48-9.68-7.75-9.04-.92.11-.9.21-.83,1.09.22,2.54,2.42,4.79-1.09,5.77-1.43.4-1.8-1.03-2.26-2.14-7.43-17.76,13.24-35.44,30.36-28.81,13.63,5.28,18.73,21.93,10.17,33.88-3.14,4.38-7.43,5.99-11.43,9.2-4.52,3.63-7.67,8.22-10.47,13.24-.65,1.17-1.34,3.33-1.96,4.23-.81,1.19-3.29.4-3.54-.54-.22-.81,2.21-7.3,2.76-8.5,2.41-5.3,6.47-10.86,11.01-14.51,1.63-1.31,3.55-2.27,5.14-3.62,7.61-6.46,7.79-18.09,0-24.48-9.88-8.1-25.61-1.05-28.22,10.82Z"/>
        <path class="st1" d="M272.8,202.22c.6-.2,2.77-.21,3.14.39.7,1.14.48,5.7.27,7.15-1.88,12.78-14.52,24.12-27.68,23.1-.38-.03-2.34-.3-2.46-.37-.65-.42-.67-3.13.01-3.62,12.01-2.76,20.56-9.43,24.76-21.13.35-.98,1.18-5.25,1.97-5.51Z"/>
        <path class="st1" d="M261.49,200.94c.81,1.14.19,6.21-.34,7.67-2.33,6.44-10.01,11.54-16.85,9.25-.12-.19-.09-3.28.09-3.58s5.2-2.71,6.15-3.39c2.04-1.47,4.05-3.86,5.28-6.06.59-1.05,1.38-3.98,2.5-4.2.51-.1,2.89-.07,3.16.31Z"/>
      </g>
    </g>
    <path class="st1" d="M191.21,101.31c.91.23,1.58.71,2.03,1.45.45.74.55,1.58.32,2.53l-5.5,22.16c-.23.91-.71,1.59-1.46,2.06-.75.46-1.57.58-2.48.36-.91-.23-1.58-.72-2.02-1.48-.44-.76-.55-1.59-.33-2.5l.64-2.57,1.04.76c-.11.46-.49.94-1.14,1.47-.65.53-1.47,1-2.46,1.42s-2.11.71-3.36.86c-1.24.15-2.53.07-3.86-.26-2.41-.6-4.44-1.76-6.09-3.48-1.65-1.73-2.77-3.82-3.36-6.28-.59-2.46-.54-5.11.16-7.94.71-2.86,1.9-5.25,3.58-7.15,1.67-1.9,3.63-3.23,5.86-4,2.23-.76,4.51-.85,6.85-.27,1.5.37,2.82.94,3.97,1.71,1.15.77,2.09,1.61,2.85,2.54.75.93,1.29,1.81,1.62,2.65.33.84.43,1.51.31,2l-2.05.21.95-3.82c.23-.91.71-1.59,1.46-2.06.75-.46,1.57-.58,2.48-.36ZM174.85,121.99c1.54.38,2.98.33,4.32-.15,1.34-.48,2.5-1.31,3.48-2.47.98-1.17,1.67-2.57,2.07-4.21.42-1.68.47-3.26.15-4.75-.32-1.49-.96-2.76-1.92-3.81-.96-1.05-2.21-1.77-3.75-2.15-1.5-.37-2.92-.32-4.27.17-1.34.48-2.5,1.31-3.48,2.47-.98,1.17-1.67,2.59-2.09,4.26-.41,1.64-.45,3.21-.14,4.69.32,1.49.96,2.76,1.92,3.81.96,1.05,2.19,1.77,3.7,2.14Z"/>
    <path class="st1" d="M282.31,128.79c-3.01.54-5.74.38-8.17-.49-2.44-.86-4.44-2.27-6.02-4.22-1.57-1.95-2.6-4.29-3.09-7.01-.57-3.19-.41-6.02.48-8.5.89-2.48,2.27-4.51,4.15-6.09s3.98-2.58,6.32-2.99c1.81-.32,3.58-.26,5.33.2,1.74.46,3.35,1.22,4.82,2.29,1.47,1.07,2.72,2.39,3.75,3.96,1.03,1.57,1.71,3.31,2.06,5.22.12.86-.1,1.61-.64,2.25-.54.65-1.24,1.04-2.09,1.2l-20.29,3.62-2.54-5.03,19.5-3.48-.98,1.27-.26-1.43c-.25-1.01-.78-1.87-1.58-2.57-.8-.7-1.73-1.2-2.79-1.5s-2.14-.36-3.24-.16c-1.06.19-2.03.51-2.9.96-.87.45-1.58,1.07-2.13,1.86-.55.79-.92,1.79-1.11,2.99-.19,1.2-.13,2.67.18,4.41.34,1.91,1.03,3.46,2.06,4.65,1.03,1.18,2.24,2.01,3.62,2.48,1.38.46,2.78.57,4.2.32,1.31-.23,2.34-.53,3.08-.88.74-.35,1.32-.72,1.75-1.11.42-.39.81-.72,1.16-1,.58-.43,1.15-.7,1.72-.8.78-.14,1.47,0,2.08.45.61.44.98,1.01,1.1,1.72.17.96-.17,1.91-1.02,2.87-.78.94-1.95,1.86-3.51,2.74-1.56.88-3.23,1.48-5,1.8Z"/>
    <path class="st1" d="M164.32,168.18c-1.2.23-2.09.19-2.66-.1-.57-.29-.95-.94-1.13-1.93l-.19-1.01c-.19-1.02-.05-1.77.43-2.25.48-.47,1.28-.82,2.41-1.03,1.24-.23,2.14-.2,2.71.09.57.3.95.94,1.13,1.93l.19,1.01c.19,1.03.06,1.77-.4,2.24-.46.47-1.29.82-2.49,1.05ZM172.95,196.16c.17.92.02,1.75-.47,2.48-.48.73-1.19,1.18-2.11,1.36-.92.17-1.74,0-2.46-.5-.72-.5-1.16-1.22-1.34-2.14l-4.13-21.9c-.17-.92-.02-1.75.47-2.48s1.19-1.18,2.11-1.36c.92-.17,1.74,0,2.46.5.72.51,1.16,1.22,1.34,2.14l4.13,21.9Z"/>
    <path class="st1" d="M308.22,168.97c0,2.95-.66,5.55-1.97,7.8-1.31,2.25-3.08,4-5.29,5.26-2.21,1.26-4.69,1.89-7.42,1.89s-5.21-.63-7.42-1.89c-2.21-1.26-3.98-3.01-5.29-5.26-1.31-2.25-1.97-4.85-1.97-7.8s.66-5.55,1.97-7.8c1.31-2.25,3.08-4.01,5.29-5.29,2.21-1.28,4.69-1.92,7.42-1.92s5.21.64,7.42,1.92,3.98,3.04,5.29,5.29c1.31,2.25,1.97,4.85,1.97,7.8ZM301.75,168.97c0-1.83-.37-3.43-1.11-4.78-.74-1.35-1.73-2.4-2.97-3.16-1.24-.76-2.62-1.13-4.13-1.13s-2.89.38-4.13,1.13c-1.24.75-2.23,1.81-2.97,3.16-.74,1.35-1.11,2.94-1.11,4.78s.37,3.37,1.11,4.72c.74,1.35,1.73,2.4,2.97,3.16,1.24.76,2.62,1.13,4.13,1.13s2.89-.38,4.13-1.13,2.23-1.81,2.97-3.16c.74-1.35,1.11-2.92,1.11-4.72Z"/>
  </g>
</svg>