<?xml version="1.0" encoding="UTF-8"?>
<svg id="Layer_1" xmlns="http://www.w3.org/2000/svg" version="1.1" viewBox="0 0 465.29 311.71">
  <!-- Generator: Adobe Illustrator 29.7.1, SVG Export Plug-In . SVG Version: 2.1.1 Build 8)  -->
  <defs>
    <style>
      .st0 {
        fill: #fff7f0;
        stroke: #e44c17;
        stroke-miterlimit: 10;
        stroke-width: 2.34px;
      }

      .st1 {
        fill: #e44c17;
      }
    </style>
  </defs>
  <rect class="st0" x="43.76" y="40.46" width="377.77" height="230.79" rx="23.6" ry="23.6"/>
  <g id="ZBwQvf">
    <g>
      <path class="st1" d="M324.02,165.74c-.89.89-3.45.53-4.68.6-.4.29,5.14,7.78,1.8,8.75-13.46,2.05-26.09,5.2-39.14,8.86-1.62.46-5,2.83-6.11.62-1.74-3.49,4.63-4.64,7.07-5.42,11.1-3.52,22.57-5.55,33.98-7.78-1.09-1.02-.93-3.93-2.59-4.06l-23.91,5.39c-2.96.87-13.93,5.73-15.9,5.07-1.71-.58-1.3-3.22.18-3.99,14.29-5.83,29.45-9.1,44.62-11.79l-33.45-77.67c-17.47,2.63-36.23,6.57-51.85,15.21-1.4.77-9.15,5.51-9.53,6.33-.24.52-.33.98-.15,1.53l18.56,58.81c.52,2.94-3.42,3.58-4.26.85l-18.8-60.15c-5.28-1.9-10.83-2.75-16.44-3-17.45-.78-35.43,3.22-52.14,7.52,6.89,27.67,14.37,55.22,21.88,82.74l.85.39c5.95-1.46,11.94-3.1,18-4.11,2.85-.48,8.32-1.5,10.94-1.58,2.48-.08,4.24,2.08,2.5,3.74-1.2,1.15-13.16,2.13-15.84,2.64-5.05.97-12.9,3.84-17.55,4.07-.71.03-1.34-.01-1.91-.48l-21.25-79.06-3.35.48,22.13,82.99c12.27-1.55,24.88-5.18,37.17-6.19.88-.07,3.57-.43,4.09-.29,1.53.41,2.4,2.38,1.17,3.62-1.07,1.07-10.03,1.63-12.39,2.01-10.89,1.76-21.76,4.26-32.66,5.62l-24.22-89.82c.26-2.25,4.81-2,6.61-2.77-.06-4.23-3.61-6.37,1.73-8.11,16.88-5.5,47.29-9.73,64.56-6.53,1.47.27,6.68,2.17,7.34,2.06s9.6-6.59,11.52-7.64c10.23-5.57,23.49-9.62,34.87-12.17,5.13-1.15,13.57-3.12,18.56-3.53,1.98-.16,2.89-.14,3.9,1.74,10.09,25.39,21.83,50.15,32.02,75.49.75,1.87,3.54,7.51,2.06,8.99Z"/>
      <path class="st1" d="M246.78,170.61c.14-.11.51-1.29,1.25-1.89,2.84-2.3,4.59-.91,7.23-.93,1.15,0,1.87-.8,2.89-.95,2.48-.38,4.26.41,5.97,2.14,2.12,2.16,8.35,11.53,9.2,14.32,1.48,4.89,1.82,12.25,1.36,17.34-.48,5.37-3.01,7.31-.57,13.06.86,2.02,5.92,8.8,3.93,10.47-1.08.91-2.51.48-3.37-.48-.74-.82-5.15-9.12-5.52-10.32-1.66-5.37.83-8.68,1.23-13.67.37-4.59.02-12.66-1.92-16.84-.59-1.26-6.54-9.95-7.44-10.8-2.74-2.58-3.25,1.04-5.22.87-1.21-.11-2.4-1.68-4.17-1.14-2.16.66-1.31,4.65-4.53,4.15-1.46-.23-1.38-1.99-4.24-1.36-3.6.79-.98,5.82-5.79,4.62l-20.97-28.47c-9.02-6.49-4.77,2.67-2.3,7.1,4.33,7.77,16.61,22.08,16.2,30.74-.16,3.42-2.53,6.42-6.2,4.86-4.35-1.85-8.82-16.24-14.21-16.55-4.64-.27-.3,8.77.68,10.89,3.94,8.44,9.35,13.85,16.73,19.26,7.71,5.65,18.75,11.37,21.86,21.34,1,3.21-1.38,4.99-3.35,3.1-1.05-1.01-3.38-6.85-4.9-8.77-8.49-10.75-22.77-13.12-31.61-27.91-2.8-4.69-10.16-18.62-2.59-21.59,9.41-3.69,14.13,9.6,18.32,15.46l.97.23c-.04-3.57-1.7-6.39-3.28-9.44-3.46-6.7-17-23.7-16.38-30.09.62-6.38,8.76-6.16,12.48-2.48,2.75,2.65,17.42,25.32,18.98,25.69.4.09,3.25-2.05,4.39-2.28,1.64-.34,4.67.47,4.86.33Z"/>
      <path class="st1" d="M299.58,144.8c.46.74.1,2.79-1.08,2.86-11.68,1.28-23.13,3.55-33.88,8.36-2.36,1.05-8.77,5.37-10.8,5.06-1.33-.21-1.52-1.47-1.15-2.59.23-.69,11.26-6.1,12.9-6.79,6.6-2.76,15.31-5.36,22.38-6.42,1.74-.26,11.07-1.38,11.63-.48Z"/>
      <path class="st1" d="M293.27,130.49c2.48.09,2.85,2.61.76,3.59-13.41,1.1-25.62,4.61-37.69,10.31-1.8.85-7.05,5.21-7.99,1.92-.54-1.9,1.95-2.7,3.45-3.58,8.9-5.29,21.25-9.08,31.43-10.81,2.62-.45,7.65-1.52,10.04-1.43Z"/>
      <path class="st1" d="M164.87,117.98c.69-.67,16.24-3.49,18.5-3.81,7.06-1.02,20.44-2.45,27.1-.5,1.48.44,2.65,1.78,1.6,3.27-.82,1.17-6.13-.42-7.72-.51-8.01-.44-16.9.72-24.82,2.05-2.73.46-12.14,3.19-13.96,2.65-1.34-.39-1.7-2.21-.71-3.16Z"/>
      <path class="st1" d="M203.06,134.8c3.35-.17,12.2-.22,15.09.95,1.88.76,2.33,3.1.52,3.66-.87.27-5.14-.86-6.62-.93-7.49-.38-15.53.4-22.92,1.6-4.69.76-10.62,2.89-15.09,3.19-2.99.2-2.71-2.89-.76-3.68,9.89-1.81,19.68-4.26,29.78-4.78Z"/>
      <path class="st1" d="M215.57,127.87c-1.03.65-7.13-.78-8.81-.88-11.8-.7-25.08,2.68-36.57,5.14-3.17-.46-2.61-3.23.21-4.06,9.71-2.88,33.94-6.19,43.36-3.75,1.78.46,3.45,2.53,1.81,3.56Z"/>
      <path class="st1" d="M285.15,119.45c1.37-.1,5.49-.71,4.85,1.92-.44,1.79-8.14,2.01-10.13,2.39-10.42,2.01-18.01,4.45-27.59,8.89-1.77.82-5.3,3.51-6.87,2.74-3.25-1.59,2.27-4.44,3.51-5.13,9.81-5.46,25.03-9.98,36.23-10.81Z"/>
      <path class="st1" d="M236.36,109.29c10.29-5.74,20.83-9.76,32.47-11.93,1.91-.35,10.56-1.88,11.62-1.35.88.44,1.33,1.82.75,2.67-.49.73-13.44,2.49-15.73,3-9.67,2.15-18.56,5.94-27.22,10.67-1.82.09-2.32-1.49-1.88-3.06Z"/>
      <path class="st1" d="M280.35,107.45c1.97-.17,4.95-.94,4.44,2.01-.11.62-.17.91-.82,1.12-2.88.95-8.69,1.03-12.18,1.75-10.44,2.13-20.39,5.94-29.62,11.22-5.67-.91-.5-3.94,1.95-5.29,10.06-5.51,24.79-9.82,36.23-10.81Z"/>
      <path class="st1" d="M199.7,147.76c2.89-.25,7.98-.64,4.05,3.09l-24.37,4.44c-3.61.61-5.23-2.43-1.3-3.71,4.71-1.54,16.48-3.38,21.62-3.82Z"/>
      <path class="st1" d="M206.38,158.33c2.48.09,2.85,2.61.76,3.59-3.27.33-6.61.61-9.85,1.2-4.34.78-11.64,3.13-15.53,3.24-2.95.08-3.15-2.5-.81-3.74,5.97-.78,11.82-2.5,17.77-3.35,1.97-.28,5.92-1.01,7.65-.94Z"/>
      <path class="st1" d="M203.04,174.38c-.79.76-19.45,4.04-20.45,3.4-.65-.41-.68-2.13.14-2.83,2.37-2.04,15.15-2.31,18.77-3.84,1.85-.17,2.8,2.05,1.54,3.27Z"/>
    </g>
  </g>
</svg>