<?xml version="1.0" encoding="UTF-8"?>
<svg id="Layer_1" xmlns="http://www.w3.org/2000/svg" version="1.1" viewBox="0 0 465.29 311.71">
  <!-- Generator: Adobe Illustrator 29.7.1, SVG Export Plug-In . SVG Version: 2.1.1 Build 8)  -->
  <defs>
    <style>
      .st0, .st1 {
        fill: #523cac;
      }

      .st2 {
        fill: #fff7f0;
        stroke-width: 2.34px;
      }

      .st2, .st1 {
        stroke: #523cac;
        stroke-miterlimit: 10;
      }

      .st1 {
        stroke-width: .62px;
      }
    </style>
  </defs>
  <rect class="st2" x="43.76" y="40.46" width="377.77" height="230.79" rx="23.6" ry="23.6"/>
  <g>
    <g id="_x35_kEdL7">
      <path class="st0" d="M302.83,106.26c7.95-.77,17.45,11.32,10.99,18.37-18.82,18.55-37.1,37.59-56,55.98-2.33,2.27-2.19,2.79-5.52,4.15-5.45,2.22-11.4,3.75-16.84,6.06-3.51.58-4.51-1.59-3.66-4.67,1.69-6.11,4.98-12.66,6.95-18.76,19.08-18.74,37.54-38.03,56.64-56.61,2.41-2.35,3.6-4.15,7.44-4.52ZM306.97,125.27h.37c2.48-2.33,5.32-4.4,4.22-8.28-.59-2.09-4.58-6.15-6.78-6.45-3.72-.51-5.63,1.77-7.72,4.4l9.91,10.34ZM293.89,117.91l-50.55,50.5,10.18,10.44,50.89-50.66-10.52-10.29ZM249.19,181.51l-8.4-8.39-4.33,12.98,12.72-4.58Z"/>
    </g>
    <path class="st1" d="M150.67,191.05c25.68.34,29.7.42,55.39.17,9.27-.09,18.55-.18,27.82-.25,1.79-.01,1.79-2.8,0-2.78-25.75.2-51.49.59-77.24.39-9.2-.07,3.24-.19-5.96-.31-1.79-.02-1.79,2.76,0,2.78h0Z"/>
    <path class="st1" d="M150.67,205.12c40.16.53,58.68.5,98.84-.11,11.33-.17,22.65-.38,33.98-.64,1.79-.04,1.79-2.82,0-2.78-40.15.92-80.32,1.27-120.48,1.06-11.33-.06-1.01-.17-12.34-.31-1.79-.02-1.79,2.76,0,2.78h0Z"/>
  </g>
</svg>