<?xml version="1.0" encoding="UTF-8"?>
<svg id="Layer_1" xmlns="http://www.w3.org/2000/svg" version="1.1" viewBox="0 0 465.29 311.71">
  <!-- Generator: Adobe Illustrator 29.7.1, SVG Export Plug-In . SVG Version: 2.1.1 Build 8)  -->
  <defs>
    <style>
      .st0 {
        fill: #fff7f0;
        stroke-width: 2.34px;
      }

      .st0, .st1 {
        stroke: #dd2080;
        stroke-miterlimit: 10;
      }

      .st1 {
        fill: none;
        stroke-width: 5.42px;
      }

      .st2 {
        fill: #dd2080;
      }
    </style>
  </defs>
  <rect class="st0" x="43.76" y="40.46" width="377.77" height="230.79" rx="22.49" ry="22.49"/>
  <g>
    <rect class="st1" x="130.79" y="101.92" width="67.84" height="67.84" rx="9.47" ry="9.47"/>
    <rect class="st1" x="198.72" y="101.92" width="67.84" height="67.84" rx="9.47" ry="9.47"/>
    <rect class="st1" x="266.66" y="101.92" width="67.84" height="67.84" rx="9.47" ry="9.47"/>
    <circle class="st2" cx="164.71" cy="200.68" r="9.11"/>
    <circle class="st2" cx="232.65" cy="200.68" r="9.11"/>
    <circle class="st2" cx="300.58" cy="200.68" r="9.11"/>
    <path class="st2" d="M244.19,119.94c.99,0,1.81.33,2.46.97.65.65.97,1.49.97,2.52v24.24c0,.99-.33,1.82-.97,2.49-.65.67-1.47,1-2.46,1s-1.81-.33-2.46-1c-.65-.67-.97-1.5-.97-2.49v-2.81l1.26.52c0,.5-.27,1.1-.8,1.81-.54.71-1.26,1.4-2.18,2.09-.92.69-2,1.27-3.24,1.75-1.24.48-2.59.72-4.04.72-2.64,0-5.02-.68-7.16-2.03-2.14-1.36-3.83-3.23-5.07-5.62-1.24-2.39-1.86-5.13-1.86-8.22s.62-5.89,1.86-8.28c1.24-2.39,2.91-4.26,5.01-5.62,2.1-1.36,4.43-2.03,6.99-2.03,1.64,0,3.15.25,4.53.75,1.38.5,2.57,1.13,3.58,1.89,1.01.76,1.8,1.54,2.35,2.32.55.78.83,1.44.83,1.98l-2.06.75v-4.18c0-.99.32-1.82.97-2.49.65-.67,1.47-1,2.46-1ZM232.62,145.44c1.68,0,3.15-.42,4.41-1.26,1.26-.84,2.24-1.99,2.95-3.44.71-1.45,1.06-3.07,1.06-4.87s-.35-3.48-1.06-4.93c-.71-1.45-1.69-2.6-2.95-3.44-1.26-.84-2.73-1.26-4.41-1.26s-3.09.42-4.36,1.26c-1.26.84-2.24,1.99-2.95,3.44-.71,1.45-1.06,3.09-1.06,4.93s.35,3.42,1.06,4.87c.71,1.45,1.69,2.6,2.95,3.44,1.26.84,2.71,1.26,4.36,1.26Z"/>
    <path class="st2" d="M158.12,120.22c3.06,0,5.31.74,6.76,2.21,1.45,1.47,2.41,3.37,2.87,5.7l-.97-.52.46-.92c.46-.88,1.16-1.82,2.12-2.84.95-1.01,2.11-1.87,3.47-2.58,1.36-.71,2.87-1.06,4.56-1.06,2.75,0,4.84.59,6.28,1.78,1.43,1.18,2.42,2.76,2.95,4.73.53,1.97.8,4.15.8,6.56v14.67c0,.99-.32,1.82-.97,2.49-.65.67-1.47,1-2.46,1s-1.82-.33-2.46-1c-.65-.67-.97-1.5-.97-2.49v-14.67c0-1.26-.15-2.4-.46-3.41-.31-1.01-.86-1.82-1.66-2.44-.8-.61-1.95-.92-3.44-.92s-2.69.31-3.73.92c-1.03.61-1.81,1.42-2.32,2.44-.52,1.01-.77,2.15-.77,3.41v14.67c0,.99-.32,1.82-.97,2.49-.65.67-1.47,1-2.46,1s-1.81-.33-2.46-1c-.65-.67-.97-1.5-.97-2.49v-14.67c0-1.26-.15-2.4-.46-3.41-.31-1.01-.86-1.82-1.66-2.44-.8-.61-1.95-.92-3.44-.92s-2.69.31-3.72.92c-1.03.61-1.81,1.42-2.32,2.44-.52,1.01-.77,2.15-.77,3.41v14.67c0,.99-.32,1.82-.97,2.49-.65.67-1.47,1-2.46,1s-1.81-.33-2.46-1c-.65-.67-.97-1.5-.97-2.49v-23.67c0-.99.32-1.82.97-2.49.65-.67,1.47-1,2.46-1s1.81.33,2.46,1c.65.67.97,1.5.97,2.49v2.46l-.86-.17c.34-.65.82-1.35,1.43-2.09.61-.75,1.36-1.44,2.23-2.09.88-.65,1.85-1.17,2.92-1.58,1.07-.4,2.24-.6,3.5-.6Z"/>
  </g>
</svg>