<?xml version="1.0" encoding="UTF-8"?>
<svg id="Layer_1" xmlns="http://www.w3.org/2000/svg" version="1.1" viewBox="0 0 367.04 779.08">
  <!-- Generator: Adobe Illustrator 29.7.1, SVG Export Plug-In . SVG Version: 2.1.1 Build 8)  -->
  <defs>
    <style>
      .st0 {
        fill: #523cac;
      }

      .st1, .st2 {
        fill: #7864ec;
      }

      .st3 {
        fill: #adc716;
      }

      .st4 {
        fill: #33c5b5;
      }

      .st5 {
        stroke: #33c5b5;
        stroke-width: .83px;
      }

      .st5, .st6, .st7, .st2 {
        stroke-miterlimit: 10;
      }

      .st5, .st8 {
        fill: #002f55;
      }

      .st6 {
        stroke: #adc716;
        stroke-width: 1.7px;
      }

      .st6, .st7 {
        fill: none;
      }

      .st7 {
        stroke: #dd2080;
        stroke-width: 1.93px;
      }

      .st9 {
        fill: #e44c17;
      }

      .st10 {
        fill: #dd2080;
      }

      .st2 {
        stroke: #523cac;
        stroke-width: .22px;
      }

      .st11 {
        fill: #ecaa19;
      }
    </style>
  </defs>
  <g>
    <rect class="st8" x="123.1" y="90.43" width="120.83" height="598.22" rx="28.11" ry="28.11"/>
    <path class="st0" d="M215.82,92.32c14.46,0,26.22,11.76,26.22,26.22v542c0,14.46-11.76,26.22-26.22,26.22h-64.61c-14.46,0-26.22-11.76-26.22-26.22V118.54c0-14.46,11.76-26.22,26.22-26.22h64.61M215.82,88.54h-64.61c-16.57,0-30,13.43-30,30v542c0,16.57,13.43,30,30,30h64.61c16.57,0,30-13.43,30-30V118.54c0-16.57-13.43-30-30-30h0Z"/>
  </g>
  <g>
    <g id="qPw9Qg">
      <g>
        <path class="st11" d="M179.83,146.58c11.73-1.06,19.44,12.07,12.79,21.8-2.51,3.67-6.53,4.66-9.02,8.28-1.59,2.3-1.53,4.93-3.8,6.78-3.64,2.96-9.31,1.49-10.76-3.04-.2-.63-.7-2.12.37-2.11.71,0,.69.82.89,1.31,1.83,4.33,7.58,4.79,9.41.34,1.03-2.5,1.19-3.92,3.09-6.11,2.61-3.02,6.2-4.04,8.23-7.68,4.17-7.46-.87-16.92-9.39-17.48-4.26-.28-7.87,1.38-10.65,4.53-.56.24-1.19-.25-.94-.85.11-.27,1.12-1.48,1.37-1.75,2.12-2.24,5.33-3.74,8.4-4.02Z"/>
        <path class="st11" d="M174.33,159.98c3.41-1.3,6.47,2.16,5.31,5.45-.64,1.83-2.32,2.59-3.93,3.43-1.09.57-2.22,1.07-3.37,1.52-.34.04-.85-.84-.73-1.1.08-.17,1.37-1.22,1.62-1.42.9-.71,3.62-2.24,3.99-3.09.84-1.88-.88-3.46-2.76-3.22-.33.04-.32.08-.3.39.08.91.86,1.71-.39,2.06-.51.14-.64-.37-.81-.76-2.65-6.34,4.72-12.64,10.83-10.28,4.86,1.88,6.68,7.82,3.63,12.09-1.12,1.56-2.65,2.14-4.08,3.28-1.61,1.3-2.74,2.93-3.74,4.73-.23.42-.48,1.19-.7,1.51-.29.42-1.17.14-1.26-.19-.08-.29.79-2.61.98-3.03.86-1.89,2.31-3.87,3.93-5.18.58-.47,1.27-.81,1.83-1.29,2.71-2.31,2.78-6.45,0-8.73-3.53-2.89-9.14-.38-10.07,3.86Z"/>
        <path class="st11" d="M197.85,175.18c.21-.07.99-.07,1.12.14.25.41.17,2.03.1,2.55-.67,4.56-5.18,8.61-9.88,8.24-.13-.01-.84-.11-.88-.13-.23-.15-.24-1.12,0-1.29,4.28-.98,7.34-3.37,8.83-7.54.12-.35.42-1.87.7-1.97Z"/>
        <path class="st11" d="M193.81,174.72c.29.41.07,2.22-.12,2.74-.83,2.3-3.57,4.12-6.01,3.3-.04-.07-.03-1.17.03-1.28s1.85-.97,2.19-1.21c.73-.52,1.44-1.38,1.88-2.16.21-.37.49-1.42.89-1.5.18-.04,1.03-.03,1.13.11Z"/>
      </g>
    </g>
    <path class="st11" d="M168.74,139.17c.32.08.56.25.72.52.16.27.2.57.11.9l-1.96,7.91c-.08.32-.25.57-.52.73-.27.17-.56.21-.88.13-.32-.08-.57-.26-.72-.53-.16-.27-.2-.57-.12-.89l.23-.92.37.27c-.04.16-.18.33-.41.52-.23.19-.52.36-.88.51-.36.15-.75.25-1.2.31-.45.06-.9.02-1.38-.09-.86-.21-1.58-.63-2.17-1.24-.59-.62-.99-1.36-1.2-2.24-.21-.88-.19-1.82.06-2.83.25-1.02.68-1.87,1.28-2.55.6-.68,1.3-1.15,2.09-1.43.79-.27,1.61-.31,2.45-.1.54.13,1.01.34,1.42.61.41.27.75.57,1.02.91.27.33.46.65.58.95.12.3.15.54.11.71l-.73.08.34-1.36c.08-.32.25-.57.52-.73.26-.17.56-.21.88-.13ZM162.9,146.55c.55.14,1.06.12,1.54-.05.48-.17.89-.47,1.24-.88.35-.42.59-.92.74-1.5.15-.6.17-1.16.05-1.69-.11-.53-.34-.98-.68-1.36-.34-.38-.79-.63-1.34-.77-.54-.13-1.04-.11-1.52.06-.48.17-.89.47-1.24.88-.35.42-.6.92-.75,1.52-.15.59-.16,1.14-.05,1.67.11.53.34.98.69,1.36.34.38.78.63,1.32.76Z"/>
    <path class="st11" d="M201.27,149.02c-1.07.19-2.05.13-2.92-.17-.87-.31-1.59-.81-2.15-1.5-.56-.7-.93-1.53-1.1-2.5-.2-1.14-.15-2.15.17-3.03.32-.88.81-1.61,1.48-2.17.67-.56,1.42-.92,2.25-1.07.65-.12,1.28-.09,1.9.07.62.16,1.2.44,1.72.82.52.38.97.85,1.34,1.41.37.56.61,1.18.73,1.87.04.3-.04.57-.23.8-.19.23-.44.37-.75.43l-7.24,1.29-.91-1.79,6.96-1.24-.35.45-.09-.51c-.09-.36-.28-.67-.57-.92-.29-.25-.62-.43-.99-.54-.38-.11-.76-.13-1.16-.06-.38.07-.72.18-1.03.34-.31.16-.56.38-.76.66-.2.28-.33.64-.4,1.07-.07.43-.04.95.07,1.57.12.68.37,1.24.74,1.66.37.42.8.72,1.29.88.49.17.99.2,1.5.11.47-.08.83-.19,1.1-.31.26-.13.47-.26.62-.4.15-.14.29-.26.42-.36.21-.16.41-.25.61-.29.28-.05.52,0,.74.16.22.16.35.36.39.61.06.34-.06.68-.37,1.02-.28.34-.7.66-1.25.98-.56.32-1.15.53-1.78.64Z"/>
    <path class="st11" d="M159.15,163.04c-.43.08-.75.07-.95-.04-.2-.11-.34-.33-.4-.69l-.07-.36c-.07-.37-.02-.63.15-.8s.46-.29.86-.37c.44-.08.76-.07.97.03.2.11.34.33.4.69l.07.36c.07.37.02.63-.14.8-.17.17-.46.29-.89.37ZM162.22,173.03c.06.33,0,.62-.17.88-.17.26-.42.42-.75.48-.33.06-.62,0-.88-.18-.26-.18-.42-.43-.48-.76l-1.47-7.82c-.06-.33,0-.62.17-.88.17-.26.42-.42.75-.49.33-.06.62,0,.88.18.26.18.42.43.48.76l1.47,7.82Z"/>
    <path class="st11" d="M210.49,163.31c0,1.05-.23,1.98-.7,2.78-.47.8-1.1,1.43-1.89,1.88-.79.45-1.67.67-2.65.67s-1.86-.22-2.65-.67c-.79-.45-1.42-1.08-1.89-1.88-.47-.8-.7-1.73-.7-2.78s.23-1.98.7-2.78c.47-.8,1.1-1.43,1.89-1.89.79-.46,1.67-.68,2.65-.68s1.86.23,2.65.68c.79.46,1.42,1.08,1.89,1.89.47.8.7,1.73.7,2.78ZM208.18,163.31c0-.65-.13-1.22-.4-1.7-.26-.48-.62-.86-1.06-1.13-.44-.27-.93-.4-1.47-.4s-1.03.13-1.47.4c-.44.27-.8.65-1.06,1.13-.26.48-.39,1.05-.39,1.7s.13,1.2.39,1.68c.26.48.62.86,1.06,1.13.44.27.93.4,1.47.4s1.03-.13,1.47-.4c.44-.27.8-.65,1.06-1.13.26-.48.4-1.04.4-1.68Z"/>
  </g>
  <g>
    <rect class="st7" x="147.17" y="233.71" width="24.21" height="24.21" rx="3.38" ry="3.38"/>
    <rect class="st7" x="171.41" y="233.71" width="24.21" height="24.21" rx="3.38" ry="3.38"/>
    <rect class="st7" x="195.65" y="233.71" width="24.21" height="24.21" rx="3.38" ry="3.38"/>
    <circle class="st10" cx="159.28" cy="268.95" r="3.25"/>
    <circle class="st10" cx="183.52" cy="268.95" r="3.25"/>
    <circle class="st10" cx="207.76" cy="268.95" r="3.25"/>
    <path class="st10" d="M187.64,240.14c.35,0,.65.12.88.35.23.23.35.53.35.9v8.65c0,.35-.12.65-.35.89-.23.24-.52.36-.88.36s-.65-.12-.88-.36c-.23-.24-.35-.53-.35-.89v-1l.45.18c0,.18-.1.39-.29.64-.19.25-.45.5-.78.75-.33.25-.71.45-1.16.62-.44.17-.92.26-1.44.26-.94,0-1.79-.24-2.56-.73-.76-.48-1.37-1.15-1.81-2-.44-.85-.66-1.83-.66-2.93s.22-2.1.66-2.95c.44-.85,1.04-1.52,1.79-2,.75-.48,1.58-.73,2.49-.73.59,0,1.12.09,1.62.27.49.18.92.4,1.28.67.36.27.64.55.84.83.2.28.3.51.3.71l-.74.27v-1.49c0-.35.12-.65.35-.89.23-.24.52-.36.88-.36ZM183.51,249.24c.6,0,1.12-.15,1.57-.45.45-.3.8-.71,1.05-1.23.25-.52.38-1.1.38-1.74s-.13-1.24-.38-1.76c-.25-.52-.6-.93-1.05-1.23-.45-.3-.97-.45-1.57-.45s-1.1.15-1.55.45c-.45.3-.8.71-1.05,1.23-.25.52-.38,1.1-.38,1.76s.13,1.22.38,1.74c.25.52.6.93,1.05,1.23.45.3.97.45,1.55.45Z"/>
    <path class="st10" d="M156.93,240.24c1.09,0,1.89.26,2.41.79.52.52.86,1.2,1.02,2.03l-.35-.18.16-.33c.16-.31.42-.65.76-1.01.34-.36.75-.67,1.24-.92.48-.25,1.03-.38,1.63-.38.98,0,1.73.21,2.24.63.51.42.86.99,1.05,1.69.19.7.29,1.48.29,2.34v5.23c0,.35-.12.65-.35.89-.23.24-.52.36-.88.36s-.65-.12-.88-.36c-.23-.24-.35-.53-.35-.89v-5.23c0-.45-.05-.86-.16-1.22-.11-.36-.31-.65-.59-.87-.29-.22-.7-.33-1.23-.33s-.96.11-1.33.33c-.37.22-.64.51-.83.87-.18.36-.28.77-.28,1.22v5.23c0,.35-.12.65-.35.89-.23.24-.52.36-.88.36s-.65-.12-.88-.36c-.23-.24-.35-.53-.35-.89v-5.23c0-.45-.05-.86-.16-1.22-.11-.36-.31-.65-.59-.87-.29-.22-.7-.33-1.23-.33s-.96.11-1.33.33c-.37.22-.64.51-.83.87-.18.36-.28.77-.28,1.22v5.23c0,.35-.12.65-.35.89-.23.24-.52.36-.88.36s-.65-.12-.88-.36c-.23-.24-.35-.53-.35-.89v-8.45c0-.35.12-.65.35-.89.23-.24.52-.36.88-.36s.65.12.88.36c.23.24.35.54.35.89v.88l-.31-.06c.12-.23.29-.48.51-.75.22-.27.48-.51.8-.75.31-.23.66-.42,1.04-.56.38-.14.8-.21,1.25-.21Z"/>
  </g>
  <g id="ZBwQvf">
    <g>
      <path class="st9" d="M216.12,350.8c-.32.32-1.23.19-1.67.21-.14.1,1.83,2.78.64,3.12-4.8.73-9.31,1.86-13.97,3.16-.58.16-1.79,1.01-2.18.22-.62-1.25,1.65-1.66,2.52-1.93,3.96-1.25,8.05-1.98,12.12-2.77-.39-.36-.33-1.4-.92-1.45l-8.53,1.92c-1.05.31-4.97,2.05-5.67,1.81-.61-.21-.46-1.15.06-1.42,5.1-2.08,10.51-3.25,15.92-4.21l-11.93-27.71c-6.24.94-12.93,2.35-18.5,5.43-.5.28-3.27,1.96-3.4,2.26-.08.19-.12.35-.05.55l6.62,20.98c.19,1.05-1.22,1.28-1.52.3l-6.71-21.46c-1.88-.68-3.87-.98-5.87-1.07-6.22-.28-12.64,1.15-18.61,2.68,2.46,9.87,5.13,19.7,7.81,29.52l.3.14c2.12-.52,4.26-1.11,6.42-1.47,1.02-.17,2.97-.53,3.9-.57.89-.03,1.51.74.89,1.34-.43.41-4.7.76-5.65.94-1.8.35-4.6,1.37-6.26,1.45-.25.01-.48,0-.68-.17l-7.58-28.21-1.2.17,7.89,29.61c4.38-.55,8.88-1.85,13.26-2.21.31-.03,1.27-.15,1.46-.1.55.15.86.85.42,1.29-.38.38-3.58.58-4.42.72-3.89.63-7.76,1.52-11.65,2l-8.64-32.05c.09-.8,1.72-.72,2.36-.99-.02-1.51-1.29-2.27.62-2.89,6.02-1.96,16.87-3.47,23.04-2.33.53.1,2.38.77,2.62.74s3.42-2.35,4.11-2.73c3.65-1.99,8.38-3.43,12.44-4.34,1.83-.41,4.84-1.11,6.62-1.26.71-.06,1.03-.05,1.39.62,3.6,9.06,7.79,17.89,11.43,26.94.27.67,1.26,2.68.73,3.21Z"/>
      <path class="st9" d="M188.56,352.54c.05-.04.18-.46.45-.67,1.01-.82,1.64-.32,2.58-.33.41,0,.67-.28,1.03-.34.89-.13,1.52.15,2.13.76.76.77,2.98,4.12,3.28,5.11.53,1.74.65,4.37.49,6.19-.17,1.92-1.07,2.61-.2,4.66.31.72,2.11,3.14,1.4,3.74-.38.33-.9.17-1.2-.17-.26-.29-1.84-3.26-1.97-3.68-.59-1.92.3-3.1.44-4.88.13-1.64,0-4.52-.68-6.01-.21-.45-2.33-3.55-2.65-3.85-.98-.92-1.16.37-1.86.31-.43-.04-.86-.6-1.49-.41-.77.24-.47,1.66-1.61,1.48-.52-.08-.49-.71-1.51-.49-1.28.28-.35,2.08-2.06,1.65l-7.48-10.16c-3.22-2.31-1.7.95-.82,2.53,1.55,2.77,5.93,7.88,5.78,10.97-.06,1.22-.9,2.29-2.21,1.73-1.55-.66-3.15-5.79-5.07-5.91-1.66-.1-.11,3.13.24,3.88,1.41,3.01,3.33,4.94,5.97,6.87,2.75,2.02,6.69,4.06,7.8,7.61.36,1.15-.49,1.78-1.19,1.11-.37-.36-1.21-2.44-1.75-3.13-3.03-3.84-8.12-4.68-11.28-9.96-1-1.67-3.62-6.64-.92-7.71,3.36-1.32,5.04,3.42,6.54,5.52l.35.08c-.01-1.28-.61-2.28-1.17-3.37-1.23-2.39-6.07-8.46-5.85-10.74.22-2.27,3.13-2.2,4.45-.88.98.95,6.22,9.04,6.77,9.17.14.03,1.16-.73,1.57-.81.58-.12,1.67.17,1.74.12Z"/>
      <path class="st9" d="M207.4,343.33c.17.26.04.99-.39,1.02-4.17.46-8.25,1.27-12.09,2.98-.84.38-3.13,1.92-3.85,1.8-.47-.07-.54-.52-.41-.92.08-.25,4.02-2.18,4.6-2.42,2.35-.99,5.46-1.91,7.98-2.29.62-.09,3.95-.49,4.15-.17Z"/>
      <path class="st9" d="M205.15,338.23c.88.03,1.02.93.27,1.28-4.78.39-9.14,1.64-13.45,3.68-.64.3-2.52,1.86-2.85.69-.19-.68.7-.96,1.23-1.28,3.17-1.89,7.58-3.24,11.21-3.86.93-.16,2.73-.54,3.58-.51Z"/>
      <path class="st9" d="M159.34,333.76c.25-.24,5.79-1.24,6.6-1.36,2.52-.36,7.29-.88,9.67-.18.53.16.94.64.57,1.17-.29.42-2.19-.15-2.75-.18-2.86-.16-6.03.26-8.85.73-.97.16-4.33,1.14-4.98.95-.48-.14-.61-.79-.25-1.13Z"/>
      <path class="st9" d="M172.96,339.76c1.2-.06,4.35-.08,5.38.34.67.27.83,1.11.19,1.31-.31.1-1.83-.31-2.36-.33-2.67-.14-5.54.14-8.18.57-1.67.27-3.79,1.03-5.39,1.14-1.07.07-.97-1.03-.27-1.31,3.53-.65,7.02-1.52,10.63-1.71Z"/>
      <path class="st9" d="M177.42,337.29c-.37.23-2.54-.28-3.14-.31-4.21-.25-8.95.96-13.05,1.83-1.13-.16-.93-1.15.07-1.45,3.46-1.03,12.11-2.21,15.47-1.34.63.16,1.23.9.65,1.27Z"/>
      <path class="st9" d="M202.25,334.28c.49-.04,1.96-.25,1.73.69-.16.64-2.9.72-3.61.85-3.72.72-6.43,1.59-9.84,3.17-.63.29-1.89,1.25-2.45.98-1.16-.57.81-1.59,1.25-1.83,3.5-1.95,8.93-3.56,12.93-3.86Z"/>
      <path class="st9" d="M184.84,330.66c3.67-2.05,7.43-3.48,11.58-4.26.68-.13,3.77-.67,4.15-.48.32.16.47.65.27.95-.18.26-4.8.89-5.61,1.07-3.45.77-6.62,2.12-9.71,3.81-.65.03-.83-.53-.67-1.09Z"/>
      <path class="st9" d="M200.54,330c.7-.06,1.77-.34,1.58.72-.04.22-.06.32-.29.4-1.03.34-3.1.37-4.34.62-3.72.76-7.28,2.12-10.57,4.01-2.02-.32-.18-1.41.7-1.89,3.59-1.97,8.85-3.5,12.93-3.86Z"/>
      <path class="st9" d="M171.76,344.39c1.03-.09,2.85-.23,1.45,1.1l-8.7,1.59c-1.29.22-1.87-.87-.46-1.32,1.68-.55,5.88-1.21,7.71-1.36Z"/>
      <path class="st9" d="M174.15,348.16c.88.03,1.02.93.27,1.28-1.17.12-2.36.22-3.51.43-1.55.28-4.15,1.12-5.54,1.16-1.05.03-1.12-.89-.29-1.33,2.13-.28,4.22-.89,6.34-1.19.7-.1,2.11-.36,2.73-.34Z"/>
      <path class="st9" d="M172.96,353.88c-.28.27-6.94,1.44-7.3,1.21-.23-.15-.24-.76.05-1.01.85-.73,5.4-.83,6.7-1.37.66-.06,1,.73.55,1.17Z"/>
    </g>
  </g>
  <g>
    <rect class="st6" x="137.89" y="429.14" width="30.39" height="24.9" rx="3.84" ry="3.84"/>
    <rect class="st6" x="168.32" y="429.14" width="30.39" height="24.9" rx="3.84" ry="3.84"/>
    <rect class="st6" x="198.75" y="429.14" width="30.39" height="24.9" rx="3.84" ry="3.84"/>
    <g>
      <path class="st3" d="M175.4,446.16c0,.46-.09.87-.27,1.2-.18.34-.42.6-.72.79-.3.19-.64.28-1.01.28-.2,0-.37-.07-.49-.2-.13-.13-.19-.3-.19-.48v-.13c0-.18.06-.32.18-.43.12-.11.27-.19.45-.24.2-.07.33-.16.42-.27.08-.12.13-.26.15-.42.02-.16.03-.33.03-.51v-5.48c0-.21.07-.39.21-.53.14-.14.31-.21.53-.21s.39.07.53.21c.14.14.21.32.21.53v5.91ZM174.64,438.71c-.28,0-.47-.04-.59-.13-.11-.09-.17-.25-.17-.48v-.23c0-.24.06-.4.19-.48.13-.09.32-.13.58-.13.28,0,.48.04.6.13.11.09.17.25.17.48v.23c0,.24-.06.4-.18.48-.12.09-.32.13-.6.13Z"/>
      <path class="st3" d="M180.19,446.16c-.69,0-1.29-.14-1.8-.43-.51-.29-.9-.68-1.17-1.18-.27-.5-.41-1.06-.41-1.69,0-.73.15-1.36.45-1.87.3-.52.69-.91,1.17-1.19.48-.28.99-.42,1.53-.42.42,0,.81.09,1.18.26.37.17.7.41.98.7.28.3.51.64.68,1.03.17.39.25.81.25,1.25,0,.2-.09.35-.23.48-.15.12-.32.18-.51.18h-4.67l-.37-1.22h4.48l-.27.24v-.33c-.02-.24-.1-.45-.25-.64-.15-.19-.34-.34-.56-.45-.22-.11-.46-.16-.71-.16s-.47.03-.68.1c-.21.07-.4.18-.55.33-.15.15-.28.36-.37.62-.09.26-.13.59-.13.99,0,.44.09.81.27,1.12.18.31.42.54.71.7.29.16.6.24.92.24.3,0,.54-.02.72-.07.18-.05.32-.11.43-.18.11-.07.21-.13.3-.18.15-.07.28-.11.42-.11.18,0,.33.06.45.18.12.12.18.26.18.43,0,.22-.11.42-.34.6-.21.18-.51.34-.89.47-.38.13-.78.2-1.18.2Z"/>
      <path class="st3" d="M187.22,439.38c.46,0,.87.05,1.22.15.35.1.61.23.81.41.19.18.29.38.29.63,0,.16-.05.32-.15.46-.1.14-.24.21-.43.21-.13,0-.24-.02-.32-.05s-.16-.08-.23-.14c-.07-.06-.14-.11-.23-.16-.08-.05-.21-.09-.37-.12-.17-.03-.29-.04-.37-.04-.42,0-.77.09-1.06.27-.29.18-.51.42-.67.73-.15.31-.23.66-.23,1.06s.08.74.24,1.04c.16.31.38.55.66.73.28.18.6.27.97.27.2,0,.38-.01.53-.04s.27-.06.37-.11c.11-.07.22-.13.31-.21.09-.07.22-.11.4-.11.21,0,.37.07.49.2.11.13.17.3.17.49s-.11.39-.34.56c-.23.17-.53.3-.9.4-.37.1-.77.15-1.2.15-.64,0-1.2-.15-1.67-.45-.47-.3-.84-.7-1.09-1.22-.26-.51-.38-1.09-.38-1.72,0-.67.14-1.26.41-1.77.27-.51.65-.91,1.14-1.2.48-.29,1.04-.43,1.67-.43Z"/>
      <path class="st3" d="M190.74,439.62h2.89c.2,0,.36.07.49.2.13.13.2.29.2.49s-.07.34-.2.47c-.13.13-.29.19-.49.19h-2.89c-.2,0-.36-.07-.49-.2-.13-.13-.2-.29-.2-.49s.07-.34.2-.47c.13-.13.29-.19.49-.19ZM192.05,438.1c.21,0,.38.07.52.21.13.14.2.32.2.53v5.44c0,.11.02.21.07.28.04.07.11.13.18.16.08.03.16.05.25.05.1,0,.19-.02.27-.05.08-.04.18-.05.28-.05.11,0,.22.05.31.16.09.11.14.25.14.44,0,.23-.12.42-.37.56-.25.15-.52.22-.8.22-.17,0-.36-.01-.57-.04-.21-.03-.4-.1-.59-.21-.18-.11-.34-.28-.46-.51-.12-.23-.18-.54-.18-.94v-5.5c0-.21.07-.39.21-.53.14-.14.32-.21.53-.21Z"/>
    </g>
    <g>
      <path class="st3" d="M206.84,438.6c-.28,0-.47-.04-.59-.13-.11-.09-.17-.25-.17-.48v-.23c0-.24.06-.4.19-.48.13-.09.32-.13.58-.13.28,0,.48.04.6.13.11.09.17.25.17.48v.23c0,.24-.06.4-.18.48-.12.09-.32.13-.6.13ZM207.58,445.18c0,.21-.07.39-.21.53-.14.14-.31.21-.53.21s-.39-.07-.53-.21c-.14-.14-.21-.32-.21-.53v-5.04c0-.21.07-.39.21-.53.14-.14.31-.21.53-.21s.39.07.53.21c.14.14.21.32.21.53v5.04Z"/>
      <path class="st3" d="M209.38,439.39c.15,0,.3.04.43.12.13.08.23.19.29.35l1.8,4.1-.27.12,1.83-4.21c.14-.33.35-.48.65-.46.2,0,.37.06.49.19.13.13.19.28.19.47,0,.06-.01.12-.03.18-.02.07-.04.13-.07.18l-2.28,5.03c-.13.29-.34.45-.62.46-.15.02-.3,0-.45-.09-.14-.08-.25-.21-.32-.38l-2.27-5.03s-.03-.09-.05-.16c-.02-.07-.03-.14-.03-.23,0-.15.07-.29.2-.43.13-.14.31-.21.53-.21Z"/>
      <path class="st3" d="M218.97,446.05c-.69,0-1.29-.14-1.8-.43-.51-.29-.9-.68-1.17-1.18-.27-.5-.41-1.06-.41-1.69,0-.73.15-1.36.45-1.87.3-.52.69-.91,1.17-1.19.48-.28.99-.42,1.53-.42.42,0,.81.09,1.18.26.37.17.7.41.98.7.28.3.51.64.68,1.03.17.39.25.81.25,1.25,0,.2-.09.35-.23.48-.15.12-.32.18-.51.18h-4.67l-.37-1.22h4.48l-.27.24v-.33c-.02-.24-.1-.45-.25-.64-.15-.19-.34-.34-.56-.45-.22-.11-.46-.16-.71-.16s-.47.03-.68.1c-.21.07-.4.18-.55.33-.15.15-.28.36-.37.62-.09.26-.13.59-.13.99,0,.44.09.81.27,1.12.18.31.42.54.71.7.29.16.6.24.92.24.3,0,.54-.02.72-.07.18-.05.32-.11.43-.18.11-.07.21-.13.3-.18.15-.07.28-.11.42-.11.18,0,.33.06.45.18.12.12.18.26.18.43,0,.22-.11.42-.34.6-.21.18-.51.34-.89.47-.38.13-.78.2-1.18.2Z"/>
    </g>
    <g>
      <path class="st3" d="M152.57,442.79c0,.67-.15,1.26-.45,1.77-.3.51-.7.91-1.2,1.19-.5.29-1.06.43-1.68.43s-1.18-.14-1.68-.43c-.5-.28-.9-.68-1.2-1.19-.3-.51-.45-1.1-.45-1.77s.15-1.26.45-1.77c.3-.51.7-.91,1.2-1.2.5-.29,1.06-.43,1.68-.43s1.18.14,1.68.43c.5.29.9.69,1.2,1.2.3.51.45,1.1.45,1.77ZM151.11,442.79c0-.42-.08-.78-.25-1.08-.17-.31-.39-.54-.67-.71-.28-.17-.59-.26-.93-.26s-.65.09-.93.26c-.28.17-.51.41-.67.71-.17.31-.25.67-.25,1.08s.08.76.25,1.07c.17.31.39.54.67.71.28.17.59.26.93.26s.65-.09.93-.26c.28-.17.5-.41.67-.71.17-.31.25-.66.25-1.07Z"/>
      <path class="st3" d="M157.24,439.4c.57,0,1.08.14,1.53.43.45.29.81.69,1.07,1.19.26.5.4,1.09.4,1.76s-.13,1.26-.4,1.77c-.26.51-.62.91-1.06,1.2-.44.29-.94.43-1.5.43-.33,0-.63-.05-.92-.16-.29-.11-.54-.24-.75-.4-.22-.16-.38-.33-.5-.49-.12-.17-.18-.31-.18-.42l.38-.16v.89c0,.21-.07.39-.21.53-.14.14-.31.21-.53.21s-.39-.07-.53-.21c-.14-.14-.21-.32-.21-.54v-7.67c0-.21.07-.39.21-.53.14-.14.31-.21.53-.21s.39.07.53.21c.14.14.21.32.21.53v3.1l-.21-.11c0-.11.06-.23.17-.38.11-.15.27-.3.46-.45.2-.15.42-.27.68-.37.26-.1.53-.15.81-.15ZM157.06,440.74c-.36,0-.67.09-.94.27-.27.18-.48.42-.63.73-.15.31-.23.65-.23,1.04s.08.73.23,1.04c.15.31.36.56.63.74.27.18.58.27.94.27s.67-.09.93-.27c.26-.18.47-.43.62-.74.15-.31.23-.66.23-1.04s-.08-.74-.23-1.04c-.15-.31-.36-.55-.62-.73-.26-.18-.58-.27-.93-.27Z"/>
    </g>
  </g>
  <g>
    <g id="degvMV">
      <g>
        <path class="st4" d="M182.97,515.61c3.67.37,6.08,4.23,4.67,7.7,1.81,1.51,2.9,3.74,2.41,6.13-.34,1.65-1.52,2.89-3.15,3.3.09,1.61-.54,3.04-1.75,4.09-2.75,2.4-7.78,2.38-11.19,1.84-.52-.08-1.03-.21-1.54-.32-1.28,1.55-3.26,2.33-5.23,2.52-3.28.32-7.99-1.2-9.5-4.37-.08-.18-.25-.76-.33-.84-.08-.09-.64-.27-.81-.36-2.79-1.48-3.02-5.27-1.44-7.72-1.45-2.83-.13-6.57,2.85-7.75-.15-1.3.01-2.4.76-3.48,1.25-1.79,3.23-2.45,5.35-2.08.67.12,1.3.36,1.94.54,1.86-2.79,6.02-3.15,8.29-.66,2.67-2.36,6.97-1.67,8.67,1.47ZM173.29,516.11c-.12.1-.33.04-.34-.11-.03-.3.64-1.05.82-1.32.05-.07.07-.02,0-.1-.06-.07-.54-.34-.66-.41-2.28-1.23-4.78-.91-6.66.86-.02.04.71.3.79.43.09.14,0,.33-.16.34-.1,0-1.14-.38-1.37-.44-2.23-.58-4.39-.6-5.99,1.27-.88,1.03-1.04,2.05-.99,3.38.01.29.28,1.09-.19,1.13-.36.03-.36-.65-.45-.65-1.77,1.33-2.9,3.35-2.77,5.61,0,.12.1.94.18.94.14-.19.8-.86.98-.91.14-.04.29.02.27.17-.02.19-.42.58-.55.77-.6.88-1.05,1.86-1.13,2.94-.2,2.7.94,4.48,3.56,5.17.28.08,1.06.03.82.53-.16.32-1.22.1-1.54.09,1.34,2.52,4.41,3.76,7.14,4.04,2.14.22,4.88-.16,6.56-1.61.04-.03.1,0,.06-.12-.28-.06-1.64-.27-.99-.66,2.7.54,5.47.81,8.23.56,1.86-.17,4.31-.78,5.74-2.03.98-.86,1.66-2.26,1.44-3.57-.05-.33-.57-1.18-.02-1.2.36-.02.44.65.66.86,2.49-1.06,2.98-3.9,1.97-6.23-.25-.58-.73-1.33-1.13-1.82-.14-.17-.77-.77-.8-.88-.12-.39.28-.25.3-.27.03-.03.1-.77.1-.89.03-.96-.23-2.1-.65-2.96-.85-1.72-2.84-2.9-4.73-3.04-.38-.36.31-.39.3-.46-.69-.71-1.61-1.3-2.56-1.6-2.21-.69-4.36.09-5.89,1.73-.1.11-.25.36-.34.44Z"/>
        <path class="st4" d="M165.03,548.33s.09.21.03.35c-.17.38-.95-.07-1.23-.14-.34-.08-1.37-.09-1.59-.34-.18-.21,0-.5.25-.51-1.46-1.34-1.33-3.87.39-4.94,1.15-.72,2.3-.45,3.4.18,2.12,1.23,1.31,4.4-.72,5.24-.1.04-.52.13-.53.15ZM164.41,543.06c-1.94.24-2.52,2.74-1.28,4.1.11.12.56.5.71.51.18.01.81-.18,1.01-.25,2.53-.89,2.38-4.7-.44-4.36Z"/>
        <path class="st4" d="M158.82,549.06c.57-.06,1.39.27,1.84.62,2.27,1.78-.68,4.68-2.74,3.24-1.58-1.1-.98-3.66.9-3.87ZM159.07,549.76c-.59.05-1.15.91-1.1,1.48.06.73,1,1.54,1.69,1.19.54-.27,1.01-1.11.74-1.69-.15-.31-.99-1.02-1.32-.99Z"/>
      </g>
    </g>
    <path class="st5" d="M210.62,525.71h-24.22c-1.26,0-2.29,1.03-2.29,2.29v19.55c0,1.26,1.03,2.29,2.29,2.29h12.43c.28,0,.55.14.71.37l6.04,8.71c.83.92,2.36.34,2.36-.9l-1.54-7.16c-.09-.53.31-1.01.85-1.01h3.38c1.26,0,2.29-1.03,2.29-2.29v-19.55c0-1.26-1.03-2.29-2.29-2.29Z"/>
  </g>
  <g>
    <g id="_x35_kEdL7">
      <path class="st1" d="M208.56,612.54c2.84-.28,6.23,4.04,3.92,6.56-6.72,6.62-13.24,13.41-19.98,19.97-.83.81-.78,1-1.97,1.48-1.95.79-4.07,1.34-6.01,2.16-1.25.21-1.61-.57-1.3-1.67.6-2.18,1.78-4.52,2.48-6.69,6.81-6.69,13.39-13.57,20.21-20.2.86-.84,1.28-1.48,2.66-1.61ZM210.04,619.32h.13c.88-.83,1.9-1.57,1.51-2.96-.21-.75-1.63-2.19-2.42-2.3-1.33-.18-2.01.63-2.76,1.57l3.54,3.69ZM205.37,616.7l-18.04,18.02,3.63,3.73,18.16-18.07-3.75-3.67ZM189.42,639.39l-3-3-1.54,4.63,4.54-1.64Z"/>
    </g>
    <path class="st2" d="M154.27,642.79c9.16.12,10.6.15,19.76.06,3.31-.03,6.62-.06,9.93-.09.64,0,.64-1,0-.99-9.19.07-18.37.21-27.56.14-3.28-.03,1.16-.07-2.13-.11-.64,0-.64.98,0,.99h0Z"/>
    <path class="st2" d="M154.27,647.81c14.33.19,20.94.18,35.27-.04,4.04-.06,8.08-.14,12.12-.23.64-.01.64-1.01,0-.99-14.33.33-28.66.45-42.99.38-4.04-.02-.36-.06-4.4-.11-.64,0-.64.98,0,.99h0Z"/>
  </g>
</svg>