<?xml version="1.0" encoding="UTF-8"?>
<svg id="Layer_1" xmlns="http://www.w3.org/2000/svg" version="1.1" viewBox="0 0 465.29 311.71">
  <!-- Generator: Adobe Illustrator 29.7.1, SVG Export Plug-In . SVG Version: 2.1.1 Build 8)  -->
  <defs>
    <style>
      .st0 {
        fill: none;
        stroke-width: 4.76px;
      }

      .st0, .st1 {
        stroke: #adc716;
        stroke-miterlimit: 10;
      }

      .st2 {
        fill: #adc716;
      }

      .st1 {
        fill: #fff7f0;
        stroke-width: 2.34px;
      }
    </style>
  </defs>
  <rect class="st1" x="43.76" y="40.46" width="377.77" height="230.79" rx="23.53" ry="23.53"/>
  <g>
    <rect class="st0" x="104.77" y="120.96" width="85.17" height="69.79" rx="10.76" ry="10.76"/>
    <rect class="st0" x="190.06" y="120.96" width="85.17" height="69.79" rx="10.76" ry="10.76"/>
    <rect class="st0" x="275.35" y="120.96" width="85.17" height="69.79" rx="10.76" ry="10.76"/>
    <g>
      <path class="st2" d="M209.9,168.64c0,1.3-.25,2.42-.75,3.37-.5.95-1.18,1.68-2.02,2.21-.84.52-1.79.79-2.84.79-.57,0-1.03-.19-1.39-.56-.35-.38-.53-.83-.53-1.35v-.38c0-.5.17-.9.5-1.2.33-.3.75-.53,1.25-.68.55-.18.94-.44,1.16-.77.23-.33.37-.72.43-1.18.06-.46.09-.94.09-1.44v-15.37c0-.59.19-1.09.58-1.49.39-.4.88-.6,1.47-.6s1.08.2,1.47.6c.39.4.58.9.58,1.49v16.57ZM207.78,147.76c-.78,0-1.32-.13-1.64-.38-.32-.25-.48-.7-.48-1.34v-.65c0-.66.18-1.11.53-1.35.35-.24.9-.36,1.63-.36.8,0,1.36.13,1.68.38.32.25.48.7.48,1.34v.65c0,.66-.17,1.11-.51,1.35-.34.24-.9.36-1.68.36Z"/>
      <path class="st2" d="M223.32,168.64c-1.94,0-3.62-.4-5.05-1.22-1.43-.81-2.52-1.91-3.29-3.3-.77-1.39-1.15-2.97-1.15-4.72,0-2.05.42-3.81,1.25-5.25.83-1.45,1.92-2.56,3.27-3.34,1.35-.78,2.77-1.16,4.28-1.16,1.16,0,2.26.24,3.3.72,1.04.48,1.96,1.14,2.76,1.97.8.83,1.43,1.8,1.9,2.89.47,1.1.7,2.26.7,3.49-.02.55-.24.99-.65,1.34-.41.34-.89.51-1.44.51h-13.08l-1.03-3.42h12.56l-.75.68v-.92c-.05-.66-.28-1.25-.7-1.78-.42-.52-.95-.94-1.57-1.25-.63-.31-1.3-.46-2-.46s-1.32.09-1.92.27c-.59.18-1.11.49-1.54.92-.43.43-.78,1.02-1.03,1.75-.25.73-.38,1.65-.38,2.77,0,1.23.26,2.28.77,3.13.51.86,1.18,1.51,1.99,1.95.81.44,1.67.67,2.58.67.84,0,1.52-.07,2.02-.21.5-.14.91-.3,1.22-.5.31-.19.59-.36.84-.5.41-.21.8-.31,1.16-.31.5,0,.92.17,1.25.51.33.34.5.74.5,1.2,0,.62-.32,1.18-.96,1.68-.59.5-1.43.94-2.5,1.32-1.07.38-2.18.56-3.32.56Z"/>
      <path class="st2" d="M243.03,149.64c1.3,0,2.44.14,3.41.41.97.27,1.72.66,2.26,1.15.54.49.8,1.08.8,1.76,0,.46-.14.88-.41,1.28-.27.4-.67.6-1.2.6-.37,0-.67-.05-.91-.15s-.45-.23-.63-.39c-.18-.16-.4-.31-.65-.45-.23-.14-.58-.24-1.04-.33-.47-.08-.82-.12-1.04-.12-1.16,0-2.15.25-2.96.75-.81.5-1.43,1.18-1.87,2.04-.43.86-.65,1.84-.65,2.96s.22,2.07.67,2.93c.44.86,1.06,1.54,1.85,2.04.79.5,1.69.75,2.72.75.57,0,1.06-.03,1.47-.1s.75-.17,1.03-.31c.32-.18.6-.38.86-.58.25-.21.63-.31,1.13-.31.59,0,1.05.19,1.37.56.32.38.48.84.48,1.39s-.32,1.09-.96,1.56c-.64.47-1.48.84-2.52,1.13-1.04.29-2.16.43-3.37.43-1.8,0-3.37-.42-4.69-1.25-1.32-.83-2.35-1.97-3.06-3.41-.72-1.44-1.08-3.05-1.08-4.83,0-1.87.38-3.52,1.15-4.95.76-1.43,1.83-2.54,3.18-3.35,1.36-.81,2.92-1.22,4.67-1.22Z"/>
      <path class="st2" d="M252.89,150.33h8.11c.55,0,1,.18,1.37.55.36.37.55.82.55,1.37s-.18.96-.55,1.32c-.37.35-.82.53-1.37.53h-8.11c-.55,0-1-.18-1.37-.55-.37-.36-.55-.82-.55-1.37s.18-.96.55-1.32c.36-.35.82-.53,1.37-.53ZM256.56,146.05c.59,0,1.08.2,1.45.6.38.4.56.9.56,1.49v15.23c0,.32.06.58.19.79.13.21.3.35.51.44.22.09.45.14.7.14.27,0,.52-.05.75-.15.23-.1.49-.15.79-.15.32,0,.61.15.87.45.26.3.39.71.39,1.23,0,.64-.35,1.16-1.04,1.57-.7.41-1.44.62-2.24.62-.48,0-1.01-.04-1.59-.12-.58-.08-1.13-.27-1.64-.58-.51-.31-.94-.78-1.28-1.42-.34-.64-.51-1.52-.51-2.64v-15.4c0-.59.2-1.09.6-1.49.4-.4.9-.6,1.49-.6Z"/>
    </g>
    <g>
      <path class="st2" d="M298.01,147.45c-.78,0-1.32-.13-1.64-.38-.32-.25-.48-.7-.48-1.34v-.65c0-.66.18-1.11.53-1.35.35-.24.9-.36,1.63-.36.8,0,1.36.13,1.68.38.32.25.48.7.48,1.34v.65c0,.66-.17,1.11-.51,1.35-.34.24-.9.36-1.68.36ZM300.1,165.9c0,.59-.19,1.09-.58,1.49-.39.4-.88.6-1.47.6s-1.08-.2-1.47-.6c-.39-.4-.58-.9-.58-1.49v-14.14c0-.59.19-1.09.58-1.49.39-.4.88-.6,1.47-.6s1.08.2,1.47.6c.39.4.58.9.58,1.49v14.14Z"/>
      <path class="st2" d="M305.13,149.68c.43,0,.83.11,1.2.33.36.22.64.54.82.98l5.03,11.5-.75.34,5.13-11.81c.39-.91.99-1.35,1.81-1.3.57,0,1.03.18,1.39.53.35.35.53.79.53,1.32,0,.16-.03.33-.09.51-.06.18-.12.35-.19.51l-6.4,14.1c-.37.82-.95,1.26-1.75,1.3-.43.07-.85-.01-1.25-.24-.4-.23-.7-.58-.91-1.06l-6.37-14.1c-.05-.11-.1-.26-.15-.44-.06-.18-.09-.4-.09-.65,0-.41.18-.82.55-1.22.36-.4.86-.6,1.47-.6Z"/>
      <path class="st2" d="M332,168.33c-1.94,0-3.62-.4-5.05-1.22-1.43-.81-2.52-1.91-3.29-3.3-.77-1.39-1.15-2.97-1.15-4.72,0-2.05.42-3.81,1.25-5.25.83-1.45,1.92-2.56,3.27-3.34,1.35-.78,2.77-1.16,4.28-1.16,1.16,0,2.26.24,3.3.72,1.04.48,1.96,1.14,2.76,1.97.8.83,1.43,1.8,1.9,2.89.47,1.1.7,2.26.7,3.49-.02.55-.24.99-.65,1.34-.41.34-.89.51-1.44.51h-13.08l-1.03-3.42h12.56l-.75.68v-.92c-.05-.66-.28-1.25-.7-1.78-.42-.52-.95-.94-1.57-1.25-.63-.31-1.3-.46-2-.46s-1.32.09-1.92.27c-.59.18-1.11.49-1.54.92-.43.43-.78,1.02-1.03,1.75-.25.73-.38,1.65-.38,2.77,0,1.23.26,2.28.77,3.13.51.86,1.18,1.51,1.99,1.95.81.44,1.67.67,2.58.67.84,0,1.52-.07,2.02-.21.5-.14.91-.3,1.22-.5.31-.19.59-.36.84-.5.41-.21.8-.31,1.16-.31.5,0,.92.17,1.25.51.33.34.5.74.5,1.2,0,.62-.32,1.18-.96,1.68-.59.5-1.43.94-2.5,1.32-1.07.38-2.18.56-3.32.56Z"/>
    </g>
    <g>
      <path class="st2" d="M145.92,159.21c0,1.87-.42,3.52-1.25,4.95-.83,1.43-1.95,2.54-3.35,3.34-1.4.8-2.97,1.2-4.71,1.2s-3.3-.4-4.71-1.2c-1.4-.8-2.52-1.91-3.35-3.34-.83-1.43-1.25-3.08-1.25-4.95s.42-3.52,1.25-4.95c.83-1.43,1.95-2.54,3.35-3.35,1.4-.81,2.97-1.22,4.71-1.22s3.3.41,4.71,1.22c1.4.81,2.52,1.93,3.35,3.35.83,1.43,1.25,3.08,1.25,4.95ZM141.81,159.21c0-1.16-.23-2.17-.7-3.03-.47-.86-1.1-1.52-1.88-2-.79-.48-1.66-.72-2.62-.72s-1.83.24-2.62.72c-.79.48-1.42,1.15-1.88,2-.47.86-.7,1.87-.7,3.03s.23,2.14.7,3c.47.86,1.1,1.52,1.88,2,.79.48,1.66.72,2.62.72s1.83-.24,2.62-.72c.79-.48,1.41-1.15,1.88-2,.47-.86.7-1.85.7-3Z"/>
      <path class="st2" d="M159,149.69c1.6,0,3.03.41,4.3,1.22,1.27.81,2.27,1.92,3.01,3.34.74,1.42,1.11,3.06,1.11,4.93s-.37,3.52-1.11,4.95c-.74,1.43-1.73,2.54-2.98,3.35-1.24.81-2.64,1.22-4.19,1.22-.91,0-1.77-.15-2.57-.44-.8-.3-1.5-.67-2.11-1.13-.6-.46-1.07-.92-1.4-1.39-.33-.47-.5-.86-.5-1.18l1.06-.44v2.5c0,.59-.19,1.09-.58,1.49-.39.4-.88.6-1.47.6s-1.08-.19-1.47-.58c-.39-.39-.58-.89-.58-1.51v-21.5c0-.59.19-1.09.58-1.49.39-.4.88-.6,1.47-.6s1.08.2,1.47.6c.39.4.58.9.58,1.49v8.7l-.58-.31c0-.3.16-.66.48-1.08.32-.42.75-.84,1.3-1.27.55-.42,1.18-.77,1.9-1.04.72-.27,1.48-.41,2.28-.41ZM158.49,153.46c-1,0-1.88.25-2.64.75-.75.5-1.34,1.18-1.76,2.04-.42.86-.63,1.83-.63,2.93s.21,2.05.63,2.93c.42.88,1.01,1.57,1.76,2.07.75.5,1.63.75,2.64.75s1.88-.25,2.62-.75c.74-.5,1.32-1.19,1.75-2.07.42-.88.63-1.85.63-2.93s-.21-2.07-.63-2.93c-.42-.86-1-1.53-1.75-2.04-.74-.5-1.61-.75-2.62-.75Z"/>
    </g>
  </g>
</svg>