<?xml version="1.0" encoding="UTF-8"?>
<svg id="Layer_1" xmlns="http://www.w3.org/2000/svg" version="1.1" viewBox="0 0 595.72 569.6">
  <!-- Generator: Adobe Illustrator 29.7.1, SVG Export Plug-In . SVG Version: 2.1.1 Build 8)  -->
  <defs>
    <style>
      .st0 {
        fill: #002e52;
      }

      .st1 {
        fill: #523cac;
      }

      .st2, .st3 {
        stroke: #adc716;
      }

      .st2, .st3, .st4, .st5, .st6, .st7, .st8, .st9, .st10, .st11 {
        stroke-miterlimit: 10;
      }

      .st2, .st3, .st5, .st6, .st7, .st10, .st11 {
        fill: #002f55;
      }

      .st2, .st4, .st7, .st9 {
        stroke-width: 1.79px;
      }

      .st3, .st5, .st6, .st11 {
        stroke-width: 1.8px;
      }

      .st4 {
        stroke: #fff7f0;
      }

      .st4, .st12 {
        fill: #e44c17;
      }

      .st5 {
        stroke: #dd2080;
      }

      .st13 {
        fill: #adc716;
      }

      .st14 {
        fill: #33c5b5;
      }

      .st6, .st7 {
        stroke: #33c5b5;
      }

      .st8 {
        fill: none;
        stroke: #7f8080;
        stroke-width: .89px;
      }

      .st9 {
        fill: #fff7f0;
      }

      .st9, .st11 {
        stroke: #ecaa19;
      }

      .st10 {
        stroke: #e44c17;
        stroke-width: 2.69px;
      }

      .st15 {
        fill: #dd2080;
      }

      .st16 {
        fill: #ecaa19;
      }
    </style>
  </defs>
  <path class="st7" d="M159.63,249.4l-13.02,16.15c-1.77,2.2.69,5.26,3.22,4l91.4-45.51-81.59,25.36Z"/>
  <g>
    <path class="st8" d="M325.2,469.78l-161.39-26.41c-3.55-.55-5.53-4.39-3.93-7.6l12.44-24.89c.88-1.77,2.68-2.9,4.65-2.93l232.19-3.5c2.12-.03,4.06,1.2,4.92,3.14l3.73,8.39c1.15,2.59.05,5.64-2.49,6.89l-86.97,46.41c-.98.48-2.08.65-3.15.49Z"/>
    <path class="st2" d="M422.23,220.95l14.5-30.1c1.69-3.51-.32-7.67-4.12-8.53l-141.3-19.63c-2.51-.57-5.11.52-6.47,2.71l-23.15,37.26c-.56.91-.88,1.94-.91,3.01l-1.54,69.25c-.14,4.56,72.31,10.65,76.4,8.63l83.82-59.81c1.21-.6,2.19-1.58,2.77-2.8Z"/>
    <polygon class="st2" points="260.9 266.64 164.49 247.74 260.78 205.67 260.9 266.64"/>
    <g>
      <path class="st15" d="M313.18,201.07c.13-.21.27-.42.4-.64-.37-2.42-7.58,12.31-.4.64Z"/>
      <path class="st5" d="M467.02,220.41c.06-1.03-.05-2.07-.34-3.05-1.03-3.46-3.94-6.14-7.26-7.56-3.32-1.42-7.02-1.7-10.62-1.56-8.77.34-24.53,4.64-36.01,8.47-3.87,1.29-2.83-2.07-2.02-2.68,3.83-2.89,8.18-4.99,12.44-7.15s8.25-4.11,11.53-7.36c2.44-2.42,4.33-5.59,4.78-9.03.22-1.69.07-2.86-.8-4.29s-2.25-2.55-3.83-3.18c-4.21-1.67-8.52-.5-12.54.93-13.32,4.76-25.24,13.15-36.34,21.71,3.79-2.93,6.55-7.49,9.6-11.16,3.52-4.24,7.14-8.4,10.85-12.47,7.33-8.03,15.02-15.72,23.06-23.04,3.91-3.56,8.02-7.19,9.67-12.36.62-1.95.77-4.04.34-6.04-1.58-7.29-8.98-8.4-14.38-6.14-3.88,1.62-6.98,4.65-9.97,7.61-8.4,8.33-16.87,16.63-24.9,25.25-3.46,3.71-6.9,7.44-10.27,11.24-1.06,1.2-5.33,4.79-5.33,6.56,4.51-9.85,9.96-19.32,14.9-28.96,5.96-11.64,11.46-23.09,14.71-35.85.6-2.36,1.15-4.81.31-7.24-.23-.67-.59-1.31-1.08-1.84-2.9-3.13-7.43-1.01-9.94,1.85-11.63,13.28-23.16,26.53-32.84,41.47-.58.9-1.34,1.69-2.28,2.23-2.42,1.38-3.6.06-3.06-2.65.22-1.11.71-2.16,1.12-3.21,2.59-6.54,2.28-13.62,1.87-20.51-.59-9.76-2.66-22.09-11.07-28.42-3.29-2.48-8.29-3.2-11.41-.51-1.97,1.7-2.8,4.33-3.54,6.82-2.97,9.98-5.94,19.95-8.9,29.93-2.49,8.37-6.61,17.54-5.77,26.47.54,5.68,1.23,11.39,1.95,17.03.16,1.23,1.96,6.95.88,7.76-9.93,7.72-.31.23-6.98,10.96.09.58-.21,2.13-1.2,5.25-.01.04-.02.07-.03.11l-10.98,40.27,36.61,39.35s43.49-23.56,43.93-23.79c1.83-.99,3.67-4.24,5.01-5.8,2.88-3.34,5.77-6.68,8.65-10.02,2.61-3.03,6.31-4.57,9.95-5.9,4.09-1.5,7.48-3.93,10.65-6.89,3.54-3.31,6.76-6.99,10.73-9.77,3.97-2.78,8.93-4.6,13.65-3.56,4.08.9,7.4,3.76,11,5.87s8.28,3.49,11.85,1.32c2.21-1.34,3.46-3.87,3.61-6.47Z"/>
    </g>
    <path class="st3" d="M332.35,222c-1.79-2.27-.96-10.33-1.04-12.99-.29-9.76.48-19.48,2.33-29.06,1.7-8.76,4.73-17.28,9.15-25.04,3.63-6.38,10.3-17.52,17.39-20.53,8.17-3.47,9.19,7.37,9.04,12.95-.19,6.89-.5,13.78-.85,20.67-.25,5-3.95,17.31,4.6,16.94,2.03-.09,3.94-.94,5.79-1.78,5.49-2.49,10.97-4.97,16.46-7.46,2.37-1.07,4.79-2.16,7.38-2.42s5.42.47,7.07,2.49c1.82,2.23,1.78,5.55.64,8.2-1.14,2.65-3.18,4.79-5.19,6.86-4.53,4.68-9.05,9.36-13.58,14.04-1.88,1.94-3.9,4.6-2.79,7.06,1.36,3.01,5.7,2.49,8.92,1.78,4.03-.89,8.5-1.25,12.04.88,10.04,6.03-2.94,17.55-7.9,22.17-11.05,10.29-23.62,19.01-36.11,27.44,0,0-33.35-42.19-33.35-42.2Z"/>
    <path class="st10" d="M202.24,221.46c-8.46-5.54-16.35-12.54-22.94-20.18-6.03-7-11.63-15.87-13.08-25.14-1.65-10.57,3.75-20.64,15.56-16.7,5.26,1.75,7.03,6.66,11.27,9.12,4.19,2.43,7.26-2.59,6.8-7.28-.37-3.74-2.41-7.08-3.91-10.53-4.93-11.29,1.1-23.52,12.27-27.88,15.68-6.12,35.24,6.87,45.65,17.77,5.5,5.76,12.1,13.85,20.04,16.24s15.27-3.89,19.73-9.71c6.21-8.1,18.23-15.8,27.29-20.02,14-6.51,17.72,5.43,17.43,17.24-.17,6.99-1.26,13.94-2.42,20.82-.38,2.29-3.66,20.81,3.98,13.01,4.2-4.29,10.28-9.21,16.32-5.03,3.72,2.58,5.39,7.37,5.31,11.89s-1.64,8.87-3.25,13.1c-9.4,24.68-20.93,48.54-34.44,71.23-.93,1.57-23.57-2.24-25.96-2.48-10.49-1.05-20.97-2.1-31.46-3.15-13.75-1.38-27.5-2.75-41.25-4.13h-.02s-22.93-38.23-22.93-38.23Z"/>
    <path class="st6" d="M183.06,258.17c-.23-.04-1.59-4.13-1.76-4.48-1.71-3.44-4.1-6.61-7.13-8.99-4.23-3.31-9.42-4.79-14.76-4.72-7.86.11-15.84,6.24-23.46,4.07-3.01-.86-5.71-3.04-6.77-5.98-1.63-4.52.96-9.7,4.84-12.53,7.25-5.29,17.23-5.1,25.72-3.93,4.76.66,9.44,1.87,13.95,3.53,1.61.59,6.55,2.23,10.34,4.05,1.78.85,3.77-.63,3.45-2.57-2.04-12.32-3.49-37.33,23.88-16.61,1.17.89,2.82-.13,2.56-1.58-.21-1.17-.36-2.24-.51-2.82-1.31-5.29-2.42-10.72-2.69-16.18-.66-13.13,6.12-17.14,17.48-9.96,6.4,4.04,12.62,9.04,17.25,15.07,3.29,4.28,7.41,12.89,13.75,12.11,7.21-.89,9.42-9.33,12.45-14.64,3.87-6.8,10.94-22.02,20.32-22.34,6.71-.23,12.05,9.51,12.76,15.32.67,5.52-1.87,10.85-4.16,15.91-2.55,5.65-6.88,18.06.81,21.91,0,0,36.29-47.14,31.11-.48-1.54,13.86,15.09-3.98,18.84-6.54,4.7-3.22,11.92-4.45,15.19,1.13.64,1.1,1,2.35,1.12,3.61.38,4.12-4.55,7.57-3.22,11.29,10.36,28.9-22.26,35.87-37.12,49.91,0,0-143.89-23.51-144.25-23.57Z"/>
    <path class="st11" d="M212.75,258.65c-1.67-.21-5.83-10.08-6.56-11.46-3.5-6.59-7.8-14.06-8.97-21.53-.95-6.07.44-9.26,6.99-8.04,8.98,1.68,16.26,8.43,21.59,15.47,3.03,4,7.35,16.91,11.99,18.87,0,0,.73.31.73-2.68,0,0,2.78-23.71,18.15.21,0,0,4.48,9.18,4.48-1.92,0,0,3.42-51.04,18.58-32.68,0,0,5.55,3.63,1.92,30.97,0,0,.21,11.32,5.55,2.78,0,0,10.89-28.4,25.63-17.51,0,0,5.55,3.63-4.7,22,0,0-9.18,14.95.64,6.41,0,0,25.6-16.94,14.72,12.67,0,0-110.52-13.54-110.76-13.57Z"/>
    <path class="st9" d="M157.59,253.62l-3.21,175.3c-.05,2.91,1.97,5.45,4.82,6.03l164.76,34.05c.77.16,1.5-.43,1.51-1.21l2.2-191.72c.03-3.04-2.19-5.64-5.2-6.06l-158-22.27c-3.6-.51-6.83,2.25-6.89,5.88Z"/>
    <path class="st4" d="M329.96,267.96l82.52-40.76c4.05-2,8.78.98,8.73,5.5l-2.12,177.36c-.02,2.08-1.12,4.01-2.9,5.09l-87.19,53.17c-1.54.94-3.51-.18-3.5-1.98l1.1-192.98c.01-2.29,1.32-4.38,3.37-5.39Z"/>
    <path class="st2" d="M327.96,275.44l26.83,35.78c1.75,2.34,4.93,3.09,7.55,1.78l79.67-38.32c3.05-1.52,4.24-5.26,2.63-8.26l-20.55-38.42c-1.54-2.88-5.09-4.02-8.01-2.57l-85.96,40.97c-3.39,1.68-4.43,6.02-2.16,9.05Z"/>
    <g>
      <path class="st13" d="M288.66,327.17c-.05-.09-.1-.19-.15-.28l-3.56,1.38c.05.09.1.19.15.28,4.29,8.25,6.74,17.35,6.74,26.54s-2.45,17.36-6.74,24.01l3.56,2.72c4.64-7.18,7.29-16.01,7.29-25.95s-2.66-19.77-7.29-28.7Z"/>
      <g>
        <path class="st16" d="M241.19,290.67s-.1-.02-.15-.03-.1-.02-.15-.03v4.11s.1.02.15.03.1.02.15.03c18.66,3.56,34.98,16.78,43.77,33.51l3.56-1.38c-9.5-18.08-27.15-32.38-47.33-36.23Z"/>
        <path class="st1" d="M241.04,396.36s-.1-.02-.15-.03c-18.66-3.56-34.98-16.78-43.77-33.51l-3.56,1.38c9.5,18.08,27.15,32.38,47.33,36.23.05,0,.1.02.15.03s.1.02.15.03v-4.11s-.1-.02-.15-.03Z"/>
        <path class="st12" d="M285.1,379.1c-.05.08-.1.15-.15.22-8.79,13.42-25.11,20.51-43.77,17.06v4.11c20.17,3.74,37.82-3.93,47.33-18.44.05-.08.1-.15.15-.22l-3.56-2.72Z"/>
        <path class="st14" d="M193.57,309.05c-.05.08-.1.15-.15.22l3.56,2.72c.05-.08.1-.15.15-.22,8.79-13.42,25.11-20.51,43.77-17.06v-4.11c-20.17-3.74-37.82,3.93-47.33,18.44Z"/>
        <path class="st15" d="M196.97,362.54c-4.29-8.25-6.74-17.35-6.74-26.54s2.45-17.36,6.74-24.01l-3.56-2.72c-4.64,7.18-7.29,16.01-7.29,25.95s2.66,19.77,7.29,28.7c.05.09.1.19.15.28l3.56-1.38c-.05-.09-.1-.19-.15-.28Z"/>
        <path class="st16" d="M229.2,347.65l-5.62-6.45c-1.72-1.97-.23-5.04,2.39-4.91l6.46.32c1.15.06,2.23-.55,2.77-1.57l2.99-5.61c1.16-2.18,4.33-2.07,5.33.19l3.73,8.4c.34.77.99,1.36,1.79,1.62l8.71,2.83c2.27.74,2.78,3.71.9,5.17l-5.29,4.08c-.87.67-1.3,1.77-1.11,2.86l1.17,6.77c.45,2.62-2.51,4.47-4.66,2.91l-6.46-4.67c-.78-.57-1.8-.72-2.71-.4l-7.34,2.55c-2.15.75-4.31-1.11-3.89-3.34l1.53-8.27c.17-.89-.09-1.81-.68-2.49Z"/>
        <g>
          <path class="st0" d="M210.96,412.47c0,.17-.06.31-.19.4-.13.09-.28.12-.44.09-.19-.04-.34-.12-.45-.26s-.17-.3-.17-.47v-5.83c0-.17.06-.31.18-.41.12-.09.28-.12.46-.09.16.03.3.12.43.26.12.14.19.3.19.47v5.83Z"/>
          <path class="st0" d="M217.83,407.32c.16.03.29.11.39.23.1.13.15.27.15.43v5.88c0,.17-.06.31-.18.41-.12.1-.26.13-.44.09-.09-.02-.18-.05-.27-.09-.09-.05-.16-.1-.21-.17l-3.96-5.78.26-.11v4.8c0,.16-.05.29-.16.37-.1.09-.24.12-.41.08-.16-.03-.29-.11-.39-.24-.1-.13-.15-.27-.15-.43v-5.88c0-.17.06-.31.18-.41s.26-.13.44-.09c.09.02.19.05.29.11.1.06.17.12.22.21l3.84,5.62-.17.09v-4.68c0-.16.05-.29.15-.38.1-.09.24-.12.4-.08Z"/>
          <path class="st0" d="M225.24,408.71c.16.03.29.11.39.24.1.13.15.27.15.43v5.88c0,.17-.06.31-.18.41s-.26.13-.44.09c-.09-.02-.18-.05-.27-.1-.09-.05-.16-.1-.21-.16l-3.96-5.78.26-.11v4.8c0,.16-.05.29-.16.37-.1.09-.24.12-.41.08-.16-.03-.29-.11-.39-.24-.1-.13-.15-.27-.15-.43v-5.88c0-.17.06-.31.18-.41.12-.1.26-.13.44-.09.09.02.19.05.29.11.1.06.17.13.22.21l3.84,5.62-.17.09v-4.68c0-.16.05-.29.15-.38.1-.09.23-.12.4-.09Z"/>
          <path class="st0" d="M227.91,409.21l3.38.63c.17.03.32.12.44.25.12.13.18.29.18.46s-.06.29-.18.38c-.12.08-.26.11-.44.07l-2.82-.53.09-.15v1.97l-.08-.1,2.36.44c.17.03.32.12.44.25.12.13.18.29.18.46s-.06.29-.18.38-.26.11-.44.07l-2.33-.44.05-.07v2.04l-.08-.11,2.81.53c.17.03.32.12.44.26.12.14.18.29.18.44,0,.17-.06.29-.18.38-.12.09-.26.11-.44.08l-3.38-.63c-.17-.03-.32-.12-.44-.26-.12-.14-.18-.3-.18-.47v-5.83c0-.17.06-.31.18-.41.12-.1.26-.13.44-.09Z"/>
          <path class="st0" d="M233.79,417.38c-.19-.04-.36-.13-.5-.27s-.22-.31-.22-.48v-5.83c0-.17.06-.31.18-.41s.26-.13.44-.09l2.9.55c.35.07.68.22.98.46.31.24.55.54.74.91s.28.75.28,1.18c0,.26-.05.5-.16.72-.1.22-.25.41-.42.58-.18.16-.38.28-.6.34v-.23c.2.14.35.29.48.45.12.16.22.33.29.5.07.17.11.35.13.53.03.17.05.32.06.45s.03.24.06.33.09.17.18.23c.15.12.24.26.28.43.04.17,0,.31-.12.42-.07.07-.17.11-.28.11s-.23-.02-.34-.06-.21-.09-.28-.15c-.11-.09-.23-.21-.34-.36-.11-.15-.21-.35-.28-.58-.07-.23-.11-.53-.11-.88,0-.11-.02-.22-.06-.33-.04-.1-.1-.2-.17-.28-.07-.08-.17-.16-.28-.21-.11-.06-.25-.1-.4-.13l-2.04-.38.15-.2v2.19c0,.17-.05.31-.14.41-.09.1-.23.13-.39.1ZM234.18,413.84l2.35.44c.12.02.24-.01.35-.1.11-.09.21-.22.28-.4.07-.18.11-.38.11-.61,0-.29-.08-.56-.24-.79-.16-.23-.33-.36-.51-.39l-2.33-.44.12-.3v2.85l-.14-.27Z"/>
          <path class="st0" d="M245.08,419.6c-.47-.09-.89-.23-1.27-.42-.38-.19-.74-.46-1.08-.82-.09-.09-.15-.19-.2-.29-.05-.1-.07-.2-.07-.29,0-.16.06-.28.17-.38s.25-.13.42-.1c.13.02.24.09.34.19.26.26.51.46.76.62.25.16.56.27.93.34.25.05.48.05.69.01.21-.04.38-.11.5-.22.13-.11.19-.24.19-.41,0-.2-.06-.38-.18-.55-.12-.16-.31-.32-.55-.46s-.56-.28-.95-.41c-.36-.12-.68-.26-.96-.43-.28-.16-.51-.35-.69-.55-.19-.21-.32-.43-.42-.68-.09-.25-.14-.52-.14-.81,0-.44.11-.79.34-1.06.23-.27.53-.45.91-.53.38-.09.81-.09,1.27,0,.44.08.84.22,1.21.42.37.2.68.42.91.67.19.19.29.39.29.59,0,.15-.06.27-.17.37s-.25.13-.4.11c-.1-.02-.19-.07-.27-.14-.11-.11-.25-.23-.43-.35-.18-.12-.37-.22-.58-.32-.2-.09-.39-.16-.56-.19-.29-.05-.53-.06-.73-.03-.2.04-.35.11-.45.22-.1.11-.15.25-.15.41,0,.2.06.38.18.53.12.15.29.29.51.41s.49.24.8.36c.4.15.76.3,1.06.46.31.16.56.33.76.53s.35.42.45.68c.1.26.15.56.15.9,0,.44-.12.79-.36,1.06-.24.27-.56.45-.95.55-.39.09-.82.1-1.28.01Z"/>
          <path class="st0" d="M249,414.33c-.17-.03-.32-.11-.44-.24-.12-.13-.18-.28-.18-.46s.06-.3.18-.39c.12-.08.26-.11.44-.07l4.48.84c.17.03.32.11.44.24.12.13.18.28.18.46s-.06.3-.18.38c-.12.08-.26.11-.44.07l-4.48-.84ZM251.22,420.65c-.19-.04-.34-.12-.46-.26-.12-.14-.18-.3-.18-.47v-5.85l1.31.25v5.85c0,.17-.06.31-.19.4-.12.09-.28.12-.48.09Z"/>
          <path class="st0" d="M257.23,416.31l-2.18,4.71c-.05.12-.12.21-.22.26-.1.05-.2.07-.32.05-.18-.03-.32-.11-.4-.23s-.13-.25-.13-.4c0-.06.01-.12.03-.19l2.51-5.56c.05-.12.14-.21.25-.27.11-.05.23-.06.36-.02.12.02.23.08.34.17.1.09.18.2.23.34l2.48,6.38c.03.09.05.18.05.25,0,.18-.06.31-.18.4-.12.08-.25.11-.39.09-.12-.02-.23-.08-.33-.17-.1-.09-.17-.21-.23-.35l-2.17-5.46h.29ZM255.37,419.85l.55-1.06,2.72.51.19,1.2-3.47-.65Z"/>
          <path class="st0" d="M261.81,422.64c-.19-.04-.36-.13-.5-.27-.15-.15-.22-.31-.22-.48v-5.83c0-.17.06-.31.18-.41.12-.1.26-.13.44-.09l2.9.55c.35.07.68.22.98.46.31.24.55.54.74.91.19.36.28.75.28,1.18,0,.26-.05.5-.16.72-.1.22-.25.41-.42.58-.18.16-.38.28-.6.34v-.23c.2.14.35.29.48.45.12.16.22.33.29.5.07.17.11.35.13.53.03.17.05.32.06.45,0,.13.03.24.06.33.03.09.09.17.18.23.15.12.24.26.28.43s0,.31-.12.42c-.07.07-.17.11-.28.11s-.23-.02-.34-.06-.21-.09-.28-.15c-.11-.09-.23-.21-.34-.36s-.21-.35-.28-.58c-.07-.23-.11-.53-.11-.88,0-.11-.02-.22-.06-.33-.04-.1-.1-.2-.17-.28-.07-.08-.17-.16-.28-.21s-.25-.1-.4-.13l-2.04-.38.15-.2v2.19c0,.18-.05.31-.14.41-.09.1-.23.13-.39.1ZM262.2,419.1l2.35.44c.12.02.24-.01.35-.1.11-.09.21-.22.28-.4s.11-.38.11-.61c0-.3-.08-.56-.24-.79-.16-.23-.33-.36-.51-.39l-2.33-.44.12-.3v2.85l-.14-.27Z"/>
          <path class="st0" d="M270.28,424.33c-.47-.09-.89-.23-1.27-.42s-.74-.46-1.08-.82c-.09-.09-.15-.19-.2-.29-.05-.1-.07-.2-.07-.3,0-.15.06-.28.17-.38s.25-.13.42-.1c.13.02.24.09.34.19.25.26.51.46.76.62.25.16.56.27.93.34.25.05.48.05.69.01.21-.04.38-.11.5-.22.13-.11.19-.25.19-.41,0-.2-.06-.38-.18-.55s-.31-.32-.55-.46-.56-.28-.95-.41c-.36-.12-.68-.26-.96-.43-.28-.16-.51-.35-.69-.55-.19-.21-.32-.43-.42-.68-.09-.25-.14-.52-.14-.81,0-.44.11-.79.34-1.06.23-.27.53-.45.91-.53.38-.09.81-.09,1.27,0,.44.08.84.22,1.22.43.37.2.68.42.91.67.19.19.29.39.29.59,0,.15-.06.27-.17.37-.11.1-.25.13-.4.11-.1-.02-.19-.07-.27-.14-.11-.11-.25-.23-.43-.35-.18-.12-.37-.22-.58-.32-.2-.09-.39-.16-.56-.19-.29-.05-.53-.06-.73-.03-.2.04-.35.11-.45.22-.1.11-.15.25-.15.42,0,.2.06.38.18.53.12.15.29.29.51.41s.49.24.8.36c.4.15.76.3,1.06.46.31.16.56.34.76.53.2.2.35.42.45.68.1.26.15.56.15.9,0,.44-.12.79-.36,1.06-.24.27-.56.45-.95.55-.39.09-.82.1-1.28.01Z"/>
        </g>
      </g>
    </g>
  </g>
</svg>