<?xml version="1.0" encoding="UTF-8"?>
<svg id="Layer_1" xmlns="http://www.w3.org/2000/svg" version="1.1" viewBox="0 0 1313.14 424.54">
  <!-- Generator: Adobe Illustrator 29.7.1, SVG Export Plug-In . SVG Version: 2.1.1 Build 8)  -->
  <defs>
    <style>
      .st0 {
        fill: #523cac;
      }

      .st1, .st2, .st3, .st4, .st5 {
        stroke-miterlimit: 10;
      }

      .st1, .st2, .st4 {
        stroke: #f7008d;
      }

      .st1, .st2, .st5 {
        fill: none;
      }

      .st1, .st4 {
        stroke-width: 2.3px;
      }

      .st2 {
        stroke-width: 2px;
      }

      .st6 {
        fill: #f7a500;
      }

      .st7, .st3, .st4 {
        fill: #fff7f0;
      }

      .st3 {
        stroke-width: 2.34px;
      }

      .st3, .st5 {
        stroke: #523cac;
      }

      .st8 {
        fill: #a5c700;
      }

      .st9 {
        fill: #f7008d;
      }

      .st5 {
        stroke-width: 2.36px;
      }

      .st10 {
        fill: #00b9ae;
      }

      .st11 {
        fill: #dd2080;
      }

      .st12 {
        fill: #f93800;
      }
    </style>
  </defs>
  <g>
    <rect class="st11" x="52.66" y="241.09" width="377.77" height="114.2" rx="22.49" ry="22.49"/>
    <g>
      <rect class="st7" x="53.83" y="70.42" width="375.43" height="228.46" rx="21.32" ry="21.32"/>
      <path class="st11" d="M407.94,71.59c11.11,0,20.16,9.04,20.16,20.16v185.81c0,11.11-9.04,20.16-20.16,20.16H75.15c-11.11,0-20.16-9.04-20.16-20.16V91.75c0-11.11,9.04-20.16,20.16-20.16h332.78M407.94,69.25H75.15c-12.37,0-22.49,10.12-22.49,22.49v185.81c0,12.37,10.12,22.49,22.49,22.49h332.78c12.37,0,22.49-10.12,22.49-22.49V91.75c0-12.37-10.12-22.49-22.49-22.49h0Z"/>
    </g>
    <g>
      <path class="st1" d="M205.25,195.08l-23.74-16.62c-6.06-4.24-4.55-13.6,2.54-15.73l27.77-8.31c2.84-.85,5.06-3.06,5.92-5.89l8.47-27.72c2.16-7.07,11.53-8.53,15.74-2.45l16.49,23.84c1.68,2.43,4.47,3.87,7.43,3.81l28.98-.51c7.4-.13,11.68,8.33,7.19,14.21l-17.57,23.05c-1.79,2.35-2.29,5.45-1.33,8.25l9.44,27.4c2.41,6.99-4.32,13.68-11.3,11.23l-27.35-9.59c-2.79-.98-5.89-.5-8.26,1.28l-23.15,17.45c-5.91,4.45-14.34.12-14.17-7.27l.67-28.97c.07-2.96-1.35-5.76-3.77-7.45Z"/>
      <path class="st9" d="M320.28,186.72s-.03,0-.04-.02c-.01-.01-.03-.03-.03-.05,0-.01,0-.02.01-.03.04-.05.08-.1.12-.15.05-.07.11-.14.16-.21.11-.14.22-.28.32-.42s.21-.28.32-.42.21-.28.32-.42.21-.28.32-.42.21-.28.31-.42.21-.28.31-.42.21-.28.31-.42.21-.28.31-.43.2-.28.31-.43.2-.29.3-.43.2-.29.3-.43.2-.29.3-.43.2-.29.3-.43.2-.29.3-.43.2-.29.29-.44.19-.29.29-.44.19-.29.29-.44.19-.29.29-.44.19-.29.29-.44.19-.29.28-.44.19-.3.28-.44.19-.3.28-.44.18-.3.28-.45.18-.3.27-.45.18-.3.27-.45.18-.3.27-.45.18-.3.27-.45.18-.3.27-.45.18-.3.26-.45.17-.3.26-.46.17-.3.26-.46.17-.31.26-.46.17-.31.25-.46.17-.31.25-.46.17-.31.25-.46.17-.31.25-.46.16-.31.24-.46.16-.31.24-.47.16-.31.24-.47.16-.31.24-.47.16-.31.24-.47.16-.31.23-.47.15-.31.23-.47.15-.32.23-.47.15-.32.23-.47.15-.32.22-.48.15-.32.22-.48.15-.32.22-.48.14-.32.22-.48.14-.32.21-.48.14-.32.21-.48c.02-.05.04-.09.06-.14,1.93-4.46,3.56-9.1,4.09-13.93s-.1-9.89-2.46-14.13c-2.37-4.24-6.62-7.56-11.44-8.14s-10.05,1.9-12.07,6.31c-.44.96-.7,2.21.38,2.87.61.37,1.39.36,2.04.07,2.21-.99,4.52-2.12,6.98-2.14,2.11-.02,4.36.97,5.23,2.9.63,1.41.39,3.16-.6,4.34s-2.67,1.73-4.17,1.37c-1.89-.47-3.17-2.15-4.6-3.47s-3.61-2.36-5.25-1.31c2.53,3.24,3.76,7.47,3.34,11.55-.42,4.09-2.46,7.99-5.59,10.65-.33.28-.74.56-1.16.45-.54-.14-.71-.89-.47-1.39s.74-.83,1.19-1.16c4.92-3.58,6.63-10.92,3.8-16.3-.85-1.61-2.05-3.05-2.66-4.77-.37-1.04-.48-2.22-.16-3.29.29-.99,1.11-1.9,1.78-2.67,1.61-1.86,3.7-3.3,6-4.16.71-.26,1.45-.47,2.2-.62,3.52-.69,7.28-.02,10.34,1.85,4.23,2.58,6.9,7.25,7.87,12.1,1.19,5.93.07,12.14-1.54,17.88-.04.15-.09.31-.13.46s-.09.31-.14.47-.09.31-.14.46-.1.31-.14.46-.1.31-.15.46-.1.31-.15.46-.1.31-.15.46-.1.31-.16.46-.11.3-.16.46-.11.3-.16.45-.11.3-.17.45-.11.3-.17.45-.12.3-.17.45-.12.3-.18.45-.12.3-.18.45-.12.3-.18.45-.12.3-.19.44-.13.3-.19.44-.13.29-.19.44-.13.29-.2.44-.13.29-.2.44-.14.29-.2.44-.14.29-.21.43-.14.29-.21.43-.14.29-.21.43-.14.29-.22.43-.15.29-.22.43-.15.28-.22.43-.15.28-.23.42-.15.28-.23.42-.15.28-.23.42-.16.28-.24.42-.16.28-.24.42-.16.28-.24.42-.16.28-.25.41-.17.28-.25.41-.17.27-.25.41-.17.27-.25.41-.17.27-.26.41-.17.27-.26.41-.18.27-.26.4-.18.27-.27.4-.18.27-.27.4-.18.27-.27.4-.18.26-.28.4-.19.26-.28.39-.19.26-.28.39-.19.26-.28.39-.19.26-.29.39-.19.26-.29.39-.19.26-.29.38-.2.25-.3.38-.2.25-.3.38-.2.25-.3.38-.2.25-.3.37-.2.25-.31.37-.21.25-.31.37-.21.25-.31.37-.21.24-.32.37-.21.24-.32.36-.21.24-.32.36-.22.24-.32.36-.22.24-.33.36-.22.24-.33.35-.22.24-.33.35-.22.23-.33.35-.22.23-.34.35-.23.23-.34.35-.23.23-.34.34c-.08.08-.17.17-.25.25-.01.01-.03.03-.06.04ZM320.29,135.16c-.46,0-.92.02-1.37.07-.86.1-2.82.19-2.66,1.5.04.31.22.59.41.84,1.75,2.36,4.42,3.93,7.43,3.68,1.19-.1,2.44-.71,2.57-2.04.09-.87-.34-1.74-.98-2.35s-1.46-.97-2.3-1.23c-1-.3-2.04-.46-3.08-.48Z"/>
      <path class="st9" d="M193.15,218.35c-.12,0-.24,0-.36,0-.16,0-.32,0-.49,0s-.32,0-.48,0-.32,0-.48,0-.32,0-.48,0-.32,0-.48-.01-.32-.01-.48-.02-.32-.01-.48-.02-.32-.02-.48-.02-.32-.02-.48-.03-.32-.02-.48-.03-.32-.02-.48-.03-.32-.02-.48-.04-.32-.03-.48-.04-.32-.03-.48-.05-.32-.03-.48-.05-.32-.03-.48-.05-.32-.04-.48-.06-.32-.04-.48-.06-.32-.04-.48-.06-.32-.04-.48-.07-.32-.05-.48-.07-.32-.05-.48-.07-.32-.05-.48-.08-.32-.05-.48-.08-.32-.06-.47-.08-.32-.06-.47-.09-.32-.06-.47-.09-.32-.06-.47-.09-.31-.06-.47-.1-.31-.07-.47-.1-.31-.07-.47-.1-.31-.07-.47-.11-.31-.07-.47-.11-.31-.08-.47-.12-.31-.08-.47-.12-.31-.08-.47-.12-.31-.08-.46-.13-.31-.09-.46-.13-.31-.09-.46-.13-.31-.09-.46-.14-.31-.09-.46-.14-.31-.09-.46-.14-.31-.1-.46-.15-.31-.1-.46-.15-.3-.1-.46-.15-.3-.1-.46-.16-.3-.11-.45-.16-.3-.11-.45-.16-.3-.11-.45-.17-.3-.11-.45-.17-.3-.12-.45-.17-.3-.12-.45-.18-.3-.12-.45-.18-.3-.12-.45-.18-.3-.12-.44-.19-.3-.13-.44-.19-.29-.13-.44-.19-.29-.13-.44-.2-.29-.13-.44-.2-.29-.14-.44-.2-.29-.14-.44-.21-.29-.14-.44-.21-.29-.14-.43-.21-.29-.14-.43-.22-.29-.15-.43-.22-.29-.15-.43-.23-.29-.15-.43-.23-.28-.15-.43-.23-.28-.16-.42-.23c-5.21-2.91-10.39-6.51-13.75-11.53-2.75-4.12-4.17-9.3-3.02-14.12.84-3.48,3.02-6.63,5.99-8.63.63-.43,1.3-.8,1.99-1.12,2.23-1.03,4.73-1.49,7.18-1.32,1.02.07,2.24.13,3.14.63.98.53,1.74,1.44,2.21,2.44.78,1.65.96,3.51,1.5,5.25,1.82,5.8,8.22,9.77,14.23,8.81.55-.09,1.13-.21,1.66-.02s.94.83.66,1.31c-.22.37-.71.46-1.14.5-4.09.34-8.3-.96-11.49-3.55-3.19-2.59-5.32-6.45-5.83-10.52-1.9.42-2.7,2.7-2.78,4.65s.21,4.04-.79,5.71c-.79,1.32-2.37,2.12-3.91,1.99-1.53-.14-2.95-1.21-3.5-2.64-.75-1.97.14-4.27,1.64-5.75,1.75-1.72,4.18-2.56,6.44-3.43.67-.26,1.22-.8,1.39-1.49.3-1.23-.77-1.93-1.76-2.3-4.56-1.68-10.01.27-13,4.1-2.99,3.83-3.64,9.18-2.31,13.85,1.33,4.67,4.47,8.69,8.27,11.72,3.8,3.03,8.24,5.15,12.76,6.93.05.02.09.04.14.05.16.06.33.13.49.19s.33.13.49.19.33.12.49.19.33.12.49.18.33.12.49.18.33.12.49.18.33.12.5.18.33.12.5.17.33.11.5.17.33.11.5.17.33.11.5.16.33.11.5.16.33.11.5.16.33.1.5.16.33.1.5.15.33.1.5.15.34.1.5.15.34.1.5.15.34.1.5.14.34.09.51.14.34.09.51.14.34.09.51.14.34.09.51.13.34.09.51.13.34.09.51.13.34.08.51.13.34.08.51.12.34.08.51.12.34.08.51.12.34.08.51.12.34.08.51.11.34.07.51.11.34.07.51.11.34.07.51.11.34.07.51.1.34.07.52.1.34.07.52.1.34.06.52.1.34.06.52.09.34.06.52.09.35.06.52.09.35.06.52.09.35.06.52.08.35.05.52.08.35.05.52.08.35.05.52.08.35.05.52.07.35.05.52.07.35.05.52.07.35.05.52.07.35.04.52.06c.09.01.17.02.26.03.06,0,.12.01.19.02.01,0,.02,0,.03,0,.02.01.02.04.02.06,0,.01,0,.03-.01.04-.03.02-.05.02-.07.02ZM154.85,184.46c-.41.78-.73,1.62-.75,2.5s.29,1.79.97,2.35c1.03.85,2.34.4,3.25-.38,2.3-1.95,3.07-4.96,2.63-7.86-.05-.31-.11-.63-.31-.88-.82-1.04-2.27.29-2.94.83-.36.29-.7.6-1.02.93-.73.75-1.35,1.6-1.84,2.52Z"/>
      <path class="st2" d="M289.26,110.03l6.22,2.3c1.29.48,1.29,2.29,0,2.77l-6.22,2.3c-.4.15-.72.47-.87.87l-2.3,6.22c-.48,1.29-2.29,1.29-2.77,0l-2.3-6.22c-.15-.4-.47-.72-.87-.87l-6.22-2.3c-1.29-.48-1.29-2.29,0-2.77l6.22-2.3c.4-.15.72-.47.87-.87l2.3-6.22c.48-1.29,2.29-1.29,2.77,0l2.3,6.22c.15.4.47.72.87.87Z"/>
      <path class="st2" d="M158.62,229.61l6.62-.49c1.37-.1,2.12,1.55,1.15,2.52l-4.7,4.68c-.31.3-.46.73-.43,1.16l.49,6.62c.1,1.37-1.55,2.12-2.52,1.15l-4.68-4.7c-.3-.31-.73-.46-1.16-.43l-6.62.49c-1.37.1-2.12-1.55-1.15-2.52l4.7-4.68c.31-.3.46-.73.43-1.16l-.49-6.62c-.1-1.37,1.55-2.12,2.52-1.15l4.68,4.7c.3.31.73.46,1.16.43Z"/>
      <path class="st9" d="M224.96,169.49c3.06.51,6.19,1.02,9.27.38,2.51-.52,4.81-1.84,6.28-3.97.77-1.12-1.05-2.17-1.81-1.06-2.9,4.2-8.88,3.34-13.17,2.63-1.32-.22-1.89,1.8-.56,2.02h0Z"/>
      <path class="st9" d="M247.2,161.88c4.74-.15,9.27-3.14,11.14-7.53.22-.52.16-1.12-.38-1.44-.44-.26-1.21-.15-1.44.38-1.58,3.72-5.26,6.36-9.32,6.49-1.35.04-1.35,2.14,0,2.1h0Z"/>
      <path class="st9" d="M240.6,175.98c3.16.44,6.37,1.08,9.39-.33,2.56-1.2,4.45-3.66,5.13-6.37.33-1.31-1.69-1.87-2.02-.56-.56,2.22-2.07,4.16-4.17,5.12-2.44,1.11-5.24.47-7.77.12-.56-.08-1.13.14-1.29.73-.13.49.17,1.21.73,1.29h0Z"/>
      <path class="st4" d="M187.88,233.77c-.89-1.73-.43-3.73.15-5.49.77-2.35,2.57-4.09,5.14-4.15,6.32-.14,13.16,5.12,18.61,7.75,6.74,3.26,13.73,6,20.88,8.2,9.54,2.94,19.37,4.92,29.31,5.89,7.18.7,19.68-1.46,19.91,9.15.18,8.04-11.21,8.47-16.67,7.53-17.64-3.02-35.09-8.01-51.88-14.14-8.37-3.05-15.7-5.99-22.62-11.65-1.07-.87-2.13-1.81-2.79-3.01-.02-.03-.03-.06-.05-.09Z"/>
      <path class="st4" d="M210.8,261.1c-.39-1.56-.3-3.26.24-4.78,2.71-7.66,14.87-10.38,21.91-11.13,8.73-.93,16.3-3.23,24.03-7.48.6-.33,1.19-.66,1.78-1,8.46-4.87,16.35-10.76,25.15-14.98,2.53-1.22,5.19-2.3,7.99-2.52,2.8-.22,5.8.55,7.73,2.59,3.09,3.24,2.52,8.74-.08,12.38-2.6,3.64-6.73,5.84-10.74,7.82-14.88,7.3-30.38,13.22-45.96,18.85-3.22,1.17-6.4,2.47-9.69,3.45-4.01,1.2-8.52,2.96-12.75,3.03-3.42.06-7.08-1.32-8.82-4.27-.36-.61-.63-1.28-.8-1.97Z"/>
    </g>
  </g>
  <g>
    <rect class="st6" x="467.68" y="241.09" width="377.77" height="114.2" rx="22.49" ry="22.49"/>
    <g>
      <path class="st7" d="M490.18,70.42h332.79c11.77,0,21.32,9.56,21.32,21.32v185.81c0,11.77-9.56,21.33-21.33,21.33h-332.78c-11.77,0-21.33-9.56-21.33-21.33V91.75c0-11.77,9.56-21.32,21.32-21.32Z"/>
      <path class="st6" d="M822.96,71.59c11.11,0,20.16,9.04,20.16,20.16v185.81c0,11.11-9.04,20.16-20.16,20.16h-332.78c-11.11,0-20.16-9.04-20.16-20.16V91.75c0-11.11,9.04-20.16,20.16-20.16h332.78M822.96,69.25h-332.78c-12.37,0-22.49,10.12-22.49,22.49v185.81c0,12.37,10.12,22.49,22.49,22.49h332.78c12.37,0,22.49-10.12,22.49-22.49V91.75c0-12.37-10.12-22.49-22.49-22.49h0Z"/>
    </g>
    <g id="GQ6OMw">
      <g>
        <path class="st10" d="M659.76,174.6l27.17.19c-1.38,3.08-1.47,6.57-.23,9.64,1.24,3.08,3.65,5.42,6.78,6.6,1.42.53,2.88.8,4.34.8,3.92,0,7.6-1.95,9.85-5.23,2.23-3.25,2.69-7.27,1.24-11.03-.11-.27-.22-.53-.35-.77h30.52c-.18.32-.37.64-.56.95-.14.24-.84,1.19-1.3,1.83-1.6,2.2-1.84,2.53-1.96,3.21-.21,1.23.3,2.38.7,3.3.12.28.26.6.31.78,2.58,9.27-1.6,18.68-9.94,22.39-.22.1-1.09.38-1.66.57-2.16.7-2.74.89-3.27,1.49-.47.53-.74,1.24-1.42,3.28-.2.59-.44,1.32-.55,1.56-2.78,6.21-5.38,8.35-9.7,11.88-.95.78-1.94,1.59-3.04,2.53-7.9,6.75-6.57,13.74-5.28,20.49.39,2.04.79,4.15.96,6.31.08,1.02-.05,1.77-.35,2.11-.35.39-1.22.62-2.47.67-.1,0-.2,0-.3,0-2.74,0-3.28-1.05-4.21-5.21-.12-.53-.24-1.07-.37-1.61l-.2-.79c-1.82-7.32-4.08-15.39-7.98-18.34-2.61-1.98-5.01-2.19-7.33-2.4-.74-.06-1.5-.13-2.27-.26-4.27-.71-8.76-2.25-12.32-4.22-.25-.14-.91-.6-1.44-.96-1.7-1.18-2.41-1.65-3.1-1.82-.09-.02-.19-.04-.28-.06v-16.59c0-1.35-1.53-2.97-1.85-3.2-.81-.59-1.68-.89-2.61-.89-1.56,0-2.77.86-3.65,1.49-.3.21-.6.43-.79.52-.85.39-1.72.59-2.58.59-1.88,0-3.63-.94-4.7-2.51-.62-.92-1.52-2.83-.51-5.38.85-2.14,2.82-3.47,5.14-3.47.72,0,1.44.13,2.14.39.26.1.69.37,1.1.63,1.04.66,2.34,1.49,3.91,1.49.93,0,1.79-.29,2.56-.85.55-.4,1.85-2.06,1.85-3.43v-16.69M657.46,172.28v19.01c0,.37-.69,1.42-.9,1.58-.39.29-.79.4-1.2.4-1.44,0-2.91-1.49-4.2-1.97-.97-.37-1.97-.54-2.95-.54-3.13,0-6.04,1.8-7.28,4.93-2.24,5.68,2.03,11.03,7.35,11.03,1.15,0,2.35-.25,3.55-.81,1.08-.5,2.19-1.79,3.47-1.79.4,0,.82.13,1.25.44.21.16.9,1.21.9,1.35v19.23s.08,0,.12,0c.55,0,1.15-.39,1.69-.39.08,0,.15,0,.23.03.58.14,3.1,2.07,3.97,2.56,3.91,2.17,8.64,3.75,13.06,4.48,3.22.53,5.74.06,8.58,2.22,3.78,2.87,6.17,13.2,7.33,17.86,1.04,4.18,1.24,8.56,6.81,8.56.12,0,.25,0,.38,0,3.59-.12,5.32-1.58,5.04-5.26-.73-9.44-5.55-17.12,3.52-24.88,6.27-5.36,9.72-7.11,13.34-15.22.38-.85,1.25-3.87,1.59-4.26.2-.22,3.39-1.14,4.14-1.48,9.64-4.28,14-15.12,11.22-25.1-.26-.94-1.11-2.23-.96-3.08.04-.26,2.53-3.52,2.97-4.25.81-1.36,1.69-2.86,1.99-4.42h-37.56c.02,1.42,1.28,2.45,1.84,3.9,2.57,6.67-2.54,13.13-8.94,13.13-1.15,0-2.34-.21-3.53-.66-5.43-2.05-7.62-8.2-5.16-13.37.28-.59,1.57-2.21,1.59-2.47.02-.23-.21-.53-.31-.53l-32.95-.23h0Z"/>
        <path class="st12" d="M683.3,114.25c12.73,0,24.4,5.92,32,16.24.24.33.87,1.39,1.37,2.24,1.38,2.35,1.79,3,2.3,3.42.56.46,1.13.64,4.11,1.41,1.02.26,2.42.62,2.81.78,11.67,4.56,18.12,15.99,16.05,28.45-.09.52-.25,1.24-.4,1.82l-37.09.13h-.68s-.57.38-.57.38c-1.22.8-1.96,1.8-2.19,2.96-.36,1.83.64,3.31,1.38,4.39.24.35.49.72.6.97,1.09,2.44.44,4.3-.3,5.44-1.1,1.69-3.08,2.78-5.05,2.78-1.18,0-2.91-.4-4.39-2.31-1.24-1.59-1.53-3.99-.71-5.83.11-.24.35-.58.59-.91.81-1.12,2.17-3,1.13-5.41-.01-.03-1.33-2.57-3.16-2.57l-31.34-.22v-13.1c1.65.74,3.35,1.11,5.06,1.11,4.51,0,8.75-2.68,10.79-6.84,1.99-4.05,1.51-8.65-1.3-12.3-2.3-2.99-5.77-4.7-9.51-4.7-1.74,0-3.44.37-5.04,1.11v-17.02s0,0,.01,0c1.6,1.23,2.76,2.12,4.1,2.14.83,0,1.66-.36,3.65-1.32.49-.24,1.05-.5,1.27-.59,4.7-1.77,9.58-2.67,14.51-2.67M683.3,111.95c-5.1,0-10.28.92-15.32,2.82-.88.33-3.5,1.76-4.1,1.76,0,0,0,0,0,0-1.17-.01-4.7-3.77-6.41-3.84v24.74c.08.01.16.02.23.02,1.14,0,1.91-1.13,2.99-1.63,1.33-.62,2.74-.91,4.12-.91,2.94,0,5.8,1.34,7.69,3.8,5.18,6.74-.3,15.43-7.67,15.43-1.34,0-2.74-.29-4.15-.92-1.13-.51-1.98-1.64-3.22-1.85v19.34l33.62.23c.08,0,.97.97,1.07,1.18.75,1.74-1.06,3.01-1.72,4.47-1.17,2.62-.77,5.92.99,8.18,1.74,2.24,4,3.19,6.2,3.19,5.22,0,10.17-5.32,7.45-11.45-.79-1.78-3.36-3.67-.63-5.47l38.55-.14c.51-.17,1.1-3.09,1.21-3.74,2.25-13.52-4.75-26-17.48-30.97-1.15-.45-5.92-1.5-6.29-1.81-.46-.38-2.57-4.29-3.29-5.26-8.18-11.1-20.74-17.18-33.86-17.18h0Z"/>
        <path class="st6" d="M641.96,111.14c3.69,0,7.51.69,11.37,2.04l.02,23.24v.2s.04.2.04.2c.71,3.97,2.92,4.56,4.17,4.56,1.47,0,2.79-.82,3.95-1.55.54-.34,1.16-.72,1.51-.83.55-.17,1.13-.25,1.71-.25,2.64,0,5.5,1.87,5.74,5.01.14,1.84-.41,3.53-1.55,4.76-1.04,1.12-2.45,1.73-3.97,1.73-.98,0-1.96-.25-2.92-.75-.26-.14-.51-.32-.79-.53-.74-.55-1.75-1.3-3.34-1.3-.4,0-.82.05-1.25.15-1.6.37-3.3,2.47-3.3,4.09v16.71h-27.38c.14-.25.27-.5.37-.75,1.43-3.6,1.05-7.7-1-10.95-2-3.17-5.27-5.13-8.99-5.39-.31-.02-.62-.03-.92-.03-4.14,0-7.93,2.02-10.14,5.4-2.2,3.37-2.5,7.48-.82,11.29.06.14.13.28.22.44h-28.56c.48-.54,1.01-1.07,1.56-1.62.61-.61,1.23-1.23,1.83-1.92l.88-1-.43-1.26c-.3-.88-.65-1.7-.99-2.49-.4-.93-.78-1.81-1.03-2.7-1.99-6.97-.85-13.78,3.21-19.17,4.21-5.58,10.89-8.78,18.34-8.78.98,0,1.98.06,2.97.17l.61.07.56-.24c1.07-.46,1.62-1.49,2.44-3.12.15-.3.36-.72.44-.85,3.11-4.86,7.83-7.43,13.65-7.43.99,0,2.01.08,3.04.23l1.36.2.82-1.1c2.23-3,5.89-5,10.88-5.95,1.87-.35,3.78-.53,5.67-.53M641.96,108.84c-2.01,0-4.05.19-6.1.57-4.72.9-9.37,2.9-12.3,6.84-1.15-.17-2.27-.25-3.38-.25-6.39,0-11.96,2.83-15.59,8.49-.46.72-1.32,2.88-1.85,3.1-1.09-.12-2.17-.18-3.23-.18-16.26,0-28.54,14.17-23.76,30.88.53,1.84,1.44,3.49,2.05,5.29-1.41,1.6-3.05,2.95-4.33,4.68-.22.3-1.45,2.01-1.47,2.14-.03.21.17.5.32.54h35.54c.1,0,.55-.49.53-.75-.02-.26-1.53-2.27-1.81-2.92-2.92-6.63,1.87-13.46,8.85-13.46.25,0,.5,0,.76.03,6.5.45,10.38,7.23,8.02,13.21-.36.9-1.7,2.51-1.81,2.94-.09.35.34.96.53.96h32.73v-19.01c0-.51.93-1.72,1.52-1.85.27-.06.51-.09.73-.09,1.28,0,1.84.94,3.07,1.57,1.34.69,2.69,1.01,3.98,1.01,4.48,0,8.2-3.82,7.81-8.97-.32-4.22-4.03-7.14-8.03-7.14-.79,0-1.58.11-2.37.35-1.51.46-3.38,2.28-4.8,2.28-.85,0-1.55-.66-1.91-2.67l-.02-24.84c-4.46-1.75-9.01-2.74-13.67-2.74h0Z"/>
        <path class="st8" d="M615.42,157.64c1.94,0,3.77,1.07,4.8,2.79,1.06,1.77,1.06,3.89.02,5.82-.1.19-.28.43-.47.67-.73.97-2.26,2.98-.58,5.67.35.57,1.91,2.22,3.52,2.22h30.65v13.09c-1.6-.74-3.3-1.12-5.06-1.12-4.26,0-8.11,2.18-10.31,5.84-2.22,3.68-2.28,8.11-.17,11.84,2.17,3.84,6.17,6.22,10.44,6.22,1.62,0,3.24-.34,4.79-1.01.1-.04.2-.09.31-.15v14.53c-3.41.86-6.69,1.3-9.76,1.3-4.12,0-7.94-.79-11.36-2.34-4.9-2.23-7.37-5.19-8.01-9.57,0-.1,0-.39,0-.59.03-1.22.07-3.08-1.43-4.05-.67-.44-1.42-.5-2-.5-.8,0-1.79.13-2.67.25-.42.05-.93.12-1.11.13-1.14.04-2.31.06-3.48.06-7.87,0-27.11-.91-35.82-9.39-6.68-6.5-8.69-15.98-5.31-24.5l35.01-.03h.11s.11-.01.11-.01c.95-.09,2.4-.22,3.61-1.82,2.11-2.76.4-5.08-.33-6.08-.2-.27-.39-.53-.51-.75-.81-1.5-.98-3.23-.45-4.76.5-1.46,1.59-2.61,3.05-3.24.8-.35,1.61-.52,2.41-.52M615.42,155.34c-1.07,0-2.19.22-3.32.71-4.41,1.91-5.98,7.03-3.71,11.21.81,1.48,2.44,2.5,1.04,4.33-.57.75-1.11.84-2,.92l-36.52.03c-4.57,9.76-2.46,20.98,5.22,28.45,8.31,8.09,25.25,10.04,37.42,10.04,1.24,0,2.43-.02,3.56-.06.71-.02,2.61-.37,3.71-.37.34,0,.6.03.74.12.62.4.3,2.27.41,3.03.84,5.69,4.27,9.05,9.34,11.35,3.95,1.8,8.11,2.55,12.31,2.55s8.12-.7,12.06-1.84v-19.68c0-.17-.3-.32-.57-.32-.06,0-.11,0-.17.02-.51.13-1.95,1.37-2.78,1.73-1.31.57-2.62.82-3.88.82-6.96,0-12.34-7.87-8.3-14.58,1.82-3.02,5.02-4.72,8.34-4.72,1.45,0,2.91.32,4.3,1,1.02.5,1.86,1.55,2.99,1.55.02,0,.05,0,.07,0v-19.12h-32.95c-.39,0-1.34-.77-1.56-1.14-1.13-1.81.39-2.67,1.12-4.03,3.13-5.78-1.16-12-6.84-12h0Z"/>
      </g>
    </g>
  </g>
  <g>
    <rect class="st0" x="882.71" y="241.09" width="377.77" height="114.2" rx="22.49" ry="22.49"/>
    <g>
      <path class="st7" d="M905.2,70.42h332.79c11.77,0,21.32,9.56,21.32,21.32v185.81c0,11.77-9.56,21.33-21.33,21.33h-332.78c-11.77,0-21.33-9.56-21.33-21.33V91.75c0-11.77,9.56-21.33,21.33-21.33Z"/>
      <path class="st0" d="M1237.99,71.59c11.11,0,20.16,9.04,20.16,20.16v185.81c0,11.11-9.04,20.16-20.16,20.16h-332.78c-11.11,0-20.16-9.04-20.16-20.16V91.75c0-11.11,9.04-20.16,20.16-20.16h332.78M1237.99,69.25h-332.78c-12.37,0-22.49,10.12-22.49,22.49v185.81c0,12.37,10.12,22.49,22.49,22.49h332.78c12.37,0,22.49-10.12,22.49-22.49V91.75c0-12.37-10.12-22.49-22.49-22.49h0Z"/>
    </g>
    <g>
      <g>
        <path class="st0" d="M1006.18,172.98c31.88-7.5,63.69-15.33,95.41-23.48"/>
        <path class="st0" d="M1006.44,173.91c24.91-5.86,49.78-11.92,74.6-18.18,6.94-1.75,13.88-3.52,20.82-5.3,1.2-.31.69-2.16-.51-1.85-24.79,6.37-49.63,12.55-74.51,18.52-6.96,1.67-13.93,3.33-20.9,4.96-1.2.28-.69,2.13.51,1.85h0Z"/>
      </g>
      <path class="st0" d="M1028.3,181.1c12.81.11,25.62.19,38.42-.42,12.67-.61,25.34-1.91,37.75-4.59,7.04-1.52,13.97-3.5,20.72-6,1.15-.43.65-2.28-.51-1.85-11.88,4.41-24.32,7.15-36.88,8.75-12.57,1.59-25.24,2.11-37.9,2.24-7.2.07-14.4.02-21.6-.04-1.24-.01-1.24,1.91,0,1.92h0Z"/>
      <path class="st0" d="M1029.37,194.74c15.21.42,30.42.26,45.62-.48,15.26-.74,30.49-2.07,45.64-3.97,8.48-1.07,16.93-2.31,25.35-3.73,1.22-.21.7-2.06-.51-1.85-14.98,2.53-30.05,4.49-45.18,5.87-15.08,1.38-30.22,2.18-45.36,2.41-8.52.13-17.05.07-25.57-.16-1.24-.03-1.24,1.89,0,1.92h0Z"/>
      <g>
        <path class="st0" d="M1015.33,211.59c28.13-.99,56.26-1.98,84.39-2.97"/>
        <path class="st0" d="M1015.33,212.55c21.89-.77,43.79-1.54,65.68-2.31,6.24-.22,12.47-.44,18.71-.66,1.23-.04,1.24-1.96,0-1.92-21.89.77-43.79,1.54-65.68,2.31-6.24.22-12.47.44-18.71.66-1.23.04-1.24,1.96,0,1.92h0Z"/>
      </g>
      <path class="st5" d="M970.27,174.84c-.29-2.43,1.55-4.69,4.6-5.66l116.2-37.07s24.97-8.97,18.18,8.34c-1.6,4.08,3.14,8.1,8.97,7.51,20.41-2.07,54.88-4.26,44.64,5.96,0,0-.75.7-1.97,1.71-4.13,3.44-1.15,8.92,5.19,9.58,11.59,1.19,24.7,2.71,26.46,3.63,0,0,22.98,5.15,1.83,13.01-.44.16-.9.29-1.38.39-2.24.47-9.43,1.98-16.56,3.35-4.9.94-7.55,4.99-5.01,8.23,3.08,3.93-.2,9.6-27.67,16.03,0,0-10.31,2.26-24.04,3.53-5.43.5-8.46,4.71-5.94,8.28,2.13,3.02-1.89,6.08-23.31,7.27-.4.02-.81.02-1.21,0l-106.28-5.4c-4.01-.2-7.27-2.52-7.61-5.42l-5.09-43.28Z"/>
      <g>
        <path class="st3" d="M983.69,225.45l-24.68,10.22c-2.97,1.23-6.1-1.37-5.44-4.52l5.5-26.14c.26-1.21-.07-2.48-.87-3.42l-17.34-20.31c-2.09-2.45-.58-6.23,2.61-6.57l26.56-2.85c1.23-.13,2.33-.83,2.98-1.89l13.96-22.77c1.68-2.74,5.74-2.48,7.06.46l10.92,24.38c.51,1.13,1.51,1.96,2.72,2.25l25.97,6.24c3.13.75,4.13,4.7,1.75,6.85l-19.81,17.92c-.92.83-1.4,2.04-1.3,3.28l2.09,26.63c.25,3.21-3.19,5.38-5.98,3.78l-23.16-13.31c-1.08-.62-2.38-.7-3.52-.23Z"/>
        <path class="st0" d="M978.2,200.95s.11-6.96,7.88-3.2c0,0,4.18,1.18,6.75.38,0,0,6.55-1.92,6.01,2.95,0,0,.35,6.73-10.08,8.22,0,0-9.16-.55-10.56-8.35Z"/>
        <path class="st0" d="M978,187.5c-.05-1.43.04-2.92.65-4.23.56-1.2,1.52-2.08,2.75-2.38.43-.1,1.06-.08,1.51.11.56.24.98.62,1.32,1.1.81,1.15,1.02,2.76.87,4.24-.07.63.24,1.26.91,1.4.57.12,1.34-.27,1.4-.91.31-3.03-.48-6.83-3.69-8.04-2.97-1.11-6.1.88-7.27,3.62-.7,1.64-.87,3.43-.81,5.2.06,1.52,2.42,1.4,2.36-.12h0Z"/>
        <path class="st0" d="M992.48,186.39c.24-1.4.61-2.84,1.45-4.01.76-1.05,1.87-1.77,3.12-1.83,1.17-.06,2.16.66,2.62,1.73.64,1.45.38,3.11-.08,4.58-.19.61.33,1.28.91,1.4.68.14,1.21-.3,1.4-.91.94-2.96.67-6.76-2.25-8.51-2.65-1.59-6.06-.1-7.68,2.24-.99,1.44-1.52,3.11-1.81,4.82-.11.63.27,1.26.91,1.4.6.13,1.29-.28,1.4-.91h0Z"/>
        <ellipse class="st0" cx="968.85" cy="196.43" rx="4.12" ry="3.76" transform="translate(-13.39 84.81) rotate(-4.98)"/>
        <ellipse class="st0" cx="1007.61" cy="196.63" rx="4.12" ry="3.76" transform="translate(-13.26 88.17) rotate(-4.98)"/>
      </g>
    </g>
  </g>
</svg>