<?xml version="1.0" encoding="UTF-8"?>
<svg id="Layer_1" xmlns="http://www.w3.org/2000/svg" version="1.1" viewBox="0 0 473.44 270.77">
  <!-- Generator: Adobe Illustrator 29.7.1, SVG Export Plug-In . SVG Version: 2.1.1 Build 8)  -->
  <defs>
    <style>
      .st0 {
        fill: #ec4024;
      }

      .st1 {
        fill: #5a479a;
      }

      .st2 {
        fill: none;
        stroke: #5a479a;
        stroke-miterlimit: 10;
        stroke-width: 1.13px;
      }
    </style>
  </defs>
  <circle class="st2" cx="142.5" cy="135.38" r="65.61"/>
  <circle class="st2" cx="330.94" cy="135.38" r="65.61"/>
  <g>
    <path class="st0" d="M330.65,117.83l9.43-.4,10.03-2.21,13.65,7.42,4.82,12.04,2.21,6.82.2,6.62s4.21,11.24-11.04,13.04l-10.44,4.01-10.84-3.21-10.84-2.41-6.22-14.05-1.4-8.03,5.02-8.03.2-5.62s3.01-6.82,5.22-6.02Z"/>
    <g>
      <path class="st1" d="M323.89,114.21l-18.54-9.29c-.34-.17-.47-.57-.3-.91.17-.33.57-.47.91-.3l18.54,9.29c.33.17.47.58.3.91-.17.34-.58.47-.91.31h0Z"/>
      <path class="st1" d="M313.07,136.17l-18.54-9.29c-.34-.17-.47-.57-.3-.91.17-.34.57-.47.91-.3l18.54,9.29c.33.17.47.57.3.91-.17.34-.57.47-.91.3Z"/>
      <path class="st1" d="M316.23,117.39l-18.54-9.29c-.34-.17-.47-.58-.3-.91.17-.33.58-.47.91-.3l18.54,9.29c.33.17.47.58.3.91-.17.33-.58.47-.91.3Z"/>
      <path class="st1" d="M311.03,127.78l-18.54-9.29c-.34-.17-.47-.57-.3-.91.17-.34.57-.47.91-.3l18.54,9.29c.33.17.47.58.3.91-.17.34-.58.47-.91.3Z"/>
      <path class="st1" d="M306.8,119.34l-18.54-9.29c-.34-.17-.47-.57-.3-.91.17-.34.57-.47.91-.31l18.54,9.3c.34.17.47.57.31.91-.17.34-.58.47-.91.3h0Z"/>
      <path class="st1" d="M328.59,121.44v.03s0-.03,0-.03h0s0,0,0,0ZM328.08,121.87v.03s0-.03,0-.03h0s0,0,0,0h0ZM328.96,121.34c.37-.09.73-.06,1.07.1.39.18.67.48.84.91.14.42.12.82-.05,1.22-.18.39-.48.67-.92.84h0s-.09.03-.14.04c-.37.09-.73.06-1.07-.09-.39-.18-.67-.48-.84-.91-.14-.42-.12-.83.05-1.22.06-.12.13-.24.21-.35l.15-.16h0c.1-.09.21-.17.34-.24l.21-.09h.01s.09-.03.13-.04h0ZM348.48,123.54v.04s0-.04,0-.04ZM364.34,120.45v.03s0-.03,0-.03ZM364.38,120.5h0s0,.01,0,.01t0,0h0s.02-.01.02-.01ZM331.4,132.45v.03s-.01-.03-.01-.03h0s.01,0,.01,0h0ZM343.44,118.35c.25-.06.52.04.66.27.17.28.08.65-.2.82h0s0,.01,0,.01c-2.02,1.22-3.71,2.28-4.19,3.95-.49,1.7.26,4.2,1.51,5.69,1.19,1.42,2.8,1.85,4.37,1.54h0s0,0,0,0h0s0,0,0,0c.09-.02.16-.04.25-.06,1.55-.39,2.89-1.44,3.27-2.45.39-1.03-.14-2.2-.86-3.71h0s0-.02,0-.02c-.16-.32-.03-.67.26-.82h0s0,0,0,0h0s0,0,0,0h0s.07-.03.1-.04c.26-.07.54.05.67.3v.02s.04.05.04.06h0s0,0,0,.02c0,.02,0,.02,0,.02h0s0,.02.01.03l.04-.02-.04.02h0s.05.11.06.13c.64,1.32,1.37,2.92.8,4.43-.56,1.49-2.32,2.73-4.1,3.18-.1.02-.21.05-.3.07h0c-1.97.39-4.03-.16-5.52-1.94-1.43-1.7-2.37-4.6-1.75-6.78.62-2.17,2.75-3.46,4.61-4.58l.12-.07h0s.11-.05.16-.07h0ZM354.29,129.8v.02s0-.02,0-.02h0s0,0,0,0ZM353.85,130.28v.02s0-.02,0-.02h0s0,0,0,0h0ZM332.42,132.14c1.33-.34,2.88-.29,4.13.04,1.58.41,2.7,1.28,3.72,2.06h0s.01.01.01.01h.02c.26.21.31.59.11.85-.09.11-.2.18-.33.21-.17.04-.35.01-.5-.1h0s0-.01,0-.01h-.02s0-.02,0-.02h0s0,0,0,0c-1.03-.8-1.98-1.52-3.3-1.86-1.08-.28-2.42-.32-3.54-.03-.29.07-.55.16-.79.27h0c-1.19.54-1.95,1.61-2.81,2.84h0s.02-.01.02-.01l-.02.02c-.09.12-.21.2-.34.23-.16.04-.34.01-.49-.09-.27-.19-.33-.56-.15-.83l.04-.06.02-.03h0s0,0,0,0c0,0,0,0,.02-.04.81-1.15,1.73-2.44,3.22-3.12h0s0,0,0,0c.31-.14.65-.26.99-.34h0ZM354.85,129.59c.28-.07.55-.06.84.02h0c.4.12.71.38.93.78h0c.19.39.23.78.1,1.18-.12.4-.38.71-.78.93-.12.05-.23.1-.35.13-.28.07-.55.06-.84-.03h0c-.4-.12-.71-.38-.93-.78h0c-.19-.39-.23-.78-.11-1.18h0c.04-.13.09-.25.16-.36l.12-.17h0s0,0,0,0c.09-.11.19-.2.3-.28l.19-.11h0c.12-.06.23-.1.34-.13h0ZM357.27,121.05c.26-.07.54.05.67.3.52.98,1,1.89,1.98,2.79h0c.44.4.97.81,1.53,1.24h0s.03.03.03.03l.03.02c.68.52,1.41,1.08,1.9,1.63.96,1.07,1.02,2.12,1.06,2.99v.02c.02.29-.18.54-.45.61-.04.01-.07.01-.11.02-.33.02-.61-.23-.63-.56h0s0,0,0,0h0s0,0,0,0h0s0,0,0,0h0s0,0,0,0c-.05-.85-.1-1.52-.76-2.27-.41-.47-1.06-.96-1.79-1.52h0s0,0,0,0h0s0,0,0,0h0s-.04-.02-.05-.03c-.53-.4-1.08-.83-1.55-1.26h0s0,0,0,0h0c-1.13-1.06-1.69-2.12-2.21-3.1v-.02c-.17-.29-.05-.65.24-.81.04-.03.08-.04.13-.05h0ZM318.54,144.99h0s0,0,0,0ZM353.32,138.07v.04s-.01-.03-.01-.03h0s0,0,0,0h0ZM371.84,134.09h0s0,0,0,0ZM371.87,134.09h0s0,0,0,0ZM371.82,134.1h0s0,0,0,0h0ZM371.91,134.12v.04s0,0,0,0c0,0-.01-.01-.02-.02h0s0,0,0,0l.02-.02ZM352.47,140.47l.03.02h0s0,0,0,0c0,0,0,0,0,0l-.03-.04h0ZM350.37,141.02v.03s0-.02,0-.02h0s0,0,0,0h0ZM348.51,142.23h0s0,0,0,0h0s0,0,0,0h0ZM336.81,147.13v.02s0-.02,0-.02h0s0,0,0,0ZM337.56,146.8c.41-.07.79,0,1.12.23.34.22.55.55.64.97h0c.07.41,0,.79-.23,1.12-.22.32-.52.53-.92.63h-.05s0,.01,0,.01c-.41.07-.79,0-1.12-.23-.34-.22-.55-.55-.65-.97h0c-.07-.41,0-.79.23-1.12.07-.11.16-.2.25-.29l.16-.12h0s0,0,0,0c.11-.07.23-.13.35-.18h0s.2-.05.2-.05h0ZM353.7,137.99c1.45-.37,3.61.06,5.13,1.13,1.68,1.17,2.65,3.15,2.39,5.06-.25,1.83-1.64,3.49-2.88,4.97l-.07.09h0c-.08.1-.19.16-.31.2-.18.04-.38,0-.53-.12-.25-.21-.28-.58-.07-.84h.01c1.33-1.6,2.48-3,2.68-4.45.19-1.41-.53-2.97-1.89-3.92-1.29-.9-3.09-1.22-4.16-.95-.08.02-.16.04-.23.07h-.01c-.51.2-.8.59-1.26,1.22h0s-.01.01-.01.01h0s0,.01,0,.02h0s0,0,0,0h0s0,.01,0,.01c-.31.44-.7.97-1.27,1.46h0c-.57.48-1.31.92-1.97,1.31l-.11.06h0c-.64.37-1.2.7-1.6,1.04h0c-.17.15-.29.28-.37.39-.38.58.1,1.34,1.15,2.69.2.26.16.64-.11.84-.07.05-.14.09-.22.11-.22.06-.47-.02-.62-.21-.06-.08-.06-.08-.13-.16-.02-.03,0,0-.03-.04,0,0-.1-.12-.11-.14-.79-1.02-1.77-2.44-.93-3.73h0s0,0,0,0h0s0,0,0,0c.16-.24.37-.45.59-.64h0s0,0,0,0h0c.49-.42,1.16-.81,1.79-1.17h0s.01,0,.02-.01c.01,0,.02-.01.03-.01,0,0,0,0,.03-.02.69-.41,1.33-.78,1.81-1.18h0c.47-.41.79-.84,1.12-1.3l.03-.05h0s0-.02.03-.06h0c.41-.57.88-1.21,1.73-1.53h0c.12-.05.24-.09.36-.12h0ZM328.03,150.63c.3-.07.61.09.71.39l.02.05h0c.22.65.43,1.26.95,2.19.54.97,1.4,2.27,2.28,3.61.18.27.11.64-.17.83-.06.04-.12.06-.18.08-.23.06-.49-.03-.63-.24h0s0,0,0,0h0s0-.01,0-.01l-.03-.05h0s0,0,0,0l-.03-.04h0c-.85-1.28-1.72-2.6-2.27-3.59-.57-1.04-.82-1.76-1.05-2.43l-.02-.05h0c-.09-.26.07-.6.39-.71h0s0,0,0,0h0s.03,0,.05-.01h0ZM346.51,156h.01s-.02,0-.02,0h0s0,0,0,0h0ZM365.68,157.75v.03s-.01-.03-.01-.03h0s0,0,0,0h0ZM362.92,158.73h0s0,0,0,0v.04s0-.04,0-.04h0ZM369.33,144.26c.12-.03.26-.02.39.03.3.13.44.49.3.79-.43.95-.79,1.76-.51,3.08.08.39.22.83.38,1.34h0s0,0,0,0c0,0,.01.03.01.04h0s.04.02.04.02l-.04-.02h0s0,.02,0,.02h0s0,0,0,0l.02.07c.38,1.21.86,2.75.5,4.23-.51,2.13-2.65,3.96-4.07,4.89h0s0,0,0,0c-.86.56-1.55.84-2.17.99-.41.1-.78.15-1.11.18h0s0,0,0,0h0s0,0-.02,0h0s0,0-.01,0h0s0,0-.02,0h-.01s0,0,0,0c-.33.03-.62-.2-.66-.53-.04-.3.16-.57.44-.64.02,0,.05-.01.08-.02v-.04s0,0,0,0v.04s.04,0,.04,0h0s0-.01,0-.01v.02c.34-.04.65-.07.98-.16.47-.12,1.04-.34,1.81-.84,1.39-.9,3.18-2.52,3.57-4.17.28-1.16-.11-2.43-.51-3.72h0s-.02.05-.02.05v-.04s.03-.01.03-.01h-.04s.04,0,.04,0c0,0,0-.01,0-.02v-.02s0-.02,0-.02c-.15-.48-.31-.97-.4-1.42-.35-1.7.14-2.82.58-3.79v-.02c.09-.17.23-.29.41-.33h0ZM351.03,152.05c.48-.12.99-.18,1.49-.16h0c2.48.11,4.94,2.14,5.44,4.01.52,1.94-1.07,3.49-2.32,4.7h0s0,0,0,0c-.01.01-.04.04-.04.04h0s-.05.05-.05.05l-.03.03-.03.03h0s0,0,0,0l-.03.03h-.01c-.81.79-1.71,1.63-3.07,2.2h-.01c-.32.13-.67.26-1.03.35-1.2.3-2.7.31-3.81-.79h0s0,0,0,0h0c-1.34-1.36-1.89-4.23-.95-6.56h0s0,0,0,0c.76-1.89,2.52-3.45,4.47-3.94h0ZM365.63,161.55l.02.03-.02-.03h0s0,0,0,0h0ZM346.47,111.55c-.85.21-1.64.53-2.34.91h0c-.92.5-1.66,1.12-2.4,1.72l-.03.02-.03.03h0c-.59.48-1.18.97-1.82,1.32h0c-.16.09-.32.17-.49.24h.01s-.01,0-.01,0h0s0,0,0,0h0s0,0,0,0h0c-.2.08-.4.15-.61.2-1.08.27-2.24.17-3.23.09h-.01s.01,0,.01,0c0,0,0,0-.01,0h0s0,0-.03,0h0s0,0,0,0h-.03c-.37-.04-.75-.06-1.08-.08h0s0,0,0,0c-1.41-.05-2.59.21-3.83.5h-.05c-1.59.54-3.02,1.03-4.26,2.63-1.3,1.67-2.41,4.58-2.82,6.87-.13.72-.19,1.38-.25,2h0s0,.01,0,.01h0s0,.02,0,.02c-.05.52-.1,1.04-.19,1.54-.14.76-.38,1.49-.88,2.19-.46.63-1.13,1.22-1.75,1.77h0s-.02.01-.02.01c0,0,0,0,0,0h0s0,.01,0,.01h0s0,0,0,0h0s0,0,0,0c-.69.61-1.33,1.17-1.77,1.79h0c-.21.3-.37.58-.46.88-.29.91-.05,2.01.28,3.39l.02.07c.21.88.43,1.85.46,2.82.02.87-.13,1.7-.26,2.48h.04s-.03,0-.03,0h0s0,.03,0,.03h.01s0,0,0,0h0c-.14.81-.27,1.56-.25,2.33h0c.01.58.11,1.16.35,1.76.56,1.37,1.86,2.89,3.31,4.56l.02.02v.02s.02,0,.02,0l.02.03c.9,1.04,1.84,2.12,2.58,3.2.98,1.41,1.62,2.81,2.17,4.03v.02s.03.03.03.03h0c.46,1.01.86,1.87,1.35,2.58.09.13.18.26.28.37,1.22,1.51,3.15,2.21,5.55,1.84h.03s-.02,0-.02,0h0c.36-.05.73-.14,1.11-.23.53-.13,1.04-.28,1.6-.45h0s.07-.02.07-.02h0s.03-.01.03-.01h0c.56-.17,1.15-.34,1.73-.49,1.19-.3,2.45-.5,3.62-.27,1.11.21,2.09.81,2.99,1.35v-.04s0,.04,0,.04h0s.04.03.04.03h.01s0-.03,0-.03v.04s0,0,0,0h0c.99.6,1.9,1.14,2.94,1.35h0c.33.06.68.09,1.05.08.39-.02.8-.08,1.24-.2,1.56-.39,3.33-1.28,5.06-2.16h.03s0-.01,0-.01c1.14-.57,2.27-1.14,3.25-1.51h0s0,0,0,0c.41-.15.8-.27,1.16-.36.82-.21,1.54-.28,2.2-.36h0s0,0,0,0h.05c.62-.08,1.19-.14,1.81-.3.53-.13,1.07-.32,1.71-.64h0s0,0,0,0c2.64-1.32,6.38-4.62,7.34-7.14.52-1.38.22-2.55-.19-4.03v-.06c-.3-1.03-.62-2.21-.59-3.57.03-1.56.51-3.36.95-5,0,0,0-.02,0-.04h0s0-.03.01-.06h0s-.01.01-.01.01l.02-.02c.42-1.57.79-2.99.81-4.1,0-.17,0-.34-.02-.5-.13-1.3-.96-2.03-2.07-2.97h0s0,0,0,0h0s-.02-.02-.03-.03h-.01s-.01.04-.01.04v-.05s0,0,0,0h.02s0,0,0,0h0s0,0,0,0t0,0h0s-.02-.02-.03-.03h0s0,0,0,0c-.6-.51-1.28-1.1-1.81-1.84-1.03-1.45-1.48-3.46-1.87-5.18,0-.04,0-.03-.02-.08-.17-.75-.33-1.46-.51-2.07h0c-.61-2.01-1.53-3.15-3.24-4.42h0s0-.01,0-.01h0s0,0,0,0h0c-.82-.6-1.82-1.24-2.9-1.92h-.01s-.02-.02-.02-.02c-.01,0-.04-.03-.05-.03-1.21-.77-2.52-1.6-3.76-2.52-.56-.41-1.13-.86-1.66-1.28h0s-.02-.01-.03-.02c-.53-.42-1.03-.81-1.54-1.19-1.16-.86-2.28-1.55-3.47-1.91-1.42-.42-2.99-.37-4.45,0h0Z"/>
      <path class="st1" d="M354.65,159.82h0s0,0,0,0ZM351.34,153.26c-1.56.39-3,1.66-3.62,3.2h0c-.79,1.94-.25,4.26.68,5.2.65.65,1.6.73,2.63.47.3-.07.58-.17.85-.29,1.17-.49,1.92-1.21,2.76-2h0s0,0,0,0h0s0,0,0,0c1.47-1.43,2.42-2.46,2.11-3.61-.34-1.3-2.3-3-4.28-3.09h0s0,0,0,0h-.02s0,0,0,0c-.37-.02-.76.02-1.13.12h0Z"/>
    </g>
  </g>
  <path class="st1" d="M157.09,138.49c0,5.64-6.53,6.2-14.58,6.2s-14.58-.03-14.58-5.67c0-3.43.43-5.41,4.13-8.22,2.39-1.81,3.79-4.7,6.95-4.7,4.03,0,9.23.88,11.87,3.42s6.22,6.16,6.22,8.98Z"/>
</svg>