<?xml version="1.0" encoding="UTF-8"?>
<svg id="Layer_1" xmlns="http://www.w3.org/2000/svg" version="1.1" viewBox="0 0 473.44 270.77">
  <!-- Generator: Adobe Illustrator 29.7.1, SVG Export Plug-In . SVG Version: 2.1.1 Build 8)  -->
  <defs>
    <style>
      .st0 {
        stroke-width: 2.25px;
      }

      .st0, .st1, .st2, .st3, .st4, .st5, .st6, .st7, .st8, .st9, .st10, .st11, .st12, .st13, .st14, .st15, .st16, .st17, .st18 {
        stroke-miterlimit: 10;
      }

      .st0, .st1, .st2, .st3, .st4, .st5, .st6, .st17 {
        fill: #5a479a;
        stroke: #241f20;
      }

      .st1 {
        stroke-width: 2.09px;
      }

      .st19, .st7, .st8, .st9, .st10, .st11, .st12, .st13, .st14, .st15, .st16 {
        fill: #f9a91a;
      }

      .st2 {
        stroke-width: .91px;
      }

      .st3 {
        stroke-width: .98px;
      }

      .st4 {
        stroke-width: 1.35px;
      }

      .st5 {
        stroke-width: 1.5px;
      }

      .st6 {
        stroke-width: 1.47px;
      }

      .st20 {
        fill: #123155;
      }

      .st7 {
        stroke-width: .42px;
      }

      .st7, .st8, .st9, .st10, .st11, .st12, .st13, .st14, .st15, .st16 {
        stroke: #ec4024;
      }

      .st8 {
        stroke-width: .64px;
      }

      .st9 {
        stroke-width: .27px;
      }

      .st10 {
        stroke-width: .32px;
      }

      .st11 {
        stroke-width: 1.33px;
      }

      .st12 {
        stroke-width: .53px;
      }

      .st13 {
        stroke-width: .66px;
      }

      .st14 {
        stroke-width: .69px;
      }

      .st15 {
        stroke-width: .74px;
      }

      .st16, .st18 {
        stroke-width: .75px;
      }

      .st17 {
        stroke-width: 1.87px;
      }

      .st21 {
        opacity: .3;
      }

      .st18 {
        fill: #62d0bc;
        stroke: #123155;
      }
    </style>
  </defs>
  <g>
    <g>
      <g>
        <g class="st21">
          <path class="st20" d="M275.19,202.75c-20.57,8.03,3.7,22,19.76,20.94,23.78-1.44,47.02.73,70.82.43,22.51-.29,53.3-12.01,24.41-20.7-18.97-5.71-51.18-.14-69.91.39-16.06.5-29.97-6.3-45.07-1.07-1.48.3,1.48-.58,0,0Z"/>
        </g>
        <g>
          <path class="st20" d="M406.5,144.47c-.08.01-.45-.26-.44-.32,0,0,.79-1.41,1.43-2.22.69-.77,1.95-1.79,1.95-1.79.05-.03.42.32.4.37,0,0-.86,1.34-1.53,2.1-.63.79-1.8,1.87-1.8,1.87Z"/>
          <path class="st20" d="M405.36,140.49s1.03-1.83,1.83-2.92c.8-1.08,2.24-2.61,2.24-2.61.05-.05.46.27.43.34,0,0-1.04,1.83-1.83,2.9-.8,1.07-2.23,2.6-2.23,2.6-.09.02-.46-.24-.45-.32Z"/>
          <path class="st20" d="M405.96,135.33c-.41.44-.74.76-.74.76-.08.02-.46-.24-.45-.31,0,0,.23-.41.55-.95.32-.55.79-1.15,1.16-1.62.37-.45.94-.98,1.33-1.42.41-.44.74-.77.74-.77.05-.04.47.25.45.31,0,0-.23.41-.55.95-.32.54-.79,1.15-1.16,1.62-.37.45-.94.98-1.33,1.42Z"/>
          <path class="st20" d="M400.97,92.22c-.17-.29-.27-.45-.27-.45-.2-.35.24-.63.46-.3,0,0,.11.16.29.45.18.29.47.69.78,1.23.15.27.32.57.5.89.18.32.37.67.55,1.05.18.38.38.77.58,1.19.18.43.37.87.56,1.32.74,1.84,1.4,3.97,1.88,6.13.49,2.16.77,4.33.96,6.25.18,1.91.29,4.1.32,6.29.04,2.2.04,4.38-.02,6.36-.1,3.91-.18,6.88-.18,6.88-.06.4-.52.41-.55.01,0,0-.03-2.97-.08-6.89,0-1.95-.07-4.16-.15-6.33-.08-2.18-.22-4.33-.4-6.22-.18-1.89-.42-4.03-.86-6.15-.42-2.12-1-4.22-1.67-6.04-.17-.45-.34-.89-.5-1.32-.18-.41-.36-.81-.53-1.18-.16-.38-.33-.72-.5-1.04-.17-.32-.32-.62-.46-.89-.28-.54-.55-.95-.71-1.24Z"/>
          <path class="st20" d="M397.83,91.06c-.07.02-.49-.15-.5-.21,0,0,.08-.36.21-.82.13-.46.3-1.01.46-1.43.16-.42.42-.92.58-1.34.04-.1.08-.2.12-.29.03-.09.05-.17.07-.24.05-.13.07-.22.07-.22.02-.04.54,0,.55.05,0,0,0,.1,0,.26,0,.08,0,.17,0,.28-.01.11-.02.22-.04.34-.05.5-.2,1.09-.37,1.53-.18.44-.47.96-.72,1.36-.25.4-.44.7-.44.7Z"/>
          <path class="st20" d="M397.03,86.7c-.34.86-1.09,2.11-1.09,2.11-.07.03-.5-.13-.51-.19,0,0,.27-1.43.6-2.29.34-.86,1.09-2.11,1.09-2.11.03-.04.52.14.51.19,0,0-.27,1.43-.6,2.29Z"/>
          <path class="st20" d="M401.23,193.21s-1.6-.56-2.56-1.07c-.96-.51-2.32-1.52-2.32-1.52-.04-.04.21-.49.27-.47,0,0,1.6.56,2.55,1.06.95.51,2.31,1.51,2.31,1.51.03.08-.18.49-.25.49Z"/>
          <path class="st20" d="M394.75,85.41c-.47.96-1.44,2.27-1.44,2.27-.07.02-.48-.18-.49-.25,0,0,.53-1.56.97-2.47.11-.23.23-.49.37-.75.14-.25.28-.51.38-.75.21-.47.4-.83.4-.83.03-.05.53.07.53.13,0,0-.06.41-.17.96-.04.28-.14.58-.24.87-.1.29-.2.58-.31.82Z"/>
          <path class="st20" d="M396.46,194.08c-.94-.66-2.24-1.89-2.24-1.89-.04-.04.27-.46.33-.43,0,0,1.58.81,2.5,1.45.94.66,2.24,1.89,2.24,1.89.02.08-.26.44-.33.43,0,0-1.58-.81-2.5-1.45Z"/>
          <path class="st20" d="M393.56,194.99s1.46.71,2.3,1.29c.87.54,2.11,1.59,2.11,1.59.02.08-.21.48-.27.48,0,0-1.51-.63-2.41-1.18-.86-.6-2.04-1.73-2.04-1.73-.04-.04.27-.46.32-.44Z"/>
          <path class="st20" d="M373.5,61.73s-.39-.64-.49-1.08c-.03-.24,0-.55.04-.79.04-.24.09-.42.09-.42,0-.03.53-.04.54-.01,0,0,.08.16.17.38.09.21.18.46.21.67.08.43-.02,1.15-.02,1.15-.05.03-.5.13-.54.12Z"/>
          <path class="st20" d="M371.22,62.04s-.27-.63-.28-1.05c0-.41.23-1.05.23-1.05.01-.02.53-.04.54-.01,0,0,.27.63.29,1.04,0,.41-.23,1.06-.23,1.06-.05.02-.51.04-.54.01Z"/>
          <path class="st20" d="M369.9,61.8c0,.58-.24,1.49-.24,1.49-.05.03-.51.05-.55.01,0,0-.26-.92-.28-1.52.02-.3.11-.7.19-1,.08-.3.16-.53.16-.53.01-.03.53.04.54.07,0,0,.05.23.09.53.05.3.08.66.07.94Z"/>
          <path class="st20" d="M369.74,78.42c1.3-.24,2.89-.66,4.13-1.01,1.24-.34,2.82-.8,4.04-1.3.3-.13.59-.24.84-.36.25-.12.47-.23.66-.32.35-.21.56-.33.56-.33.12-.07.43.35.32.44,0,0-.21.16-.56.42-.18.11-.4.26-.65.41-.25.15-.53.3-.84.47-1.22.64-2.81,1.24-4.09,1.59-1.28.36-2.95.66-4.31.78-.69.05-1.28.08-1.72.06-.22,0-.39-.01-.51-.03-.12-.01-.19-.02-.19-.02-.14-.06-.09-.52.05-.54,0,0,.06,0,.17,0,.11,0,.27,0,.48-.03.4-.02.98-.12,1.63-.23Z"/>
          <path class="st20" d="M357.23,50.47c-.5-.16-.8-.25-.8-.25-.17-.05,0-.55.15-.53,0,0,.3.07.79.17.25.04.55.08.89.13.34.05.72.06,1.12.1,1.61.1,3.63,0,5.22-.07,1.59-.06,3.65-.1,5.31.01.83.06,1.56.16,2.08.24.52.1.83.16.83.16.16.08.07.53-.09.54,0,0-.31-.03-.81-.08-.5-.03-1.21-.06-2.02-.06-1.62.01-3.64.18-5.25.24-1.6.06-3.68.04-5.34-.19-.41-.07-.8-.12-1.15-.2-.35-.08-.65-.15-.91-.21Z"/>
          <path class="st20" d="M352.43,67.35c-1.07-.07-1.71-.12-1.71-.12-.36-.03-.3-.54.04-.55,0,0,.63.02,1.69.04.52.03,1.16-.03,1.87-.06.35-.01.73-.03,1.12-.05.39-.04.79-.08,1.21-.12,3.35-.31,7.46-1.07,10.66-1.77,3.21-.67,7.28-1.67,10.53-2.57,3.26-.89,5.69-1.67,5.69-1.67.34-.06.49.37.18.52,0,0-2.4.9-5.64,1.92-3.23,1.03-7.3,2.16-10.54,2.84-3.23.7-7.42,1.35-10.83,1.53-.43.02-.84.05-1.23.07-.4,0-.78,0-1.14,0-.72,0-1.36.03-1.9-.03Z"/>
          <path class="st20" d="M355.92,212.54c-1.38-.03-2.22-.04-2.22-.04-.46-.01-.45-.53,0-.54,0,0,.84-.02,2.23-.04,1.39-.01,3.34,0,5.55,0,2.21,0,4.69.01,7.14-.1,2.45-.11,4.88-.28,6.99-.61,2.1-.32,4.48-.81,6.77-1.62.56-.22,1.12-.46,1.68-.69.28-.11.55-.24.81-.39.27-.14.53-.28.79-.41.26-.14.53-.26.77-.42.24-.16.48-.32.72-.48.47-.32.95-.61,1.38-.96,1.77-1.33,3.23-2.56,4.13-3.59.24-.24.43-.49.6-.7.17-.21.32-.38.42-.54.21-.31.33-.48.33-.48.29-.34.68-.1.46.3,0,0-.12.18-.33.51-.1.17-.25.35-.42.58-.17.22-.35.49-.59.75-.91,1.09-2.38,2.42-4.12,3.8-.42.36-.91.68-1.39,1.03-.24.17-.49.34-.74.52-.25.18-.53.3-.79.46-.27.15-.54.3-.81.45-.27.16-.55.31-.84.42-.57.25-1.15.51-1.73.75-2.35.9-4.8,1.43-6.95,1.76-2.16.34-4.63.48-7.12.54-2.48.06-4.97-.02-7.18-.08-2.21-.07-4.15-.14-5.54-.18Z"/>
          <path class="st20" d="M344.77,54.97c-1.45-.94-3.58-2.6-3.58-2.6-.07-.06.21-.5.3-.46,0,0,2.4,1.24,3.87,2.17,1.46.94,3.58,2.6,3.58,2.6.05.1-.21.47-.3.45,0,0-2.4-1.24-3.87-2.17Z"/>
          <path class="st20" d="M339.05,55.38c-1.76-1.14-4.37-3.11-4.37-3.11-.08-.07.2-.5.3-.46,0,0,2.88,1.55,4.64,2.67,1.76,1.14,4.37,3.11,4.37,3.11.07.11-.18.49-.29.46,0,0-2.88-1.55-4.65-2.67Z"/>
          <path class="st20" d="M333.35,55.54c-1.91-1.13-4.75-3.11-4.75-3.11-.09-.07.17-.51.28-.47,0,0,3.1,1.54,5.01,2.66,1.91,1.13,4.75,3.1,4.75,3.1.08.11-.16.5-.28.47,0,0-3.1-1.53-5.01-2.66Z"/>
          <path class="st20" d="M327.54,55.31c-1.55-.94-3.84-2.6-3.84-2.6-.08-.06.19-.5.28-.47,0,0,2.54,1.23,4.1,2.16,1.55.94,3.83,2.6,3.83,2.6.06.09-.18.49-.28.47,0,0-2.55-1.23-4.1-2.16Z"/>
          <path class="st20" d="M304.03,51.53c-.16,0-.16-.52-.01-.54,0,0,.28-.03.75-.08.47-.04,1.13-.11,1.87-.21,1.49-.18,3.36-.46,4.83-.6,1.48-.12,3.38-.21,4.92-.09.38.02.74.02,1.06.07.32.04.61.08.85.11.48.07.76.1.76.1.15.06.09.52-.06.54,0,0-.28,0-.75-.02-.24,0-.52-.02-.83-.03-.31-.01-.67.02-1.04.02-1.49.02-3.35.23-4.81.35-1.46.13-3.34.28-4.86.34-.76.04-1.43.04-1.91.04-.48,0-.77,0-.77,0Z"/>
          <path class="st20" d="M300.49,59.31s.53-.05.54-.01c0,0,.29.99.32,1.63.06.63-.09,1.64-.09,1.64-.05.04-.51.11-.54.08,0,0-.36-.99-.43-1.66-.03-.66.19-1.68.19-1.68Z"/>
          <path class="st20" d="M298.44,60.23c0-.33.1-.76.19-1.09.08-.34.16-.59.16-.59.01-.03.53.03.54.06,0,0,.05.25.1.58.04.33.08.73.07,1.04,0,.64-.23,1.64-.23,1.64-.05.03-.51.05-.54.01,0,0-.27-1.01-.28-1.67Z"/>
          <path class="st20" d="M300.86,56.35c-1.31-.54-2.37-1.12-2.86-1.9-.26-.39-.25-.82-.19-1.06.07-.24.14-.35.14-.35.13-.25.29-.36.41-.42.12-.06.21-.05.25,0,.1.1,0,.34-.18.67,0,0-.01.02-.03.06-.02.04-.03.09-.06.17-.02.15-.04.37.14.64.34.55,1.33,1.13,2.61,1.62,2.58.99,6.43,1.8,10.82,2.49,2.2.35,4.55.65,6.96.92,1.21.13,2.43.26,3.66.36,1.24.07,2.48.15,3.71.22,2.49.16,4.97.26,7.37.37,1.2.07,2.38.07,3.53.11,1.15.02,2.28.08,3.36.07,2.17,0,4.49.05,6.88-.04,1.2-.04,2.42-.04,3.65-.11,1.22-.08,2.46-.15,3.7-.22,4.94-.39,9.93-.95,14.26-1.88,2.17-.49,4.18-1.06,5.94-1.69,1.75-.64,3.3-1.32,4.34-2.15.51-.42.85-.91.76-1.3-.06-.41-.43-.71-.7-.93-.15-.1-.28-.19-.4-.26-.13-.07-.23-.12-.32-.17-.17-.09-.26-.13-.26-.13-.8-.4-.65-.83.23-.5,0,0,.1.04.29.14.09.05.21.11.35.18.13.07.28.18.46.29.09.05.17.13.26.21.08.08.19.15.27.26.17.2.36.46.41.81.08.35-.04.73-.22,1.05-.1.15-.19.31-.32.44-.12.14-.25.27-.4.39-1.14.96-2.72,1.66-4.5,2.34-1.79.67-3.81,1.27-6,1.8-4.4,1-9.39,1.63-14.37,2.07-1.25.09-2.49.17-3.73.26-1.23.08-2.46.09-3.67.14-2.41.11-4.74.06-6.93.06-1.09,0-2.22-.05-3.38-.08-1.15-.04-2.34-.05-3.55-.12-2.41-.12-4.89-.24-7.37-.43-1.25-.09-2.48-.16-3.74-.26-1.24-.11-2.47-.25-3.68-.4-2.42-.3-4.78-.64-6.98-1.02-4.42-.76-8.27-1.63-10.93-2.7Z"/>
          <path class="st20" d="M297.27,58.72s.52.07.54.1c0,0,.05.18.09.4.05.22.09.49.07.69,0,.43-.25,1.11-.25,1.11-.05.02-.51.04-.55,0,0,0-.26-.69-.26-1.15.02-.24.11-.53.2-.77.09-.23.16-.4.16-.4Z"/>
          <path class="st20" d="M297.01,76.9c-.13-.11.21-.5.33-.43,0,0,.06.04.16.1.11.06.25.17.45.28.39.21.96.49,1.64.75,1.36.53,3.11,1,4.49,1.33,1.38.34,3.16.73,4.61.95,1.45.23,2.55.27,2.55.27.15.06.16.51,0,.55,0,0-1.15.09-2.65-.02-1.5-.1-3.35-.36-4.77-.71-1.42-.34-3.2-.96-4.57-1.63-.69-.33-1.26-.68-1.65-.96-.2-.13-.35-.27-.45-.34-.1-.08-.16-.13-.16-.13Z"/>
          <path class="st20" d="M295.11,63.59c-.29-.19-.5-.4-.64-.51-.15-.12-.23-.19-.23-.19-.18-.16.17-.54.35-.42,0,0,.08.06.23.17.15.1.35.28.64.44.57.34,1.38.79,2.38,1.15,1.98.79,4.6,1.3,6.66,1.61,2.06.34,4.73.63,6.88.79,2.16.17,3.79.25,3.79.25.22.06.21.52,0,.55,0,0-1.64.05-3.82,0-2.18-.03-4.89-.21-7.01-.54-2.11-.33-4.79-.98-6.81-1.92-1.02-.44-1.85-.97-2.42-1.37Z"/>
          <path class="st19" d="M373.05,59.86c-.04.24-.07.56-.04.79.1.45.49,1.08.49,1.08.04.01.49-.09.54-.12,0,0,.11-.72.02-1.15-.03-.21-.12-.46-.21-.67-.09-.21-.17-.38-.17-.38-.02-.02-.54-.01-.54.01,0,0-.05.18-.09.42ZM370.93,61c.02.41.28,1.05.28,1.05.03.02.49.01.54-.01,0,0,.23-.65.23-1.06-.02-.41-.29-1.04-.29-1.04-.01-.02-.53,0-.54.01,0,0-.24.64-.23,1.05ZM369.9,61.8c0-.28-.03-.64-.07-.94-.04-.3-.09-.53-.09-.53-.01-.03-.53-.11-.54-.07,0,0-.08.23-.16.53-.08.3-.18.7-.19,1,.02.6.28,1.52.28,1.52.04.03.5.02.55-.01,0,0,.24-.91.24-1.49ZM356.42,50.22s.3.09.8.25c.26.07.57.13.91.21.35.08.74.13,1.15.2,1.66.23,3.74.26,5.34.19,1.6-.06,3.62-.23,5.25-.24.81,0,1.52.03,2.02.06.51.05.81.08.81.08.16,0,.25-.46.09-.54,0,0-.31-.06-.83-.16-.51-.08-1.25-.18-2.08-.24-1.67-.11-3.72-.07-5.31-.01-1.59.07-3.61.17-5.22.07-.4-.04-.78-.06-1.12-.1-.34-.05-.64-.09-.89-.13-.49-.1-.79-.17-.79-.17-.16-.02-.32.47-.15.53ZM352.45,66.73c-1.05-.02-1.69-.04-1.69-.04-.34,0-.4.52-.04.55,0,0,.64.04,1.71.12.54.06,1.18.02,1.9.03.36,0,.74,0,1.14,0,.39-.02.8-.05,1.23-.07,3.41-.18,7.59-.83,10.83-1.53,3.24-.69,7.31-1.81,10.54-2.84,3.23-1.02,5.64-1.92,5.64-1.92.32-.15.16-.58-.18-.52,0,0-2.43.78-5.69,1.67-3.25.9-7.32,1.9-10.53,2.57-3.2.7-7.32,1.46-10.66,1.77-.42.04-.82.08-1.21.12-.39.01-.76.03-1.12.05-.71.03-1.34.09-1.87.06ZM345.36,54.08c-1.47-.93-3.87-2.17-3.87-2.17-.08-.03-.37.4-.3.46,0,0,2.13,1.66,3.58,2.6,1.46.93,3.87,2.17,3.87,2.17.1.02.35-.36.3-.45,0,0-2.13-1.66-3.58-2.6ZM339.62,54.49c-1.76-1.13-4.64-2.67-4.64-2.67-.1-.04-.38.39-.3.46,0,0,2.61,1.97,4.37,3.11,1.77,1.13,4.65,2.67,4.65,2.67.11.03.36-.35.29-.46,0,0-2.61-1.97-4.37-3.11ZM333.89,54.63c-1.92-1.12-5.01-2.66-5.01-2.66-.11-.04-.37.4-.28.47,0,0,2.84,1.97,4.75,3.11,1.92,1.12,5.01,2.66,5.01,2.66.12.03.35-.36.28-.47,0,0-2.84-1.97-4.75-3.1ZM328.08,54.39c-1.56-.93-4.1-2.16-4.1-2.16-.09-.03-.36.41-.28.47,0,0,2.29,1.66,3.84,2.6,1.55.93,4.1,2.16,4.1,2.16.1.02.34-.37.28-.47,0,0-2.29-1.66-3.83-2.6ZM311.48,50.1c-1.47.14-3.34.41-4.83.6-.74.1-1.4.16-1.87.21-.47.05-.75.08-.75.08-.15.02-.15.54.01.54,0,0,.29,0,.77,0,.48,0,1.15,0,1.91-.04,1.53-.06,3.4-.21,4.86-.34,1.46-.12,3.32-.34,4.81-.35.37,0,.73-.04,1.04-.02.32.01.6.02.83.03.47.02.75.02.75.02.15-.02.22-.48.06-.54,0,0-.29-.04-.76-.1-.24-.03-.53-.07-.85-.11-.32-.05-.68-.05-1.06-.07-1.54-.12-3.44-.02-4.92.09ZM300.49,59.31s-.22,1.02-.19,1.68c.07.67.43,1.66.43,1.66.04.03.49-.04.54-.08,0,0,.15-1.02.09-1.64-.03-.64-.32-1.63-.32-1.63-.02-.03-.54-.02-.54.01ZM301.09,55.77c-1.28-.49-2.27-1.06-2.61-1.62-.18-.27-.16-.49-.14-.64.03-.07.04-.13.06-.17.02-.04.03-.06.03-.06.17-.32.27-.57.18-.67-.05-.05-.13-.06-.25,0-.12.05-.28.17-.41.42,0,0-.07.11-.14.35-.06.24-.07.68.19,1.06.5.78,1.55,1.36,2.86,1.9,2.66,1.07,6.51,1.94,10.93,2.7,2.21.38,4.56.72,6.98,1.02,1.21.15,2.44.29,3.68.4,1.27.1,2.49.17,3.74.26,2.48.18,4.97.3,7.37.43,1.21.07,2.39.08,3.55.12,1.16.03,2.28.08,3.38.08,2.18,0,4.52.04,6.93-.06,1.21-.05,2.43-.06,3.67-.14,1.24-.09,2.48-.17,3.73-.26,4.98-.44,9.97-1.07,14.37-2.07,2.18-.53,4.21-1.13,6-1.8,1.78-.68,3.36-1.38,4.5-2.34.14-.12.28-.25.4-.39.13-.13.23-.29.32-.44.18-.32.3-.69.22-1.05-.05-.35-.24-.61-.41-.81-.08-.12-.18-.18-.27-.26-.09-.08-.17-.16-.26-.21-.17-.11-.32-.22-.46-.29-.14-.07-.26-.13-.35-.18-.19-.1-.29-.14-.29-.14-.88-.33-1.03.1-.23.5,0,0,.1.04.26.13.09.05.19.1.32.17.12.07.25.17.4.26.27.22.64.52.7.93.09.39-.25.89-.76,1.3-1.03.84-2.58,1.52-4.34,2.15-1.76.63-3.77,1.2-5.94,1.69-4.33.92-9.32,1.48-14.26,1.88-1.24.07-2.48.15-3.7.22-1.23.07-2.45.07-3.65.11-2.4.09-4.71.04-6.88.04-1.08,0-2.21-.05-3.36-.07-1.15-.03-2.33-.04-3.53-.11-2.4-.11-4.88-.2-7.37-.37-1.24-.07-2.48-.14-3.71-.22-1.22-.1-2.45-.22-3.66-.36-2.41-.27-4.76-.57-6.96-.92-4.39-.69-8.24-1.5-10.82-2.49ZM298.63,59.14c-.08.34-.18.76-.19,1.09.01.66.28,1.67.28,1.67.03.03.49.02.54-.01,0,0,.24-1,.23-1.64.01-.32-.03-.71-.07-1.04-.05-.33-.1-.58-.1-.58-.01-.04-.53-.1-.54-.06,0,0-.08.25-.16.59ZM297.81,58.82s-.52-.11-.54-.1c0,0-.08.17-.16.4-.09.23-.17.53-.2.77,0,.45.26,1.15.26,1.15.04.03.5.01.55,0,0,0,.24-.68.25-1.11.02-.2-.02-.47-.07-.69-.04-.22-.09-.4-.09-.4ZM295.46,63.07c-.29-.16-.49-.34-.64-.44-.15-.11-.23-.17-.23-.17-.18-.11-.53.27-.35.42,0,0,.08.07.23.19.15.12.35.32.64.51.57.4,1.41.93,2.42,1.37,2.02.94,4.7,1.59,6.81,1.92,2.11.34,4.83.51,7.01.54,2.18.04,3.82,0,3.82,0,.22-.03.23-.49,0-.55,0,0-1.64-.08-3.79-.25-2.16-.16-4.82-.46-6.88-.79-2.06-.31-4.69-.82-6.66-1.61-1-.36-1.82-.81-2.38-1.15ZM292.64,65.94s-.04-1.01-.11-2.84c-.05-.92-.08-2.04-.11-3.36-.03-.66,0-1.35.02-2.09,0-.76.04-1.5.33-2.23.6-1.46,2.01-2.68,3.73-3.56,1.72-.9,3.74-1.54,5.91-2.06,4.35-1.03,9.31-1.54,14.61-1.84,5.29-.34,10.93-.32,16.72-.44,2.89,0,5.83.02,8.78.03,1.47,0,2.95.02,4.44.02l4.44.06c5.93.06,11.84.13,17.57.2,1.44.01,2.84.01,4.21.12.68.07,1.37.13,2.03.26.67.09,1.32.28,1.96.44,1.27.39,2.47.92,3.5,1.65,1.04.73,1.88,1.67,2.49,2.72.56.97.94,2.06,1.19,3.17.08.28.07.55.09.82.01.27.04.52.04.81.01.56.03,1.12.04,1.65.04,2.03.07,3.78.09,4.88,0,0,0,0,0,0l-.32.16-.9.45c-.6.31-1.22.55-1.84.84-.61.29-1.25.52-1.88.77-.63.26-1.27.48-1.91.7-2.57.89-5.21,1.61-7.89,2.22-2.67.64-5.37,1.03-8.09,1.38-2.72.34-5.43.62-8.11.86-10.75.94-21.1,1.3-30.09,1.17-8.99-.14-16.63-.84-21.89-1.98-2.63-.55-4.66-1.22-5.98-1.79-.18-.08-.35-.15-.5-.23-.27-.25-.42-.37-.46-.34-.02.01,0,.06.02.13-.21-.1-.39-.2-.54-.28-.32-.18-.49-.28-.49-.28-.58-.34-.98-.58-1.21-.68.08-.21.13-.72.11-1.53Z"/>
          <path class="st20" d="M292.19,55.17c.68-1.67,2.22-2.99,4-3.91,1.79-.95,3.85-1.62,6.05-2.16,4.41-1.07,9.41-1.61,14.72-1.96,5.32-.37,10.96-.38,16.76-.53,2.9,0,5.84,0,8.79,0,1.47,0,2.96,0,4.44,0l4.45.04c5.93.05,11.84.09,17.56.13,1.42.01,2.86,0,4.29.12.71.07,1.42.13,2.13.27.7.1,1.39.29,2.08.47,1.36.41,2.67.98,3.82,1.8,1.15.81,2.11,1.87,2.79,3.05.63,1.08,1.05,2.29,1.31,3.47.09.29.08.61.11.92.02.31.05.63.05.91.01.57.03,1.13.04,1.67.02,1.07.03,2.07.05,2.94,0,.43.02.84.02,1.21,0,.18,0,.36,0,.53v.12c0,.05,0,.06.03.16.05.18.09.35.13.51-.66.33-1.31.66-1.97.99-.52.27-1.07.49-1.61.73-.03.08-.07.18-.12.3l-.3-.12c-.58.26-1.18.48-1.77.72-.64.26-1.29.49-1.95.71-2.61.9-5.3,1.62-8.01,2.22-2.7.64-5.46,1.03-8.19,1.36-2.73.34-5.45.6-8.15.83-10.79.89-21.16,1.2-30.19,1.01-9.02-.2-16.69-.95-22-2.14-2.39-.52-4.28-1.14-5.63-1.68h0s-.46.09-.46.09c-.08-.14-.15-.27-.21-.38-.24-.11-.46-.21-.66-.3-.25-.13-.46-.24-.64-.34-.33-.2-.51-.3-.51-.3-.95-.62-1.26-1.11-1.18-1.19,0,0,.02,0,.03-.01-.09-.24-.18-.72-.22-1.46,0,0-.04-1-.13-2.84-.06-.92-.09-2.05-.14-3.37-.04-.66,0-1.37,0-2.13,0-.74.03-1.6.36-2.44ZM292.42,59.73c.03,1.31.06,2.44.11,3.36.07,1.84.11,2.84.11,2.84.03.81-.03,1.32-.11,1.53.24.1.63.34,1.21.68,0,0,.17.1.49.28.15.08.33.17.54.28-.02-.06-.04-.11-.02-.13.04-.03.19.08.46.34.15.07.32.15.5.23,1.33.57,3.35,1.24,5.98,1.79,5.25,1.14,12.89,1.85,21.89,1.98,8.99.13,19.34-.23,30.09-1.17,2.69-.24,5.4-.52,8.11-.86,2.72-.35,5.42-.74,8.09-1.38,2.68-.61,5.32-1.33,7.89-2.22.64-.22,1.28-.44,1.91-.7.63-.25,1.26-.48,1.88-.77.62-.29,1.24-.53,1.84-.84l.9-.45.32-.16s.01,0,0,0c-.02-1.1-.06-2.85-.09-4.88-.01-.54-.03-1.09-.04-1.65,0-.29-.03-.54-.04-.81-.02-.27,0-.54-.09-.82-.24-1.11-.62-2.2-1.19-3.17-.61-1.06-1.46-1.99-2.49-2.72-1.03-.73-2.23-1.26-3.5-1.65-.64-.17-1.29-.35-1.96-.44-.66-.13-1.35-.19-2.03-.26-1.37-.11-2.77-.11-4.21-.12-5.72-.06-11.64-.13-17.57-.2l-4.44-.06c-1.48,0-2.96-.02-4.44-.02-2.95,0-5.88-.02-8.78-.03-5.78.12-11.42.1-16.72.44-5.29.3-10.26.82-14.61,1.84-2.17.51-4.19,1.16-5.91,2.06-1.72.87-3.12,2.1-3.73,3.56-.29.73-.33,1.47-.33,2.23-.01.74-.05,1.43-.02,2.09Z"/>
          <path class="st20" d="M281.36,205.33c-.78-.41-1.25-.66-1.25-.66-.26-.14,0-.59.26-.48,0,0,.48.22,1.27.58.4.18.86.42,1.4.63.55.21,1.15.45,1.8.7.63.27,1.35.46,2.06.71.36.12.72.24,1.09.36.37.1.74.2,1.12.31,1.48.43,2.98.75,4.29,1.06.66.13,1.37.28,2.1.42.73.16,1.5.26,2.25.4,1.53.28,3.07.46,4.45.7.69.11,1.33.21,1.92.31.57.09,1.09.12,1.52.17.43.03.77,0,1,.01.24,0,.37,0,.37,0,.28.04.33.5.05.54,0,0-.14,0-.38.02-.25,0-.61.06-1.06.04-.44-.02-.99-.03-1.58-.09-.59-.07-1.24-.14-1.93-.22-1.37-.18-2.95-.29-4.5-.53-.77-.12-1.55-.21-2.29-.35-.75-.14-1.46-.28-2.14-.4-1.33-.32-2.86-.67-4.35-1.16-.37-.12-.75-.23-1.12-.35-.37-.13-.73-.27-1.09-.4-.72-.28-1.43-.5-2.06-.81-.64-.29-1.25-.56-1.79-.8-.54-.24-1-.51-1.4-.71Z"/>
          <path class="st20" d="M274.89,92.68c-.53-.5-.92-.88-.92-.88-.05-.06.29-.45.36-.42,0,0,.45.29,1.04.66.28.2.63.39.97.58.33.2.66.4.94.58.29.17.62.38.94.6.32.22.65.44.95.62.6.38,1.05.67,1.05.67.04.08-.16.5-.23.5,0,0-.51-.18-1.18-.45-.34-.12-.7-.29-1.06-.48-.36-.18-.71-.37-1.02-.54-.3-.19-.62-.44-.94-.68-.32-.24-.64-.49-.9-.75Z"/>
          <path class="st20" d="M277.49,204.02c-.09-.17-.22-.42-.32-.71-.25-.57-.43-1.34-.51-1.94-.05-.6-.03-1.38.05-1.98.03-.31.08-.57.11-.76.03-.19.05-.3.05-.3.01-.06.53-.04.55.03,0,0,.04.45.09,1.04.05.59.15,1.31.2,1.86.07.55.11,1.27.22,1.83.04.29.11.53.15.71.04.18.06.29.06.29-.03.08-.45.25-.51.21,0,0-.05-.1-.14-.28Z"/>
          <path class="st20" d="M272.77,93.86c-.68-.61-1.19-1.08-1.19-1.08-.07-.07.26-.47.35-.43,0,0,.57.37,1.33.86.74.51,1.72,1.07,2.43,1.59,1.46.98,3.58,2.76,3.58,2.76.04.1-.22.47-.32.45,0,0-2.39-1.35-3.86-2.34-.72-.52-1.63-1.19-2.31-1.82Z"/>
          <path class="st20" d="M274.5,202.69c-.13-.21-.31-.49-.47-.85-.37-.7-.6-1.65-.71-2.39-.07-.75-.05-1.71.06-2.46.04-.38.1-.71.14-.94.04-.23.07-.37.07-.37.02-.08.54-.03.55.05,0,0,0,.14,0,.38.01.23,0,.55.03.92.02.73.13,1.62.2,2.31.1.68.19,1.56.41,2.24.08.35.2.64.28.85.08.22.13.34.13.34-.02.09-.41.32-.48.26,0,0-.08-.12-.21-.32Z"/>
          <path class="st20" d="M270,94.11s.57.44,1.33,1.02c.19.14.38.3.59.46.21.15.43.3.65.45.43.31.85.62,1.22.9.38.27.8.57,1.22.9.42.32.84.65,1.23.92.77.56,1.36.99,1.36.99.06.09-.17.49-.27.47,0,0-.65-.34-1.52-.78-.44-.22-.9-.5-1.36-.79-.46-.29-.91-.58-1.3-.85-.37-.29-.79-.64-1.2-.99-.2-.18-.41-.36-.61-.53-.19-.18-.37-.37-.54-.54-.67-.7-1.19-1.22-1.19-1.22-.07-.08.29-.45.38-.4Z"/>
          <path class="st20" d="M271.7,199.01c-.11-.17-.26-.4-.4-.69-.31-.56-.58-1.3-.74-1.89-.3-1.19-.36-3.06-.36-3.06,0-.06.51-.16.54-.1,0,0,.56,1.78.85,2.89.15.56.28,1.29.45,1.85.08.29.16.54.22.71.06.18.09.29.09.29-.02.08-.42.29-.48.25,0,0-.06-.1-.17-.27Z"/>
          <path class="st20" d="M266.53,130.87c-.14.98-.23,1.57-.23,1.57-.09.32-.55.28-.55-.04,0,0,.06-.6.15-1.59.1-1,.21-2.38.33-3.95.26-3.14.14-7.07.25-10.17.06-1.55.16-3.32.39-5.09.23-1.77.61-3.54,1.09-5.08.45-1.55,1.04-2.83,1.47-3.75.22-.45.42-.8.55-1.04.13-.25.21-.38.21-.38.16-.3.61-.03.48.26,0,0-.06.13-.18.38-.11.25-.3.59-.5,1.05-.37.91-.89,2.18-1.27,3.7-.4,1.51-.71,3.24-.88,4.97-.18,1.74-.25,3.48-.3,5.02-.12,3.07-.13,7.03-.51,10.2-.19,1.59-.36,2.98-.5,3.95Z"/>
          <path class="st20" d="M265.72,141.51c-.59-.48-1.35-1.41-1.35-1.41-.02-.04.3-.43.35-.43,0,0,1.07.53,1.66.99.59.44,1.39,1.32,1.39,1.32,0,.07-.25.45-.31.46,0,0-1.1-.48-1.73-.94Z"/>
          <path class="st20" d="M266.21,136.44c-.44-.35-.99-.81-1.41-1.23-.42-.42-.73-.74-.73-.74-.04-.04.3-.44.35-.42,0,0,.38.22.87.52.48.3,1.11.68,1.56,1.02.22.18.47.4.71.62.12.11.24.23.36.34.11.12.21.24.31.35.39.46.67.81.67.81,0,.08-.33.39-.39.38,0,0-1.4-1.01-2.29-1.65Z"/>
          <path class="st20" d="M265.67,138.66c-.65-.49-1.52-1.44-1.52-1.44-.03-.04.27-.46.32-.44,0,0,1.17.55,1.84,1.04.65.48,1.52,1.42,1.52,1.42,0,.07-.25.45-.31.45,0,0-1.18-.54-1.85-1.03Z"/>
          <path class="st20" d="M264.48,157.38c-.07.11-.52.04-.54-.07,0,0,.02-.84.06-1.95.03-.55,0-1.18,0-1.8,0-.62.01-1.24.02-1.78,0-1.09.11-2.47.14-3.59.06-1.12.1-1.97.1-1.97.01-.11.53-.13.55-.01,0,0,.07.85.16,1.97.09,1.12.12,2.52.12,3.62,0,.55-.06,1.17-.1,1.8-.06.63-.09,1.26-.18,1.82-.18,1.12-.31,1.97-.31,1.97Z"/>
          <path class="st18" d="M407.19,137.57c-.8,1.09-1.83,2.92-1.83,2.92-.01.08.36.34.45.32,0,0,1.43-1.53,2.23-2.6.79-1.08,1.83-2.9,1.83-2.9.03-.07-.38-.39-.43-.34,0,0-1.44,1.52-2.24,2.61ZM407.49,141.92c-.64.82-1.43,2.22-1.43,2.22,0,.06.37.33.44.32,0,0,1.18-1.08,1.8-1.87.67-.75,1.53-2.1,1.53-2.1.02-.05-.35-.41-.4-.37,0,0-1.25,1.02-1.95,1.79ZM404.78,135.78c-.01.07.37.33.45.31,0,0,.33-.33.74-.76.4-.45.96-.97,1.33-1.42.38-.47.84-1.07,1.16-1.62.33-.54.55-.95.55-.95.03-.06-.4-.36-.45-.31,0,0-.33.33-.74.77-.4.45-.96.97-1.33,1.42-.38.47-.84,1.07-1.16,1.62-.33.53-.55.95-.55.95ZM400.71,91.78s.1.16.27.45c.16.29.43.7.71,1.24.14.27.29.57.46.89.17.32.34.67.5,1.04.17.38.34.77.53,1.18.16.42.33.86.5,1.32.66,1.82,1.25,3.91,1.67,6.04.43,2.12.68,4.26.86,6.15.18,1.89.32,4.04.4,6.22.08,2.17.15,4.38.15,6.33.05,3.92.08,6.89.08,6.89.03.4.49.39.55-.01,0,0,.08-2.96.18-6.88.06-1.98.06-4.16.02-6.36-.03-2.19-.13-4.38-.32-6.29-.19-1.91-.47-4.09-.96-6.25-.48-2.16-1.14-4.29-1.88-6.13-.19-.46-.38-.9-.56-1.32-.2-.42-.4-.81-.58-1.19-.17-.38-.37-.73-.55-1.05-.18-.32-.35-.62-.5-.89-.31-.54-.6-.95-.78-1.23-.19-.29-.29-.45-.29-.45-.22-.33-.66-.05-.46.3ZM397.33,90.85c.01.05.44.23.5.21,0,0,.19-.3.44-.7.25-.4.54-.92.72-1.36.17-.44.32-1.03.37-1.53.01-.12.03-.24.04-.34,0-.11,0-.21,0-.28,0-.16,0-.26,0-.26-.01-.05-.53-.09-.55-.05,0,0-.03.08-.07.22-.02.06-.05.14-.07.24-.04.09-.08.19-.12.29-.16.42-.42.92-.58,1.34-.16.42-.33.97-.46,1.43-.13.46-.21.82-.21.82ZM395.43,88.62c.01.05.44.22.51.19,0,0,.75-1.25,1.09-2.11.33-.86.6-2.29.6-2.29,0-.05-.48-.23-.51-.19,0,0-.75,1.25-1.09,2.11-.33.86-.6,2.29-.6,2.29ZM398.67,192.15c.96.5,2.56,1.07,2.56,1.07.06,0,.27-.41.25-.49,0,0-1.36-1-2.31-1.51-.95-.5-2.55-1.06-2.55-1.06-.06-.01-.31.44-.27.47,0,0,1.37,1.01,2.32,1.52ZM392.83,87.43c0,.06.41.27.49.25,0,0,.97-1.31,1.44-2.27.11-.24.21-.54.31-.82.1-.29.2-.59.24-.87.11-.55.17-.96.17-.96,0-.06-.5-.18-.53-.13,0,0-.18.36-.4.83-.09.24-.24.5-.38.75-.14.26-.26.51-.37.75-.44.92-.97,2.47-.97,2.47ZM397.05,193.21c-.92-.64-2.5-1.45-2.5-1.45-.06-.02-.37.39-.33.43,0,0,1.3,1.23,2.24,1.89.92.64,2.5,1.45,2.5,1.45.07,0,.35-.36.33-.43,0,0-1.3-1.23-2.24-1.89ZM395.85,196.27c-.84-.58-2.3-1.29-2.3-1.29-.06-.02-.37.4-.32.44,0,0,1.18,1.13,2.04,1.73.9.55,2.41,1.18,2.41,1.18.06,0,.29-.4.27-.48,0,0-1.24-1.05-2.11-1.59ZM373.88,77.41c-1.24.35-2.83.77-4.13,1.01-.65.11-1.23.21-1.63.23-.21.02-.37.03-.48.03-.11,0-.17,0-.17,0-.13.03-.19.48-.05.54,0,0,.06,0,.19.02.12.02.3.03.51.03.44.02,1.04,0,1.72-.06,1.36-.12,3.03-.43,4.31-.78,1.28-.35,2.87-.96,4.09-1.59.3-.17.59-.32.84-.47.25-.15.47-.3.65-.41.35-.26.56-.42.56-.42.11-.09-.2-.51-.32-.44,0,0-.21.12-.56.33-.19.09-.41.2-.66.32-.25.12-.54.23-.84.36-1.22.5-2.8.96-4.04,1.3ZM353.69,211.96c-.45.02-.46.53,0,.54,0,0,.84.02,2.22.04,1.39.04,3.33.11,5.54.18,2.21.07,4.7.14,7.18.08,2.48-.06,4.96-.2,7.12-.54,2.15-.33,4.6-.86,6.95-1.76.58-.24,1.15-.5,1.73-.75.29-.12.57-.27.84-.42.27-.15.54-.3.81-.45.27-.16.55-.28.79-.46.25-.18.49-.35.74-.52.49-.35.98-.67,1.39-1.03,1.73-1.38,3.21-2.71,4.12-3.8.24-.26.42-.53.59-.75.17-.22.32-.41.42-.58.21-.33.33-.51.33-.51.22-.4-.17-.64-.46-.3,0,0-.12.17-.33.48-.1.16-.25.33-.42.54-.17.21-.35.45-.6.7-.91,1.02-2.37,2.26-4.13,3.59-.43.35-.91.64-1.38.96-.23.16-.48.32-.72.48-.24.16-.52.28-.77.42-.26.13-.52.27-.79.41-.26.14-.53.28-.81.39-.56.23-1.11.47-1.68.69-2.29.82-4.66,1.3-6.77,1.62-2.11.33-4.54.5-6.99.61-2.45.11-4.93.09-7.14.1-2.21-.01-4.16-.02-5.55,0-1.39.02-2.23.04-2.23.04ZM299.6,77.6c-.67-.26-1.25-.54-1.64-.75-.2-.11-.34-.22-.45-.28-.11-.07-.16-.1-.16-.1-.13-.07-.46.33-.33.43,0,0,.06.04.16.13.11.08.25.21.45.34.4.27.97.63,1.65.96,1.36.67,3.14,1.28,4.57,1.63,1.42.35,3.28.61,4.77.71,1.5.11,2.65.02,2.65.02.15-.04.14-.49,0-.55,0,0-1.1-.04-2.55-.27-1.45-.22-3.23-.61-4.61-.95-1.38-.33-3.14-.8-4.49-1.33ZM281.64,204.77c-.79-.36-1.27-.58-1.27-.58-.26-.11-.51.34-.26.48,0,0,.47.25,1.25.66.39.2.85.47,1.4.71.54.24,1.14.51,1.79.8.64.3,1.35.53,2.06.81.36.13.73.27,1.09.4.37.12.75.23,1.12.35,1.49.49,3.02.84,4.35,1.16.67.12,1.39.26,2.14.4.74.15,1.52.23,2.29.35,1.54.23,3.12.35,4.5.53.69.08,1.35.15,1.93.22.59.06,1.14.07,1.58.09.45.01.81-.04,1.06-.04.25-.02.38-.02.38-.02.29-.04.23-.5-.05-.54,0,0-.13,0-.37,0-.23,0-.58.02-1-.01-.43-.05-.94-.08-1.52-.17-.58-.09-1.23-.2-1.92-.31-1.38-.24-2.92-.42-4.45-.7-.76-.14-1.53-.25-2.25-.4-.73-.15-1.44-.29-2.1-.42-1.31-.31-2.81-.62-4.29-1.06-.37-.11-.75-.21-1.12-.31-.36-.12-.72-.24-1.09-.36-.71-.25-1.42-.44-2.06-.71-.65-.25-1.25-.49-1.8-.7-.55-.21-1.01-.46-1.4-.63ZM277.64,204.3c.06.04.48-.13.51-.21,0,0-.03-.11-.06-.29-.04-.18-.11-.42-.15-.71-.11-.56-.15-1.28-.22-1.83-.05-.55-.16-1.27-.2-1.86-.06-.59-.09-1.04-.09-1.04-.02-.06-.53-.09-.55-.03,0,0-.02.11-.05.3-.03.19-.08.45-.11.76-.08.6-.1,1.38-.05,1.98.08.6.25,1.36.51,1.94.11.29.24.53.32.71.09.18.14.28.14.28ZM275.38,92.04c-.59-.37-1.04-.66-1.04-.66-.07-.03-.41.36-.36.42,0,0,.39.38.92.88.26.26.58.51.9.75.32.24.64.49.94.68.31.18.66.36,1.02.54.36.19.72.36,1.06.48.68.27,1.18.45,1.18.45.08,0,.27-.41.23-.5,0,0-.45-.29-1.05-.67-.3-.18-.63-.4-.95-.62-.33-.22-.65-.43-.94-.6-.28-.18-.61-.39-.94-.58-.34-.19-.68-.38-.97-.58ZM273.25,93.22c-.75-.49-1.33-.86-1.33-.86-.08-.04-.42.35-.35.43,0,0,.51.46,1.19,1.08.68.62,1.59,1.3,2.31,1.82,1.47.99,3.86,2.34,3.86,2.34.1.02.36-.35.32-.45,0,0-2.12-1.78-3.58-2.76-.71-.51-1.68-1.07-2.43-1.59ZM274.14,195.72c-.01-.07-.53-.12-.55-.05,0,0-.02.14-.07.37-.04.23-.1.56-.14.94-.11.75-.13,1.71-.06,2.46.11.75.35,1.7.71,2.39.15.36.34.65.47.85.13.2.21.32.21.32.07.06.46-.17.48-.26,0,0-.05-.13-.13-.34-.08-.21-.2-.5-.28-.85-.22-.68-.31-1.56-.41-2.24-.07-.69-.18-1.58-.2-2.31-.02-.37-.02-.69-.03-.92,0-.23,0-.38,0-.38ZM271.33,95.13c-.76-.58-1.33-1.02-1.33-1.02-.08-.05-.45.32-.38.4,0,0,.51.53,1.19,1.22.17.17.35.36.54.54.2.17.41.35.61.53.41.35.83.7,1.2.99.39.27.84.56,1.3.85.46.29.92.57,1.36.79.86.44,1.52.78,1.52.78.1.03.33-.37.27-.47,0,0-.59-.42-1.36-.99-.39-.26-.82-.59-1.23-.92-.43-.32-.85-.63-1.22-.9-.36-.28-.79-.59-1.22-.9-.22-.15-.44-.3-.65-.45-.21-.16-.4-.32-.59-.46ZM271.59,196.18c-.29-1.11-.85-2.89-.85-2.89-.02-.06-.54.03-.54.1,0,0,.06,1.87.36,3.06.16.59.43,1.33.74,1.89.14.28.29.52.4.69.11.17.17.27.17.27.06.04.46-.18.48-.25,0,0-.03-.11-.09-.29-.06-.18-.14-.42-.22-.71-.17-.56-.31-1.29-.45-1.85ZM265.76,132.4c0,.32.45.36.55.04,0,0,.09-.59.23-1.57.14-.97.31-2.36.5-3.95.39-3.17.4-7.13.51-10.2.05-1.54.12-3.28.3-5.02.18-1.74.48-3.46.88-4.97.38-1.52.9-2.79,1.27-3.7.19-.45.38-.8.5-1.05.12-.25.18-.38.18-.38.13-.29-.32-.56-.48-.26,0,0-.07.13-.21.38-.13.25-.34.59-.55,1.04-.43.91-1.02,2.2-1.47,3.75-.47,1.54-.85,3.3-1.09,5.08-.23,1.77-.33,3.54-.39,5.09-.11,3.1,0,7.03-.25,10.17-.12,1.57-.23,2.95-.33,3.95-.09,1-.15,1.59-.15,1.59ZM266.37,140.67c-.59-.46-1.66-.99-1.66-.99-.04,0-.37.39-.35.43,0,0,.76.93,1.35,1.41.62.45,1.73.94,1.73.94.05,0,.31-.39.31-.46,0,0-.8-.88-1.39-1.32ZM266.31,137.82c-.67-.49-1.84-1.04-1.84-1.04-.05-.01-.35.41-.32.44,0,0,.87.96,1.52,1.44.67.49,1.85,1.03,1.85,1.03.06,0,.31-.38.31-.45,0,0-.88-.94-1.52-1.42ZM264.8,146.21c-.02-.11-.54-.1-.55.01,0,0-.04.85-.1,1.97-.03,1.12-.14,2.5-.14,3.59,0,.54-.01,1.16-.02,1.78,0,.62.03,1.25,0,1.8-.03,1.11-.06,1.95-.06,1.95.03.11.48.18.54.07,0,0,.13-.85.31-1.97.09-.56.13-1.19.18-1.82.04-.63.1-1.25.1-1.8,0-1.09-.03-2.49-.12-3.62-.09-1.12-.16-1.97-.16-1.97ZM265.29,134.57c-.49-.3-.87-.52-.87-.52-.06-.02-.39.37-.35.42,0,0,.31.32.73.74.42.42.97.89,1.41,1.23.9.65,2.29,1.65,2.29,1.65.06.02.4-.3.39-.38,0,0-.27-.35-.67-.81-.1-.11-.2-.23-.31-.35-.12-.11-.24-.23-.36-.34-.24-.22-.49-.44-.71-.62-.45-.34-1.08-.71-1.56-1.02ZM262.37,166.29c-.46-11.91.39-23.53.57-34.49.17-5.49.07-10.81.24-15.89.17-5.08.63-9.96,1.84-14.4,1.21-4.44,3.26-8.35,5.9-11.41,1.33-1.52,2.72-2.89,4.21-4.02,1.46-1.17,2.98-2.13,4.45-2.99,2.96-1.71,5.83-2.87,8.36-3.8,1.28-.43,2.46-.86,3.57-1.17.55-.16,1.09-.32,1.59-.47.25-.08.49-.14.76-.25.14-.04.25-.12.37-.18.11-.07.23-.13.32-.21.81-.62,1.31-1.38,1.62-2.08.3-.7.46-1.33.48-1.86.04-.26.01-.49.02-.69,0-.2-.02-.37-.05-.5-.04-.26-.06-.4-.06-.4-.14-.68-.39-1.21-.65-1.62,1.35.54,3.25,1.16,5.63,1.68,5.31,1.19,12.98,1.94,22,2.14,9.02.19,19.4-.12,30.19-1.01,2.7-.23,5.42-.5,8.15-.83,2.72-.34,5.49-.73,8.19-1.36,2.7-.6,5.39-1.32,8.01-2.22.66-.22,1.31-.45,1.95-.71.59-.23,1.19-.46,1.77-.72-.04.05-.07.1-.11.16-.3.49-.7,1.29-.95,2.44,0,0-.02.13-.08.38-.04.26-.11.64-.14,1.15-.03.51-.04,1.15.08,1.9.13.74.39,1.63,1.1,2.41.35.38.83.69,1.38.86.27.1.56.15.86.18.28.03.56.06.84.09.57.07,1.16.12,1.78.21.61.13,1.24.27,1.89.4,2.58.68,5.44,1.94,8.06,4.12,2.61,2.18,4.98,5.15,6.92,8.71,1.91,3.58,3.47,7.67,4.66,12.13,2.4,8.93,3.51,19.2,3.92,30.13.21,5.47.21,11.11.16,16.88-.08,5.76-.29,11.64-.87,17.57-.3,2.96-.67,5.94-1.2,8.89-.53,2.96-1.19,5.91-2.02,8.81-.85,2.9-1.9,5.75-3.17,8.5-1.28,2.74-2.78,5.39-4.61,7.8-1.81,2.41-3.91,4.6-6.24,6.5l-.88.7c-.29.24-.58.47-.9.67l-1.86,1.26-1.95,1.11c-.32.2-.65.36-.99.52l-1.01.48c-2.71,1.25-5.54,2.23-8.43,2.86-1.43.38-2.91.57-4.36.83-1.46.21-2.93.37-4.39.56-.73.09-1.46.17-2.18.26-.73.06-1.46.12-2.18.18-1.46.11-2.9.25-4.34.34-2.89.12-5.74.32-8.57.34-1.41.03-2.82.07-4.21.08-1.4,0-2.78,0-4.16.01-2.75.02-5.47-.05-8.13-.07-2.67-.05-5.38-.1-8.13-.15-1.37-.02-2.76-.05-4.16-.08-1.4-.02-2.8-.11-4.22-.15-5.66-.19-11.46-.31-17.31-.86-5.83-.57-11.77-1.54-17.36-3.7l-1.05-.4c-.35-.15-.68-.31-1.02-.46-.67-.32-1.38-.58-2-.99l-.96-.57-.48-.28c-.16-.1-.3-.22-.46-.33l-.91-.65c-.3-.23-.62-.42-.89-.68-2.31-1.89-4.3-4.19-5.91-6.74-1.62-2.54-2.9-5.3-3.93-8.15-1.03-2.85-1.81-5.78-2.42-8.74-1.18-5.94-1.72-11.96-1.94-17.91Z"/>
          <path class="st20" d="M262.94,131.8c-.18,10.96-1.02,22.58-.57,34.49.22,5.95.76,11.98,1.94,17.91.6,2.97,1.39,5.89,2.42,8.74,1.03,2.84,2.31,5.6,3.93,8.15,1.61,2.55,3.6,4.85,5.91,6.74.27.26.59.46.89.68l.91.65c.15.11.3.23.46.33l.48.28.96.57c.62.41,1.33.67,2,.99.34.15.68.31,1.02.46l1.05.4c5.59,2.17,11.53,3.13,17.36,3.7,5.85.55,11.65.67,17.31.86,1.42.04,2.82.12,4.22.15,1.4.03,2.79.05,4.16.08,2.75.05,5.47.1,8.13.15,2.66.02,5.38.09,8.13.07,1.37,0,2.76,0,4.16-.01,1.4,0,2.8-.05,4.21-.08,2.82-.02,5.68-.21,8.57-.34,1.44-.09,2.88-.23,4.34-.34.72-.06,1.45-.12,2.18-.18.73-.09,1.45-.17,2.18-.26,1.46-.19,2.93-.35,4.39-.56,1.45-.27,2.92-.45,4.36-.83,2.89-.63,5.72-1.62,8.43-2.86l1.01-.48c.34-.16.67-.32.99-.52l1.95-1.11,1.86-1.26c.32-.2.61-.43.9-.67l.88-.7c2.33-1.9,4.43-4.09,6.24-6.5,1.83-2.4,3.33-5.06,4.61-7.8,1.27-2.74,2.32-5.59,3.17-8.5.83-2.91,1.49-5.85,2.02-8.81.52-2.96.89-5.93,1.2-8.89.58-5.93.8-11.81.87-17.57.05-5.77.05-11.41-.16-16.88-.41-10.92-1.51-21.2-3.92-30.13-1.19-4.46-2.75-8.56-4.66-12.13-1.94-3.55-4.31-6.53-6.92-8.71-2.61-2.18-5.48-3.44-8.06-4.12-.65-.14-1.28-.27-1.89-.4-.62-.09-1.21-.14-1.78-.21-.29-.03-.57-.06-.84-.09-.29-.03-.58-.08-.86-.18-.55-.17-1.03-.48-1.38-.86-.71-.77-.97-1.67-1.1-2.41-.13-.75-.11-1.39-.08-1.9.03-.51.1-.9.14-1.15.05-.25.08-.38.08-.38.25-1.15.65-1.95.95-2.44.04-.06.07-.11.11-.16l.3.12c-.2.5-.54,1.35-.82,2.59,0,0-.02.12-.07.36-.04.24-.1.61-.13,1.09-.03.48-.04,1.08.08,1.77.12.68.37,1.47.96,2.11.29.31.68.56,1.14.71.23.08.47.12.73.14.28.03.56.06.84.09.58.07,1.19.12,1.82.21.63.13,1.27.27,1.95.41,2.65.68,5.61,1.98,8.31,4.21,2.69,2.23,5.13,5.26,7.1,8.87,1.95,3.63,3.55,7.77,4.76,12.26,2.45,9,3.59,19.32,4.03,30.28.22,5.48.25,11.14.21,16.91-.06,5.78-.26,11.69-.83,17.65-.3,2.98-.66,5.98-1.19,8.97-.53,2.99-1.18,5.97-2.02,8.92-.85,2.94-1.91,5.84-3.2,8.64-1.3,2.79-2.82,5.51-4.69,7.98-1.85,2.47-4,4.73-6.39,6.68l-.91.72c-.3.24-.61.48-.93.69l-1.92,1.29-2,1.14c-.33.2-.67.37-1.02.53l-1.04.49c-5.55,2.64-11.63,3.76-17.48,4.37-.73.09-1.47.18-2.2.27-.74.06-1.47.12-2.2.18-1.46.12-2.92.25-4.37.34-2.9.13-5.77.32-8.61.35-1.42.03-2.83.07-4.23.09-1.4,0-2.79,0-4.17,0-2.76.02-5.48-.05-8.15-.07-2.67-.05-5.39-.1-8.14-.15-1.38-.02-2.77-.05-4.17-.08-1.4-.03-2.81-.12-4.22-.15-5.65-.2-11.47-.32-17.37-.88-5.89-.59-11.91-1.57-17.63-3.79l-1.07-.41c-.35-.15-.7-.32-1.05-.47-.69-.34-1.42-.6-2.07-1.03l-1-.59-.5-.3c-.17-.1-.32-.23-.48-.34l-.94-.69c-.31-.23-.64-.44-.92-.71-2.4-1.97-4.45-4.36-6.1-6.98-1.66-2.62-2.96-5.45-4-8.35-1.04-2.9-1.83-5.88-2.43-8.88-1.18-6.01-1.71-12.08-1.92-18.06-.42-11.98.45-23.6.66-34.55.19-5.47.1-10.78.29-15.9.19-5.11.66-10.04,1.91-14.56,1.24-4.51,3.37-8.53,6.08-11.66,1.37-1.55,2.8-2.94,4.32-4.09,1.49-1.19,3.04-2.16,4.54-3.03,3.01-1.72,5.92-2.88,8.48-3.82,1.29-.43,2.48-.86,3.61-1.17.56-.16,1.09-.32,1.6-.47.25-.07.51-.15.7-.22.1-.03.2-.1.3-.15.09-.06.19-.11.27-.18.7-.53,1.16-1.22,1.45-1.85.27-.63.42-1.21.44-1.68.04-.23.02-.44.02-.62,0-.18,0-.33-.03-.45-.03-.24-.05-.36-.05-.36-.12-.69-.36-1.22-.58-1.64l.46-.09h0c.25.41.5.94.65,1.62,0,0,.02.14.06.4.03.13.05.3.05.5,0,.2.02.43-.02.69-.03.52-.18,1.16-.48,1.86-.31.69-.81,1.46-1.62,2.08-.09.08-.21.15-.32.21-.12.06-.23.14-.37.18-.27.11-.51.18-.76.25-.5.15-1.04.31-1.59.47-1.11.31-2.29.74-3.57,1.17-2.53.93-5.4,2.1-8.36,3.8-1.48.86-2.99,1.82-4.45,2.99-1.49,1.13-2.88,2.5-4.21,4.02-2.64,3.06-4.69,6.97-5.9,11.41-1.21,4.44-1.67,9.32-1.84,14.4-.17,5.09-.08,10.4-.24,15.89Z"/>
          <path class="st20" d="M257.64,179.92c-.69-3.04-1.22-6.89-1.35-9.91-.18-3.02-.2-6.88-.2-9.96-.02-1.55.05-2.92-.05-3.84-.02-.23-.06-.44-.09-.62-.05-.18-.08-.33-.11-.46-.07-.24-.12-.38-.12-.38-.09-.29.38-.5.51-.2,0,0,.06.14.16.4.04.14.09.3.15.49.04.2.09.42.13.67.08.5.12,1.1.14,1.75.03.65.05,1.38.09,2.14.13,3.09.28,6.93.46,9.92.13,3,.52,6.8,1.07,9.81.14.76.28,1.46.4,2.11.16.63.3,1.19.42,1.66.24.94.38,1.5.38,1.5.03.32-.4.46-.52.16,0,0-.17-.56-.46-1.5-.14-.47-.31-1.03-.5-1.66-.15-.64-.31-1.35-.49-2.11Z"/>
          <path class="st20" d="M252.81,168.26c0-1.12.09-2.56.3-3.68.09-.57.2-1.05.28-1.4.08-.35.13-.56.13-.56.03-.11.54-.02.54.1,0,0-.02.21-.05.56-.03.35-.08.84-.1,1.39-.09,1.11-.05,2.49-.04,3.57.05,1.07.08,2.45.26,3.54.06.55.16,1.03.24,1.37.07.34.11.55.11.55-.02.12-.46.26-.52.16,0,0-.07-.2-.19-.54-.12-.34-.3-.82-.42-1.38-.32-1.11-.49-2.54-.54-3.67Z"/>
        </g>
        <path class="st20" d="M282.87,206s-.06-.05-.13-.11c-.03-.03-.07-.07-.09-.1-.01-.02-.02-.04-.03-.05v-.02s-.01-.01-.01-.01h0s0,0,0,0h0s0,0,0,0h1.08s0-.02,0-.02c0,.12-.26.32-.26.32-.01,0-.54.01-.56,0,0,0-.26-.19-.26-.31h0s1.08-.01,1.08-.01h0s0,0,0,0h0s0,0,0,0h0s0,.04,0,.04c0,.02-.02.04-.03.05-.02.04-.06.07-.09.1-.06.06-.13.11-.13.11-.06,0-.52.01-.56,0Z"/>
      </g>
      <path class="st5" d="M322.29,168.56c0,5.01-5.8,5.51-12.96,5.51s-12.96-.03-12.96-5.04c0-3.05.38-4.81,3.67-7.31,2.12-1.61,3.37-4.18,6.18-4.18,3.58,0,8.2.78,10.55,3.04,2.35,2.26,5.53,5.48,5.53,7.98Z"/>
      <path class="st5" d="M339.06,165.48c0,5.01-5.8,5.51-12.96,5.51s-12.96-.03-12.96-5.04c0-3.05.38-4.81,3.67-7.31,2.12-1.61,3.37-4.18,6.18-4.18,3.58,0,8.2.78,10.55,3.04,2.35,2.26,5.53,5.48,5.53,7.98Z"/>
      <path class="st2" d="M340.68,151.7c0,3.04-3.52,3.34-7.87,3.34s-7.87-.02-7.87-3.06c0-1.85.23-2.92,2.23-4.44,1.29-.98,2.05-2.54,3.75-2.54,2.17,0,4.98.47,6.4,1.85,1.42,1.37,3.36,3.33,3.36,4.85Z"/>
      <path class="st0" d="M369.47,162.74c0,7.5-8.69,8.25-19.41,8.25s-19.41-.05-19.41-7.55c0-4.56.57-7.2,5.5-10.95,3.18-2.41,5.05-6.26,9.25-6.26,5.36,0,12.28,1.17,15.79,4.55s8.28,8.2,8.28,11.96Z"/>
      <path class="st17" d="M302.97,200.92c0,7.1-6.38,7.8-14.24,7.8s-14.24-.04-14.24-7.14c0-4.32.42-6.82,4.04-10.36,2.33-2.28,3.7-5.92,6.79-5.92,3.93,0,9.01,1.1,11.59,4.31,2.58,3.2,6.08,7.76,6.08,11.31Z"/>
      <path class="st6" d="M299.98,209.9c-1.57,5.36-6.54,4.48-12.47,2.74s-10.74-3.18-9.17-8.54c.95-3.26,1.82-5.05,5.33-6.92,2.26-1.21,4.1-3.65,6.43-2.97,2.97.87,6.55,2.82,7.79,5.81,1.24,2.99,2.87,7.2,2.08,9.88Z"/>
      <path class="st5" d="M309.97,180.88c0,5.01-5.8,5.51-12.96,5.51s-12.96-.03-12.96-5.04c0-3.05.38-4.81,3.67-7.31,2.12-1.61,3.37-4.18,6.18-4.18,3.58,0,8.2.78,10.55,3.04,2.35,2.26,5.53,5.48,5.53,7.98Z"/>
      <path class="st1" d="M396.32,197.89c0,14.3-16.57,15.72-37,15.72s-37-.09-37-14.39c0-8.7,1.09-13.73,10.49-20.87,6.06-4.6,9.62-11.93,17.63-11.93,10.22,0,23.41,2.22,30.1,8.68,6.7,6.46,15.78,15.64,15.78,22.79Z"/>
      <path class="st5" d="M349.97,172.37c0,4.85-5.62,5.33-12.55,5.33s-12.55-.03-12.55-4.88c0-2.95.37-4.66,3.56-7.08,2.05-1.56,3.26-4.05,5.98-4.05,3.46,0,7.94.75,10.21,2.94,2.27,2.19,5.35,5.3,5.35,7.73Z"/>
      <path class="st5" d="M357.04,194.58c0,12.13-14.05,13.33-31.38,13.33s-31.38-.07-31.38-12.21c0-7.38.93-11.65,8.9-17.7,5.14-3.9,8.16-10.12,14.95-10.12,8.67,0,19.85,1.89,25.53,7.36,5.68,5.48,13.39,13.26,13.39,19.33Z"/>
      <path class="st5" d="M335.06,208.67c0,6.72-7.78,7.39-17.38,7.39s-17.38-.04-17.38-6.76c0-4.09.51-6.45,4.93-9.8,2.85-2.16,4.52-5.61,8.28-5.61,4.8,0,11,1.04,14.14,4.08,3.15,3.03,7.41,7.35,7.41,10.71Z"/>
      <path class="st5" d="M367.91,182.06c0,5.01-5.8,5.51-12.96,5.51s-12.96-.03-12.96-5.04c0-3.05.38-4.81,3.67-7.31,2.12-1.61,3.37-4.18,6.18-4.18,3.58,0,8.2.78,10.55,3.04,2.35,2.26,5.53,5.48,5.53,7.98Z"/>
      <path class="st5" d="M385.92,205.39c0,10.28-11.91,11.3-26.6,11.3s-26.6-.06-26.6-10.35c0-6.25.79-9.87,7.54-15,4.35-3.31,6.91-8.58,12.67-8.58,7.35,0,16.83,1.6,21.64,6.24,4.81,4.64,11.34,11.24,11.34,16.38Z"/>
      <path class="st5" d="M353.73,188.45c0,4.85-5.62,5.33-12.55,5.33s-12.55-.03-12.55-4.88c0-2.95.37-4.66,3.56-7.08,2.05-1.56,3.26-4.05,5.98-4.05,3.46,0,7.94.75,10.21,2.94,2.27,2.19,5.35,5.3,5.35,7.73Z"/>
      <path class="st5" d="M356.49,208.5c0,7.46-8.64,8.2-19.29,8.2s-19.29-.05-19.29-7.5c0-4.53.57-7.16,5.47-10.88,3.16-2.4,5.01-6.22,9.19-6.22,5.33,0,12.2,1.16,15.69,4.52s8.23,8.15,8.23,11.88Z"/>
      <path class="st5" d="M339.06,193.55c0,5.01-5.8,5.51-12.96,5.51s-12.96-.03-12.96-5.04c0-3.05.38-4.81,3.67-7.31,2.12-1.61,3.37-4.18,6.18-4.18,3.58,0,8.2.78,10.55,3.04,2.35,2.26,5.53,5.48,5.53,7.98Z"/>
      <path class="st5" d="M303.2,205.37c0,3.48-4.03,3.82-8.99,3.82s-8.99-.02-8.99-3.5c0-2.11.27-3.34,2.55-5.07,1.47-1.12,2.34-2.9,4.29-2.9,2.48,0,5.69.54,7.32,2.11s3.84,3.8,3.84,5.54Z"/>
      <path class="st5" d="M308.81,211.6c0,3.48-4.03,3.82-8.99,3.82s-8.99-.02-8.99-3.5c0-2.11.27-3.34,2.55-5.07,1.47-1.12,2.34-2.9,4.29-2.9,2.48,0,5.69.54,7.32,2.11s3.84,3.8,3.84,5.54Z"/>
    </g>
    <path class="st16" d="M326.11,145.53l-4.74.16c-.35.01-.68-.14-.9-.41l-3.02-3.66c-.57-.69-1.69-.46-1.94.4l-1.31,4.56c-.1.33-.34.6-.66.73l-4.41,1.74c-.65.26-.86,1-.57,1.56.08.15.19.3.36.41l3.14,2.13.78.53c.29.19.47.51.49.86l.29,4.73c.06.9,1.09,1.36,1.8.81l3.74-2.91c.27-.21.63-.29.97-.2l4.59,1.18c.87.22,1.64-.62,1.33-1.46l-1.21-3.33-.41-1.13c-.12-.33-.08-.69.11-.98l.41-.64,2.14-3.36c.48-.76-.08-1.75-.98-1.72Z"/>
    <path class="st16" d="M310.42,191.78l-4.02-.14c-.29,0-.57-.16-.74-.39l-2.35-3.27c-.44-.62-1.4-.49-1.66.23l-1.37,3.78c-.1.28-.32.49-.6.58l-3.84,1.22c-.57.18-.79.8-.57,1.29.06.13.15.26.28.36l2.54,1.98.63.49c.23.18.37.46.37.75l-.02,4.03c0,.76.85,1.22,1.48.79l3.33-2.26c.24-.16.55-.21.83-.11l3.82,1.26c.72.24,1.42-.43,1.21-1.16l-.83-2.89-.28-.98c-.08-.28-.03-.59.15-.82l.38-.52,2-2.73c.45-.61.03-1.48-.73-1.51Z"/>
    <path class="st16" d="M377.46,160.75l-3.8-1.33c-.28-.1-.49-.32-.59-.6l-1.26-3.82c-.24-.72-1.19-.88-1.65-.28l-2.44,3.2c-.18.23-.46.37-.75.37l-4.03.02c-.6,0-.99.53-.93,1.06.02.15.06.29.16.43l1.83,2.65.46.66c.17.24.21.55.12.83l-1.23,3.83c-.23.73.44,1.42,1.18,1.2l3.86-1.15c.28-.08.59-.03.83.14l3.27,2.35c.62.45,1.48.01,1.5-.75l.07-3,.02-1.02c0-.29.15-.57.39-.74l.52-.38,2.73-2c.61-.45.47-1.41-.25-1.66Z"/>
  </g>
  <g>
    <g>
      <g class="st21">
        <path class="st20" d="M74.22,202.75c-20.57,8.03,3.7,22,19.76,20.94,23.78-1.44,47.02.73,70.82.43,22.51-.29,53.3-12.01,24.41-20.7-18.97-5.71-51.18-.14-69.91.39-16.06.5-29.97-6.3-45.07-1.07-1.48.3,1.48-.58,0,0Z"/>
      </g>
      <g>
        <path class="st20" d="M205.53,144.47c-.08.01-.45-.26-.44-.32,0,0,.79-1.41,1.43-2.22.69-.77,1.95-1.79,1.95-1.79.05-.03.42.32.4.37,0,0-.86,1.34-1.53,2.1-.63.79-1.8,1.87-1.8,1.87Z"/>
        <path class="st20" d="M204.39,140.49s1.03-1.83,1.83-2.92c.8-1.08,2.24-2.61,2.24-2.61.05-.05.46.27.43.34,0,0-1.04,1.83-1.83,2.9-.8,1.07-2.23,2.6-2.23,2.6-.09.02-.46-.24-.45-.32Z"/>
        <path class="st20" d="M204.99,135.33c-.41.44-.74.76-.74.76-.08.02-.46-.24-.45-.31,0,0,.23-.41.55-.95.32-.55.79-1.15,1.16-1.62.37-.45.94-.98,1.33-1.42.41-.44.74-.77.74-.77.05-.04.47.25.45.31,0,0-.23.41-.55.95-.32.54-.79,1.15-1.16,1.62-.37.45-.94.98-1.33,1.42Z"/>
        <path class="st20" d="M200,92.22c-.17-.29-.27-.45-.27-.45-.2-.35.24-.63.46-.3,0,0,.11.16.29.45.18.29.47.69.78,1.23.15.27.32.57.5.89.18.32.37.67.55,1.05.18.38.38.77.58,1.19.18.43.37.87.56,1.32.74,1.84,1.4,3.97,1.88,6.13.49,2.16.77,4.33.96,6.25.18,1.91.29,4.1.32,6.29.04,2.2.04,4.38-.02,6.36-.1,3.91-.18,6.88-.18,6.88-.06.4-.52.41-.55.01,0,0-.03-2.97-.08-6.89,0-1.95-.07-4.16-.15-6.33-.08-2.18-.22-4.33-.4-6.22-.18-1.89-.42-4.03-.86-6.15-.42-2.12-1-4.22-1.67-6.04-.17-.45-.34-.89-.5-1.32-.18-.41-.36-.81-.53-1.18-.16-.38-.33-.72-.5-1.04-.17-.32-.32-.62-.46-.89-.28-.54-.55-.95-.71-1.24Z"/>
        <path class="st20" d="M196.86,91.06c-.07.02-.49-.15-.5-.21,0,0,.08-.36.21-.82.13-.46.3-1.01.46-1.43.16-.42.42-.92.58-1.34.04-.1.08-.2.12-.29.03-.09.05-.17.07-.24.05-.13.07-.22.07-.22.02-.04.54,0,.55.05,0,0,0,.1,0,.26,0,.08,0,.17,0,.28-.01.11-.02.22-.04.34-.05.5-.2,1.09-.37,1.53-.18.44-.47.96-.72,1.36-.25.4-.44.7-.44.7Z"/>
        <path class="st20" d="M196.06,86.7c-.34.86-1.09,2.11-1.09,2.11-.07.03-.5-.13-.51-.19,0,0,.27-1.43.6-2.29.34-.86,1.09-2.11,1.09-2.11.03-.04.52.14.51.19,0,0-.27,1.43-.6,2.29Z"/>
        <path class="st20" d="M200.26,193.21s-1.6-.56-2.56-1.07c-.96-.51-2.32-1.52-2.32-1.52-.04-.04.21-.49.27-.47,0,0,1.6.56,2.55,1.06.95.51,2.31,1.51,2.31,1.51.03.08-.18.49-.25.49Z"/>
        <path class="st20" d="M193.78,85.41c-.47.96-1.44,2.27-1.44,2.27-.07.02-.48-.18-.49-.25,0,0,.53-1.56.97-2.47.11-.23.23-.49.37-.75.14-.25.28-.51.38-.75.21-.47.4-.83.4-.83.03-.05.53.07.53.13,0,0-.06.41-.17.96-.04.28-.14.58-.24.87-.1.29-.2.58-.31.82Z"/>
        <path class="st20" d="M195.49,194.08c-.94-.66-2.24-1.89-2.24-1.89-.04-.04.27-.46.33-.43,0,0,1.58.81,2.5,1.45.94.66,2.24,1.89,2.24,1.89.02.08-.26.44-.33.43,0,0-1.58-.81-2.5-1.45Z"/>
        <path class="st20" d="M192.59,194.99s1.46.71,2.3,1.29c.87.54,2.11,1.59,2.11,1.59.02.08-.21.48-.27.48,0,0-1.51-.63-2.41-1.18-.86-.6-2.04-1.73-2.04-1.73-.04-.04.27-.46.32-.44Z"/>
        <path class="st20" d="M172.53,61.73s-.39-.64-.49-1.08c-.03-.24,0-.55.04-.79.04-.24.09-.42.09-.42,0-.03.53-.04.54-.01,0,0,.08.16.17.38.09.21.18.46.21.67.08.43-.02,1.15-.02,1.15-.05.03-.5.13-.54.12Z"/>
        <path class="st20" d="M170.25,62.04s-.27-.63-.28-1.05c0-.41.23-1.05.23-1.05.01-.02.53-.04.54-.01,0,0,.27.63.29,1.04,0,.41-.23,1.06-.23,1.06-.05.02-.51.04-.54.01Z"/>
        <path class="st20" d="M168.93,61.8c0,.58-.24,1.49-.24,1.49-.05.03-.51.05-.55.01,0,0-.26-.92-.28-1.52.02-.3.11-.7.19-1,.08-.3.16-.53.16-.53.01-.03.53.04.54.07,0,0,.05.23.09.53.05.3.08.66.07.94Z"/>
        <path class="st20" d="M168.77,78.42c1.3-.24,2.89-.66,4.13-1.01,1.24-.34,2.82-.8,4.04-1.3.3-.13.59-.24.84-.36.25-.12.47-.23.66-.32.35-.21.56-.33.56-.33.12-.07.43.35.32.44,0,0-.21.16-.56.42-.18.11-.4.26-.65.41-.25.15-.53.3-.84.47-1.22.64-2.81,1.24-4.09,1.59-1.28.36-2.95.66-4.31.78-.69.05-1.28.08-1.72.06-.22,0-.39-.01-.51-.03-.12-.01-.19-.02-.19-.02-.14-.06-.09-.52.05-.54,0,0,.06,0,.17,0,.11,0,.27,0,.48-.03.4-.02.98-.12,1.63-.23Z"/>
        <path class="st20" d="M156.26,50.47c-.5-.16-.8-.25-.8-.25-.17-.05,0-.55.15-.53,0,0,.3.07.79.17.25.04.55.08.89.13.34.05.72.06,1.12.1,1.61.1,3.63,0,5.22-.07,1.59-.06,3.65-.1,5.31.01.83.06,1.56.16,2.08.24.52.1.83.16.83.16.16.08.07.53-.09.54,0,0-.31-.03-.81-.08-.5-.03-1.21-.06-2.02-.06-1.62.01-3.64.18-5.25.24-1.6.06-3.68.04-5.34-.19-.41-.07-.8-.12-1.15-.2-.35-.08-.65-.15-.91-.21Z"/>
        <path class="st20" d="M151.46,67.35c-1.07-.07-1.71-.12-1.71-.12-.36-.03-.3-.54.04-.55,0,0,.63.02,1.69.04.52.03,1.16-.03,1.87-.06.35-.01.73-.03,1.12-.05.39-.04.79-.08,1.21-.12,3.35-.31,7.46-1.07,10.66-1.77,3.21-.67,7.28-1.67,10.53-2.57,3.26-.89,5.69-1.67,5.69-1.67.34-.06.49.37.18.52,0,0-2.4.9-5.64,1.92-3.23,1.03-7.3,2.16-10.54,2.84-3.23.7-7.42,1.35-10.83,1.53-.43.02-.84.05-1.23.07-.4,0-.78,0-1.14,0-.72,0-1.36.03-1.9-.03Z"/>
        <path class="st20" d="M154.95,212.54c-1.38-.03-2.22-.04-2.22-.04-.46-.01-.45-.53,0-.54,0,0,.84-.02,2.23-.04,1.39-.01,3.34,0,5.55,0,2.21,0,4.69.01,7.14-.1,2.45-.11,4.88-.28,6.99-.61,2.1-.32,4.48-.81,6.77-1.62.56-.22,1.12-.46,1.68-.69.28-.11.55-.24.81-.39.27-.14.53-.28.79-.41.26-.14.53-.26.77-.42.24-.16.48-.32.72-.48.47-.32.95-.61,1.38-.96,1.77-1.33,3.23-2.56,4.13-3.59.24-.24.43-.49.6-.7.17-.21.32-.38.42-.54.21-.31.33-.48.33-.48.29-.34.68-.1.46.3,0,0-.12.18-.33.51-.1.17-.25.35-.42.58-.17.22-.35.49-.59.75-.91,1.09-2.38,2.42-4.12,3.8-.42.36-.91.68-1.39,1.03-.24.17-.49.34-.74.52-.25.18-.53.3-.79.46-.27.15-.54.3-.81.45-.27.16-.55.31-.84.42-.57.25-1.15.51-1.73.75-2.35.9-4.8,1.43-6.95,1.76-2.16.34-4.63.48-7.12.54-2.48.06-4.97-.02-7.18-.08-2.21-.07-4.15-.14-5.54-.18Z"/>
        <path class="st20" d="M143.8,54.97c-1.45-.94-3.58-2.6-3.58-2.6-.07-.06.21-.5.3-.46,0,0,2.4,1.24,3.87,2.17,1.46.94,3.58,2.6,3.58,2.6.05.1-.21.47-.3.45,0,0-2.4-1.24-3.87-2.17Z"/>
        <path class="st20" d="M138.08,55.38c-1.76-1.14-4.37-3.11-4.37-3.11-.08-.07.2-.5.3-.46,0,0,2.88,1.55,4.64,2.67,1.76,1.14,4.37,3.11,4.37,3.11.07.11-.18.49-.29.46,0,0-2.88-1.55-4.65-2.67Z"/>
        <path class="st20" d="M132.38,55.54c-1.91-1.13-4.75-3.11-4.75-3.11-.09-.07.17-.51.28-.47,0,0,3.1,1.54,5.01,2.66,1.91,1.13,4.75,3.1,4.75,3.1.08.11-.16.5-.28.47,0,0-3.1-1.53-5.01-2.66Z"/>
        <path class="st20" d="M126.57,55.31c-1.55-.94-3.84-2.6-3.84-2.6-.08-.06.19-.5.28-.47,0,0,2.54,1.23,4.1,2.16,1.55.94,3.83,2.6,3.83,2.6.06.09-.18.49-.28.47,0,0-2.55-1.23-4.1-2.16Z"/>
        <path class="st20" d="M103.06,51.53c-.16,0-.16-.52-.01-.54,0,0,.28-.03.75-.08.47-.04,1.13-.11,1.87-.21,1.49-.18,3.36-.46,4.83-.6,1.48-.12,3.38-.21,4.92-.09.38.02.74.02,1.06.07.32.04.61.08.85.11.48.07.76.1.76.1.15.06.09.52-.06.54,0,0-.28,0-.75-.02-.24,0-.52-.02-.83-.03-.31-.01-.67.02-1.04.02-1.49.02-3.35.23-4.81.35-1.46.13-3.34.28-4.86.34-.76.04-1.43.04-1.91.04-.48,0-.77,0-.77,0Z"/>
        <path class="st20" d="M99.52,59.31s.53-.05.54-.01c0,0,.29.99.32,1.63.06.63-.09,1.64-.09,1.64-.05.04-.51.11-.54.08,0,0-.36-.99-.43-1.66-.03-.66.19-1.68.19-1.68Z"/>
        <path class="st20" d="M97.47,60.23c0-.33.1-.76.19-1.09.08-.34.16-.59.16-.59.01-.03.53.03.54.06,0,0,.05.25.1.58.04.33.08.73.07,1.04,0,.64-.23,1.64-.23,1.64-.05.03-.51.05-.54.01,0,0-.27-1.01-.28-1.67Z"/>
        <path class="st20" d="M99.89,56.35c-1.31-.54-2.37-1.12-2.86-1.9-.26-.39-.25-.82-.19-1.06.07-.24.14-.35.14-.35.13-.25.29-.36.41-.42.12-.06.21-.05.25,0,.1.1,0,.34-.18.67,0,0-.01.02-.03.06-.02.04-.03.09-.06.17-.02.15-.04.37.14.64.34.55,1.33,1.13,2.61,1.62,2.58.99,6.43,1.8,10.82,2.49,2.2.35,4.55.65,6.96.92,1.21.13,2.43.26,3.66.36,1.24.07,2.48.15,3.71.22,2.49.16,4.97.26,7.37.37,1.2.07,2.38.07,3.53.11,1.15.02,2.28.08,3.36.07,2.17,0,4.49.05,6.88-.04,1.2-.04,2.42-.04,3.65-.11,1.22-.08,2.46-.15,3.7-.22,4.94-.39,9.93-.95,14.26-1.88,2.17-.49,4.18-1.06,5.94-1.69,1.75-.64,3.3-1.32,4.34-2.15.51-.42.85-.91.76-1.3-.06-.41-.43-.71-.7-.93-.15-.1-.28-.19-.4-.26-.13-.07-.23-.12-.32-.17-.17-.09-.26-.13-.26-.13-.8-.4-.65-.83.23-.5,0,0,.1.04.29.14.09.05.21.11.35.18.13.07.28.18.46.29.09.05.17.13.26.21.08.08.19.15.27.26.17.2.36.46.41.81.08.35-.04.73-.22,1.05-.1.15-.19.31-.32.44-.12.14-.25.27-.4.39-1.14.96-2.72,1.66-4.5,2.34-1.79.67-3.81,1.27-6,1.8-4.4,1-9.39,1.63-14.37,2.07-1.25.09-2.49.17-3.73.26-1.23.08-2.46.09-3.67.14-2.41.11-4.74.06-6.93.06-1.09,0-2.22-.05-3.38-.08-1.15-.04-2.34-.05-3.55-.12-2.41-.12-4.89-.24-7.37-.43-1.25-.09-2.48-.16-3.74-.26-1.24-.11-2.47-.25-3.68-.4-2.42-.3-4.78-.64-6.98-1.02-4.42-.76-8.27-1.63-10.93-2.7Z"/>
        <path class="st20" d="M96.3,58.72s.52.07.54.1c0,0,.05.18.09.4.05.22.09.49.07.69,0,.43-.25,1.11-.25,1.11-.05.02-.51.04-.55,0,0,0-.26-.69-.26-1.15.02-.24.11-.53.2-.77.09-.23.16-.4.16-.4Z"/>
        <path class="st20" d="M96.04,76.9c-.13-.11.21-.5.33-.43,0,0,.06.04.16.1.11.06.25.17.45.28.39.21.96.49,1.64.75,1.36.53,3.11,1,4.49,1.33,1.38.34,3.16.73,4.61.95,1.45.23,2.55.27,2.55.27.15.06.16.51,0,.55,0,0-1.15.09-2.65-.02-1.5-.1-3.35-.36-4.77-.71-1.42-.34-3.2-.96-4.57-1.63-.69-.33-1.26-.68-1.65-.96-.2-.13-.35-.27-.45-.34-.1-.08-.16-.13-.16-.13Z"/>
        <path class="st20" d="M94.14,63.59c-.29-.19-.5-.4-.64-.51-.15-.12-.23-.19-.23-.19-.18-.16.17-.54.35-.42,0,0,.08.06.23.17.15.1.35.28.64.44.57.34,1.38.79,2.38,1.15,1.98.79,4.6,1.3,6.66,1.61,2.06.34,4.73.63,6.88.79,2.16.17,3.79.25,3.79.25.22.06.21.52,0,.55,0,0-1.64.05-3.82,0-2.18-.03-4.89-.21-7.01-.54-2.11-.33-4.79-.98-6.81-1.92-1.02-.44-1.85-.97-2.42-1.37Z"/>
        <path class="st19" d="M172.08,59.86c-.04.24-.07.56-.04.79.1.45.49,1.08.49,1.08.04.01.49-.09.54-.12,0,0,.11-.72.02-1.15-.03-.21-.12-.46-.21-.67-.09-.21-.17-.38-.17-.38-.02-.02-.54-.01-.54.01,0,0-.05.18-.09.42ZM169.96,61c.02.41.28,1.05.28,1.05.03.02.49.01.54-.01,0,0,.23-.65.23-1.06-.02-.41-.29-1.04-.29-1.04-.01-.02-.53,0-.54.01,0,0-.24.64-.23,1.05ZM168.93,61.8c0-.28-.03-.64-.07-.94-.04-.3-.09-.53-.09-.53-.01-.03-.53-.11-.54-.07,0,0-.08.23-.16.53-.08.3-.18.7-.19,1,.02.6.28,1.52.28,1.52.04.03.5.02.55-.01,0,0,.24-.91.24-1.49ZM155.45,50.22s.3.09.8.25c.26.07.57.13.91.21.35.08.74.13,1.15.2,1.66.23,3.74.26,5.34.19,1.6-.06,3.62-.23,5.25-.24.81,0,1.52.03,2.02.06.51.05.81.08.81.08.16,0,.25-.46.09-.54,0,0-.31-.06-.83-.16-.51-.08-1.25-.18-2.08-.24-1.67-.11-3.72-.07-5.31-.01-1.59.07-3.61.17-5.22.07-.4-.04-.78-.06-1.12-.1-.34-.05-.64-.09-.89-.13-.49-.1-.79-.17-.79-.17-.16-.02-.32.47-.15.53ZM151.48,66.73c-1.05-.02-1.69-.04-1.69-.04-.34,0-.4.52-.04.55,0,0,.64.04,1.71.12.54.06,1.18.02,1.9.03.36,0,.74,0,1.14,0,.39-.02.8-.05,1.23-.07,3.41-.18,7.59-.83,10.83-1.53,3.24-.69,7.31-1.81,10.54-2.84,3.23-1.02,5.64-1.92,5.64-1.92.32-.15.16-.58-.18-.52,0,0-2.43.78-5.69,1.67-3.25.9-7.32,1.9-10.53,2.57-3.2.7-7.32,1.46-10.66,1.77-.42.04-.82.08-1.21.12-.39.01-.76.03-1.12.05-.71.03-1.34.09-1.87.06ZM144.39,54.08c-1.47-.93-3.87-2.17-3.87-2.17-.08-.03-.37.4-.3.46,0,0,2.13,1.66,3.58,2.6,1.46.93,3.87,2.17,3.87,2.17.1.02.35-.36.3-.45,0,0-2.13-1.66-3.58-2.6ZM138.65,54.49c-1.76-1.13-4.64-2.67-4.64-2.67-.1-.04-.38.39-.3.46,0,0,2.61,1.97,4.37,3.11,1.77,1.13,4.65,2.67,4.65,2.67.11.03.36-.35.29-.46,0,0-2.61-1.97-4.37-3.11ZM132.92,54.63c-1.92-1.12-5.01-2.66-5.01-2.66-.11-.04-.37.4-.28.47,0,0,2.84,1.97,4.75,3.11,1.92,1.12,5.01,2.66,5.01,2.66.12.03.35-.36.28-.47,0,0-2.84-1.97-4.75-3.1ZM127.11,54.39c-1.56-.93-4.1-2.16-4.1-2.16-.09-.03-.36.41-.28.47,0,0,2.29,1.66,3.84,2.6,1.55.93,4.1,2.16,4.1,2.16.1.02.34-.37.28-.47,0,0-2.29-1.66-3.83-2.6ZM110.51,50.1c-1.47.14-3.34.41-4.83.6-.74.1-1.4.16-1.87.21-.47.05-.75.08-.75.08-.15.02-.15.54.01.54,0,0,.29,0,.77,0,.48,0,1.15,0,1.91-.04,1.53-.06,3.4-.21,4.86-.34,1.46-.12,3.32-.34,4.81-.35.37,0,.73-.04,1.04-.02.32.01.6.02.83.03.47.02.75.02.75.02.15-.02.22-.48.06-.54,0,0-.29-.04-.76-.1-.24-.03-.53-.07-.85-.11-.32-.05-.68-.05-1.06-.07-1.54-.12-3.44-.02-4.92.09ZM99.52,59.31s-.22,1.02-.19,1.68c.07.67.43,1.66.43,1.66.04.03.49-.04.54-.08,0,0,.15-1.02.09-1.64-.03-.64-.32-1.63-.32-1.63-.02-.03-.54-.02-.54.01ZM100.12,55.77c-1.28-.49-2.27-1.06-2.61-1.62-.18-.27-.16-.49-.14-.64.03-.07.04-.13.06-.17.02-.04.03-.06.03-.06.17-.32.27-.57.18-.67-.05-.05-.13-.06-.25,0-.12.05-.28.17-.41.42,0,0-.07.11-.14.35-.06.24-.07.68.19,1.06.5.78,1.55,1.36,2.86,1.9,2.66,1.07,6.51,1.94,10.93,2.7,2.21.38,4.56.72,6.98,1.02,1.21.15,2.44.29,3.68.4,1.27.1,2.49.17,3.74.26,2.48.18,4.97.3,7.37.43,1.21.07,2.39.08,3.55.12,1.16.03,2.28.08,3.38.08,2.18,0,4.52.04,6.93-.06,1.21-.05,2.43-.06,3.67-.14,1.24-.09,2.48-.17,3.73-.26,4.98-.44,9.97-1.07,14.37-2.07,2.18-.53,4.21-1.13,6-1.8,1.78-.68,3.36-1.38,4.5-2.34.14-.12.28-.25.4-.39.13-.13.23-.29.32-.44.18-.32.3-.69.22-1.05-.05-.35-.24-.61-.41-.81-.08-.12-.18-.18-.27-.26-.09-.08-.17-.16-.26-.21-.17-.11-.32-.22-.46-.29-.14-.07-.26-.13-.35-.18-.19-.1-.29-.14-.29-.14-.88-.33-1.03.1-.23.5,0,0,.1.04.26.13.09.05.19.1.32.17.12.07.25.17.4.26.27.22.64.52.7.93.09.39-.25.89-.76,1.3-1.03.84-2.58,1.52-4.34,2.15-1.76.63-3.77,1.2-5.94,1.69-4.33.92-9.32,1.48-14.26,1.88-1.24.07-2.48.15-3.7.22-1.23.07-2.45.07-3.65.11-2.4.09-4.71.04-6.88.04-1.08,0-2.21-.05-3.36-.07-1.15-.03-2.33-.04-3.53-.11-2.4-.11-4.88-.2-7.37-.37-1.24-.07-2.48-.14-3.71-.22-1.22-.1-2.45-.22-3.66-.36-2.41-.27-4.76-.57-6.96-.92-4.39-.69-8.24-1.5-10.82-2.49ZM97.66,59.14c-.08.34-.18.76-.19,1.09.01.66.28,1.67.28,1.67.03.03.49.02.54-.01,0,0,.24-1,.23-1.64.01-.32-.03-.71-.07-1.04-.05-.33-.1-.58-.1-.58-.01-.04-.53-.1-.54-.06,0,0-.08.25-.16.59ZM96.84,58.82s-.52-.11-.54-.1c0,0-.08.17-.16.4-.09.23-.17.53-.2.77,0,.45.26,1.15.26,1.15.04.03.5.01.55,0,0,0,.24-.68.25-1.11.02-.2-.02-.47-.07-.69-.04-.22-.09-.4-.09-.4ZM94.49,63.07c-.29-.16-.49-.34-.64-.44-.15-.11-.23-.17-.23-.17-.18-.11-.53.27-.35.42,0,0,.08.07.23.19.15.12.35.32.64.51.57.4,1.41.93,2.42,1.37,2.02.94,4.7,1.59,6.81,1.92,2.11.34,4.83.51,7.01.54,2.18.04,3.82,0,3.82,0,.22-.03.23-.49,0-.55,0,0-1.64-.08-3.79-.25-2.16-.16-4.82-.46-6.88-.79-2.06-.31-4.69-.82-6.66-1.61-1-.36-1.82-.81-2.38-1.15ZM91.67,65.94s-.04-1.01-.11-2.84c-.05-.92-.08-2.04-.11-3.36-.03-.66,0-1.35.02-2.09,0-.76.04-1.5.33-2.23.6-1.46,2.01-2.68,3.73-3.56,1.72-.9,3.74-1.54,5.91-2.06,4.35-1.03,9.31-1.54,14.61-1.84,5.29-.34,10.93-.32,16.72-.44,2.89,0,5.83.02,8.78.03,1.47,0,2.95.02,4.44.02l4.44.06c5.93.06,11.84.13,17.57.2,1.44.01,2.84.01,4.21.12.68.07,1.37.13,2.03.26.67.09,1.32.28,1.96.44,1.27.39,2.47.92,3.5,1.65,1.04.73,1.88,1.67,2.49,2.72.56.97.94,2.06,1.19,3.17.08.28.07.55.09.82.01.27.04.52.04.81.01.56.03,1.12.04,1.65.04,2.03.07,3.78.09,4.88,0,0,0,0,0,0l-.32.16-.9.45c-.6.31-1.22.55-1.84.84-.61.29-1.25.52-1.88.77-.63.26-1.27.48-1.91.7-2.57.89-5.21,1.61-7.89,2.22-2.67.64-5.37,1.03-8.09,1.38-2.72.34-5.43.62-8.11.86-10.75.94-21.1,1.3-30.09,1.17-8.99-.14-16.63-.84-21.89-1.98-2.63-.55-4.66-1.22-5.98-1.79-.18-.08-.35-.15-.5-.23-.27-.25-.42-.37-.46-.34-.02.01,0,.06.02.13-.21-.1-.39-.2-.54-.28-.32-.18-.49-.28-.49-.28-.58-.34-.98-.58-1.21-.68.08-.21.13-.72.11-1.53Z"/>
        <path class="st20" d="M91.22,55.17c.68-1.67,2.22-2.99,4-3.91,1.79-.95,3.85-1.62,6.05-2.16,4.41-1.07,9.41-1.61,14.72-1.96,5.32-.37,10.96-.38,16.76-.53,2.9,0,5.84,0,8.79,0,1.47,0,2.96,0,4.44,0l4.45.04c5.93.05,11.84.09,17.56.13,1.42.01,2.86,0,4.29.12.71.07,1.42.13,2.13.27.7.1,1.39.29,2.08.47,1.36.41,2.67.98,3.82,1.8,1.15.81,2.11,1.87,2.79,3.05.63,1.08,1.05,2.29,1.31,3.47.09.29.08.61.11.92.02.31.05.63.05.91.01.57.03,1.13.04,1.67.02,1.07.03,2.07.05,2.94,0,.43.02.84.02,1.21,0,.18,0,.36,0,.53v.12c0,.05,0,.06.03.16.05.18.09.35.13.51-.66.33-1.31.66-1.97.99-.52.27-1.07.49-1.61.73-.03.08-.07.18-.12.3l-.3-.12c-.58.26-1.18.48-1.77.72-.64.26-1.29.49-1.95.71-2.61.9-5.3,1.62-8.01,2.22-2.7.64-5.46,1.03-8.19,1.36-2.73.34-5.45.6-8.15.83-10.79.89-21.16,1.2-30.19,1.01-9.02-.2-16.69-.95-22-2.14-2.39-.52-4.28-1.14-5.63-1.68h0s-.46.09-.46.09c-.08-.14-.15-.27-.21-.38-.24-.11-.46-.21-.66-.3-.25-.13-.46-.24-.64-.34-.33-.2-.51-.3-.51-.3-.95-.62-1.26-1.11-1.18-1.19,0,0,.02,0,.03-.01-.09-.24-.18-.72-.22-1.46,0,0-.04-1-.13-2.84-.06-.92-.09-2.05-.14-3.37-.04-.66,0-1.37,0-2.13,0-.74.03-1.6.36-2.44ZM91.45,59.73c.03,1.31.06,2.44.11,3.36.07,1.84.11,2.84.11,2.84.03.81-.03,1.32-.11,1.53.24.1.63.34,1.21.68,0,0,.17.1.49.28.15.08.33.17.54.28-.02-.06-.04-.11-.02-.13.04-.03.19.08.46.34.15.07.32.15.5.23,1.33.57,3.35,1.24,5.98,1.79,5.25,1.14,12.89,1.85,21.89,1.98,8.99.13,19.34-.23,30.09-1.17,2.69-.24,5.4-.52,8.11-.86,2.72-.35,5.42-.74,8.09-1.38,2.68-.61,5.32-1.33,7.89-2.22.64-.22,1.28-.44,1.91-.7.63-.25,1.26-.48,1.88-.77.62-.29,1.24-.53,1.84-.84l.9-.45.32-.16s.01,0,0,0c-.02-1.1-.06-2.85-.09-4.88-.01-.54-.03-1.09-.04-1.65,0-.29-.03-.54-.04-.81-.02-.27,0-.54-.09-.82-.24-1.11-.62-2.2-1.19-3.17-.61-1.06-1.46-1.99-2.49-2.72-1.03-.73-2.23-1.26-3.5-1.65-.64-.17-1.29-.35-1.96-.44-.66-.13-1.35-.19-2.03-.26-1.37-.11-2.77-.11-4.21-.12-5.72-.06-11.64-.13-17.57-.2l-4.44-.06c-1.48,0-2.96-.02-4.44-.02-2.95,0-5.88-.02-8.78-.03-5.78.12-11.42.1-16.72.44-5.29.3-10.26.82-14.61,1.84-2.17.51-4.19,1.16-5.91,2.06-1.72.87-3.12,2.1-3.73,3.56-.29.73-.33,1.47-.33,2.23-.01.74-.05,1.43-.02,2.09Z"/>
        <path class="st20" d="M80.39,205.33c-.78-.41-1.25-.66-1.25-.66-.26-.14,0-.59.26-.48,0,0,.48.22,1.27.58.4.18.86.42,1.4.63.55.21,1.15.45,1.8.7.63.27,1.35.46,2.06.71.36.12.72.24,1.09.36.37.1.74.2,1.12.31,1.48.43,2.98.75,4.29,1.06.66.13,1.37.28,2.1.42.73.16,1.5.26,2.25.4,1.53.28,3.07.46,4.45.7.69.11,1.33.21,1.92.31.57.09,1.09.12,1.52.17.43.03.77,0,1,.01.24,0,.37,0,.37,0,.28.04.33.5.05.54,0,0-.14,0-.38.02-.25,0-.61.06-1.06.04-.44-.02-.99-.03-1.58-.09-.59-.07-1.24-.14-1.93-.22-1.37-.18-2.95-.29-4.5-.53-.77-.12-1.55-.21-2.29-.35-.75-.14-1.46-.28-2.14-.4-1.33-.32-2.86-.67-4.35-1.16-.37-.12-.75-.23-1.12-.35-.37-.13-.73-.27-1.09-.4-.72-.28-1.43-.5-2.06-.81-.64-.29-1.25-.56-1.79-.8-.54-.24-1-.51-1.4-.71Z"/>
        <path class="st20" d="M73.92,92.68c-.53-.5-.92-.88-.92-.88-.05-.06.29-.45.36-.42,0,0,.45.29,1.04.66.28.2.63.39.97.58.33.2.66.4.94.58.29.17.62.38.94.6.32.22.65.44.95.62.6.38,1.05.67,1.05.67.04.08-.16.5-.23.5,0,0-.51-.18-1.18-.45-.34-.12-.7-.29-1.06-.48-.36-.18-.71-.37-1.02-.54-.3-.19-.62-.44-.94-.68-.32-.24-.64-.49-.9-.75Z"/>
        <path class="st20" d="M76.52,204.02c-.09-.17-.22-.42-.32-.71-.25-.57-.43-1.34-.51-1.94-.05-.6-.03-1.38.05-1.98.03-.31.08-.57.11-.76.03-.19.05-.3.05-.3.01-.06.53-.04.55.03,0,0,.04.45.09,1.04.05.59.15,1.31.2,1.86.07.55.11,1.27.22,1.83.04.29.11.53.15.71.04.18.06.29.06.29-.03.08-.45.25-.51.21,0,0-.05-.1-.14-.28Z"/>
        <path class="st20" d="M71.8,93.86c-.68-.61-1.19-1.08-1.19-1.08-.07-.07.26-.47.35-.43,0,0,.57.37,1.33.86.74.51,1.72,1.07,2.43,1.59,1.46.98,3.58,2.76,3.58,2.76.04.1-.22.47-.32.45,0,0-2.39-1.35-3.86-2.34-.72-.52-1.63-1.19-2.31-1.82Z"/>
        <path class="st20" d="M73.53,202.69c-.13-.21-.31-.49-.47-.85-.37-.7-.6-1.65-.71-2.39-.07-.75-.05-1.71.06-2.46.04-.38.1-.71.14-.94.04-.23.07-.37.07-.37.02-.08.54-.03.55.05,0,0,0,.14,0,.38.01.23,0,.55.03.92.02.73.13,1.62.2,2.31.1.68.19,1.56.41,2.24.08.35.2.64.28.85.08.22.13.34.13.34-.02.09-.41.32-.48.26,0,0-.08-.12-.21-.32Z"/>
        <path class="st20" d="M69.03,94.11s.57.44,1.33,1.02c.19.14.38.3.59.46.21.15.43.3.65.45.43.31.85.62,1.22.9.38.27.8.57,1.22.9.42.32.84.65,1.23.92.77.56,1.36.99,1.36.99.06.09-.17.49-.27.47,0,0-.65-.34-1.52-.78-.44-.22-.9-.5-1.36-.79-.46-.29-.91-.58-1.3-.85-.37-.29-.79-.64-1.2-.99-.2-.18-.41-.36-.61-.53-.19-.18-.37-.37-.54-.54-.67-.7-1.19-1.22-1.19-1.22-.07-.08.29-.45.38-.4Z"/>
        <path class="st20" d="M70.73,199.01c-.11-.17-.26-.4-.4-.69-.31-.56-.58-1.3-.74-1.89-.3-1.19-.36-3.06-.36-3.06,0-.06.51-.16.54-.1,0,0,.56,1.78.85,2.89.15.56.28,1.29.45,1.85.08.29.16.54.22.71.06.18.09.29.09.29-.02.08-.42.29-.48.25,0,0-.06-.1-.17-.27Z"/>
        <path class="st20" d="M65.56,130.87c-.14.98-.23,1.57-.23,1.57-.09.32-.55.28-.55-.04,0,0,.06-.6.15-1.59.1-1,.21-2.38.33-3.95.26-3.14.14-7.07.25-10.17.06-1.55.16-3.32.39-5.09.23-1.77.61-3.54,1.09-5.08.45-1.55,1.04-2.83,1.47-3.75.22-.45.42-.8.55-1.04.13-.25.21-.38.21-.38.16-.3.61-.03.48.26,0,0-.06.13-.18.38-.11.25-.3.59-.5,1.05-.37.91-.89,2.18-1.27,3.7-.4,1.51-.71,3.24-.88,4.97-.18,1.74-.25,3.48-.3,5.02-.12,3.07-.13,7.03-.51,10.2-.19,1.59-.36,2.98-.5,3.95Z"/>
        <path class="st20" d="M64.75,141.51c-.59-.48-1.35-1.41-1.35-1.41-.02-.04.3-.43.35-.43,0,0,1.07.53,1.66.99.59.44,1.39,1.32,1.39,1.32,0,.07-.25.45-.31.46,0,0-1.1-.48-1.73-.94Z"/>
        <path class="st20" d="M65.24,136.44c-.44-.35-.99-.81-1.41-1.23-.42-.42-.73-.74-.73-.74-.04-.04.3-.44.35-.42,0,0,.38.22.87.52.48.3,1.11.68,1.56,1.02.22.18.47.4.71.62.12.11.24.23.36.34.11.12.21.24.31.35.39.46.67.81.67.81,0,.08-.33.39-.39.38,0,0-1.4-1.01-2.29-1.65Z"/>
        <path class="st20" d="M64.7,138.66c-.65-.49-1.52-1.44-1.52-1.44-.03-.04.27-.46.32-.44,0,0,1.17.55,1.84,1.04.65.48,1.52,1.42,1.52,1.42,0,.07-.25.45-.31.45,0,0-1.18-.54-1.85-1.03Z"/>
        <path class="st20" d="M63.51,157.38c-.07.11-.52.04-.54-.07,0,0,.02-.84.06-1.95.03-.55,0-1.18,0-1.8,0-.62.01-1.24.02-1.78,0-1.09.11-2.47.14-3.59.06-1.12.1-1.97.1-1.97.01-.11.53-.13.55-.01,0,0,.07.85.16,1.97.09,1.12.12,2.52.12,3.62,0,.55-.06,1.17-.1,1.8-.06.63-.09,1.26-.18,1.82-.18,1.12-.31,1.97-.31,1.97Z"/>
        <path class="st18" d="M206.22,137.57c-.8,1.09-1.83,2.92-1.83,2.92-.01.08.36.34.45.32,0,0,1.43-1.53,2.23-2.6.79-1.08,1.83-2.9,1.83-2.9.03-.07-.38-.39-.43-.34,0,0-1.44,1.52-2.24,2.61ZM206.52,141.92c-.64.82-1.43,2.22-1.43,2.22,0,.06.37.33.44.32,0,0,1.18-1.08,1.8-1.87.67-.75,1.53-2.1,1.53-2.1.02-.05-.35-.41-.4-.37,0,0-1.25,1.02-1.95,1.79ZM203.81,135.78c-.01.07.37.33.45.31,0,0,.33-.33.74-.76.4-.45.96-.97,1.33-1.42.38-.47.84-1.07,1.16-1.62.33-.54.55-.95.55-.95.03-.06-.4-.36-.45-.31,0,0-.33.33-.74.77-.4.45-.96.97-1.33,1.42-.38.47-.84,1.07-1.16,1.62-.33.53-.55.95-.55.95ZM199.74,91.78s.1.16.27.45c.16.29.43.7.71,1.24.14.27.29.57.46.89.17.32.34.67.5,1.04.17.38.34.77.53,1.18.16.42.33.86.5,1.32.66,1.82,1.25,3.91,1.67,6.04.43,2.12.68,4.26.86,6.15.18,1.89.32,4.04.4,6.22.08,2.17.15,4.38.15,6.33.05,3.92.08,6.89.08,6.89.03.4.49.39.55-.01,0,0,.08-2.96.18-6.88.06-1.98.06-4.16.02-6.36-.03-2.19-.13-4.38-.32-6.29-.19-1.91-.47-4.09-.96-6.25-.48-2.16-1.14-4.29-1.88-6.13-.19-.46-.38-.9-.56-1.32-.2-.42-.4-.81-.58-1.19-.17-.38-.37-.73-.55-1.05-.18-.32-.35-.62-.5-.89-.31-.54-.6-.95-.78-1.23-.19-.29-.29-.45-.29-.45-.22-.33-.66-.05-.46.3ZM196.36,90.85c.01.05.44.23.5.21,0,0,.19-.3.44-.7.25-.4.54-.92.72-1.36.17-.44.32-1.03.37-1.53.01-.12.03-.24.04-.34,0-.11,0-.21,0-.28,0-.16,0-.26,0-.26-.01-.05-.53-.09-.55-.05,0,0-.03.08-.07.22-.02.06-.05.14-.07.24-.04.09-.08.19-.12.29-.16.42-.42.92-.58,1.34-.16.42-.33.97-.46,1.43-.13.46-.21.82-.21.82ZM194.46,88.62c.01.05.44.22.51.19,0,0,.75-1.25,1.09-2.11.33-.86.6-2.29.6-2.29,0-.05-.48-.23-.51-.19,0,0-.75,1.25-1.09,2.11-.33.86-.6,2.29-.6,2.29ZM197.7,192.15c.96.5,2.56,1.07,2.56,1.07.06,0,.27-.41.25-.49,0,0-1.36-1-2.31-1.51-.95-.5-2.55-1.06-2.55-1.06-.06-.01-.31.44-.27.47,0,0,1.37,1.01,2.32,1.52ZM191.86,87.43c0,.06.41.27.49.25,0,0,.97-1.31,1.44-2.27.11-.24.21-.54.31-.82.1-.29.2-.59.24-.87.11-.55.17-.96.17-.96,0-.06-.5-.18-.53-.13,0,0-.18.36-.4.83-.09.24-.24.5-.38.75-.14.26-.26.51-.37.75-.44.92-.97,2.47-.97,2.47ZM196.08,193.21c-.92-.64-2.5-1.45-2.5-1.45-.06-.02-.37.39-.33.43,0,0,1.3,1.23,2.24,1.89.92.64,2.5,1.45,2.5,1.45.07,0,.35-.36.33-.43,0,0-1.3-1.23-2.24-1.89ZM194.88,196.27c-.84-.58-2.3-1.29-2.3-1.29-.06-.02-.37.4-.32.44,0,0,1.18,1.13,2.04,1.73.9.55,2.41,1.18,2.41,1.18.06,0,.29-.4.27-.48,0,0-1.24-1.05-2.11-1.59ZM172.91,77.41c-1.24.35-2.83.77-4.13,1.01-.65.11-1.23.21-1.63.23-.21.02-.37.03-.48.03-.11,0-.17,0-.17,0-.13.03-.19.48-.05.54,0,0,.06,0,.19.02.12.02.3.03.51.03.44.02,1.04,0,1.72-.06,1.36-.12,3.03-.43,4.31-.78,1.28-.35,2.87-.96,4.09-1.59.3-.17.59-.32.84-.47.25-.15.47-.3.65-.41.35-.26.56-.42.56-.42.11-.09-.2-.51-.32-.44,0,0-.21.12-.56.33-.19.09-.41.2-.66.32-.25.12-.54.23-.84.36-1.22.5-2.8.96-4.04,1.3ZM152.72,211.96c-.45.02-.46.53,0,.54,0,0,.84.02,2.22.04,1.39.04,3.33.11,5.54.18,2.21.07,4.7.14,7.18.08,2.48-.06,4.96-.2,7.12-.54,2.15-.33,4.6-.86,6.95-1.76.58-.24,1.15-.5,1.73-.75.29-.12.57-.27.84-.42.27-.15.54-.3.81-.45.27-.16.55-.28.79-.46.25-.18.49-.35.74-.52.49-.35.98-.67,1.39-1.03,1.73-1.38,3.21-2.71,4.12-3.8.24-.26.42-.53.59-.75.17-.22.32-.41.42-.58.21-.33.33-.51.33-.51.22-.4-.17-.64-.46-.3,0,0-.12.17-.33.48-.1.16-.25.33-.42.54-.17.21-.35.45-.6.7-.91,1.02-2.37,2.26-4.13,3.59-.43.35-.91.64-1.38.96-.23.16-.48.32-.72.48-.24.16-.52.28-.77.42-.26.13-.52.27-.79.41-.26.14-.53.28-.81.39-.56.23-1.11.47-1.68.69-2.29.82-4.66,1.3-6.77,1.62-2.11.33-4.54.5-6.99.61-2.45.11-4.93.09-7.14.1-2.21-.01-4.16-.02-5.55,0-1.39.02-2.23.04-2.23.04ZM98.63,77.6c-.67-.26-1.25-.54-1.64-.75-.2-.11-.34-.22-.45-.28-.11-.07-.16-.1-.16-.1-.13-.07-.46.33-.33.43,0,0,.06.04.16.13.11.08.25.21.45.34.4.27.97.63,1.65.96,1.36.67,3.14,1.28,4.57,1.63,1.42.35,3.28.61,4.77.71,1.5.11,2.65.02,2.65.02.15-.04.14-.49,0-.55,0,0-1.1-.04-2.55-.27-1.45-.22-3.23-.61-4.61-.95-1.38-.33-3.14-.8-4.49-1.33ZM80.67,204.77c-.79-.36-1.27-.58-1.27-.58-.26-.11-.51.34-.26.48,0,0,.47.25,1.25.66.39.2.85.47,1.4.71.54.24,1.14.51,1.79.8.64.3,1.35.53,2.06.81.36.13.73.27,1.09.4.37.12.75.23,1.12.35,1.49.49,3.02.84,4.35,1.16.67.12,1.39.26,2.14.4.74.15,1.52.23,2.29.35,1.54.23,3.12.35,4.5.53.69.08,1.35.15,1.93.22.59.06,1.14.07,1.58.09.45.01.81-.04,1.06-.04.25-.02.38-.02.38-.02.29-.04.23-.5-.05-.54,0,0-.13,0-.37,0-.23,0-.58.02-1-.01-.43-.05-.94-.08-1.52-.17-.58-.09-1.23-.2-1.92-.31-1.38-.24-2.92-.42-4.45-.7-.76-.14-1.53-.25-2.25-.4-.73-.15-1.44-.29-2.1-.42-1.31-.31-2.81-.62-4.29-1.06-.37-.11-.75-.21-1.12-.31-.36-.12-.72-.24-1.09-.36-.71-.25-1.42-.44-2.06-.71-.65-.25-1.25-.49-1.8-.7-.55-.21-1.01-.46-1.4-.63ZM76.67,204.3c.06.04.48-.13.51-.21,0,0-.03-.11-.06-.29-.04-.18-.11-.42-.15-.71-.11-.56-.15-1.28-.22-1.83-.05-.55-.16-1.27-.2-1.86-.06-.59-.09-1.04-.09-1.04-.02-.06-.53-.09-.55-.03,0,0-.02.11-.05.3-.03.19-.08.45-.11.76-.08.6-.1,1.38-.05,1.98.08.6.25,1.36.51,1.94.11.29.24.53.32.71.09.18.14.28.14.28ZM74.41,92.04c-.59-.37-1.04-.66-1.04-.66-.07-.03-.41.36-.36.42,0,0,.39.38.92.88.26.26.58.51.9.75.32.24.64.49.94.68.31.18.66.36,1.02.54.36.19.72.36,1.06.48.68.27,1.18.45,1.18.45.08,0,.27-.41.23-.5,0,0-.45-.29-1.05-.67-.3-.18-.63-.4-.95-.62-.33-.22-.65-.43-.94-.6-.28-.18-.61-.39-.94-.58-.34-.19-.68-.38-.97-.58ZM72.28,93.22c-.75-.49-1.33-.86-1.33-.86-.08-.04-.42.35-.35.43,0,0,.51.46,1.19,1.08.68.62,1.59,1.3,2.31,1.82,1.47.99,3.86,2.34,3.86,2.34.1.02.36-.35.32-.45,0,0-2.12-1.78-3.58-2.76-.71-.51-1.68-1.07-2.43-1.59ZM73.17,195.72c-.01-.07-.53-.12-.55-.05,0,0-.02.14-.07.37-.04.23-.1.56-.14.94-.11.75-.13,1.71-.06,2.46.11.75.35,1.7.71,2.39.15.36.34.65.47.85.13.2.21.32.21.32.07.06.46-.17.48-.26,0,0-.05-.13-.13-.34-.08-.21-.2-.5-.28-.85-.22-.68-.31-1.56-.41-2.24-.07-.69-.18-1.58-.2-2.31-.02-.37-.02-.69-.03-.92,0-.23,0-.38,0-.38ZM70.36,95.13c-.76-.58-1.33-1.02-1.33-1.02-.08-.05-.45.32-.38.4,0,0,.51.53,1.19,1.22.17.17.35.36.54.54.2.17.41.35.61.53.41.35.83.7,1.2.99.39.27.84.56,1.3.85.46.29.92.57,1.36.79.86.44,1.52.78,1.52.78.1.03.33-.37.27-.47,0,0-.59-.42-1.36-.99-.39-.26-.82-.59-1.23-.92-.43-.32-.85-.63-1.22-.9-.36-.28-.79-.59-1.22-.9-.22-.15-.44-.3-.65-.45-.21-.16-.4-.32-.59-.46ZM70.61,196.18c-.29-1.11-.85-2.89-.85-2.89-.02-.06-.54.03-.54.1,0,0,.06,1.87.36,3.06.16.59.43,1.33.74,1.89.14.28.29.52.4.69.11.17.17.27.17.27.06.04.46-.18.48-.25,0,0-.03-.11-.09-.29-.06-.18-.14-.42-.22-.71-.17-.56-.31-1.29-.45-1.85ZM64.79,132.4c0,.32.45.36.55.04,0,0,.09-.59.23-1.57.14-.97.31-2.36.5-3.95.39-3.17.4-7.13.51-10.2.05-1.54.12-3.28.3-5.02.18-1.74.48-3.46.88-4.97.38-1.52.9-2.79,1.27-3.7.19-.45.38-.8.5-1.05.12-.25.18-.38.18-.38.13-.29-.32-.56-.48-.26,0,0-.07.13-.21.38-.13.25-.34.59-.55,1.04-.43.91-1.02,2.2-1.47,3.75-.47,1.54-.85,3.3-1.09,5.08-.23,1.77-.33,3.54-.39,5.09-.11,3.1,0,7.03-.25,10.17-.12,1.57-.23,2.95-.33,3.95-.09,1-.15,1.59-.15,1.59ZM65.4,140.67c-.59-.46-1.66-.99-1.66-.99-.04,0-.37.39-.35.43,0,0,.76.93,1.35,1.41.62.45,1.73.94,1.73.94.05,0,.31-.39.31-.46,0,0-.8-.88-1.39-1.32ZM65.34,137.82c-.67-.49-1.84-1.04-1.84-1.04-.05-.01-.35.41-.32.44,0,0,.87.96,1.52,1.44.67.49,1.85,1.03,1.85,1.03.06,0,.31-.38.31-.45,0,0-.88-.94-1.52-1.42ZM63.83,146.21c-.02-.11-.54-.1-.55.01,0,0-.04.85-.1,1.97-.03,1.12-.14,2.5-.14,3.59,0,.54-.01,1.16-.02,1.78,0,.62.03,1.25,0,1.8-.03,1.11-.06,1.95-.06,1.95.03.11.48.18.54.07,0,0,.13-.85.31-1.97.09-.56.13-1.19.18-1.82.04-.63.1-1.25.1-1.8,0-1.09-.03-2.49-.12-3.62-.09-1.12-.16-1.97-.16-1.97ZM64.32,134.57c-.49-.3-.87-.52-.87-.52-.06-.02-.39.37-.35.42,0,0,.31.32.73.74.42.42.97.89,1.41,1.23.9.65,2.29,1.65,2.29,1.65.06.02.4-.3.39-.38,0,0-.27-.35-.67-.81-.1-.11-.2-.23-.31-.35-.12-.11-.24-.23-.36-.34-.24-.22-.49-.44-.71-.62-.45-.34-1.08-.71-1.56-1.02ZM61.4,166.29c-.46-11.91.39-23.53.57-34.49.17-5.49.07-10.81.24-15.89.17-5.08.63-9.96,1.84-14.4,1.21-4.44,3.26-8.35,5.9-11.41,1.33-1.52,2.72-2.89,4.21-4.02,1.46-1.17,2.98-2.13,4.45-2.99,2.96-1.71,5.83-2.87,8.36-3.8,1.28-.43,2.46-.86,3.57-1.17.55-.16,1.09-.32,1.59-.47.25-.08.49-.14.76-.25.14-.04.25-.12.37-.18.11-.07.23-.13.32-.21.81-.62,1.31-1.38,1.62-2.08.3-.7.46-1.33.48-1.86.04-.26.01-.49.02-.69,0-.2-.02-.37-.05-.5-.04-.26-.06-.4-.06-.4-.14-.68-.39-1.21-.65-1.62,1.35.54,3.25,1.16,5.63,1.68,5.31,1.19,12.98,1.94,22,2.14,9.02.19,19.4-.12,30.19-1.01,2.7-.23,5.42-.5,8.15-.83,2.72-.34,5.49-.73,8.19-1.36,2.7-.6,5.39-1.32,8.01-2.22.66-.22,1.31-.45,1.95-.71.59-.23,1.19-.46,1.77-.72-.04.05-.07.1-.11.16-.3.49-.7,1.29-.95,2.44,0,0-.02.13-.08.38-.04.26-.11.64-.14,1.15-.03.51-.04,1.15.08,1.9.13.74.39,1.63,1.1,2.41.35.38.83.69,1.38.86.27.1.56.15.86.18.28.03.56.06.84.09.57.07,1.16.12,1.78.21.61.13,1.24.27,1.89.4,2.58.68,5.44,1.94,8.06,4.12,2.61,2.18,4.98,5.15,6.92,8.71,1.91,3.58,3.47,7.67,4.66,12.13,2.4,8.93,3.51,19.2,3.92,30.13.21,5.47.21,11.11.16,16.88-.08,5.76-.29,11.64-.87,17.57-.3,2.96-.67,5.94-1.2,8.89-.53,2.96-1.19,5.91-2.02,8.81-.85,2.9-1.9,5.75-3.17,8.5-1.28,2.74-2.78,5.39-4.61,7.8-1.81,2.41-3.91,4.6-6.24,6.5l-.88.7c-.29.24-.58.47-.9.67l-1.86,1.26-1.95,1.11c-.32.2-.65.36-.99.52l-1.01.48c-2.71,1.25-5.54,2.23-8.43,2.86-1.43.38-2.91.57-4.36.83-1.46.21-2.93.37-4.39.56-.73.09-1.46.17-2.18.26-.73.06-1.46.12-2.18.18-1.46.11-2.9.25-4.34.34-2.89.12-5.74.32-8.57.34-1.41.03-2.82.07-4.21.08-1.4,0-2.78,0-4.16.01-2.75.02-5.47-.05-8.13-.07-2.67-.05-5.38-.1-8.13-.15-1.37-.02-2.76-.05-4.16-.08-1.4-.02-2.8-.11-4.22-.15-5.66-.19-11.46-.31-17.31-.86-5.83-.57-11.77-1.54-17.36-3.7l-1.05-.4c-.35-.15-.68-.31-1.02-.46-.67-.32-1.38-.58-2-.99l-.96-.57-.48-.28c-.16-.1-.3-.22-.46-.33l-.91-.65c-.3-.23-.62-.42-.89-.68-2.31-1.89-4.3-4.19-5.91-6.74-1.62-2.54-2.9-5.3-3.93-8.15-1.03-2.85-1.81-5.78-2.42-8.74-1.18-5.94-1.72-11.96-1.94-17.91Z"/>
        <path class="st20" d="M61.97,131.8c-.18,10.96-1.02,22.58-.57,34.49.22,5.95.76,11.98,1.94,17.91.6,2.97,1.39,5.89,2.42,8.74,1.03,2.84,2.31,5.6,3.93,8.15,1.61,2.55,3.6,4.85,5.91,6.74.27.26.59.46.89.68l.91.65c.15.11.3.23.46.33l.48.28.96.57c.62.41,1.33.67,2,.99.34.15.68.31,1.02.46l1.05.4c5.59,2.17,11.53,3.13,17.36,3.7,5.85.55,11.65.67,17.31.86,1.42.04,2.82.12,4.22.15,1.4.03,2.79.05,4.16.08,2.75.05,5.47.1,8.13.15,2.66.02,5.38.09,8.13.07,1.37,0,2.76,0,4.16-.01,1.4,0,2.8-.05,4.21-.08,2.82-.02,5.68-.21,8.57-.34,1.44-.09,2.88-.23,4.34-.34.72-.06,1.45-.12,2.18-.18.73-.09,1.45-.17,2.18-.26,1.46-.19,2.93-.35,4.39-.56,1.45-.27,2.92-.45,4.36-.83,2.89-.63,5.72-1.62,8.43-2.86l1.01-.48c.34-.16.67-.32.99-.52l1.95-1.11,1.86-1.26c.32-.2.61-.43.9-.67l.88-.7c2.33-1.9,4.43-4.09,6.24-6.5,1.83-2.4,3.33-5.06,4.61-7.8,1.27-2.74,2.32-5.59,3.17-8.5.83-2.91,1.49-5.85,2.02-8.81.52-2.96.89-5.93,1.2-8.89.58-5.93.8-11.81.87-17.57.05-5.77.05-11.41-.16-16.88-.41-10.92-1.51-21.2-3.92-30.13-1.19-4.46-2.75-8.56-4.66-12.13-1.94-3.55-4.31-6.53-6.92-8.71-2.61-2.18-5.48-3.44-8.06-4.12-.65-.14-1.28-.27-1.89-.4-.62-.09-1.21-.14-1.78-.21-.29-.03-.57-.06-.84-.09-.29-.03-.58-.08-.86-.18-.55-.17-1.03-.48-1.38-.86-.71-.77-.97-1.67-1.1-2.41-.13-.75-.11-1.39-.08-1.9.03-.51.1-.9.14-1.15.05-.25.08-.38.08-.38.25-1.15.65-1.95.95-2.44.04-.06.07-.11.11-.16l.3.12c-.2.5-.54,1.35-.82,2.59,0,0-.02.12-.07.36-.04.24-.1.61-.13,1.09-.03.48-.04,1.08.08,1.77.12.68.37,1.47.96,2.11.29.31.68.56,1.14.71.23.08.47.12.73.14.28.03.56.06.84.09.58.07,1.19.12,1.82.21.63.13,1.27.27,1.95.41,2.65.68,5.61,1.98,8.31,4.21,2.69,2.23,5.13,5.26,7.1,8.87,1.95,3.63,3.55,7.77,4.76,12.26,2.45,9,3.59,19.32,4.03,30.28.22,5.48.25,11.14.21,16.91-.06,5.78-.26,11.69-.83,17.65-.3,2.98-.66,5.98-1.19,8.97-.53,2.99-1.18,5.97-2.02,8.92-.85,2.94-1.91,5.84-3.2,8.64-1.3,2.79-2.82,5.51-4.69,7.98-1.85,2.47-4,4.73-6.39,6.68l-.91.72c-.3.24-.61.48-.93.69l-1.92,1.29-2,1.14c-.33.2-.67.37-1.02.53l-1.04.49c-5.55,2.64-11.63,3.76-17.48,4.37-.73.09-1.47.18-2.2.27-.74.06-1.47.12-2.2.18-1.46.12-2.92.25-4.37.34-2.9.13-5.77.32-8.61.35-1.42.03-2.83.07-4.23.09-1.4,0-2.79,0-4.17,0-2.76.02-5.48-.05-8.15-.07-2.67-.05-5.39-.1-8.14-.15-1.38-.02-2.77-.05-4.17-.08-1.4-.03-2.81-.12-4.22-.15-5.65-.2-11.47-.32-17.37-.88-5.89-.59-11.91-1.57-17.63-3.79l-1.07-.41c-.35-.15-.7-.32-1.05-.47-.69-.34-1.42-.6-2.07-1.03l-1-.59-.5-.3c-.17-.1-.32-.23-.48-.34l-.94-.69c-.31-.23-.64-.44-.92-.71-2.4-1.97-4.45-4.36-6.1-6.98-1.66-2.62-2.96-5.45-4-8.35-1.04-2.9-1.83-5.88-2.43-8.88-1.18-6.01-1.71-12.08-1.92-18.06-.42-11.98.45-23.6.66-34.55.19-5.47.1-10.78.29-15.9.19-5.11.66-10.04,1.91-14.56,1.24-4.51,3.37-8.53,6.08-11.66,1.37-1.55,2.8-2.94,4.32-4.09,1.49-1.19,3.04-2.16,4.54-3.03,3.01-1.72,5.92-2.88,8.48-3.82,1.29-.43,2.48-.86,3.61-1.17.56-.16,1.09-.32,1.6-.47.25-.07.51-.15.7-.22.1-.03.2-.1.3-.15.09-.06.19-.11.27-.18.7-.53,1.16-1.22,1.45-1.85.27-.63.42-1.21.44-1.68.04-.23.02-.44.02-.62,0-.18,0-.33-.03-.45-.03-.24-.05-.36-.05-.36-.12-.69-.36-1.22-.58-1.64l.46-.09h0c.25.41.5.94.65,1.62,0,0,.02.14.06.4.03.13.05.3.05.5,0,.2.02.43-.02.69-.03.52-.18,1.16-.48,1.86-.31.69-.81,1.46-1.62,2.08-.09.08-.21.15-.32.21-.12.06-.23.14-.37.18-.27.11-.51.18-.76.25-.5.15-1.04.31-1.59.47-1.11.31-2.29.74-3.57,1.17-2.53.93-5.4,2.1-8.36,3.8-1.48.86-2.99,1.82-4.45,2.99-1.49,1.13-2.88,2.5-4.21,4.02-2.64,3.06-4.69,6.97-5.9,11.41-1.21,4.44-1.67,9.32-1.84,14.4-.17,5.09-.08,10.4-.24,15.89Z"/>
      </g>
      <path class="st20" d="M81.9,206s-.06-.05-.13-.11c-.03-.03-.07-.07-.09-.1-.01-.02-.02-.04-.03-.05v-.02s-.01-.01-.01-.01h0s0,0,0,0h0s0,0,0,0h1.08s0-.02,0-.02c0,.12-.26.32-.26.32-.01,0-.54.01-.56,0,0,0-.26-.19-.26-.31h0s1.08-.01,1.08-.01h0s0,0,0,0h0s0,0,0,0h0s0,.04,0,.04c0,.02-.02.04-.03.05-.02.04-.06.07-.09.1-.06.06-.13.11-.13.11-.06,0-.52.01-.56,0Z"/>
    </g>
    <path class="st4" d="M134.09,208.67c0,6.72-7.78,7.39-17.38,7.39s-17.38-.04-17.38-6.76c0-4.09.51-6.45,4.93-9.8,2.85-2.16,4.52-5.61,8.28-5.61,4.8,0,11,1.04,14.14,4.08,3.15,3.03,7.41,7.35,7.41,10.71Z"/>
    <path class="st3" d="M182.36,204.97c0,4.85-5.62,5.33-12.55,5.33s-12.55-.03-12.55-4.88c0-2.95.37-4.66,3.56-7.08,2.05-1.56,3.26-4.05,5.98-4.05,3.46,0,7.94.75,10.21,2.94,2.27,2.19,5.35,5.3,5.35,7.73Z"/>
    <path class="st5" d="M155.52,208.5c0,7.46-8.64,8.2-19.29,8.2s-19.29-.05-19.29-7.5c0-4.53.57-7.16,5.47-10.88,3.16-2.4,5.01-6.22,9.19-6.22,5.33,0,12.2,1.16,15.69,4.52s8.23,8.15,8.23,11.88Z"/>
  </g>
  <path class="st11" d="M147.97,146.82l-8.38.28c-.61.02-1.2-.24-1.59-.72l-5.34-6.46c-1.01-1.22-2.98-.82-3.42.71l-2.32,8.05c-.17.59-.6,1.06-1.17,1.29l-7.8,3.08c-1.16.46-1.53,1.78-1.01,2.76.14.27.34.52.63.72l5.56,3.76,1.38.94c.51.34.83.9.86,1.51l.52,8.37c.1,1.58,1.93,2.41,3.18,1.44l6.61-5.15c.48-.38,1.11-.51,1.71-.35l8.12,2.09c1.54.4,2.89-1.09,2.35-2.58l-2.13-5.88-.72-2c-.21-.58-.14-1.22.19-1.73l.72-1.13,3.78-5.95c.85-1.34-.14-3.09-1.73-3.03Z"/>
  <path class="st12" d="M121.22,113.19l-3.13-1.2c-.23-.09-.4-.28-.47-.51l-.96-3.21c-.18-.61-.97-.76-1.37-.27l-2.11,2.61c-.15.19-.39.3-.63.29l-3.35-.08c-.5-.01-.84.42-.8.86.01.12.05.25.12.36l1.46,2.25.36.56c.13.21.16.46.08.69l-1.11,3.16c-.21.6.34,1.19.95,1.02l3.24-.87c.24-.06.49-.01.68.13l2.66,2.03c.5.38,1.23.05,1.27-.59l.13-2.5.04-.85c.01-.24.14-.47.34-.61l.44-.3,2.32-1.6c.52-.36.43-1.16-.17-1.39Z"/>
  <path class="st7" d="M148.73,113.11l-2.64.14c-.19.01-.38-.07-.51-.22l-1.73-2.01c-.33-.38-.95-.24-1.08.25l-.68,2.56c-.05.19-.18.34-.36.41l-2.44,1.02c-.36.15-.47.57-.3.88.05.08.11.16.2.22l1.78,1.15.44.29c.16.11.27.28.28.47l.22,2.64c.04.5.63.75,1.01.43l2.05-1.67c.15-.12.35-.17.54-.12l2.58.61c.49.12.91-.36.73-.83l-.71-1.84-.24-.63c-.07-.18-.05-.38.05-.55l.22-.36,1.16-1.9c.26-.43-.07-.97-.57-.95Z"/>
  <path class="st7" d="M181.79,146.16l-2.64.14c-.19.01-.38-.07-.51-.22l-1.73-2.01c-.33-.38-.95-.24-1.08.25l-.68,2.56c-.05.19-.18.34-.36.41l-2.44,1.02c-.36.15-.47.57-.3.88.05.08.11.16.2.22l1.78,1.15.44.29c.16.11.27.28.28.47l.22,2.64c.04.5.63.75,1.01.43l2.05-1.67c.15-.12.35-.17.54-.12l2.58.61c.49.12.91-.36.73-.83l-.71-1.84-.24-.63c-.07-.18-.05-.38.05-.55l.22-.36,1.16-1.9c.26-.43-.07-.97-.57-.95Z"/>
  <path class="st15" d="M180.42,182.69l-4.5-1.38c-.33-.1-.59-.35-.71-.67l-1.66-4.41c-.31-.84-1.44-.98-1.95-.25l-2.7,3.86c-.2.28-.51.46-.86.47l-4.71.21c-.7.03-1.14.66-1.04,1.28.03.17.09.34.2.5l2.27,3.01.56.75c.21.27.27.63.18.96l-1.25,4.54c-.24.86.59,1.63,1.43,1.34l4.45-1.53c.33-.11.68-.07.97.12l3.93,2.59c.74.49,1.74-.05,1.72-.95l-.06-3.52-.02-1.19c0-.34.15-.67.42-.89l.59-.47,3.09-2.47c.7-.56.49-1.67-.37-1.93Z"/>
  <path class="st9" d="M143.89,197.84l-1.72-.12c-.13,0-.24-.08-.31-.18l-.95-1.44c-.18-.27-.59-.23-.72.07l-.65,1.6c-.05.12-.15.21-.27.24l-1.66.46c-.25.07-.35.33-.27.54.02.06.06.11.11.16l1.06.89.26.22c.1.08.15.2.14.33l-.07,1.73c-.01.33.34.54.62.36l1.47-.91c.11-.07.24-.08.36-.04l1.62.6c.31.11.62-.16.54-.48l-.31-1.25-.11-.43c-.03-.12,0-.25.08-.35l.17-.22.9-1.14c.2-.26.04-.64-.29-.66Z"/>
  <path class="st13" d="M107.63,182.1l-4.16.39c-.3.03-.6-.09-.81-.31l-2.85-3.06c-.54-.58-1.51-.32-1.68.46l-.92,4.08c-.07.3-.27.55-.54.68l-3.79,1.76c-.56.26-.71.93-.42,1.4.08.13.19.25.33.34l2.88,1.71.72.42c.26.16.44.42.48.73l.51,4.15c.1.79,1.03,1.14,1.63.62l3.14-2.76c.23-.2.54-.29.84-.23l4.1.8c.78.15,1.41-.63,1.09-1.36l-1.24-2.86-.42-.97c-.12-.28-.11-.6.04-.87l.32-.58,1.7-3.07c.38-.69-.16-1.53-.95-1.46Z"/>
  <path class="st10" d="M77.27,168.19l-1.97-.58c-.14-.04-.26-.15-.31-.29l-.74-1.91c-.14-.36-.63-.42-.85-.1l-1.16,1.69c-.08.12-.22.2-.37.21l-2.05.11c-.3.02-.49.29-.45.56.01.07.04.15.09.21l1,1.3.25.32c.09.12.12.27.08.42l-.53,1.98c-.1.38.26.71.63.58l1.93-.68c.14-.05.3-.03.42.05l1.72,1.11c.33.21.76-.03.74-.42l-.04-1.53v-.52c-.02-.15.05-.29.16-.39l.25-.21,1.34-1.09c.3-.25.2-.73-.17-.84Z"/>
  <path class="st8" d="M91.12,125.87l-4.04.43c-.3.03-.59-.08-.79-.29l-2.81-2.94c-.53-.56-1.47-.29-1.63.46l-.84,3.98c-.06.29-.25.54-.52.66l-3.66,1.76c-.54.26-.68.91-.39,1.37.08.13.18.24.33.32l2.82,1.62.7.4c.26.15.43.41.47.7l.55,4.03c.1.76,1.02,1.1,1.59.58l3.02-2.72c.22-.2.52-.28.81-.23l4,.73c.76.14,1.36-.63,1.04-1.33l-1.24-2.77-.42-.94c-.12-.27-.11-.58.03-.84l.31-.57,1.62-3.01c.36-.68-.18-1.49-.94-1.41Z"/>
  <path class="st14" d="M189.35,109.38l-4.1-1.51c-.3-.11-.53-.35-.63-.66l-1.31-4.16c-.25-.79-1.28-.98-1.79-.33l-2.7,3.43c-.2.25-.5.4-.82.39l-4.36-.04c-.65,0-1.09.56-1.03,1.13.02.16.06.32.16.47l1.94,2.9.48.72c.18.26.22.6.12.9l-1.39,4.14c-.26.78.46,1.54,1.25,1.32l4.2-1.19c.31-.09.64-.03.89.16l3.51,2.6c.66.49,1.61.04,1.64-.79l.12-3.26.04-1.11c.01-.32.17-.61.43-.8l.57-.4,2.99-2.13c.67-.48.53-1.52-.24-1.8Z"/>
</svg>