<?xml version="1.0" encoding="UTF-8"?>
<svg id="Layer_1" xmlns="http://www.w3.org/2000/svg" version="1.1" viewBox="0 0 1313.14 640.54">
  <!-- Generator: Adobe Illustrator 29.7.1, SVG Export Plug-In . SVG Version: 2.1.1 Build 8)  -->
  <defs>
    <style>
      .st0 {
        fill: #523cac;
      }

      .st1 {
        fill: #62d0bc;
      }

      .st2 {
        stroke-width: 2.34px;
      }

      .st2, .st3, .st4 {
        stroke: #fff7f0;
        stroke-miterlimit: 10;
      }

      .st2, .st3, .st5 {
        fill: #ecaa19;
      }

      .st6 {
        fill: #adc716;
      }

      .st3 {
        stroke-width: 1.08px;
      }

      .st7 {
        fill: #fff7f0;
      }

      .st4 {
        fill: none;
        stroke-linecap: round;
        stroke-width: 2px;
      }

      .st8 {
        fill: #e44c17;
      }

      .st9 {
        fill: #002f55;
      }

      .st10 {
        fill: #dd2080;
      }
    </style>
  </defs>
  <rect class="st8" x="56.57" y="316.91" width="377.77" height="230.79" rx="23.53" ry="23.53"/>
  <rect class="st1" x="878.8" y="316.91" width="377.77" height="230.79" rx="23.6" ry="23.6"/>
  <rect class="st0" x="878.8" y="49.46" width="377.77" height="230.79" rx="23.6" ry="23.6"/>
  <rect class="st6" x="467.68" y="49.46" width="377.77" height="230.79" rx="22.49" ry="22.49"/>
  <g id="O4WCIz">
    <g>
      <g>
        <path class="st7" d="M767.75,151.5c-.45-4.16-2.84-9.2-3.82-13.5-1.25-5.54-2.8-16.86,2.25-20.85,3.17-2.5,6.45-.88,9.49.82,8.3,4.65,11.95,11.91,10.3,21.47-.77,4.46-3.61,9.18-3.81,13.83-.06,1.31.56,2.33-.32,3.44l-14.06.11c-.14-1.71.14-3.63-.04-5.31h.01Z"/>
        <path class="st7" d="M768.94,159.91c.7-.14,1.22.23,1.83.2,1.64-.08,2.65-.06,4.24-.04,1.08,0,6.8-.24,7.22.04,1.12.75,1.33,5.12,1.23,6.38-.62,7.72-11.91,10.17-15.27,3.12-1.1-2.3-1.36-6.18-.55-8.62.15-.44.85-1,1.29-1.09h.01Z"/>
      </g>
      <g>
        <path class="st7" d="M768.54,252.17c-.45-4.16-2.84-9.2-3.82-13.5-1.25-5.54-2.8-16.86,2.25-20.85,3.17-2.5,6.45-.88,9.49.82,8.3,4.65,11.95,11.91,10.3,21.47-.77,4.46-3.61,9.18-3.81,13.83-.06,1.31.56,2.33-.32,3.44l-14.06.11c-.14-1.71.14-3.63-.04-5.31h.01Z"/>
        <path class="st7" d="M769.73,260.59c.7-.14,1.22.23,1.83.2,1.64-.08,2.65-.06,4.24-.04,1.08,0,6.8-.24,7.22.04,1.12.75,1.33,5.12,1.23,6.38-.62,7.72-11.91,10.17-15.27,3.12-1.1-2.3-1.36-6.18-.55-8.62.15-.44.85-1,1.29-1.09h.01Z"/>
      </g>
      <g>
        <path class="st7" d="M741.59,194.35c.38-4.17,2.7-9.24,3.6-13.56,1.16-5.56,2.53-16.9-2.58-20.81-3.2-2.45-6.46-.78-9.48.97-8.22,4.78-11.76,12.09-9.96,21.63.84,4.44,3.76,9.12,4.03,13.77.08,1.31-.53,2.34.37,3.43l14.06-.11c.11-1.71-.2-3.63-.04-5.31h0Z"/>
        <path class="st7" d="M740.54,202.78c-.7-.13-1.21.25-1.83.23-1.64-.05-2.65,0-4.24.02-1.08.03-6.8-.13-7.22.16-1.11.76-1.25,5.14-1.13,6.4.74,7.71,12.07,9.98,15.32,2.88,1.06-2.32,1.26-6.2.41-8.62-.15-.44-.86-.99-1.31-1.07Z"/>
      </g>
      <path class="st7" d="M745.09,77c-.28.18-.7.2-1.05.19-3.08-.11-6.16-.22-9.24-.33-4.08-.14-8.15-.29-12.23-.43-.37-.01-.76-.03-1.1-.18s-.64-.47-.64-.84c-.02-.72.7-.61,1.17-.59.76.03,1.52.04,2.27.06,1.51.04,3.03.08,4.54.13,3.03.08,6.06.17,9.09.25,1.94.05,3.88.11,5.82.16.41.01.85.03,1.2.23s.61.66.44,1.04c-.06.13-.15.23-.27.31h0Z"/>
      <path class="st7" d="M745.61,74.04c-.17.11-3.31.09-3.87.08-4.6-.12-9.32-.61-13.92-.62-1.34,0-5.91.73-6.68,0-1.87-1.77,3.88-1.36,4.54-1.39,5.69-.24,12.22-.1,17.94.32.33.02,1.88.24,2.02.33.38.23.14,1.16-.04,1.27h0Z"/>
      <path class="st7" d="M722.38,69.22h.19c.76,0,1.51.01,2.27.02,1.51.01,3.02.02,4.53.04,3.02.03,6.05.06,9.07.09,1.87.02,3.75.04,5.62.06.45,0,.92.02,1.3.26s.59.8.31,1.15c-.22.28-.63.31-.98.32-7.06.11-14.13.08-21.19-.07-.42,0-.84-.02-1.23-.18s-.72-.51-.73-.93c-.02-.54.41-.7.83-.73v-.03Z"/>
      <path class="st7" d="M745.78,67.03c.49.82.17,1.27-.76,1.39-3.92.54-9.42-.51-13.47-.39-2.6-.14-5.48.29-8.04.07-1.76-.15-1.6-1.7.46-1.68,3.29.03,6.66.12,9.92.18,3.95.07,7.95-.02,11.88.42h0Z"/>
      <path class="st7" d="M722.24,77.7c.86-.23,2.32-.04,2.76-.05,1.51-.01,3.02,0,4.52,0,3.02.03,6.03.1,9.04.22,1.27.05,2.53.11,3.8.18.36.02.73.04,1.04.22s.53.57.4.9c-.17.43-.75.49-1.21.48-6.46-.13-12.91-.27-19.37-.4-.34,0-.69-.02-1.01-.14s-.6-.4-.63-.74c-.03-.37.24-.57.65-.68h.01Z"/>
      <path class="st7" d="M722.18,82.21c-.08-.09-.14-.2-.16-.32-.05-.28.11-.57.34-.75,1.03-.78,2.72-.38,3.92-.34,1.51.05,3.02.09,4.53.14,3.02.09,6.03.18,9.05.27.72.02,1.45.04,2.17.07.34.01.7.02,1,.18s.54.5.46.84c-.12.5-.79.6-1.3.59-6.28-.11-12.56-.22-18.85-.33-.27,0-.54-.01-.8-.11-.14-.05-.27-.14-.37-.24h0Z"/>
      <path class="st7" d="M745.8,65.79s-.01,0-.02.01c-.17.11-.71,0-.91,0-.39,0-.79-.02-1.18-.02-1.51-.03-3.03-.07-4.54-.12-3.02-.09-6.05-.19-9.07-.29-.79-.02-1.57-.05-2.36-.07l-1.72-.05c-.34,0-.7-.02-1.01-.17s-.57-.46-.54-.8c.03-.32.3-.57.6-.68s.63-.1.95-.08c6,.24,12.01.47,18.01.71.5.02,1.03.05,1.44.33.28.19.74.94.35,1.24h0Z"/>
      <path class="st7" d="M742.12,85.37c-.07.07-.15.12-.24.16-.31.15-.67.14-1.02.13-4.21-.09-8.43-.18-12.64-.27-1.38-.03-2.77-.06-4.15-.09-.28,0-.58-.01-.84-.13-.49-.21-.67-.82-.22-1.18.33-.26.92-.15,1.3-.15,1.51-.03,3.02-.04,4.53-.04,3.02,0,6.04.06,9.06.16,1.09.04,2.17.08,3.26.14.48.02,1.07.14,1.19.6.06.24-.05.49-.24.67h.01Z"/>
      <path class="st7" d="M744.79,61.61c.52.37.24,1.56-.75,1.57-1.68.02-3.75-.34-5.44-.4-1.81-.06-3.64-.14-5.43-.19-1.2-.04-5.79.3-6.41-.16-.96-.71.02-1.36.94-1.46,2.42-.26,4.94.14,7.33.2,1.42.03,9.14,0,9.76.43h0Z"/>
      <path class="st7" d="M741.67,87.16c.08.09.14.2.15.31.04.29-.17.58-.43.71s-.57.16-.86.18c-4.92.32-9.86.4-14.77.02-.35-.03-.72-.06-1.03-.22s-.57-.49-.55-.84c.04-.62.75-.56,1.19-.59.72-.04,1.45-.07,2.17-.1,1.45-.05,2.89-.08,4.34-.09,2.92-.01,5.85.08,8.77.26.24.02.49.03.72.13.11.05.22.12.3.22h0Z"/>
      <path class="st7" d="M741.42,89.79c.06.06.1.13.13.22.12.34-.13.72-.45.88s-.7.16-1.06.16c-4.51-.04-9.02-.09-13.53-.18-.36,0-.79-.05-.96-.37-.16-.3.02-.68.3-.86.84-.55,2.35-.4,3.3-.44,1.26-.06,2.51-.09,3.77-.09,2.51,0,5.03.11,7.53.34.34.03.74.11.96.34h.01Z"/>
      <path class="st7" d="M741.74,102.61c.22.13.38.36.38.61,0,.29-.24.53-.51.63s-.56.11-.85.11c-3.8-.01-7.59-.03-11.39-.04-.7,0-1.4,0-2.07-.22-.38-.12-.96-.5-.71-.97.22-.42.86-.38,1.25-.39,1.44-.06,2.88-.13,4.33-.15,2.88-.04,5.77.03,8.65.21.28.02.57.04.83.16.03.01.06.03.08.05h0Z"/>
      <path class="st7" d="M727.77,99.84c.79-.07,2.14.13,3.09.11,1.22-.03,2.31-.03,3.52-.03s6.06-.28,6.64.15c.45.34.46.88,0,1.22-.75.58-4.57.1-5.73.11-2.05.02-5.11.42-7.05.21-1.73-.19-1.68-1.67-.49-1.78h.02Z"/>
      <path class="st7" d="M740.78,93.43c-.28.27-.85.28-1.23.31-2.81.26-5.63.22-8.45.18-.97-.01-3.01.36-3.84-.1-1.05-.57-.5-1.52.45-1.66,2.21-.32,10.07-.37,12.3-.1.82.1,1.42.72.77,1.36h0Z"/>
      <path class="st7" d="M729.38,59.67c-.47-.53-.07-1.34.77-1.38,1.27-.05,2.58.07,3.85.1,2.71.06,5.42.13,8.13.19.27,0,.55,0,.81.12s.47.33.49.6c.02.3-.22.57-.49.69s-.59.12-.89.12c-3.7,0-7.41,0-11.11,0-.39,0-.79,0-1.15-.15-.18-.08-.32-.17-.42-.28h.01Z"/>
      <path class="st7" d="M727.88,104.79c.37-.1.85-.04,1.18-.04l2.63.02c1.78.01,3.56.02,5.34.03.96,0,1.92.01,2.87.17.27.05.55.11.78.26s.4.43.36.7c-.04.28-.27.49-.53.59s-.55.1-.82.09c-3.77-.04-7.54-.16-11.3-.37-.3-.02-.63-.04-.85-.24-.19-.17-.27-.45-.2-.7.09-.3.3-.45.55-.52h-.01Z"/>
      <path class="st7" d="M727.94,98.72c-.56-.51-.03-1.28.75-1.38,2.18-.27,8.22-.31,10.41-.07,1.66.18,1.76,1.45.26,1.67-1.98.28-3.98.1-5.96-.03-1.01-.06-2.01-.12-3.02-.09-.76.02-1.8.48-2.44-.1h0Z"/>
      <path class="st7" d="M740.18,108.78s-.04.04-.06.06c-.19.18-.48.2-.74.22-2.97.14-5.95.06-8.91-.23-.43-.04-.89-.1-1.2-.4-.2-.19-.3-.53-.21-.79.14-.42.46-.37.83-.36.97.01,1.94.03,2.91.05,1.94.03,3.88.07,5.82.1.44,0,.92.02,1.28.28.34.24.51.76.26,1.08h.02Z"/>
      <path class="st7" d="M739.52,55.78c.12.11.21.25.24.41.04.32-.19.62-.47.76s-.61.16-.93.16c-1.28.03-2.56-.03-3.84-.16-.3-.03-.61-.07-.89-.2s-.53-.36-.6-.66c-.28-1.15,1.45-.78,2.03-.76,1.14.05,2.28.1,3.42.15.27,0,.54.02.79.13.1.04.19.1.27.17h-.02Z"/>
    </g>
  </g>
  <g id="FB0Oqc">
    <g>
      <path class="st7" d="M113.14,468.01c1.12,1.65,2.68,4.03.82,5.78-.55.52-7.23,4.31-7.91,4.46-1.39.3-2.22-.12-3.14-1.14l-15.09-26.07c-.85-1.41-.39-2.94.88-3.91,1.03-.79,6.04-3.72,7.2-4.15,2.66-1,3.88,1.54,4.87,3.54,3.52-1.7,6.91-3.9,10.41-5.71,5.73-2.97,9.34-4.45,15.95-2.7,5.26,1.39,10.42,3.67,15.72,4.98,3.41-1.17,7.58-5.21,11.3-4.63,2.14.34,4.18,1.84,5.11,3.78,2.28-1.23,4.72-3.15,7.47-3,5.28.27,8.08,6.05,5.21,10.43-1.04,1.59-2.92,2.44-4.53,3.37-8.43,4.88-18.08,10.27-26.77,14.6-8.33,4.15-10.27,1.43-18.14-.59-3.67-.94-5.96-.75-9.37.96h0ZM150.09,450.82c-.17,4.5-4.17,7.01-8.45,6.03-5.17-1.19-10.19-3.57-15.33-4.95-1.67-.87-.72-3.23,1.1-2.93,4.81,1.19,9.63,3.44,14.37,4.71,1.98.53,3.3.62,4.58-1.2s.7-3.74-.99-5.02c-5.61-1.83-11.35-4.04-17.02-5.69-10.36-3.02-16.03,1.93-24.6,6.82-.42.24-.88.49-1.35.58l9.12,15.92c.47.3,1.7-.62,2.24-.82,9.41-3.46,15.45,4.64,23.6,1.49l31.46-17.21c1.24-1.48,1.52-3.14.3-4.76-2.06-2.74-4.79-.76-7.07.43-4.02,2.11-7.91,4.51-11.95,6.61h-.01ZM156.34,443.88c-.73-2.41-3.52-2.86-5.48-1.52l-4.05,2.33c1.38.41,1.96,1.84,2.9,2.61l6.63-3.43h0ZM105.24,475.11l6.08-3.35.19-.37-14.68-25.22-5.44,3.02-.51.64,14.37,25.27h-.01Z"/>
      <path class="st7" d="M130.13,402.79c4.31-.36,7.92,1.92,10.69,5,1.82-1.74,3.44-3.43,5.88-4.26,11.67-3.96,20.12,9.57,11.98,18.66-3.15,3.52-7.33,7.15-10.76,10.53-3.02,2.98-5.46,7.08-10.34,3.86-4.54-5.16-10.63-9.8-15.01-15-5.97-7.09-1.77-18.02,7.56-18.8h0ZM129.52,406.03c-6.15.89-8.46,8.68-4.72,13.33,4.09,5.07,10.41,9.65,14.7,14.7.54.56,1.31.63,2.04.41l15.69-15.53c5.36-7.86-4.26-17.26-11.85-11.04-1.29,1.06-3.55,4.62-5.38,3.56-.77-.44-2.26-2.43-3.13-3.15-2.26-1.89-4.35-2.71-7.35-2.28h0Z"/>
      <path class="st7" d="M140.26,386.35c1.3-.39,2.15.44,2.29,1.68s.16,5.44-.05,6.65c-.36,1.98-2.95,2.17-3.2.05-.14-1.22-.2-6.2,0-7.3.07-.35.62-.98.95-1.08h.01Z"/>
      <path class="st7" d="M169.87,401.56c1.41-.28,2.5,1.45,1.18,2.81-.37.37-5.32,3.31-5.84,3.49-2.07.69-3.35-.89-1.96-2.57,1.84-.64,4.93-3.38,6.63-3.72h0Z"/>
      <path class="st7" d="M158.5,390.63c.3.33.59,1.12.38,1.56-.92,1.14-3.11,6.34-4.17,6.78-1.67.7-2.53-.57-2.13-2.13.1-.39,3.13-5.68,3.46-6.07.63-.74,1.77-.9,2.46-.15h0Z"/>
      <path class="st7" d="M118.56,407.74c-.46.37-1.43.33-1.98.17-1.62-1.33-4.19-2.09-5.74-3.38s-.43-3.47,1.29-2.92c1.21,1.12,5.99,2.92,6.66,4.09.35.61.32,1.6-.24,2.05h.01Z"/>
      <path class="st7" d="M124.04,390.2c.72-.15,1.22.15,1.68.67.62.71,2.44,4.01,2.91,4.99.44.91.99,1.64.41,2.59s-1.78.82-2.52.12c-1.26-1.2-2.21-4.58-3.54-5.99-.4-.97-.02-2.16,1.05-2.39h0Z"/>
    </g>
  </g>
  <g>
    <path class="st10" d="M845.45,525.21v-82.38c-20.35-27-56.3-42.55-95.6-29.51-43.7,14.49-66.64,65.99-50.9,108.66,3.62,9.82,8.74,18.42,14.94,25.72h109.07c12.37,0,22.49-10.12,22.49-22.49h0ZM788.45,450.83c15.13-6.56,22.74,16.9,5.63,19.29-11.91,1.66-15.07-15.2-5.63-19.29ZM758.86,459.86c11.11,7.6.02,24.32-11.25,17.82-12.48-7.2-.3-25.72,11.25-17.82ZM816.34,500.84c-20.58,17.46-48.26,22.11-73.48,12.55-3.75-1.42-15.88-7.2-17.87-10.12-2.2-3.22-2.47-7.99,1.5-9.78,5.79-2.61,11.53,3.95,16.96,6.49,24.5,11.45,53.46,5.35,71.23-15.04,3.91-4.48,8.19-16.12,15.45-12.13,10.06,5.53-8.95,23.92-13.8,28.03h0Z"/>
    <path class="st10" d="M683.23,518.54c-12.88-47.46,14.21-102.79,61.95-118.05,39.59-12.65,75.87-1.44,100.27,21.56v-82.65c0-12.37-10.12-22.49-22.49-22.49h-332.78c-12.37,0-22.49,10.12-22.49,22.49v185.81c0,12.37,10.12,22.49,22.49,22.49h206.3c-5.77-8.57-10.31-18.32-13.25-29.16h0Z"/>
  </g>
  <g>
    <circle class="st7" cx="937.68" cy="478.58" r="15.06"/>
    <circle class="st7" cx="981.01" cy="478.58" r="15.06"/>
    <circle class="st7" cx="1067.68" cy="478.58" r="15.06"/>
    <circle class="st7" cx="1111.02" cy="478.58" r="15.06"/>
    <circle class="st7" cx="1154.35" cy="478.58" r="15.06"/>
    <circle class="st7" cx="1197.69" cy="478.58" r="15.06"/>
    <path class="st9" d="M1013.77,483.79l-7.07-4.95c-1.8-1.26-1.35-4.05.76-4.68l8.27-2.48c.84-.25,1.51-.91,1.76-1.75l2.52-8.25c.64-2.11,3.43-2.54,4.69-.73l4.91,7.1c.5.72,1.33,1.15,2.21,1.14l8.63-.15c2.2-.04,3.48,2.48,2.14,4.23l-5.23,6.86c-.53.7-.68,1.62-.4,2.45l2.81,8.16c.72,2.08-1.28,4.07-3.36,3.34l-8.14-2.86c-.83-.29-1.75-.15-2.46.38l-6.89,5.19c-1.76,1.33-4.27.04-4.22-2.16l.2-8.62c.02-.88-.4-1.71-1.12-2.22h-.01Z"/>
  </g>
  <g>
    <path class="st7" d="M874.24,221.43c8.1-3.57,16.85-5.67,25.59-6.93,9.6-1.39,19.39-1.67,29.06-1.02s18.74,2.18,27.72,5,17.54,6.72,24.22,12.99c3.71,3.48,6.62,7.91,7.24,13.05.55,4.53-.83,9.3-4.59,12.12-3.23,2.42-7.64,3.31-11.59,2.57-4.39-.82-8.12-3.54-10.59-7.22-5.33-7.92-4.82-18.14-.32-26.3s12.52-14.55,21.36-17.64c23.29-8.15,47.77,1.42,70.68,6.16,11.46,2.37,23.07,3.46,34.73,2.06,11.14-1.34,21.98-4.54,32.04-9.54,9.48-4.71,18.7-10.95,25-19.59,2.96-4.06,5.1-8.73,5.73-13.74s-.52-10.59-3.33-14.86-7.24-7.29-12.32-7.64-9.53,2.63-12.46,6.55c-6.13,8.19-5.86,20.24-.87,28.89s15.33,14.12,25.43,13.45,18.82-7.21,25.55-14.6c3.65-4.01,6.93-8.35,10.44-12.48,3.76-4.43,7.67-8.73,11.86-12.76,8.41-8.1,18.02-15,28.05-20.94,4.91-2.9,9.98-5.55,15.18-7.91.98-.45,1.22-1.87.72-2.74-.59-1.01-1.75-1.17-2.74-.72-10.76,4.88-20.93,10.99-30.4,18.04s-17.85,15.18-25.5,24.19c-6.58,7.76-12.58,16.63-21.46,21.98-4.16,2.51-8.88,4.08-13.77,3.99s-9.53-1.7-13.47-4.46c-8.17-5.72-11.52-16.71-8.54-26.13,1.31-4.16,4.2-8.58,8.57-9.96s9.16,1.04,11.85,4.64c2.94,3.94,3.99,9.42,3.08,14.21s-3.43,9.16-6.55,12.87c-6.86,8.14-16.46,13.91-26.11,18.15-10.04,4.41-20.96,7.01-31.9,7.62-11.92.67-23.58-1.37-35.14-4.09-22.45-5.3-47.61-13.08-69.85-2.69-8.62,4.03-16.31,11.03-20.35,19.73s-4.28,19.3.97,27.66c2.55,4.06,6.27,7.37,10.82,8.98,4.13,1.46,8.94,1.42,13.04-.11,4.42-1.65,7.9-4.81,9.67-9.22,1.97-4.88,1.34-10.52-.7-15.27-3.99-9.3-13.66-15.32-22.54-19.33-8.35-3.78-17.27-6.15-26.31-7.57-18.9-2.97-38.89-2.37-57.36,2.83-4.05,1.14-8.02,2.56-11.87,4.26-.99.44-1.22,1.88-.72,2.74.6,1.02,1.74,1.16,2.74.72h.01Z"/>
    <path class="st7" d="M1235.4,128.63c-.87,3.19-1.7,6.38-2.6,9.56-.84,2.96-1.96,5.83-2.16,8.93-.07,1.08.97,2,2,2,1.14,0,1.93-.92,2-2,.18-2.81,1.36-5.48,2.1-8.17.85-3.08,1.68-6.17,2.52-9.26.68-2.49-3.18-3.55-3.86-1.06h0Z"/>
    <path class="st7" d="M1237.91,126.84c-3.5-.54-6.98-1.25-10.42-2.14-1.72-.44-3.43-.92-5.11-1.46s-3.25-1.12-5.02-1.16c-2.57-.06-2.57,3.93,0,4,1.61.04,3.16.78,4.69,1.24s3.16.92,4.76,1.33c3.32.84,6.67,1.52,10.05,2.04,1.07.17,2.15-.27,2.46-1.4.26-.95-.32-2.29-1.4-2.46h0Z"/>
  </g>
  <g>
    <rect class="st2" x="56.57" y="49.46" width="377.77" height="230.79" rx="23.53" ry="23.53"/>
    <g>
      <line class="st4" x1="97.98" y1="220.4" x2="392.92" y2="220.4"/>
      <g>
        <circle class="st3" cx="146.05" cy="220.73" r="13.56"/>
        <circle class="st8" cx="225.57" cy="220.4" r="16.64"/>
        <circle class="st6" cx="185.81" cy="220.4" r="13.56"/>
        <circle class="st0" cx="265.33" cy="220.4" r="13.56"/>
        <circle class="st10" cx="305.1" cy="220.4" r="13.56"/>
        <circle class="st1" cx="344.86" cy="220.4" r="13.56"/>
        <g>
          <path class="st5" d="M230.47,217.25c3.18,0,3.22-4.94.04-4.94s-3.22,4.94-.04,4.94h0Z"/>
          <path class="st5" d="M220.91,217.93c3.18,0,3.22-4.94.04-4.94s-3.22,4.94-.04,4.94h0Z"/>
          <path class="st5" d="M230.82,223.41c-.89.8-1.81,1.56-2.86,2.14-.22.12-.44.23-.67.34l-.15.07c.11-.05.12-.05,0,0-.1.03-.19.07-.29.1-.21.07-.42.12-.64.17,0,0-.41.06-.22.04s-.22,0-.22,0c-.21,0-.42,0-.63-.02-.24,0,.21.04-.03,0-.12-.02-.23-.04-.35-.07-.49-.12-.77-.23-1.07-.38-1.04-.51-1.96-1.22-2.83-1.98-.62-.54-1.54-.6-2.15,0-.55.55-.61,1.61,0,2.15,1.95,1.69,4.3,3.42,7.02,3.32s5.18-1.95,7.2-3.75c.61-.55.55-1.6,0-2.15-.61-.61-1.53-.54-2.15,0h.03Z"/>
        </g>
      </g>
    </g>
  </g>
</svg>