<?xml version="1.0" encoding="UTF-8"?>
<svg id="Layer_1" xmlns="http://www.w3.org/2000/svg" version="1.1" viewBox="0 0 595.72 679.11">
  <!-- Generator: Adobe Illustrator 29.7.1, SVG Export Plug-In . SVG Version: 2.1.1 Build 8)  -->
  <defs>
    <style>
      .st0 {
        fill: #523cac;
      }

      .st1 {
        fill: #adc716;
      }

      .st2, .st3 {
        fill: #fff7f0;
      }

      .st4 {
        fill: #563bb1;
      }

      .st5 {
        fill: #00b9ae;
      }

      .st3 {
        stroke: #adc716;
        stroke-miterlimit: 10;
        stroke-width: 2.34px;
      }

      .st6 {
        fill: #f63a00;
      }
    </style>
  </defs>
  <rect class="st3" x="59.09" y="66.57" width="477.53" height="545.97" rx="49.65" ry="49.65"/>
  <g>
    <ellipse class="st6" cx="297.86" cy="552.9" rx="32.7" ry="5.91"/>
    <rect class="st4" x="286.91" y="120.3" width="21.9" height="434.27" rx="5.71" ry="5.71"/>
    <g>
      <rect class="st0" x="147.64" y="268.77" width="300.44" height="48.76" rx="11.38" ry="11.38" transform="translate(2.76 -2.78) rotate(.54)"/>
      <g>
        <path class="st2" d="M183.81,301.13c-.45,0-.81-.15-1.09-.43-.28-.28-.41-.63-.41-1.05l.13-13.87c0-.42.15-.76.43-1.04.28-.28.63-.41,1.05-.41l7.8.07c.42,0,.76.14,1.04.41.28.27.41.61.41,1.02,0,.35-.15.66-.43.93-.28.27-.63.4-1.05.4l-6.48-.06.22-.29-.04,4.82-.17-.31,5.35.05c.42,0,.76.14,1.04.41.28.27.41.61.41,1.02,0,.35-.15.66-.43.93-.28.27-.63.4-1.05.4l-5.4-.05.22-.21-.05,5.81c0,.42-.16.76-.45,1.04-.3.28-.65.41-1.05.41Z"/>
        <path class="st2" d="M207.71,294.95c-.01,1.31-.32,2.46-.91,3.46-.59,1-1.38,1.77-2.37,2.32-.99.55-2.09.82-3.31.81-1.22-.01-2.31-.3-3.29-.87-.98-.57-1.76-1.36-2.33-2.36-.58-1-.86-2.16-.84-3.47s.32-2.46.91-3.46c.59-.99,1.38-1.77,2.38-2.33.99-.56,2.09-.83,3.31-.82,1.22.01,2.31.31,3.29.88.98.58,1.75,1.37,2.33,2.37.58,1,.86,2.16.84,3.48ZM204.83,294.92c0-.82-.15-1.52-.47-2.13-.32-.6-.76-1.08-1.31-1.42-.55-.34-1.16-.52-1.83-.52-.67,0-1.29.16-1.84.49-.56.33-1,.79-1.33,1.39-.33.6-.5,1.3-.51,2.12,0,.8.15,1.5.47,2.1.32.6.76,1.07,1.31,1.42.55.34,1.16.51,1.83.52.67,0,1.29-.16,1.84-.49.56-.33,1-.79,1.33-1.39.33-.6.5-1.29.51-2.1Z"/>
        <path class="st2" d="M219.81,288.63c.42,0,.76.15,1.03.43.27.28.4.63.4,1.05l-.06,6.1c-.02,1.7-.5,3.04-1.45,4.02-.95.98-2.32,1.47-4.09,1.45-1.78-.02-3.13-.53-4.05-1.53-.93-1-1.38-2.35-1.37-4.04l.06-6.1c0-.42.14-.76.42-1.04.27-.28.62-.41,1.04-.41s.76.15,1.03.43c.27.28.4.63.4,1.05l-.06,6.1c0,.98.2,1.7.63,2.18.43.48,1.07.72,1.94.73.88,0,1.54-.22,1.97-.69.44-.47.66-1.19.67-2.16l.06-6.1c0-.42.14-.76.42-1.04.27-.28.62-.41,1.04-.41Z"/>
        <path class="st2" d="M231.24,288.49c1.18.01,2.08.27,2.69.77s1.03,1.17,1.25,1.99c.22.83.33,1.74.32,2.75l-.06,6.14c0,.42-.14.76-.42,1.04-.28.28-.62.41-1.04.41s-.76-.15-1.03-.43c-.27-.28-.4-.63-.4-1.05l.06-6.14c0-.53-.06-1-.19-1.43-.13-.43-.37-.77-.72-1.03-.35-.26-.85-.39-1.51-.4-.64,0-1.18.12-1.62.37-.44.25-.78.59-1.02,1.01-.24.42-.36.9-.36,1.42l-.06,6.14c0,.42-.14.76-.42,1.04-.28.28-.62.41-1.04.41s-.76-.15-1.03-.43c-.27-.28-.4-.63-.4-1.05l.09-9.91c0-.42.14-.76.42-1.04.27-.28.62-.41,1.04-.41s.76.15,1.03.43c.27.28.4.63.4,1.05v1.03s-.37-.08-.37-.08c.15-.27.36-.56.63-.87.27-.31.6-.6.97-.87.37-.27.79-.48,1.25-.65.47-.16.97-.24,1.51-.24Z"/>
        <path class="st2" d="M249.23,283.98c.42,0,.76.14,1.03.42.27.27.4.63.4,1.06l-.14,14.83c0,.42-.14.76-.42,1.04-.27.28-.62.41-1.04.41-.42,0-.76-.15-1.03-.43-.27-.28-.4-.63-.4-1.05v-1.18s.54.22.54.22c0,.21-.12.46-.34.75-.23.29-.53.58-.92.87-.39.29-.84.52-1.36.72-.52.19-1.09.29-1.69.28-1.1-.01-2.1-.3-2.99-.88-.89-.58-1.59-1.37-2.1-2.37-.51-1-.76-2.16-.75-3.45.01-1.31.28-2.46.81-3.46s1.24-1.77,2.12-2.33c.88-.56,1.86-.83,2.94-.83.69,0,1.32.12,1.89.33.57.21,1.07.48,1.49.81s.75.65.98.98c.23.33.34.61.34.83l-.87.3.06-6.43c0-.42.14-.76.42-1.04.27-.28.62-.41,1.04-.41ZM244.24,299.3c.7,0,1.32-.16,1.85-.51.53-.35.95-.82,1.25-1.43.3-.6.46-1.28.46-2.04,0-.77-.13-1.46-.42-2.07s-.7-1.09-1.22-1.45c-.53-.36-1.14-.54-1.84-.55-.69,0-1.3.17-1.83.51-.53.35-.95.82-1.25,1.43s-.46,1.29-.46,2.06c0,.75.13,1.43.42,2.04.29.61.7,1.1,1.22,1.45.52.36,1.13.54,1.82.54Z"/>
        <path class="st2" d="M264.26,288.8c.42,0,.76.14,1.03.42.27.28.4.63.4,1.06l-.09,10.15c0,.42-.14.76-.42,1.04-.27.28-.62.41-1.04.41-.42,0-.76-.15-1.03-.43-.27-.28-.4-.63-.4-1.05v-1.18s.54.22.54.22c0,.21-.12.46-.34.75-.23.29-.53.58-.92.87-.39.28-.84.52-1.36.72-.52.19-1.09.29-1.69.28-1.1,0-2.1-.3-2.99-.88s-1.59-1.37-2.1-2.37c-.51-1-.76-2.16-.75-3.45.01-1.31.28-2.47.81-3.46.53-1,1.24-1.77,2.12-2.33.88-.56,1.86-.83,2.94-.82.69,0,1.32.12,1.89.33.57.21,1.07.48,1.49.81s.75.65.98.98c.23.33.34.61.34.83l-.87.3.02-1.75c0-.42.14-.76.42-1.04.27-.28.62-.41,1.04-.41ZM259.31,299.44c.7,0,1.32-.16,1.85-.51.53-.35.95-.82,1.25-1.43.3-.6.46-1.28.46-2.03,0-.77-.13-1.46-.42-2.07-.29-.61-.7-1.09-1.22-1.45-.53-.36-1.14-.54-1.84-.55-.69,0-1.3.17-1.83.51-.53.35-.95.82-1.25,1.43-.3.61-.46,1.29-.46,2.06,0,.75.13,1.43.42,2.04.29.61.7,1.09,1.22,1.45.52.36,1.13.54,1.82.54Z"/>
        <path class="st2" d="M268.96,289.33l5.69.05c.38,0,.7.13.96.39.25.26.38.58.38.96,0,.37-.13.67-.39.92-.26.25-.58.37-.96.36l-5.69-.05c-.38,0-.7-.13-.96-.39-.25-.26-.38-.58-.38-.96,0-.37.13-.67.39-.92.26-.25.58-.37.96-.36ZM271.56,286.35c.42,0,.75.15,1.02.43.26.28.39.63.39,1.05l-.1,10.68c0,.22.04.41.13.55.09.15.21.25.36.32.15.07.32.1.49.1.19,0,.37-.03.53-.1s.35-.11.55-.1c.22,0,.43.11.61.32.18.21.27.5.27.87,0,.45-.25.81-.74,1.1-.49.28-1.02.42-1.58.42-.34,0-.71-.03-1.12-.09-.41-.06-.79-.2-1.15-.42-.36-.22-.65-.55-.89-1-.24-.45-.35-1.07-.34-1.85l.1-10.8c0-.42.15-.76.43-1.04.28-.28.63-.41,1.05-.41Z"/>
        <path class="st2" d="M281.24,300.58c0,.42-.14.76-.42,1.04-.28.28-.62.41-1.04.41s-.76-.15-1.03-.43c-.27-.28-.4-.63-.4-1.05l.09-9.91c0-.42.14-.76.42-1.04.27-.28.62-.41,1.04-.41s.76.15,1.03.43c.27.28.4.63.4,1.05l-.09,9.91ZM279.9,287.63c-.54,0-.93-.1-1.15-.27-.22-.18-.33-.49-.33-.94v-.46c0-.46.13-.78.39-.95.25-.17.63-.25,1.14-.24.56,0,.95.1,1.17.28.22.18.33.49.33.94v.46c0,.46-.13.78-.37.94-.24.17-.63.25-1.18.24Z"/>
        <path class="st2" d="M296.69,295.78c-.01,1.31-.32,2.46-.91,3.46-.59,1-1.38,1.77-2.37,2.32-.99.55-2.09.82-3.31.81-1.22-.01-2.31-.3-3.29-.87-.98-.57-1.76-1.36-2.33-2.36-.58-1-.86-2.16-.84-3.47s.32-2.46.91-3.46c.59-.99,1.38-1.77,2.38-2.33.99-.56,2.09-.83,3.31-.82,1.22.01,2.31.31,3.29.88.98.58,1.75,1.37,2.33,2.37.58,1.01.86,2.17.84,3.48ZM293.81,295.75c0-.82-.15-1.52-.47-2.13-.32-.6-.76-1.08-1.31-1.42-.55-.34-1.16-.52-1.83-.52-.67,0-1.29.16-1.84.49-.56.33-1,.79-1.33,1.39-.33.6-.5,1.3-.51,2.12,0,.8.15,1.5.47,2.1.32.6.76,1.07,1.31,1.42.55.34,1.16.51,1.83.52.67,0,1.29-.16,1.84-.49.56-.33,1-.79,1.33-1.39.33-.6.5-1.29.51-2.1Z"/>
        <path class="st2" d="M306.14,289.2c1.18.01,2.08.27,2.69.77s1.03,1.17,1.25,1.99c.22.83.33,1.74.32,2.75l-.06,6.14c0,.42-.14.76-.42,1.04-.28.28-.62.41-1.04.41s-.76-.15-1.03-.43c-.27-.28-.4-.63-.4-1.05l.06-6.14c0-.53-.06-1-.19-1.43-.13-.43-.37-.77-.72-1.03-.35-.26-.85-.39-1.51-.4-.64,0-1.18.12-1.62.37-.44.25-.78.59-1.02,1.01-.24.42-.36.9-.36,1.42l-.06,6.14c0,.42-.14.76-.42,1.04-.28.28-.62.41-1.04.41s-.76-.15-1.03-.43c-.27-.28-.4-.63-.4-1.05l.09-9.91c0-.42.14-.76.42-1.04.27-.28.62-.41,1.04-.41s.76.15,1.03.43c.27.28.4.63.4,1.05v1.03s-.37-.08-.37-.08c.15-.27.36-.56.63-.87.27-.31.6-.6.97-.87.37-.27.79-.48,1.25-.65.47-.16.97-.24,1.51-.24Z"/>
        <path class="st2" d="M312.73,300.34c-.16-.23-.23-.51-.21-.87.02-.35.23-.65.63-.91.26-.16.53-.22.82-.2.29.03.57.18.83.45.46.47.94.83,1.45,1.09.51.26,1.15.39,1.92.4.24-.01.5-.05.79-.1.29-.05.54-.18.76-.38.22-.2.33-.5.33-.92,0-.35-.11-.63-.35-.84-.24-.21-.55-.39-.94-.54-.39-.15-.83-.29-1.3-.42-.5-.15-1-.31-1.52-.5-.52-.18-.99-.41-1.42-.7-.43-.28-.78-.66-1.05-1.13s-.4-1.05-.39-1.76c0-.8.24-1.48.69-2.03.45-.56,1.04-.98,1.75-1.28.71-.3,1.46-.44,2.25-.44.5,0,1.01.07,1.56.19.54.13,1.06.32,1.55.59.49.27.91.62,1.24,1.06.17.24.28.53.3.87.03.34-.13.64-.46.91-.24.19-.52.27-.84.24-.32-.03-.58-.14-.79-.33-.27-.35-.63-.64-1.08-.85-.45-.21-.98-.32-1.57-.33-.24,0-.5.02-.78.08-.28.05-.53.17-.74.35-.21.18-.32.47-.32.87,0,.37.11.66.35.88.24.22.56.4.97.54s.84.28,1.3.41c.48.13.97.29,1.46.47s.95.42,1.36.71c.41.29.75.67,1,1.12.25.46.37,1.04.37,1.74,0,.82-.25,1.51-.74,2.08-.48.57-1.09,1-1.81,1.29-.72.29-1.46.43-2.21.42-.94,0-1.89-.18-2.83-.52-.94-.34-1.72-.92-2.33-1.76Z"/>
        <path class="st2" d="M338.73,289.98c.38,0,.7.13.96.38.25.25.38.57.38.95,0,.38-.13.7-.39.94-.26.25-.58.37-.96.36l-6.36-.06c-.38,0-.7-.13-.96-.38-.25-.25-.38-.57-.38-.95,0-.38.13-.7.39-.94.26-.25.58-.37.96-.36l6.36.06ZM338.51,284.82c.35,0,.7.05,1.03.15s.61.26.84.48c.22.22.33.5.33.86,0,.4-.12.71-.36.94s-.5.34-.81.34c-.14,0-.36-.04-.65-.11-.29-.07-.57-.11-.84-.12-.4,0-.71.08-.93.26-.22.17-.37.38-.45.61-.08.23-.12.43-.13.61l-.11,12.26c0,.42-.14.76-.42,1.04-.28.28-.62.41-1.04.41s-.76-.15-1.03-.43c-.27-.28-.4-.63-.4-1.05l.11-12.24c.01-1.14.42-2.09,1.23-2.87.81-.78,2.01-1.16,3.61-1.14Z"/>
        <path class="st2" d="M354.03,296.32c-.01,1.31-.32,2.47-.91,3.46-.59,1-1.38,1.77-2.37,2.32s-2.09.82-3.31.81c-1.22-.01-2.31-.3-3.29-.87s-1.76-1.36-2.33-2.36c-.58-1-.86-2.16-.84-3.48s.32-2.46.91-3.46c.59-1,1.38-1.77,2.38-2.33.99-.56,2.09-.83,3.31-.82,1.22.01,2.31.31,3.29.88.98.58,1.75,1.37,2.33,2.37.58,1.01.86,2.16.84,3.48ZM351.15,296.29c0-.82-.15-1.53-.47-2.13-.32-.6-.76-1.07-1.31-1.42s-1.16-.52-1.83-.52c-.67,0-1.29.16-1.84.49-.56.33-1,.79-1.33,1.39-.33.6-.5,1.3-.51,2.12,0,.8.15,1.5.47,2.1.32.6.76,1.07,1.31,1.42.55.34,1.16.51,1.83.52.67,0,1.29-.16,1.84-.49.56-.33,1-.79,1.33-1.39.33-.6.5-1.29.51-2.09Z"/>
        <path class="st2" d="M357.93,302.76c-.42,0-.76-.15-1.03-.43-.27-.28-.4-.63-.4-1.05l.09-9.91c0-.42.14-.76.42-1.04.27-.28.62-.41,1.04-.41s.76.15,1.03.43c.27.28.4.63.4,1.05l-.02,2.26-.15-1.61c.18-.38.41-.72.69-1.01.28-.29.6-.54.96-.74.35-.2.73-.34,1.13-.43.4-.09.8-.14,1.2-.13.48,0,.88.14,1.21.42.32.28.49.6.48.96,0,.53-.14.91-.42,1.14-.27.23-.57.34-.89.34-.3,0-.58-.06-.83-.18s-.53-.17-.85-.18c-.29,0-.58.06-.88.2-.3.13-.57.34-.82.63-.25.29-.45.64-.61,1.06-.16.42-.24.92-.24,1.5l-.05,5.69c0,.42-.14.76-.42,1.04-.28.28-.62.41-1.04.41Z"/>
        <path class="st2" d="M383.15,300.19c.42,0,.76.14,1.04.41.28.27.41.61.41,1.02,0,.4-.15.73-.43.99-.28.26-.63.39-1.05.39l-7.8-.07c-.42,0-.76-.15-1.04-.43-.28-.28-.41-.63-.41-1.05l.13-13.87c0-.42.15-.76.44-1.04.29-.28.66-.41,1.11-.41.38,0,.72.15,1.02.43.29.28.44.63.43,1.05l-.12,12.93-.52-.41,6.79.06Z"/>
        <path class="st2" d="M389.84,301.59c0,.42-.14.76-.42,1.04-.28.28-.62.41-1.04.41s-.76-.15-1.03-.43c-.27-.28-.4-.63-.4-1.05l.09-9.91c0-.42.14-.76.42-1.04.27-.28.62-.41,1.04-.41s.76.15,1.03.43c.27.28.4.63.4,1.05l-.09,9.91ZM388.49,288.65c-.54,0-.93-.1-1.15-.27-.22-.18-.33-.49-.33-.94v-.46c0-.46.13-.78.39-.95.25-.17.63-.25,1.14-.24.56,0,.95.1,1.17.28.22.18.33.49.33.94v.46c0,.46-.13.78-.37.94-.24.17-.63.25-1.18.24Z"/>
        <path class="st2" d="M399.75,290.55c.38,0,.7.13.96.38.25.25.38.57.38.95,0,.38-.13.7-.39.94-.26.25-.58.37-.96.36l-6.36-.06c-.38,0-.7-.13-.96-.38-.25-.25-.38-.57-.38-.95,0-.38.13-.7.39-.94.26-.25.58-.37.96-.36l6.36.06ZM399.54,285.39c.35,0,.7.05,1.03.15.33.1.61.26.84.48.22.22.33.5.33.86,0,.4-.12.71-.36.94s-.5.34-.81.34c-.14,0-.36-.04-.65-.11-.29-.07-.57-.11-.84-.12-.4,0-.71.08-.93.26-.22.17-.37.38-.45.61-.08.23-.12.43-.13.61l-.11,12.26c0,.42-.14.76-.42,1.04-.28.28-.62.41-1.04.41s-.76-.15-1.03-.43c-.27-.28-.4-.63-.4-1.05l.11-12.24c.01-1.14.42-2.09,1.23-2.87.81-.78,2.01-1.16,3.61-1.14Z"/>
        <path class="st2" d="M408.59,303.47c-1.36-.01-2.54-.31-3.53-.89-.99-.58-1.76-1.36-2.28-2.34-.53-.98-.78-2.09-.77-3.32.01-1.44.32-2.67.91-3.67.59-1.01,1.36-1.78,2.31-2.32s1.95-.8,3.01-.79c.82,0,1.59.18,2.31.53.72.34,1.36.81,1.92,1.4.55.59.99,1.27,1.31,2.04.32.77.48,1.59.47,2.45-.02.38-.17.69-.46.93s-.63.35-1.01.35l-9.17-.08-.7-2.41,8.81.08-.53.48v-.65c-.02-.46-.18-.88-.47-1.25-.29-.37-.66-.67-1.09-.89-.44-.22-.91-.33-1.4-.34-.48,0-.93.06-1.35.18s-.78.34-1.09.64c-.31.3-.55.71-.73,1.22-.18.51-.28,1.16-.28,1.94,0,.86.17,1.6.52,2.2.35.6.81,1.06,1.38,1.38.56.32,1.17.48,1.81.49.59,0,1.06-.04,1.42-.13s.64-.21.86-.34.41-.25.59-.34c.29-.14.56-.21.82-.21.35,0,.64.13.87.37.23.24.34.52.34.84,0,.43-.23.82-.68,1.17-.42.35-1.01.65-1.76.91-.75.26-1.53.38-2.33.38Z"/>
      </g>
    </g>
    <g>
      <rect class="st6" x="154.25" y="430.67" width="287.21" height="48.76" rx="24.38" ry="24.38" transform="translate(-9.55 6.39) rotate(-1.21)"/>
      <g>
        <path class="st2" d="M224.81,464.42c-.45.01-.82-.12-1.1-.39-.29-.27-.44-.62-.45-1.03l-.34-13.87c0-.42.12-.77.39-1.05s.62-.43,1.03-.45l7.8-.19c.42,0,.77.11,1.05.37.29.26.43.59.44,1.01,0,.35-.12.67-.4.95-.27.28-.62.42-1.03.43l-6.48.16.21-.29.12,4.82-.18-.31,5.35-.13c.42,0,.77.11,1.05.37s.43.59.45,1.01c0,.35-.12.67-.4.95-.27.28-.62.42-1.03.43l-5.4.13.21-.22.14,5.81c.01.42-.13.77-.42,1.05-.29.29-.63.43-1.03.44Z"/>
        <path class="st2" d="M248.48,457.44c.03,1.31-.23,2.48-.79,3.49-.56,1.02-1.32,1.81-2.29,2.4-.97.58-2.06.89-3.28.92-1.22.03-2.32-.22-3.32-.76-1-.54-1.8-1.3-2.41-2.28-.61-.98-.93-2.13-.96-3.45-.03-1.31.23-2.47.79-3.49.56-1.01,1.32-1.82,2.29-2.41.97-.59,2.06-.9,3.28-.93s2.32.23,3.32.77c1,.54,1.8,1.31,2.41,2.29.61.99.93,2.13.96,3.45ZM245.6,457.51c-.02-.81-.2-1.52-.54-2.11-.34-.59-.79-1.05-1.35-1.37-.56-.32-1.18-.48-1.85-.46-.67.02-1.28.2-1.82.55s-.97.83-1.29,1.44c-.31.61-.46,1.32-.44,2.13.02.8.2,1.5.54,2.09.34.59.79,1.05,1.35,1.37.56.32,1.18.48,1.85.46.67-.02,1.28-.2,1.82-.55.54-.35.97-.83,1.29-1.43.31-.61.46-1.31.44-2.11Z"/>
        <path class="st2" d="M252.59,463.75c-.42,0-.76-.12-1.04-.39-.28-.27-.42-.62-.43-1.03l-.24-9.91c-.01-.42.12-.77.38-1.05.27-.29.61-.44,1.02-.45.42,0,.76.12,1.04.39.28.27.42.62.43,1.03l.05,2.25-.21-1.6c.17-.39.39-.73.66-1.04.27-.3.58-.56.93-.77.35-.21.72-.37,1.12-.47.4-.11.8-.16,1.2-.17.48-.01.89.11,1.22.38.33.26.51.58.52.95.01.53-.11.91-.38,1.15-.27.24-.56.36-.88.37-.3,0-.58-.04-.83-.15-.25-.1-.54-.15-.86-.15-.29,0-.58.08-.87.22-.29.14-.56.36-.8.66-.24.29-.43.65-.57,1.08s-.21.93-.19,1.5l.14,5.69c0,.42-.12.77-.38,1.05-.27.29-.61.43-1.02.44Z"/>
        <path class="st2" d="M274.38,450.18l-4.89,12.32c-.11.31-.27.55-.5.72-.23.17-.48.26-.75.27-.43.01-.76-.1-.97-.34-.21-.23-.33-.53-.33-.88,0-.14.02-.3.06-.46l5.62-14.49c.12-.32.31-.58.57-.76.26-.18.54-.26.85-.24.29,0,.56.07.81.23.25.16.44.39.56.7l6.24,13.92c.08.21.13.4.13.57.01.43-.12.78-.4,1.04-.27.26-.58.4-.91.41-.29,0-.55-.08-.79-.25-.24-.17-.42-.41-.56-.71l-5.45-11.89.69-.16ZM270.16,459.56l1.25-2.79,6.48-.16.52,2.75-8.25.2Z"/>
        <path class="st2" d="M288.63,449.79c.67-.02,1.29.07,1.86.27.56.19,1.05.45,1.47.76.42.31.74.63.98.95s.36.59.37.82l-.62.33-.04-1.75c0-.42.12-.77.38-1.05.26-.29.6-.43,1.02-.45.42,0,.76.12,1.04.38.28.27.42.61.43,1.05l.26,10.68c.03,1.39-.24,2.51-.82,3.37-.58.85-1.35,1.48-2.32,1.88-.97.4-2.01.61-3.13.64-.32,0-.74-.02-1.25-.09-.51-.07-1-.15-1.47-.25-.47-.1-.82-.2-1.06-.29-.49-.2-.82-.45-1.02-.76-.19-.31-.24-.64-.13-.99.13-.47.36-.79.67-.96.32-.17.65-.2,1.01-.08.16.04.43.13.8.27.37.13.78.26,1.22.37.44.11.83.16,1.17.15,1.2-.03,2.08-.29,2.65-.79s.84-1.17.82-2.01l-.05-2.09.29.21c0,.21-.1.46-.31.76-.21.3-.5.6-.87.9-.37.3-.81.55-1.31.76-.51.21-1.05.33-1.62.34-1.14.03-2.17-.23-3.09-.78-.93-.54-1.67-1.31-2.22-2.3-.55-.99-.84-2.13-.87-3.42-.03-1.31.2-2.47.71-3.49.5-1.01,1.2-1.81,2.08-2.4.88-.59,1.88-.9,2.98-.93ZM289.15,452.42c-.72.02-1.35.21-1.88.57-.54.37-.95.86-1.24,1.47-.29.62-.42,1.31-.41,2.07.02.75.19,1.43.5,2.03.32.6.75,1.07,1.31,1.41.55.34,1.19.5,1.91.48.74-.02,1.37-.21,1.91-.57.54-.37.95-.85,1.24-1.47.29-.61.42-1.3.41-2.05-.02-.77-.19-1.45-.51-2.05-.32-.6-.75-1.07-1.31-1.41-.55-.34-1.2-.5-1.93-.48Z"/>
        <path class="st2" d="M304.5,462.73c-1.36.03-2.55-.22-3.56-.77-1.01-.54-1.8-1.3-2.36-2.26-.56-.96-.85-2.06-.88-3.29-.04-1.44.23-2.67.79-3.7.56-1.03,1.3-1.83,2.23-2.39.93-.57,1.92-.86,2.98-.89.82-.02,1.59.13,2.33.45.74.32,1.39.76,1.96,1.33.57.57,1.03,1.24,1.38,2,.35.76.53,1.57.55,2.43,0,.38-.15.7-.43.95-.28.25-.62.38-1,.38l-9.17.22-.78-2.38,8.81-.21-.52.49-.02-.65c-.04-.46-.22-.88-.52-1.24-.3-.36-.68-.64-1.12-.85-.45-.21-.92-.3-1.41-.29-.48.01-.92.09-1.34.22-.41.14-.77.36-1.06.67-.3.31-.53.72-.69,1.24-.16.52-.24,1.17-.22,1.95.02.86.22,1.59.59,2.18.38.59.85,1.04,1.43,1.33.58.3,1.18.44,1.82.42.59-.01,1.06-.07,1.41-.18.35-.1.63-.23.84-.37.21-.14.4-.26.58-.36.29-.15.55-.23.81-.24.35,0,.65.1.88.34.24.23.36.51.37.83.01.43-.21.83-.64,1.19-.41.36-.98.68-1.73.96-.75.28-1.52.43-2.32.45Z"/>
        <path class="st2" d="M311.81,460.32c-.17-.22-.25-.51-.24-.86,0-.35.21-.66.6-.93.25-.17.52-.24.81-.22.29.02.57.16.85.42.48.45.97.8,1.49,1.04.52.25,1.16.36,1.93.34.24-.02.5-.06.79-.13s.54-.2.75-.4c.21-.21.31-.52.3-.93,0-.35-.14-.63-.38-.83-.25-.2-.57-.37-.96-.5-.4-.14-.83-.26-1.32-.38-.5-.13-1.01-.28-1.54-.44-.52-.16-1.01-.38-1.44-.65-.44-.27-.8-.63-1.08-1.09-.28-.46-.43-1.04-.45-1.74-.02-.8.19-1.48.62-2.06.43-.57,1-1.02,1.71-1.34.71-.32,1.45-.49,2.23-.51.5-.01,1.02.04,1.56.14.55.11,1.07.29,1.57.54.5.25.93.59,1.27,1.01.18.24.29.52.33.86.04.33-.1.64-.43.92-.24.2-.51.29-.83.27s-.59-.12-.8-.3c-.28-.34-.65-.62-1.11-.81-.46-.2-.99-.29-1.58-.27-.24,0-.5.04-.78.1-.28.06-.52.19-.72.38-.2.19-.3.48-.29.88,0,.37.14.66.38.87.25.21.57.38.99.5.41.13.85.25,1.32.36.48.12.97.26,1.47.42.5.16.96.38,1.39.66.42.28.77.64,1.03,1.09.27.45.41,1.03.43,1.73.02.82-.2,1.52-.67,2.11-.46.59-1.05,1.04-1.77,1.35-.71.31-1.45.48-2.2.5-.94.02-1.89-.12-2.84-.42-.95-.3-1.75-.87-2.39-1.68Z"/>
        <path class="st2" d="M335.11,461.99c-.59.01-1.23-.06-1.9-.23s-1.23-.42-1.67-.76c-.21-.17-.38-.39-.51-.67s-.19-.54-.2-.8c0-.27.1-.53.33-.78.23-.25.55-.37.99-.38.29,0,.65.14,1.09.43.26.15.54.29.85.41s.62.18.94.17c.77-.02,1.43-.17,1.98-.47.55-.29.97-.69,1.27-1.19.29-.5.43-1.09.41-1.76-.01-.61-.17-1.12-.46-1.55s-.67-.75-1.13-.98c-.46-.23-.96-.34-1.48-.32-.5.01-.93.1-1.29.27-.36.17-.7.34-1,.52-.3.18-.6.27-.91.27-.53.01-.92-.09-1.18-.32-.26-.22-.43-.5-.5-.82-.07-.32-.09-.61-.07-.86l.6-5.85c.06-.34.21-.62.47-.84s.57-.34.94-.35l6.93-.17c.38,0,.71.11.97.36.26.25.4.57.41.95,0,.37-.11.68-.36.93-.25.25-.57.39-.95.4l-6.19.15.26-.22-.53,4.89-.33-.9c.09-.16.3-.32.61-.47.31-.15.68-.28,1.09-.4.41-.11.82-.18,1.22-.19,1.07-.03,2.04.19,2.9.66.86.47,1.54,1.11,2.05,1.94.51.83.78,1.77.8,2.83.03,1.2-.22,2.25-.74,3.16-.52.91-1.27,1.62-2.24,2.13-.97.51-2.13.78-3.47.82Z"/>
        <path class="st2" d="M345.66,455.56c-.42,0-.77-.12-1.05-.38-.29-.26-.44-.61-.45-1.02,0-.42.12-.76.4-1.03.27-.27.62-.41,1.03-.42l4.17-.1c.42,0,.77.12,1.05.39.29.27.44.62.45,1.03,0,.4-.12.73-.4,1-.27.27-.62.41-1.03.42l-4.17.1Z"/>
        <path class="st2" d="M357.4,461.21c-.45.01-.82-.12-1.11-.39-.29-.27-.45-.62-.46-1.03l-.29-12.09.35.52-1.72,1.34c-.22.18-.5.28-.83.29-.38,0-.72-.13-1.02-.41s-.45-.62-.46-1.02c-.01-.51.22-.93.71-1.27l3.4-2.39c.16-.12.33-.2.53-.25.2-.05.39-.08.56-.09.46-.01.84.12,1.11.39.28.27.42.62.43,1.03l.34,13.87c0,.42-.13.77-.42,1.05s-.67.44-1.13.45Z"/>
        <path class="st2" d="M371.94,458.21c.38,0,.71.11.97.36.26.25.4.57.41.95,0,.37-.11.68-.36.93s-.57.39-.95.39l-8.16.2c-.42,0-.75-.11-.99-.36-.25-.25-.37-.58-.38-.98,0-.4.12-.76.41-1.07l5.09-5.72c.58-.65,1.03-1.32,1.36-2,.33-.68.49-1.27.47-1.76-.02-.8-.27-1.44-.74-1.92-.48-.48-1.1-.71-1.87-.69-.3,0-.61.09-.93.24-.32.15-.62.36-.91.62-.29.26-.56.57-.81.91-.18.26-.37.43-.56.49-.19.07-.36.11-.52.11-.35,0-.68-.12-.98-.37-.3-.26-.46-.56-.47-.91,0-.27.08-.54.26-.8.18-.26.4-.53.67-.81.39-.41.83-.77,1.32-1.09.49-.32,1-.56,1.52-.75.52-.18,1.03-.28,1.53-.29,1.07-.03,2.01.16,2.81.57s1.43.99,1.88,1.76c.45.76.69,1.67.71,2.73.02.88-.21,1.87-.71,2.96s-1.17,2.12-2.03,3.09l-3.15,3.53-.27-.21,5.4-.13Z"/>
      </g>
    </g>
    <g>
      <rect class="st5" x="187.61" y="347.29" width="220.38" height="53.67" rx="9.7" ry="9.7" transform="translate(4.19 -3.3) rotate(.64)"/>
      <g>
        <path class="st2" d="M216.93,364.04c.38,0,.72.15,1.02.43s.44.63.43,1.05l-.13,13.87c0,.42-.16.76-.47,1.04s-.66.41-1.06.41c-.45,0-.81-.15-1.08-.43-.27-.28-.4-.63-.4-1.05l.13-13.87c0-.42.15-.76.44-1.04s.66-.41,1.11-.41ZM216.79,371.02l10.7.1-.03,2.76-10.7-.1.03-2.76ZM227.56,364.14c.45,0,.81.15,1.08.43.27.28.4.63.4,1.05l-.13,13.87c0,.42-.15.76-.43,1.04-.28.28-.66.41-1.12.41-.38,0-.72-.15-1.02-.43-.29-.28-.44-.63-.43-1.05l.13-13.87c0-.42.16-.76.47-1.04s.66-.41,1.06-.41Z"/>
        <path class="st2" d="M242.88,368.01c.42,0,.76.14,1.03.42.27.28.4.63.4,1.06l-.1,10.15c0,.42-.14.76-.42,1.04-.27.28-.62.41-1.03.41-.42,0-.76-.15-1.03-.43-.27-.28-.4-.63-.4-1.05v-1.18s.54.22.54.22c0,.21-.12.46-.34.75s-.53.58-.92.87-.84.52-1.36.72c-.52.19-1.09.29-1.69.28-1.1-.01-2.1-.3-2.99-.88-.89-.58-1.59-1.37-2.1-2.37-.51-1-.76-2.16-.75-3.45.01-1.31.28-2.46.81-3.46.53-1,1.24-1.77,2.12-2.33.88-.56,1.86-.83,2.94-.83.69,0,1.32.12,1.89.33.57.21,1.07.48,1.49.81.42.33.75.65.98.98.23.33.34.61.34.83l-.87.3.02-1.75c0-.42.14-.76.42-1.04.27-.28.62-.41,1.04-.41ZM237.93,378.64c.7,0,1.32-.16,1.85-.51.53-.35.95-.82,1.25-1.43.3-.6.46-1.28.46-2.04,0-.77-.13-1.46-.42-2.07s-.7-1.09-1.22-1.45c-.53-.36-1.14-.54-1.84-.55-.69,0-1.3.16-1.83.51-.53.35-.95.82-1.25,1.43s-.46,1.29-.46,2.06c0,.75.13,1.43.42,2.04.29.61.7,1.1,1.22,1.45.52.36,1.13.54,1.82.54Z"/>
        <path class="st2" d="M254.09,368.12c1.12.01,2.12.3,3,.88.88.58,1.58,1.36,2.09,2.36.51,1,.76,2.15.75,3.46-.01,1.31-.28,2.46-.81,3.46-.53,1-1.23,1.77-2.11,2.33-.88.56-1.86.83-2.95.83-.64,0-1.24-.12-1.8-.33-.56-.21-1.05-.48-1.47-.81-.42-.32-.75-.65-.98-.98-.23-.33-.34-.61-.34-.83l.75-.3-.02,1.75c0,.42-.14.76-.42,1.04-.28.28-.62.41-1.04.41s-.76-.14-1.03-.42c-.27-.27-.4-.63-.4-1.06l.14-15.07c0-.42.14-.76.42-1.04.27-.28.62-.41,1.04-.41s.76.15,1.03.43c.27.28.4.63.4,1.05l-.06,6.1-.41-.22c0-.21.12-.46.34-.75.23-.29.53-.59.92-.88s.83-.53,1.34-.72,1.04-.28,1.6-.27ZM253.7,370.75c-.7,0-1.32.16-1.85.51-.53.35-.95.82-1.25,1.42-.3.6-.46,1.28-.46,2.05,0,.75.13,1.44.42,2.05s.7,1.11,1.22,1.46c.52.36,1.14.54,1.84.54s1.32-.16,1.84-.51.94-.83,1.24-1.44c.3-.61.46-1.29.46-2.05,0-.77-.13-1.45-.42-2.06-.29-.6-.69-1.08-1.21-1.44-.52-.36-1.13-.54-1.83-.55Z"/>
        <path class="st2" d="M265.11,379.84c0,.42-.14.76-.42,1.04-.28.28-.62.41-1.04.41-.42,0-.76-.15-1.03-.43-.27-.28-.4-.63-.4-1.05l.09-9.91c0-.42.14-.76.42-1.04.27-.28.62-.41,1.04-.41.42,0,.76.15,1.03.43.27.28.4.63.4,1.05l-.09,9.91ZM263.77,366.89c-.54,0-.93-.1-1.15-.27-.22-.18-.33-.49-.33-.94v-.46c0-.46.13-.78.38-.95.25-.17.63-.25,1.14-.24.56,0,.95.1,1.17.27.22.18.33.49.33.94v.46c0,.46-.13.78-.37.94-.24.17-.63.25-1.18.24Z"/>
        <path class="st2" d="M268.31,368.73l5.69.05c.38,0,.7.13.96.39.25.26.38.58.38.96,0,.37-.13.67-.39.92-.26.25-.58.37-.96.36l-5.69-.05c-.38,0-.7-.13-.96-.39-.25-.26-.38-.58-.37-.96,0-.37.13-.67.39-.92.26-.25.58-.37.96-.36ZM270.91,365.76c.42,0,.75.15,1.02.43.26.28.39.63.39,1.05l-.1,10.68c0,.22.04.41.13.55.09.15.21.25.36.32.15.06.32.1.49.1.19,0,.37-.03.53-.1.16-.07.34-.11.55-.1.22,0,.43.11.61.32.18.21.27.5.27.87,0,.45-.25.81-.74,1.1-.49.28-1.02.42-1.58.42-.34,0-.71-.03-1.12-.09-.41-.06-.79-.2-1.15-.42-.36-.22-.66-.55-.89-1-.24-.45-.35-1.07-.34-1.85l.1-10.8c0-.42.15-.76.43-1.04.28-.28.63-.41,1.05-.41Z"/>
        <path class="st2" d="M277.62,379.43c-.16-.23-.23-.51-.21-.87.02-.35.23-.65.63-.91.26-.16.53-.22.82-.2.29.03.57.18.84.45.46.47.94.83,1.45,1.09.51.26,1.15.4,1.92.4.24-.01.5-.05.79-.1.29-.05.54-.18.76-.38.22-.2.33-.5.33-.92,0-.35-.11-.63-.35-.84-.24-.21-.55-.39-.94-.54-.39-.15-.83-.29-1.3-.42-.49-.15-1-.31-1.52-.49-.52-.18-.99-.41-1.42-.7-.43-.28-.78-.66-1.05-1.13s-.4-1.05-.39-1.76c0-.8.24-1.48.69-2.03.45-.55,1.04-.98,1.75-1.28s1.46-.44,2.25-.43c.5,0,1.01.07,1.56.19.54.13,1.06.32,1.55.59.49.27.91.62,1.24,1.06.17.24.28.53.3.87.03.34-.13.64-.46.91-.24.19-.52.27-.84.24s-.58-.14-.79-.33c-.27-.35-.63-.64-1.08-.85-.45-.21-.98-.32-1.57-.33-.24,0-.5.02-.78.08-.28.05-.53.17-.74.35-.21.18-.32.47-.32.87,0,.37.11.66.35.88.24.22.56.4.97.54s.84.28,1.3.41c.48.13.97.29,1.46.47.49.18.95.42,1.36.71s.75.67,1,1.12c.25.46.37,1.04.37,1.74,0,.82-.25,1.51-.74,2.08-.49.57-1.09,1-1.81,1.29s-1.46.43-2.21.42c-.94,0-1.89-.18-2.83-.52-.94-.34-1.72-.92-2.33-1.76Z"/>
        <path class="st2" d="M309.15,375.31c-.01,1.31-.32,2.46-.91,3.46-.59,1-1.38,1.77-2.37,2.32-.99.55-2.09.82-3.31.81s-2.31-.3-3.29-.87c-.98-.57-1.76-1.36-2.33-2.36-.57-1-.86-2.16-.84-3.48s.32-2.46.91-3.46c.59-1,1.38-1.77,2.38-2.33.99-.56,2.09-.83,3.31-.82s2.31.31,3.29.88c.98.58,1.75,1.37,2.33,2.37.57,1.01.86,2.17.84,3.48ZM306.27,375.29c0-.82-.15-1.53-.47-2.13-.32-.6-.76-1.08-1.31-1.42-.55-.34-1.16-.52-1.83-.52-.67,0-1.28.16-1.84.49-.56.33-1,.79-1.33,1.39-.33.6-.51,1.3-.51,2.12,0,.8.15,1.5.47,2.1.32.6.76,1.08,1.31,1.42s1.16.51,1.83.52c.67,0,1.29-.16,1.84-.49.56-.33,1-.79,1.33-1.39.33-.6.5-1.29.51-2.09Z"/>
        <path class="st2" d="M318.59,369.21c.38,0,.7.13.96.38.25.25.38.57.37.95,0,.38-.13.7-.39.94-.26.25-.58.37-.96.36l-6.36-.06c-.38,0-.7-.13-.96-.38-.25-.25-.38-.57-.38-.95,0-.38.13-.7.39-.94.26-.25.58-.37.96-.36l6.36.06ZM318.38,364.05c.35,0,.7.05,1.03.15.33.1.61.26.84.48.22.22.33.5.33.86,0,.4-.12.71-.36.94-.23.23-.5.34-.81.34-.14,0-.36-.04-.65-.11-.29-.07-.57-.11-.84-.12-.4,0-.71.08-.93.25-.22.17-.37.38-.45.61-.08.23-.12.43-.13.61l-.12,12.26c0,.42-.14.76-.42,1.04-.28.28-.62.41-1.04.41s-.76-.15-1.03-.43c-.27-.28-.4-.63-.4-1.05l.12-12.24c.01-1.14.42-2.09,1.23-2.87.81-.78,2.01-1.16,3.61-1.14Z"/>
        <path class="st2" d="M330.73,365.1c.22,0,.46.06.71.19.25.12.43.28.56.47l5.75,9.03-1.2-.06,6.06-8.87c.31-.43.7-.64,1.18-.64.38,0,.73.14,1.03.42.3.28.45.63.45,1.06l-.13,13.9c0,.42-.14.76-.42,1.04-.28.28-.64.41-1.08.41-.45,0-.81-.15-1.09-.43-.28-.28-.41-.63-.41-1.05l.11-11.3.93.22-4.97,7.42c-.15.17-.33.33-.54.45s-.44.18-.66.16c-.21.01-.42-.04-.64-.17-.21-.13-.39-.28-.54-.46l-4.51-7.29.64-1.27-.12,12.14c0,.42-.13.76-.39,1.04-.26.28-.6.41-1.01.41-.4,0-.73-.15-.98-.43-.25-.28-.38-.63-.37-1.05l.13-13.9c0-.4.16-.74.45-1.03s.66-.43,1.07-.42Z"/>
        <path class="st2" d="M351.2,380.66c0,.42-.14.76-.42,1.04-.28.28-.62.41-1.04.41s-.76-.15-1.03-.43c-.27-.28-.4-.63-.4-1.05l.09-9.91c0-.42.14-.76.42-1.04.27-.28.62-.41,1.04-.41s.76.15,1.03.43c.27.28.4.63.4,1.05l-.09,9.91ZM349.86,367.71c-.54,0-.93-.1-1.15-.27-.22-.18-.33-.49-.33-.94v-.46c0-.46.13-.78.38-.95.25-.17.63-.25,1.14-.24.56,0,.95.1,1.17.28.22.18.33.49.33.94v.46c0,.46-.13.78-.37.94-.24.17-.63.25-1.18.24Z"/>
        <path class="st2" d="M361.12,369.14c1.18.01,2.08.27,2.69.77s1.03,1.17,1.25,1.99c.22.83.33,1.74.32,2.75l-.06,6.14c0,.42-.14.76-.42,1.04-.28.28-.62.41-1.04.41s-.76-.15-1.03-.43c-.27-.28-.4-.63-.4-1.05l.06-6.14c0-.53-.06-1-.19-1.43-.13-.43-.37-.77-.72-1.03-.35-.26-.85-.39-1.51-.4-.64,0-1.18.12-1.62.37-.44.25-.78.59-1.02,1.01s-.36.9-.36,1.42l-.06,6.14c0,.42-.14.76-.42,1.04-.28.28-.62.41-1.04.41s-.76-.15-1.03-.43c-.27-.28-.4-.63-.4-1.05l.09-9.91c0-.42.14-.76.42-1.04.27-.28.62-.41,1.04-.41s.76.15,1.03.43c.27.28.4.63.4,1.05v1.03s-.37-.08-.37-.08c.15-.27.36-.56.63-.87.27-.31.6-.6.97-.87.37-.27.79-.48,1.25-.65.46-.16.97-.24,1.51-.24Z"/>
        <path class="st2" d="M379.12,364.63c.42,0,.76.14,1.03.42.27.27.4.63.4,1.06l-.14,14.83c0,.42-.14.76-.42,1.04s-.62.41-1.04.41c-.42,0-.76-.15-1.03-.43-.27-.28-.4-.63-.4-1.05v-1.18s.54.22.54.22c0,.21-.12.46-.34.75s-.53.58-.92.87-.84.52-1.36.72c-.52.19-1.09.29-1.69.28-1.1-.01-2.1-.3-2.99-.88s-1.59-1.37-2.1-2.37c-.51-1-.76-2.16-.75-3.45.01-1.31.28-2.46.81-3.46.53-1,1.24-1.77,2.12-2.33.88-.56,1.86-.83,2.94-.82.69,0,1.32.12,1.89.33.57.21,1.07.48,1.49.81s.75.65.98.98c.23.33.34.61.34.83l-.87.3.06-6.43c0-.42.14-.76.42-1.04.27-.28.62-.41,1.04-.41ZM374.12,379.94c.7,0,1.32-.16,1.85-.51.53-.35.95-.82,1.25-1.43.3-.6.46-1.28.46-2.04,0-.77-.13-1.46-.42-2.07s-.7-1.09-1.22-1.45c-.53-.36-1.14-.54-1.84-.55-.69,0-1.3.16-1.83.51-.53.35-.95.82-1.25,1.43s-.46,1.29-.46,2.06c0,.75.13,1.43.42,2.04.29.61.7,1.1,1.22,1.45.52.36,1.13.54,1.82.54Z"/>
      </g>
    </g>
    <g>
      <rect class="st1" x="99.5" y="187.82" width="396.73" height="48.76" rx="15.05" ry="15.05" transform="translate(-4.42 6.34) rotate(-1.21)"/>
      <g>
        <path class="st2" d="M129.59,211.43l-4.89,12.32c-.1.31-.27.55-.5.72s-.48.26-.75.27c-.43,0-.75-.1-.97-.34s-.32-.53-.33-.88c0-.14.02-.3.06-.46l5.63-14.49c.12-.32.31-.58.57-.76.26-.18.54-.26.85-.24.29,0,.56.07.81.23.25.16.44.39.56.7l6.24,13.92c.08.21.13.4.13.57.01.43-.12.78-.4,1.04-.27.26-.58.4-.91.41-.29,0-.55-.07-.79-.24-.24-.17-.42-.41-.56-.71l-5.45-11.89.69-.16ZM125.38,220.81l1.25-2.79,6.48-.16.52,2.75-8.25.2Z"/>
        <path class="st2" d="M157.16,207.81c.42.2.67.52.75.97s-.02.86-.32,1.23c-.2.29-.46.46-.79.5s-.66-.02-1-.17c-.39-.17-.8-.29-1.22-.38-.43-.08-.87-.12-1.33-.11-.86.02-1.63.18-2.31.46-.67.29-1.24.69-1.71,1.21s-.82,1.12-1.05,1.81c-.23.69-.34,1.46-.32,2.29.02.98.18,1.82.48,2.53.3.71.7,1.3,1.21,1.77.51.47,1.1.81,1.78,1.02s1.41.31,2.19.29c.43,0,.86-.06,1.29-.15.43-.09.84-.24,1.24-.46.33-.17.66-.23.99-.19.33.04.61.2.84.48.33.39.46.8.38,1.23-.08.43-.31.74-.71.94-.41.22-.83.4-1.27.55s-.88.26-1.32.34c-.45.08-.9.13-1.36.14-1.15.03-2.25-.13-3.29-.47-1.04-.34-1.97-.86-2.8-1.57-.83-.7-1.48-1.58-1.97-2.65-.49-1.07-.75-2.32-.79-3.74-.03-1.23.15-2.37.55-3.42.4-1.05.98-1.96,1.73-2.74.76-.78,1.66-1.39,2.7-1.84,1.05-.45,2.19-.69,3.44-.72.7-.02,1.39.05,2.07.19s1.31.36,1.91.65Z"/>
        <path class="st2" d="M167.02,210.48c1.15-.03,2.03.2,2.64.68.61.48,1.04,1.13,1.28,1.95.24.82.38,1.73.4,2.74l.15,6.14c0,.42-.12.77-.38,1.05-.27.29-.61.43-1.02.44-.42,0-.76-.12-1.04-.39-.28-.27-.42-.62-.43-1.03l-.15-6.14c-.01-.53-.09-1-.23-1.42-.14-.42-.38-.75-.72-1-.34-.25-.83-.36-1.45-.35-.61.02-1.12.16-1.55.42s-.74.61-.95,1.04c-.21.43-.3.91-.29,1.44l.15,6.14c0,.42-.12.77-.38,1.05-.27.29-.61.43-1.02.44-.42.01-.76-.12-1.04-.39-.28-.27-.42-.62-.43-1.03l-.36-14.83c0-.42.12-.77.38-1.05.26-.29.61-.43,1.02-.45.42,0,.76.12,1.04.4.28.27.42.62.43,1.03l.14,5.95-.36-.06c.14-.27.33-.57.58-.89.25-.32.55-.62.92-.9.36-.28.76-.51,1.21-.69s.93-.28,1.46-.29Z"/>
        <path class="st2" d="M184.84,210.05c.42,0,.76.12,1.04.38.28.27.42.61.43,1.05l.25,10.15c0,.42-.12.77-.38,1.05-.26.29-.61.43-1.02.44-.42,0-.76-.12-1.04-.39-.28-.27-.42-.62-.43-1.03l-.03-1.18.53.2c0,.21-.1.46-.32.76-.22.3-.51.6-.89.9-.38.3-.82.55-1.34.76-.51.21-1.08.33-1.68.34-1.1.03-2.11-.23-3.02-.78s-1.64-1.31-2.18-2.3c-.54-.99-.83-2.13-.86-3.42-.03-1.31.2-2.47.7-3.49.5-1.01,1.18-1.81,2.04-2.4.87-.59,1.83-.9,2.91-.92.69-.02,1.32.07,1.9.27.58.19,1.09.45,1.52.75.43.31.77.63,1.01.95s.36.59.37.82l-.86.33-.04-1.75c0-.42.12-.77.38-1.05.26-.29.61-.44,1.02-.45ZM180.26,220.84c.7-.02,1.32-.21,1.83-.57.52-.37.92-.85,1.2-1.47.28-.61.41-1.3.39-2.05-.02-.77-.18-1.45-.49-2.05-.31-.6-.73-1.07-1.27-1.41-.54-.34-1.16-.5-1.86-.48-.69.02-1.29.21-1.81.57-.52.37-.92.85-1.2,1.47-.28.62-.41,1.31-.39,2.07.02.75.18,1.43.49,2.03.31.6.73,1.07,1.27,1.41.54.34,1.15.5,1.84.48Z"/>
        <path class="st2" d="M191.16,222.98c-.42,0-.76-.12-1.04-.39-.28-.27-.42-.62-.43-1.03l-.24-9.91c0-.42.12-.77.38-1.05.27-.29.61-.44,1.02-.45s.76.12,1.04.39c.28.27.42.62.43,1.03l.05,2.25-.21-1.6c.17-.39.39-.73.66-1.04.27-.3.58-.56.93-.77.35-.21.72-.37,1.12-.47.4-.11.8-.16,1.2-.17.48-.01.89.11,1.22.38.33.26.51.58.51.95.01.53-.11.91-.38,1.15-.27.24-.56.36-.88.37-.3,0-.58-.04-.83-.15-.25-.11-.54-.15-.86-.15-.29,0-.58.08-.87.22-.29.14-.56.36-.8.66-.24.29-.43.66-.57,1.08-.14.43-.21.93-.19,1.51l.14,5.69c0,.42-.12.77-.38,1.05-.27.29-.61.43-1.02.44Z"/>
        <path class="st2" d="M210.04,209.43c.42,0,.76.12,1.04.38.28.27.42.61.43,1.05l.25,10.15c0,.42-.12.77-.38,1.05-.26.29-.61.43-1.02.44-.42.01-.76-.12-1.04-.39-.28-.27-.42-.62-.43-1.03l-.03-1.18.53.2c0,.21-.1.46-.32.76-.22.3-.51.6-.89.9-.38.3-.82.55-1.34.76-.51.21-1.08.33-1.68.34-1.1.03-2.11-.23-3.02-.78-.91-.55-1.64-1.31-2.18-2.3-.54-.99-.83-2.13-.86-3.42-.03-1.31.2-2.47.7-3.49.5-1.01,1.17-1.81,2.04-2.4.87-.59,1.84-.9,2.91-.92.69-.02,1.32.07,1.9.27.58.19,1.09.45,1.52.76.43.31.77.62,1.01.95.24.32.36.6.37.82l-.86.33-.04-1.75c0-.42.12-.77.38-1.05.26-.29.61-.43,1.02-.45ZM205.45,220.23c.7-.02,1.32-.21,1.84-.57.52-.36.92-.85,1.2-1.47.28-.61.41-1.3.4-2.05-.02-.77-.18-1.45-.5-2.05-.31-.6-.73-1.07-1.27-1.41-.54-.34-1.16-.5-1.86-.48-.69.02-1.29.21-1.81.57-.52.37-.92.86-1.2,1.47-.28.62-.41,1.31-.39,2.07.02.75.18,1.43.49,2.03.31.6.74,1.07,1.27,1.41.54.34,1.15.5,1.83.48Z"/>
        <path class="st2" d="M220.31,209.18c.91-.02,1.71.05,2.39.23.68.18,1.22.43,1.6.76.38.34.58.74.59,1.22,0,.32-.08.62-.27.91-.18.28-.46.43-.83.44-.26,0-.47-.02-.64-.09s-.32-.16-.45-.27c-.13-.11-.28-.21-.46-.3-.16-.09-.41-.16-.74-.21-.33-.05-.58-.07-.74-.07-.81.02-1.5.21-2.06.58s-.98.85-1.27,1.46c-.29.61-.42,1.3-.4,2.09.02.77.19,1.45.52,2.04.33.59.77,1.06,1.33,1.4.56.34,1.2.5,1.92.48.4,0,.74-.04,1.03-.1.29-.05.53-.13.71-.23.22-.13.42-.27.59-.42.17-.15.43-.23.79-.24.42,0,.74.11.97.37.23.26.35.58.36.96,0,.4-.21.77-.65,1.11-.44.34-1.02.62-1.74.83-.72.22-1.51.34-2.36.36-1.26.03-2.37-.23-3.31-.79-.94-.56-1.68-1.34-2.21-2.34-.53-.99-.81-2.12-.84-3.36-.03-1.31.21-2.47.72-3.49.51-1.01,1.24-1.81,2.17-2.4.94-.59,2.02-.9,3.25-.93Z"/>
        <path class="st2" d="M227.23,209.5l5.69-.14c.38,0,.71.11.97.36s.4.57.41.95c0,.37-.11.68-.36.93-.25.25-.57.39-.95.4l-5.69.14c-.38,0-.71-.11-.97-.36-.26-.25-.4-.57-.41-.95,0-.37.11-.68.36-.93s.57-.39.95-.4ZM229.72,206.43c.42,0,.76.12,1.03.4.27.27.41.62.42,1.03l.26,10.68c0,.22.05.41.15.55.09.14.21.24.37.3.15.06.32.09.49.08.19,0,.37-.04.53-.12.16-.08.34-.12.55-.12.22,0,.43.09.62.3.19.2.29.49.3.86.01.45-.22.82-.7,1.12-.48.3-1,.46-1.56.47-.34,0-.71,0-1.12-.06-.41-.05-.8-.17-1.16-.38-.37-.21-.67-.53-.92-.97-.25-.44-.39-1.05-.41-1.84l-.26-10.8c-.01-.42.12-.77.39-1.05.27-.29.62-.43,1.03-.45Z"/>
        <path class="st2" d="M243.13,221.95c-1.36.03-2.55-.22-3.56-.77-1.01-.54-1.8-1.3-2.36-2.26s-.85-2.06-.88-3.29c-.04-1.44.23-2.67.79-3.7s1.3-1.83,2.23-2.39c.93-.57,1.92-.86,2.98-.89.82-.02,1.59.13,2.33.45.74.32,1.39.76,1.97,1.33.57.57,1.03,1.24,1.38,2,.35.76.53,1.57.55,2.43,0,.38-.15.7-.43.95s-.61.38-1,.38l-9.17.22-.78-2.38,8.81-.21-.52.49-.02-.65c-.04-.46-.22-.88-.52-1.24-.3-.36-.68-.64-1.12-.85-.45-.21-.92-.3-1.41-.29-.48.01-.93.09-1.34.22-.41.14-.77.36-1.06.67-.3.31-.53.72-.69,1.24-.16.52-.24,1.17-.22,1.95.02.86.22,1.59.59,2.18.38.59.85,1.04,1.42,1.33.58.3,1.18.44,1.82.42.59-.01,1.06-.07,1.41-.18.35-.1.63-.23.84-.37.21-.14.41-.26.58-.36.29-.15.55-.23.81-.24.35,0,.65.1.88.34.24.23.36.51.37.83.01.43-.2.83-.64,1.19-.41.36-.98.68-1.73.97-.75.28-1.52.43-2.32.45Z"/>
        <path class="st2" d="M252.68,221.48c-.42,0-.76-.12-1.04-.39-.28-.27-.42-.62-.43-1.03l-.24-9.91c0-.42.12-.77.38-1.05.27-.29.61-.44,1.02-.45s.76.12,1.04.39c.28.27.42.62.43,1.03l.05,2.25-.21-1.6c.17-.39.39-.73.66-1.04s.58-.56.93-.77.72-.37,1.12-.47c.4-.11.8-.16,1.2-.17.48-.01.89.11,1.22.38.33.26.51.58.51.95.01.53-.11.91-.38,1.15-.27.24-.56.36-.88.37-.3,0-.58-.04-.83-.15-.25-.11-.54-.15-.86-.15-.29,0-.58.08-.87.22-.29.14-.56.36-.8.66-.24.29-.43.65-.57,1.08-.14.43-.21.93-.19,1.51l.14,5.69c0,.42-.12.77-.38,1.05-.27.29-.61.43-1.02.44Z"/>
        <path class="st2" d="M275.71,204.12c1.54-.04,2.69.29,3.46,1,.77.7,1.17,1.76,1.21,3.16.02.75-.15,1.42-.5,1.99-.35.58-.89,1.03-1.6,1.36-.71.33-1.6.51-2.65.53l.07-1.08c.5-.01,1.07.04,1.71.16.64.12,1.27.35,1.88.67.61.33,1.12.8,1.52,1.4.41.6.62,1.39.64,2.35.03,1.06-.12,1.92-.45,2.6s-.77,1.21-1.32,1.59c-.55.38-1.14.65-1.78.8-.64.15-1.25.23-1.84.25l-5.97.14c-.42.01-.77-.12-1.05-.39-.29-.27-.44-.62-.45-1.03l-.34-13.87c-.01-.42.12-.77.39-1.05s.62-.43,1.03-.45l6.05-.15ZM275.35,206.96l-4.27.1.3-.39.11,4.34-.29-.21,4.32-.1c.46-.01.88-.17,1.24-.49.36-.31.53-.76.52-1.33-.02-.69-.2-1.18-.55-1.49-.35-.3-.81-.45-1.37-.43ZM275.7,213.53l-4.37.11.21-.2.12,5.06-.25-.23,4.56-.11c.74-.02,1.32-.23,1.74-.63.42-.4.62-1,.6-1.78-.02-.72-.17-1.24-.47-1.55-.3-.31-.64-.5-1.05-.58-.4-.07-.77-.1-1.11-.09Z"/>
        <path class="st2" d="M293.3,207.65c.42,0,.76.12,1.04.39.28.27.42.62.43,1.03l.15,6.09c.04,1.7-.4,3.05-1.32,4.07-.92,1.01-2.27,1.54-4.04,1.59s-3.14-.42-4.1-1.39c-.96-.97-1.46-2.3-1.5-4l-.15-6.09c0-.42.12-.77.38-1.05.27-.29.61-.44,1.02-.45s.76.12,1.04.39c.28.27.42.62.43,1.03l.15,6.09c.02.98.26,1.69.7,2.16.44.46,1.1.68,1.96.66.88-.02,1.53-.27,1.95-.76.42-.48.62-1.21.59-2.19l-.15-6.09c0-.42.12-.77.38-1.05.27-.29.61-.44,1.02-.45Z"/>
        <path class="st2" d="M299.07,205.95c-.54.01-.93-.06-1.16-.24-.23-.17-.35-.48-.36-.93v-.46c-.02-.46.09-.78.34-.96.24-.17.62-.27,1.13-.28.56-.01.95.06,1.18.23.23.17.35.48.36.93v.46c.02.46-.09.78-.33.96-.24.17-.63.27-1.17.28ZM300.84,218.85c0,.42-.12.77-.38,1.05-.27.29-.61.43-1.02.44s-.76-.12-1.04-.39c-.28-.27-.42-.62-.43-1.03l-.24-9.91c0-.42.12-.77.38-1.05.27-.29.61-.44,1.02-.45s.76.12,1.04.39c.28.27.42.62.43,1.03l.24,9.91Z"/>
        <path class="st2" d="M306.91,218.7c0,.42-.12.77-.39,1.05-.27.29-.62.43-1.03.44-.4,0-.74-.12-1.02-.39-.28-.27-.42-.62-.43-1.03l-.36-14.83c0-.42.12-.77.39-1.05.27-.29.62-.43,1.03-.45.42,0,.76.12,1.03.4.27.27.41.62.42,1.03l.36,14.83Z"/>
        <path class="st2" d="M320.15,202.08c.42,0,.76.12,1.04.38.28.26.42.61.43,1.04l.36,14.83c0,.42-.12.77-.38,1.05-.26.29-.61.43-1.02.44-.42.01-.76-.12-1.04-.39-.28-.27-.42-.62-.43-1.03l-.03-1.18.53.2c0,.21-.1.46-.32.76-.22.3-.51.6-.89.9-.38.3-.82.55-1.34.76-.51.21-1.08.33-1.68.34-1.1.03-2.11-.23-3.02-.78-.91-.54-1.64-1.31-2.18-2.3-.54-.99-.83-2.13-.86-3.42-.03-1.31.2-2.47.7-3.49.5-1.01,1.18-1.81,2.04-2.4.87-.59,1.84-.9,2.91-.92.69-.02,1.32.07,1.9.27.58.19,1.09.45,1.52.76.43.31.77.62,1.01.95s.36.6.37.82l-.86.33-.16-6.43c0-.42.12-.77.38-1.05.26-.29.61-.43,1.02-.45ZM315.67,217.55c.7-.02,1.32-.21,1.84-.57s.92-.85,1.2-1.47c.28-.61.41-1.3.4-2.05-.02-.77-.18-1.45-.5-2.05-.31-.6-.73-1.07-1.27-1.41-.54-.34-1.16-.5-1.86-.48-.69.02-1.29.21-1.81.57-.52.37-.92.86-1.2,1.47-.28.62-.41,1.31-.39,2.07.02.75.18,1.43.49,2.03.31.6.74,1.07,1.27,1.41s1.15.5,1.83.48Z"/>
        <path class="st2" d="M326.03,205.3c-.54.01-.93-.06-1.16-.24-.23-.17-.35-.48-.36-.93v-.46c-.02-.46.09-.78.34-.96.24-.17.62-.27,1.13-.28.56-.01.95.06,1.18.23.23.17.35.48.36.93v.46c.02.46-.09.78-.33.96-.24.17-.63.27-1.17.28ZM327.81,218.19c0,.42-.12.77-.38,1.05-.27.29-.61.43-1.02.44-.42.01-.76-.12-1.04-.39-.28-.27-.42-.62-.43-1.03l-.24-9.91c0-.42.12-.77.38-1.05.27-.29.61-.43,1.02-.45.42,0,.76.12,1.04.4.28.27.42.62.43,1.03l.24,9.91Z"/>
        <path class="st2" d="M337.34,206.34c1.18-.03,2.09.2,2.72.68.63.48,1.07,1.13,1.32,1.95.25.82.39,1.73.41,2.74l.15,6.14c0,.42-.12.77-.38,1.05-.27.29-.61.43-1.02.44-.42,0-.76-.12-1.04-.39-.28-.27-.42-.62-.43-1.03l-.15-6.14c-.01-.53-.09-1-.24-1.42-.15-.42-.4-.75-.76-1s-.87-.36-1.52-.35c-.64.02-1.18.16-1.61.42-.43.27-.76.61-.98,1.04s-.33.91-.31,1.44l.15,6.14c0,.42-.12.77-.38,1.05-.27.29-.61.43-1.02.44-.42.01-.76-.12-1.04-.39-.28-.27-.42-.62-.43-1.03l-.24-9.91c0-.42.12-.77.38-1.05s.61-.43,1.02-.45c.42,0,.76.12,1.04.4.28.27.42.62.43,1.03l.03,1.03-.36-.06c.14-.27.34-.57.6-.89s.58-.62.94-.9c.36-.28.77-.51,1.23-.69.46-.18.96-.28,1.51-.29Z"/>
        <path class="st2" d="M350.11,206.03c.67-.02,1.29.07,1.86.27.56.19,1.05.45,1.47.76.42.31.74.63.98.95s.36.59.37.82l-.62.33-.04-1.75c0-.42.12-.77.38-1.05.26-.29.61-.44,1.02-.45.42,0,.76.12,1.04.38.28.27.42.61.43,1.05l.26,10.68c.03,1.39-.24,2.51-.82,3.37-.58.85-1.35,1.48-2.32,1.88s-2.01.61-3.13.64c-.32,0-.74-.02-1.25-.09-.51-.07-1-.15-1.47-.25-.47-.1-.82-.2-1.06-.29-.49-.2-.82-.45-1.02-.76-.19-.31-.24-.64-.13-.99.13-.47.36-.79.67-.96.32-.17.65-.2,1.01-.08.16.04.43.13.8.27s.78.26,1.22.37c.44.11.83.16,1.17.15,1.2-.03,2.08-.29,2.65-.79s.84-1.17.82-2.01l-.05-2.09.29.21c0,.21-.1.46-.31.76-.21.3-.5.6-.87.9-.37.3-.81.55-1.31.76-.51.21-1.05.33-1.62.34-1.14.03-2.17-.23-3.09-.78s-1.67-1.31-2.22-2.3c-.55-.99-.84-2.13-.88-3.42-.03-1.31.2-2.47.71-3.49.5-1.01,1.2-1.81,2.08-2.4.88-.59,1.88-.9,2.98-.93ZM350.62,208.66c-.72.02-1.35.21-1.88.57s-.95.86-1.24,1.47c-.29.62-.42,1.31-.41,2.07.02.75.19,1.43.5,2.03.32.6.76,1.07,1.31,1.41.55.34,1.19.5,1.91.48.74-.02,1.37-.21,1.91-.57.54-.37.95-.85,1.24-1.47.29-.61.42-1.3.41-2.05-.02-.77-.19-1.45-.51-2.05-.32-.6-.75-1.07-1.31-1.41-.55-.34-1.2-.5-1.93-.48Z"/>
        <path class="st2" d="M373.89,201.73c.83-.02,1.62.2,2.36.66.74.46,1.34,1.1,1.81,1.9.47.8.71,1.71.74,2.72.02.99-.18,1.9-.61,2.73-.43.83-1,1.49-1.72,2-.72.51-1.49.77-2.32.79l-4.42.11.23-.44.12,4.97c0,.42-.11.77-.36,1.05-.25.29-.58.43-1,.44-.4,0-.73-.12-.99-.4s-.4-.62-.41-1.03l-.34-13.87c-.01-.42.12-.77.39-1.05s.62-.43,1.03-.45l5.47-.13ZM374.08,209.79c.3,0,.6-.14.88-.41.28-.26.51-.6.7-1.01.18-.41.27-.84.26-1.29-.01-.46-.12-.89-.32-1.29-.2-.39-.45-.71-.74-.95-.29-.24-.59-.36-.9-.35l-4.46.11.28-.44.15,6.12-.27-.38,4.44-.11Z"/>
        <path class="st2" d="M383.03,218.32c-.42,0-.76-.12-1.04-.39-.28-.27-.42-.62-.43-1.03l-.24-9.91c0-.42.12-.77.38-1.05.27-.29.61-.44,1.02-.45s.76.12,1.04.39c.28.27.42.62.43,1.03l.05,2.25-.21-1.6c.17-.39.39-.73.66-1.04.27-.3.58-.56.93-.77.35-.21.72-.37,1.12-.47.4-.11.8-.16,1.2-.17.48-.01.89.11,1.22.38s.51.58.51.95c.01.53-.11.91-.38,1.15-.27.24-.56.36-.88.37-.3,0-.58-.04-.83-.15-.25-.1-.54-.15-.86-.15-.29,0-.58.08-.87.22-.29.14-.56.36-.8.66-.24.29-.43.65-.57,1.08-.14.43-.21.93-.19,1.5l.14,5.69c0,.42-.12.77-.38,1.05-.27.29-.61.43-1.02.44Z"/>
        <path class="st2" d="M403.77,211.4c.03,1.31-.23,2.48-.79,3.49-.56,1.02-1.32,1.81-2.29,2.4-.97.58-2.06.89-3.28.92-1.22.03-2.32-.22-3.32-.76-1-.54-1.8-1.3-2.41-2.28-.61-.98-.93-2.13-.96-3.45-.03-1.31.23-2.47.79-3.49.56-1.01,1.32-1.82,2.29-2.41.97-.59,2.06-.9,3.28-.93,1.22-.03,2.32.23,3.32.77,1,.54,1.8,1.31,2.41,2.29.61.99.93,2.13.96,3.45ZM400.89,211.47c-.02-.81-.2-1.52-.54-2.11-.34-.59-.79-1.05-1.35-1.37-.56-.32-1.18-.48-1.85-.46-.67.02-1.28.2-1.82.55-.54.35-.97.83-1.29,1.44-.31.61-.46,1.32-.44,2.13.02.8.2,1.5.54,2.09.34.59.79,1.05,1.35,1.37.56.32,1.17.48,1.85.46.67-.02,1.28-.2,1.82-.55.54-.35.97-.83,1.28-1.43.31-.61.46-1.31.44-2.11Z"/>
        <path class="st2" d="M411.46,204.54c.67-.02,1.29.07,1.86.27.56.19,1.05.45,1.47.76.42.31.74.63.98.95.24.32.36.6.37.82l-.62.33-.04-1.75c0-.42.12-.77.38-1.05.26-.29.61-.43,1.02-.45.42,0,.76.12,1.04.38.28.27.42.61.43,1.05l.26,10.68c.03,1.39-.24,2.51-.82,3.37-.58.85-1.35,1.48-2.32,1.88-.97.4-2.01.61-3.13.64-.32,0-.74-.02-1.25-.09s-1-.15-1.47-.25c-.47-.1-.82-.2-1.06-.29-.49-.2-.82-.45-1.01-.76-.19-.31-.24-.64-.13-.99.13-.47.36-.79.67-.96s.65-.21,1.01-.08c.16.04.43.13.8.27.37.13.78.26,1.22.37.44.11.83.16,1.17.15,1.2-.03,2.08-.29,2.65-.78.56-.5.84-1.17.82-2.01l-.05-2.09.29.21c0,.21-.1.46-.31.76-.21.3-.5.6-.87.9-.37.3-.81.55-1.31.76-.51.21-1.05.33-1.62.34-1.14.03-2.17-.23-3.09-.78-.93-.54-1.67-1.31-2.22-2.3-.55-.99-.84-2.13-.87-3.42-.03-1.31.2-2.47.71-3.49.5-1.01,1.2-1.81,2.08-2.4.88-.59,1.88-.9,2.98-.93ZM411.98,207.17c-.72.02-1.35.21-1.88.57-.54.37-.95.86-1.24,1.47-.29.62-.42,1.31-.41,2.07.02.75.19,1.43.5,2.03.32.6.75,1.07,1.31,1.41.55.34,1.19.5,1.91.48.74-.02,1.37-.21,1.91-.57.54-.36.95-.85,1.24-1.47.29-.61.42-1.3.41-2.05-.02-.77-.19-1.45-.51-2.05-.32-.6-.75-1.07-1.31-1.41-.55-.34-1.2-.5-1.93-.48Z"/>
        <path class="st2" d="M423.19,217.34c-.42.01-.76-.12-1.04-.39-.28-.27-.42-.62-.43-1.03l-.24-9.91c0-.42.12-.77.38-1.05s.61-.43,1.02-.45c.42,0,.76.12,1.04.4.28.27.42.62.43,1.03l.05,2.25-.21-1.6c.17-.39.39-.73.66-1.04.27-.3.58-.56.93-.77.35-.21.72-.37,1.12-.47.4-.11.8-.16,1.2-.17.48-.01.89.11,1.22.38s.51.58.51.95c.01.53-.11.91-.38,1.15s-.56.36-.88.37c-.3,0-.58-.04-.83-.15-.25-.11-.54-.15-.86-.15-.29,0-.58.08-.87.22-.29.14-.56.36-.8.66-.24.29-.43.65-.57,1.08-.14.43-.21.93-.19,1.5l.14,5.69c0,.42-.12.77-.38,1.05-.27.29-.61.43-1.02.44Z"/>
        <path class="st2" d="M442.07,203.8c.42-.01.76.12,1.04.38.28.27.42.61.43,1.05l.25,10.15c0,.42-.12.77-.38,1.05-.26.29-.6.43-1.02.44-.42,0-.76-.12-1.04-.39-.28-.27-.42-.62-.43-1.03l-.03-1.18.53.2c0,.21-.1.46-.32.76-.22.3-.51.6-.89.9-.38.3-.82.55-1.34.76-.51.21-1.08.33-1.68.34-1.1.03-2.11-.23-3.02-.78-.91-.55-1.64-1.31-2.18-2.3-.54-.99-.83-2.13-.86-3.42-.03-1.31.2-2.47.7-3.49.5-1.01,1.17-1.81,2.04-2.4s1.84-.9,2.91-.92c.69-.02,1.32.07,1.9.27.58.19,1.09.45,1.52.75.43.31.77.63,1.01.95s.36.59.37.82l-.86.33-.04-1.75c0-.42.12-.77.38-1.05.26-.29.61-.43,1.02-.44ZM437.48,214.59c.7-.02,1.32-.21,1.84-.57.52-.36.92-.85,1.2-1.47.28-.62.41-1.3.4-2.05-.02-.77-.18-1.45-.5-2.05-.31-.6-.73-1.07-1.27-1.41-.54-.34-1.16-.5-1.86-.48-.69.02-1.29.21-1.81.57-.52.37-.92.85-1.2,1.47-.28.62-.41,1.31-.39,2.07.02.75.18,1.43.49,2.03.31.6.74,1.07,1.27,1.41s1.15.5,1.83.48Z"/>
        <path class="st2" d="M453.37,203.52c1.28-.03,2.23.25,2.85.85.62.6,1.04,1.39,1.26,2.36l-.41-.21.18-.39c.18-.37.47-.77.86-1.21.39-.43.86-.81,1.43-1.12.56-.31,1.19-.47,1.9-.49,1.15-.03,2.03.2,2.64.68.61.48,1.04,1.13,1.29,1.95.24.82.38,1.73.4,2.74l.15,6.14c0,.42-.12.77-.38,1.05-.27.29-.61.43-1.02.44-.42,0-.76-.12-1.04-.39-.28-.27-.42-.62-.43-1.03l-.15-6.14c-.01-.53-.09-1-.23-1.42-.14-.42-.38-.75-.72-1-.34-.25-.83-.36-1.45-.35-.61.01-1.12.16-1.55.42-.43.27-.74.61-.95,1.04-.21.43-.3.91-.29,1.44l.15,6.14c0,.42-.12.77-.38,1.05-.26.29-.61.43-1.02.44-.42.01-.76-.12-1.04-.39-.28-.27-.42-.62-.43-1.03l-.15-6.14c-.01-.53-.09-1-.23-1.42-.14-.42-.38-.75-.72-1s-.83-.36-1.45-.35c-.61.01-1.12.16-1.55.42-.43.27-.74.61-.95,1.04-.21.43-.3.91-.29,1.44l.15,6.14c0,.42-.12.77-.38,1.05-.27.29-.61.43-1.02.44-.42,0-.76-.12-1.04-.39s-.42-.62-.43-1.03l-.24-9.91c0-.42.12-.77.38-1.05.27-.29.61-.43,1.02-.44.42-.01.76.12,1.04.39.28.27.42.62.43,1.03l.03,1.03-.36-.06c.14-.27.33-.57.58-.89.25-.32.55-.62.92-.9.36-.28.76-.51,1.21-.69s.93-.27,1.46-.29Z"/>
      </g>
    </g>
  </g>
</svg>