<?xml version="1.0" encoding="UTF-8"?>
<svg id="Layer_1" xmlns="http://www.w3.org/2000/svg" version="1.1" viewBox="0 0 595.72 679.11">
  <!-- Generator: Adobe Illustrator 29.7.1, SVG Export Plug-In . SVG Version: 2.1.1 Build 8)  -->
  <defs>
    <style>
      .st0 {
        fill: #523cac;
      }

      .st1 {
        fill: #adc716;
      }

      .st2 {
        fill: #fff7f0;
      }

      .st3 {
        fill: #33c5b5;
      }

      .st4 {
        fill: #e44c17;
      }

      .st5 {
        fill: #f7008d;
      }

      .st6 {
        fill: #ecaa19;
      }

      .st7 {
        fill: none;
        stroke: #ecaa19;
        stroke-miterlimit: 10;
        stroke-width: 2.34px;
      }
    </style>
  </defs>
  <g>
    <rect class="st2" x="59.09" y="66.57" width="477.53" height="545.97" rx="49.65" ry="49.65"/>
    <rect class="st7" x="59.09" y="66.57" width="477.53" height="545.97" rx="49.65" ry="49.65"/>
  </g>
  <g>
    <path class="st1" d="M377.32,496.1c-.29,8.74-3.21,17.41-8.49,24.39-11.07,14.62-30.07,20.44-47.96,24.49-20.08,4.55-41.03,7.95-61.16,3.61-20.13-4.34-39.4-17.95-45.1-37.74-5.5-19.11,3.01-40.53,18.09-53.49,15.08-12.96,35.63-18.25,55.51-18.03,29.36.33,75.68,9.52,86.86,41.64,1.69,4.85,2.42,10,2.25,15.12Z"/>
    <path class="st3" d="M361.36,175.5c.07.51.13,1.01.19,1.5,1.64,13.73-.22,28.2-7.32,40.07-7.1,11.86-19.93,20.68-33.76,20.96-13.1.27-25.73-7.19-33.18-17.97-7.44-10.78-10-24.48-8.6-37.51,2.37-21.95,14.88-49.74,39.22-53.56,10.56-1.66,23.03,1.11,30.71,9.13,7.88,8.24,11.26,25.87,12.74,37.39Z"/>
    <path class="st0" d="M354.18,285.56c.14,2.16.06,4.33-.27,6.48-2.49,16.24-18.42,27.59-34.55,30.75-14.43,2.83-30.33.3-41.77-8.94-14.83-11.98-17.35-31.76-8.53-48.05,8.56-15.8,25.38-22.97,42.89-20.8,12.98,1.6,25.24,8.49,33.35,18.75,4.94,6.24,8.37,13.93,8.87,21.8Z"/>
    <path class="st6" d="M351.34,379.09c-.83,13.82-5.95,27.63-15.9,37.22-10.66,10.27-26.51,14.84-40.99,11.82-11.26-2.34-21.45-9.21-28.08-18.56-8.01-11.29-6.67-24.84-4.82-37.91,3.22-22.74,20.56-41.14,44-42.92,14-1.06,28.57,4.94,36.97,16.19,6.69,8.96,9.19,20.52,8.93,31.7-.02.82-.05,1.64-.1,2.46Z"/>
    <rect class="st5" x="321.11" y="147.75" width="6.67" height="37.96" rx="3.33" ry="3.33" transform="translate(-22.22 53.21) rotate(-9.07)"/>
    <path class="st5" d="M312.15,162.06c.02,1.21-.48,2.43-1.47,3.16-1.15.85-2.82.92-4.04.17-1.22-.75-1.91-2.27-1.67-3.68.42-2.49,3.86-4.19,5.91-2.47.83.7,1.25,1.75,1.27,2.81Z"/>
    <path class="st5" d="M337.9,160.02c.08,1.17-.43,2.35-1.79,3.04-1.58.8-3.75.08-4.55-1.5-2.22-4.4,5.97-7.12,6.34-1.54Z"/>
    <path class="st1" d="M315.75,292.2l-1.53.09c-1.41.08-2.63-1-2.71-2.41l-.35-17.77c-.08-1.41,1-2.63,2.41-2.71l.83-.09c1.41-.08,1.92,1,2.01,2.41l1.76,17.77c.08,1.41-1,2.63-2.41,2.71Z"/>
    <path class="st1" d="M301.56,274.3c-.1,1.21-.72,2.37-1.77,3-1.23.73-2.9.64-4.04-.23s-1.68-2.45-1.3-3.83c.67-2.44,4.25-3.79,6.12-1.87.76.78,1.07,1.87.98,2.92Z"/>
    <path class="st1" d="M333.02,276.07c-.04,1.17-.66,2.3-2.08,2.85-1.66.64-3.74-.29-4.38-1.94-1.77-4.6,6.65-6.49,6.46-.9Z"/>
    <path class="st4" d="M305.99,472.43l-1.53.09c-1.41.08-2.63-1-2.71-2.41l-.35-17.77c-.08-1.41,1-2.63,2.41-2.71l.83-.09c1.41-.08,1.92,1,2.01,2.41l1.76,17.77c.08,1.41-1,2.63-2.41,2.71Z"/>
    <path class="st4" d="M280.42,452.16c-.1,1.21-.72,2.37-1.77,3-1.23.73-2.9.64-4.04-.23s-1.68-2.45-1.3-3.83c.67-2.44,4.25-3.79,6.12-1.87.76.78,1.07,1.87.98,2.92Z"/>
    <path class="st4" d="M333.02,458.36c-.04,1.17-.66,2.3-2.08,2.85-1.66.64-3.74-.29-4.38-1.94-1.77-4.6,6.65-6.49,6.46-.9Z"/>
    <path class="st0" d="M303.24,392.74l1.53.1c1.41.09,2.49,1.32,2.4,2.72l-1.83,17.68c-.09,1.41-1.32,2.49-2.72,2.4h-.83c-1.41-.1-1.79-1.24-1.7-2.65l.43-17.85c.09-1.41,1.32-2.49,2.72-2.4Z"/>
    <path class="st0" d="M323.37,408.66c-.1,1.21-.72,2.37-1.77,3-1.23.73-2.9.64-4.04-.23-1.14-.87-1.68-2.45-1.3-3.83.67-2.44,4.25-3.79,6.12-1.87.76.78,1.07,1.87.98,2.92Z"/>
    <path class="st0" d="M290.56,406.55c-.04,1.17-.66,2.3-2.08,2.85-1.66.64-3.74-.29-4.38-1.94-1.77-4.6,6.65-6.49,6.46-.9Z"/>
    <path class="st4" d="M263.17,476.06c-2.57-2.2-4.49-4.36-3.32-5.18,1.02-.71,2.31.14,3.11.75,4.16,3.19,8.74,6.23,13.24,8.94,4.19,2.53,8.2,4.9,12.98,6.07,6.63,1.62,13.55,1.89,20.32,1.3,3.35-.29,6.68-.8,9.97-1.49,1.43-.3,7.23-2.77,7.95-.73.18.52-.05,1.11-.43,1.5s-.9.62-1.41.83c-12.17,5.12-27.47,6.86-39.85,1.47-4.97-2.16-10.07-4.7-14.72-7.67-.84-.53-4.8-3.2-7.84-5.8Z"/>
    <path class="st1" d="M161.79,503.9c-11.37-18.31,3.62-200.54,56.66-287.49.31-.5-1.16-4.4-1.28-5.04-.59-3.17-.76-6.45-.77-9.68-.03-6.75.94-13.51,2.89-19.98.65-2.14,1.76-4.57,3.96-4.98,1.61-.3,3.26.73,4.06,2.16,1.34,2.36.76,5.88.64,8.48-.1,2.16-.8,4.44-1.18,6.57,0,1.55-.6,3.31-.87,4.84-.3,1.67-.6,3.34-.9,5-.25,1.37-.37,2.76-.46,4.15-.05.7-.09,1.4-.13,2.1-.04.64-.13,1.29-.13,1.93,0,.22-.04.95.32.96.32.01.46-.49.55-.71.17-.41.26-.88.38-1.31.37-1.37.68-2.75,1.05-4.12.35-1.33.71-2.65,1.06-3.98,1.18-4.44,2.03-9.1,4.01-13.23,1.24-2.58,2.8-5.02,4.66-7.19,3.47-4.03,8.04-7,13.22-8.29.63-.16,1.9.87,2.28,1.25,1.5,1.53,1.01,3.69.1,5.4-.98,1.84-2.44,3.47-3.91,4.94-1.46,1.46-3.29,2.56-4.76,4.06-1.54,1.57-2.68,3.51-3.68,5.45-1.11,2.18-2.03,4.46-2.84,6.77-.69,1.97-1.29,3.98-1.77,6.02-.16.69-.31,1.38-.41,2.08-.04.27-.2.86-.06,1.12.03.05.03.08.07.12.23-.22.32-.53.44-.82l.48-1.15c.73-1.73,1.47-3.44,2.38-5.09.9-1.63,1.88-3.21,2.92-4.75.1-.15.21-.31.31-.46,2.54-3.73,5.51-6.97,8.63-10.19,2.92-3.02,6.67-5.17,10.86-5.73,3.15-.43,3.11,4.04,2.35,6.01-1.13,2.89-4.11,4.02-6.38,5.87-2.58,2.09-4.9,4.49-7.04,7.02-1.6,1.89-3.44,3.66-4.77,5.75-1.31,2.05-2.4,4.24-3.24,6.53-.26.72-.5,1.44-.72,2.17-.19.64-.52,1.31-.41,1.99,0,.05.81-.52.87-.58.31-.29.6-.59.91-.88.63-.58,1.29-1.13,1.98-1.65,3.04-2.31,6.65-4.26,10.34-5.27,1.06-.29,2.14-.5,3.23-.59.51-.04,1.02-.04,1.53.02,1.82.23,3.66,1.5,3.92,3.32.22,1.59-.76,3.09-1.85,4.27-2.67,2.9-6.23,4.63-9.71,6.36s-7.03,3.21-10.65,4.56c-2.51.94-5.05,1.8-7.61,2.61,0,0-25.76,48.64-32.77,186.51-1.18,23.29,7.68,65.41-.38,85.11-8.29,20.27-38.38,1.65-38.38,1.65"/>
    <path class="st1" d="M433.57,510.29c5.68-6.4,10.07-196.81-23.47-292.98-.07-.21.84-1.48.94-1.68.84-1.64,1.55-3.35,2.17-5.09,2.09-5.86,3.33-12.27,3.5-18.49.08-3.07-.14-6.15-.68-9.18-.28-1.58-.71-3.26-1.95-4.27-1.13-.92-2.82-.96-4.08-.29-1.64.86-1.72,2.09-2.09,3.72-.5,2.23-.88,4.49-1.13,6.76-.39,3.51-.17,7.05-.18,10.57,0,3.15-.39,6.2-.89,9.31-.09.58-.25,3.51-.87,3.81-.59.28-.55-2.53-.57-2.92-.03-.82-.04-1.65-.05-2.47,0,0-.06-5.08-.63-14.19-.57-9.07-5.65-18.18-13.57-22.76-.63-.37-1.31-.71-2.04-.76-3.45-.25-3.93,4.63-3.06,6.88.72,1.86,2.06,3.39,3.27,4.97,2.92,3.82,5.22,8.12,6.79,12.67,1.58,4.59,1.27,10.27.56,15,.2-1.32-.88-3.61-1.22-4.86-.83-3.06-1.76-6.11-2.88-9.07-2.15-5.69-5.48-10.92-9.72-15.28-1.76-1.8-3.41-2.94-5.79-3.8-.99-.36-2.32.27-2.9,1.05-.82,1.12-.74,2.72-.58,4.02.28,2.23,1.15,3.48,2.76,5.03,3.96,3.82,6.8,8.64,9.13,13.58,1.08,2.28,2.4,4.73,2.87,7.2.5,2.64.91,5.26,1.1,7.95,0,0-6.44-9.68-15.49-12.55-2.48-.79-5.68.43-5.84,3.19-.15,2.57,2.34,5.29,3.92,7.15,1.92,2.27,4.17,4.26,6.66,5.89,4.98,3.26,9.81,6.73,15.02,9.69,0,0,9.52,44.38,5.86,179.93.37,12.54.54,25.1.59,37.65.04,9.16-.42,18.35-.26,27.5.15,8.53-1.26,17.18-2.16,25.7-.15,1.45-.3,2.96.21,4.33.62,1.66,2.15,2.85,3.8,3.48,5.91,2.27,13.1,2.31,19.36,2.86,4.52.4,9.05.66,13.59.77"/>
  </g>
</svg>