<?xml version="1.0" encoding="UTF-8"?>
<svg id="Layer_1" xmlns="http://www.w3.org/2000/svg" version="1.1" viewBox="0 0 595.72 679.11">
  <!-- Generator: Adobe Illustrator 29.7.1, SVG Export Plug-In . SVG Version: 2.1.1 Build 8)  -->
  <defs>
    <style>
      .st0 {
        fill: #523cac;
      }

      .st1 {
        fill: none;
        stroke: #f7008d;
        stroke-miterlimit: 10;
        stroke-width: 2.34px;
      }

      .st2 {
        fill: #fff7f0;
      }

      .st3 {
        fill: #f7008d;
      }

      .st4 {
        fill: #05d4bd;
      }

      .st5 {
        fill: #f9a700;
      }
    </style>
  </defs>
  <g>
    <rect class="st2" x="58.59" y="66.57" width="478.53" height="545.97" rx="49.65" ry="49.65"/>
    <rect class="st1" x="58.59" y="66.57" width="478.53" height="545.97" rx="49.65" ry="49.65"/>
  </g>
  <g>
    <path class="st4" d="M480.87,574.89c9.63,0,16.04-10.05,11.88-18.73-33.05-68.99-107.87-117.13-194.89-117.13s-161.85,48.15-194.89,117.13c-4.16,8.68,2.25,18.73,11.88,18.73h366.02Z"/>
    <path class="st3" d="M196.49,358.49c-21.43,2.63-29.92,29-14.21,43.81,31.56,29.76,77.5,45.82,126.23,39.83,48.73-5.99,89.42-32.69,112.83-69.21,11.65-18.17-2.97-41.7-24.39-39.06l-200.46,24.64Z"/>
    <circle class="st0" cx="271.26" cy="220.79" r="33.4"/>
    <ellipse class="st5" cx="295.01" cy="300.19" rx="44.53" ry="95.73" transform="translate(-34.55 561.99) rotate(-83.96)"/>
    <path class="st2" d="M272.02,383.12c4.96,6.01,13.1,9.27,20.83,8.06,3.73-.59,7.38-2.49,9.41-5.78s2.23-7.56.02-10.68c-.78-1.1-2.18-1.62-3.42-.9-1.09.64-1.68,2.31-.9,3.42,1.35,1.9,1.04,4.42-.41,6.21-1.62,2-4.45,2.83-6.92,2.96-5.83.32-11.39-2.38-15.07-6.84-.86-1.04-2.65-.89-3.54,0-1.03,1.03-.86,2.49,0,3.54h0Z"/>
    <path class="st2" d="M312.45,376.3c3.36,5.76,10.5,8.88,17,7.26s11.42-8.07,11.5-14.81c.03-2.51-3.86-2.51-3.89,0-.06,5.06-3.69,9.83-8.64,11.06s-10.13-1.23-12.61-5.48c-1.26-2.16-4.63-.21-3.36,1.96h0Z"/>
    <path class="st2" d="M297.89,399.87c3.36,5.52,9.93,8.54,16.31,7.43,6.05-1.06,11.14-6.15,12.42-12.11.28-1.32-.39-2.7-1.75-3.08-1.25-.34-2.79.42-3.08,1.75-.91,4.26-4.27,7.73-8.59,8.56s-8.79-1.44-11-5.07c-1.67-2.75-6-.24-4.32,2.52h0Z"/>
  </g>
</svg>