<?xml version="1.0" encoding="UTF-8"?>
<svg id="Layer_1" xmlns="http://www.w3.org/2000/svg" version="1.1" viewBox="0 0 595.72 679.11">
  <!-- Generator: Adobe Illustrator 29.7.1, SVG Export Plug-In . SVG Version: 2.1.1 Build 8)  -->
  <defs>
    <style>
      .st0 {
        fill: #523cac;
      }

      .st1 {
        fill: #fff7f0;
      }

      .st2 {
        fill: none;
        stroke: #33c5b5;
        stroke-miterlimit: 10;
        stroke-width: 2.34px;
      }
    </style>
  </defs>
  <g>
    <rect class="st1" x="59.09" y="66.57" width="477.53" height="545.97" rx="49.65" ry="49.65"/>
    <rect class="st2" x="59.09" y="66.57" width="477.53" height="545.97" rx="49.65" ry="49.65"/>
  </g>
  <g>
    <path class="st0" d="M285.88,390.22c0,14.61.2,29.23.36,43.84.09,7.87.17,15.75.24,23.62.03,3.56.06,7.11.08,10.67.02,3.15.22,6.38.03,9.53-.07,1.12-1.14,1.24-2.07,1.53-1.3.41-2.64.83-4.01.97-1.97.2-4.5-.26-5.49-2.22s.72-4.01,2.46-4.82c2.45-1.14,5.47-.47,7.99.03,1.97.39,2.82-2.64.83-3.03-4.79-.94-10.44-1.51-13.59,3.07-2.76,4.01.03,8.67,4.32,9.85,2.45.67,5.06.16,7.44-.54,2.09-.62,4.59-1.26,5.13-3.7.38-1.7.12-3.7.11-5.44s-.01-3.48-.02-5.22c-.1-17.38-.34-34.75-.51-52.13-.08-8.67-.16-17.34-.17-26,0-2.02-3.14-2.02-3.14,0h0Z"/>
    <path class="st0" d="M325.89,390.96c-1.29,18.95.23,37.97.83,56.92.29,9.25.43,18.52-.12,27.77-.11,1.91-.51,4.21.93,5.75,1.54,1.64,4.34,1.64,6.41,1.83,2.63.25,5.31.31,7.94.08,1.73-.15,3.55-.52,5.01-1.52,1.66-1.14,2.62-3.09,2.09-5.1s-2.39-3.37-4.23-4.16c-2.34-1.01-4.94-1.42-7.45-1.74-2.85-.36-5.71-.42-8.57-.19-2,.16-2.02,3.3,0,3.14,4.48-.36,9.04-.04,13.39,1.17,1.27.36,3.11.99,3.72,2.28s-.76,2.17-1.83,2.53c-1.73.59-3.63.56-5.44.57-2.37,0-4.77-.12-7.11-.52-.76-.13-1.68-.18-1.85-1.07s.05-1.96.11-2.86c.12-1.95.2-3.91.26-5.86.53-17.07-.74-34.14-1.24-51.19-.27-9.28-.36-18.58.27-27.85.14-2.02-3-2.01-3.14,0h0Z"/>
    <path class="st0" d="M173.02,368.26c-.32-23.02,6.54-45.72,18.58-65.27s29.22-35.96,49.62-46.53c10.33-5.35,21.57-9.3,33.11-10.92s24.13-.97,34.74,4.36c23.18,11.65,26.95,41.71,18.71,64-4.16,11.26-11.7,21.5-22.08,27.73-9.58,5.75-21.52,7.47-32.36,4.78-10.31-2.56-19.54-9.36-23.41-19.47-3.49-9.13-3.05-19.96,1.88-28.49,2.59-4.47,6.36-7.97,10.99-10.26,6.07-3,12.99-3.81,19.68-4.02s13.5-.26,19.67,2.17c5.76,2.27,9.66,7.08,11.96,12.7s3.41,12.33,4.21,18.6c.94,7.35,1.36,14.81.74,22.21-1.06,12.76-5.62,25.32-14.93,34.38-8.04,7.83-19.15,11.97-30.26,9.16-10.17-2.57-19.95-11.02-19.71-22.27.07-3.33,1.29-6.34,3.63-8.71,2.13-2.15,4.78-3.8,7.4-5.29,4.79-2.72,9.97-4.69,15.33-5.95,10.75-2.52,22.15-2.09,32.73,1s20.43,8.93,27.77,17.24c1.99,2.26,4.02,4.97,4.22,8.09.13,2.06-.58,4.04-1.87,5.64-2.87,3.55-7.79,5.25-12.25,4.98-5.35-.32-9.84-4.26-12.79-8.46-3.44-4.92-5.48-10.63-7.19-16.34-4.39-14.65-7.13-29.79-8.12-45.06-.48-7.47-.63-15-.18-22.47s1.56-14.35,4.18-21.06c4.42-11.31,13.55-20.37,24.49-25.47,11.76-5.48,25.39-5.74,37.63-1.69,6.08,2.01,12.38,5.07,17.1,9.48,4.03,3.76,8.26,10.27,4.19,15.51-1.77,2.28-4.56,3.64-7.15,4.75-3.32,1.43-6.73,2.7-10.14,3.89-7.04,2.45-14.3,4.46-21.7,5.4-12.9,1.65-26.08-.04-37.17-7.16-9.62-6.18-17.39-16.61-17.2-28.46.06-3.39.88-6.71,2.73-9.57,1.69-2.61,4.12-4.68,6.72-6.35,5.2-3.35,11.16-5.66,17.05-7.45,23.38-7.11,50.2-4.63,70.56,9.46,18.49,12.8,29.51,35.52,28.49,57.95-.51,11.14-4.25,21.82-10.85,30.81-6.56,8.92-15.65,15.71-25.55,20.51-20.92,10.15-45.58,12.04-68.29,8.18s-47.39-14.96-61.88-34.75c-12.6-17.2-16.49-41.16-8.94-61.23,3.91-10.41,11.15-19.1,20.67-24.84,11.14-6.71,24.3-9.35,37.15-10.02,14.07-.73,28.57.41,41.88,5.29,11.58,4.24,21.66,11.63,29.73,20.89s13.89,19.79,18.15,31,7.04,23.22,7.86,35.27-.21,24.15-4.1,35.54c-3.89,11.41-10.87,21.59-20.61,28.78-10.58,7.81-23.26,12.13-36,14.88-14.05,3.04-28.52,4.46-42.89,3.99-26.74-.87-53.42-8.88-74.38-25.89-18.82-15.27-32.26-37.09-34.03-61.58-.87-12.01.88-24.2,5.44-35.36s12.77-21.54,22.88-29c5.49-4.05,11.44-7.44,17.61-10.32s13.25-5.39,20.28-6.63,14.06-1.19,20.82.72c5.48,1.54,10.55,4.36,14.85,8.08,8.76,7.58,14.43,18.4,16.45,29.74,2.4,13.45-.55,27.54-6,39.89-2.81,6.37-6.3,12.44-10.28,18.14-3.7,5.29-7.98,10.37-13.19,14.24s-10.81,6.18-17.04,6.84-12.22-.22-17.97-2.24c-12.03-4.23-21.21-13.63-26.92-24.84-2.91-5.71-4.93-11.86-6.2-18.14-1.36-6.68-1.99-13.67-1.12-20.46.82-6.42,3.17-12.72,7.58-17.55,3.88-4.25,9.25-7.4,15.12-7.57,11.19-.32,20.66,10.74,20.04,21.62s-11.57,20.31-22.5,20.75c-3.21.13-6.58-.37-9.46-1.88-2.67-1.4-4.69-3.62-6.1-6.26-2.87-5.39-3.18-11.96-2.44-17.91,1.63-12.99,9.11-24.74,18.59-33.48,10.22-9.43,22.78-15.85,35.42-21.37,13.48-5.89,27.83-11.31,42.8-9.97,7.3.65,14.42,2.78,21.22,5.45,5.89,2.31,11.61,5.06,17.09,8.2,20.14,11.52,38.79,29.11,46.01,51.72,3.75,11.74,3.91,24.22.56,36.07-3.61,12.78-10.84,24.38-20.04,33.89-9.49,9.81-20.94,17.49-33.04,23.69-12.74,6.53-26.28,11.76-40.26,14.91-14.06,3.16-28.83,4.07-43.01,1.1-11.3-2.37-22.16-7.39-31.12-14.69s-15.91-16.6-19.27-27.53c-3.78-12.31-2.51-25.58,2.11-37.48,9.67-24.89,33.15-40.84,57.52-49.38,26.22-9.19,56.43-11.41,81.79,1.61,10.67,5.48,20.21,13.39,26.89,23.42,7.85,11.79,10.67,25.78,12.26,39.65.81,7.07,1.36,14.57-2.16,21.04-3.16,5.8-8.4,10.43-13.31,14.75-9.82,8.64-21.37,16.08-34.42,18.47-11.39,2.08-24.33.02-33.41-7.56-8.22-6.86-12.15-18.22-9.58-28.69,1.27-5.16,4.18-9.79,8.58-12.85,5.28-3.67,11.78-5.08,18.13-5.16,11.47-.13,22.82,4.78,30.86,12.92,3.8,3.85,6.88,8.51,8.46,13.71,1.67,5.48,1.49,11.2-.39,16.61-3.81,10.98-13.27,19.89-23.25,25.41-18.98,10.5-43.06,10.64-62.84,2.27-21.82-9.23-37.56-29.15-45.75-50.93-4.26-11.31-6.71-23.29-7.32-35.36-.35-6.93-.25-13.98,1-20.82s3.85-13.48,7.84-19.35c7.08-10.43,17.42-18.84,28.12-25.35s21.57-10.87,33.29-13.73c23.41-5.72,48.58-4.44,71.02,4.49,12.07,4.81,23.91,11.9,31.3,22.87,3.83,5.68,6.46,12.03,8.5,18.54,2.16,6.93,3.8,14.05,5.13,21.19,2.71,14.56,3.67,29.78.41,44.34-2.78,12.4-8.55,24.33-17.79,33.21s-22.32,14.08-35.08,17.11c-14.47,3.43-29.42,5.28-44.22,6.65-13.66,1.27-27.48,2.16-41.2,1.51-11.62-.55-23.32-2.24-34.26-6.33-10.49-3.92-20.16-10.36-26.77-19.51-7.12-9.85-10.22-21.81-10.46-33.84s2.29-25.07,6.18-36.97c3.95-12.09,9.22-23.95,16.03-34.7s15.35-20.21,26.26-26.6c10.21-5.97,22.01-8.84,33.8-8.89s23.71,2.67,34.32,7.93,20.06,13.31,27.19,22.98c14.38,19.51,20.35,45.13,16.65,69.05-1.02,6.59-2.82,13.17-6.35,18.88-3.32,5.37-8.17,9.43-13.7,12.39s-11.55,4.82-17.61,6.32c-6.54,1.62-13.19,2.93-19.9,3.57-13.27,1.27-27.1-.29-38.02-8.52-9.55-7.2-16.11-18.26-19.21-29.7-5.58-20.61-.5-44.33,13.86-60.29,7-7.79,16.03-13.38,26.21-15.91s20.3-2.14,30.04.57,18.67,7.81,25.49,15.21c7.76,8.41,13.84,21.1,9.56,32.5-3.59,9.57-13.55,15.12-22.61,18.54-5.07,1.91-10.31,3.33-15.59,4.5-6.52,1.44-14.09,3.18-20.3-.23-5.41-2.97-8.63-8.73-11.44-13.99s-5.35-11.06-7.18-16.91c-3.39-10.87-4.93-23.53.59-34s15.64-15.17,26.66-15.37c11.54-.21,22.24,4.66,30.21,12.89,8.64,8.92,13.78,20.73,16.57,32.7,3.08,13.17,3.83,27.56-.85,40.45-4.36,12.01-13.75,21.11-24.38,27.79-5.32,3.35-10.97,6.17-16.73,8.68-6.75,2.94-13.79,5.53-21.11,6.58-6.43.92-13.1.52-19.12-2.04-5.16-2.2-9.86-5.87-12.6-10.84-3.5-6.35-2.44-13.64-1.46-20.5.56-3.96,1.12-7.92,1.69-11.88.51-3.61.8-7.36,1.73-10.89.88-3.32,2.81-5.5,5.84-7.03s6.57-2.58,9.87-3.65c7.16-2.32,14.46-4.22,21.85-5.68,12.67-2.5,25.92-4.2,38.85-2.9,10,1.01,20.74,3.87,28.36,10.76,3.7,3.34,6.49,7.59,7.87,12.4,1.64,5.68,1.15,11.7-.72,17.25-4.14,12.26-14.25,20.81-25.69,26.13-6.14,2.85-12.66,4.85-19.21,6.55-6.79,1.77-13.65,3.34-20.56,4.58-13.86,2.49-28.67,3.37-41.98-2.06-11.12-4.54-19.98-13.25-26.56-23.14-3.4-5.1-6.27-10.55-8.73-16.15-2.71-6.16-5.05-12.58-6.63-19.12-1.76-7.3-2.02-14.67,0-21.94,1.82-6.53,4.93-12.68,8.41-18.47,12.57-20.92,32.91-37.74,56.86-43.59,22.35-5.45,47.47-1.16,65.64,13.32,1.56,1.25,3.8-.96,2.22-2.22-10.34-8.24-22.8-13.49-35.85-15.5-13.03-2.01-26.52-.99-39.04,3.16s-23.44,10.84-33,19.46-17.48,19.07-23.26,30.55c-3.38,6.72-6.08,13.91-6.53,21.49s1.54,15.75,4.09,23.18c4.16,12.16,9.82,23.98,17.96,34s19.29,17.85,32.22,20.66c14.73,3.21,30.01.72,44.51-2.52,13.72-3.06,27.95-6.5,39.8-14.39,10.67-7.1,19-18.42,20.1-31.47.97-11.49-4.97-21.92-14.53-28.03s-21.01-8.1-31.99-8.41c-6.69-.19-13.39.41-20.01,1.25-7.77.98-15.47,2.41-23.07,4.33-3.88.98-7.73,2.08-11.54,3.3-3.5,1.12-7.05,2.24-10.4,3.76-3.08,1.4-5.81,3.5-7.23,6.65-1.49,3.32-1.76,7.05-2.26,10.61-.59,4.12-1.17,8.25-1.76,12.37s-1.28,8.06-1.42,12.13c-.24,6.77,1.74,13.07,6.36,18.09,4.06,4.41,9.6,7.44,15.37,8.94,7.05,1.83,14.54,1.24,21.56-.45s14.22-4.65,20.96-7.82c5.98-2.82,11.8-6.04,17.16-9.91,10.95-7.92,19.46-18.53,22.72-31.82,3.37-13.72,1.83-28.64-2.16-42.07-3.65-12.31-10.02-24.29-20.05-32.56-9.16-7.57-21.14-11.28-32.99-9.7-5.59.74-11.08,2.68-15.66,6.03-4.83,3.54-8.45,8.39-10.65,13.95-4.59,11.6-2.31,24.91,1.75,36.31,2.16,6.07,4.92,11.96,8.15,17.54s7.42,11.07,13.78,13.25c6.77,2.32,14.3.5,21.03-1.05,5.56-1.28,11.08-2.85,16.36-5.02,9.79-4,19.68-10.36,23.1-20.94,3.95-12.24-2.47-25.6-10.72-34.54-7.24-7.85-16.93-13.3-27.19-16.1s-21.47-3.06-31.86-.37-20.38,8.87-27.68,17.23-12.52,19.13-14.86,30.23-2.1,22.86,1.12,33.8c3.57,12.13,10.84,23.59,21.23,30.96,11.64,8.26,26.34,9.63,40.16,8.11,7-.77,13.95-2.14,20.76-3.91,6.34-1.64,12.66-3.78,18.35-7.09s10.64-7.95,13.95-13.74,5.25-12.94,6.22-19.81c1.79-12.73,1.03-25.79-2.17-38.24s-8.75-24.04-16.59-34.09-17.74-18-29.24-23.18c-11.46-5.17-24.14-7.68-36.71-7.07s-24.68,4.22-35.05,11.1c-11.23,7.46-19.94,18.07-26.68,29.63-6.69,11.47-11.95,24.01-15.62,36.77-3.61,12.57-5.68,25.89-4.35,38.97s5.92,24.69,14.54,34.12c8.01,8.76,18.75,14.44,30.03,17.8,11.86,3.53,24.37,4.71,36.7,4.83,15.25.14,30.57-1.12,45.7-2.93,14.8-1.78,29.97-3.76,44.15-8.54,6.54-2.21,12.91-5.1,18.61-9.03,5.53-3.81,10.29-8.53,14.22-13.97,8.05-11.13,12.23-24.69,13.41-38.28,1.39-15.98-1.23-32.11-5.13-47.57-3.47-13.77-8.74-27.27-19.57-36.95-9.95-8.89-22.75-14.6-35.49-18.19-12.16-3.42-24.9-4.82-37.51-4.27s-25.34,3.04-37.28,7.41c-11.88,4.35-23.05,10.53-32.94,18.43-10.96,8.75-20.74,19.73-24.46,33.54-1.97,7.33-2.44,15.03-2.29,22.6.12,6.37.76,12.73,1.86,19.01,2.19,12.44,6.33,24.59,12.46,35.64s14.21,20.82,24.15,28.49c9.28,7.16,20.06,12.07,31.55,14.38s23.13,2.16,34.34-.62,21.24-8.08,29.3-15.98c9.12-8.94,15.78-21.36,12.61-34.37-2.8-11.5-12.06-20.74-22.46-25.82-11.25-5.49-25.38-6.75-36.82-1.04-5.38,2.69-9.6,7.11-11.92,12.65-2.17,5.17-2.62,10.89-1.77,16.4s3.17,10.82,6.7,15.16c3.87,4.76,9.2,8.21,14.88,10.41,12.16,4.71,25.78,3.45,37.62-1.55,6.45-2.72,12.41-6.44,17.94-10.71s10.81-8.88,15.33-14.1c2.3-2.66,4.31-5.54,5.65-8.8,1.42-3.45,1.94-7.21,1.97-10.92s-.43-7.75-.91-11.59-1.02-7.53-1.75-11.26c-1.44-7.37-3.61-14.64-7.04-21.34-2.87-5.62-6.63-10.78-10.97-15.35-8.73-9.18-19.86-15.97-31.81-20.08-14.12-4.85-29.43-5.79-44.18-3.99s-28.98,6.02-42.3,12.3c-12.36,5.83-23.93,13.76-32.94,24.11s-15.22,22.92-17.14,36.41.51,25.88,7.23,37.04c6.23,10.34,15.58,18.64,26.14,24.37,11.81,6.41,25.03,9.42,38.43,9.62,15.32.23,30.56-3.07,44.94-8.19,13.66-4.86,27.01-11.17,39.02-19.33s22.15-17.84,29.67-29.89,11.79-25.2,11.62-39.01c-.15-12.2-3.93-24.08-10.14-34.53-6.34-10.67-15.02-19.89-24.77-27.53-10.28-8.07-21.75-14.5-33.92-19.23-7.16-2.78-14.63-4.86-22.31-5.45s-15.53.57-22.98,2.67-14.5,5.04-21.51,8.13-13.27,6.13-19.53,9.89c-12.08,7.26-23.01,16.87-29.59,29.52-3.14,6.04-5.23,12.61-5.81,19.4-.53,6.26.18,13.02,3.39,18.54,6.94,11.94,23.51,10.89,33.33,3.38,4.7-3.59,8.37-8.67,9.69-14.5s.11-11.85-2.97-16.9-7.86-9.03-13.5-10.73-12.23-.55-17.42,2.61c-12.33,7.52-15.82,22.48-14.78,36.01,1.02,13.37,5.27,26.94,13.37,37.75,7.94,10.6,19.47,18,32.71,19.72,6.32.82,12.9.24,18.87-2.05,6.28-2.41,11.7-6.52,16.28-11.39s8.83-10.99,12.34-17.04c3.7-6.36,6.78-13.12,8.97-20.15,4.05-13.05,4.91-27.35.45-40.41-3.91-11.45-11.53-21.93-22.13-28.02-12.57-7.22-27.58-6.59-41.02-2.32s-26.83,11.64-37.17,21.46c-9.35,8.88-15.92,20.29-19.36,32.7s-3.79,25.22-1.44,37.66,7.75,24.33,15.23,34.61,16.9,19.04,27.5,26.04c11.39,7.52,24.12,12.87,37.36,16.12,14.81,3.64,30.21,4.73,45.41,3.84,14.42-.84,29.09-3.15,42.8-7.79,12.77-4.33,24.92-11.16,33.5-21.76,7.82-9.65,12.38-21.49,14.29-33.7,1.97-12.64,1.36-25.59-1.1-38.12s-6.68-24.59-12.76-35.7c-6.03-11.02-14.02-21.04-24.02-28.7-11.28-8.65-24.75-13.33-38.76-15.15-13.95-1.81-28.69-1.44-42.4,1.87-12.54,3.02-24.65,9.12-32.93,19.24-7.09,8.67-11.05,19.38-12.25,30.46-1.23,11.32.45,23.03,4.66,33.6,4.46,11.22,11.84,20.9,21.06,28.65,9.8,8.24,21.32,14.19,33.46,18.14,12.27,3.99,25.23,5.98,38.12,6.17,12.02.18,24.16-1.37,35.68-4.86,11.32-3.43,22.14-8.8,31.12-16.56,8.82-7.62,15.57-17.61,18.81-28.85s3.01-23.44.02-34.75-8.82-22.09-16.87-30.72c-8.59-9.21-19.82-15.73-31.82-19.41-12.36-3.79-25.53-4.57-38.3-2.78-6.44.9-12.78,2.5-18.88,4.76s-12.41,5.01-17.18,9.51c-10.16,9.59-7.11,25.49.56,35.62,7.28,9.63,18.64,15.99,30.48,18.01,15.44,2.64,31.12-.98,45.58-6.34,3.31-1.22,6.67-2.45,9.83-4.03,2.74-1.38,5.4-3.26,6.93-5.99,3.31-5.91.11-12.53-4.09-17-4.65-4.95-11.13-8.34-17.41-10.72s-13.51-3.76-20.48-3.73c-13.02.07-25.65,5.04-35.23,13.84-4.62,4.24-8.5,9.37-11.17,15.05-3.21,6.81-4.76,14.2-5.46,21.66-1.48,15.68-.23,31.84,2.39,47.34,1.32,7.84,3.11,15.61,5.34,23.25,1.79,6.13,3.86,12.34,7.4,17.71,3.12,4.73,7.78,9.28,13.53,10.45,4.99,1.01,10.46-.23,14.52-3.3s6.34-8.17,4.62-13.25c-1.08-3.18-3.25-5.83-5.51-8.25-1.97-2.11-4.1-4.06-6.37-5.84-9.25-7.27-20.42-11.73-32.05-13.27-11.52-1.53-23.44-.13-34.17,4.41-2.72,1.15-5.35,2.49-7.86,4.05-2.78,1.72-5.55,3.65-7.58,6.24-4.24,5.42-3.85,12.83-1.2,18.86,4.53,10.33,15.87,16.34,26.8,16.85,12.15.56,23.35-6.28,30.66-15.61,8.78-11.21,12.02-25.31,11.99-39.35-.02-7.63-.88-15.28-2.23-22.78-1.1-6.09-2.76-12.36-6.27-17.55-3.8-5.61-9.5-8.99-16.11-10.26s-14.21-1.18-21.14-.49-13.74,2.36-19.39,6.37c-4.21,2.99-7.52,7.1-9.65,11.81-4.38,9.7-4.21,21.25.33,30.86,4.93,10.45,15.37,17.25,26.51,19.45,11.68,2.3,24.18.06,34.18-6.45,10.75-6.99,18.37-17.95,22.54-29.96s5.01-25.71,1.59-38.14c-3.41-12.4-11.41-23.07-23.17-28.62-11.4-5.38-24.44-5.95-36.75-4.12s-23.93,6.13-34.72,11.91-20.45,13.02-29.07,21.48c-8.6,8.45-16.06,18.08-22.1,28.51s-10.71,21.77-13.63,33.5c-2.46,9.88-3.68,20.08-3.53,30.26.03,2.02,3.17,2.02,3.14,0h0Z"/>
  </g>
</svg>